<svg width="17" height="16" viewBox="0 0 17 16" fill="none" xmlns="http://www.w3.org/2000/svg">
<path d="M4.58378 14.3597H4.0731C3.14664 14.305 2.2629 13.9526 1.55429 13.3552C0.845673 12.7578 0.350334 11.9477 0.142482 11.0461C-0.0287698 10.2152 0.0293532 9.35352 0.310657 8.55294C0.591961 7.75235 1.08591 7.04284 1.73986 6.5C1.13501 5.79034 0.704729 4.94973 0.483269 4.04509C0.342784 3.51603 0.342093 2.95974 0.48126 2.43034C0.620428 1.90094 0.894716 1.41646 1.27744 1.02405C1.5617 0.710765 1.90695 0.458417 2.29217 0.282366C2.67739 0.106316 3.09453 0.0102442 3.51819 0H3.56946C4.74058 0.0818211 5.84343 0.57955 6.67776 1.40281L6.75818 1.47495C7.24857 1.35198 7.75237 1.29005 8.25804 1.29058C8.65117 1.28971 9.04343 1.3273 9.42919 1.40281C10.2624 0.57909 11.3648 0.0812373 12.5355 0H12.5888C13.0125 0.00983607 13.4298 0.105725 13.8151 0.281802C14.2003 0.457879 14.5455 0.710443 14.8295 1.02405C15.2131 1.41736 15.4878 1.90309 15.6268 2.4338C15.7658 2.96452 15.7644 3.5221 15.6227 4.0521C15.4011 4.95769 14.9689 5.79863 14.3611 6.50701C15.0121 7.05012 15.5036 7.75871 15.7834 8.55765C16.0632 9.35659 16.1209 10.2161 15.9504 11.0451C15.7409 11.9476 15.2437 12.7582 14.5333 13.3556C13.8229 13.9529 12.9376 14.3048 12.0097 14.3587H11.5001C11.0818 14.8679 10.556 15.279 9.9602 15.5627C9.36441 15.8463 8.71323 15.9957 8.05297 16C7.39004 15.9933 6.73649 15.8431 6.13751 15.5599C5.53852 15.2767 5.00839 14.8672 4.58378 14.3597ZM2.97534 6.55812L2.87481 6.85872L2.6235 7.05311C2.54609 7.12024 0.532527 8.73347 1.11056 10.7725C1.25317 11.4702 1.62261 12.1015 2.16165 12.5687C2.70069 13.0359 3.37924 13.3129 4.0922 13.3567H4.99694C5.13025 13.3567 5.2581 13.4095 5.35236 13.5035C5.44662 13.5974 5.49958 13.7248 5.49958 13.8577C5.50002 13.8607 5.50002 13.8637 5.49958 13.8667V13.8768C5.83013 14.2231 6.22644 14.5004 6.66547 14.6927C7.10451 14.8851 7.57751 14.9885 8.05699 14.997C8.54425 14.9887 9.02459 14.8806 9.46817 14.6794C9.91174 14.4783 10.3091 14.1883 10.6355 13.8277C10.644 13.7006 10.7006 13.5815 10.794 13.4946C10.8873 13.4077 11.0104 13.3594 11.1382 13.3597H12.0128C12.7236 13.3133 13.3993 13.0347 13.9354 12.567C14.4714 12.0994 14.838 11.4687 14.9783 10.7725C15.5553 8.73247 13.5398 7.11723 13.4533 7.0501L13.1708 6.82966L13.0874 6.47896C13.0472 6.30762 12.0701 2.28858 8.25201 2.28858C4.37669 2.28858 3.03465 6.38377 2.97936 6.55812H2.97534ZM2.01028 1.71443C0.717497 3.06814 1.77706 4.86573 2.29176 5.57615C2.96818 3.99326 4.16367 2.68613 5.68254 1.86874C5.08979 1.36312 4.35051 1.05945 3.57247 1.002H3.53528C3.24564 1.01008 2.96078 1.0775 2.69841 1.20007C2.43605 1.32264 2.20181 1.49772 2.01028 1.71443ZM10.5672 1.75952C12.1128 2.54345 13.2904 3.89772 13.8494 5.53407C14.352 4.83267 15.3794 3.05311 14.1037 1.71443C13.9113 1.49675 13.6757 1.32109 13.4119 1.19849C13.1481 1.07588 12.8617 1.00899 12.5707 1.002H12.5355C11.8153 1.04511 11.1262 1.30977 10.5632 1.75952H10.5672ZM8.05397 13.6954C7.86969 13.8595 7.63059 13.9492 7.38346 13.9469C7.11869 13.9528 6.86226 13.8544 6.66989 13.673C6.47752 13.4916 6.36474 13.2418 6.35607 12.978L7.02558 12.9479C7.02714 12.9932 7.03763 13.0377 7.05647 13.0789C7.0753 13.1202 7.1021 13.1573 7.13534 13.1882C7.16857 13.2191 7.2076 13.2431 7.25017 13.259C7.29275 13.2748 7.33804 13.2822 7.38346 13.2806C7.42636 13.2832 7.46935 13.2769 7.50967 13.2621C7.55 13.2472 7.58678 13.2242 7.61769 13.1944C7.6768 13.1273 7.70964 13.0412 7.71017 12.9519V12.2204C7.43047 12.0919 7.18323 11.9025 6.98664 11.6661C6.79006 11.4298 6.64913 11.1525 6.57421 10.8547C6.57325 10.7824 6.58693 10.7105 6.61445 10.6436C6.64197 10.5766 6.68276 10.5159 6.73438 10.465C6.78599 10.4141 6.84738 10.3741 6.91486 10.3474C6.98234 10.3207 7.05453 10.3079 7.12711 10.3096H8.96575C9.03833 10.3079 9.11052 10.3207 9.17801 10.3474C9.24549 10.3741 9.30687 10.4141 9.35849 10.465C9.41011 10.5159 9.4509 10.5766 9.47842 10.6436C9.50594 10.7105 9.51962 10.7824 9.51865 10.8547C9.4439 11.1505 9.30398 11.4261 9.10906 11.6613C8.91413 11.8965 8.66909 12.0854 8.39174 12.2144V12.9499C8.39227 13.0392 8.42511 13.1253 8.48423 13.1924C8.51513 13.2222 8.55192 13.2452 8.59224 13.26C8.63257 13.2749 8.67555 13.2812 8.71846 13.2786C8.76391 13.2803 8.80926 13.2731 8.85189 13.2573C8.89452 13.2414 8.9336 13.2174 8.96686 13.1865C9.00013 13.1555 9.02693 13.1184 9.04572 13.0771C9.0645 13.0358 9.07491 12.9912 9.07634 12.9459L9.74585 12.976C9.73717 13.2398 9.6244 13.4896 9.43203 13.671C9.23966 13.8524 8.98323 13.9508 8.71846 13.9449C8.47184 13.9481 8.23296 13.8591 8.04895 13.6954H8.05397ZM10.3842 8.30261C10.3842 7.7485 10.6858 7.3006 11.0547 7.3006C11.4237 7.3006 11.7252 7.7495 11.7252 8.30261C11.7252 8.85571 11.4237 9.30461 11.0547 9.30461C10.6858 9.30461 10.3842 8.85571 10.3842 8.30261ZM4.35256 8.30261C4.35256 7.7485 4.65414 7.3006 5.02308 7.3006C5.39201 7.3006 5.6936 7.7495 5.6936 8.30261C5.6936 8.85571 5.39201 9.30461 5.02308 9.30461C4.65414 9.30461 4.35256 8.85571 4.35256 8.30261Z" fill="currentColor"/>
</svg>
