<svg width="16" height="16" viewBox="0 0 16 16" fill="none" xmlns="http://www.w3.org/2000/svg">
<path d="M8 0C12.4183 0 16 3.58172 16 8C16 12.4183 12.4183 16 8 16C3.58172 16 0 12.4183 0 8C0 3.58172 3.58172 0 8 0ZM8 1C4.13401 1 1 4.13401 1 8C1 11.866 4.13401 15 8 15C11.866 15 15 11.866 15 8C15 4.13401 11.866 1 8 1ZM8.14648 4.64648C8.34175 4.45122 8.65825 4.45122 8.85352 4.64648L11.8535 7.64648C12.0488 7.84175 12.0488 8.15825 11.8535 8.35352L8.85352 11.3535C8.65825 11.5488 8.34175 11.5488 8.14648 11.3535C7.95122 11.1583 7.95122 10.8417 8.14648 10.6465L10.293 8.5H4.5C4.22386 8.5 4 8.27614 4 8C4 7.72386 4.22386 7.5 4.5 7.5H10.293L8.14648 5.35352C7.95122 5.15825 7.95122 4.84175 8.14648 4.64648Z" fill="currentColor"/>
</svg>
