<svg width="16" height="16" viewBox="0 0 16 16" fill="none" xmlns="http://www.w3.org/2000/svg">
<path d="M14 0C15.1046 0 16 0.895431 16 2V14C16 15.1046 15.1046 16 14 16H2C0.895431 16 0 15.1046 0 14V2C0 0.895431 0.895431 0 2 0H14ZM2 1C1.44772 1 1 1.44772 1 2V14C1 14.5523 1.44772 15 2 15H14C14.5523 15 15 14.5523 15 14V2C15 1.44772 14.5523 1 14 1H2ZM9.47461 5C9.75075 5 9.97461 5.22386 9.97461 5.5C9.97461 5.77614 9.75075 6 9.47461 6H6.70703L10.8037 10.0957C10.999 10.291 10.999 10.6084 10.8037 10.8037C10.6086 10.9988 10.292 10.9985 10.0967 10.8037L6 6.70703V9.47461C6 9.75075 5.77614 9.97461 5.5 9.97461C5.22386 9.97461 5 9.75075 5 9.47461V5.5C5 5.22386 5.22386 5 5.5 5H9.47461Z" fill="currentColor"/>
</svg>
