<svg width="16" height="16" viewBox="0 0 16 16" fill="none" xmlns="http://www.w3.org/2000/svg">
<path fill-rule="evenodd" clip-rule="evenodd" d="M8 3C10.7614 3 13 5.23857 13 8C13 10.7614 10.7614 13 8 13C5.23858 13 3 10.7614 3 8C3 7.25457 3.1628 6.54852 3.45431 5.91433C3.56963 5.66343 3.45973 5.36654 3.20882 5.25121C2.95792 5.13588 2.66102 5.24578 2.54569 5.49669C2.19519 6.25923 2 7.1075 2 8C2 11.3137 4.68629 14 8 14C11.3137 14 14 11.3137 14 8C14 4.68629 11.3137 2 8 2V3Z" fill="currentColor"/>
<path d="M7.99999 4.46629V0.533803C7.99999 0.321844 7.75278 0.206055 7.58994 0.341748L5.23046 2.30799C5.11052 2.40794 5.11052 2.59215 5.23046 2.6921L7.58994 4.65834C7.75278 4.79404 7.99999 4.67825 7.99999 4.46629Z" fill="currentColor"/>
</svg>
