<svg width="16" height="16" viewBox="0 0 16 16" fill="none" xmlns="http://www.w3.org/2000/svg">
<path d="M14 0C15.1046 0 16 0.895431 16 2V14C16 15.1046 15.1046 16 14 16H2C0.895431 16 0 15.1046 0 14V2C0 0.895431 0.895431 0 2 0H14ZM2 1C1.44772 1 1 1.44772 1 2V14C1 14.5523 1.44772 15 2 15H14C14.5523 15 15 14.5523 15 14V2C15 1.44772 14.5523 1 14 1H2ZM8.14648 4.64648C8.34175 4.45122 8.65825 4.45122 8.85352 4.64648L11.8535 7.64648C12.0488 7.84175 12.0488 8.15825 11.8535 8.35352L8.85352 11.3535C8.65825 11.5488 8.34175 11.5488 8.14648 11.3535C7.95122 11.1583 7.95122 10.8417 8.14648 10.6465L10.293 8.5H4.5C4.22386 8.5 4 8.27614 4 8C4 7.72386 4.22386 7.5 4.5 7.5H10.293L8.14648 5.35352C7.95122 5.15825 7.95122 4.84175 8.14648 4.64648Z" fill="currentColor"/>
</svg>
