<svg width="16" height="16" viewBox="0 0 16 16" fill="none" xmlns="http://www.w3.org/2000/svg">
<path d="M14 0C15.1046 0 16 0.895431 16 2V14C16 15.1046 15.1046 16 14 16H2C0.895431 16 0 15.1046 0 14V2C0 0.895431 0.895431 0 2 0H14ZM2 1C1.44772 1 1 1.44772 1 2V14C1 14.5523 1.44772 15 2 15H14C14.5523 15 15 14.5523 15 14V2C15 1.44772 14.5523 1 14 1H2ZM10.0967 5.14648C10.292 4.95145 10.6085 4.9513 10.8037 5.14648C10.9987 5.34169 10.9987 5.65831 10.8037 5.85352L6.70703 9.9502H9.47461C9.75075 9.9502 9.97461 10.1741 9.97461 10.4502C9.97437 10.7261 9.7506 10.9502 9.47461 10.9502H5.5C5.22401 10.9502 5.00024 10.7261 5 10.4502V6.47461C5.00014 6.19859 5.22394 5.97461 5.5 5.97461C5.77606 5.97461 5.99986 6.19859 6 6.47461V9.24219L10.0967 5.14648Z" fill="currentColor"/>
</svg>
