<svg width="16" height="16" viewBox="0 0 16 16" fill="none" xmlns="http://www.w3.org/2000/svg">
<path d="M14 0C15.1046 0 16 0.895431 16 2V14C16 15.1046 15.1046 16 14 16H2C0.895431 16 0 15.1046 0 14V2C0 0.895431 0.895431 0 2 0H14ZM2 1C1.44772 1 1 1.44772 1 2V14C1 14.5523 1.44772 15 2 15H14C14.5523 15 15 14.5523 15 14V2C15 1.44772 14.5523 1 14 1H2ZM7.64648 4.14648C7.84175 3.95122 8.15825 3.95122 8.35352 4.14648L11.3535 7.14648C11.5488 7.34175 11.5488 7.65825 11.3535 7.85352C11.1583 8.04878 10.8417 8.04878 10.6465 7.85352L8.5 5.70703V11.5C8.5 11.7761 8.27614 12 8 12C7.72386 12 7.5 11.7761 7.5 11.5V5.70703L5.35352 7.85352C5.15825 8.04878 4.84175 8.04878 4.64648 7.85352C4.45122 7.65825 4.45122 7.34175 4.64648 7.14648L7.64648 4.14648Z" fill="currentColor"/>
</svg>
