<svg width="16" height="16" viewBox="0 0 16 16" fill="none" xmlns="http://www.w3.org/2000/svg">
<path d="M14 0C15.1046 0 16 0.895431 16 2V14C16 15.1046 15.1046 16 14 16H2C0.895431 16 0 15.1046 0 14V2C0 0.895431 0.895431 0 2 0H14ZM2 1C1.44772 1 1 1.44772 1 2V14C1 14.5523 1.44772 15 2 15H14C14.5523 15 15 14.5523 15 14V2C15 1.44772 14.5523 1 14 1H2ZM8 4C8.27614 4 8.5 4.22386 8.5 4.5V10.293L10.6465 8.14648C10.8417 7.95122 11.1583 7.95122 11.3535 8.14648C11.5488 8.34175 11.5488 8.65825 11.3535 8.85352L8.35352 11.8535C8.15825 12.0488 7.84175 12.0488 7.64648 11.8535L4.64648 8.85352C4.45122 8.65825 4.45122 8.34175 4.64648 8.14648C4.84175 7.95122 5.15825 7.95122 5.35352 8.14648L7.5 10.293V4.5C7.5 4.22386 7.72386 4 8 4Z" fill="currentColor"/>
</svg>
