<svg width="16" height="16" viewBox="0 0 16 16" fill="none" xmlns="http://www.w3.org/2000/svg">
<path d="M8 0C12.4183 0 16 3.58172 16 8C16 12.4183 12.4183 16 8 16C3.58172 16 0 12.4183 0 8C0 3.58172 3.58172 0 8 0ZM8 1C4.13401 1 1 4.13401 1 8C1 11.866 4.13401 15 8 15C11.866 15 15 11.866 15 8C15 4.13401 11.866 1 8 1ZM10.4502 5C10.7261 5.00025 10.9502 5.22401 10.9502 5.5V9.47461C10.9502 9.7506 10.7261 9.97436 10.4502 9.97461C10.1741 9.97461 9.95019 9.75075 9.9502 9.47461V6.70703L5.85352 10.8037C5.65831 10.9987 5.34169 10.9987 5.14648 10.8037C4.95122 10.6084 4.95122 10.291 5.14648 10.0957L9.24219 6H6.47461C6.1986 5.99984 5.97461 5.77604 5.97461 5.5C5.97461 5.22396 6.1986 5.00016 6.47461 5H10.4502Z" fill="currentColor"/>
</svg>
