<svg width="16" height="16" viewBox="0 0 16 16" fill="none" xmlns="http://www.w3.org/2000/svg">
<path d="M14.1213 1.87851C12.9497 0.706934 11.0503 0.706934 9.87868 1.87851L8.73336 3.02608L12.994 7.28675L14.1213 6.1211C15.2928 4.94953 15.2929 3.05008 14.1213 1.87851ZM12.2929 7.99983L8.02694 3.73388L3.73825 8.03097L8 12.2927L12.2929 7.99983ZM7.28692 12.9938L3.02999 8.73693L1.87868 9.87851C0.707767 11.0501 0.707327 12.9498 1.87868 14.1211C3.05025 15.2927 4.94975 15.2927 6.12132 14.1211L6.12724 14.1152L7.28692 12.9938ZM2.67944 7.67627L9.17123 1.17175C10.7333 -0.390351 13.2663 -0.390697 14.8284 1.1714C16.3895 2.73248 16.3905 5.26286 14.8315 6.8252L13.3536 8.35343L8.34763 13.3593L6.82538 14.8313C5.26304 16.3903 2.73266 16.3893 1.17157 14.8282C-0.390523 13.2661 -0.390523 10.7335 1.17157 9.17141L1.17307 9.16991L2.67759 7.67811L2.67944 7.67627Z" fill="currentColor"/>
<path d="M5.56065 7.64645C5.75591 7.84171 5.75591 8.15829 5.56065 8.35355C5.36539 8.54882 5.04881 8.54882 4.85354 8.35355C4.65828 8.15829 4.65828 7.84171 4.85354 7.64645C5.04881 7.45118 5.36539 7.45118 5.56065 7.64645Z" fill="currentColor"/>
<path d="M6.97486 6.23226C7.17013 6.42753 7.17013 6.74411 6.97486 6.93937C6.7796 7.13463 6.46302 7.13463 6.26776 6.93937C6.07249 6.74411 6.07249 6.42753 6.26776 6.23226C6.46302 6.037 6.7796 6.037 6.97486 6.23226Z" fill="currentColor"/>
<path d="M8.38908 4.81802C8.58434 5.01328 8.58434 5.32985 8.38908 5.52512C8.19382 5.72038 7.87723 5.72038 7.68197 5.52512C7.48671 5.32985 7.48671 5.01328 7.68197 4.81802C7.87723 4.62276 8.19382 4.62276 8.38908 4.81802Z" fill="currentColor"/>
<path d="M8.38908 10.4749C8.58434 10.6701 8.58434 10.9867 8.38908 11.182C8.19382 11.3772 7.87723 11.3772 7.68197 11.182C7.48671 10.9867 7.48671 10.6701 7.68197 10.4749C7.87723 10.2796 8.19382 10.2796 8.38908 10.4749Z" fill="currentColor"/>
<path d="M9.80329 9.06063C9.99855 9.25589 9.99855 9.57247 9.80329 9.76774C9.60803 9.963 9.29145 9.963 9.09618 9.76774C8.90092 9.57247 8.90092 9.25589 9.09618 9.06063C9.29145 8.86537 9.60803 8.86537 9.80329 9.06063Z" fill="currentColor"/>
<path d="M11.2175 7.64645C11.4128 7.84171 11.4128 8.15829 11.2175 8.35355C11.0223 8.54882 10.7057 8.54882 10.5104 8.35355C10.3151 8.15829 10.3151 7.84171 10.5104 7.64645C10.7057 7.45118 11.0223 7.45118 11.2175 7.64645Z" fill="currentColor"/>
<path d="M6.97486 9.06063C7.17013 9.25589 7.17013 9.57247 6.97486 9.76774C6.7796 9.963 6.46302 9.963 6.26776 9.76774C6.07249 9.57247 6.07249 9.25589 6.26776 9.06063C6.46302 8.86537 6.7796 8.86537 6.97486 9.06063Z" fill="currentColor"/>
<path d="M8.38908 7.64645C8.58434 7.84171 8.58434 8.15829 8.38908 8.35355C8.19382 8.54882 7.87723 8.54882 7.68197 8.35355C7.48671 8.15829 7.48671 7.84171 7.68197 7.64645C7.87723 7.45118 8.19382 7.45118 8.38908 7.64645Z" fill="currentColor"/>
<path d="M9.80329 6.23226C9.99855 6.42753 9.99855 6.74411 9.80329 6.93937C9.60803 7.13463 9.29145 7.13463 9.09618 6.93937C8.90092 6.74411 8.90092 6.42753 9.09618 6.23226C9.29145 6.037 9.60803 6.037 9.80329 6.23226Z" fill="currentColor"/>
</svg>
