<svg width="16" height="16" viewBox="0 0 16 16" fill="none" xmlns="http://www.w3.org/2000/svg">
<path d="M8.27735 0.0839744C8.10941 -0.0279915 7.89061 -0.0279915 7.72266 0.0839744L0.222688 5.08395C0.03936 5.20617 -0.0423561 5.43399 0.0214928 5.64487C0.0853417 5.85574 0.279704 5.99997 0.500037 5.99997H2.37503V12.9999H1.50003C1.22389 12.9999 1.00004 13.2238 1.00004 13.4999C1.00004 13.776 1.22389 13.9999 1.50003 13.9999H14.4999C14.7761 13.9999 14.9999 13.776 14.9999 13.4999C14.9999 13.2238 14.7761 12.9999 14.4999 12.9999H13.6249V5.99997H15.4999C15.7203 5.99997 15.9146 5.85574 15.9785 5.64487C16.0423 5.43399 15.9606 5.20617 15.7773 5.08395L8.27735 0.0839744ZM12.3749 5.99997V12.9999H11.125V5.99997H12.3749ZM9.875 5.99997V12.9999H8.625V5.99997H9.875ZM7.37501 5.99997V12.9999H6.12501V5.99997H7.37501ZM4.87502 5.99997V12.9999H3.62502V5.99997H4.87502ZM7.99997 3.99998C7.44769 3.99998 6.99997 3.55226 6.99997 2.99999C6.99997 2.44771 7.44769 1.99999 7.99997 1.99999C8.55224 1.99999 8.99996 2.44771 8.99996 2.99999C8.99996 3.55226 8.55224 3.99998 7.99997 3.99998Z" fill="currentColor"/>
<path d="M0.499998 14.9999C0.223856 14.9999 7.65337e-10 15.2238 7.65337e-10 15.4999C7.65337e-10 15.776 0.223856 15.9999 0.499998 15.9999H15.4999C15.7761 15.9999 15.9999 15.776 15.9999 15.4999C15.9999 15.2238 15.7761 14.9999 15.4999 14.9999H0.499998Z" fill="currentColor"/>
</svg>
