<svg width="16" height="16" viewBox="0 0 16 16" fill="none" xmlns="http://www.w3.org/2000/svg">
<path d="M5.75725 1.07124C5.99404 1.21332 6.07082 1.52045 5.92875 1.75724L3.3831 5.99999H12.6169L10.0713 1.75724C9.92918 1.52045 10.006 1.21332 10.2428 1.07124C10.4795 0.929165 10.7867 1.00595 10.9287 1.24274L13.7831 5.99999H15C15.5523 5.99999 16 6.44771 16 6.99999V7.99999C16 8.55227 15.5523 8.99999 15 8.99999V13.5002C15 14.881 13.8806 16 12.5 16H3.5C2.11937 16 1 14.881 1 13.5002V8.99999C0.447715 8.99999 0 8.55227 0 7.99999V6.99999C0 6.44771 0.447715 5.99999 1 5.99999H2.2169L5.07125 1.24274C5.21333 1.00595 5.52046 0.929165 5.75725 1.07124ZM2 8.99999V13.5002C2 14.3286 2.67149 15 3.5 15H12.5C13.3285 15 14 14.3286 14 13.5002V8.99999H2ZM1 6.99999V7.99999H15V6.99999H1ZM4 9.99999C4.27614 9.99999 4.5 10.2239 4.5 10.5V13.5C4.5 13.7761 4.27614 14 4 14C3.72386 14 3.5 13.7761 3.5 13.5V10.5C3.5 10.2239 3.72386 9.99999 4 9.99999ZM6 9.99999C6.27614 9.99999 6.5 10.2239 6.5 10.5V13.5C6.5 13.7761 6.27614 14 6 14C5.72386 14 5.5 13.7761 5.5 13.5V10.5C5.5 10.2239 5.72386 9.99999 6 9.99999ZM8 9.99999C8.27614 9.99999 8.5 10.2239 8.5 10.5V13.5C8.5 13.7761 8.27614 14 8 14C7.72386 14 7.5 13.7761 7.5 13.5V10.5C7.5 10.2239 7.72386 9.99999 8 9.99999ZM10 9.99999C10.2761 9.99999 10.5 10.2239 10.5 10.5V13.5C10.5 13.7761 10.2761 14 10 14C9.72386 14 9.5 13.7761 9.5 13.5V10.5C9.5 10.2239 9.72386 9.99999 10 9.99999ZM12 9.99999C12.2761 9.99999 12.5 10.2239 12.5 10.5V13.5C12.5 13.7761 12.2761 14 12 14C11.7239 14 11.5 13.7761 11.5 13.5V10.5C11.5 10.2239 11.7239 9.99999 12 9.99999Z" fill="currentColor"/>
</svg>
