<svg width="16" height="16" viewBox="0 0 16 16" fill="none" xmlns="http://www.w3.org/2000/svg">
<path d="M4 10C4 9.44772 4.44772 9 5 9C5.55228 9 6 9.44772 6 10V12C6 12.5523 5.55228 13 5 13C4.44772 13 4 12.5523 4 12V10Z" fill="currentColor"/>
<path d="M7 10C7 9.44772 7.44772 9 8 9C8.55228 9 9 9.44772 9 10V12C9 12.5523 8.55228 13 8 13C7.44772 13 7 12.5523 7 12V10Z" fill="currentColor"/>
<path d="M10 10C10 9.44772 10.4477 9 11 9C11.5523 9 12 9.44772 12 10V12C12 12.5523 11.5523 13 11 13C10.4477 13 10 12.5523 10 12V10Z" fill="currentColor"/>
<path d="M5.75725 1.07121C5.99404 1.21329 6.07082 1.52042 5.92875 1.75721L3.3831 5.99996H12.6169L10.0713 1.75721C9.92918 1.52042 10.006 1.21329 10.2428 1.07121C10.4795 0.929134 10.7867 1.00592 10.9287 1.24271L13.7831 5.99996H15.5C15.7761 5.99996 16 6.22381 16 6.49996V7.49996C16 7.7761 15.7761 7.99996 15.5 7.99996H14.8772L13.0326 14.456C12.9406 14.778 12.6463 15 12.3114 15H3.68858C3.35372 15 3.05943 14.778 2.96743 14.456L1.12285 7.99996H0.5C0.223858 7.99996 0 7.7761 0 7.49996V6.49996C0 6.22381 0.223858 5.99996 0.5 5.99996H2.2169L5.07125 1.24271C5.21333 1.00592 5.52046 0.929134 5.75725 1.07121ZM2.16287 7.99996L3.87715 14H12.1228L13.8371 7.99996H2.16287Z" fill="currentColor"/>
</svg>
