<svg width="16" height="16" viewBox="0 0 16 16" fill="none" xmlns="http://www.w3.org/2000/svg">
<path d="M5.75725 1.07124C5.99404 1.21332 6.07082 1.52045 5.92875 1.75724L3.3831 5.99999H12.6169L10.0713 1.75724C9.92918 1.52045 10.006 1.21332 10.2428 1.07124C10.4795 0.929165 10.7867 1.00595 10.9287 1.24274L13.7831 5.99999H15.5C15.7761 5.99999 16 6.22385 16 6.49999V7.49999C16 7.77613 15.7761 7.99999 15.5 7.99999H0.5C0.223858 7.99999 0 7.77613 0 7.49999V6.49999C0 6.22385 0.223858 5.99999 0.5 5.99999H2.2169L5.07125 1.24274C5.21333 1.00595 5.52046 0.929165 5.75725 1.07124ZM3.39353 15L1.91457 9.00004H0.942572L2.46776 15.4262C2.54915 15.7629 2.85044 16 3.19676 16H12.8032C13.1496 16 13.4509 15.7629 13.5322 15.4262L15.0574 9.00004H14.0854L12.6065 15H3.39353Z" fill="currentColor"/>
</svg>
