<svg width="16" height="16" viewBox="0 0 16 16" fill="none" xmlns="http://www.w3.org/2000/svg">
<path d="M4.23828 2.96387H3.96484C3.00098 2.96387 2.61133 3.4082 2.61133 4.50195V6.2998C2.61133 7.28418 2.11914 7.79688 1.11426 7.89941V8.06348C2.11914 8.16602 2.61133 8.67871 2.61133 9.66309V11.4609C2.61133 12.5547 3.00098 12.999 3.96484 12.999H4.23828V13.9629H3.8623C2.24902 13.9629 1.49023 13.2041 1.49023 11.6113V10.0869C1.49023 8.99316 1.11426 8.63086 0 8.63086V7.33203C1.11426 7.33203 1.49023 6.96973 1.49023 5.87598V4.35156C1.49023 2.75879 2.24902 2 3.8623 2H4.23828V2.96387ZM12.1377 2C13.751 2 14.5098 2.75879 14.5098 4.35156V5.87598C14.5098 6.96973 14.8857 7.33203 16 7.33203V8.63086C14.8857 8.63086 14.5098 8.99316 14.5098 10.0869V11.6113C14.5098 13.2041 13.751 13.9629 12.1377 13.9629H11.7617V12.999H12.0352C12.999 12.999 13.3887 12.5547 13.3887 11.4609V9.66309C13.3887 8.67871 13.8809 8.16602 14.8857 8.06348V7.89941C13.8809 7.79688 13.3887 7.28418 13.3887 6.2998V4.50195C13.3887 3.4082 12.999 2.96387 12.0352 2.96387H11.7617V2H12.1377ZM8.5 6.79297L10.1211 5.17188L10.8281 5.87891L9.20703 7.5H11.5V8.5H9.20703L10.8281 10.1211L10.1211 10.8281L8.5 9.20703V11.5H7.5V9.20703L5.87891 10.8281L5.17188 10.1211L6.79297 8.5H4.5V7.5H6.79297L5.17188 5.87891L5.87891 5.17188L7.5 6.79297V4.5H8.5V6.79297Z" fill="currentColor"/>
</svg>
