<svg width="16" height="16" viewBox="0 0 16 16" fill="none" xmlns="http://www.w3.org/2000/svg">
<path d="M3.05025 3.05027C0.316581 5.78394 0.316581 10.2161 3.05025 12.9498C3.24551 13.145 3.24551 13.4616 3.05025 13.6569C2.85499 13.8521 2.53841 13.8521 2.34315 13.6569C-0.78105 10.5327 -0.78105 5.46735 2.34315 2.34316C2.53841 2.1479 2.85499 2.1479 3.05025 2.34316C3.24551 2.53842 3.24551 2.855 3.05025 3.05027ZM5.17157 5.17159C3.60948 6.73368 3.60948 9.26634 5.17157 10.8284C5.36683 11.0237 5.36683 11.3403 5.17157 11.5355C4.97631 11.7308 4.65973 11.7308 4.46447 11.5355C2.51184 9.58293 2.51184 6.4171 4.46447 4.46448C4.65973 4.26922 4.97631 4.26922 5.17157 4.46448C5.36683 4.65974 5.36683 4.97632 5.17157 5.17159ZM10.8284 4.46448C11.0237 4.26922 11.3403 4.26922 11.5355 4.46448C13.4882 6.4171 13.4882 9.58293 11.5355 11.5355C11.3403 11.7308 11.0237 11.7308 10.8284 11.5355C10.6332 11.3403 10.6332 11.0237 10.8284 10.8284C12.3905 9.26634 12.3905 6.73368 10.8284 5.17159C10.6332 4.97632 10.6332 4.65974 10.8284 4.46448ZM12.9497 2.34316C13.145 2.1479 13.4616 2.1479 13.6569 2.34316C16.781 5.46735 16.781 10.5327 13.6569 13.6569C13.4616 13.8521 13.145 13.8521 12.9497 13.6569C12.7545 13.4616 12.7545 13.145 12.9497 12.9498C15.6834 10.2161 15.6834 5.78394 12.9497 3.05027C12.7545 2.855 12.7545 2.53842 12.9497 2.34316Z" fill="currentColor"/>
<path d="M9.99997 8C9.99997 9.10457 9.10457 10 8 10C6.89543 10 6 9.10457 6 8C6 6.89543 6.89543 6 8 6C9.10457 6 9.99997 6.89543 9.99997 8Z" fill="currentColor"/>
</svg>
