<svg width="16" height="16" viewBox="0 0 16 16" fill="none" xmlns="http://www.w3.org/2000/svg">
<path d="M12.5 0C12.7761 0 13 0.223858 13 0.5V1H14C15.1046 1 16 1.89543 16 3V14C16 15.1046 15.1046 16 14 16H2C0.895431 16 0 15.1046 0 14V3C0 1.89543 0.895431 1 2 1H3V0.5C3 0.223858 3.22386 0 3.5 0C3.77614 0 4 0.223858 4 0.5V1H12V0.5C12 0.223858 12.2239 0 12.5 0ZM2 2C1.44772 2 1 2.44772 1 3V14C1 14.5523 1.44772 15 2 15H14C14.5523 15 15 14.5523 15 14V3C15 2.44772 14.5523 2 14 2H2ZM8 7.99316C9.66439 6.28241 13.8254 9.27581 8 13.125C2.17465 9.27581 6.33561 6.28241 8 7.99316ZM13 3.5C13.2761 3.5 13.5 3.72386 13.5 4V5C13.5 5.27614 13.2761 5.5 13 5.5H3C2.72386 5.5 2.5 5.27614 2.5 5V4C2.5 3.72386 2.72386 3.5 3 3.5H13Z" fill="currentColor"/>
</svg>
