<svg width="16" height="16" viewBox="0 0 16 16" fill="none" xmlns="http://www.w3.org/2000/svg">
<path d="M1.42773 4.17969C1.1691 4.36045 1 4.66052 1 5V11C1 11.5523 1.44772 12 2 12H7.01367L7.72754 13H2C0.895431 13 0 12.1046 0 11V5C7.87156e-08 4.32523 0.334807 3.7294 0.84668 3.36719L1.42773 4.17969ZM9.5 3C10.5158 3 11.3551 3.75744 11.4834 4.73828L14.5938 3.35547C15.255 3.06156 16 3.54587 16 4.26953V11.7305C16 12.4541 15.255 12.9384 14.5938 12.6445L11.4834 11.2617C11.428 11.6855 11.2387 12.067 10.9609 12.3643L10.3545 11.5156C10.4457 11.3648 10.5 11.1891 10.5 11V5C10.5 4.44772 10.0523 4 9.5 4H4.98633L4.27246 3H9.5ZM11.5 5.8252V10.1748L15 11.7305V4.26953L11.5 5.8252Z" fill="currentColor"/>
<path fill-rule="evenodd" clip-rule="evenodd" d="M10.5931 15.2906L0.593132 1.29059L1.40687 0.709351L11.4069 14.7094L10.5931 15.2906Z" fill="currentColor"/>
</svg>
