<svg width="16" height="16" viewBox="0 0 16 16" fill="none" xmlns="http://www.w3.org/2000/svg">
<path d="M14 1C14.5523 1 15 1.44772 15 2V14C15 14.5523 14.5523 15 14 15H2C1.44772 15 1 14.5523 1 14V2C1 1.44772 1.44772 1 2 1H14ZM2 0C0.895431 0 0 0.895431 0 2V14C0 15.1046 0.895431 16 2 16H14C15.1046 16 16 15.1046 16 14V2C16 0.895431 15.1046 0 14 0H2Z" fill="currentColor"/>
<path d="M5.79517 12.4561C5.61556 12.3755 5.5 12.1969 5.5 12V4.00001C5.5 3.80312 5.61556 3.62455 5.79517 3.54389C5.97479 3.46323 6.18502 3.4955 6.33218 3.62631L10.8322 7.62631C10.9389 7.72119 11 7.85719 11 8.00001C11 8.14283 10.9389 8.27883 10.8322 8.37372L6.33218 12.3737C6.18502 12.5045 5.97479 12.5368 5.79517 12.4561Z" fill="currentColor"/>
</svg>
