<svg width="16" height="16" viewBox="0 0 16 16" fill="none" xmlns="http://www.w3.org/2000/svg">
<path d="M14 0C15.1046 0 16 0.895431 16 2V14C16 15.1046 15.1046 16 14 16H2C0.895431 16 0 15.1046 0 14V2C0 0.895431 0.895431 0 2 0H14ZM2 1C1.44772 1 1 1.44772 1 2V14C1 14.5523 1.44772 15 2 15H14C14.5523 15 15 14.5523 15 14V2C15 1.44772 14.5523 1 14 1H2ZM5.39941 4.8877C6.71771 4.88775 7.68847 5.70024 7.74121 6.88672V6.99707H6.59473C6.54639 6.3599 6.08929 5.8897 5.4082 5.88965C4.57764 5.88965 4.08984 6.53076 4.08984 7.64258V8.38574C4.08998 9.49286 4.56897 10.1123 5.4082 10.1123C6.0979 10.1123 6.5462 9.67745 6.59473 9.0625H7.74121V9.17676C7.68382 10.3234 6.71312 11.1142 5.39941 11.1143C3.78678 11.1143 2.88103 10.0861 2.88086 8.38574V7.63867C2.88086 5.93799 3.79541 4.8877 5.39941 4.8877ZM10.8027 4.8877C12.1211 4.8877 13.0928 5.7002 13.1455 6.88672V6.99707H11.998C11.9497 6.35986 11.4927 5.88965 10.8115 5.88965C9.981 5.88969 9.49316 6.53079 9.49316 7.64258V8.38574C9.4933 9.49283 9.97234 10.1123 10.8115 10.1123C11.5013 10.1123 11.9495 9.67747 11.998 9.0625H13.1455V9.17676C13.0881 10.3235 12.1165 11.1143 10.8027 11.1143C9.19014 11.1142 8.28533 10.0861 8.28516 8.38574V7.63867C8.28516 5.93801 9.19878 4.88773 10.8027 4.8877Z" fill="currentColor"/>
<path d="M14 0C15.1046 0 16 0.895431 16 2V14C16 15.1046 15.1046 16 14 16H2C0.895431 16 0 15.1046 0 14V2C0 0.895431 0.895431 0 2 0H14ZM2 1C1.44772 1 1 1.44772 1 2V14C1 14.5523 1.44772 15 2 15H14C14.5523 15 15 14.5523 15 14V2C15 1.44772 14.5523 1 14 1H2ZM5.39941 4.8877C6.71771 4.88775 7.68847 5.70024 7.74121 6.88672V6.99707H6.59473C6.54639 6.3599 6.08929 5.8897 5.4082 5.88965C4.57764 5.88965 4.08984 6.53076 4.08984 7.64258V8.38574C4.08998 9.49286 4.56897 10.1123 5.4082 10.1123C6.0979 10.1123 6.5462 9.67745 6.59473 9.0625H7.74121V9.17676C7.68382 10.3234 6.71312 11.1142 5.39941 11.1143C3.78678 11.1143 2.88103 10.0861 2.88086 8.38574V7.63867C2.88086 5.93799 3.79541 4.8877 5.39941 4.8877ZM10.8027 4.8877C12.1211 4.8877 13.0928 5.7002 13.1455 6.88672V6.99707H11.998C11.9497 6.35986 11.4927 5.88965 10.8115 5.88965C9.981 5.88969 9.49316 6.53079 9.49316 7.64258V8.38574C9.4933 9.49283 9.97234 10.1123 10.8115 10.1123C11.5013 10.1123 11.9495 9.67747 11.998 9.0625H13.1455V9.17676C13.0881 10.3235 12.1165 11.1143 10.8027 11.1143C9.19014 11.1142 8.28533 10.0861 8.28516 8.38574V7.63867C8.28516 5.93801 9.19878 4.88773 10.8027 4.8877Z" fill="currentColor"/>
</svg>
