<svg width="16" height="16" viewBox="0 0 16 16" fill="none" xmlns="http://www.w3.org/2000/svg">
<path d="M8 1C12.4183 1 16 4.13401 16 8C16 11.866 12.4183 15 8 15C7.18345 15 6.39539 14.8933 5.65332 14.6943C5.13385 14.9576 4.01401 15.4362 2.18457 15.7988C2.17807 15.8001 2.17156 15.8014 2.16504 15.8027C2.07321 15.8208 1.97919 15.839 1.88379 15.8564C1.74998 15.881 1.61258 15.9047 1.47168 15.9277C1.27268 15.9603 1.12061 15.7521 1.19922 15.5664C1.25053 15.4452 1.30131 15.3182 1.35059 15.1865C1.38188 15.1029 1.41228 15.0168 1.44238 14.9297C1.44368 14.9259 1.44499 14.9217 1.44629 14.918C1.69402 14.1983 1.89591 13.3706 1.96973 12.5996C0.743156 11.3695 0 9.76075 0 8C0 4.13401 3.58172 1 8 1ZM8 2C4.0044 2 1 4.80754 1 8C1 9.46796 1.61732 10.83 2.67773 11.8936C2.88812 12.1045 2.99323 12.3987 2.96484 12.6953C2.90121 13.36 2.75465 14.0517 2.56641 14.6943C3.9613 14.3719 4.81393 13.998 5.20117 13.8018C5.4209 13.6905 5.67422 13.6638 5.91211 13.7275C6.56991 13.9039 7.27082 14 8 14C11.9956 14 15 11.1925 15 8C15 4.80754 11.9956 2 8 2ZM8 5.99316C9.66439 4.28241 13.8254 7.27581 8 11.125C2.17465 7.27581 6.33561 4.28241 8 5.99316Z" fill="currentColor"/>
</svg>
