<svg width="16" height="16" viewBox="0 0 16 16" fill="none" xmlns="http://www.w3.org/2000/svg">
<path d="M14 1C14.5523 1 15 1.44772 15 2V14C15 14.5523 14.5523 15 14 15H2C1.44772 15 1 14.5523 1 14V2C1 1.44772 1.44772 1 2 1H14ZM2 0C0.895431 0 0 0.895431 0 2V14C0 15.1046 0.895431 16 2 16H14C15.1046 16 16 15.1046 16 14V2C16 0.895431 15.1046 0 14 0H2Z" fill="currentColor"/>
<path d="M10.9697 4.96967C11.2626 4.67678 11.7374 4.67678 12.0303 4.96967C12.3196 5.25897 12.3232 5.72582 12.041 6.01947L8.04873 11.0097C8.04297 11.0169 8.03682 11.0238 8.03029 11.0303C7.7374 11.3232 7.26253 11.3232 6.96963 11.0303L4.32319 8.38388C4.03029 8.09099 4.03029 7.61612 4.32319 7.32322C4.61608 7.03033 5.09095 7.03033 5.38385 7.32322L7.47737 9.41674L10.9498 4.9921C10.9559 4.98423 10.9626 4.97674 10.9697 4.96967Z" fill="currentColor"/>
</svg>
