<svg width="16" height="16" viewBox="0 0 16 16" fill="none" xmlns="http://www.w3.org/2000/svg">
<path fill-rule="evenodd" clip-rule="evenodd" d="M3.64645 13.8536C3.84171 14.0488 4.15829 14.0488 4.35355 13.8536L8 10.2071L11.6464 13.8536C11.8417 14.0488 12.1583 14.0488 12.3536 13.8536C12.5488 13.6583 12.5488 13.3417 12.3536 13.1464L8.35355 9.14645C8.15829 8.95118 7.84171 8.95118 7.64645 9.14645L3.64645 13.1464C3.45118 13.3417 3.45118 13.6583 3.64645 13.8536Z" fill="currentColor"/>
<path fill-rule="evenodd" clip-rule="evenodd" d="M3.64645 2.14645C3.84171 1.95118 4.15829 1.95118 4.35355 2.14645L8 5.79289L11.6464 2.14645C11.8417 1.95118 12.1583 1.95118 12.3536 2.14645C12.5488 2.34171 12.5488 2.65829 12.3536 2.85355L8.35355 6.85355C8.15829 7.04882 7.84171 7.04882 7.64645 6.85355L3.64645 2.85355C3.45118 2.65829 3.45118 2.34171 3.64645 2.14645Z" fill="currentColor"/>
</svg>
