<svg width="16" height="16" viewBox="0 0 16 16" fill="none" xmlns="http://www.w3.org/2000/svg">
<path fill-rule="evenodd" clip-rule="evenodd" d="M4.14645 3.64645C3.95118 3.84171 3.95118 4.15829 4.14645 4.35355L7.79289 8L4.14645 11.6464C3.95118 11.8417 3.95118 12.1583 4.14645 12.3536C4.34171 12.5488 4.65829 12.5488 4.85355 12.3536L8.85355 8.35355C9.04882 8.15829 9.04882 7.84171 8.85355 7.64645L4.85355 3.64645C4.65829 3.45118 4.34171 3.45118 4.14645 3.64645Z" fill="currentColor"/>
<path fill-rule="evenodd" clip-rule="evenodd" d="M11.5 1C11.7761 1 12 1.22386 12 1.5V14.5C12 14.7761 11.7761 15 11.5 15C11.2239 15 11 14.7761 11 14.5V1.5C11 1.22386 11.2239 1 11.5 1Z" fill="currentColor"/>
</svg>
