<svg width="16" height="16" viewBox="0 0 16 16" fill="none" xmlns="http://www.w3.org/2000/svg">
<path fill-rule="evenodd" clip-rule="evenodd" d="M7.64645 2.64645C7.84171 2.45118 8.15829 2.45118 8.35355 2.64645L14.3536 8.64645C14.5488 8.84171 14.5488 9.15829 14.3536 9.35355C14.1583 9.54882 13.8417 9.54882 13.6464 9.35355L8 3.70711L2.35355 9.35355C2.15829 9.54882 1.84171 9.54882 1.64645 9.35355C1.45118 9.15829 1.45118 8.84171 1.64645 8.64645L7.64645 2.64645Z" fill="currentColor"/>
<path fill-rule="evenodd" clip-rule="evenodd" d="M7.64645 6.64645C7.84171 6.45118 8.15829 6.45118 8.35355 6.64645L14.3536 12.6464C14.5488 12.8417 14.5488 13.1583 14.3536 13.3536C14.1583 13.5488 13.8417 13.5488 13.6464 13.3536L8 7.70711L2.35355 13.3536C2.15829 13.5488 1.84171 13.5488 1.64645 13.3536C1.45118 13.1583 1.45118 12.8417 1.64645 12.6464L7.64645 6.64645Z" fill="currentColor"/>
</svg>
