<svg width="16" height="16" viewBox="0 0 16 16" fill="none" xmlns="http://www.w3.org/2000/svg">
<path d="M4 2.5H3C2.44785 2.5 2.00022 2.9479 2 3.5V14C2 14.5523 2.44772 15 3 15H13C13.5523 15 14 14.5523 14 14V3.5C13.9998 2.9479 13.5521 2.5 13 2.5H12V1.5H13C14.1044 1.5 14.9998 2.39562 15 3.5V14C15 15.1046 14.1046 16 13 16H3C1.89543 16 1 15.1046 1 14V3.5C1.00022 2.39562 1.89557 1.5 3 1.5H4V2.5ZM9.47949 5C9.70743 4.99084 9.91281 5.13802 9.97852 5.35645L11.3711 10H11.5C11.776 10 11.9998 10.224 12 10.5C12 10.7761 11.7761 11 11.5 11H11C10.7792 11 10.5849 10.855 10.5215 10.6436L9.58105 7.50879L8.48926 12.6045C8.44146 12.8275 8.2484 12.9906 8.02051 13C7.79243 13.0092 7.58707 12.8622 7.52148 12.6436L6.38281 8.85059L5.44727 10.7236C5.36257 10.893 5.18939 11 5 11H4.5C4.22386 11 4 10.7761 4 10.5C4.00022 10.224 4.22399 10 4.5 10H4.69141L6.05273 7.27637C6.14447 7.09323 6.33888 6.98436 6.54297 7.00195C6.74707 7.01957 6.91951 7.16029 6.97852 7.35645L7.91797 10.4902L9.01074 5.39551C9.05868 5.17265 9.25172 5.00934 9.47949 5ZM9.5 0C10.3283 0 10.9998 0.671759 11 1.5V2.5C11 3.32843 10.3284 4 9.5 4H6.5C5.67157 4 5 3.32843 5 2.5V1.5C5.00022 0.671759 5.67171 0 6.5 0H9.5ZM6.5 1C6.22399 1 6.00022 1.22404 6 1.5V2.5C6 2.77614 6.22386 3 6.5 3H9.5C9.77614 3 10 2.77614 10 2.5V1.5C9.99978 1.22404 9.77601 1 9.5 1H6.5Z" fill="currentColor"/>
</svg>
