<svg width="16" height="16" viewBox="0 0 16 16" fill="none" xmlns="http://www.w3.org/2000/svg">
<path d="M9.94776 0.501312C9.94776 0.22517 9.7239 0 9.44776 0H6.4687C6.19256 0 5.9687 0.22517 5.9687 0.501312C5.9687 0.776009 5.74602 1 5.47132 1C5.19663 1 4.97394 1.22269 4.97394 1.49738V2C4.97394 2.27614 5.1978 2.5 5.47394 2.5H10.4425C10.7187 2.5 10.9425 2.27614 10.9425 2V1.49738C10.9425 1.22269 10.7198 1 10.4451 1C10.1704 1 9.94776 0.776009 9.94776 0.501312Z" fill="currentColor"/>
<path d="M3.49487 2C3.21873 2 2.99487 2.22386 2.99487 2.5V14.5C2.99487 14.7761 3.21873 15 3.49487 15H12.4949C12.771 15 12.9949 14.7761 12.9949 14.5V2.5C12.9949 2.22386 12.771 2 12.4949 2H11.9949C11.7187 2 11.4949 1.77614 11.4949 1.5C11.4949 1.22386 11.7187 1 11.9949 1H12.4949C13.3233 1 13.9949 1.67157 13.9949 2.5V14.5C13.9949 15.3284 13.3233 16 12.4949 16H3.49487C2.66645 16 1.99487 15.3284 1.99487 14.5V2.5C1.99487 1.67157 2.66645 1 3.49487 1H3.99487C4.27102 1 4.49487 1.22386 4.49487 1.5C4.49487 1.77614 4.27102 2 3.99487 2H3.49487Z" fill="currentColor"/>
<path d="M7.95817 6.4818C9.61384 4.80907 13.753 7.73635 7.95817 11.5C2.16332 7.73635 6.3025 4.80907 7.95817 6.4818Z" fill="currentColor"/>
</svg>
