<svg width="16" height="16" viewBox="0 0 16 16" fill="none" xmlns="http://www.w3.org/2000/svg">
<path d="M13.4053 11.7229C12.9524 14.0188 10.9287 15.75 8.5 15.75C6.44002 15.75 4.67207 14.5045 3.90606 12.7266C3.77271 12.7421 3.63721 12.75 3.5 12.75C1.567 12.75 0 11.183 0 9.25C0 7.317 1.567 5.75 3.5 5.75H13C14.6569 5.75 16 7.09315 16 8.75C16 10.2694 14.8705 11.525 13.4053 11.7229ZM8.5 14.75C10.5586 14.75 12.2546 13.1944 12.4756 11.1949C12.5037 10.9406 12.7193 10.7485 12.9752 10.7499L13 10.75H13.0013C14.1053 10.7493 15 9.85414 15 8.75C15 7.64543 14.1046 6.75 13 6.75H3.5C2.11929 6.75 1 7.86929 1 9.25C1 10.6307 2.11929 11.75 3.5 11.75C3.70933 11.75 3.91197 11.7244 4.10527 11.6763C4.35911 11.6133 4.61867 11.7565 4.70065 12.0049C5.22714 13.5999 6.72992 14.75 8.5 14.75Z" fill="currentColor"/>
<path d="M2.62497 4.5C2.76304 4.5 2.87497 4.38807 2.87497 4.25V3.68079L3.37594 3.96706C3.49582 4.03556 3.64854 3.99391 3.71704 3.87403C3.78554 3.75416 3.74389 3.60144 3.62401 3.53294L3.12887 3.25L3.62401 2.96706C3.74389 2.89856 3.78554 2.74584 3.71703 2.62597C3.64853 2.50609 3.49582 2.46444 3.37594 2.53294L2.87497 2.81921V2.25C2.87497 2.11193 2.76304 2 2.62497 2C2.4869 2 2.37497 2.11193 2.37497 2.25V2.81919L1.87402 2.53294C1.75414 2.46444 1.60143 2.50609 1.53293 2.62597C1.46442 2.74584 1.50607 2.89856 1.62595 2.96706L2.12109 3.25L1.62594 3.53294C1.50607 3.60144 1.46442 3.75416 1.53292 3.87403C1.60142 3.99391 1.75414 4.03556 1.87401 3.96706L2.37497 3.6808V4.25C2.37497 4.38807 2.4869 4.5 2.62497 4.5Z" fill="currentColor"/>
<path d="M5.37497 2.5C5.51304 2.5 5.62497 2.38807 5.62497 2.25V1.68079L6.12595 1.96706C6.24582 2.03556 6.39854 1.99391 6.46704 1.87403C6.53554 1.75416 6.49389 1.60144 6.37401 1.53294L5.87887 1.25L6.37401 0.96706C6.49389 0.898557 6.53554 0.745844 6.46703 0.625965C6.39853 0.506086 6.24582 0.464437 6.12594 0.53294L5.62497 0.81921V0.25C5.62497 0.111929 5.51304 0 5.37497 0C5.2369 0 5.12497 0.111929 5.12497 0.25V0.819195L4.62402 0.53294C4.50414 0.464437 4.35143 0.506086 4.28293 0.625965C4.21442 0.745844 4.25607 0.898557 4.37595 0.96706L4.87109 1.25L4.37594 1.53294C4.25607 1.60144 4.21442 1.75416 4.28292 1.87403C4.35142 1.99391 4.50414 2.03556 4.62401 1.96706L5.12497 1.6808V2.25C5.12497 2.38807 5.2369 2.5 5.37497 2.5Z" fill="currentColor"/>
<path d="M10.875 2.5C11.0131 2.5 11.125 2.38807 11.125 2.25V1.68079L11.626 1.96706C11.7458 2.03556 11.8986 1.99391 11.9671 1.87403C12.0356 1.75416 11.9939 1.60144 11.874 1.53294L11.3789 1.25L11.874 0.96706C11.9939 0.898557 12.0356 0.745844 11.9671 0.625965C11.8986 0.506086 11.7458 0.464437 11.626 0.53294L11.125 0.81921V0.25C11.125 0.111929 11.0131 0 10.875 0C10.7369 0 10.625 0.111929 10.625 0.25V0.819195L10.124 0.53294C10.0042 0.464437 9.85143 0.506086 9.78293 0.625965C9.71442 0.745844 9.75607 0.898557 9.87595 0.96706L10.3711 1.25L9.87595 1.53294C9.75607 1.60144 9.71442 1.75416 9.78292 1.87403C9.85142 1.99391 10.0042 2.03556 10.124 1.96706L10.625 1.6808V2.25C10.625 2.38807 10.7369 2.5 10.875 2.5Z" fill="currentColor"/>
<path d="M8.12497 4.5C8.26304 4.5 8.37497 4.38807 8.37497 4.25V3.68079L8.87595 3.96706C8.99582 4.03556 9.14854 3.99391 9.21704 3.87403C9.28554 3.75416 9.24389 3.60144 9.12401 3.53294L8.62887 3.25L9.12401 2.96706C9.24389 2.89856 9.28554 2.74584 9.21703 2.62597C9.14853 2.50609 8.99582 2.46444 8.87594 2.53294L8.37497 2.81921V2.25C8.37497 2.11193 8.26304 2 8.12497 2C7.9869 2 7.87497 2.11193 7.87497 2.25V2.81919L7.37402 2.53294C7.25414 2.46444 7.10143 2.50609 7.03293 2.62597C6.96442 2.74584 7.00607 2.89856 7.12595 2.96706L7.62109 3.25L7.12594 3.53294C7.00607 3.60144 6.96442 3.75416 7.03292 3.87403C7.10142 3.99391 7.25414 4.03556 7.37401 3.96706L7.87497 3.6808V4.25C7.87497 4.38807 7.9869 4.5 8.12497 4.5Z" fill="currentColor"/>
<path d="M13.625 4.5C13.7631 4.5 13.875 4.38807 13.875 4.25V3.68079L14.376 3.96706C14.4958 4.03556 14.6486 3.99391 14.7171 3.87403C14.7856 3.75416 14.7439 3.60144 14.624 3.53294L14.1289 3.25L14.624 2.96706C14.7439 2.89856 14.7856 2.74584 14.7171 2.62597C14.6486 2.50609 14.4958 2.46444 14.376 2.53294L13.875 2.81921V2.25C13.875 2.11193 13.7631 2 13.625 2C13.4869 2 13.375 2.11193 13.375 2.25V2.81919L12.874 2.53294C12.7542 2.46444 12.6014 2.50609 12.5329 2.62597C12.4644 2.74584 12.5061 2.89856 12.626 2.96706L13.1211 3.25L12.626 3.53294C12.5061 3.60144 12.4644 3.75416 12.5329 3.87403C12.6014 3.99391 12.7542 4.03556 12.874 3.96706L13.375 3.6808V4.25C13.375 4.38807 13.4869 4.5 13.625 4.5Z" fill="currentColor"/>
</svg>
