<svg width="16" height="16" viewBox="0 0 16 16" fill="none" xmlns="http://www.w3.org/2000/svg">
<path d="M8.5 12C6.72992 12 5.22714 10.8499 4.70065 9.25487C4.61409 8.99264 4.33135 8.85023 4.06912 8.93679C3.8069 9.02335 3.66449 9.30609 3.75104 9.56832C4.40876 11.5609 6.28567 13 8.5 13C10.9287 13 12.9524 11.2688 13.4053 8.97285C14.8705 8.77496 16 7.51939 16 6C16 4.34315 14.6569 3 13 3H0.5C0.223858 3 0 3.22386 0 3.5C0 3.77614 0.223858 4 0.5 4H13C14.1046 4 15 4.89543 15 6C15 7.10414 14.1053 7.99931 13.0013 8H13L12.9752 7.99986C12.7193 7.99849 12.5037 8.19057 12.4756 8.44493C12.2546 10.4444 10.5586 12 8.5 12ZM0 7.5C0 7.77614 0.223858 8 0.5 8H7.5C7.77614 8 8 7.77614 8 7.5C8 7.22386 7.77614 7 7.5 7H0.5C0.223858 7 0 7.22386 0 7.5ZM0 5.5C0 5.77614 0.223858 6 0.5 6H9.5C9.77614 6 10 5.77614 10 5.5C10 5.22386 9.77614 5 9.5 5H0.5C0.223858 5 0 5.22386 0 5.5Z" fill="currentColor"/>
</svg>
