<svg width="16" height="16" viewBox="0 0 16 16" fill="none" xmlns="http://www.w3.org/2000/svg">
<path d="M13.4053 7.47285C12.9524 9.76879 10.9287 11.5 8.5 11.5C6.44002 11.5 4.67207 10.2545 3.90606 8.47665C3.77271 8.49208 3.63721 8.5 3.5 8.5C1.567 8.5 0 6.933 0 5C0 3.067 1.567 1.5 3.5 1.5H13C14.6569 1.5 16 2.84315 16 4.5C16 6.01939 14.8705 7.27497 13.4053 7.47285ZM8.5 10.5C10.5586 10.5 12.2546 8.94444 12.4756 6.94493C12.5037 6.69057 12.7193 6.49849 12.9752 6.49986L13 6.5H13.0013C14.1053 6.49931 15 5.60414 15 4.5C15 3.39543 14.1046 2.5 13 2.5H3.5C2.11929 2.5 1 3.61929 1 5C1 6.38071 2.11929 7.5 3.5 7.5C3.70933 7.5 3.91197 7.47438 4.10527 7.42635C4.35911 7.36327 4.61867 7.50649 4.70065 7.75487C5.22714 9.34992 6.72992 10.5 8.5 10.5Z" fill="currentColor"/>
</svg>
