<svg width="16" height="16" viewBox="0 0 16 16" fill="none" xmlns="http://www.w3.org/2000/svg">
<path d="M7 8C8.933 8 10.5 6.433 10.5 4.5C10.5 4.4815 10.4999 4.46303 10.4996 4.4446C10.4972 4.28866 10.5676 4.14053 10.6902 4.04404C10.8127 3.94755 10.9732 3.91377 11.1243 3.95268C11.2438 3.98348 11.3696 4 11.5 4C12.3284 4 13 3.32843 13 2.5C13 1.67157 12.3284 1 11.5 1H3C1.89543 1 1 1.89543 1 3C1 4.10457 1.89543 5 3 5C3.03375 5 3.06728 4.99917 3.10059 4.99752C3.33781 4.98582 3.55053 5.14261 3.60954 5.37267C3.99717 6.88372 5.36885 8 7 8ZM11.4726 4.99985C11.2239 7.2499 9.31633 9 7 9C5.03642 9 3.36759 7.74275 2.75267 5.98995C1.21152 5.86418 0 4.57358 0 3C0 1.34315 1.34315 0 3 0H11.5C12.8807 0 14 1.11929 14 2.5C14 3.88071 12.8807 5 11.5 5C11.4908 5 11.4817 4.99995 11.4726 4.99985Z" fill="currentColor"/>
<path d="M10.5 14.5C10.5 14.7761 10.2761 15 9.99998 15C9.72384 15 9.49998 14.7761 9.49998 14.5V13.5C9.49998 13.2239 9.72384 13 9.99998 13C10.2761 13 10.5 13.2239 10.5 13.5V14.5ZM14.2426 12.5355C14.4379 12.7308 14.4379 13.0474 14.2426 13.2427C14.0474 13.4379 13.7308 13.4379 13.5355 13.2427L12.8284 12.5355C12.6332 12.3403 12.6332 12.0237 12.8284 11.8284C13.0237 11.6332 13.3403 11.6332 13.5355 11.8284L14.2426 12.5355ZM6.46446 13.2427C6.26919 13.4379 5.95261 13.4379 5.75735 13.2427C5.56209 13.0474 5.56209 12.7308 5.75735 12.5355L6.46446 11.8284C6.65972 11.6332 6.9763 11.6332 7.17156 11.8284C7.36682 12.0237 7.36682 12.3403 7.17156 12.5355L6.46446 13.2427ZM8.1982 9.86914C8.52161 10.5384 9.20689 11 9.99999 11C11.1046 11 12 10.1046 12 9.00001C12 8.48975 11.8089 8.02413 11.4944 7.67078C11.693 7.38973 11.8659 7.08921 12.0097 6.77266C12.6178 7.32169 13 8.11622 13 9.00001C13 10.6569 11.6569 12 9.99999 12C8.6928 12 7.58089 11.164 7.16978 9.99743C7.52193 9.98675 7.86574 9.94299 8.1982 9.86914ZM12.6825 5.7952C13.2825 5.57986 13.8066 5.2053 14.2039 4.72246C14.2173 4.73331 14.2302 4.74494 14.2426 4.75737C14.4379 4.95263 14.4379 5.26922 14.2426 5.46448L13.5355 6.17159C13.3403 6.36685 13.0237 6.36685 12.8284 6.17158C12.725 6.06815 12.6763 5.93066 12.6825 5.7952ZM14.5 9.50001C14.2239 9.50001 14 9.27615 14 9.00001C14 8.72387 14.2239 8.50001 14.5 8.50001H15.5C15.7761 8.50001 16 8.72387 16 9.00001C16 9.27615 15.7761 9.50001 15.5 9.50001H14.5Z" fill="currentColor"/>
</svg>
