<svg width="16" height="16" viewBox="0 0 16 16" fill="none" xmlns="http://www.w3.org/2000/svg">
<path d="M9.96981 4.87909L10.9228 8.69105C10.1585 8.87834 9.14087 8.99998 8.00003 8.99998C6.8592 8.99998 5.84154 8.87834 5.07727 8.69105L6.03026 4.87909C6.63472 4.9569 7.30061 4.99998 8.00003 4.99998C8.69946 4.99998 9.36535 4.9569 9.96981 4.87909Z" fill="currentColor"/>
<path d="M9.72547 3.90175L8.97018 0.880573C8.71769 -0.129379 7.28238 -0.129382 7.02989 0.880571L6.2746 3.90175C6.79976 3.96428 7.38181 4 8.00003 4C8.61826 4 9.20031 3.96428 9.72547 3.90175Z" fill="currentColor"/>
<path d="M14.1213 12.5149C14.3369 12.5688 14.4911 12.7587 14.4996 12.9808C14.5082 13.2029 14.369 13.404 14.1581 13.4743L8.15811 15.4743C8.05548 15.5085 7.94452 15.5085 7.84189 15.4743L1.84189 13.4743C1.63099 13.404 1.49184 13.2029 1.50037 12.9808C1.5089 12.7587 1.66307 12.5688 1.87873 12.5149L4.27047 11.917L4.83472 9.65991C5.6968 9.87166 6.79895 9.9987 8.00002 9.9987C9.20109 9.9987 10.3033 9.87165 11.1653 9.65991L11.7296 11.917L14.1213 12.5149Z" fill="currentColor"/>
</svg>
