<svg width="16" height="16" viewBox="0 0 16 16" fill="none" xmlns="http://www.w3.org/2000/svg">
<path d="M11.5 6.02649C11.5 6.30263 11.2761 6.52649 11 6.52649C10.7239 6.52649 10.5 6.30263 10.5 6.02649C10.5 5.75035 10.7239 5.52649 11 5.52649C11.2761 5.52649 11.5 5.75035 11.5 6.02649Z" fill="currentColor"/>
<path d="M10 7.52649C10.2761 7.52649 10.5 7.30263 10.5 7.02649C10.5 6.75035 10.2761 6.52649 10 6.52649C9.72386 6.52649 9.5 6.75035 9.5 7.02649C9.5 7.30263 9.72386 7.52649 10 7.52649Z" fill="currentColor"/>
<path d="M12.5 7.02649C12.5 7.30263 12.2761 7.52649 12 7.52649C11.7239 7.52649 11.5 7.30263 11.5 7.02649C11.5 6.75035 11.7239 6.52649 12 6.52649C12.2761 6.52649 12.5 6.75035 12.5 7.02649Z" fill="currentColor"/>
<path d="M11 8.52649C11.2761 8.52649 11.5 8.30263 11.5 8.02649C11.5 7.75035 11.2761 7.52649 11 7.52649C10.7239 7.52649 10.5 7.75035 10.5 8.02649C10.5 8.30263 10.7239 8.52649 11 8.52649Z" fill="currentColor"/>
<path d="M4.5 5.52649H5.5V6.52649H6.5V7.52649H5.5V8.52649H4.5V7.52649H3.5V6.52649H4.5V5.52649Z" fill="currentColor"/>
<path d="M3.0511 3.25948C2.97963 2.99275 3.13792 2.71858 3.40465 2.64711L5.33651 2.12947C5.60324 2.058 5.87741 2.21629 5.94888 2.48303C5.95208 2.49497 5.95482 2.50693 5.95711 2.51888C6.61182 2.44024 7.30784 2.40152 8 2.40152C8.71922 2.40152 9.44262 2.44333 10.1195 2.52829C10.1221 2.5132 10.1254 2.4981 10.1294 2.48303C10.2009 2.21629 10.4751 2.058 10.7418 2.12947L12.6737 2.64711C12.9404 2.71858 13.0987 2.99275 13.0272 3.25948C13.0161 3.30096 13.0001 3.33981 12.9799 3.37559C13.1201 3.46626 13.2457 3.56514 13.3535 3.67297C13.7612 4.0806 14.1328 4.72332 14.4476 5.44512C14.7672 6.17804 15.0469 7.03613 15.2528 7.91143C15.4585 8.78621 15.5935 9.69102 15.6175 10.5171C15.6411 11.3324 15.5583 12.1193 15.2888 12.7271C15.0389 13.2908 14.4479 13.6209 13.8442 13.5573C13.2081 13.4903 12.7285 13.163 12.3307 12.7844C12.086 12.5515 11.8346 12.2581 11.5924 11.9755C11.4663 11.8284 11.3425 11.684 11.2237 11.5527C10.4956 10.7488 9.62746 10.0265 7.99999 10.0265C6.37252 10.0265 5.50437 10.7488 4.77631 11.5527C4.6574 11.684 4.53373 11.8283 4.40755 11.9755C4.16537 12.2581 3.91394 12.5515 3.66925 12.7844C3.27147 13.163 2.79188 13.4903 2.15576 13.5573C1.55209 13.6209 0.961038 13.2908 0.711145 12.7271C0.441703 12.1193 0.358859 11.3324 0.382493 10.5171C0.40644 9.69101 0.541494 8.7862 0.747234 7.91142C0.953095 7.03612 1.23275 6.17804 1.5524 5.44511C1.86718 4.72332 2.23881 4.0806 2.64645 3.67297C2.76927 3.55014 2.91521 3.43892 3.07936 3.33822C3.06795 3.31321 3.05845 3.28692 3.0511 3.25948ZM5.08738 3.67204C4.21041 3.85667 3.61847 4.11516 3.35355 4.38007C3.07804 4.65558 2.76653 5.16269 2.46902 5.84487C2.17636 6.51591 1.91457 7.31594 1.72067 8.14036C1.52666 8.9653 1.40365 9.80181 1.38207 10.5461C1.36019 11.3011 1.44436 11.9136 1.62533 12.3218C1.6955 12.4801 1.86925 12.582 2.05094 12.5628C2.37846 12.5283 2.66153 12.363 2.97977 12.0601C3.19214 11.8579 3.38077 11.6369 3.59527 11.3856C3.72804 11.2301 3.87073 11.0629 4.03508 10.8815C4.86105 9.96944 5.97757 9.02652 7.99999 9.02652C10.0224 9.02652 11.1389 9.96944 11.9649 10.8815C12.1293 11.063 12.2719 11.2301 12.4047 11.3856C12.6192 11.6369 12.8078 11.8579 13.0202 12.0601C13.3384 12.363 13.6215 12.5283 13.949 12.5628C14.1307 12.582 14.3045 12.4801 14.3746 12.3218C14.5556 11.9136 14.6398 11.3011 14.6179 10.5461C14.5963 9.80181 14.4733 8.9653 14.2793 8.14037C14.0854 7.31595 13.8236 6.51592 13.531 5.84487C13.2335 5.16269 12.9219 4.65558 12.6464 4.38007C12.3815 4.11516 11.7896 3.85667 10.9126 3.67204C10.0633 3.49324 9.03643 3.40152 8 3.40152C6.96356 3.40152 5.93668 3.49324 5.08738 3.67204Z" fill="currentColor"/>
</svg>
