<svg width="16" height="16" viewBox="0 0 16 16" fill="none" xmlns="http://www.w3.org/2000/svg">
<path fill-rule="evenodd" clip-rule="evenodd" d="M5.60012 10.3999C6.4836 10.3999 7.19944 11.116 7.19965 11.9994V14.3993C7.19965 15.2829 6.48373 16 5.60012 16H1.6007C0.717092 16 0 15.2829 0 14.3993V11.9994C0.000211424 11.116 0.717221 10.3999 1.6007 10.3999H5.60012ZM1.6007 14.3993H5.60012V11.9994H1.6007V14.3993Z" fill="currentColor"/>
<path fill-rule="evenodd" clip-rule="evenodd" d="M14.3993 7.19965C15.2829 7.19965 16 7.91674 16 8.80035V14.3993C16 15.2829 15.2829 16 14.3993 16H10.3999C9.51627 16 8.80035 15.2829 8.80035 14.3993V8.80035C8.80035 7.91674 9.51627 7.19965 10.3999 7.19965H14.3993ZM10.3999 14.3993H14.3993V8.80035H10.3999V14.3993Z" fill="currentColor"/>
<path fill-rule="evenodd" clip-rule="evenodd" d="M5.60012 0C6.48373 1.54578e-07 7.19965 0.717091 7.19965 1.6007V7.19965C7.19965 8.08326 6.48373 8.80035 5.60012 8.80035H1.6007C0.717091 8.80035 0 8.08326 0 7.19965V1.6007C0 0.717091 0.717091 0 1.6007 0H5.60012ZM1.6007 7.19965H5.60012V1.6007H1.6007V7.19965Z" fill="currentColor"/>
<path fill-rule="evenodd" clip-rule="evenodd" d="M14.3993 0C15.2829 0 16 0.71709 16 1.6007V4.00059C15.9998 4.88402 15.2828 5.60012 14.3993 5.60012H10.3999C9.5164 5.60012 8.80056 4.88402 8.80035 4.00059V1.6007C8.80035 0.717091 9.51627 0 10.3999 0H14.3993ZM10.3999 4.00059H14.3993V1.6007H10.3999V4.00059Z" fill="currentColor"/>
</svg>
