<svg width="16" height="16" viewBox="0 0 16 16" fill="none" xmlns="http://www.w3.org/2000/svg">
<path d="M8 1C9.57329 1 11.0217 1.28919 12.0957 1.77734C13.1246 2.24502 14 2.993 14 4V8.25684C13.5308 8.09095 13.026 8 12.5 8C12.4128 8 12.3262 8.00292 12.2402 8.00781C12.7845 7.65397 13 7.28971 13 7V5.69824C12.729 5.90056 12.4198 6.07534 12.0957 6.22266C11.0217 6.71081 9.57329 7 8 7C6.42671 7 4.9783 6.71081 3.9043 6.22266C3.58021 6.07534 3.27103 5.90056 3 5.69824V7C3 7.37367 3.35594 7.87539 4.31738 8.3125C5.23398 8.72913 6.53579 9 8 9C8.6692 9 9.3038 8.94006 9.88379 8.83887C9.45129 9.14848 9.07572 9.53246 8.77637 9.97266C8.52176 9.98835 8.26273 10 8 10C6.42671 10 4.9783 9.71081 3.9043 9.22266C3.58021 9.07534 3.27103 8.90056 3 8.69824V10C3 10.3737 3.35594 10.8754 4.31738 11.3125C5.23398 11.7291 6.53579 12 8 12C8.00945 12 8.01889 11.999 8.02832 11.999C8.0101 12.1635 8 12.3306 8 12.5C8 12.6687 8.01024 12.8351 8.02832 12.999C8.01888 12.999 8.00945 13 8 13C6.42671 13 4.9783 12.7108 3.9043 12.2227C3.58021 12.0753 3.27103 11.9006 3 11.6982V13C3 13.3737 3.35594 13.8754 4.31738 14.3125C5.23398 14.7291 6.53579 15 8 15C8.25237 15 8.49965 14.9881 8.74121 14.9727C8.96875 15.3179 9.24247 15.6294 9.55371 15.8994C9.0567 15.9629 8.53581 16 8 16C6.42671 16 4.9783 15.7108 3.9043 15.2227C2.87542 14.755 2 14.007 2 13V4C2 2.993 2.87542 2.24502 3.9043 1.77734C4.9783 1.28919 6.42671 1 8 1ZM8 2C6.53579 2 5.23398 2.27087 4.31738 2.6875C3.35594 3.12461 3 3.62633 3 4C3 4.37367 3.35594 4.87539 4.31738 5.3125C5.23398 5.72913 6.53579 6 8 6C9.46421 6 10.766 5.72913 11.6826 5.3125C12.6441 4.87539 13 4.37367 13 4C13 3.62633 12.6441 3.12461 11.6826 2.6875C10.766 2.27087 9.46421 2 8 2Z" fill="currentColor"/>
</svg>
