<svg width="16" height="16" viewBox="0 0 16 16" fill="none" xmlns="http://www.w3.org/2000/svg">
<path d="M8 15C4.13401 15 1 11.866 1 8C1 4.13401 4.13401 1 8 1C11.866 1 15 4.13401 15 8C15 11.866 11.866 15 8 15ZM8 16C12.4183 16 16 12.4183 16 8C16 3.58172 12.4183 0 8 0C3.58172 0 0 3.58172 0 8C0 12.4183 3.58172 16 8 16Z" fill="currentColor"/>
<path d="M10 8C10 9.10457 9.10457 10 8 10C6.89543 10 6 9.10457 6 8C6 6.89543 6.89543 6 8 6C9.10457 6 10 6.89543 10 8Z" fill="currentColor"/>
<path d="M8 4C5.79086 4 4 5.79086 4 8C4 8.27614 3.77614 8.5 3.5 8.5C3.22386 8.5 3 8.27614 3 8C3 5.23858 5.23858 3 8 3C8.27614 3 8.5 3.22386 8.5 3.5C8.5 3.77614 8.27614 4 8 4ZM12.5 7.5C12.7762 7.5 13 7.72386 13 8C13 10.7614 10.7615 13 8 13C7.72386 13 7.5 12.7761 7.5 12.5C7.5 12.2239 7.72386 12 8 12C10.2092 12 12 10.2091 12 8C12 7.72386 12.2239 7.5 12.5 7.5Z" fill="currentColor"/>
</svg>
