<svg width="16" height="16" viewBox="0 0 16 16" fill="none" xmlns="http://www.w3.org/2000/svg">
<path d="M7.27049 1.04714C7.66556 0.625726 8.33449 0.625724 8.72957 1.04714L15.0754 7.81608C15.6742 8.45474 15.2213 9.50002 14.3459 9.50002H1.65415C0.778703 9.50002 0.325857 8.45474 0.924606 7.81608L7.27049 1.04714ZM14.3459 8.50002L8.00003 1.73108L1.65415 8.50002H14.3459Z" fill="currentColor"/>
<path d="M0.5 11.5C0.5 10.9477 0.947715 10.5 1.5 10.5H14.5C15.0523 10.5 15.5 10.9477 15.5 11.5V12.5C15.5 13.0523 15.0523 13.5 14.5 13.5H1.5C0.947715 13.5 0.5 13.0523 0.5 12.5V11.5ZM14.5 11.5H1.5V12.5H14.5V11.5Z" fill="currentColor"/>
</svg>
