<svg width="16" height="16" viewBox="0 0 16 16" fill="none" xmlns="http://www.w3.org/2000/svg">
<path fill-rule="evenodd" clip-rule="evenodd" d="M15 2C15.5523 2 16 2.44772 16 3V13C16 13.5523 15.5523 14 15 14H1C0.447715 14 1.61065e-08 13.5523 0 13V3C0 2.44772 0.447715 2 1 2H15ZM8.02344 8.99023L8.00977 9.0127L1 4.5V12.5C1 12.7761 1.22386 13 1.5 13H14C14.5523 13 15 12.5523 15 12V4.49902L8.02344 8.99023ZM1.5 3C1.28327 3 1.09964 3.13822 1.03027 3.33105L8 7.81641L14.9688 3.33008C14.8991 3.13786 14.7163 3 14.5 3H1.5Z" fill="currentColor"/>
<path d="M10 10H14V11H10V10Z" fill="currentColor"/>
</svg>
