<svg width="16" height="16" viewBox="0 0 16 16" fill="none" xmlns="http://www.w3.org/2000/svg">
<path d="M8 0C12.4183 0 16 3.58172 16 8C16 8.28299 15.9847 8.56249 15.9561 8.83789C15.6606 8.65716 15.3246 8.54266 14.9795 8.50977C14.9916 8.34137 15 8.17149 15 8C15 4.13401 11.866 1 8 1C4.13401 1 1 4.13401 1 8C1 11.866 4.13401 15 8 15C9.71091 15 11.2772 14.3847 12.4932 13.3652C12.7336 13.5748 13.0031 13.7822 13.3027 13.9873C11.8909 15.2386 10.0349 16 8 16C3.58172 16 0 12.4183 0 8C0 3.58172 3.58172 0 8 0ZM14 9.82812C15.1097 8.68804 17.8833 10.684 14 13.25C10.1167 10.684 12.8903 8.68804 14 9.82812ZM8.53711 9.17285C8.90749 9.0876 9.31795 9.02022 9.64062 9.06543C9.80013 9.08781 10.0345 9.15016 10.2012 9.35059C10.3889 9.57674 10.3879 9.84773 10.332 10.0557C10.2786 10.2537 10.164 10.4537 10.0225 10.6494C9.94522 10.7562 9.85237 10.87 9.74609 10.9922C9.85298 11.116 9.94593 11.2319 10.0234 11.3398C10.1647 11.5367 10.279 11.7367 10.332 11.9346C10.3875 12.1419 10.3889 12.4131 10.2002 12.6396C10.0325 12.8406 9.79708 12.9023 9.6377 12.9238C9.31513 12.9673 8.90482 12.8981 8.53516 12.8115C8.14584 12.7203 7.7237 12.5898 7.34473 12.4658C7.08253 12.3801 6.93912 12.0982 7.02441 11.8359C7.11024 11.5735 7.39287 11.4299 7.65527 11.5156C8.02614 11.6369 8.41663 11.7566 8.76367 11.8379C8.93898 11.8789 9.08799 11.9053 9.20898 11.9209C9.10047 11.7701 8.93848 11.5777 8.70801 11.3379C8.5214 11.1438 8.52258 10.8359 8.70996 10.6426C8.94042 10.4051 9.10168 10.2138 9.20996 10.0645C9.08838 10.0794 8.93854 10.1068 8.76172 10.1475C8.41518 10.2272 8.0252 10.3448 7.65527 10.4658C7.39298 10.5515 7.11039 10.4087 7.02441 10.1465C6.93865 9.88409 7.08238 9.60151 7.34473 9.51562C7.72463 9.39137 8.1473 9.26259 8.53711 9.17285ZM6 5C6.55228 5 7 5.67157 7 6.5C7 7.32843 6.55228 8 6 8C5.44772 8 5 7.32843 5 6.5C5 5.67157 5.44772 5 6 5ZM10.25 5.75C10.9794 5.75 11.6057 6.16251 11.9365 6.75684C12.0708 6.99809 11.9844 7.30221 11.7432 7.43652C11.5019 7.57076 11.1978 7.48428 11.0635 7.24316C10.8952 6.94085 10.5888 6.75 10.25 6.75C9.91121 6.75001 9.60476 6.94086 9.43652 7.24316C9.30217 7.48426 8.99804 7.57076 8.75684 7.43652C8.51567 7.30219 8.42922 6.99808 8.56348 6.75684C8.89427 6.1625 9.52058 5.75001 10.25 5.75Z" fill="currentColor"/>
</svg>
