<svg width="16" height="16" viewBox="0 0 16 16" fill="none" xmlns="http://www.w3.org/2000/svg">
<path d="M8 15C4.13401 15 1 11.866 1 8C1 4.13401 4.13401 1 8 1C11.866 1 15 4.13401 15 8C15 11.866 11.866 15 8 15ZM8 16C12.4183 16 16 12.4183 16 8C16 3.58172 12.4183 0 8 0C3.58172 0 0 3.58172 0 8C0 12.4183 3.58172 16 8 16Z" fill="currentColor"/>
<path d="M4.28475 12.4328C4.52378 12.5711 4.82965 12.4894 4.96792 12.2504C5.57384 11.2029 6.70512 10.5 7.99999 10.5C9.29485 10.5 10.4262 11.2029 11.0321 12.2504C11.1704 12.4894 11.4762 12.5711 11.7153 12.4328C11.9543 12.2945 12.036 11.9887 11.8977 11.7496C11.1204 10.4059 9.66625 9.5 7.99999 9.5C6.33372 9.5 4.87963 10.4059 4.10231 11.7496C3.96404 11.9887 4.04572 12.2945 4.28475 12.4328Z" fill="currentColor"/>
<path d="M11.2764 4.05277C11.5234 3.92928 11.8237 4.02939 11.9472 4.27638C12.0707 4.52337 11.9706 4.82371 11.7236 4.9472L10.7151 5.45146C10.8913 5.7219 11 6.09192 11 6.5C11 7.32843 10.5523 8 9.99998 8C9.44769 8 8.99998 7.32843 8.99998 6.5C8.99998 6.2527 9.03987 6.01938 9.11054 5.81373C9.08854 5.78637 9.06911 5.75627 9.05277 5.72359C8.92928 5.4766 9.02939 5.17627 9.27638 5.05277L11.2764 4.05277Z" fill="currentColor"/>
<path d="M4.7236 4.05277C4.47661 3.92928 4.17627 4.02939 4.05278 4.27638C3.92928 4.52337 4.0294 4.82371 4.27639 4.9472L5.28491 5.45146C5.10864 5.7219 5 6.09192 5 6.5C5 7.32843 5.44772 8 6 8C6.55229 8 7 7.32843 7 6.5C7 6.2527 6.96011 6.01938 6.88944 5.81373C6.91144 5.78637 6.93087 5.75627 6.94721 5.72359C7.0707 5.4766 6.97059 5.17627 6.7236 5.05277L4.7236 4.05277Z" fill="currentColor"/>
</svg>
