<svg width="16" height="16" viewBox="0 0 16 16" fill="none" xmlns="http://www.w3.org/2000/svg">
<path d="M4.96792 9.74964C4.82965 9.51061 4.52378 9.42893 4.28475 9.5672C4.04572 9.70547 3.96404 10.0113 4.10231 10.2504C4.87963 11.5941 6.33372 12.5 7.99999 12.5C9.66625 12.5 11.1204 11.5941 11.8977 10.2504C12.036 10.0113 11.9543 9.70547 11.7153 9.5672C11.4762 9.42893 11.1704 9.51061 11.0321 9.74964C10.4262 10.7971 9.29485 11.5 7.99999 11.5C6.70512 11.5 5.57384 10.7971 4.96792 9.74964Z" fill="currentColor"/>
<path d="M6.99999 5.11636V5C6.99999 4.44772 6.55227 4 5.99999 4H3.28077C2.6302 4 2.15284 4.61139 2.31062 5.24254L2.62126 6.48507C2.84384 7.3754 3.64381 8 4.56154 8H4.99999C6.05022 8 6.91138 7.19051 6.99357 6.16142C7.2596 6.06436 7.60702 6 7.99999 6C8.39296 6 8.74038 6.06436 9.00641 6.16143C9.08861 7.19051 9.94976 8 11 8H11.4384C12.3562 8 13.1561 7.37541 13.3787 6.48507L13.6894 5.24254C13.8472 4.61139 13.3698 4 12.7192 4H9.99999C9.4477 4 8.99999 4.44772 8.99999 5V5.11636C8.69019 5.04027 8.35054 5 7.99999 5C7.64944 5 7.30979 5.04027 6.99999 5.11636Z" fill="currentColor"/>
<path d="M16 8C16 12.4183 12.4183 16 8 16C3.58172 16 0 12.4183 0 8C0 3.58172 3.58172 0 8 0C12.4183 0 16 3.58172 16 8ZM15 8C15 4.13401 11.866 1 8 1C4.13401 1 1 4.13401 1 8C1 11.866 4.13401 15 8 15C11.866 15 15 11.866 15 8Z" fill="currentColor"/>
</svg>
