<svg width="16" height="16" viewBox="0 0 16 16" fill="none" xmlns="http://www.w3.org/2000/svg">
<path d="M14 2C15.1046 2 16 2.89543 16 4V12C16 13.1046 15.1046 14 14 14H2C0.895431 14 0 13.1046 0 12V4C0 2.89543 0.895431 2 2 2H14ZM2 3C1.44772 3 1 3.44772 1 4V4.2168L4.23438 6.15723C4.09236 6.47806 4.01452 6.82337 4.00195 7.18359L1 5.38281V11.1055L4.45312 8.97949C4.59964 9.25694 4.78241 9.53561 5.00293 9.81543L1.03418 12.2588C1.14825 12.6856 1.53724 13 2 13H14C14.4628 13 14.8518 12.6856 14.9658 12.2588L10.9961 9.81543C11.2167 9.53558 11.3993 9.25696 11.5459 8.97949L15 11.1055V5.38281L11.9971 7.18359C11.9845 6.82325 11.9068 6.47816 11.7646 6.15723L15 4.2168V4C15 3.44772 14.5523 3 14 3H2ZM8 5.99316C9.66439 4.28241 13.8254 7.27581 8 11.125C2.17465 7.27581 6.33561 4.28241 8 5.99316Z" fill="currentColor"/>
</svg>
