<svg width="16" height="16" viewBox="0 0 16 16" fill="none" xmlns="http://www.w3.org/2000/svg">
<path d="M7.05859 0.435307C7.64683 0.121581 8.35317 0.121581 8.94141 0.435307L14.9414 3.6355C15.593 3.98313 16 4.66163 16 5.40015V13.9998C16 15.1043 15.1046 15.9998 14 15.9998H2C0.895431 15.9998 0 15.1043 0 13.9998V5.40015C0 4.66163 0.407032 3.98313 1.05859 3.6355L7.05859 0.435307ZM8.4707 1.31714C8.17664 1.16035 7.82336 1.16035 7.5293 1.31714L1.5293 4.51733C1.20343 4.69113 1 5.03083 1 5.40015V6.21655L4.23438 8.15698C4.09233 8.4778 4.01455 8.82314 4.00195 9.18335L1 7.38257V13.1169L4.47949 11.0281C4.62933 11.304 4.81398 11.5819 5.03711 11.8601L1.03516 14.2625C1.15048 14.6874 1.53859 14.9998 2 14.9998H14C14.4614 14.9998 14.8495 14.6874 14.9648 14.2625L10.9619 11.8601C11.1851 11.5819 11.3696 11.304 11.5195 11.0281L15 13.1169V7.38257L11.9971 9.18335C11.9845 8.82301 11.9068 8.4779 11.7646 8.15698L15 6.21655V5.40015C15 5.03083 14.7966 4.69113 14.4707 4.51733L8.4707 1.31714ZM8 7.99292C9.66438 6.28218 13.8252 9.27561 8 13.1248C2.17481 9.27561 6.33562 6.28218 8 7.99292Z" fill="currentColor"/>
</svg>
