<svg width="16" height="16" viewBox="0 0 16 16" fill="none" xmlns="http://www.w3.org/2000/svg">
<path d="M8.47059 1.31766C8.17647 1.16079 7.82353 1.16079 7.52941 1.31766L1.52941 4.51766C1.20355 4.69145 1 5.0307 1 5.40001V6.21691L6.75 9.66692L8 8.91691L9.25 9.66692L15 6.21691V5.40001C15 5.0307 14.7965 4.69145 14.4706 4.51766L8.47059 1.31766ZM15 7.38311L10.2218 10.25L15 13.1169V7.38311ZM14.9653 14.2623L8 10.0831L1.03474 14.2623C1.14995 14.6873 1.53846 15 2 15H14C14.4615 15 14.85 14.6873 14.9653 14.2623ZM1 13.1169L5.77817 10.25L1 7.38311V13.1169ZM7.05882 0.435306C7.64706 0.121581 8.35294 0.121581 8.94118 0.435306L14.9412 3.6353C15.5929 3.98289 16 4.66139 16 5.40001V14C16 15.1046 15.1046 16 14 16H2C0.895431 16 0 15.1046 0 14V5.40001C0 4.66139 0.407097 3.98289 1.05882 3.6353L7.05882 0.435306Z" fill="currentColor"/>
</svg>
