<svg width="16" height="16" viewBox="0 0 16 16" fill="none" xmlns="http://www.w3.org/2000/svg">
<path d="M8.53793 1.02051C8.26259 0.999557 8.02239 1.20579 8.00145 1.48114C7.9805 1.75649 8.18673 1.99668 8.46208 2.01762C11.5596 2.25326 14 4.84194 14 8.00012C14 11.3138 11.3137 14.0001 8.00001 14.0001C4.84182 14.0001 2.25313 11.5597 2.0175 8.46219C1.99655 8.18685 1.75637 7.98061 1.48102 8.00156C1.20568 8.02251 0.99944 8.2627 1.02039 8.53805C1.29538 12.1529 4.31496 15.0001 8.00001 15.0001C11.866 15.0001 15 11.8661 15 8.00012C15 4.31507 12.1528 1.2955 8.53793 1.02051Z" fill="currentColor"/>
<path d="M7.09619 7.82845C7.29146 8.02371 7.60804 8.02371 7.8033 7.82845C7.99856 7.63319 7.99856 7.31661 7.8033 7.12134L2.70711 2.02515H5.47483C5.75098 2.02515 5.97484 1.8013 5.97484 1.52515C5.97484 1.24901 5.75098 1.02515 5.47483 1.02515H1.5C1.22386 1.02515 1 1.24901 1 1.52515V5.50003C1 5.77617 1.22386 6.00003 1.5 6.00003C1.77614 6.00003 2 5.77617 2 5.50003V2.73226L7.09619 7.82845Z" fill="currentColor"/>
</svg>
