<svg width="16" height="16" viewBox="0 0 16 16" fill="none" xmlns="http://www.w3.org/2000/svg">
<path d="M14 1C14.5523 1 15 1.44772 15 2V14C15 14.5523 14.5523 15 14 15H2C1.44772 15 1 14.5523 1 14V2C1 1.44772 1.44772 1 2 1H14ZM2 0C0.895431 0 0 0.895431 0 2V14C0 15.1046 0.895431 16 2 16H14C15.1046 16 16 15.1046 16 14V2C16 0.895431 15.1046 0 14 0H2Z" fill="currentColor"/>
<path d="M7.00159 11C7.00159 10.4477 7.44931 10 8.00159 10C8.55388 10 9.00159 10.4477 9.00159 11C9.00159 11.5523 8.55388 12 8.00159 12C7.44931 12 7.00159 11.5523 7.00159 11Z" fill="currentColor"/>
<path d="M7.09955 4.99504C7.04628 4.46228 7.46464 4 8.00005 4C8.53546 4 8.95382 4.46228 8.90055 4.99504L8.5498 8.50248C8.52156 8.78492 8.28389 9 8.00005 9C7.71621 9 7.47854 8.78492 7.4503 8.50248L7.09955 4.99504Z" fill="currentColor"/>
</svg>
