<svg width="16" height="16" viewBox="0 0 16 16" fill="none" xmlns="http://www.w3.org/2000/svg">
<path d="M8 15C4.13401 15 1 11.866 1 8C1 4.13401 4.13401 1 8 1C11.866 1 15 4.13401 15 8C15 11.866 11.866 15 8 15ZM8 16C12.4183 16 16 12.4183 16 8C16 3.58172 12.4183 0 8 0C3.58172 0 0 3.58172 0 8C0 12.4183 3.58172 16 8 16Z" fill="currentColor"/>
<path d="M7.00159 11C7.00159 10.4477 7.44931 10 8.00159 10C8.55388 10 9.00159 10.4477 9.00159 11C9.00159 11.5523 8.55388 12 8.00159 12C7.44931 12 7.00159 11.5523 7.00159 11Z" fill="currentColor"/>
<path d="M7.09955 4.99504C7.04628 4.46228 7.46464 4 8.00005 4C8.53546 4 8.95382 4.46228 8.90055 4.99504L8.5498 8.50248C8.52156 8.78492 8.28389 9 8.00005 9C7.71621 9 7.47854 8.78492 7.4503 8.50248L7.09955 4.99504Z" fill="currentColor"/>
</svg>
