<svg width="16" height="16" viewBox="0 0 16 16" fill="none" xmlns="http://www.w3.org/2000/svg">
<path d="M13.3589 11.2376C15.0613 9.72097 16 8 16 8C16 8 13 2.5 7.99999 2.5C6.98461 2.5 6.05171 2.72682 5.20966 3.08834L5.98053 3.85921C6.60982 3.63318 7.2844 3.5 7.99999 3.5C10.1194 3.5 11.879 4.66818 13.1679 5.95711C13.8037 6.5929 14.2978 7.23193 14.6327 7.71242C14.7055 7.81677 14.7704 7.91321 14.8273 8C14.7704 8.08679 14.7055 8.18323 14.6327 8.28758C14.2978 8.76807 13.8037 9.4071 13.1679 10.0429C13.0031 10.2077 12.8306 10.3706 12.6506 10.5292L13.3589 11.2376Z" fill="currentColor"/>
<path d="M11.2975 9.17614C11.4286 8.80856 11.5 8.41262 11.5 8C11.5 6.067 9.93299 4.5 7.99999 4.5C7.58737 4.5 7.19143 4.5714 6.82385 4.70252L7.64617 5.52484C7.76175 5.50847 7.87988 5.5 7.99999 5.5C9.3807 5.5 10.5 6.61929 10.5 8C10.5 8.12011 10.4915 8.23823 10.4752 8.35382L11.2975 9.17614Z" fill="currentColor"/>
<path d="M8.35385 10.4752L9.17617 11.2975C8.80858 11.4286 8.41263 11.5 8 11.5C6.067 11.5 4.5 9.93302 4.5 8.00002C4.5 7.58739 4.5714 7.19144 4.70253 6.82385L5.52485 7.64617C5.50847 7.76177 5.5 7.8799 5.5 8.00002C5.5 9.38073 6.61929 10.5 8 10.5C8.12012 10.5 8.23825 10.4915 8.35385 10.4752Z" fill="currentColor"/>
<path d="M3.34944 5.47072C3.16945 5.6294 2.99693 5.79225 2.83211 5.95708C2.19631 6.59287 1.70216 7.2319 1.36727 7.71239C1.29454 7.81674 1.22963 7.91318 1.1727 7.99997C1.22963 8.08676 1.29454 8.1832 1.36727 8.28755C1.70216 8.76804 2.19631 9.40707 2.83211 10.0429C4.12103 11.3318 5.88062 12.5 8 12.5C8.7156 12.5 9.39018 12.3668 10.0195 12.1408L10.7904 12.9117C9.9483 13.2732 9.01539 13.5 8 13.5C3 13.5 0 7.99997 0 7.99997C0 7.99997 0.938717 6.27899 2.64112 4.76239L3.34944 5.47072Z" fill="currentColor"/>
<path d="M13.6464 14.3536L1.64642 2.35352L2.35352 1.64642L14.3536 13.6464L13.6464 14.3536Z" fill="currentColor"/>
</svg>
