<svg width="16" height="16" viewBox="0 0 16 16" fill="none" xmlns="http://www.w3.org/2000/svg">
<path d="M10 3C10 4.3129 9.69644 5.50761 9.19985 6.39974C8.86561 6.14873 8.45018 6 8.00001 6C7.90351 6 7.80861 6.00684 7.71577 6.02005C7.43597 5.03828 6.80595 3.9791 5.87782 3.05097C5.71769 2.89084 5.55365 2.73957 5.38678 2.59745C6.17672 2.21465 7.0633 2 8.00001 2C8.69139 2 9.35546 2.11694 9.97352 2.33212C9.99101 2.5506 10 2.77354 10 3Z" fill="currentColor"/>
<path d="M9.99996 8.00003C9.99996 8.07342 9.99601 8.14588 9.9883 8.21722C11.0062 8.19847 12.1872 7.86413 13.3192 7.21057C13.5173 7.09618 13.7077 6.9756 13.8899 6.84983C13.5819 5.26392 12.6494 3.90101 11.3587 3.02747C11.3195 3.23867 11.2713 3.45188 11.2139 3.66611C10.8736 4.93605 10.2699 6.01271 9.55804 6.74598C9.83448 7.089 9.99996 7.52519 9.99996 8.00003Z" fill="currentColor"/>
<path d="M9.86328 8.72822C9.66888 9.22529 9.28132 9.62554 8.79291 9.83668C9.31831 10.7075 10.1975 11.5617 11.3279 12.2143C11.5284 12.33 11.7304 12.4358 11.9327 12.5315C13.1005 11.5172 13.8723 10.059 13.9855 8.41956C13.7783 8.49334 13.5645 8.56005 13.3449 8.61889C12.0807 8.95761 10.8519 8.97453 9.86328 8.72822Z" fill="currentColor"/>
<path d="M8.00002 9.99997C7.54951 9.99997 7.13379 9.85101 6.79942 9.59967C6.30561 10.4909 6.00391 11.6822 6.00391 12.991C6.00391 13.2211 6.01324 13.4477 6.0313 13.6695C6.648 13.8837 7.31042 14 8.00002 14C8.94039 14 9.83023 13.7837 10.6225 13.3981C10.4538 13.2546 10.2879 13.1019 10.1261 12.94C9.20056 12.0144 8.57146 10.9585 8.29051 9.97903C8.19567 9.99282 8.09868 9.99997 8.00002 9.99997Z" fill="currentColor"/>
<path d="M6.00001 7.99999C6.00001 7.91922 6.0048 7.83956 6.0141 7.76129C4.99403 7.77804 3.80905 8.11244 2.6734 8.76811C2.47634 8.88188 2.28691 9.00178 2.10565 9.12683C2.40811 10.7186 3.33937 12.0876 4.63122 12.9657C4.6709 12.7498 4.71995 12.5317 4.77866 12.3126C5.1181 11.0458 5.71966 9.97129 6.42924 9.23813C6.16043 8.89758 6.00001 8.46752 6.00001 7.99999Z" fill="currentColor"/>
<path d="M2.65263 7.36838C3.91968 7.02888 5.15121 7.01266 6.14102 7.26075C6.33739 6.7674 6.72446 6.37065 7.2112 6.16155C6.68658 5.2869 5.80476 4.42833 4.6696 3.77295C4.47279 3.65932 4.27451 3.55534 4.07585 3.461C2.90659 4.47275 2.13231 5.92872 2.01538 7.56651C2.22157 7.49321 2.43424 7.4269 2.65263 7.36838Z" fill="currentColor"/>
<path d="M8 9C8.55228 9 9 8.55228 9 8C9 7.44772 8.55228 7 8 7C7.44771 7 7 7.44772 7 8C7 8.55228 7.44771 9 8 9Z" fill="currentColor"/>
<path d="M8 15C4.13401 15 1 11.866 1 8C1 4.13401 4.13401 1 8 1C11.866 1 15 4.13401 15 8C15 11.866 11.866 15 8 15ZM8 16C12.4183 16 16 12.4183 16 8C16 3.58172 12.4183 0 8 0C3.58172 0 0 3.58172 0 8C0 12.4183 3.58172 16 8 16Z" fill="currentColor"/>
</svg>
