<svg width="16" height="16" viewBox="0 0 16 16" fill="none" xmlns="http://www.w3.org/2000/svg">
<path d="M14 4.5V14C14 15.1046 13.1046 16 12 16V15C12.5523 15 13 14.5523 13 14V4.5H11C10.1716 4.5 9.5 3.82843 9.5 3V1H4C3.44772 1 3 1.44772 3 2V11H2V2C2 0.89543 2.89543 0 4 0H9.5L14 4.5ZM1.94531 14.4453H1.97168L3.11133 11.8496H3.91113V15.8486H3.19629V13.1885H3.1582L2.21191 15.3477H1.69629L0.744141 13.1885H0.706055V15.8486H0V11.8496H0.805664L1.94531 14.4453ZM5.72363 11.8496C6.12974 11.8496 6.46489 11.9278 6.72852 12.084C6.99207 12.2402 7.18847 12.467 7.31738 12.7637C7.4482 13.0605 7.51363 13.4191 7.51367 13.8389C7.51367 14.2606 7.44816 14.6221 7.31738 14.9229C7.18653 15.2236 6.98825 15.4531 6.72266 15.6113C6.45898 15.7695 6.12598 15.8486 5.72363 15.8486H4.26465V11.8496H5.72363ZM8.9834 13.2881H9.01855L9.8418 11.8496H10.7354L9.46094 13.8564L10.7148 15.8486H9.80664L8.95703 14.4336H8.92188L8.06934 15.8486H7.20801L8.44727 13.833L7.21973 11.8496H8.15137L8.9834 13.2881ZM5.05566 15.2012H5.61816C5.80371 15.2012 5.96484 15.1738 6.10156 15.1191C6.23828 15.0625 6.34961 14.9785 6.43555 14.8672C6.52337 14.7539 6.58889 14.6132 6.63184 14.4453C6.6767 14.2774 6.69922 14.0799 6.69922 13.8535C6.69919 13.5529 6.66012 13.3017 6.58203 13.1006C6.50585 12.8996 6.38759 12.748 6.22754 12.6465C6.06938 12.545 5.86606 12.4941 5.61816 12.4941H5.05566V15.2012Z" fill="currentColor"/>
</svg>
