<svg width="16" height="17" viewBox="0 0 16 17" fill="none" xmlns="http://www.w3.org/2000/svg">
<path d="M9.44922 11.8496C9.75374 11.8497 10.0138 11.9004 10.2285 12.002C10.4452 12.1035 10.6123 12.2403 10.7295 12.4121C10.8486 12.5819 10.915 12.7707 10.9287 12.9775H10.1787C10.1611 12.882 10.121 12.7958 10.0586 12.7197C9.99809 12.6436 9.91591 12.583 9.8125 12.5381C9.70908 12.4932 9.58577 12.4707 9.44336 12.4707C9.22681 12.4707 9.05563 12.5217 8.93066 12.623C8.80772 12.7226 8.7462 12.8508 8.74609 13.0068C8.74609 13.1279 8.79395 13.2275 8.88965 13.3057C8.98535 13.3838 9.12014 13.4424 9.29395 13.4814L9.91504 13.625C10.1317 13.6738 10.3204 13.7442 10.4805 13.8359C10.6405 13.9257 10.7657 14.045 10.8555 14.1934C10.9453 14.3417 10.9902 14.5285 10.9902 14.7529C10.9902 15.0008 10.9275 15.2198 10.8027 15.4092C10.6798 15.5966 10.4998 15.7432 10.2637 15.8486C10.0294 15.9541 9.74299 16.0068 9.40527 16.0068C9.15147 16.0068 8.92963 15.9765 8.74023 15.916C8.5508 15.8555 8.3916 15.7715 8.2627 15.6641C8.13574 15.5547 8.03906 15.4297 7.97266 15.2891C7.9063 15.1485 7.86914 14.999 7.86133 14.8408H8.62598C8.63964 14.917 8.66801 14.9883 8.71094 15.0547C8.75391 15.1191 8.81055 15.1758 8.88086 15.2246C8.95116 15.2734 9.03421 15.3115 9.12988 15.3389C9.22552 15.3662 9.33214 15.3799 9.44922 15.3799C9.61311 15.3798 9.75106 15.3564 9.8623 15.3096C9.97535 15.2627 10.0606 15.1981 10.1172 15.1162C10.1736 15.0323 10.2021 14.9354 10.2021 14.8262C10.2021 14.6877 10.1512 14.579 10.0498 14.501C9.94829 14.4209 9.7938 14.3564 9.58691 14.3076L8.96875 14.1641C8.76176 14.1172 8.58201 14.0459 8.42969 13.9502C8.27734 13.8545 8.16016 13.7324 8.07812 13.584C7.99614 13.4356 7.95508 13.2607 7.95508 13.0596C7.95515 12.8156 8.01862 12.6024 8.14551 12.4209C8.27244 12.2395 8.44843 12.0986 8.67285 11.999C8.89735 11.8996 9.15646 11.8496 9.44922 11.8496ZM3.27539 13.3701H3.31055L4.13379 11.9316H5.02734L3.75293 13.9385L5.00684 15.9307H4.09863L3.24902 14.5156H3.21387L2.36133 15.9307H1.5L2.73926 13.915L1.51172 11.9316H2.44336L3.27539 13.3701ZM6.05762 15.2568H7.75391V15.9307H5.2666V11.9316H6.05762V15.2568ZM12.834 13.3701H12.8691L13.6924 11.9316H14.5859L13.3115 13.9385L14.5654 15.9307H13.6572L12.8076 14.5156H12.7725L11.9199 15.9307H11.0586L12.2979 13.915L11.0703 11.9316H12.002L12.834 13.3701ZM14 4.5V11H13V4.5H11C10.1716 4.5 9.5 3.82843 9.5 3V1H4C3.44772 1 3 1.44772 3 2V11H2V2C2 0.89543 2.89543 0 4 0H9.5L14 4.5Z" fill="currentColor"/>
</svg>
