<svg width="16" height="16" viewBox="0 0 16 16" fill="none" xmlns="http://www.w3.org/2000/svg">
<path d="M14 4.5V14C14 15.1046 13.1046 16 12 16V15C12.5523 15 13 14.5523 13 14V4.5H11C10.1716 4.5 9.5 3.82843 9.5 3V1H4C3.44772 1 3 1.44772 3 2V11H2V2C2 0.89543 2.89543 0 4 0H9.5L14 4.5ZM1.94531 14.4453H1.97168L3.11133 11.8496H3.91113V15.8486H3.19629V13.1885H3.1582L2.21191 15.3477H1.69629L0.744141 13.1885H0.706055V15.8486H0V11.8496H0.805664L1.94531 14.4453ZM5.98438 11.8496C6.27334 11.8496 6.51762 11.9093 6.7168 12.0283C6.91786 12.1454 7.07129 12.3048 7.17676 12.5059C7.28217 12.7069 7.33491 12.9328 7.33496 13.1826C7.33496 13.4325 7.28115 13.6583 7.17383 13.8594C7.06838 14.0585 6.91399 14.2168 6.71094 14.334C6.50977 14.4492 6.26562 14.5068 5.97852 14.5068H5.17578V15.8486H4.38477V11.8496H5.98438ZM9.96484 14.4688H10.4541V15.1074H9.96484V15.8486H9.22363V15.1074H7.28711V14.46C7.52144 14.0206 7.77056 13.5839 8.03418 13.1504C8.29975 12.7169 8.56353 12.2831 8.8252 11.8496H9.96484V14.4688ZM8.57617 13.4316C8.37505 13.7694 8.18453 14.1085 8.00488 14.4482V14.4688H9.22363V12.4473H9.18262C8.9815 12.7655 8.77924 13.0938 8.57617 13.4316ZM5.17285 13.8857H5.83203C5.97852 13.8857 6.10352 13.8584 6.20703 13.8037C6.31048 13.7471 6.38967 13.6669 6.44434 13.5635C6.50087 13.4581 6.5293 13.3309 6.5293 13.1826C6.52923 12.9562 6.4677 12.7822 6.34473 12.6611C6.2217 12.5402 6.05065 12.4795 5.83203 12.4795H5.17285V13.8857Z" fill="currentColor"/>
</svg>
