<svg width="16" height="16" viewBox="0 0 16 16" fill="none" xmlns="http://www.w3.org/2000/svg">
<path d="M5.25261 11.8489C5.60981 11.8489 5.91574 11.9223 6.16954 12.0686C6.42525 12.215 6.62168 12.4252 6.75838 12.6984C6.89504 12.9698 6.96339 13.2943 6.96345 13.6711V14.1837C6.96345 14.5586 6.89503 14.8829 6.75838 15.1563C6.62167 15.4278 6.42539 15.6367 6.16954 15.7832C5.91567 15.9277 5.60997 16 5.25261 16C4.89731 15.9999 4.59046 15.9277 4.33275 15.7832C4.07711 15.6367 3.88054 15.4277 3.74391 15.1563C3.60735 14.883 3.53884 14.5585 3.53884 14.1837V13.6711C3.53889 13.2923 3.60725 12.9669 3.74391 12.6955C3.8806 12.4222 4.077 12.2131 4.33275 12.0686C4.59046 11.9222 4.89731 11.849 5.25261 11.8489ZM8.98285 11.8489C9.20148 11.8489 9.4038 11.8812 9.58925 11.9456C9.77667 12.0081 9.93986 12.099 10.0785 12.2181C10.2171 12.337 10.3266 12.4778 10.4066 12.6398C10.4886 12.8018 10.5345 12.9827 10.5443 13.1818V13.2551H9.77967C9.76792 13.1126 9.72787 12.9854 9.65957 12.8742C9.59318 12.763 9.50227 12.6759 9.38713 12.6135C9.27196 12.549 9.13898 12.5168 8.98871 12.5168C8.80529 12.5168 8.64685 12.5628 8.51413 12.6545C8.38339 12.7462 8.28268 12.8793 8.21239 13.0529C8.14407 13.2266 8.10989 13.4378 8.10985 13.6857V14.1807C8.10985 14.4267 8.1441 14.6359 8.21239 14.8077C8.28074 14.9796 8.38035 15.1104 8.5112 15.2003C8.644 15.2882 8.80317 15.3321 8.98871 15.3321C9.14093 15.3321 9.27489 15.3028 9.39005 15.2442C9.5051 15.1837 9.59616 15.1005 9.6625 14.9952C9.72875 14.8898 9.76797 14.7685 9.77967 14.6319H10.5443V14.7081C10.5307 14.9618 10.4553 15.1867 10.3187 15.3819C10.1821 15.5751 9.99824 15.7266 9.76795 15.8359C9.53758 15.9453 9.27569 15.9999 8.98285 16C8.62351 16 8.31882 15.9277 8.06885 15.7832C7.81886 15.6367 7.62844 15.4278 7.49759 15.1563C7.36876 14.8849 7.30424 14.5595 7.30424 14.1807V13.6828C7.30428 13.3041 7.36971 12.9776 7.50052 12.7043C7.63136 12.431 7.82192 12.2199 8.07178 12.0716C8.32363 11.9233 8.62758 11.8489 8.98285 11.8489ZM13.9991 4.49973V13.9991C13.9991 15.1037 13.1038 15.999 11.9993 15.999V14.9991C12.5515 14.9991 12.9992 14.5514 12.9992 13.9991V4.49973H10.9993C10.171 4.49973 9.49942 3.8282 9.49942 2.99982V0.999939H3.99976C3.44751 0.999939 2.99982 1.44763 2.99982 1.99988V10.9993H1.99988V1.99988C1.99988 0.895375 2.89525 0 3.99976 0H9.49942L13.9991 4.49973ZM1.45889 11.9251C1.86504 11.9251 2.20009 12.0033 2.46372 12.1595C2.72727 12.3155 2.92365 12.5423 3.05254 12.839C3.18336 13.1358 3.24878 13.4945 3.24882 13.9142C3.24882 14.3359 3.18331 14.6974 3.05254 14.9981C2.92172 15.2988 2.72338 15.5284 2.45786 15.6865C2.19421 15.8447 1.86122 15.9238 1.45889 15.9238H0V11.9251H1.45889ZM5.25261 12.508C5.07503 12.508 4.91758 12.551 4.78096 12.6369C4.64629 12.7228 4.53974 12.8519 4.46164 13.0236C4.38356 13.1934 4.3445 13.4076 4.34446 13.6652V14.1866C4.34446 14.4422 4.38366 14.6564 4.46164 14.8282C4.53968 14.9999 4.64641 15.129 4.78096 15.2149C4.91758 15.2988 5.07503 15.3408 5.25261 15.3409C5.42835 15.3409 5.58464 15.2989 5.72133 15.2149C5.85804 15.129 5.96546 15.0001 6.04358 14.8282C6.12164 14.6564 6.16075 14.4424 6.16075 14.1866V13.6652C6.16071 13.4076 6.12166 13.1934 6.04358 13.0236C5.96548 12.852 5.85792 12.7228 5.72133 12.6369C5.58472 12.5511 5.4282 12.508 5.25261 12.508ZM0.790968 15.2764H1.35344C1.53897 15.2764 1.7001 15.2491 1.8368 15.1944C1.97345 15.1378 2.08486 15.0537 2.17077 14.9425C2.25855 14.8292 2.32411 14.6884 2.36705 14.5206C2.41189 14.3527 2.43442 14.1552 2.43442 13.9288C2.43439 13.6283 2.39532 13.377 2.31724 13.176C2.24107 12.975 2.12282 12.8234 1.96277 12.7219C1.8046 12.6204 1.60137 12.5695 1.35344 12.5695H0.790968V15.2764Z" fill="currentColor"/>
</svg>
