<svg width="16" height="17" viewBox="0 0 16 17" fill="none" xmlns="http://www.w3.org/2000/svg">
<path d="M2.88653 11.8496C3.19114 11.8496 3.45101 11.9004 3.66582 12.002C3.88251 12.1035 4.04962 12.2404 4.16681 12.4121C4.28588 12.5819 4.3523 12.7707 4.36603 12.9775H3.61602C3.5984 12.882 3.55832 12.7958 3.4959 12.7197C3.43537 12.6437 3.35321 12.583 3.24981 12.5381C3.14632 12.4932 3.02319 12.4707 2.88068 12.4707C2.66399 12.4707 2.49295 12.5216 2.36797 12.623C2.24503 12.7226 2.1835 12.8508 2.1834 13.0068C2.1834 13.1278 2.23139 13.2276 2.32697 13.3057C2.42265 13.3838 2.55747 13.4424 2.73126 13.4814L3.35236 13.625C3.56908 13.6738 3.75766 13.7442 3.91778 13.8359C4.07783 13.9257 4.20294 14.0451 4.29278 14.1934C4.38258 14.3417 4.42749 14.5285 4.42754 14.7529C4.42754 15.0009 4.36492 15.2198 4.24004 15.4092C4.11702 15.5966 3.93724 15.7432 3.70098 15.8486C3.4666 15.9541 3.18048 16.0068 2.84259 16.0068C2.58868 16.0068 2.367 15.9766 2.17755 15.916C1.98815 15.8555 1.82888 15.7715 1.7 15.6641C1.57314 15.5547 1.47635 15.4296 1.40997 15.2891C1.34366 15.1485 1.30645 14.9989 1.29865 14.8408H2.06329C2.07695 14.9169 2.10539 14.9884 2.14825 15.0547C2.19119 15.1191 2.24795 15.1758 2.31818 15.2246C2.38846 15.2734 2.47153 15.3115 2.56719 15.3389C2.66289 15.3662 2.76934 15.3799 2.88653 15.3799C3.05059 15.3799 3.18828 15.3564 3.29961 15.3096C3.41282 15.2627 3.49788 15.1982 3.5545 15.1162C3.61102 15.0323 3.63947 14.9354 3.63947 14.8262C3.63937 14.6877 3.58858 14.579 3.48711 14.501C3.38555 14.421 3.23112 14.3564 3.02422 14.3076L2.40606 14.1641C2.19906 14.1172 2.01932 14.0459 1.86699 13.9502C1.71474 13.8545 1.59743 13.7324 1.51543 13.584C1.43351 13.4356 1.3924 13.2606 1.3924 13.0596C1.39246 12.8156 1.45594 12.6024 1.58282 12.4209C1.70976 12.2394 1.88566 12.0986 2.11016 11.999C2.33473 11.8995 2.59362 11.8496 2.88653 11.8496ZM9.71661 11.8496C10.0211 11.8497 10.2812 11.9004 10.4959 12.002C10.7126 12.1035 10.8797 12.2403 10.9969 12.4121C11.116 12.5819 11.1824 12.7706 11.1961 12.9775H10.4461C10.4285 12.882 10.3884 12.7958 10.326 12.7197C10.2655 12.6436 10.1833 12.583 10.0799 12.5381C9.97647 12.4932 9.85316 12.4707 9.71074 12.4707C9.49419 12.4707 9.32302 12.5217 9.19806 12.623C9.07511 12.7226 9.01359 12.8508 9.01348 13.0068C9.01348 13.1279 9.06134 13.2275 9.15703 13.3057C9.25273 13.3838 9.38754 13.4424 9.56134 13.4814L10.1824 13.625C10.3991 13.6738 10.5878 13.7442 10.7479 13.8359C10.9079 13.9258 11.033 14.045 11.1229 14.1934C11.2127 14.3417 11.2576 14.5285 11.2576 14.7529C11.2576 15.0008 11.1949 15.2198 11.0701 15.4092C10.9472 15.5966 10.7672 15.7432 10.5311 15.8486C10.2968 15.9541 10.0104 16.0068 9.67267 16.0068C9.41887 16.0068 9.19703 15.9765 9.00763 15.916C8.8182 15.8555 8.65899 15.7715 8.53009 15.6641C8.40314 15.5547 8.30646 15.4297 8.24005 15.2891C8.17369 15.1485 8.13653 14.999 8.12872 14.8408H8.89336C8.90703 14.917 8.93539 14.9883 8.97832 15.0547C9.0213 15.1191 9.07793 15.1758 9.14824 15.2246C9.21854 15.2734 9.30161 15.3115 9.39727 15.3389C9.4929 15.3662 9.59953 15.3799 9.71661 15.3799C9.8805 15.3798 10.0185 15.3564 10.1297 15.3096C10.2427 15.2627 10.328 15.1981 10.3846 15.1162C10.441 15.0323 10.4695 14.9354 10.4695 14.8262C10.4694 14.6877 10.4186 14.579 10.3172 14.501C10.2157 14.4209 10.0612 14.3564 9.85431 14.3076L9.23615 14.1641C9.02915 14.1172 8.84939 14.0459 8.69707 13.9502C8.54473 13.8545 8.42755 13.7324 8.34552 13.584C8.26354 13.4356 8.22247 13.2607 8.22247 13.0596C8.22254 12.8156 8.28602 12.6024 8.4129 12.4209C8.53983 12.2395 8.71582 12.0986 8.94025 11.999C9.16475 11.8996 9.42385 11.8496 9.71661 11.8496ZM13.1072 11.8496C13.4117 11.8496 13.6718 11.9005 13.8865 12.002C14.1031 12.1034 14.2703 12.2404 14.3875 12.4121C14.5066 12.5819 14.573 12.7707 14.5867 12.9775H13.8367C13.8191 12.882 13.779 12.7958 13.7166 12.7197C13.6561 12.6438 13.5738 12.5829 13.4705 12.5381C13.3671 12.4933 13.2437 12.4707 13.1014 12.4707C12.8848 12.4708 12.7136 12.5215 12.5887 12.623C12.4658 12.7226 12.4042 12.8508 12.4041 13.0068C12.4041 13.1278 12.4522 13.2276 12.5477 13.3057C12.6433 13.3837 12.7784 13.4424 12.952 13.4814L13.5731 13.625C13.7896 13.6738 13.9784 13.7443 14.1385 13.8359C14.2985 13.9257 14.4237 14.0451 14.5135 14.1934C14.6033 14.3417 14.6482 14.5285 14.6483 14.7529C14.6483 15.0009 14.5857 15.2197 14.4608 15.4092C14.3377 15.5967 14.158 15.7432 13.9217 15.8486C13.6874 15.954 13.4011 16.0068 13.0633 16.0068C12.8096 16.0068 12.5876 15.9765 12.3983 15.916C12.209 15.8555 12.0495 15.7714 11.9207 15.6641C11.794 15.5548 11.697 15.4295 11.6307 15.2891C11.5644 15.1486 11.5272 14.9988 11.5193 14.8408H12.284C12.2976 14.9168 12.3262 14.9884 12.369 15.0547C12.4118 15.119 12.4688 15.1759 12.5389 15.2246C12.6091 15.2734 12.6924 15.3115 12.7879 15.3389C12.8835 15.3662 12.9902 15.3799 13.1072 15.3799C13.2712 15.3799 13.409 15.3564 13.5203 15.3096C13.6336 15.2627 13.7186 15.1982 13.7752 15.1162C13.8318 15.0322 13.8602 14.9355 13.8602 14.8262C13.8601 14.6877 13.8093 14.579 13.7078 14.501C13.6063 14.4211 13.4517 14.3564 13.2449 14.3076L12.6268 14.1641C12.4199 14.1172 12.2399 14.0458 12.0877 13.9502C11.9356 13.8545 11.8181 13.7323 11.7361 13.584C11.6543 13.4356 11.6131 13.2605 11.6131 13.0596C11.6132 12.8156 11.6766 12.6024 11.8035 12.4209C11.9304 12.2393 12.1064 12.0986 12.3309 11.999C12.5554 11.8995 12.8144 11.8497 13.1072 11.8496ZM8.08868 15.9307H7.24786L6.93439 14.9023H5.59844L5.28496 15.9307H4.48516L5.82697 11.9316H6.75274L8.08868 15.9307ZM5.7625 14.3135H6.77617L6.28693 12.6963H6.25177L5.7625 14.3135ZM13.9998 4.5V11H12.9998V4.5H10.9998C10.1715 4.4999 9.49981 3.82837 9.49981 3V1H3.99981C3.44761 1.0001 2.99981 1.44778 2.99981 2V11H1.99981V2C1.99981 0.895491 2.89532 9.89512e-05 3.99981 0H9.49981L13.9998 4.5Z" fill="currentColor"/>
</svg>
