<svg width="16" height="17" viewBox="0 0 16 17" fill="none" xmlns="http://www.w3.org/2000/svg">
<path d="M4.75977 11.8496C5.06437 11.8496 5.32426 11.9004 5.53906 12.002C5.75578 12.1035 5.92286 12.2403 6.04004 12.4121C6.15911 12.5819 6.22553 12.7707 6.23926 12.9775H5.48926C5.47165 12.882 5.43157 12.7958 5.36914 12.7197C5.30861 12.6436 5.22649 12.583 5.12305 12.5381C5.01958 12.4932 4.8964 12.4707 4.75391 12.4707C4.53729 12.4707 4.36618 12.5217 4.24121 12.623C4.11827 12.7226 4.05674 12.8508 4.05664 13.0068C4.05664 13.1279 4.10454 13.2275 4.2002 13.3057C4.2959 13.3838 4.43066 13.4424 4.60449 13.4814L5.22559 13.625C5.44233 13.6738 5.63089 13.7442 5.79102 13.8359C5.9511 13.9257 6.07618 14.045 6.16602 14.1934C6.25581 14.3417 6.30073 14.5285 6.30078 14.7529C6.30078 15.0008 6.23812 15.2198 6.11328 15.4092C5.99029 15.5966 5.8104 15.7432 5.57422 15.8486C5.33989 15.9541 5.05363 16.0068 4.71582 16.0068C4.46194 16.0068 4.24022 15.9765 4.05078 15.916C3.86133 15.8555 3.70215 15.7715 3.57324 15.6641C3.44633 15.5547 3.3496 15.4297 3.2832 15.2891C3.21687 15.1485 3.17968 14.9989 3.17188 14.8408H3.93652C3.95018 14.9169 3.97858 14.9883 4.02148 15.0547C4.06444 15.1191 4.12112 15.1758 4.19141 15.2246C4.26172 15.2734 4.34473 15.3115 4.44043 15.3389C4.53611 15.3662 4.64261 15.3799 4.75977 15.3799C4.92374 15.3799 5.06157 15.3564 5.17285 15.3096C5.28598 15.2627 5.37114 15.1982 5.42773 15.1162C5.48421 15.0323 5.5127 14.9354 5.5127 14.8262C5.5126 14.6877 5.46182 14.579 5.36035 14.501C5.2588 14.4209 5.1044 14.3564 4.89746 14.3076L4.2793 14.1641C4.07227 14.1172 3.89258 14.0459 3.74023 13.9502C3.58791 13.8545 3.4707 13.7324 3.38867 13.584C3.30672 13.4356 3.26562 13.2606 3.26562 13.0596C3.26569 12.8156 3.32917 12.6024 3.45605 12.4209C3.58299 12.2394 3.75893 12.0986 3.9834 11.999C4.20794 11.8995 4.46693 11.8496 4.75977 11.8496ZM14 4.5V14C14 15.1046 13.1046 16 12 16H11V15H12C12.5523 15 13 14.5523 13 14V4.5H11C10.1716 4.5 9.5 3.82843 9.5 3V1H4C3.44772 1 3 1.44772 3 2V11H2V2C2 0.89543 2.89543 0 4 0H9.5L14 4.5ZM3.06445 12.5938H1.92773V15.9307H1.13379V12.5938H0V11.9316H3.06445V12.5938ZM8.14551 13.3701H8.18066L9.00391 11.9316H9.89746L8.62305 13.9385L9.87695 15.9307H8.96875L8.11914 14.5156H8.08398L7.23145 15.9307H6.37012L7.60938 13.915L6.38184 11.9316H7.31348L8.14551 13.3701Z" fill="currentColor"/>
</svg>
