<svg width="16" height="16" viewBox="0 0 16 16" fill="none" xmlns="http://www.w3.org/2000/svg">
<path d="M8.50005 4.5C8.50005 4.22386 8.27619 4 8.00005 4C7.7239 4 7.50005 4.22386 7.50005 4.5V5.13397L6.95101 4.81699C6.71187 4.67892 6.40607 4.76085 6.268 5C6.12993 5.23915 6.21187 5.54494 6.45101 5.68301L7.00005 6L6.45101 6.31699C6.21186 6.45506 6.12992 6.76085 6.268 7C6.40607 7.23915 6.71186 7.32108 6.95101 7.18301L7.50005 6.86602V7.5C7.50005 7.77614 7.7239 8 8.00005 8C8.27619 8 8.50005 7.77614 8.50005 7.5V6.86602L9.04909 7.18301C9.28824 7.32108 9.59403 7.23915 9.7321 7C9.87017 6.76085 9.78824 6.45506 9.54909 6.31699L9.00005 6L9.54908 5.68301C9.78823 5.54494 9.87017 5.23915 9.7321 5C9.59403 4.76085 9.28823 4.67892 9.04909 4.81699L8.50005 5.13397V4.5Z" fill="currentColor"/>
<path d="M5.5 9C5.22386 9 5 9.22386 5 9.5C5 9.77614 5.22386 10 5.5 10H10.5C10.7761 10 11 9.77614 11 9.5C11 9.22386 10.7761 9 10.5 9H5.5Z" fill="currentColor"/>
<path d="M5.5 11C5.22386 11 5 11.2239 5 11.5C5 11.7761 5.22386 12 5.5 12H10.5C10.7761 12 11 11.7761 11 11.5C11 11.2239 10.7761 11 10.5 11H5.5Z" fill="currentColor"/>
<path d="M2 2C2 0.89543 2.89543 0 4 0H12C13.1046 0 14 0.89543 14 2V14C14 15.1046 13.1046 16 12 16H4C2.89543 16 2 15.1046 2 14V2ZM12 1H4C3.44772 1 3 1.44772 3 2V14C3 14.5523 3.44772 15 4 15H12C12.5523 15 13 14.5523 13 14V2C13 1.44772 12.5523 1 12 1Z" fill="currentColor"/>
</svg>
