<svg width="16" height="16" viewBox="0 0 16 16" fill="none" xmlns="http://www.w3.org/2000/svg">
<path d="M5.17992 4.6159C5.39206 4.43912 5.70734 4.46778 5.88412 4.67992L8.00001 7.21899L10.1159 4.67992C10.2927 4.46778 10.608 4.43912 10.8201 4.6159C11.0322 4.79268 11.0609 5.10796 10.8841 5.3201L8.65086 8.00001L10.8841 10.6799C11.0609 10.892 11.0322 11.2073 10.8201 11.3841C10.608 11.5609 10.2927 11.5322 10.1159 11.3201L8.00001 8.78103L5.88412 11.3201C5.70734 11.5322 5.39206 11.5609 5.17992 11.3841C4.96778 11.2073 4.93912 10.892 5.1159 10.6799L7.34916 8.00001L5.1159 5.3201C4.93912 5.10796 4.96778 4.79268 5.17992 4.6159Z" fill="currentColor"/>
<path d="M4 0C2.89543 0 2 0.89543 2 2V14C2 15.1046 2.89543 16 4 16H12C13.1046 16 14 15.1046 14 14V2C14 0.89543 13.1046 0 12 0H4ZM4 1H12C12.5523 1 13 1.44772 13 2V14C13 14.5523 12.5523 15 12 15H4C3.44772 15 3 14.5523 3 14V2C3 1.44772 3.44772 1 4 1Z" fill="currentColor"/>
</svg>
