<svg width="16" height="16" viewBox="0 0 16 16" fill="none" xmlns="http://www.w3.org/2000/svg">
<path d="M14 14V4.5L9.5 0H4C2.89543 0 2 0.89543 2 2V14C2 15.1046 2.89543 16 4 16H12C13.1046 16 14 15.1046 14 14ZM9.5 3C9.5 3.82843 10.1716 4.5 11 4.5H13V14C13 14.5523 12.5523 15 12 15H4C3.44772 15 3 14.5523 3 14V2C3 1.44772 3.44772 1 4 1H9.5V3Z" fill="currentColor"/>
<path d="M4.60308 14.0868C4.39492 14.0108 4.25502 13.8485 4.16469 13.6679C3.97023 13.279 4.03479 12.8912 4.24538 12.5647C4.4432 12.258 4.77107 11.9973 5.14157 11.7785C5.55866 11.5321 6.0723 11.3143 6.62412 11.1334C6.83122 10.7617 7.03391 10.3666 7.22354 9.96497C7.39178 9.60868 7.54761 9.25185 7.68581 8.90637C7.49421 8.45893 7.34401 8.01671 7.25638 7.61147C7.16979 7.211 7.13709 6.81481 7.20953 6.47502C7.28496 6.12122 7.48355 5.80283 7.86079 5.65193C8.05235 5.57531 8.25998 5.53157 8.46215 5.5748C8.68338 5.62211 8.84316 5.76151 8.93893 5.94C9.02715 6.10444 9.05908 6.29563 9.06587 6.47834C9.07284 6.66557 9.05431 6.87357 9.01863 7.09184C8.93529 7.60173 8.74812 8.22645 8.49839 8.88644C8.64647 9.20422 8.81663 9.52586 9.00129 9.83744C9.15468 10.0963 9.31534 10.3436 9.47821 10.5723C9.97315 10.541 10.4329 10.5538 10.8131 10.6222C11.177 10.6876 11.5471 10.8174 11.773 11.0869C11.8939 11.2312 11.9659 11.4072 11.9731 11.6055C11.9801 11.7973 11.9259 11.9869 11.8355 12.1678C11.751 12.3367 11.6356 12.483 11.4809 12.5843C11.3229 12.6876 11.1471 12.7287 10.9713 12.7217C10.64 12.7084 10.3173 12.5259 10.0377 12.3051C9.73718 12.0678 9.42668 11.7378 9.12697 11.3554C8.8067 11.3902 8.46939 11.443 8.12731 11.5125C7.78883 11.5813 7.45236 11.6651 7.13014 11.761C6.79218 12.3442 6.44175 12.8698 6.10906 13.2708C5.81838 13.6212 5.50132 13.9267 5.18301 14.0578C5.01465 14.1272 4.8099 14.1623 4.60308 14.0868ZM5.98158 12.186C5.81603 12.2624 5.66217 12.342 5.52298 12.4242C5.19504 12.6179 4.98181 12.8066 4.87564 12.9712C4.78226 13.116 4.77995 13.2213 4.83551 13.3324C4.84627 13.354 4.85527 13.3679 4.86178 13.3765C4.87007 13.3744 4.88173 13.3708 4.89731 13.3644C5.03409 13.308 5.25219 13.1291 5.53183 12.792C5.67695 12.617 5.82805 12.4127 5.98158 12.186ZM7.62199 10.8552C7.74064 10.8275 7.85945 10.8016 7.97793 10.7775C8.19565 10.7333 8.41477 10.6947 8.63205 10.6628C8.53723 10.518 8.44498 10.3698 8.35609 10.2199C8.27548 10.0838 8.19695 9.94513 8.12119 9.80482C8.05032 9.96537 7.97698 10.1259 7.90172 10.2853C7.81154 10.4762 7.71802 10.6668 7.62199 10.8552ZM10.0682 11.3069C10.2177 11.4686 10.3639 11.607 10.5026 11.7165C10.7431 11.9065 10.9103 11.9686 11.0014 11.9723C11.0369 11.9737 11.0554 11.9664 11.0702 11.9567C11.0882 11.9449 11.1241 11.9135 11.1646 11.8324C11.2167 11.7283 11.2247 11.6645 11.2236 11.6328C11.2227 11.6077 11.2162 11.5901 11.1982 11.5687C11.1464 11.507 10.9973 11.4173 10.6803 11.3603C10.5023 11.3283 10.2959 11.3107 10.0682 11.3069ZM8.07842 7.7988C8.17027 7.49414 8.23868 7.21421 8.27845 6.97086C8.30918 6.78288 8.32091 6.6276 8.31639 6.50623C8.31244 6.39996 8.29664 6.33871 8.28437 6.30833C8.26023 6.31026 8.21402 6.31841 8.13933 6.34829C8.05234 6.38308 7.98088 6.45396 7.94305 6.6314C7.90224 6.82284 7.91309 7.09986 7.98944 7.45295C8.01349 7.56415 8.04332 7.67975 8.07842 7.7988Z" fill="currentColor"/>
</svg>
