<svg width="16" height="16" viewBox="0 0 16 16" fill="none" xmlns="http://www.w3.org/2000/svg">
<path d="M7.62746 11.8489C7.98477 11.8489 8.29056 11.9222 8.5444 12.0686C8.80017 12.2151 8.99653 12.4251 9.13323 12.6984C9.26989 12.9698 9.33825 13.2943 9.3383 13.6711V14.1837C9.3383 14.5585 9.26981 14.883 9.13323 15.1563C8.99658 15.4277 8.80009 15.6367 8.5444 15.7832C8.29055 15.9277 7.98478 16 7.62746 16C7.27202 16 6.9654 15.9277 6.7076 15.7832C6.45177 15.6367 6.25548 15.4278 6.11877 15.1563C5.98213 14.8829 5.9137 14.5586 5.9137 14.1837V13.6711C5.91375 13.2923 5.9821 12.9669 6.11877 12.6955C6.25547 12.4222 6.45188 12.2131 6.7076 12.0686C6.96533 11.9223 7.27217 11.8489 7.62746 11.8489ZM2.20592 14.8282H2.244L2.95002 11.9251H3.63259L4.33861 14.8282H4.37961L4.97431 11.9251H5.83265L4.77803 15.9238H4.04858L3.30742 13.1349H3.27519L2.53403 15.9238H1.80458L0.749954 11.9251H1.60537L2.20592 14.8282ZM12.4308 12.5783H10.6731V13.6945H12.2786V14.3331H10.6731V15.9238H9.88221V11.9251H12.4308V12.5783ZM15.4171 12.5783H13.6594V13.6945H15.2647V14.3331H13.6594V15.9238H12.8683V11.9251H15.4171V12.5783ZM7.62746 12.508C7.44988 12.508 7.29244 12.5511 7.15581 12.6369C7.02116 12.7228 6.9146 12.8519 6.83649 13.0236C6.75842 13.1934 6.71936 13.4076 6.71932 13.6652V14.1866C6.71932 14.4423 6.75846 14.6564 6.83649 14.8282C6.91461 15.0001 7.02107 15.129 7.15581 15.2149C7.29253 15.2989 7.44975 15.3409 7.62746 15.3409C7.80315 15.3409 7.95952 15.2989 8.09619 15.2149C8.23275 15.129 8.34037 14.9999 8.41844 14.8282C8.49643 14.6564 8.53561 14.4423 8.53561 14.1866V13.6652C8.53557 13.4076 8.49651 13.1934 8.41844 13.0236C8.34032 12.8519 8.23283 12.7228 8.09619 12.6369C7.95953 12.551 7.80313 12.508 7.62746 12.508ZM13.9991 4.49973V10.9993H12.9992V4.49973H10.9993C10.171 4.49973 9.49942 3.8282 9.49942 2.99982V0.999939H3.99976C3.44751 0.999939 2.99982 1.44763 2.99982 1.99988V10.9993H1.99988V1.99988C1.99988 0.895375 2.89525 0 3.99976 0H9.49942L13.9991 4.49973Z" fill="currentColor"/>
</svg>
