<svg width="16" height="17" viewBox="0 0 16 17" fill="none" xmlns="http://www.w3.org/2000/svg">
<path d="M1.67871 11.8555C1.89741 11.8555 2.09964 11.8877 2.28516 11.9521C2.47257 12.0146 2.63578 12.1055 2.77441 12.2246C2.913 12.3437 3.02247 12.4845 3.10254 12.6465C3.18452 12.8085 3.23043 12.9894 3.24023 13.1885V13.2617H2.47559C2.46383 13.1193 2.42377 12.9921 2.35547 12.8809C2.28908 12.7697 2.19814 12.6826 2.08301 12.6201C1.96781 12.5557 1.83489 12.5234 1.68457 12.5234C1.50106 12.5234 1.34274 12.5694 1.20996 12.6611C1.07919 12.7529 0.978509 12.8859 0.908203 13.0596C0.839879 13.2333 0.8057 13.4445 0.805664 13.6924V14.1875C0.805664 14.4334 0.839933 14.6426 0.908203 14.8145C0.976531 14.9862 1.07626 15.1172 1.20703 15.207C1.33984 15.2949 1.49902 15.3389 1.68457 15.3389C1.83691 15.3389 1.9707 15.3096 2.08594 15.251C2.2011 15.1904 2.29202 15.1074 2.3584 15.002C2.4247 14.8965 2.46388 14.7753 2.47559 14.6387H3.24023V14.7148C3.22657 14.9686 3.15125 15.1934 3.01465 15.3887C2.87796 15.582 2.69427 15.7334 2.46387 15.8428C2.2334 15.9521 1.97168 16.0068 1.67871 16.0068C1.31934 16.0068 1.01465 15.9346 0.764648 15.79C0.514732 15.6436 0.324189 15.4345 0.193359 15.1631C0.0645536 14.8917 0 14.5663 0 14.1875V13.6895C4.478e-05 13.3107 0.0654745 12.9843 0.196289 12.7109C0.327144 12.4377 0.517675 12.2265 0.767578 12.0781C1.0195 11.9298 1.32332 11.8555 1.67871 11.8555ZM4.98535 11.8496C5.28996 11.8496 5.54984 11.9004 5.76465 12.002C5.98135 12.1035 6.14845 12.2403 6.26562 12.4121C6.38469 12.5819 6.45112 12.7707 6.46484 12.9775H5.71484C5.69723 12.882 5.65715 12.7958 5.59473 12.7197C5.5342 12.6436 5.45206 12.583 5.34863 12.5381C5.24515 12.4932 5.122 12.4707 4.97949 12.4707C4.76283 12.4707 4.59178 12.5216 4.4668 12.623C4.34385 12.7226 4.28233 12.8508 4.28223 13.0068C4.28223 13.1279 4.33017 13.2276 4.42578 13.3057C4.52148 13.3838 4.65625 13.4424 4.83008 13.4814L5.45117 13.625C5.66792 13.6738 5.85647 13.7442 6.0166 13.8359C6.17667 13.9257 6.30177 14.045 6.3916 14.1934C6.48139 14.3417 6.52632 14.5285 6.52637 14.7529C6.52637 15.0008 6.46373 15.2198 6.33887 15.4092C6.21586 15.5966 6.03603 15.7432 5.7998 15.8486C5.56545 15.9541 5.27926 16.0068 4.94141 16.0068C4.6875 16.0068 4.46582 15.9766 4.27637 15.916C4.08693 15.8555 3.92772 15.7715 3.79883 15.6641C3.67195 15.5547 3.57517 15.4296 3.50879 15.2891C3.44247 15.1485 3.40527 14.9989 3.39746 14.8408H4.16211C4.17576 14.9169 4.20419 14.9883 4.24707 15.0547C4.29001 15.1191 4.34674 15.1758 4.41699 15.2246C4.4873 15.2734 4.57033 15.3115 4.66602 15.3389C4.76172 15.3662 4.86816 15.3799 4.98535 15.3799C5.14938 15.3799 5.28713 15.3564 5.39844 15.3096C5.51162 15.2627 5.59671 15.1982 5.65332 15.1162C5.70982 15.0323 5.73828 14.9354 5.73828 14.8262C5.73819 14.6877 5.68741 14.579 5.58594 14.501C5.48437 14.4209 5.32998 14.3564 5.12305 14.3076L4.50488 14.1641C4.29786 14.1172 4.11816 14.0459 3.96582 13.9502C3.81353 13.8545 3.69627 13.7324 3.61426 13.584C3.53232 13.4356 3.49121 13.2606 3.49121 13.0596C3.49128 12.8156 3.55475 12.6024 3.68164 12.4209C3.80858 12.2394 3.9845 12.0986 4.20898 11.999C4.43355 11.8995 4.69247 11.8496 4.98535 11.8496ZM8.25684 11.8496C8.56145 11.8496 8.82133 11.9004 9.03613 12.002C9.25285 12.1035 9.41993 12.2403 9.53711 12.4121C9.65618 12.5819 9.7226 12.7707 9.73633 12.9775H8.98633C8.96872 12.882 8.92864 12.7958 8.86621 12.7197C8.80568 12.6436 8.72356 12.583 8.62012 12.5381C8.51664 12.4932 8.39348 12.4707 8.25098 12.4707C8.03434 12.4707 7.86326 12.5216 7.73828 12.623C7.61534 12.7226 7.55381 12.8508 7.55371 13.0068C7.55371 13.1279 7.60163 13.2276 7.69727 13.3057C7.79297 13.3838 7.92773 13.4424 8.10156 13.4814L8.72266 13.625C8.9394 13.6738 9.12796 13.7442 9.28809 13.8359C9.44816 13.9257 9.57325 14.045 9.66309 14.1934C9.75288 14.3417 9.7978 14.5285 9.79785 14.7529C9.79785 15.0008 9.7352 15.2198 9.61035 15.4092C9.48735 15.5966 9.30748 15.7432 9.07129 15.8486C8.83695 15.9541 8.55071 16.0068 8.21289 16.0068C7.959 16.0068 7.7373 15.9766 7.54785 15.916C7.3584 15.8555 7.19922 15.7715 7.07031 15.6641C6.94341 15.5547 6.84666 15.4296 6.78027 15.2891C6.71394 15.1485 6.67675 14.9989 6.66895 14.8408H7.43359C7.44725 14.9169 7.47566 14.9883 7.51855 15.0547C7.56151 15.1191 7.6182 15.1758 7.68848 15.2246C7.75879 15.2734 7.8418 15.3115 7.9375 15.3389C8.03319 15.3662 8.13967 15.3799 8.25684 15.3799C8.42083 15.3799 8.55863 15.3564 8.66992 15.3096C8.78307 15.2627 8.86821 15.1982 8.9248 15.1162C8.98129 15.0323 9.00977 14.9354 9.00977 14.8262C9.00967 14.6877 8.95889 14.579 8.85742 14.501C8.75587 14.4209 8.60147 14.3564 8.39453 14.3076L7.77637 14.1641C7.56934 14.1172 7.38965 14.0459 7.2373 13.9502C7.08499 13.8545 6.96776 13.7324 6.88574 13.584C6.8038 13.4356 6.7627 13.2606 6.7627 13.0596C6.76276 12.8156 6.82624 12.6024 6.95312 12.4209C7.08006 12.2394 7.256 12.0986 7.48047 11.999C7.70501 11.8995 7.96399 11.8496 8.25684 11.8496ZM14 4.5V14C14 15.1046 13.1046 16 12 16H11V15H12C12.5523 15 13 14.5523 13 14V4.5H11C10.1716 4.5 9.5 3.82843 9.5 3V1H4C3.44772 1 3 1.44772 3 2V11H2V2C2 0.89543 2.89543 0 4 0H9.5L14 4.5Z" fill="currentColor"/>
</svg>
