<svg width="16" height="16" viewBox="0 0 16 16" fill="none" xmlns="http://www.w3.org/2000/svg">
<path d="M4.08185 14.5742C4.08185 15.0136 3.96258 15.3486 3.72443 15.5791C3.4881 15.8096 3.15997 15.9248 2.74005 15.9248C2.52521 15.9248 2.33575 15.8936 2.17169 15.8311C2.00964 15.7666 1.87381 15.6777 1.76447 15.5645C1.65714 15.4512 1.57596 15.3212 1.5213 15.1748C1.4667 15.0284 1.43927 14.8729 1.43927 14.709H2.20392C2.20782 14.8104 2.23235 14.9005 2.27716 14.9785C2.32205 15.0546 2.38369 15.1152 2.46173 15.1602C2.53986 15.2031 2.6297 15.2246 2.73126 15.2246C2.92072 15.2246 3.06134 15.1699 3.15314 15.0605C3.24481 14.9512 3.29083 14.7958 3.29083 14.5947V11.8496H4.08185V14.5742ZM7.98322 15.8486H7.1424L6.82892 14.8203H5.49298L5.1795 15.8486H4.3797L5.7215 11.8496H6.64728L7.98322 15.8486ZM9.4881 14.9873H9.52618L10.4139 11.8496H11.2928L9.96564 15.8486H9.01349L7.67462 11.8496H8.59161L9.4881 14.9873ZM14.5897 15.8486H13.7488L13.4354 14.8203H12.0994L11.7859 15.8486H10.9861L12.3279 11.8496H13.2537L14.5897 15.8486ZM5.65704 14.2314H6.67072L6.18146 12.6143H6.1463L5.65704 14.2314ZM12.2635 14.2314H13.2772L12.7879 12.6143H12.7527L12.2635 14.2314ZM13.9998 4.5V11H12.9998V4.5H10.9998C10.1715 4.4999 9.49982 3.82837 9.49982 3V1H3.99982C3.44762 1.0001 2.99982 1.44778 2.99982 2V11H1.99982V2C1.99982 0.895491 2.89533 9.89512e-05 3.99982 0H9.49982L13.9998 4.5Z" fill="currentColor"/>
</svg>
