<svg width="16" height="16" viewBox="0 0 16 16" fill="none" xmlns="http://www.w3.org/2000/svg">
<path d="M14 4.5V14C14 15.1046 13.1046 16 12 16H8V15H12C12.5523 15 13 14.5523 13 14V4.5H11C10.1716 4.5 9.5 3.82843 9.5 3V1H4C3.44772 1 3 1.44772 3 2V11H2V2C2 0.89543 2.89543 0 4 0H9.5L14 4.5ZM1.59668 11.8496C1.89348 11.8496 2.14651 11.9024 2.35547 12.0078C2.56435 12.1113 2.72364 12.258 2.83301 12.4473C2.94428 12.6366 2.99994 12.8595 3 13.1152C3 13.3104 2.96475 13.4845 2.89453 13.6367C2.82426 13.787 2.73331 13.9131 2.62207 14.0146C2.51078 14.1142 2.39448 14.1885 2.27344 14.2373L3.07617 15.8486H2.19141L1.49121 14.3574H0.782227V15.8486H0V11.8496H1.59668ZM5.21387 11.8496C5.57116 11.8496 5.85747 11.9366 6.07227 12.1104C6.28702 12.2841 6.39444 12.5256 6.39453 12.834C6.39453 12.994 6.36413 13.1349 6.30371 13.2559C6.24518 13.3749 6.16391 13.4727 6.06055 13.5488C5.95905 13.623 5.84168 13.6768 5.70898 13.71V13.7451C5.87102 13.7608 6.01958 13.8077 6.1543 13.8857C6.289 13.9619 6.3965 14.0704 6.47656 14.2109C6.55854 14.3495 6.59956 14.5197 6.59961 14.7207C6.59961 14.9588 6.53987 15.1622 6.4209 15.3301C6.30182 15.498 6.13755 15.627 5.92871 15.7168C5.71978 15.8047 5.47941 15.8486 5.20801 15.8486H3.54395V11.8496H5.21387ZM4.3291 15.2539H4.91797C5.22841 15.2539 5.45218 15.2051 5.58887 15.1074C5.72538 15.0078 5.79395 14.8631 5.79395 14.6738C5.79389 14.547 5.76655 14.4384 5.71191 14.3486C5.65918 14.2569 5.57901 14.1865 5.47168 14.1377C5.3643 14.0889 5.23331 14.0645 5.0791 14.0645H4.3291V15.2539ZM0.782227 13.7627H1.4707C1.68945 13.7627 1.8623 13.71 1.98926 13.6045C2.11804 13.499 2.18262 13.3407 2.18262 13.1299C2.18254 12.9172 2.11809 12.7538 1.98926 12.6406C1.86038 12.5275 1.6913 12.4707 1.48242 12.4707H0.782227V13.7627ZM4.3291 13.5137H4.85059C5.02823 13.5137 5.17289 13.4922 5.28418 13.4492C5.39731 13.4063 5.48052 13.3447 5.5332 13.2646C5.58773 13.1827 5.61523 13.0838 5.61523 12.9688C5.61515 12.8049 5.56339 12.6767 5.45996 12.585C5.35844 12.4913 5.2147 12.4444 5.0293 12.4443H4.3291V13.5137Z" fill="currentColor"/>
</svg>
