<svg width="16" height="17" viewBox="0 0 16 17" fill="none" xmlns="http://www.w3.org/2000/svg">
<path d="M7.94922 11.8496C8.25374 11.8497 8.51376 11.9004 8.72852 12.002C8.94519 12.1035 9.11234 12.2403 9.22949 12.4121C9.34856 12.5819 9.41498 12.7707 9.42871 12.9775H8.67871C8.6611 12.882 8.62103 12.7958 8.55859 12.7197C8.49809 12.6436 8.4159 12.583 8.3125 12.5381C8.20908 12.4932 8.08577 12.4707 7.94336 12.4707C7.72681 12.4707 7.55563 12.5217 7.43066 12.623C7.30772 12.7226 7.2462 12.8508 7.24609 13.0068C7.24609 13.1279 7.29395 13.2275 7.38965 13.3057C7.48535 13.3838 7.62014 13.4424 7.79395 13.4814L8.41504 13.625C8.63172 13.6738 8.82038 13.7442 8.98047 13.8359C9.14052 13.9257 9.26565 14.045 9.35547 14.1934C9.44526 14.3417 9.49018 14.5285 9.49023 14.7529C9.49023 15.0008 9.42753 15.2198 9.30273 15.4092C9.17977 15.5966 8.99977 15.7432 8.76367 15.8486C8.52939 15.9541 8.24299 16.0068 7.90527 16.0068C7.65147 16.0068 7.42963 15.9765 7.24023 15.916C7.0508 15.8555 6.8916 15.7715 6.7627 15.6641C6.63574 15.5547 6.53906 15.4297 6.47266 15.2891C6.4063 15.1485 6.36914 14.999 6.36133 14.8408H7.12598C7.13964 14.917 7.16801 14.9883 7.21094 15.0547C7.25391 15.1191 7.31055 15.1758 7.38086 15.2246C7.45116 15.2734 7.53421 15.3115 7.62988 15.3389C7.72552 15.3662 7.83214 15.3799 7.94922 15.3799C8.11311 15.3798 8.25107 15.3564 8.3623 15.3096C8.47535 15.2627 8.56063 15.1981 8.61719 15.1162C8.67362 15.0323 8.70215 14.9353 8.70215 14.8262C8.70205 14.6877 8.65123 14.579 8.5498 14.501C8.44829 14.4209 8.2938 14.3564 8.08691 14.3076L7.46875 14.1641C7.26176 14.1172 7.08201 14.0459 6.92969 13.9502C6.77734 13.8545 6.66016 13.7324 6.57812 13.584C6.49614 13.4356 6.45508 13.2607 6.45508 13.0596C6.45515 12.8156 6.51862 12.6024 6.64551 12.4209C6.77244 12.2395 6.94843 12.0986 7.17285 11.999C7.39735 11.8996 7.65646 11.8496 7.94922 11.8496ZM14 4.5V14C14 15.1046 13.1046 16 12 16H11V15H12C12.5523 15 13 14.5523 13 14V4.5H11C10.1716 4.5 9.5 3.82843 9.5 3V1H4C3.44772 1 3 1.44772 3 2V11H2V2C2 0.89543 2.89543 0 4 0H9.5L14 4.5ZM1.77539 13.3701H1.81055L2.63379 11.9316H3.52734L2.25293 13.9385L3.50684 15.9307H2.59863L1.74902 14.5156H1.71387L0.861328 15.9307H0L1.23926 13.915L0.0117188 11.9316H0.943359L1.77539 13.3701ZM4.55762 15.2568H6.25391V15.9307H3.7666V11.9316H4.55762V15.2568Z" fill="currentColor"/>
</svg>
