<svg width="16" height="17" viewBox="0 0 16 17" fill="none" xmlns="http://www.w3.org/2000/svg">
<path d="M9.0918 11.8496C9.37098 11.8477 9.61237 11.8916 9.81543 11.9814C10.0184 12.0713 10.1758 12.1954 10.2871 12.3535C10.4003 12.5096 10.4579 12.6896 10.46 12.8926C10.4639 13.0799 10.4236 13.2393 10.3398 13.3701C10.2579 13.5008 10.158 13.6035 10.041 13.6777C9.92591 13.7499 9.81924 13.7939 9.72168 13.8096V13.8506C9.8427 13.8623 9.96883 13.9034 10.0996 13.9736C10.2324 14.0439 10.3457 14.1476 10.4395 14.2842C10.5331 14.4188 10.581 14.593 10.583 14.8057C10.585 14.9949 10.5457 15.1642 10.4658 15.3125C10.3878 15.4608 10.2781 15.587 10.1377 15.6904C9.99717 15.7919 9.83481 15.8701 9.65137 15.9248C9.46981 15.9775 9.27529 16.0039 9.06836 16.0039C8.7676 16.0039 8.51073 15.9531 8.29785 15.8516C8.08691 15.748 7.9248 15.6113 7.81152 15.4414C7.70028 15.2696 7.64062 15.082 7.63281 14.8789H8.35938C8.36718 14.9746 8.40242 15.0606 8.46484 15.1367C8.52734 15.2109 8.61035 15.2705 8.71387 15.3154C8.81932 15.3584 8.93851 15.3809 9.07129 15.3828C9.21766 15.3828 9.34577 15.3574 9.45508 15.3066C9.56426 15.2539 9.64851 15.1815 9.70703 15.0898C9.76738 14.9962 9.79687 14.8895 9.79492 14.7705C9.79485 14.6535 9.76555 14.5497 9.70703 14.46C9.64845 14.3702 9.56631 14.2998 9.46094 14.249C9.35749 14.1963 9.23328 14.17 9.08887 14.1699H8.64648V13.5605H9.06836C9.18934 13.5605 9.29695 13.5361 9.39062 13.4873C9.48418 13.4385 9.55769 13.3719 9.61035 13.2881C9.66289 13.2042 9.68847 13.1092 9.68652 13.0039C9.68641 12.842 9.62782 12.7108 9.51074 12.6113C9.39558 12.5118 9.24789 12.462 9.06836 12.4619C8.97672 12.4619 8.89248 12.4757 8.81641 12.5029C8.74236 12.5302 8.67765 12.5675 8.62305 12.6143C8.5685 12.661 8.52537 12.715 8.49414 12.7754C8.46492 12.8358 8.44829 12.8986 8.44434 12.9629H7.70898C7.71489 12.8068 7.74909 12.661 7.81152 12.5264C7.87401 12.3918 7.96401 12.2743 8.08105 12.1748C8.19817 12.0734 8.341 11.9941 8.50879 11.9375C8.67862 11.8809 8.87321 11.8516 9.0918 11.8496ZM14 4.5V14C14 15.1046 13.1046 16 12 16V15C12.5523 15 13 14.5523 13 14V4.5H11C10.1716 4.5 9.5 3.82843 9.5 3V1H4C3.44772 1 3 1.44772 3 2V11H2V2C2 0.89543 2.89543 0 4 0H9.5L14 4.5ZM1.94531 14.5215H1.97168L3.11133 11.9258H3.91113V15.9248H3.19629V13.2646H3.1582L2.21191 15.4238H1.69629L0.744141 13.2646H0.706055V15.9248H0V11.9258H0.805664L1.94531 14.5215ZM6.16406 11.9258C6.4529 11.9258 6.69735 11.9855 6.89648 12.1045C7.09749 12.2216 7.25098 12.3811 7.35645 12.582C7.46185 12.7831 7.51458 13.009 7.51465 13.2588C7.51465 13.5087 7.46086 13.7344 7.35352 13.9355C7.24805 14.1348 7.09375 14.293 6.89062 14.4102C6.68947 14.5254 6.44528 14.583 6.1582 14.583H5.35547V15.9248H4.56445V11.9258H6.16406ZM5.35254 13.9619H6.01172C6.15816 13.9619 6.28322 13.9345 6.38672 13.8799C6.49023 13.8232 6.56934 13.7432 6.62402 13.6396C6.68059 13.5342 6.70898 13.4071 6.70898 13.2588C6.7089 13.0325 6.64738 12.8583 6.52441 12.7373C6.4014 12.6165 6.23023 12.5557 6.01172 12.5557H5.35254V13.9619Z" fill="currentColor"/>
</svg>
