<svg width="16" height="17" viewBox="0 0 16 17" fill="none" xmlns="http://www.w3.org/2000/svg">
<path d="M1.58789 11.8496C1.89251 11.8496 2.15237 11.9004 2.36719 12.002C2.58387 12.1035 2.75099 12.2404 2.86816 12.4121C2.98723 12.5819 3.05365 12.7707 3.06738 12.9775H2.31738C2.29977 12.882 2.25968 12.7958 2.19727 12.7197C2.13674 12.6437 2.05458 12.583 1.95117 12.5381C1.84769 12.4932 1.72454 12.4707 1.58203 12.4707C1.36535 12.4707 1.19432 12.5216 1.06934 12.623C0.946393 12.7226 0.88487 12.8508 0.884766 13.0068C0.884766 13.1278 0.932747 13.2276 1.02832 13.3057C1.12401 13.3838 1.25883 13.4424 1.43262 13.4814L2.05371 13.625C2.27043 13.6738 2.45902 13.7442 2.61914 13.8359C2.77919 13.9257 2.90431 14.0451 2.99414 14.1934C3.08393 14.3417 3.12885 14.5285 3.12891 14.7529C3.12891 15.0009 3.06628 15.2198 2.94141 15.4092C2.81839 15.5966 2.6386 15.7432 2.40234 15.8486C2.16797 15.9541 1.88184 16.0068 1.54395 16.0068C1.29004 16.0068 1.06836 15.9766 0.878906 15.916C0.689504 15.8555 0.530247 15.7715 0.401367 15.6641C0.274511 15.5547 0.1777 15.4296 0.111328 15.2891C0.045018 15.1485 0.00780649 14.9989 0 14.8408H0.764648C0.778301 14.9169 0.806742 14.9884 0.849609 15.0547C0.89254 15.1191 0.949305 15.1758 1.01953 15.2246C1.08982 15.2734 1.1729 15.3115 1.26855 15.3389C1.36426 15.3662 1.4707 15.3799 1.58789 15.3799C1.75195 15.3799 1.88965 15.3564 2.00098 15.3096C2.11419 15.2627 2.19924 15.1982 2.25586 15.1162C2.31238 15.0323 2.34082 14.9354 2.34082 14.8262C2.34072 14.6877 2.28994 14.579 2.18848 14.501C2.08691 14.421 1.93249 14.3564 1.72559 14.3076L1.10742 14.1641C0.900427 14.1172 0.720682 14.0459 0.568359 13.9502C0.416103 13.8545 0.298796 13.7324 0.216797 13.584C0.134878 13.4356 0.09375 13.2606 0.09375 13.0596C0.0938187 12.8156 0.157295 12.6024 0.28418 12.4209C0.411118 12.2394 0.587024 12.0986 0.811523 11.999C1.0361 11.8995 1.29499 11.8496 1.58789 11.8496ZM8.62891 11.8555C8.86703 11.8555 9.0792 11.8887 9.26465 11.9551C9.45205 12.0215 9.61236 12.1133 9.74512 12.2305C9.87787 12.3476 9.98243 12.4835 10.0586 12.6377C10.1347 12.7899 10.1816 12.9542 10.1992 13.1299H9.42285C9.40331 13.0382 9.37104 12.955 9.32617 12.8809C9.28127 12.8067 9.22455 12.7431 9.15625 12.6904C9.0899 12.6358 9.01064 12.5937 8.91895 12.5645C8.82921 12.5352 8.72934 12.5205 8.62012 12.5205C8.33517 12.5205 8.11326 12.6214 7.95508 12.8223C7.79888 13.0234 7.72076 13.3068 7.7207 13.6719V14.1699C7.7207 14.4042 7.75298 14.6094 7.81738 14.7852C7.88379 14.9609 7.98535 15.0986 8.12207 15.1982C8.25878 15.2959 8.43168 15.3447 8.64062 15.3447C8.82404 15.3447 8.97665 15.3125 9.09766 15.248C9.21852 15.1817 9.30965 15.0936 9.37012 14.9844C9.43049 14.8751 9.46094 14.7537 9.46094 14.6211V14.3662H8.6377V13.7773H10.2139V14.5742C10.2139 14.7674 10.1815 14.9513 10.1172 15.125C10.0528 15.2967 9.95488 15.4493 9.82422 15.582C9.69346 15.7147 9.52811 15.8194 9.3291 15.8955C9.13193 15.9697 8.89925 16.0068 8.63184 16.0068C8.34481 16.0068 8.09371 15.9628 7.87891 15.875C7.66602 15.7852 7.48828 15.6592 7.3457 15.4971C7.20314 15.335 7.09668 15.1416 7.02637 14.917C6.95611 14.6924 6.9209 14.4442 6.9209 14.1729V13.666C6.92095 13.3049 6.98735 12.9882 7.12012 12.7168C7.25487 12.4455 7.44937 12.2343 7.70312 12.084C7.95889 11.9318 8.2678 11.8555 8.62891 11.8555ZM14 4.5V14C14 15.1046 13.1046 16 12 16V15C12.5523 15 13 14.5523 13 14V4.5H11C10.1716 4.5 9.5 3.82843 9.5 3V1H4C3.44772 1 3 1.44772 3 2V11H2V2C2 0.89543 2.89543 0 4 0H9.5L14 4.5ZM5.0498 15.0693H5.08789L5.97559 11.9316H6.85449L5.52734 15.9307H4.5752L3.23633 11.9316H4.15332L5.0498 15.0693Z" fill="currentColor"/>
</svg>
