<svg width="16" height="16" viewBox="0 0 16 16" fill="none" xmlns="http://www.w3.org/2000/svg">
<path d="M6.25255 11.8489C6.60975 11.8489 6.91568 11.9223 7.16948 12.0686C7.42519 12.215 7.62161 12.4252 7.75832 12.6984C7.89498 12.9698 7.96333 13.2943 7.96338 13.6711V14.1837C7.96338 14.5586 7.89497 14.8829 7.75832 15.1563C7.6216 15.4278 7.42533 15.6367 7.16948 15.7832C6.91561 15.9277 6.60991 16 6.25255 16C5.89725 15.9999 5.5904 15.9277 5.33268 15.7832C5.07705 15.6367 4.88048 15.4277 4.74385 15.1563C4.60729 14.883 4.53878 14.5585 4.53878 14.1837V13.6711C4.53883 13.2923 4.60719 12.9669 4.74385 12.6955C4.88054 12.4222 5.07694 12.2131 5.33268 12.0686C5.5904 11.9222 5.89725 11.849 6.25255 11.8489ZM9.98279 11.8489C10.2014 11.8489 10.4038 11.8812 10.5892 11.9456C10.7766 12.0081 10.9398 12.099 11.0784 12.2181C11.217 12.337 11.3265 12.4778 11.4065 12.6398C11.4885 12.8018 11.5344 12.9827 11.5442 13.1818V13.2551H10.7796C10.7678 13.1126 10.7278 12.9854 10.6595 12.8742C10.5932 12.763 10.5022 12.6759 10.3871 12.6135C10.2719 12.549 10.1389 12.5168 9.98865 12.5168C9.80523 12.5168 9.64679 12.5628 9.51407 12.6545C9.38333 12.7462 9.28262 12.8793 9.21233 13.0529C9.14401 13.2266 9.10983 13.4378 9.10979 13.6857V14.1807C9.10979 14.4267 9.14404 14.6359 9.21233 14.8077C9.28068 14.9796 9.38029 15.1104 9.51114 15.2003C9.64394 15.2882 9.80311 15.3321 9.98865 15.3321C10.1409 15.3321 10.2749 15.3028 10.39 15.2442C10.5051 15.1837 10.5962 15.1005 10.6624 14.9952C10.7286 14.8898 10.7679 14.7685 10.7796 14.6319H11.5442V14.7081C11.5306 14.9618 11.4552 15.1867 11.3186 15.3819C11.182 15.5751 10.9981 15.7266 10.7679 15.8359C10.5376 15.9453 10.2757 15.9999 9.98279 16C9.62345 16 9.31876 15.9277 9.06879 15.7832C8.8188 15.6367 8.62838 15.4278 8.49753 15.1563C8.3687 14.8849 8.30418 14.5595 8.30418 14.1807V13.6828C8.30422 13.3041 8.36965 12.9776 8.50046 12.7043C8.6313 12.431 8.82186 12.2199 9.07172 12.0716C9.32357 11.9233 9.62752 11.8489 9.98279 11.8489ZM2.45883 11.9251C2.86498 11.9251 3.20002 12.0033 3.46366 12.1595C3.72721 12.3155 3.92359 12.5423 4.05248 12.839C4.18329 13.1358 4.24872 13.4945 4.24876 13.9142C4.24876 14.3359 4.18324 14.6974 4.05248 14.9981C3.92166 15.2988 3.72332 15.5284 3.4578 15.6865C3.19415 15.8447 2.86116 15.9238 2.45883 15.9238H0.999939V11.9251H2.45883ZM13.343 13.3635H13.3781L14.2012 11.9251H15.0948L13.8205 13.9317L15.0743 15.9238H14.1661L13.3166 14.5089H13.2814L12.4289 15.9238H11.5677L12.8068 13.9084L11.5794 11.9251H12.5109L13.343 13.3635ZM6.25255 12.508C6.07497 12.508 5.91752 12.551 5.7809 12.6369C5.64623 12.7228 5.53968 12.8519 5.46158 13.0236C5.3835 13.1934 5.34444 13.4076 5.3444 13.6652V14.1866C5.3444 14.4422 5.3836 14.6564 5.46158 14.8282C5.53962 14.9999 5.64635 15.129 5.7809 15.2149C5.91752 15.2988 6.07497 15.3408 6.25255 15.3409C6.42829 15.3409 6.58458 15.2989 6.72127 15.2149C6.85798 15.129 6.9654 15.0001 7.04352 14.8282C7.12158 14.6564 7.16069 14.4424 7.16069 14.1866V13.6652C7.16065 13.4076 7.1216 13.1934 7.04352 13.0236C6.96541 12.852 6.85786 12.7228 6.72127 12.6369C6.58466 12.5511 6.42814 12.508 6.25255 12.508ZM1.79091 15.2764H2.35338C2.5389 15.2764 2.70004 15.2491 2.83674 15.1944C2.97339 15.1378 3.0848 15.0537 3.17071 14.9425C3.25849 14.8292 3.32405 14.6884 3.36698 14.5206C3.41183 14.3527 3.43436 14.1552 3.43436 13.9288C3.43433 13.6283 3.39526 13.377 3.31718 13.176C3.24101 12.975 3.12276 12.8234 2.96271 12.7219C2.80454 12.6204 2.60131 12.5695 2.35338 12.5695H1.79091V15.2764ZM13.9991 4.49973V10.9993H12.9992V4.49973H10.9993C10.171 4.49973 9.49942 3.8282 9.49942 2.99982V0.999939H3.99976C3.44751 0.999939 2.99982 1.44763 2.99982 1.99988V10.9993H1.99988V1.99988C1.99988 0.895375 2.89525 0 3.99976 0H9.49942L13.9991 4.49973Z" fill="currentColor"/>
</svg>
