<svg width="16" height="16" viewBox="0 0 16 16" fill="none" xmlns="http://www.w3.org/2000/svg">
<path d="M14 4.5V14C14 15.1046 13.1046 16 12 16H11V15H12C12.5523 15 13 14.5523 13 14V4.5H11C10.1716 4.5 9.5 3.82843 9.5 3V1H4C3.44772 1 3 1.44772 3 2V11H2V2C2 0.89543 2.89543 0 4 0H9.5L14 4.5ZM1.59961 11.8496C1.88859 11.8496 2.13284 11.9092 2.33203 12.0283C2.5331 12.1454 2.68653 12.3048 2.79199 12.5059C2.89741 12.7069 2.95014 12.9328 2.9502 13.1826C2.9502 13.4325 2.89637 13.6583 2.78906 13.8594C2.68362 14.0585 2.52921 14.2168 2.32617 14.334C2.125 14.4492 1.88086 14.5068 1.59375 14.5068H0.791016V15.8486H0V11.8496H1.59961ZM4.96191 11.8496C5.25088 11.8496 5.49517 11.9092 5.69434 12.0283C5.89543 12.1455 6.04883 12.3048 6.1543 12.5059C6.25971 12.7069 6.31244 12.9328 6.3125 13.1826C6.3125 13.4325 6.25865 13.6583 6.15137 13.8594C6.04595 14.0585 5.89144 14.2168 5.68848 14.334C5.48735 14.4492 5.24308 14.5068 4.95605 14.5068H4.15332V15.8486H3.3623V11.8496H4.96191ZM9.41113 12.5117H8.27441V15.8486H7.48047V12.5117H6.34668V11.8496H9.41113V12.5117ZM0.788086 13.8857H1.44727C1.59375 13.8857 1.71875 13.8584 1.82227 13.8037C1.9257 13.7471 2.00491 13.6669 2.05957 13.5635C2.1161 13.4581 2.14453 13.3309 2.14453 13.1826C2.14446 12.9562 2.08294 12.7822 1.95996 12.6611C1.83693 12.5402 1.6659 12.4795 1.44727 12.4795H0.788086V13.8857ZM4.15039 13.8857H4.80957C4.95597 13.8857 5.0811 13.8584 5.18457 13.8037C5.28793 13.7471 5.36724 13.6669 5.42188 13.5635C5.47838 13.4581 5.50684 13.3309 5.50684 13.1826C5.50676 12.9562 5.44524 12.7822 5.32227 12.6611C5.19926 12.5401 5.02817 12.4795 4.80957 12.4795H4.15039V13.8857Z" fill="currentColor"/>
</svg>
