<svg width="16" height="17" viewBox="0 0 16 17" fill="none" xmlns="http://www.w3.org/2000/svg">
<path d="M3.60724 14.6562C3.60724 15.0956 3.48797 15.4307 3.24982 15.6611C3.01349 15.8916 2.68536 16.0068 2.26544 16.0068C2.0506 16.0068 1.86115 15.9756 1.69708 15.9131C1.53503 15.8486 1.3992 15.7597 1.28986 15.6465C1.18253 15.5333 1.10135 15.4032 1.04669 15.2568C0.99209 15.1105 0.964661 14.9549 0.964661 14.791H1.72931C1.73321 14.8925 1.75774 14.9825 1.80255 15.0605C1.84744 15.1367 1.90908 15.1973 1.98712 15.2422C2.06525 15.2852 2.15509 15.3066 2.25665 15.3066C2.44611 15.3066 2.58673 15.252 2.67853 15.1426C2.7702 15.0332 2.81622 14.8778 2.81622 14.6768V11.9316H3.60724V14.6562ZM5.62775 11.8496C5.93235 11.8496 6.19225 11.9004 6.40704 12.002C6.62376 12.1035 6.79084 12.2403 6.90802 12.4121C7.02709 12.5819 7.09351 12.7707 7.10724 12.9775H6.35724C6.33963 12.882 6.29955 12.7958 6.23712 12.7197C6.17659 12.6436 6.09447 12.583 5.99103 12.5381C5.88756 12.4932 5.76438 12.4707 5.62189 12.4707C5.40527 12.4707 5.23416 12.5217 5.10919 12.623C4.98625 12.7226 4.92472 12.8508 4.92462 13.0068C4.92462 13.1279 4.97252 13.2275 5.06818 13.3057C5.16388 13.3838 5.29865 13.4424 5.47247 13.4814L6.09357 13.625C6.31031 13.6738 6.49887 13.7442 6.659 13.8359C6.81908 13.9257 6.94416 14.045 7.034 14.1934C7.12379 14.3417 7.16871 14.5285 7.16876 14.7529C7.16876 15.0008 7.1061 15.2198 6.98126 15.4092C6.85827 15.5966 6.67838 15.7432 6.4422 15.8486C6.20787 15.9541 5.92161 16.0068 5.5838 16.0068C5.32992 16.0068 5.1082 15.9765 4.91876 15.916C4.72931 15.8555 4.57013 15.7715 4.44122 15.6641C4.31431 15.5547 4.21758 15.4297 4.15118 15.2891C4.08485 15.1485 4.04766 14.9989 4.03986 14.8408H4.8045C4.81816 14.9169 4.84656 14.9883 4.88947 15.0547C4.93242 15.1191 4.9891 15.1758 5.05939 15.2246C5.1297 15.2734 5.21271 15.3115 5.30841 15.3389C5.40409 15.3662 5.51059 15.3799 5.62775 15.3799C5.79172 15.3799 5.92955 15.3564 6.04083 15.3096C6.15396 15.2627 6.23913 15.1982 6.29572 15.1162C6.35219 15.0323 6.38068 14.9354 6.38068 14.8262C6.38058 14.6877 6.3298 14.579 6.22833 14.501C6.12679 14.4209 5.97238 14.3564 5.76544 14.3076L5.14728 14.1641C4.94025 14.1172 4.76056 14.0459 4.60822 13.9502C4.45589 13.8545 4.33868 13.7324 4.25665 13.584C4.1747 13.4356 4.13361 13.2606 4.13361 13.0596C4.13367 12.8156 4.19715 12.6024 4.32404 12.4209C4.45097 12.2394 4.62692 12.0986 4.85138 11.999C5.07592 11.8995 5.33491 11.8496 5.62775 11.8496ZM9.23029 11.8555C9.58754 11.8555 9.89346 11.9288 10.1473 12.0752C10.403 12.2216 10.5995 12.4318 10.7361 12.7051C10.8728 12.9765 10.9412 13.3009 10.9412 13.6777V14.1904C10.9412 14.5652 10.8727 14.8897 10.7361 15.1631C10.5995 15.4344 10.4029 15.6436 10.1473 15.79C9.89346 15.9345 9.58754 16.0068 9.23029 16.0068C8.87488 16.0068 8.56815 15.9345 8.31036 15.79C8.0545 15.6436 7.85822 15.4346 7.7215 15.1631C7.58483 14.8897 7.51642 14.5654 7.51642 14.1904V13.6777C7.51647 13.299 7.58482 12.9735 7.7215 12.7021C7.85821 12.4289 8.05465 12.2196 8.31036 12.0752C8.56808 11.9289 8.87503 11.8555 9.23029 11.8555ZM13.8983 14.5918H13.9305V11.9316H14.6805V15.9307H14.0242L12.2635 13.2559H12.2313V15.9307H11.4842V11.9316H12.1463L13.8983 14.5918ZM9.23029 12.5146C9.05275 12.5146 8.89522 12.5578 8.75861 12.6436C8.62396 12.7294 8.51738 12.8586 8.43927 13.0303C8.36118 13.2001 8.32212 13.4142 8.32208 13.6719V14.1934C8.32208 14.4491 8.3612 14.6631 8.43927 14.835C8.5174 15.0068 8.62384 15.1357 8.75861 15.2217C8.8953 15.3056 9.0526 15.3477 9.23029 15.3477C9.40591 15.3476 9.56242 15.3056 9.69904 15.2217C9.83554 15.1357 9.94326 15.0066 10.0213 14.835C10.0993 14.6632 10.1385 14.449 10.1385 14.1934V13.6719C10.1384 13.4142 10.0994 13.2001 10.0213 13.0303C9.9432 12.8585 9.83566 12.7295 9.69904 12.6436C9.56242 12.5577 9.40591 12.5147 9.23029 12.5146ZM13.9998 4.5V11H12.9998V4.5H10.9998C10.1715 4.4999 9.49982 3.82837 9.49982 3V1H3.99982C3.44762 1.0001 2.99982 1.44778 2.99982 2V11H1.99982V2C1.99982 0.895491 2.89533 9.89512e-05 3.99982 0H9.49982L13.9998 4.5Z" fill="currentColor"/>
</svg>
