<svg width="16" height="16" viewBox="0 0 16 16" fill="none" xmlns="http://www.w3.org/2000/svg">
<path d="M14 4.5V14C14 15.1046 13.1046 16 12 16H9V15H12C12.5523 15 13 14.5523 13 14V4.5H11C10.1716 4.5 9.5 3.82843 9.5 3V1H4C3.44772 1 3 1.44772 3 2V11H2V2C2 0.89543 2.89543 0 4 0H9.5L14 4.5ZM1.94531 14.4453H1.97168L3.11133 11.8496H3.91113V15.8486H3.19629V13.1885H3.1582L2.21191 15.3477H1.69629L0.744141 13.1885H0.706055V15.8486H0V11.8496H0.805664L1.94531 14.4453ZM6.08398 11.8496C6.49013 11.8496 6.82524 11.9278 7.08887 12.084C7.35246 12.2402 7.54883 12.4669 7.67773 12.7637C7.80855 13.0605 7.87398 13.4191 7.87402 13.8389C7.87402 14.2606 7.80848 14.6221 7.67773 14.9229C7.54693 15.2235 7.34847 15.4531 7.08301 15.6113C6.81938 15.7695 6.48624 15.8486 6.08398 15.8486H4.625V11.8496H6.08398ZM5.41602 15.2012H5.97852C6.16398 15.2012 6.32524 15.1738 6.46191 15.1191C6.59849 15.0625 6.71002 14.9784 6.7959 14.8672C6.88366 14.754 6.94926 14.6131 6.99219 14.4453C7.03704 14.2774 7.05957 14.0799 7.05957 13.8535C7.05954 13.5529 7.02047 13.3017 6.94238 13.1006C6.86621 12.8996 6.74797 12.748 6.58789 12.6465C6.42973 12.545 6.22645 12.4942 5.97852 12.4941H5.41602V15.2012Z" fill="currentColor"/>
</svg>
