<svg width="16" height="16" viewBox="0 0 16 16" fill="none" xmlns="http://www.w3.org/2000/svg">
<path d="M6.49999 7.5C6.49999 6.94772 6.94771 6.5 7.49999 6.5H8.49999C9.05228 6.5 9.49999 6.94772 9.49999 7.5V8.43845L9.8996 10.0369C10.0021 10.4469 9.8358 10.8771 9.48416 11.1115L8.55469 11.7311C8.21879 11.9551 7.78119 11.9551 7.44529 11.7311L6.51582 11.1115C6.16419 10.8771 5.99788 10.4469 6.10038 10.0369L6.49999 8.43845V7.5ZM8.49999 7.5H7.49999V8.43845C7.49999 8.52021 7.48997 8.60166 7.47014 8.68098L7.07052 10.2794L7.99999 10.8991L8.92946 10.2794L8.52985 8.68098C8.51002 8.60166 8.49999 8.52021 8.49999 8.43845V7.5Z" fill="currentColor"/>
<path d="M2 2C2 0.89543 2.89543 0 4 0H12C13.1046 0 14 0.89543 14 2V14C14 15.1046 13.1046 16 12 16H4C2.89543 16 2 15.1046 2 14V2ZM7.5 1H4C3.44772 1 3 1.44772 3 2V14C3 14.5523 3.44772 15 4 15H12C12.5523 15 13 14.5523 13 14V2C13 1.44772 12.5523 1 12 1H9V2H8V3H9V4H8V5H9V6H7.5V5H6.5V4H7.5V3H6.5V2H7.5V1Z" fill="currentColor"/>
</svg>
