<svg width="16" height="17" viewBox="0 0 16 17" fill="none" xmlns="http://www.w3.org/2000/svg">
<path d="M1.58789 11.8496C1.89251 11.8496 2.15237 11.9004 2.36719 12.002C2.58387 12.1035 2.75099 12.2404 2.86816 12.4121C2.98723 12.5819 3.05365 12.7707 3.06738 12.9775H2.31738C2.29977 12.882 2.25968 12.7958 2.19727 12.7197C2.13674 12.6437 2.05458 12.583 1.95117 12.5381C1.84769 12.4932 1.72454 12.4707 1.58203 12.4707C1.36534 12.4707 1.19432 12.5216 1.06934 12.623C0.946391 12.7226 0.884868 12.8508 0.884766 13.0068C0.884766 13.1278 0.932744 13.2276 1.02832 13.3057C1.12401 13.3838 1.25883 13.4424 1.43262 13.4814L2.05371 13.625C2.27043 13.6738 2.45902 13.7442 2.61914 13.8359C2.77919 13.9257 2.90431 14.0451 2.99414 14.1934C3.08393 14.3417 3.12885 14.5285 3.12891 14.7529C3.12891 15.0009 3.06629 15.2198 2.94141 15.4092C2.81838 15.5966 2.6386 15.7432 2.40234 15.8486C2.16797 15.9541 1.88184 16.0068 1.54395 16.0068C1.29004 16.0068 1.06836 15.9766 0.878906 15.916C0.689503 15.8555 0.530248 15.7715 0.401367 15.6641C0.274509 15.5547 0.177701 15.4296 0.111328 15.2891C0.0450161 15.1485 0.00780661 14.9989 0 14.8408H0.764648C0.778301 14.9169 0.80674 14.9884 0.849609 15.0547C0.892541 15.1191 0.949303 15.1758 1.01953 15.2246C1.08982 15.2734 1.17289 15.3115 1.26855 15.3389C1.36426 15.3662 1.4707 15.3799 1.58789 15.3799C1.75195 15.3799 1.88965 15.3564 2.00098 15.3096C2.11419 15.2627 2.19924 15.1982 2.25586 15.1162C2.31238 15.0323 2.34082 14.9354 2.34082 14.8262C2.34073 14.6877 2.28994 14.579 2.18848 14.501C2.08691 14.421 1.93249 14.3564 1.72559 14.3076L1.10742 14.1641C0.900426 14.1172 0.720683 14.0459 0.568359 13.9502C0.416101 13.8545 0.298797 13.7324 0.216797 13.584C0.134875 13.4356 0.09375 13.2606 0.09375 13.0596C0.0938174 12.8156 0.157294 12.6024 0.28418 12.4209C0.411119 12.2394 0.587022 12.0986 0.811523 11.999C1.0361 11.8995 1.29498 11.8496 1.58789 11.8496ZM14 4.5V14C14 15.1046 13.1046 16 12 16H8V15H12C12.5523 15 13 14.5523 13 14V4.5H11C10.1716 4.5 9.5 3.82843 9.5 3V1H4C3.44772 1 3 1.44772 3 2V11H2V2C2 0.89543 2.89543 0 4 0H9.5L14 4.5ZM4.30859 13.5576H5.99023V11.9316H6.78125V15.9307H5.99023V14.2168H4.30859V15.9307H3.51758V11.9316H4.30859V13.5576Z" fill="currentColor"/>
</svg>
