<svg width="16" height="17" viewBox="0 0 16 17" fill="none" xmlns="http://www.w3.org/2000/svg">
<path d="M1.67871 11.8555C1.89741 11.8555 2.09964 11.8877 2.28516 11.9521C2.47257 12.0146 2.63578 12.1055 2.77441 12.2246C2.913 12.3437 3.02247 12.4845 3.10254 12.6465C3.18452 12.8085 3.23043 12.9894 3.24023 13.1885V13.2617H2.47559C2.46383 13.1193 2.42377 12.9921 2.35547 12.8809C2.28908 12.7697 2.19814 12.6826 2.08301 12.6201C1.96781 12.5557 1.83489 12.5234 1.68457 12.5234C1.50106 12.5234 1.34274 12.5694 1.20996 12.6611C1.07919 12.7529 0.978509 12.8859 0.908203 13.0596C0.839879 13.2333 0.8057 13.4445 0.805664 13.6924V14.1875C0.805664 14.4334 0.839933 14.6426 0.908203 14.8145C0.976531 14.9862 1.07626 15.1172 1.20703 15.207C1.33984 15.2949 1.49902 15.3389 1.68457 15.3389C1.83691 15.3389 1.9707 15.3096 2.08594 15.251C2.2011 15.1904 2.29202 15.1074 2.3584 15.002C2.4247 14.8965 2.46388 14.7753 2.47559 14.6387H3.24023V14.7148C3.22657 14.9686 3.15125 15.1934 3.01465 15.3887C2.87796 15.582 2.69427 15.7334 2.46387 15.8428C2.2334 15.9521 1.97168 16.0068 1.67871 16.0068C1.31934 16.0068 1.01465 15.9346 0.764648 15.79C0.514732 15.6436 0.324189 15.4345 0.193359 15.1631C0.0645536 14.8917 0 14.5663 0 14.1875V13.6895C4.478e-05 13.3107 0.0654745 12.9843 0.196289 12.7109C0.327144 12.4377 0.517675 12.2265 0.767578 12.0781C1.0195 11.9298 1.32332 11.8555 1.67871 11.8555ZM5.10547 11.8496C5.41007 11.8496 5.66997 11.9004 5.88477 12.002C6.10148 12.1035 6.26856 12.2403 6.38574 12.4121C6.50481 12.5819 6.57123 12.7707 6.58496 12.9775H5.83496C5.81735 12.882 5.77727 12.7958 5.71484 12.7197C5.65431 12.6436 5.57219 12.583 5.46875 12.5381C5.36528 12.4932 5.2421 12.4707 5.09961 12.4707C4.88299 12.4707 4.71189 12.5217 4.58691 12.623C4.46397 12.7226 4.40245 12.8508 4.40234 13.0068C4.40234 13.1279 4.45024 13.2275 4.5459 13.3057C4.6416 13.3838 4.77637 13.4424 4.9502 13.4814L5.57129 13.625C5.78803 13.6738 5.97659 13.7442 6.13672 13.8359C6.2968 13.9257 6.42188 14.045 6.51172 14.1934C6.60151 14.3417 6.64643 14.5285 6.64648 14.7529C6.64648 15.0008 6.58383 15.2198 6.45898 15.4092C6.33599 15.5966 6.1561 15.7432 5.91992 15.8486C5.68559 15.9541 5.39933 16.0068 5.06152 16.0068C4.80765 16.0068 4.58592 15.9765 4.39648 15.916C4.20703 15.8555 4.04785 15.7715 3.91895 15.6641C3.79203 15.5547 3.6953 15.4297 3.62891 15.2891C3.56257 15.1485 3.52539 14.9989 3.51758 14.8408H4.28223C4.29589 14.9169 4.32429 14.9883 4.36719 15.0547C4.41015 15.1191 4.46682 15.1758 4.53711 15.2246C4.60742 15.2734 4.69043 15.3115 4.78613 15.3389C4.88182 15.3662 4.98831 15.3799 5.10547 15.3799C5.26945 15.3799 5.40727 15.3564 5.51855 15.3096C5.63168 15.2627 5.71685 15.1982 5.77344 15.1162C5.82992 15.0323 5.8584 14.9354 5.8584 14.8262C5.8583 14.6877 5.80752 14.579 5.70605 14.501C5.60451 14.4209 5.4501 14.3564 5.24316 14.3076L4.625 14.1641C4.41797 14.1172 4.23828 14.0459 4.08594 13.9502C3.93361 13.8545 3.8164 13.7324 3.73438 13.584C3.65242 13.4356 3.61133 13.2606 3.61133 13.0596C3.6114 12.8156 3.67487 12.6024 3.80176 12.4209C3.92869 12.2394 4.10464 12.0986 4.3291 11.999C4.55364 11.8995 4.81263 11.8496 5.10547 11.8496ZM14 4.5V14C14 15.1046 13.1046 16 12 16H11V15H12C12.5523 15 13 14.5523 13 14V4.5H11C10.1716 4.5 9.5 3.82843 9.5 3V1H4C3.44772 1 3 1.44772 3 2V11H2V2C2 0.89543 2.89543 0 4 0H9.5L14 4.5ZM8.56738 15.0693H8.60547L9.49316 11.9316H10.3721L9.04492 15.9307H8.09277L6.75391 11.9316H7.6709L8.56738 15.0693Z" fill="currentColor"/>
</svg>
