<svg width="16" height="16" viewBox="0 0 16 16" fill="none" xmlns="http://www.w3.org/2000/svg">
<path d="M14 4.5V14C14 15.1046 13.1046 16 12 16H11V15H12C12.5523 15 13 14.5523 13 14V4.5H11C10.1716 4.5 9.5 3.82843 9.5 3V1H4C3.44772 1 3 1.44772 3 2V11H2V2C2 0.89543 2.89543 0 4 0H9.5L14 4.5ZM1.59961 11.8496C1.88859 11.8496 2.13284 11.9092 2.33203 12.0283C2.5331 12.1454 2.68653 12.3048 2.79199 12.5059C2.89741 12.7069 2.95014 12.9328 2.9502 13.1826C2.9502 13.4325 2.89637 13.6583 2.78906 13.8594C2.68362 14.0585 2.52921 14.2168 2.32617 14.334C2.125 14.4492 1.88086 14.5068 1.59375 14.5068H0.791016V15.8486H0V11.8496H1.59961ZM4.82129 11.8496C5.22744 11.8496 5.56255 11.9278 5.82617 12.084C6.08977 12.2402 6.28613 12.4669 6.41504 12.7637C6.54586 13.0605 6.61129 13.4191 6.61133 13.8389C6.61133 14.2606 6.54578 14.6222 6.41504 14.9229C6.28423 15.2235 6.08578 15.4531 5.82031 15.6113C5.55668 15.7695 5.22355 15.8486 4.82129 15.8486H3.3623V11.8496H4.82129ZM9.6543 12.5029H7.89648V13.6191H9.50195V14.2578H7.89648V15.8486H7.10547V11.8496H9.6543V12.5029ZM4.15332 15.2012H4.71582C4.90128 15.2012 5.06255 15.1738 5.19922 15.1191C5.3358 15.0625 5.44733 14.9784 5.5332 14.8672C5.62096 14.754 5.68657 14.6131 5.72949 14.4453C5.77434 14.2774 5.79688 14.0799 5.79688 13.8535C5.79684 13.5529 5.75778 13.3017 5.67969 13.1006C5.60351 12.8996 5.48528 12.748 5.3252 12.6465C5.16704 12.545 4.96376 12.4942 4.71582 12.4941H4.15332V15.2012ZM0.788086 13.8857H1.44727C1.59375 13.8857 1.71875 13.8584 1.82227 13.8037C1.9257 13.7471 2.00491 13.6669 2.05957 13.5635C2.1161 13.4581 2.14453 13.3309 2.14453 13.1826C2.14446 12.9562 2.08294 12.7822 1.95996 12.6611C1.83693 12.5402 1.6659 12.4795 1.44727 12.4795H0.788086V13.8857Z" fill="currentColor"/>
</svg>
