<svg width="16" height="16" viewBox="0 0 16 16" fill="none" xmlns="http://www.w3.org/2000/svg">
<path d="M14 4.5V14C14 15.1046 13.1046 16 12 16V15C12.5523 15 13 14.5523 13 14V4.5H11C10.1716 4.5 9.5 3.82843 9.5 3V1H4C3.44772 1 3 1.44772 3 2V11H2V2C2 0.89543 2.89543 0 4 0H9.5L14 4.5ZM1.59668 11.8496C1.89348 11.8496 2.14652 11.9024 2.35547 12.0078C2.56434 12.1113 2.72364 12.258 2.83301 12.4473C2.94428 12.6366 2.99994 12.8595 3 13.1152C3 13.3104 2.96474 13.4845 2.89453 13.6367C2.82426 13.787 2.73331 13.9131 2.62207 14.0146C2.51078 14.1142 2.39448 14.1885 2.27344 14.2373L3.05566 15.8086L4.38477 11.8496H5.31055L6.64648 15.8486H5.80566L5.49219 14.8203H4.15625L3.84277 15.8486H2.19141L1.49121 14.3574H0.782227V15.8486H0V11.8496H1.59668ZM7.78223 14.7529H7.82031L8.52637 11.8496H9.20898L9.91504 14.7529H9.95605L10.5508 11.8496H11.4092L10.3545 15.8486H9.625L8.88379 13.0596H8.85156L8.11035 15.8486H7.38086L6.32617 11.8496H7.18164L7.78223 14.7529ZM4.32031 14.2314H5.33398L4.84473 12.6143H4.80957L4.32031 14.2314ZM0.782227 13.7627H1.4707C1.68945 13.7627 1.8623 13.71 1.98926 13.6045C2.11803 13.499 2.18262 13.3407 2.18262 13.1299C2.18254 12.9172 2.11808 12.7538 1.98926 12.6406C1.86038 12.5275 1.6913 12.4707 1.48242 12.4707H0.782227V13.7627Z" fill="currentColor"/>
</svg>
