<svg width="16" height="16" viewBox="0 0 16 16" fill="none" xmlns="http://www.w3.org/2000/svg">
<path d="M10.3039 3.12938C10.9227 3.00562 11.5 3.47891 11.5 4.10996V5.90996L9 6.40996V11.5001C9 11.9954 8.69885 12.3827 8.33801 12.6232C7.97368 12.8661 7.49916 13.0001 7 13.0001C6.50084 13.0001 6.02632 12.8661 5.66199 12.6232C5.30115 12.3827 5 11.9954 5 11.5001C5 11.0048 5.30115 10.6175 5.66199 10.377C6.02632 10.1341 6.50084 10.0001 7 10.0001C7.35625 10.0001 7.69995 10.0683 8 10.1957V4.40996C8 3.93328 8.33646 3.52286 8.80388 3.42938L10.3039 3.12938Z" fill="currentColor"/>
<path d="M4 0C2.89543 0 2 0.89543 2 2V14C2 15.1046 2.89543 16 4 16H12C13.1046 16 14 15.1046 14 14V2C14 0.89543 13.1046 0 12 0H4ZM4 1H12C12.5523 1 13 1.44772 13 2V14C13 14.5523 12.5523 15 12 15H4C3.44772 15 3 14.5523 3 14V2C3 1.44772 3.44772 1 4 1Z" fill="currentColor"/>
</svg>
