<svg width="16" height="16" viewBox="0 0 16 16" fill="none" xmlns="http://www.w3.org/2000/svg">
<path d="M14.3536 9.14645C14.5488 9.34171 14.5488 9.65829 14.3536 9.85355L11.3536 12.8536C11.2598 12.9473 11.1326 13 11 13C10.8674 13 10.7402 12.9473 10.6464 12.8536L9.14645 11.3536C8.95118 11.1583 8.95118 10.8417 9.14645 10.6464C9.34171 10.4512 9.65829 10.4512 9.85355 10.6464L11 11.7929L13.6464 9.14645C13.8417 8.95118 14.1583 8.95118 14.3536 9.14645Z" fill="currentColor"/>
<path d="M14 1C14.2761 1 14.5 1.22386 14.5 1.5V3.5C14.5 3.62352 14.4547 3.74315 14.3721 3.83496L10 8.69141V10H9V8.5C9 8.37648 9.0453 8.25685 9.12793 8.16504L13.5 3.30859V2H2.5V3.30859L6.87207 8.16504C6.9547 8.25685 7 8.37648 7 8.5V13.8066L9 13.1396V13H10V13.5C10 13.7152 9.86237 13.9066 9.6582 13.9746L6.6582 14.9746C6.50576 15.0254 6.33838 14.9992 6.20801 14.9053C6.07762 14.8113 6 14.6607 6 14.5V8.69141L1.62793 3.83496C1.5453 3.74315 1.5 3.62352 1.5 3.5V1.5C1.5 1.22386 1.72386 1 2 1H14Z" fill="currentColor"/>
</svg>
