<svg width="16" height="16" viewBox="0 0 16 16" fill="none" xmlns="http://www.w3.org/2000/svg">
<path d="M11.4236 8C11.861 7.94828 12.2354 7.86406 12.4641 7.73205C13.4206 7.17976 13.7484 5.95658 13.1961 5C12.6438 4.04341 11.4206 3.71566 10.4641 4.26794C10.2354 4.39996 9.97526 4.68211 9.71176 5.03507C9.88568 4.63039 9.99996 4.26403 9.99996 4C9.99996 2.89543 9.10453 2 7.99996 2C6.89539 2 5.99996 2.89543 5.99996 4C5.99996 4.26403 6.11423 4.63039 6.28816 5.03507C6.02465 4.68211 5.76452 4.39996 5.53586 4.26794C4.57927 3.71566 3.35609 4.04341 2.80381 4.99999C2.25152 5.95658 2.57927 7.17976 3.53586 7.73205C3.76452 7.86406 4.13894 7.94828 4.57636 8C4.13894 8.05172 3.76452 8.13593 3.53586 8.26794C2.57927 8.82023 2.25152 10.0434 2.80381 11C3.35609 11.9566 4.57927 12.2843 5.53586 11.732C5.76452 11.6 6.02466 11.3179 6.28817 10.9649C6.11424 11.3696 5.99996 11.736 5.99996 12C5.99996 13.1046 6.89539 14 7.99996 14C9.10453 14 9.99996 13.1046 9.99996 12C9.99996 11.736 9.88568 11.3696 9.71175 10.9649C9.97526 11.3179 10.2354 11.6 10.4641 11.732C11.4206 12.2843 12.6438 11.9566 13.1961 11C13.7484 10.0434 13.4206 8.82023 12.4641 8.26794C12.2354 8.13593 11.861 8.05172 11.4236 8ZM8.99996 4C8.99983 4.00226 8.99896 4.01826 8.99312 4.05085C8.9863 4.08902 8.97436 4.14022 8.95509 4.20536C8.91609 4.33722 8.855 4.49965 8.77192 4.68876C8.60555 5.06743 8.37596 5.49699 8.13496 5.91243C8.08988 5.99016 8.04474 6.06679 7.99996 6.14185C7.95518 6.06679 7.91004 5.99016 7.86495 5.91243C7.62396 5.49699 7.39436 5.06743 7.228 4.68876C7.14491 4.49965 7.08383 4.33722 7.04482 4.20536C7.02556 4.14022 7.01362 4.08902 7.00679 4.05085C7.00096 4.01826 7.00008 4.00175 6.99996 3.99941C6.99996 3.44713 7.44767 3 7.99996 3C8.55224 3 8.99996 3.44772 8.99996 4ZM3.66983 5.49999C3.94597 5.0217 4.5573 4.8577 5.0356 5.13384C5.03756 5.13512 5.05118 5.14397 5.07648 5.16531C5.10612 5.19031 5.14449 5.22625 5.19127 5.27551C5.28596 5.37521 5.39609 5.50933 5.51832 5.67584C5.76308 6.00925 6.02029 6.42286 6.25958 6.83929C6.30434 6.9172 6.34814 6.99461 6.39075 7.07092C6.30336 7.07217 6.21442 7.07294 6.12457 7.07313C5.64429 7.07412 5.15748 7.05817 4.74636 7.01291C4.54104 6.99031 4.36983 6.962 4.23614 6.92984C4.17009 6.91396 4.11978 6.8987 4.08331 6.88553C4.0522 6.87429 4.03789 6.86705 4.03586 6.86602C3.55756 6.58988 3.39369 5.97829 3.66983 5.49999ZM5.03586 10.866C4.55756 11.1422 3.94597 10.9783 3.66983 10.5C3.39369 10.0217 3.55706 9.41041 4.03535 9.13426C4.03747 9.13319 4.05222 9.12569 4.08331 9.11446C4.11978 9.10129 4.17009 9.08603 4.23614 9.07014C4.36983 9.03799 4.54104 9.00968 4.74636 8.98708C5.15748 8.94182 5.64429 8.92587 6.12457 8.92686C6.21442 8.92705 6.30336 8.92782 6.39075 8.92907C6.34814 9.00538 6.30434 9.08279 6.25958 9.1607C6.02029 9.57713 5.76308 9.99074 5.51832 10.3242C5.39609 10.4907 5.28596 10.6248 5.19127 10.7245C5.14449 10.7737 5.10612 10.8097 5.07648 10.8347C5.05118 10.856 5.03776 10.8648 5.03586 10.866C5.03585 10.866 5.03569 10.8661 5.03586 10.866ZM8.99996 12C8.99996 12.5523 8.55224 13 7.99996 13C7.44767 13 6.99996 12.5529 6.99996 12.0006C7.00008 11.9983 7.00096 11.9817 7.00679 11.9492C7.01362 11.911 7.02556 11.8598 7.04482 11.7946C7.08383 11.6628 7.14491 11.5004 7.228 11.3112C7.39436 10.9326 7.62396 10.503 7.86495 10.0876C7.91004 10.0098 7.95518 9.93321 7.99996 9.85815C8.04474 9.93321 8.08988 10.0098 8.13496 10.0876C8.37596 10.503 8.60555 10.9326 8.77192 11.3112C8.855 11.5004 8.91609 11.6628 8.95509 11.7946C8.97436 11.8598 8.9863 11.911 8.99312 11.9492C8.99895 11.9817 8.99983 11.9977 8.99996 12ZM12.3301 5.5C12.6062 5.97829 12.4424 6.58988 11.9641 6.86602C11.962 6.86705 11.9477 6.87429 11.9166 6.88553C11.8801 6.8987 11.8298 6.91396 11.7638 6.92985C11.6301 6.962 11.4589 6.99031 11.2536 7.01291C10.8424 7.05817 10.3556 7.07412 9.87535 7.07313C9.78549 7.07295 9.69656 7.07217 9.60916 7.07092C9.65178 6.99461 9.69558 6.9172 9.74034 6.8393C9.97963 6.42286 10.2368 6.00925 10.4816 5.67584C10.6038 5.50933 10.714 5.37521 10.8086 5.27551C10.8554 5.22625 10.8938 5.19031 10.9234 5.16531C10.9488 5.14396 10.9624 5.13511 10.9643 5.13384C11.4426 4.8577 12.0539 5.0217 12.3301 5.5ZM10.9641 10.866C10.9622 10.8648 10.9487 10.856 10.9234 10.8347C10.8938 10.8097 10.8554 10.7737 10.8086 10.7245C10.714 10.6248 10.6038 10.4907 10.4816 10.3242C10.2368 9.99074 9.97963 9.57713 9.74034 9.1607C9.69558 9.08279 9.65178 9.00538 9.60916 8.92907C9.69656 8.92782 9.78549 8.92705 9.87535 8.92686C10.3556 8.92587 10.8424 8.94182 11.2536 8.98708C11.4589 9.00968 11.6301 9.03799 11.7638 9.07014C11.8298 9.08603 11.8801 9.10129 11.9166 9.11446C11.9477 9.12571 11.9625 9.1332 11.9646 9.13426C12.4429 9.41041 12.6062 10.0217 12.3301 10.5C12.0539 10.9783 11.4424 11.1422 10.9641 10.866ZM8 9C7.44772 9 7 8.55229 7 8C7 7.44772 7.44772 7 8 7C8.55229 7 9 7.44772 9 8C9 8.55229 8.55229 9 8 9Z" fill="currentColor"/>
</svg>
