<svg width="16" height="16" viewBox="0 0 16 16" fill="none" xmlns="http://www.w3.org/2000/svg">
<path fill-rule="evenodd" clip-rule="evenodd" d="M12.2002 2C13.1939 2.00022 13.9998 2.80606 14 3.7998V12.2002C13.9998 13.1939 13.1939 13.9998 12.2002 14H3.7998C2.80606 13.9998 2.00022 13.1939 2 12.2002V3.7998C2.00022 2.80606 2.80606 2.00022 3.7998 2H12.2002ZM7 13H12.2002C12.5312 12.9998 12.9998 12.5312 13 12.2002V3.7998C12.9998 3.46877 12.5312 3.00022 12.2002 3H7V13ZM3.7998 3C3.46877 3.00022 3.00022 3.46877 3 3.7998V12.2002C3.00022 12.5312 3.46877 12.9998 3.7998 13H6V3H3.7998Z" fill="currentColor"/>
</svg>
