<svg width="16" height="16" viewBox="0 0 16 16" fill="none" xmlns="http://www.w3.org/2000/svg">
<path d="M10.4947 6.91924L11.7729 6.30142C12.0756 6.15514 12.1403 5.75225 11.8986 5.51862C11.6466 5.27507 11.2171 5.38014 10.9672 5.62572C10.7371 5.8518 10.4536 5.99942 10.1514 6.15681L10.0486 6.21049C9.71103 6.38778 9.7849 6.83607 10.1499 6.94634C10.2642 6.98085 10.3872 6.97118 10.4947 6.91924Z" fill="currentColor"/>
<path d="M7.74139 9.8077V9.78011C7.74139 9.611 7.84456 9.459 8.00172 9.39657C8.35308 9.25699 8.69157 9.62404 8.52405 9.96297L8.30493 10.4063C8.27429 10.4683 8.23322 10.5246 8.18351 10.5726L7.99125 10.7585C7.8519 10.8932 7.63087 10.8932 7.49153 10.7585C7.34535 10.6172 7.34535 10.3828 7.49153 10.2415L7.60313 10.1336C7.69149 10.0482 7.74139 9.93059 7.74139 9.8077Z" fill="currentColor"/>
<path d="M5.6724 12.5L6.15361 12.7326C6.40961 12.8563 6.70689 12.6698 6.70689 12.3855C6.70689 12.1726 6.53429 12 6.32138 12H5.90459C5.75382 12 5.60707 11.9514 5.48609 11.8615L5.20911 11.6555C5.08899 11.5662 4.92156 11.5784 4.81572 11.6843C4.66462 11.8354 4.71415 12.0913 4.91071 12.1752L5.6724 12.5Z" fill="currentColor"/>
<path d="M8 0C3.58172 0 0 3.58172 0 8C0 12.4183 3.58172 16 8 16C12.4183 16 16 12.4183 16 8C16 3.58172 12.4183 0 8 0ZM1.61228 10.8673L2.3675 9.57898C2.69169 9.02594 3.4452 8.91648 3.91335 9.35443L4.98736 10.3591C5.37115 10.7182 5.96902 10.7133 6.34688 10.348L6.38493 10.3112C6.58729 10.1156 6.68417 9.8352 6.64571 9.5564C6.57008 9.00808 7.01478 8.52261 7.56443 8.45735C8.29297 8.37084 9.15188 8.13322 9.2931 7.5C9.37918 7.11404 9.17864 6.67075 8.93185 6.29975C8.72451 5.98806 8.93171 5.5 9.30607 5.5C9.4289 5.5 9.54533 5.44522 9.62364 5.3506L10.0168 4.87554C10.213 4.63851 10.508 4.50846 10.8136 4.47309C11.368 4.40892 12.2208 4.19639 12.3966 3.5C12.4953 3.10853 12.2054 2.86573 11.9129 2.62081C11.6587 2.40799 11.4026 2.19358 11.3981 1.87864C13.5465 3.0738 15 5.36715 15 8C15 8.54 14.9389 9.06572 14.8231 9.57061C14.7954 9.54826 14.7663 9.52719 14.7358 9.50752L14.4199 9.30396C14.127 9.11517 13.7569 9.09252 13.4431 9.24418L13.2744 9.3257C13.0429 9.43758 12.7773 9.45601 12.5326 9.37716L11.5116 9.04819C11.4125 9.01626 11.3091 9 11.2049 9H11.0405C10.6139 9 10.2342 9.27068 10.0952 9.67401L9.92315 10.1729C9.85007 10.3848 9.70791 10.566 9.51948 10.6874L8.71692 11.2047C8.43124 11.3888 8.25862 11.7054 8.25862 12.0452V12.5C8.25862 13.0523 8.70634 13.5 9.25862 13.5H9.51603C9.70817 13.5 9.89623 13.5554 10.0577 13.6594L10.8204 14.1509C10.9091 14.2081 11.0046 14.2499 11.1032 14.2763C10.168 14.7396 9.11441 15 8 15C5.15566 15 2.70756 13.3036 1.61228 10.8673Z" fill="currentColor"/>
</svg>
