<svg width="16" height="16" viewBox="0 0 16 16" fill="none" xmlns="http://www.w3.org/2000/svg">
<path fill-rule="evenodd" clip-rule="evenodd" d="M1 11.5833C1 11.2612 1.26117 11 1.58333 11H14.4167C14.7388 11 15 11.2612 15 11.5833C15 11.9055 14.7388 12.1667 14.4167 12.1667H1.58333C1.26117 12.1667 1 11.9055 1 11.5833Z" fill="currentColor"/>
<path fill-rule="evenodd" clip-rule="evenodd" d="M1 8.08333C1 7.76117 1.26117 7.5 1.58333 7.5H14.4167C14.7388 7.5 15 7.76117 15 8.08333C15 8.4055 14.7388 8.66667 14.4167 8.66667H1.58333C1.26117 8.66667 1 8.4055 1 8.08333Z" fill="currentColor"/>
<path fill-rule="evenodd" clip-rule="evenodd" d="M1 4.58333C1 4.26117 1.26117 4 1.58333 4H14.4167C14.7388 4 15 4.26117 15 4.58333C15 4.9055 14.7388 5.16667 14.4167 5.16667H1.58333C1.26117 5.16667 1 4.9055 1 4.58333Z" fill="currentColor"/>
</svg>
