<svg width="16" height="16" viewBox="0 0 16 16" fill="none" xmlns="http://www.w3.org/2000/svg">
<path d="M7.99998 1C9.10455 1 9.99998 1.89543 9.99998 3V5H5.99998V3C5.99998 1.89543 6.89541 1 7.99998 1ZM11 5V3C11 1.34315 9.65683 0 7.99998 0C6.34313 0 4.99998 1.34315 4.99998 3V5H3.36117C2.61867 5 1.9879 5.54321 1.87776 6.27749L0.85001 13.1291C0.623284 14.6407 1.79393 16 3.32235 16H12.6776C14.206 16 15.3767 14.6407 15.15 13.1291L14.1222 6.27749C14.0121 5.54321 13.3813 5 12.6388 5H11ZM9.99998 6V7.5C9.99998 7.77614 10.2239 8 10.5 8C10.7761 8 11 7.77614 11 7.5V6H12.6388C12.8863 6 13.0966 6.18107 13.1333 6.42583L14.161 13.2775C14.2971 14.1844 13.5947 15 12.6776 15H3.32235C2.4053 15 1.70291 14.1844 1.83895 13.2775L2.8667 6.42583C2.90341 6.18107 3.11367 6 3.36117 6H4.99998V7.5C4.99998 7.77614 5.22384 8 5.49998 8C5.77612 8 5.99998 7.77614 5.99998 7.5V6H9.99998Z" fill="currentColor"/>
</svg>
