<svg width="16" height="16" viewBox="0 0 16 16" fill="none" xmlns="http://www.w3.org/2000/svg">
<path d="M6.75001 1C7.16422 1 7.50001 1.33579 7.50001 1.75V8C7.50001 8.27614 7.72387 8.5 8.00001 8.5C8.27615 8.5 8.50001 8.27614 8.50001 8V5.46674C8.52814 5.46541 8.55699 5.46415 8.58637 5.46301C8.90279 5.45071 9.22298 5.4545 9.40195 5.49029C9.53627 5.51715 9.69578 5.58594 9.85048 5.67194C9.92675 5.71435 10 5.8192 10 5.98588V8C10 8.27614 10.2239 8.5 10.5 8.5C10.7761 8.5 11 8.27614 11 8V6.43467C11.0342 6.43126 11.0695 6.42808 11.1057 6.42527C11.4217 6.40071 11.6896 6.41437 11.8143 6.46424C11.9322 6.51141 12.1135 6.6719 12.2998 6.8943C12.381 6.99128 12.4502 7.08409 12.5 7.15404V8.5C12.5 8.77614 12.7239 9 13 9C13.2761 9 13.5 8.77614 13.5 8.5V7.5H13.8425C14.4341 7.5 14.8964 8.01082 14.8376 8.5995L14.566 11.3148C14.5311 11.6639 14.4231 12.0018 14.249 12.3064L12.8538 14.7481C12.7648 14.9039 12.5991 15 12.4197 15H6.03519C5.86802 15 5.7119 14.9164 5.61917 14.7774L4.18596 12.6275C4.05294 12.428 3.9697 12.1995 3.94321 11.9611L3.5982 8.85599C3.56956 8.59823 3.74276 8.36135 3.99708 8.31049L5.00001 8.1099V9C5.00001 9.27614 5.22387 9.5 5.50001 9.5C5.77615 9.5 6.00001 9.27614 6.00001 9V1.75C6.00001 1.33579 6.3358 1 6.75001 1ZM8.50001 4.46572V1.75C8.50001 0.783502 7.71651 0 6.75001 0C5.78351 0 5.00001 0.783501 5.00001 1.75V7.0901L3.80097 7.32991C3.03801 7.4825 2.51839 8.19312 2.60431 8.96642L2.94933 12.0716C2.99347 12.4688 3.13221 12.8497 3.35391 13.1822L4.78712 15.3321C5.06532 15.7493 5.53366 16 6.03519 16H12.4197C12.958 16 13.455 15.7116 13.722 15.2442L15.1173 12.8025C15.361 12.3761 15.5122 11.9031 15.5611 11.4143L15.8326 8.69901C15.9503 7.52164 15.0258 6.5 13.8425 6.5H13.261C13.2071 6.42702 13.1412 6.34155 13.0663 6.25214C12.8747 6.02336 12.5559 5.68385 12.1857 5.53576C11.8222 5.39037 11.3402 5.40403 11.0282 5.42828C10.9826 5.43183 10.9382 5.43584 10.8956 5.44012C10.7922 5.18252 10.6095 4.94975 10.3364 4.79793C10.1415 4.6896 9.87813 4.56572 9.59807 4.50971C9.28888 4.44787 8.85908 4.45166 8.54753 4.46377C8.53153 4.46439 8.51568 4.46504 8.50001 4.46572ZM10.5944 6.49101C10.5943 6.49102 10.5943 6.49102 10.5944 6.49101V6.49101Z" fill="currentColor"/>
</svg>
