<svg width="16" height="16" viewBox="0 0 16 16" fill="none" xmlns="http://www.w3.org/2000/svg">
<path d="M8 2.74805L7.28325 2.01133C5.5989 0.280067 2.51415 0.877695 1.40036 3.05284C0.917771 3.9953 0.779812 5.32279 1.50826 7H0.430244C-1.69803 1.30285 4.5945 -1.82979 7.82432 1.14308C7.88395 1.19797 7.94253 1.25493 8 1.314C8.05747 1.25494 8.11605 1.19797 8.17567 1.14309C11.4055 -1.8298 17.698 1.30285 15.5698 7H14.4917C15.2202 5.32279 15.0822 3.9953 14.5996 3.05284C13.4859 0.877695 10.4011 0.280067 8.71675 2.01133L8 2.74805Z" fill="currentColor"/>
<path d="M2.21207 10H3.52694C4.59307 11.1833 6.05134 12.4579 8.00001 13.7946C9.94869 12.4579 11.4069 11.1833 12.4731 10H13.7879C12.5227 11.5665 10.6483 13.2501 8.00001 15C5.35169 13.2501 3.47736 11.5665 2.21207 10Z" fill="currentColor"/>
<path d="M10.4642 3.31431C10.3848 3.1158 10.188 2.98974 9.97446 3.00066C9.76093 3.01158 9.57798 3.15707 9.51924 3.36265L7.92104 8.95633L6.46424 5.31431C6.39528 5.14192 6.23646 5.02193 6.05178 5.0027C5.8671 4.98347 5.68697 5.06817 5.58397 5.22266L3.73241 8.00001H0.5C0.223858 8.00001 0 8.22387 0 8.50001C0 8.77615 0.223858 9.00001 0.5 9.00001H4C4.16718 9.00001 4.32329 8.91646 4.41603 8.77736L5.88877 6.56824L7.53576 10.6857C7.61517 10.8842 7.81201 11.0103 8.02554 10.9993C8.23907 10.9884 8.42202 10.8429 8.48076 10.6374L10.079 5.04369L11.5358 8.68571C11.6117 8.87553 11.7955 9.00001 12 9.00001H15.5C15.7761 9.00001 16 8.77615 16 8.50001C16 8.22387 15.7761 8.00001 15.5 8.00001H12.3385L10.4642 3.31431Z" fill="currentColor"/>
</svg>
