<svg width="16" height="16" viewBox="0 0 16 16" fill="none" xmlns="http://www.w3.org/2000/svg">
<path d="M7.29288 1.49998C7.68341 1.10946 8.31657 1.10946 8.7071 1.49998L11 3.79287V2.49998C11 2.22384 11.2239 1.99998 11.5 1.99998H12.5C12.7761 1.99998 13 2.22384 13 2.49998V5.79286L15.3536 8.14642C15.5488 8.34168 15.5488 8.65826 15.3536 8.85352C15.1583 9.04879 14.8417 9.04879 14.6464 8.85352L7.99999 2.20709L3 7.20708V13.5C3 13.7761 3.22386 14 3.5 14H7.49999C7.77613 14 7.99999 14.2239 7.99999 14.5C7.99999 14.7761 7.77613 15 7.49999 15H3.5C2.67157 15 2 14.3284 2 13.5V8.20708L1.35355 8.85352C1.15829 9.04879 0.841708 9.04879 0.646446 8.85352C0.451184 8.65826 0.451184 8.34168 0.646446 8.14642L7.29288 1.49998Z" fill="currentColor"/>
<path d="M11.8855 9.45951C12.0661 8.84679 12.9339 8.84679 13.1145 9.45951L13.1583 9.60811C13.2737 9.99961 13.7209 10.1849 14.0793 9.9896L14.2154 9.9155C14.7763 9.60994 15.39 10.2237 15.0845 10.7846L15.0104 10.9207C14.8151 11.2791 15.0004 11.7263 15.3919 11.8417L15.5405 11.8855C16.1532 12.0661 16.1532 12.9339 15.5405 13.1145L15.3919 13.1583C15.0004 13.2737 14.8151 13.7209 15.0104 14.0793L15.0845 14.2154C15.39 14.7763 14.7763 15.39 14.2154 15.0845L14.0793 15.0104C13.7209 14.8151 13.2737 15.0004 13.1583 15.3919L13.1145 15.5405C12.9339 16.1532 12.0661 16.1532 11.8855 15.5405L11.8417 15.3919C11.7263 15.0004 11.2791 14.8151 10.9207 15.0104L10.7846 15.0845C10.2237 15.39 9.60996 14.7763 9.91552 14.2154L9.98962 14.0793C10.1849 13.7209 9.99963 13.2737 9.60813 13.1583L9.45953 13.1145C8.84681 12.9339 8.84681 12.0661 9.45953 11.8855L9.60813 11.8417C9.99963 11.7263 10.1849 11.2791 9.98962 10.9207L9.91552 10.7846C9.60996 10.2237 10.2237 9.60994 10.7846 9.9155L10.9207 9.9896C11.2791 10.1849 11.7263 9.99961 11.8417 9.60811L11.8855 9.45951ZM14 12.5C14 11.6716 13.3284 11 12.5 11C11.6716 11 11 11.6716 11 12.5C11 13.3284 11.6716 14 12.5 14C13.3284 14 14 13.3284 14 12.5Z" fill="currentColor"/>
</svg>
