<svg width="16" height="16" viewBox="0 0 16 16" fill="none" xmlns="http://www.w3.org/2000/svg">
<path d="M7.29289 1.49998C7.68342 1.10946 8.31658 1.10946 8.70711 1.49998L11 3.79287V2.49998C11 2.22384 11.2239 1.99998 11.5 1.99998H12.5C12.7761 1.99998 13 2.22384 13 2.49998V5.79287L15.3536 8.14643C15.5488 8.34169 15.5488 8.65827 15.3536 8.85353C15.1583 9.0488 14.8417 9.0488 14.6464 8.85353L8 2.20709L3 7.20709V13.5C3 13.7761 3.22386 14 3.5 14H7.5C7.77614 14 8 14.2239 8 14.5C8 14.7761 7.77614 15 7.5 15H3.5C2.67157 15 2 14.3284 2 13.5V8.20709L1.35355 8.85353C1.15829 9.0488 0.841709 9.0488 0.646447 8.85353C0.451184 8.65827 0.451184 8.34169 0.646447 8.14643L7.29289 1.49998Z" fill="currentColor"/>
<path d="M12.5 16C14.433 16 16 14.433 16 12.5C16 10.567 14.433 8.99998 12.5 8.99998C10.567 8.99998 9 10.567 9 12.5C9 14.433 10.567 16 12.5 16ZM12.8536 10.1464L14.3536 11.6464C14.5488 11.8417 14.5488 12.1583 14.3536 12.3536C14.1583 12.5488 13.8417 12.5488 13.6464 12.3536L13 11.7071V14.5C13 14.7761 12.7761 15 12.5 15C12.2239 15 12 14.7761 12 14.5V11.7071L11.3536 12.3536C11.1583 12.5488 10.8417 12.5488 10.6464 12.3536C10.4512 12.1583 10.4512 11.8417 10.6464 11.6464L12.1464 10.1464C12.2402 10.0527 12.3674 9.99998 12.5 9.99998C12.6326 9.99998 12.7598 10.0527 12.8536 10.1464Z" fill="currentColor"/>
</svg>
