<svg width="16" height="16" viewBox="0 0 16 16" fill="none" xmlns="http://www.w3.org/2000/svg">
<path d="M13.8789 10.414C12.9082 9.77092 11.5875 9.87698 10.7322 10.7322C9.87701 11.5875 9.77095 12.9082 10.414 13.8789L13.8789 10.414ZM14.586 11.1211L11.1211 14.586C12.0918 15.2291 13.4125 15.123 14.2678 14.2678C15.123 13.4125 15.2291 12.0918 14.586 11.1211ZM10.0251 10.0251C11.392 8.65827 13.608 8.65827 14.9749 10.0251C16.3417 11.392 16.3417 13.608 14.9749 14.9749C13.608 16.3417 11.392 16.3417 10.0251 14.9749C8.6583 13.608 8.6583 11.392 10.0251 10.0251Z" fill="currentColor"/>
<path d="M7.29289 1.49998C7.68342 1.10946 8.31658 1.10946 8.70711 1.49998L11 3.79287V2.49998C11 2.22384 11.2239 1.99998 11.5 1.99998H12.5C12.7761 1.99998 13 2.22384 13 2.49998V5.79287L15.3536 8.14643C15.5488 8.34169 15.5488 8.65827 15.3536 8.85353C15.1583 9.0488 14.8417 9.0488 14.6464 8.85353L8 2.20709L3 7.20709V13.5C3 13.7761 3.22386 14 3.5 14H7.5C7.77614 14 8 14.2239 8 14.5C8 14.7761 7.77614 15 7.5 15H3.5C2.67157 15 2 14.3284 2 13.5V8.20709L1.35355 8.85353C1.15829 9.0488 0.841709 9.0488 0.646447 8.85353C0.451184 8.65827 0.451184 8.34169 0.646447 8.14643L7.29289 1.49998Z" fill="currentColor"/>
</svg>
