<svg width="16" height="16" viewBox="0 0 16 16" fill="none" xmlns="http://www.w3.org/2000/svg">
<path d="M4.50154 8.99997C5.32997 8.99997 6.00153 8.3284 6.00153 7.49997C6.00153 6.67154 5.32997 5.99998 4.50154 5.99998C3.67311 5.99998 3.00154 6.67154 3.00154 7.49997C3.00154 8.3284 3.67311 8.99997 4.50154 8.99997Z" fill="currentColor"/>
<path d="M14.0015 13C14.0015 14.1045 13.1061 14.9999 12.0015 14.9999H2.00158C0.897014 14.9999 0.00158691 14.1045 0.00158691 13V4.99998C0.00158691 3.89592 0.896181 3.00082 2.00004 2.99999C2.00004 1.89542 2.89546 0.999996 4.00003 0.999996H14C15.1046 0.999996 16 1.89542 16 2.99999V11C16 12.1041 15.1054 12.9992 14.0015 13ZM14 1.99999H4.00003C3.44775 1.99999 3.00003 2.44771 3.00003 2.99999H12.0015C13.1061 2.99999 14.0015 3.89542 14.0015 4.99998V12C14.5531 11.9992 15 11.5518 15 11V2.99999C15 2.44771 14.5523 1.99999 14 1.99999ZM2.00158 3.99998C1.4493 3.99998 1.00158 4.4477 1.00158 4.99998V13L3.64802 10.6465C3.81655 10.4779 4.08061 10.4518 4.27892 10.584L6.93785 12.3566L10.648 8.64643C10.8002 8.49425 11.0327 8.45652 11.2251 8.55277L13.0015 10.5V4.99998C13.0015 4.4477 12.5538 3.99998 12.0015 3.99998H2.00158Z" fill="currentColor"/>
</svg>
