<svg width="17" height="16" viewBox="0 0 17 16" fill="none" xmlns="http://www.w3.org/2000/svg">
<path d="M7 2.5C7 3.88071 5.88071 5 4.5 5C3.11929 5 2 3.88071 2 2.5C2 1.11929 3.11929 0 4.5 0C5.88071 0 7 1.11929 7 2.5Z" fill="currentColor"/>
<path d="M11.2251 6.5528C11.0327 6.45655 10.8002 6.49428 10.648 6.64646L6.93785 11.3566L4.27891 8.58399C4.0806 8.45178 3.81654 8.47793 3.64801 8.64646L0.0015564 13V15C0.0015564 15.5523 0.449271 16 1.00156 16H15.0015C15.5538 16 16.0015 15.5523 16.0015 15V10.5L11.2251 6.5528Z" fill="currentColor"/>
</svg>
