<svg width="16" height="16" viewBox="0 0 16 16" fill="none" xmlns="http://www.w3.org/2000/svg">
<path d="M5.65332 9.00761C6.3484 9.07818 6.90192 9.62366 6.9873 10.3142C7.64773 10.1144 8.35125 10.1146 9.01172 10.3142C9.10325 9.57351 9.7345 8.99979 10.5 8.99979H14C14.2761 8.99979 14.4999 9.22376 14.5 9.49979C14.5 9.77594 14.2761 9.99979 14 9.99979H13.9131C13.9685 10.1563 14 10.3243 14 10.4998V11.4998C14 12.8805 12.8807 13.9998 11.5 13.9998C10.1193 13.9998 9 12.8805 9 11.4998V11.3601L8.79102 11.2908C8.27789 11.1197 7.72211 11.1197 7.20898 11.2908L7 11.3601V11.4998C7 12.8805 5.88071 13.9998 4.5 13.9998C3.11929 13.9998 2 12.8805 2 11.4998V10.4998C2.00003 10.3243 2.0315 10.1563 2.08691 9.99979H2C1.72386 9.99979 1.5 9.77594 1.5 9.49979C1.50013 9.22376 1.72394 8.99979 2 8.99979H5.5L5.65332 9.00761ZM3.5 9.99979C3.22394 9.99979 3.00013 10.2237 3 10.4998V11.4998C3 12.3282 3.67157 12.9998 4.5 12.9998C5.32843 12.9998 6 12.3282 6 11.4998V10.4998C5.99987 10.2237 5.77606 9.99979 5.5 9.99979H3.5ZM10.5 9.99979C10.2239 9.99979 10.0001 10.2237 10 10.4998V11.4998C10 12.3282 10.6716 12.9998 11.5 12.9998C12.3284 12.9998 13 12.3282 13 11.4998V10.4998C12.9999 10.2237 12.7761 9.99979 12.5 9.99979H10.5ZM10.0254 1.23319C10.5666 1.11848 11.118 1.43383 11.2637 1.96757L12.1553 5.2371C12.1607 5.25686 12.1638 5.27694 12.168 5.29667C13.886 5.56996 14.9996 6.0061 15 6.49979C15 7.32822 11.866 7.99979 8 7.99979C4.13401 7.99979 1 7.32822 1 6.49979C1.00037 6.00619 2.11361 5.56997 3.83105 5.29667C3.83521 5.27687 3.83932 5.25693 3.84473 5.2371L4.73633 1.96757C4.88197 1.43383 5.43339 1.11848 5.97461 1.23319C6.58852 1.36351 7.37962 1.49979 8 1.49979C8.62038 1.49979 9.41148 1.36351 10.0254 1.23319ZM5.02539 5.61112C4.88804 5.59714 4.76498 5.69741 4.75098 5.83475C4.73706 5.97206 4.8373 6.09517 4.97461 6.10917C5.8929 6.20265 6.91861 6.25468 8 6.25468C9.08139 6.25468 10.1071 6.20265 11.0254 6.10917C11.1627 6.09517 11.2629 5.97206 11.249 5.83475C11.235 5.69741 11.112 5.59714 10.9746 5.61112C10.0744 5.70276 9.06578 5.75468 8 5.75468C6.93422 5.75468 5.92559 5.70276 5.02539 5.61112Z" fill="currentColor"/>
</svg>
