<svg width="16" height="16" viewBox="0 0 16 16" fill="none" xmlns="http://www.w3.org/2000/svg">
<path d="M8 1.5C7.1775 1.5 6.5 2.1775 6.5 3C6.5 3.5625 6.8165 4.0565 7.2815 4.3125L5.812 7.25L3.515 5.6095C3.66851 5.46842 3.79092 5.2969 3.87443 5.10586C3.95794 4.91483 4.0007 4.70849 4 4.5C4 3.6775 3.3225 3 2.5 3C1.6775 3 1 3.6775 1 4.5C1 5.174 1.463 5.7345 2.078 5.922L3 11V13.5H13V11L13.922 5.922C14.537 5.7345 15 5.174 15 4.5C15 3.6775 14.3225 3 13.5 3C12.6775 3 12 3.6775 12 4.5C12 4.9355 12.1835 5.334 12.4845 5.6095L10.1875 7.25L8.7185 4.3125C8.95425 4.18362 9.15111 3.99387 9.28856 3.76302C9.42601 3.53217 9.49903 3.26867 9.5 3C9.5 2.1775 8.8225 1.5 8 1.5ZM8 2.5C8.2815 2.5 8.5 2.719 8.5 3C8.5 3.2815 8.281 3.5 8 3.5C7.7185 3.5 7.5 3.281 7.5 3C7.5 2.7185 7.719 2.5 8 2.5ZM2.5 4C2.7815 4 3 4.219 3 4.5C3 4.7815 2.781 5 2.5 5C2.2185 5 2 4.781 2 4.5C2 4.2185 2.219 4 2.5 4ZM13.5 4C13.7815 4 14 4.219 14 4.5C14 4.7815 13.781 5 13.5 5C13.2185 5 13 4.781 13 4.5C13 4.2185 13.219 4 13.5 4ZM8 5.125L9.547 8.219L10.297 8.4065L12.797 6.625L12.0935 10.5H3.9065L3.2035 6.625L5.7035 8.4065L6.4535 8.219L8 5.125ZM4 11.5H12V12.5H4V11.5Z" fill="currentColor"/>
</svg>
