<svg width="16" height="16" viewBox="0 0 16 16" fill="none" xmlns="http://www.w3.org/2000/svg">
<path d="M13.14 11.77C12.98 11.755 12.775 11.86 12.625 11.765C12.515 11.695 12.495 11.525 12.57 11.425C12.89 11.12 13.235 10.84 13.565 10.54C13.675 10.44 14.025 10.06 14.135 10.04C14.53 9.96502 14.47 10.395 14.505 10.655C14.56 11.1 14.655 11.6 14.685 12.045C14.7 12.285 14.675 12.47 14.38 12.435C14.235 12.415 14.025 12.125 13.92 12.02L13.88 12.005C13.36 12.755 12.645 13.415 11.875 13.905C7.89999 16.425 2.47499 14.41 1.24999 9.85002C0.0949927 5.55502 3.04999 1.33002 7.47499 1.02002C10.89 0.780022 14.045 2.98502 14.825 6.34002C14.9 6.66502 15.01 7.22502 15 7.55002C14.99 7.90502 14.395 7.99002 14.31 7.60002C14.27 7.40002 14.27 7.14502 14.24 6.93002C13.535 2.55002 8.49999 0.335022 4.72499 2.59002C0.299992 5.23002 0.834992 11.835 5.56999 13.795C8.12999 14.855 11.335 14.16 13.04 11.93C13.055 11.91 13.155 11.785 13.14 11.775V11.77Z" fill="currentColor"/>
<path d="M9.34999 6.4C9.50999 6.445 9.90999 6.435 10.025 6.56C10.14 6.685 10.08 7.115 10.075 7.285C10.07 7.31 9.96499 7.43 9.93499 7.46C9.56499 7.885 9.10499 8.31 8.76499 8.75C8.52999 9.05 8.51999 9.325 8.69999 9.66C8.72499 9.705 8.84499 9.875 8.83999 9.895C8.73999 10.015 8.64499 10.11 8.47499 10.07L7.97499 9.725C7.93999 9.725 7.82999 9.8 7.78499 9.815C7.65999 9.865 7.51999 9.9 7.40999 9.965C7.40499 10.055 7.38999 10.15 7.36999 10.24C7.33499 10.42 7.32999 10.65 7.11499 10.695C6.80999 10.68 6.46499 10.725 6.15999 10.695C6.10999 10.695 6.04999 10.675 6.00999 10.65C5.86499 10.555 5.86499 10.115 5.79999 9.955C5.70999 9.91 5.60499 9.885 5.50999 9.845C5.42499 9.81 5.28999 9.7 5.20999 9.74C4.97999 9.845 4.77499 10.215 4.48999 10.01C4.35499 9.91 3.92999 9.48 3.81999 9.345C3.60499 9.07 3.98999 8.815 4.10999 8.575C4.07999 8.485 4.02499 8.405 3.98499 8.32C3.95999 8.255 3.91499 8.085 3.88999 8.05C3.87499 8.03 3.86999 8.03 3.84999 8.025C3.61999 7.935 3.18499 8.025 3.13499 7.7C3.10499 7.49 3.11499 6.995 3.13499 6.78C3.13499 6.725 3.14999 6.655 3.17499 6.605C3.26499 6.425 3.70499 6.46 3.87499 6.4L4.08499 5.885C4.09499 5.83 4.01999 5.76 3.98499 5.71C3.86499 5.525 3.64999 5.32 3.79999 5.105C3.87499 5 4.42499 4.455 4.52499 4.395C4.77499 4.25 5.02999 4.625 5.24499 4.72C5.42499 4.635 5.59999 4.55 5.79499 4.505C5.83499 4.345 5.85499 3.885 5.97999 3.79C6.00499 3.77 6.07499 3.74 6.10499 3.735C6.28999 3.705 6.85999 3.715 7.05999 3.735C7.40499 3.765 7.31999 4.25 7.40499 4.495L7.95499 4.725C8.21499 4.655 8.45499 4.21 8.73999 4.43C8.86499 4.525 9.32499 4.98 9.41499 5.105C9.61499 5.375 9.21499 5.635 9.12499 5.875C9.21499 6.045 9.28999 6.225 9.33999 6.41L9.34999 6.4ZM6.47499 5.45C5.63499 5.515 4.92999 6.18 4.84499 7.025C4.67999 8.63 6.45999 9.585 7.72999 8.61C9.10499 7.555 8.20499 5.32 6.47499 5.455V5.45Z" fill="currentColor"/>
<path d="M7.57 12.935C7.655 12.845 7.885 12.825 8.01 12.79C9.27999 12.405 10.17 11.27 10.395 9.97503C10.41 9.88002 10.455 9.67502 10.425 9.59002C10.38 9.44502 9.95 9.52502 9.83 9.52502C9.64499 9.52502 9.265 9.57502 9.165 9.40002C9.06999 9.23502 9.18999 9.11502 9.285 9.00002C9.575 8.64002 9.92999 8.29002 10.24 7.94502C10.55 7.60003 10.86 7.19502 11.185 6.86002C11.295 6.74503 11.385 6.66503 11.55 6.76003C12.255 7.51503 12.935 8.30502 13.625 9.07502C13.775 9.22502 13.715 9.48003 13.5 9.51003C13.21 9.55002 12.835 9.47503 12.545 9.51003C12.37 9.53003 12.41 9.73502 12.385 9.86502C12.06 11.735 10.645 13.025 8.77999 13.29C8.47999 13.335 8.025 13.375 7.725 13.34C7.525 13.32 7.42499 13.08 7.56 12.935H7.57Z" fill="currentColor"/>
</svg>
