<svg width="16" height="16" viewBox="0 0 16 16" fill="none" xmlns="http://www.w3.org/2000/svg">
<path d="M4.71492 6.54245L3.34316 7.91421C2.17159 9.08578 2.17159 10.9853 3.34316 12.1568C4.51473 13.3284 6.41423 13.3284 7.5858 12.1568L9.41423 10.3284C10.5858 9.15685 10.5858 7.25736 9.41423 6.08578C9.16629 5.83785 8.88575 5.64238 8.58641 5.49939L8.00001 6.08579C7.93903 6.14676 7.88758 6.21366 7.84565 6.28462C8.16108 6.375 8.45866 6.54443 8.70712 6.79289C9.48817 7.57394 9.48817 8.84027 8.70712 9.62132L6.8787 11.4497C6.09765 12.2308 4.83132 12.2308 4.05027 11.4497C3.26922 10.6687 3.26922 9.40237 4.05027 8.62132L4.84287 7.82871C4.73068 7.40859 4.68802 6.97376 4.71492 6.54245Z" fill="currentColor"/>
<path d="M6.58583 4.67158C5.41426 5.84315 5.41426 7.74265 6.58583 8.91422C6.83377 9.16216 7.11431 9.35762 7.41365 9.50062L8.18924 8.72503C7.8609 8.63734 7.55053 8.4647 7.29294 8.20712C6.51189 7.42607 6.51189 6.15975 7.29294 5.3787L9.12137 3.55026C9.90242 2.76921 11.1687 2.76921 11.9498 3.55026C12.7308 4.33132 12.7308 5.59765 11.9498 6.3787L11.1571 7.1713C11.2693 7.59142 11.312 8.02625 11.2851 8.45756L12.6569 7.08579C13.8284 5.91423 13.8284 4.01473 12.6569 2.84316C11.4853 1.67159 9.58583 1.67159 8.41426 2.84316L6.58583 4.67158Z" fill="currentColor"/>
</svg>
