<svg width="16" height="16" viewBox="0 0 16 16" fill="none" xmlns="http://www.w3.org/2000/svg">
<path d="M8.42676 11C8.74333 11 8.99995 11.2567 9 11.5732V12.4268C8.99995 12.7433 8.74333 13 8.42676 13H7.57324C7.25667 13 7.00005 12.7433 7 12.4268V11.5732C7.00005 11.2567 7.25667 11 7.57324 11H8.42676Z" fill="currentColor"/>
<path d="M9 10H7V5H9V10Z" fill="currentColor"/>
<path fill-rule="evenodd" clip-rule="evenodd" d="M6 2H7V0H9V2H10V0H12V2H13.2627L13.3906 2.00977C13.6807 2.05847 14.0127 2.24712 14.0127 2.5V15.5C14.0127 15.7889 13.6141 15.9999 13.2627 16H2.81543C2.46398 16 2 15.6376 2 15.3486V2.60547L2.0127 2.5C2.07197 2.2615 2.50782 2.00001 2.81543 2H4V0H6V2ZM3.0127 15H13.0127L13 3H3.0127V15Z" fill="currentColor"/>
</svg>
