<svg width="16" height="16" viewBox="0 0 16 16" fill="none" xmlns="http://www.w3.org/2000/svg">
<path d="M9.5 2.67156C9.5 2.94771 9.72386 3.17156 10 3.17156C10.2761 3.17156 10.5 2.94771 10.5 2.67156V0.84314C10.5 0.566997 10.2761 0.34314 10 0.34314C9.72386 0.34314 9.5 0.566998 9.5 0.84314V2.67156Z" fill="currentColor"/>
<path d="M14 2.70713C14.1953 2.51187 14.1953 2.19528 14 2.00002C13.8047 1.80476 13.4881 1.80476 13.2929 2.00002L12 3.29291C11.8047 3.48818 11.8047 3.80476 12 4.00002C12.1953 4.19528 12.5118 4.19528 12.7071 4.00002L14 2.70713Z" fill="currentColor"/>
<path d="M7.29286 4.00002C7.48812 4.19529 7.8047 4.19529 7.99996 4.00002C8.19523 3.80476 8.19523 3.48818 7.99996 3.29292L6.70707 2.00002C6.51181 1.80476 6.19523 1.80476 5.99996 2.00002C5.8047 2.19528 5.8047 2.51187 5.99996 2.70713L7.29286 4.00002Z" fill="currentColor"/>
<path d="M6.67157 6.5C6.94771 6.5 7.17157 6.27614 7.17157 6C7.17157 5.72386 6.94771 5.5 6.67157 5.5H4.84314C4.567 5.5 4.34314 5.72386 4.34314 6C4.34314 6.27614 4.567 6.5 4.84314 6.5H6.67157Z" fill="currentColor"/>
<path d="M15.1568 6.5C15.433 6.5 15.6568 6.27614 15.6568 6C15.6568 5.72386 15.433 5.5 15.1568 5.5H13.3284C13.0523 5.5 12.8284 5.72386 12.8284 6C12.8284 6.27614 13.0523 6.5 13.3284 6.5H15.1568Z" fill="currentColor"/>
<path d="M13.2929 10C13.4881 10.1953 13.8047 10.1953 14 10C14.1953 9.80476 14.1953 9.48818 14 9.29292L12.7071 8.00002C12.5118 7.80476 12.1953 7.80476 12 8.00002C11.8047 8.19529 11.8047 8.51187 12 8.70713L13.2929 10Z" fill="currentColor"/>
<path d="M9.5 11.1569C9.5 11.433 9.72386 11.6569 10 11.6569C10.2761 11.6569 10.5 11.433 10.5 11.1569V9.32843C10.5 9.05229 10.2761 8.82843 10 8.82843C9.72386 8.82843 9.5 9.05229 9.5 9.32843V11.1569Z" fill="currentColor"/>
<path d="M11.3536 6.06066C11.5488 5.8654 11.5488 5.54881 11.3536 5.35355L10.6465 4.64645C10.4512 4.45118 10.1346 4.45118 9.93934 4.64645L8.64645 5.93934C8.45119 6.1346 8.45119 6.45118 8.64645 6.64645L9.35356 7.35355C9.54882 7.54881 9.8654 7.54881 10.0607 7.35355L11.3536 6.06066Z" fill="currentColor"/>
<path d="M8.35356 9.06066C8.54882 8.8654 8.54882 8.54881 8.35356 8.35355L7.64645 7.64645C7.45119 7.45118 7.13461 7.45118 6.93934 7.64645L0.646447 13.9393C0.451184 14.1346 0.451185 14.4512 0.646447 14.6464L1.35356 15.3536C1.54882 15.5488 1.8654 15.5488 2.06066 15.3536L8.35356 9.06066Z" fill="currentColor"/>
</svg>
