<svg width="16" height="17" viewBox="0 0 16 17" fill="none" xmlns="http://www.w3.org/2000/svg">
<path d="M3 6H5V8H3V6Z" fill="currentColor"/>
<path d="M11 6H13V8H11V6Z" fill="currentColor"/>
<path d="M7 6H9V8H7V6Z" fill="currentColor"/>
<path fill-rule="evenodd" clip-rule="evenodd" d="M15 1C15.5523 1 16 1.44772 16 2V12C16 12.5523 15.5523 13 15 13H8.84473L6 16.0215V13H1C0.447715 13 1.61065e-08 12.5523 0 12V2C0 1.44772 0.447715 1 1 1H15ZM1.5 2C1.22386 2 1 2.22386 1 2.5V11.5C1 11.7761 1.22386 12 1.5 12H7V13.5L8.41309 12H14.5C14.7761 12 15 11.7761 15 11.5V2.5C15 2.22386 14.7761 2 14.5 2H1.5Z" fill="currentColor"/>
</svg>
