<svg width="16" height="16" viewBox="0 0 16 16" fill="none" xmlns="http://www.w3.org/2000/svg">
<path d="M13 8C13 8.56433 12.9065 9.10683 12.7342 9.61285L11.9202 8.79889C11.9725 8.54075 12 8.27358 12 8V7C12 6.72386 12.2239 6.5 12.5 6.5C12.7761 6.5 13 6.72386 13 7V8Z" fill="currentColor"/>
<path d="M8 12C8.81786 12 9.5784 11.7545 10.212 11.3333L10.9304 12.0517C10.2339 12.5563 9.40224 12.8857 8.5 12.9753V15H11.5C11.7761 15 12 15.2239 12 15.5C12 15.7761 11.7761 16 11.5 16H4.5C4.22386 16 4 15.7761 4 15.5C4 15.2239 4.22386 15 4.5 15H7.5V12.9753C4.97334 12.7245 3 10.5927 3 8V7C3 6.72386 3.22386 6.5 3.5 6.5C3.77614 6.5 4 6.72386 4 7V8C4 10.2091 5.79086 12 8 12Z" fill="currentColor"/>
<path d="M11 3V7.87868L9.99999 6.87868V3C9.99999 1.89543 9.10456 1 7.99999 1C6.935 1 6.06443 1.83241 6.00341 2.8821L5.158 2.03669C5.5593 0.852371 6.6801 0 7.99999 0C9.65685 0 11 1.34315 11 3Z" fill="currentColor"/>
<path d="M9.48561 10.6069L8.73808 9.85942C8.50972 9.95015 8.26068 10 8 10C6.89543 10 6 9.10459 6 8.00002V7.12134L5 6.12134V8.00002C5 9.65687 6.34315 11 8 11C8.5405 11 9.04761 10.8571 9.48561 10.6069Z" fill="currentColor"/>
<path d="M1.64648 1.35347L13.6465 13.3534L14.3536 12.6463L2.35359 0.646362L1.64648 1.35347Z" fill="currentColor"/>
</svg>
