<svg width="16" height="16" viewBox="0 0 16 16" fill="none" xmlns="http://www.w3.org/2000/svg">
<path d="M4.1889 10C4.54028 10.0001 4.82463 10.2989 4.82463 10.667C4.82447 11.035 4.54017 11.3339 4.1889 11.334H4.18238C3.83103 11.334 3.54588 11.035 3.54572 10.667C3.54572 10.2988 3.83093 10 4.18238 10H4.1889Z" fill="currentColor"/>
<path d="M6.73461 10C7.08598 10.0001 7.37034 10.2989 7.37034 10.667C7.37018 11.035 7.08588 11.3339 6.73461 11.334H6.72809C6.37674 11.334 6.09159 11.035 6.09143 10.667C6.09143 10.2988 6.37664 10 6.72809 10H6.73461Z" fill="currentColor"/>
<path fill-rule="evenodd" clip-rule="evenodd" d="M11.03 2C11.385 2.00028 11.7331 2.10477 12.0348 2.30078C12.3358 2.49645 12.5787 2.77626 12.7367 3.1084L14.9329 7.70215C14.9371 7.71103 14.9402 7.72044 14.9441 7.72949C14.947 7.73629 14.9498 7.74309 14.9525 7.75C14.9662 7.78557 14.9774 7.82197 14.9851 7.85938C14.9863 7.86518 14.9868 7.8711 14.9879 7.87695C14.9951 7.91737 15 7.95862 15 8V12C14.9999 12.5302 14.7986 13.0391 14.4407 13.4141C14.0827 13.789 13.5972 14 13.091 14H2.90905C2.40292 13.9999 1.91722 13.789 1.55929 13.4141C1.20154 13.0391 1.00008 12.5302 1 12V8C1.00002 7.9613 1.00377 7.9226 1.01025 7.88477C1.012 7.87428 1.01364 7.86383 1.01585 7.85352C1.02299 7.8209 1.03301 7.78904 1.04474 7.75781C1.04943 7.74525 1.05428 7.73288 1.05966 7.7207C1.0624 7.7145 1.06512 7.70828 1.06805 7.70215L3.26327 3.1084C3.42132 2.77611 3.66494 2.49648 3.96611 2.30078C4.2679 2.10478 4.61589 2.0002 4.97097 2H11.03ZM2.27332 12C2.2734 12.1767 2.34048 12.3467 2.45975 12.4717C2.57899 12.5964 2.74054 12.6669 2.90905 12.667H13.091C13.2596 12.667 13.4219 12.5966 13.5412 12.4717C13.6604 12.3467 13.7275 12.1766 13.7276 12V8.66699H2.27332V12ZM4.88335 3.33984C4.79605 3.35268 4.71179 3.38457 4.63633 3.43359C4.53579 3.49895 4.45501 3.59309 4.40236 3.7041L4.40142 3.70508L2.66669 7.33301H13.3333L11.5995 3.70508L11.5986 3.7041C11.5459 3.59308 11.4642 3.49895 11.3637 3.43359C11.2882 3.38459 11.204 3.35264 11.1167 3.33984L11.029 3.33398H4.9719L4.88335 3.33984Z" fill="currentColor"/>
</svg>
