<svg width="16" height="16" viewBox="0 0 16 16" fill="none" xmlns="http://www.w3.org/2000/svg">
<path d="M11.4197 2L14.8482 8.00002L11.4197 14H4.58023L1.15174 8.00002L4.58027 2H11.4197ZM4.58027 1C4.22142 1 3.89007 1.19229 3.71203 1.50387L0.283487 7.50389C0.107816 7.81132 0.107815 8.18872 0.283486 8.49615L3.71199 14.4962C3.89003 14.8077 4.22137 15 4.58023 15H11.4197C11.7785 15 12.1099 14.8077 12.2879 14.4962L15.7165 8.49615C15.8921 8.18872 15.8921 7.81132 15.7165 7.50389L12.2879 1.50387C12.1099 1.19229 11.7785 1 11.4197 1H4.58027Z" fill="currentColor"/>
<path d="M6.84806 5.93305C5.65233 6.62341 5.24264 8.15238 5.93299 9.34811C6.62335 10.5438 8.15232 10.9535 9.34806 10.2632C10.5438 9.57282 10.9535 8.04385 10.2631 6.84812C9.57276 5.65238 8.04379 5.2427 6.84806 5.93305ZM5.06697 9.84811C4.10047 8.17409 4.67403 6.03352 6.34806 5.06703C8.02208 4.10053 10.1627 4.67409 11.1292 6.34812C12.0957 8.02214 11.5221 10.1627 9.84806 11.1292C8.17403 12.0957 6.03347 11.5221 5.06697 9.84811Z" fill="currentColor"/>
</svg>
