<svg width="16" height="17" viewBox="0 0 16 17" fill="none" xmlns="http://www.w3.org/2000/svg">
<path fill-rule="evenodd" clip-rule="evenodd" d="M5.88392 15.572C6.02619 15.7324 6.22105 15.8368 6.43342 15.8663C6.95275 15.9497 7.47748 15.9952 8.00342 16.0023C8.52906 15.9948 9.05344 15.949 9.57242 15.8653C9.78479 15.8358 9.97965 15.7314 10.122 15.571C10.2642 15.4106 10.3445 15.2047 10.3485 14.9903V13.0373L10.4485 12.1683C10.5897 11.0249 11.1511 9.97484 12.0235 9.22232C12.5663 8.73493 12.9952 8.13402 13.2796 7.46225C13.5641 6.79048 13.6972 6.06431 13.6695 5.33532C13.6224 3.87774 12.9998 2.49818 11.9379 1.49865C10.8759 0.499132 9.46118 -0.0389102 8.00342 0.00232099C6.54498 -0.039988 5.12925 0.497573 4.06645 1.49721C3.00364 2.49684 2.38045 3.87703 2.33342 5.33532C2.30619 6.06462 2.43991 6.79098 2.72508 7.46277C3.01025 8.13456 3.43987 8.73531 3.98342 9.22232C4.85545 9.97501 5.41646 11.025 5.55742 12.1683L5.65742 13.0383V14.9913C5.66134 15.2057 5.74166 15.4116 5.88392 15.572ZM3.6351 7.0459C3.41046 6.50469 3.30747 5.92073 3.33342 5.33532C3.38055 4.1423 3.89841 3.01654 4.77365 2.20446C5.64889 1.39238 6.81022 0.960128 8.00342 1.00232C9.201 0.965884 10.3643 1.40516 11.2389 2.22408C12.1135 3.04301 12.6282 4.17493 12.6705 5.37232C12.6924 5.95518 12.5859 6.53574 12.3585 7.07285C12.1311 7.60996 11.7883 8.09047 11.3545 8.48032C10.3121 9.38179 9.63815 10.6355 9.46142 12.0023H6.54442C6.36286 10.6293 5.68268 9.37118 4.63342 8.46732C4.20055 8.07236 3.85974 7.58711 3.6351 7.0459ZM7.66742 9.08832V11.3353H8.33342V9.08832L9.17142 8.31532C9.22444 8.32839 9.27882 8.33511 9.33342 8.33532C9.4651 8.33532 9.59383 8.29628 9.70333 8.22315C9.81283 8.15001 9.89819 8.04605 9.94863 7.92442C9.99907 7.80278 10.0124 7.66892 9.9867 7.53976C9.96108 7.41059 9.89775 7.29192 9.80471 7.19874C9.71166 7.10556 9.59309 7.04205 9.46396 7.01624C9.33484 6.99043 9.20096 7.00347 9.07925 7.05373C8.95753 7.10398 8.85345 7.18919 8.78015 7.29858C8.70685 7.40797 8.66762 7.53664 8.66742 7.66832C8.66736 7.71985 8.67341 7.77121 8.68542 7.82132L8.00042 8.45332L7.31542 7.82132C7.32744 7.77121 7.33348 7.71985 7.33342 7.66832C7.33322 7.53647 7.29389 7.40765 7.22041 7.29817C7.14693 7.18869 7.04261 7.10349 6.92066 7.05336C6.79872 7.00322 6.66463 6.99041 6.5354 7.01655C6.40617 7.04268 6.2876 7.10659 6.19472 7.20017C6.10184 7.29376 6.03883 7.4128 6.01366 7.54223C5.9885 7.67165 6.00232 7.80564 6.05337 7.9272C6.10442 8.04877 6.19041 8.15244 6.30043 8.2251C6.41046 8.29775 6.53957 8.33611 6.67142 8.33532C6.72602 8.33511 6.78041 8.32839 6.83342 8.31532L7.66742 9.08832ZM7.99042 15.0023C7.54399 14.9951 7.09859 14.957 6.65742 14.8883V14.3353H8.00342V13.6683H6.65742V13.0383L6.66042 13.0023H9.34542V14.8893C8.89695 14.9586 8.44418 14.9964 7.99042 15.0023Z" fill="currentColor"/>
</svg>
