<svg width="16" height="16" viewBox="0 0 16 16" fill="none" xmlns="http://www.w3.org/2000/svg">
<path fill-rule="evenodd" clip-rule="evenodd" d="M10.3536 6.14644C10.5488 6.3417 10.5488 6.65828 10.3536 6.85354L7.35354 9.85354C7.25978 9.94731 7.1326 9.99999 6.99999 9.99999C6.86738 9.99999 6.7402 9.94731 6.64644 9.85354L5.14644 8.35354C4.95117 8.15828 4.95117 7.8417 5.14644 7.64644C5.3417 7.45117 5.65828 7.45117 5.85354 7.64644L6.99999 8.79288L9.64644 6.14644C9.8417 5.95117 10.1583 5.95117 10.3536 6.14644Z" fill="currentColor"/>
<path d="M10.2729 2.51266L9.35188 1.56943L10.0674 0.870797L10.6892 1.50763L11.5792 1.49703C13.2019 1.47771 14.5223 2.79809 14.503 4.42074L14.4924 5.31076L15.1292 5.93261C16.2903 7.06634 16.2903 8.93364 15.1292 10.0674L14.4924 10.6892L14.503 11.5792C14.5223 13.2019 13.2019 14.5223 11.5792 14.503L10.6892 14.4924L10.0674 15.1292C8.93364 16.2903 7.06634 16.2903 5.93261 15.1292L5.31076 14.4924L4.42074 14.503C2.79809 14.5223 1.47771 13.2019 1.49703 11.5792L1.50763 10.6892L0.870797 10.0674C-0.290266 8.93364 -0.290266 7.06634 0.870797 5.93261L1.50763 5.31076L1.49703 4.42074C1.47771 2.79809 2.79809 1.47771 4.42074 1.49703L5.31076 1.50763L5.93261 0.870797C7.06634 -0.290266 8.93364 -0.290266 10.0674 0.870797L9.35188 1.56943C8.61052 0.810188 7.38946 0.810188 6.64809 1.56943L5.72706 2.51266L4.40883 2.49696C3.34774 2.48432 2.48432 3.34774 2.49696 4.40883L2.51266 5.72706L1.56943 6.64809C0.810188 7.38946 0.810188 8.61052 1.56943 9.35188L2.51266 10.2729L2.49696 11.5912C2.48432 12.6523 3.34774 13.5157 4.40883 13.503L5.72706 13.4873L6.64809 14.4306C7.38946 15.1898 8.61052 15.1898 9.35188 14.4306L10.2729 13.4873L11.5912 13.503C12.6523 13.5157 13.5157 12.6523 13.503 11.5912L13.4873 10.2729L14.4306 9.35188C15.1898 8.61052 15.1898 7.38946 14.4306 6.64809L13.4873 5.72706L13.503 4.40883C13.5157 3.34774 12.6523 2.48432 11.5912 2.49696L10.2729 2.51266Z" fill="currentColor"/>
</svg>
