<svg width="16" height="16" viewBox="0 0 16 16" fill="none" xmlns="http://www.w3.org/2000/svg">
<path fill-rule="evenodd" clip-rule="evenodd" d="M7.99998 5.49999C8.27612 5.49999 8.49998 5.72385 8.49998 5.99999V7.49999H9.99998C10.2761 7.49999 10.5 7.72385 10.5 7.99998C10.5 8.27612 10.2761 8.49998 9.99998 8.49998H8.49998V9.99998C8.49998 10.2761 8.27612 10.5 7.99998 10.5C7.72385 10.5 7.49999 10.2761 7.49999 9.99998V8.49998H5.99999C5.72385 8.49998 5.49999 8.27612 5.49999 7.99998C5.49999 7.72385 5.72385 7.49999 5.99999 7.49999H7.49999V5.99999C7.49999 5.72385 7.72385 5.49999 7.99998 5.49999Z" fill="currentColor"/>
<path d="M10.2729 2.51266L9.35188 1.56943L10.0674 0.870796L10.6892 1.50763L11.5792 1.49703C13.2019 1.47771 14.5223 2.79808 14.503 4.42074L14.4924 5.31076L15.1292 5.93261C16.2903 7.06634 16.2903 8.93363 15.1292 10.0674L14.4924 10.6892L14.503 11.5792C14.5223 13.2019 13.2019 14.5223 11.5792 14.503L10.6892 14.4924L10.0674 15.1292C8.93363 16.2903 7.06634 16.2903 5.93261 15.1292L5.31076 14.4924L4.42074 14.503C2.79808 14.5223 1.47771 13.2019 1.49703 11.5792L1.50763 10.6892L0.870796 10.0674C-0.290265 8.93363 -0.290265 7.06634 0.870796 5.93261L1.50763 5.31076L1.49703 4.42074C1.47771 2.79808 2.79808 1.47771 4.42074 1.49703L5.31076 1.50763L5.93261 0.870796C7.06634 -0.290265 8.93363 -0.290265 10.0674 0.870796L9.35188 1.56943C8.61051 0.810187 7.38946 0.810187 6.64809 1.56943L5.72706 2.51266L4.40883 2.49696C3.34774 2.48432 2.48432 3.34774 2.49696 4.40883L2.51266 5.72706L1.56943 6.64809C0.810187 7.38946 0.810187 8.61051 1.56943 9.35188L2.51266 10.2729L2.49696 11.5912C2.48432 12.6523 3.34774 13.5157 4.40883 13.503L5.72706 13.4873L6.64809 14.4306C7.38946 15.1898 8.61051 15.1898 9.35188 14.4306L10.2729 13.4873L11.5912 13.503C12.6523 13.5157 13.5157 12.6523 13.503 11.5912L13.4873 10.2729L14.4306 9.35188C15.1898 8.61051 15.1898 7.38946 14.4306 6.64809L13.4873 5.72706L13.503 4.40883C13.5157 3.34774 12.6523 2.48432 11.5912 2.49696L10.2729 2.51266Z" fill="currentColor"/>
</svg>
