<svg width="16" height="16" viewBox="0 0 16 16" fill="none" xmlns="http://www.w3.org/2000/svg">
<path d="M13.4982 0.79461L13.6464 0.646459C14.1178 0.175056 14.8821 0.175056 15.3535 0.646459C15.8249 1.11786 15.8249 1.88216 15.3535 2.35356L15.2053 2.50171C15.7314 3.0907 15.7118 3.99523 15.1464 4.56066L4.85354 14.8536C4.78946 14.9176 4.70917 14.9631 4.62126 14.9851L0.621276 15.9851C0.450889 16.0277 0.270646 15.9777 0.146456 15.8536C0.0222669 15.7294 -0.0276574 15.5491 0.0149393 15.3787L1.01494 11.3787C1.03692 11.2908 1.08238 11.2105 1.14646 11.1464L10.7877 1.50519C10.5926 1.3676 10.321 1.38609 10.1465 1.56067L6.85353 4.85355C6.65827 5.04882 6.3417 5.04882 6.14644 4.85355C5.95117 4.65829 5.95117 4.34171 6.14644 4.14645L9.43931 0.853564C10.0053 0.287593 10.9111 0.26845 11.5 0.796135C12.0678 0.287432 12.9298 0.286924 13.4982 0.79461ZM12.8536 1.56067C12.6583 1.36541 12.3417 1.36541 12.1465 1.56067L1.95148 11.7556L1.18719 14.8128L4.24437 14.0485L14.4393 3.85355C14.6345 3.65829 14.6345 3.34171 14.4393 3.14645L12.8536 1.56067Z" fill="currentColor"/>
</svg>
