<svg width="16" height="16" viewBox="0 0 16 16" fill="none" xmlns="http://www.w3.org/2000/svg">
<path d="M9.99998 9.04999C11.3807 9.04999 12.5 7.9307 12.5 6.54999C12.5 5.16928 11.3807 4.04999 9.99998 4.04999C8.61928 4.04999 7.5 5.16928 7.5 6.54999C7.5 7.9307 8.61928 9.04999 9.99998 9.04999Z" fill="currentColor"/>
<path d="M2 1C0.895431 1 0 1.89543 0 3V12C0 13.1046 0.895431 14 2 14H14C15.1046 14 16 13.1046 16 12V3C16 1.89543 15.1046 1 14 1H2ZM1 3C1 2.44772 1.44772 2 2 2H4V4H1V3ZM5 13V2H14C14.5523 2 15 2.44772 15 3V12C15 12.2852 14.8806 12.5425 14.6891 12.7247C14.1514 11.4939 12.8227 10 10 10C6.96283 10 5.65523 11.7296 5.20172 13H5ZM1 11H4V13H2C1.44772 13 1 12.5523 1 12V11ZM4 10H1V8H4V10ZM4 7H1V5H4V7Z" fill="currentColor"/>
</svg>
