<svg width="16" height="16" viewBox="0 0 16 16" fill="none" xmlns="http://www.w3.org/2000/svg">
<path d="M12.5 11.5C12.7761 11.5 13 11.7239 13 12V14C13 15.1046 12.1046 16 11 16H5C3.89543 16 3 15.1046 3 14V12C3 11.7239 3.22386 11.5 3.5 11.5C3.77614 11.5 4 11.7239 4 12V14C4 14.5523 4.44772 15 5 15H11C11.5523 15 12 14.5523 12 14V12C12 11.7239 12.2239 11.5 12.5 11.5ZM1.29395 7.0459C1.54472 6.93029 1.84143 7.04024 1.95703 7.29102C2.07252 7.54172 1.96352 7.83846 1.71289 7.9541C1.4216 8.08838 1.22685 8.21877 1.1123 8.33105C0.99907 8.44211 1 8.49771 1 8.5C1 8.50595 1.0125 8.63862 1.35645 8.85547C1.67532 9.05645 2.16976 9.25585 2.8252 9.43066C4.12952 9.77848 5.95951 10 8 10C8.09713 10 8.19382 9.9981 8.29004 9.99707L7.14648 8.85352C6.95122 8.65825 6.95122 8.34175 7.14648 8.14648C7.34175 7.95122 7.65825 7.95122 7.85352 8.14648L9.85352 10.1465C10.0488 10.3417 10.0488 10.6583 9.85352 10.8535L7.85352 12.8535C7.65825 13.0488 7.34175 13.0488 7.14648 12.8535C6.95122 12.6583 6.95122 12.3417 7.14648 12.1465L8.29492 10.9971C8.19706 10.998 8.09875 11 8 11C5.89836 11 3.97752 10.7735 2.56738 10.3975C1.86615 10.2104 1.26228 9.97859 0.822266 9.70117C0.40733 9.43947 0 9.04613 0 8.5C0 8.13801 0.18338 7.84042 0.412109 7.61621C0.639688 7.39316 0.947169 7.20576 1.29395 7.0459ZM14.043 7.29102C14.1586 7.04024 14.4553 6.93029 14.7061 7.0459C15.0528 7.20576 15.3603 7.39316 15.5879 7.61621C15.8166 7.84042 16 8.13801 16 8.5C16 8.8816 15.7965 9.1908 15.5498 9.41992C15.303 9.64906 14.9691 9.84195 14.5908 10.0059C13.8308 10.3352 12.7813 10.5938 11.5693 10.7646C11.2961 10.8029 11.0434 10.6121 11.0049 10.3389C10.9665 10.0655 11.1573 9.81295 11.4307 9.77441C12.5973 9.60994 13.5482 9.36747 14.1934 9.08789C14.5176 8.94738 14.7377 8.80859 14.8691 8.68652C15.0007 8.56434 15 8.50214 15 8.5C15 8.49771 15.0009 8.44211 14.8877 8.33105C14.7731 8.21877 14.5784 8.08838 14.2871 7.9541C14.0365 7.83846 13.9275 7.54172 14.043 7.29102ZM11 0C12.1046 0 13 0.895431 13 2V8C13 8.27614 12.7761 8.5 12.5 8.5C12.2239 8.5 12 8.27614 12 8V2C12 1.44772 11.5523 1 11 1H5C4.44772 1 4 1.44772 4 2V8C4 8.27614 3.77614 8.5 3.5 8.5C3.22386 8.5 3 8.27614 3 8V2C3 0.895431 3.89543 0 5 0H11ZM8.5 2C8.77614 2 9 2.22386 9 2.5C9 2.77614 8.77614 3 8.5 3H7.5C7.22386 3 7 2.77614 7 2.5C7 2.22386 7.22386 2 7.5 2H8.5Z" fill="currentColor"/>
</svg>
