<svg width="16" height="16" viewBox="0 0 16 16" fill="none" xmlns="http://www.w3.org/2000/svg">
<path d="M4.99999 6.24999C4.99999 6.6642 4.66421 6.99999 4.24999 6.99999C3.83578 6.99999 3.49999 6.6642 3.49999 6.24999C3.49999 5.83578 3.83578 5.49999 4.24999 5.49999C4.66421 5.49999 4.99999 5.83578 4.99999 6.24999Z" fill="currentColor"/>
<path d="M6.13808 4.75354C6.70881 4.58955 7.32313 4.49999 7.96424 4.49999C8.63024 4.49999 9.26732 4.59664 9.85666 4.77298C10.1212 4.85214 10.3999 4.70185 10.479 4.43729C10.5582 4.17274 10.4079 3.8941 10.1433 3.81495C9.46063 3.61067 8.72697 3.49999 7.96424 3.49999C7.23001 3.49999 6.52272 3.60256 5.86191 3.79244C5.59651 3.8687 5.44318 4.14567 5.51944 4.41108C5.5957 4.67648 5.87268 4.82981 6.13808 4.75354Z" fill="currentColor"/>
<path fill-rule="evenodd" clip-rule="evenodd" d="M7.96434 1.52734C4.98674 1.52734 2.39276 3.23104 1.6436 5.65233H1.09457C0.473772 5.65233 0.0029865 6.21206 0.109354 6.82367L0.363383 8.28435C0.488336 9.00283 1.11194 9.52733 1.84119 9.52733H2.10392C2.40328 10.0403 2.79183 10.5053 3.24947 10.9092L2.52044 13.3862C2.47594 13.5374 2.50533 13.7007 2.59973 13.8269C2.69413 13.953 2.8425 14.0273 3.0001 14.0273H5.0001C5.2115 14.0273 5.40006 13.8944 5.47106 13.6953L5.95292 12.3437C6.58756 12.5173 7.2637 12.6107 7.96434 12.6107C8.67082 12.6107 9.35239 12.5157 9.99163 12.3394L10.5352 13.7115C10.6108 13.9021 10.795 14.0273 11.0001 14.0273H13.0001C13.1584 14.0273 13.3075 13.9523 13.4018 13.8251C13.4961 13.6979 13.5245 13.5335 13.4785 13.3819L12.7167 10.8757C13.8099 9.8946 14.5 8.55872 14.5 7.069C14.5 6.92358 14.4936 6.77975 14.4809 6.63766C14.7414 6.52775 14.9879 6.37195 15.185 6.19375C15.5 6.49999 16 6.49999 16 5.77738C16 5.99999 15.5 5.99999 15.5388 5.7507C15.5805 5.66934 15.6117 5.58402 15.6284 5.49585C15.6718 5.26699 15.6127 5.03652 15.4268 4.8506C15.21 4.63385 14.9288 4.63943 14.7201 4.75323C14.5236 4.8604 14.3694 5.0711 14.345 5.31502C14.3207 5.5577 14.4274 5.79534 14.6651 5.9687C14.5841 6.02491 14.4969 6.07661 14.4064 6.12179C13.8723 3.45792 11.1223 1.52734 7.96434 1.52734ZM2.51652 6.25972C2.9708 4.1939 5.18315 2.52734 7.96434 2.52734C11.1096 2.52734 13.5 4.6412 13.5 7.069C13.5 8.32348 12.8761 9.47852 11.8302 10.317C11.6707 10.4448 11.605 10.6569 11.6645 10.8525L12.3255 13.0273H11.3398L10.7506 11.5401C10.6519 11.291 10.3743 11.164 10.1213 11.2521C9.45986 11.4825 8.7313 11.6107 7.96434 11.6107C7.19739 11.6107 6.46884 11.4825 5.80741 11.2521C5.54798 11.1617 5.26423 11.2976 5.17197 11.5564L4.64753 13.0273H3.66846L4.3014 10.8769C4.35907 10.6809 4.29175 10.4696 4.13135 10.3431C3.57811 9.90677 3.13998 9.38156 2.8472 8.80191C2.76214 8.63352 2.58955 8.52733 2.4009 8.52733H1.84119C1.59811 8.52733 1.39025 8.3525 1.3486 8.113L1.09457 6.65233H2.02818C2.26295 6.65233 2.4661 6.489 2.51652 6.25972ZM15.1372 5.40268C15.1259 5.46199 15.0944 5.53376 15.0388 5.61319C15.023 5.60494 15.0083 5.59658 14.9947 5.58818C14.8495 5.49837 14.8377 5.41296 14.8425 5.36477C14.8494 5.29618 14.8982 5.22563 14.9595 5.19217C15.0087 5.16535 15.04 5.17092 15.0732 5.20416C15.1373 5.26825 15.1511 5.32946 15.1372 5.40268Z" fill="currentColor"/>
</svg>
