<svg width="16" height="16" viewBox="0 0 16 16" fill="none" xmlns="http://www.w3.org/2000/svg">
<path fill-rule="evenodd" clip-rule="evenodd" d="M7.5 3.83301C9.15702 3.83301 10.5 5.17599 10.5 6.83301C10.5 8.49002 9.15702 9.83301 7.5 9.83301C5.84298 9.83301 4.5 8.49002 4.5 6.83301C4.5 5.17599 5.84298 3.83301 7.5 3.83301ZM7.5 5.33301C6.67149 5.33301 6 6.0045 6 6.83301C6 7.66152 6.67149 8.33301 7.5 8.33301C8.32851 8.33301 9 7.66152 9 6.83301C9 6.0045 8.32851 5.33301 7.5 5.33301Z" fill="currentColor"/>
<path fill-rule="evenodd" clip-rule="evenodd" d="M7.5 0C9.22374 7.52711e-05 10.8768 0.689615 12.0957 1.91699C13.3146 3.14452 14 4.80995 14 6.5459C13.9998 8.60646 12.8785 10.6204 11.6846 12.2002C10.4737 13.8023 9.09511 15.0769 8.40527 15.6768C8.39302 15.6874 8.38012 15.6982 8.36719 15.708C8.11707 15.8972 7.81284 15.9999 7.5 16C7.18697 16 6.88207 15.8974 6.63184 15.708C6.61886 15.6982 6.60603 15.6874 6.59375 15.6768C5.90392 15.077 4.5262 13.8021 3.31543 12.2002C2.12148 10.6204 1.00022 8.60646 1 6.5459C1 4.80998 1.68444 3.14451 2.90332 1.91699C4.12231 0.68946 5.77609 1.58878e-08 7.5 0ZM7.5 1.4541C6.15918 1.4541 4.87291 1.99057 3.9248 2.94531C2.9767 3.90006 2.44434 5.19568 2.44434 6.5459C2.44456 8.11617 3.32311 9.80872 4.46484 11.3193C5.56806 12.779 6.83413 13.9609 7.49902 14.542C8.16377 13.9611 9.43156 12.7795 10.5352 11.3193C11.6768 9.80875 12.5554 8.11612 12.5557 6.5459C12.5557 5.19568 12.0223 3.90006 11.0742 2.94531C10.1262 1.99076 8.84062 1.45418 7.5 1.4541Z" fill="currentColor"/>
</svg>
