<svg width="16" height="16" viewBox="0 0 16 16" fill="none" xmlns="http://www.w3.org/2000/svg">
<path d="M8 0C12.4183 0 16 3.58172 16 8C16 12.4183 12.4183 16 8 16C6.24945 16 4.62907 15.4369 3.31152 14.4824C2.56993 13.9452 2.60975 12.9265 3.18945 12.3467L4.98926 10.5459C3.96161 9.175 4.07162 7.22135 5.31836 5.97461L6.73242 4.56055C6.9277 4.36544 7.24424 4.36534 7.43945 4.56055L8.14648 5.26758L9.70605 3.70703C9.90115 3.5118 10.2177 3.51117 10.4131 3.70605C10.6083 3.90113 10.6089 4.21773 10.4141 4.41309L8.85352 5.97461L10.2676 7.38867L11.8262 5.82715C12.0212 5.63168 12.3377 5.63111 12.5332 5.82617C12.7286 6.0212 12.7291 6.33775 12.5342 6.5332L10.9746 8.0957L11.6816 8.80371C11.7754 8.89748 11.8281 9.02463 11.8281 9.15723C11.828 9.2897 11.7753 9.41706 11.6816 9.51074L10.2676 10.9248C9.02077 12.1714 7.06713 12.2807 5.69629 11.2529L3.89648 13.0537C3.68268 13.2676 3.73115 13.5517 3.89844 13.6729C5.05101 14.5077 6.46723 15 8 15C11.866 15 15 11.866 15 8C15 4.13401 11.866 1 8 1C4.13401 1 1 4.13401 1 8C1 8.27614 0.776142 8.5 0.5 8.5C0.223858 8.5 0 8.27614 0 8C0 3.58172 3.58172 0 8 0Z" fill="currentColor"/>
</svg>
