<svg width="16" height="16" viewBox="0 0 16 16" fill="none" xmlns="http://www.w3.org/2000/svg">
<path d="M8.00005 0C7.82432 0 7.64985 0.00567341 7.47681 0.0168556L7.5413 1.01477C7.69289 1.00498 7.84585 1 8.00005 1C8.15425 1 8.30721 1.00498 8.4588 1.01477L8.52329 0.0168556C8.35025 0.00567344 8.17578 0 8.00005 0Z" fill="currentColor"/>
<path d="M6.43923 0.152222C6.09353 0.220612 5.7558 0.311275 5.42761 0.422655L5.74899 1.36961C6.03583 1.27226 6.33104 1.193 6.6333 1.13321L6.43923 0.152222Z" fill="currentColor"/>
<path d="M10.5724 0.422654C10.2442 0.311274 9.90647 0.220611 9.56077 0.152222L9.3667 1.13321C9.66896 1.193 9.96417 1.27226 10.251 1.36961L10.5724 0.422654Z" fill="currentColor"/>
<path d="M12.4453 1.34783C12.1561 1.15425 11.8536 0.978992 11.5394 0.82373L11.0964 1.72026C11.3712 1.85605 11.6359 2.00937 11.889 2.17879L12.4453 1.34783Z" fill="currentColor"/>
<path d="M4.4606 0.82373C4.14636 0.978992 3.84384 1.15425 3.55469 1.34783L4.11101 2.17879C4.36408 2.00937 4.62875 1.85605 4.90357 1.72026L4.4606 0.82373Z" fill="currentColor"/>
<path d="M2.72509 1.98535C2.46275 2.2156 2.2156 2.46275 1.98535 2.72509L2.73693 3.38473C2.93856 3.155 3.155 2.93856 3.38473 2.73693L2.72509 1.98535Z" fill="currentColor"/>
<path d="M14.0148 2.72509C13.7845 2.46275 13.5374 2.2156 13.2751 1.98535L12.6154 2.73693C12.8451 2.93856 13.0616 3.155 13.2632 3.38473L14.0148 2.72509Z" fill="currentColor"/>
<path d="M15.1763 4.4606C15.0211 4.14636 14.8458 3.84384 14.6522 3.55469L13.8213 4.11101C13.9907 4.36408 14.144 4.62875 14.2798 4.90357L15.1763 4.4606Z" fill="currentColor"/>
<path d="M1.34783 3.55469C1.15425 3.84384 0.978992 4.14636 0.82373 4.4606L1.72026 4.90357C1.85605 4.62875 2.00937 4.36408 2.17879 4.11101L1.34783 3.55469Z" fill="currentColor"/>
<path d="M0.422654 5.42761C0.311274 5.7558 0.220611 6.09353 0.152222 6.43923L1.13321 6.6333C1.193 6.33104 1.27226 6.03583 1.36961 5.74899L0.422654 5.42761Z" fill="currentColor"/>
<path d="M15.8477 6.43923C15.7793 6.09353 15.6887 5.7558 15.5773 5.42761L14.6304 5.74899C14.7277 6.03583 14.807 6.33104 14.8668 6.6333L15.8477 6.43923Z" fill="currentColor"/>
<path d="M0.0168556 7.47681C0.00567344 7.64985 0 7.82432 0 8.00005C0 8.17578 0.00567341 8.35025 0.0168556 8.52329L1.01477 8.4588C1.00498 8.30721 1 8.15425 1 8.00005C1 7.84585 1.00498 7.69289 1.01477 7.5413L0.0168556 7.47681Z" fill="currentColor"/>
<path d="M16 8.00005C16 7.82432 15.9943 7.64985 15.9831 7.47681L14.9852 7.5413C14.995 7.69289 15 7.84585 15 8.00005C15 8.15425 14.995 8.30721 14.9852 8.4588L15.9831 8.52329C15.9943 8.35025 16 8.17578 16 8.00005Z" fill="currentColor"/>
<path d="M0.152222 9.56077C0.220612 9.90647 0.311275 10.2442 0.422655 10.5724L1.36961 10.251C1.27226 9.96417 1.193 9.66896 1.13321 9.3667L0.152222 9.56077Z" fill="currentColor"/>
<path d="M15.5773 10.5724C15.6887 10.2442 15.7793 9.90647 15.8477 9.56077L14.8668 9.3667C14.807 9.66896 14.7277 9.96417 14.6304 10.251L15.5773 10.5724Z" fill="currentColor"/>
<path d="M0.82373 11.5394C0.978992 11.8536 1.15425 12.1561 1.34783 12.4453L2.17879 11.889C2.00937 11.6359 1.85605 11.3712 1.72026 11.0964L0.82373 11.5394Z" fill="currentColor"/>
<path d="M14.6522 12.4453C14.8458 12.1561 15.0211 11.8536 15.1763 11.5394L14.2798 11.0964C14.144 11.3712 13.9907 11.6359 13.8213 11.889L14.6522 12.4453Z" fill="currentColor"/>
<path d="M1.98535 13.2751C2.2156 13.5374 2.46275 13.7845 2.72509 14.0148L3.38473 13.2632C3.155 13.0616 2.93856 12.8451 2.73693 12.6154L1.98535 13.2751Z" fill="currentColor"/>
<path d="M13.2751 14.0148C13.5374 13.7845 13.7845 13.5374 14.0148 13.2751L13.2632 12.6154C13.0616 12.8451 12.8451 13.0616 12.6154 13.2632L13.2751 14.0148Z" fill="currentColor"/>
<path d="M11.5394 15.1763C11.8536 15.0211 12.1561 14.8458 12.4453 14.6522L11.889 13.8213C11.6359 13.9907 11.3712 14.144 11.0964 14.2798L11.5394 15.1763Z" fill="currentColor"/>
<path d="M3.55469 14.6522C3.84384 14.8458 4.14636 15.0211 4.4606 15.1763L4.90357 14.2798C4.62875 14.144 4.36408 13.9907 4.11101 13.8213L3.55469 14.6522Z" fill="currentColor"/>
<path d="M5.42761 15.5773C5.7558 15.6887 6.09353 15.7793 6.43923 15.8477L6.6333 14.8668C6.33104 14.807 6.03583 14.7277 5.74899 14.6304L5.42761 15.5773Z" fill="currentColor"/>
<path d="M9.56077 15.8477C9.90647 15.7793 10.2442 15.6887 10.5724 15.5773L10.251 14.6304C9.96417 14.7277 9.66896 14.807 9.3667 14.8668L9.56077 15.8477Z" fill="currentColor"/>
<path d="M7.47681 15.9831C7.64985 15.9943 7.82432 16 8.00005 16C8.17578 16 8.35025 15.9943 8.52329 15.9831L8.4588 14.9852C8.30721 14.995 8.15425 15 8.00005 15C7.84585 15 7.69289 14.995 7.5413 14.9852L7.47681 15.9831Z" fill="currentColor"/>
<path d="M8.5 4.5C8.5 4.22386 8.27614 4 8 4C7.72386 4 7.5 4.22386 7.5 4.5V7.5H4.5C4.22386 7.5 4 7.72386 4 8C4 8.27614 4.22386 8.5 4.5 8.5H7.5V11.5C7.5 11.7761 7.72386 12 8 12C8.27614 12 8.5 11.7761 8.5 11.5V8.5H11.5C11.7761 8.5 12 8.27614 12 8C12 7.72386 11.7761 7.5 11.5 7.5H8.5V4.5Z" fill="currentColor"/>
</svg>
