<svg width="16" height="16" viewBox="0 0 16 16" fill="none" xmlns="http://www.w3.org/2000/svg">
<path d="M7.49613 11.8184C8.11829 11.8184 8.59086 12.2919 8.59086 12.9092C8.59082 13.5264 8.11826 14 7.49613 14C6.89056 14 6.40927 13.5265 6.40922 12.9092C6.40922 12.2918 6.89053 11.8184 7.49613 11.8184ZM7.82426 2C10.0739 2.00008 11.5906 3.36048 11.5908 5.21484C11.5908 6.55796 10.9264 7.50286 9.8018 8.1875C8.70252 8.84607 8.38685 9.30582 8.38676 10.1982V10.2275C8.38661 10.5035 8.16273 10.7274 7.88676 10.7275H7.11625C6.84251 10.7275 6.61962 10.5071 6.61625 10.2334L6.6143 10.0342C6.57168 8.81219 7.09122 8.03195 8.25883 7.32129C9.29002 6.68865 9.65629 6.18561 9.65629 5.29297C9.65611 4.31387 8.89788 3.5948 7.73051 3.59473C6.7216 3.59473 6.01957 4.12443 5.79203 4.99707C5.72549 5.25149 5.51401 5.45801 5.25102 5.45801H4.47465C4.19086 5.45797 3.96087 5.22063 4.0059 4.94043C4.27906 3.2413 5.5754 2 7.82426 2Z" fill="currentColor"/>
</svg>
