<svg width="16" height="16" viewBox="0 0 16 16" fill="none" xmlns="http://www.w3.org/2000/svg">
<path d="M14 1C14.5523 1 15 1.44772 15 2V14C15 14.5523 14.5523 15 14 15H2C1.44772 15 1 14.5523 1 14V2C1 1.44772 1.44772 1 2 1H14ZM2 0C0.895431 0 0 0.895431 0 2V14C0 15.1046 0.895431 16 2 16H14C15.1046 16 16 15.1046 16 14V2C16 0.895431 15.1046 0 14 0H2Z" fill="currentColor"/>
<path d="M5.25512 5.78615C5.24753 5.92237 5.35991 6.03271 5.49635 6.03271H6.32083C6.4589 6.03271 6.56869 5.92013 6.58724 5.78331C6.67619 5.12718 7.12651 4.64893 7.92923 4.64893C8.61478 4.64893 9.24319 4.9917 9.24319 5.81689C9.24319 6.45166 8.86868 6.74365 8.27835 7.18799C7.6055 7.67676 7.0723 8.24805 7.11038 9.1748L7.11335 9.39161C7.11522 9.52833 7.22659 9.63818 7.36333 9.63818H8.17435C8.31242 9.63818 8.42435 9.52625 8.42435 9.38818V9.28271C8.42435 8.56543 8.6973 8.35596 9.43362 7.79736C10.043 7.33398 10.6778 6.81982 10.6778 5.74072C10.6778 4.22998 9.40189 3.5 8.0054 3.5C6.73832 3.5 5.34965 4.09061 5.25512 5.78615ZM6.81204 11.5488C6.81204 12.082 7.23733 12.4756 7.82132 12.4756C8.43069 12.4756 8.84964 12.082 8.84964 11.5488C8.84964 10.9966 8.43069 10.6094 7.82132 10.6094C7.23733 10.6094 6.81204 10.9966 6.81204 11.5488Z" fill="currentColor"/>
</svg>
