<svg width="16" height="16" viewBox="0 0 16 16" fill="none" xmlns="http://www.w3.org/2000/svg">
<path d="M6.95059 0.434678C7.53017 -0.144894 8.46984 -0.144892 9.04941 0.434679L15.5653 6.95059C16.1449 7.53017 16.1449 8.46984 15.5653 9.04941L9.04941 15.5653C8.46983 16.1449 7.53016 16.1449 6.95059 15.5653L0.434678 9.04941C-0.144894 8.46983 -0.144892 7.53016 0.434679 6.95059L6.95059 0.434678ZM8.3498 1.13428C8.15661 0.941093 7.84339 0.941093 7.6502 1.13428L1.13428 7.6502C0.941093 7.84339 0.941093 8.15661 1.13428 8.3498L7.6502 14.8657C7.84339 15.0589 8.15661 15.0589 8.3498 14.8657L14.8657 8.3498C15.0589 8.15661 15.0589 7.84339 14.8657 7.6502L8.3498 1.13428Z" fill="currentColor"/>
<path d="M5.25512 5.78615C5.24753 5.92237 5.35991 6.03271 5.49635 6.03271H6.32083C6.4589 6.03271 6.56869 5.92013 6.58724 5.78331C6.67619 5.12718 7.12651 4.64893 7.92923 4.64893C8.61478 4.64893 9.24319 4.9917 9.24319 5.81689C9.24319 6.45166 8.86868 6.74365 8.27835 7.18799C7.6055 7.67676 7.0723 8.24805 7.11038 9.1748L7.11335 9.39161C7.11522 9.52833 7.22659 9.63818 7.36333 9.63818H8.17435C8.31242 9.63818 8.42435 9.52625 8.42435 9.38818V9.28271C8.42435 8.56543 8.6973 8.35596 9.43362 7.79736C10.043 7.33398 10.6778 6.81982 10.6778 5.74072C10.6778 4.22998 9.40189 3.5 8.0054 3.5C6.73832 3.5 5.34965 4.09061 5.25512 5.78615ZM6.81204 11.5488C6.81204 12.082 7.23734 12.4756 7.82132 12.4756C8.43069 12.4756 8.84964 12.082 8.84964 11.5488C8.84964 10.9966 8.43069 10.6094 7.82132 10.6094C7.23734 10.6094 6.81204 10.9966 6.81204 11.5488Z" fill="currentColor"/>
</svg>
