<svg width="16" height="16" viewBox="0 0 16 16" fill="none" xmlns="http://www.w3.org/2000/svg">
<path d="M4.53984 0.146447C4.63361 0.0526784 4.76079 0 4.8934 0H11.1066C11.2392 0 11.3664 0.0526784 11.4602 0.146447L15.8536 4.53984C15.9473 4.63361 16 4.76079 16 4.8934V11.1066C16 11.2392 15.9473 11.3664 15.8536 11.4602L11.4602 15.8536C11.3664 15.9473 11.2392 16 11.1066 16H4.8934C4.76079 16 4.63361 15.9473 4.53984 15.8536L0.146447 11.4602C0.0526784 11.3664 0 11.2392 0 11.1066V4.8934C0 4.76079 0.0526784 4.63361 0.146447 4.53984L4.53984 0.146447ZM5.1005 1L1 5.1005V10.8995L5.10051 15H10.8995L15 10.8995V5.10051L10.8995 1H5.1005Z" fill="currentColor"/>
<path d="M5.25512 5.78615C5.24753 5.92237 5.35991 6.03271 5.49635 6.03271H6.32083C6.4589 6.03271 6.56869 5.92013 6.58724 5.78331C6.67619 5.12718 7.12651 4.64893 7.92923 4.64893C8.61478 4.64893 9.24319 4.9917 9.24319 5.81689C9.24319 6.45166 8.86868 6.74365 8.27835 7.18799C7.6055 7.67676 7.0723 8.24805 7.11038 9.1748L7.11335 9.39161C7.11522 9.52833 7.22659 9.63818 7.36333 9.63818H8.17435C8.31242 9.63818 8.42435 9.52625 8.42435 9.38818V9.28271C8.42435 8.56543 8.6973 8.35596 9.43362 7.79736C10.043 7.33398 10.6778 6.81982 10.6778 5.74072C10.6778 4.22998 9.40189 3.5 8.0054 3.5C6.73832 3.5 5.34965 4.09061 5.25512 5.78615ZM6.81204 11.5488C6.81204 12.082 7.23733 12.4756 7.82132 12.4756C8.43069 12.4756 8.84964 12.082 8.84964 11.5488C8.84964 10.9966 8.43069 10.6094 7.82132 10.6094C7.23733 10.6094 6.81204 10.9966 6.81204 11.5488Z" fill="currentColor"/>
</svg>
