<svg width="16" height="16" viewBox="0 0 16 16" fill="none" xmlns="http://www.w3.org/2000/svg">
<path d="M1.91991 0.506462C2.07856 0.480718 2.23991 0.532805 2.35355 0.646453L3 1.2929L3.64645 0.646453C3.84171 0.45119 4.15829 0.45119 4.35355 0.646453L5 1.2929L5.64645 0.646453C5.84171 0.45119 6.15829 0.45119 6.35355 0.646453L7 1.2929L7.64645 0.646453C7.84171 0.45119 8.15829 0.45119 8.35355 0.646453L9 1.2929L9.64645 0.646453C9.84171 0.45119 10.1583 0.45119 10.3536 0.646453L11 1.2929L11.6464 0.646453C11.8417 0.45119 12.1583 0.45119 12.3536 0.646453L13 1.2929L13.6464 0.646453C13.7601 0.532805 13.9214 0.480718 14.0801 0.506462C14.2387 0.532207 14.3753 0.632645 14.4472 0.776399L14.9472 1.7764C14.9819 1.84583 15 1.92239 15 2.00001V14C15 14.0776 14.9819 14.1542 14.9472 14.2236L14.4472 15.2236C14.3753 15.3674 14.2387 15.4678 14.0801 15.4935C13.9214 15.5193 13.7601 15.4672 13.6464 15.3536L13 14.7071L12.3536 15.3536C12.1583 15.5488 11.8417 15.5488 11.6464 15.3536L11 14.7071L10.3536 15.3536C10.1583 15.5488 9.84171 15.5488 9.64645 15.3536L9 14.7071L8.35355 15.3536C8.15829 15.5488 7.84171 15.5488 7.64645 15.3536L7 14.7071L6.35355 15.3536C6.15829 15.5488 5.84171 15.5488 5.64645 15.3536L5 14.7071L4.35355 15.3536C4.15829 15.5488 3.84171 15.5488 3.64645 15.3536L3 14.7071L2.35355 15.3536C2.23991 15.4672 2.07856 15.5193 1.91991 15.4935C1.76126 15.4678 1.62466 15.3674 1.55279 15.2236L1.05279 14.2236C1.01807 14.1542 1 14.0776 1 14V2.00001C1 1.92239 1.01807 1.84583 1.05279 1.7764L1.55279 0.776399C1.62466 0.632645 1.76126 0.532207 1.91991 0.506462ZM2.13698 1.84409L2 2.11804V13.882L2.13698 14.1559L2.64645 13.6464C2.84171 13.4512 3.15829 13.4512 3.35355 13.6464L4 14.2929L4.64645 13.6464C4.84171 13.4512 5.15829 13.4512 5.35355 13.6464L6 14.2929L6.64645 13.6464C6.84171 13.4512 7.15829 13.4512 7.35355 13.6464L8 14.2929L8.64645 13.6464C8.84171 13.4512 9.15829 13.4512 9.35355 13.6464L10 14.2929L10.6464 13.6464C10.8417 13.4512 11.1583 13.4512 11.3536 13.6464L12 14.2929L12.6464 13.6464C12.8417 13.4512 13.1583 13.4512 13.3536 13.6464L13.863 14.1559L14 13.882V2.11804L13.863 1.84409L13.3536 2.35356C13.1583 2.54883 12.8417 2.54883 12.6464 2.35356L12 1.70712L11.3536 2.35356C11.1583 2.54883 10.8417 2.54883 10.6464 2.35356L10 1.70712L9.35355 2.35356C9.15829 2.54883 8.84171 2.54883 8.64645 2.35356L8 1.70712L7.35355 2.35356C7.15829 2.54883 6.84171 2.54883 6.64645 2.35356L6 1.70712L5.35355 2.35356C5.15829 2.54883 4.84171 2.54883 4.64645 2.35356L4 1.70712L3.35355 2.35356C3.15829 2.54883 2.84171 2.54883 2.64645 2.35356L2.13698 1.84409Z" fill="currentColor"/>
<path d="M3 4.5C3 4.22386 3.22386 4 3.5 4H9.5C9.77614 4 10 4.22386 10 4.5C10 4.77614 9.77614 5 9.5 5H3.5C3.22386 5 3 4.77614 3 4.5ZM3 6.5C3 6.22386 3.22386 6 3.5 6H9.5C9.77614 6 10 6.22386 10 6.5C10 6.77614 9.77614 7 9.5 7H3.5C3.22386 7 3 6.77614 3 6.5ZM3 8.5C3 8.22386 3.22386 8 3.5 8H9.5C9.77614 8 10 8.22386 10 8.5C10 8.77614 9.77614 9 9.5 9H3.5C3.22386 9 3 8.77614 3 8.5ZM3 10.5C3 10.2239 3.22386 10 3.5 10H9.5C9.77614 10 10 10.2239 10 10.5C10 10.7761 9.77614 11 9.5 11H3.5C3.22386 11 3 10.7761 3 10.5Z" fill="currentColor"/>
<path d="M11 4.5C11 4.22386 11.2239 4 11.5 4H12.5C12.7761 4 13 4.22386 13 4.5C13 4.77614 12.7761 5 12.5 5H11.5C11.2239 5 11 4.77614 11 4.5ZM11 6.5C11 6.22386 11.2239 6 11.5 6H12.5C12.7761 6 13 6.22386 13 6.5C13 6.77614 12.7761 7 12.5 7H11.5C11.2239 7 11 6.77614 11 6.5ZM11 8.5C11 8.22386 11.2239 8 11.5 8H12.5C12.7761 8 13 8.22386 13 8.5C13 8.77614 12.7761 9 12.5 9H11.5C11.2239 9 11 8.77614 11 8.5ZM11 10.5C11 10.2239 11.2239 10 11.5 10H12.5C12.7761 10 13 10.2239 13 10.5C13 10.7761 12.7761 11 12.5 11H11.5C11.2239 11 11 10.7761 11 10.5Z" fill="currentColor"/>
</svg>
