<svg width="16" height="16" viewBox="0 0 16 16" fill="none" xmlns="http://www.w3.org/2000/svg">
<path d="M8 16C6.41775 16 4.87103 15.5308 3.55544 14.6518C2.23984 13.7727 1.21446 12.5233 0.608968 11.0615C0.00346619 9.59966 -0.15496 7.99113 0.153722 6.43928C0.462404 4.88743 1.22433 3.46197 2.34315 2.34315C3.46197 1.22433 4.88743 0.462404 6.43928 0.153722C7.99113 -0.15496 9.59966 0.00346619 11.0615 0.608968C12.5233 1.21446 13.7727 2.23984 14.6518 3.55544C15.5308 4.87103 16 6.41775 16 8C15.9976 10.121 15.154 12.1544 13.6542 13.6542C12.1544 15.154 10.121 15.9976 8 16ZM8 1C6.61553 1 5.26215 1.41054 4.11101 2.17971C2.95986 2.94888 2.06266 4.04213 1.53284 5.32122C1.00303 6.6003 0.864409 8.00777 1.1345 9.36563C1.4046 10.7235 2.07128 11.9708 3.05025 12.9497C4.02922 13.9287 5.2765 14.5954 6.63437 14.8655C7.99224 15.1356 9.3997 14.997 10.6788 14.4672C11.9579 13.9373 13.0511 13.0401 13.8203 11.889C14.5895 10.7378 15 9.38447 15 8C14.9979 6.14413 14.2597 4.36489 12.9474 3.05259C11.6351 1.7403 9.85587 1.00212 8 1Z" fill="currentColor"/>
<path d="M8.667 8.656H4V7.656H7.667V2H8.667V8.656Z" fill="currentColor"/>
</svg>
