<svg width="16" height="16" viewBox="0 0 16 16" fill="none" xmlns="http://www.w3.org/2000/svg">
<path d="M9.30241 1.25579C8.72657 0.248068 7.27352 0.248071 6.69768 1.25579L4.99449 4.23637C4.85749 4.47612 4.94079 4.78155 5.18055 4.91856C5.42031 5.05556 5.72573 4.97226 5.86274 4.7325L7.56592 1.75193C7.75787 1.41602 8.24222 1.41602 8.43417 1.75193L10.9735 6.19576L9.71757 5.85924C9.45083 5.78777 9.17666 5.94606 9.10519 6.21279C9.03372 6.47952 9.19201 6.75369 9.45875 6.82516L11.8735 7.47221C12.1403 7.54368 12.4144 7.38539 12.4859 7.11866L13.1329 4.70384C13.2044 4.43711 13.0461 4.16294 12.7794 4.09147C12.5127 4.02 12.2385 4.17829 12.167 4.44502L11.8343 5.68669L9.30241 1.25579Z" fill="currentColor"/>
<path d="M2.97344 7.7731L1.7175 8.10963C1.45077 8.1811 1.1766 8.02281 1.10513 7.75607C1.03366 7.48934 1.19195 7.21517 1.45869 7.1437L3.8735 6.49665C4.14023 6.42518 4.4144 6.58348 4.48587 6.85021L5.13292 9.26502C5.20439 9.53176 5.0461 9.80592 4.77937 9.8774C4.51263 9.94887 4.23847 9.79058 4.16699 9.52384L3.83429 8.28218L1.28904 12.7364C1.09857 13.0697 1.33925 13.4844 1.72316 13.4844H4.99998C5.27613 13.4844 5.49998 13.7083 5.49998 13.9844C5.49998 14.2606 5.27613 14.4844 4.99998 14.4844H1.72316C0.57143 14.4844 -0.150621 13.2402 0.4208 12.2402L2.97344 7.7731Z" fill="currentColor"/>
<path d="M13.8627 9.23639C13.7257 8.99663 13.4203 8.91333 13.1805 9.05033C12.9408 9.18734 12.8575 9.49277 12.9945 9.73252L14.711 12.7364C14.9014 13.0697 14.6607 13.4844 14.2768 13.4844H8.70711L9.35355 12.838C9.54882 12.6427 9.54881 12.3261 9.35355 12.1309C9.15829 11.9356 8.84171 11.9356 8.64645 12.1309L7.14645 13.6309C7.09502 13.6823 7.05714 13.7422 7.0328 13.806C7.01547 13.8513 7.00455 13.8998 7.00115 13.9504C6.99955 13.9741 6.99962 13.9979 7.00138 14.0217C7.0049 14.0696 7.01518 14.1156 7.03126 14.1588C7.05553 14.2242 7.09392 14.2855 7.14645 14.338L8.64645 15.838C8.84171 16.0333 9.15829 16.0333 9.35355 15.838C9.54882 15.6427 9.54881 15.3261 9.35355 15.1309L8.7071 14.4844H14.2768C15.4286 14.4844 16.1506 13.2402 15.5792 12.2402L13.8627 9.23639Z" fill="currentColor"/>
</svg>
