<svg width="16" height="16" viewBox="0 0 16 16" fill="none" xmlns="http://www.w3.org/2000/svg">
<path d="M2.34286 2.3432C2.53806 2.14802 2.85461 2.14816 3.04988 2.3432C3.24514 2.53847 3.24515 2.85497 3.04988 3.05022C0.316558 5.78378 0.31661 10.2159 3.04988 12.9495C3.24515 13.1448 3.24514 13.4613 3.04988 13.6566C2.85462 13.8516 2.53808 13.8517 2.34286 13.6566C-0.780929 10.5324 -0.780981 5.46728 2.34286 2.3432ZM12.9501 2.3432C13.1454 2.14816 13.462 2.14802 13.6572 2.3432C16.7809 5.46728 16.7809 10.5324 13.6572 13.6566C13.4619 13.8517 13.1454 13.8516 12.9501 13.6566C12.7549 13.4613 12.7549 13.1448 12.9501 12.9495C15.6834 10.2159 15.6835 5.78378 12.9501 3.05022C12.7549 2.85497 12.7549 2.53847 12.9501 2.3432ZM5.00005 10.0003C5.55233 10.0003 6.00004 10.448 6.00004 11.0003C5.99982 11.5524 5.5522 12.0003 5.00005 12.0003C4.44792 12.0003 4.00029 11.5524 4.00007 11.0003C4.00007 10.448 4.44778 10.0003 5.00005 10.0003ZM10.4999 4.00041C10.776 4.00044 10.9999 4.22428 10.9999 4.5004V6.61658L12.7431 5.57167C12.9798 5.42974 13.2866 5.50592 13.4286 5.74257C13.5707 5.97936 13.4936 6.28701 13.2568 6.42908L11.4716 7.50036L13.2568 8.57163C13.4936 8.7137 13.5707 9.02038 13.4286 9.25717C13.2867 9.49377 12.9798 9.57069 12.7431 9.42904L10.9999 8.38315V10.5003C10.9997 10.7762 10.7759 11.0003 10.4999 11.0003C10.2239 11.0003 10.0001 10.7763 9.99995 10.5003V8.38315L8.25683 9.42904C8.02013 9.57073 7.71329 9.49376 7.57131 9.25717C7.42923 9.02038 7.50639 8.7137 7.74317 8.57163L9.5283 7.50036L7.74317 6.42908C7.50639 6.28701 7.42923 5.97936 7.57131 5.74257C7.71339 5.50593 8.02011 5.4297 8.25683 5.57167L9.99995 6.61658V4.5004C9.99995 4.22427 10.2238 4.00041 10.4999 4.00041Z" fill="currentColor"/>
</svg>
