<svg width="16" height="16" viewBox="0 0 16 16" fill="none" xmlns="http://www.w3.org/2000/svg">
<path d="M11 5.46616V3.99992H5C2.79086 3.99992 1 5.79079 1 7.99992C1 8.63942 1.1497 9.24252 1.41552 9.77741C1.53841 10.0247 1.43757 10.3248 1.19028 10.4476C0.942987 10.5705 0.642895 10.4697 0.520003 10.2224C0.187005 9.55237 0 8.79727 0 7.99992C0 5.2385 2.23858 2.99992 5 2.99992H11V1.53368C11 1.32172 11.2472 1.20593 11.41 1.34163L13.7695 3.30787C13.8895 3.40782 13.8895 3.59203 13.7695 3.69198L11.41 5.65822C11.2472 5.79391 11 5.67812 11 5.46616Z" fill="currentColor"/>
<path d="M14.8097 5.55223C15.057 5.42934 15.3571 5.53018 15.48 5.77747C15.813 6.44754 16 7.20264 16 7.99998C16 10.7614 13.7614 13 11 13H4.99999V14.4662C4.99999 14.6782 4.75278 14.794 4.58994 14.6583L2.23046 12.692C2.11052 12.5921 2.11052 12.4079 2.23046 12.3079L4.58994 10.3417C4.75278 10.206 4.99999 10.3218 4.99999 10.5337V12H11C13.2091 12 15 10.2091 15 7.99998C15 7.36049 14.8503 6.75739 14.5845 6.2225C14.4616 5.97521 14.5624 5.67512 14.8097 5.55223Z" fill="currentColor"/>
</svg>
