<svg width="16" height="16" viewBox="0 0 16 16" fill="none" xmlns="http://www.w3.org/2000/svg">
<path d="M11 3.99992V5.46616C11 5.67812 11.2472 5.79391 11.41 5.65822L13.7695 3.69198C13.8895 3.59203 13.8895 3.40782 13.7695 3.30787L11.41 1.34163C11.2472 1.20593 11 1.32172 11 1.53368V2.99992H5C2.23858 2.99992 0 5.2385 0 7.99992C0 8.79727 0.187005 9.55237 0.520003 10.2224C0.642895 10.4697 0.942987 10.5705 1.19028 10.4476C1.43757 10.3248 1.53841 10.0247 1.41552 9.77741C1.1497 9.24252 1 8.63942 1 7.99992C1 5.79079 2.79086 3.99992 5 3.99992H11Z" fill="currentColor"/>
<path d="M15.48 5.77747C15.3571 5.53018 15.057 5.42934 14.8097 5.55223C14.5624 5.67512 14.4616 5.97521 14.5845 6.2225C14.8503 6.75739 15 7.36049 15 7.99998C15 10.2091 13.2091 12 11 12H4.99999V10.5337C4.99999 10.3218 4.75278 10.206 4.58994 10.3417L2.23046 12.3079C2.11052 12.4079 2.11052 12.5921 2.23046 12.692L4.58994 14.6583C4.75278 14.794 4.99999 14.6782 4.99999 14.4662V13H11C13.7614 13 16 10.7614 16 7.99998C16 7.20264 15.813 6.44754 15.48 5.77747Z" fill="currentColor"/>
<path d="M9 5.50001C9 5.29778 8.87818 5.11547 8.69134 5.03807C8.5045 4.96068 8.28945 5.00346 8.14645 5.14646L6.39645 6.89646C6.20118 7.09172 6.20118 7.40831 6.39645 7.60357C6.59171 7.79883 6.90829 7.79883 7.10355 7.60357L8 6.70712V10.5C8 10.7761 8.22386 11 8.5 11C8.77614 11 9 10.7761 9 10.5V5.50001Z" fill="currentColor"/>
</svg>
