<svg width="16" height="16" viewBox="0 0 16 16" fill="none" xmlns="http://www.w3.org/2000/svg">
<path d="M6.59775 5.01281C6.69068 4.97119 6.79997 5.03893 6.79997 5.14668V6.29996C6.79997 6.5761 7.02382 6.79996 7.29997 6.79996C7.96705 6.79996 9.31294 6.80515 10.6009 7.62217C11.5839 8.24579 12.5907 9.38182 13.1948 11.4983C12.1743 10.5147 11.0096 9.9824 9.98993 9.69942C9.23656 9.49033 8.55904 9.41584 8.06888 9.39345C7.82333 9.38223 7.62342 9.38402 7.48282 9.38882C7.41248 9.39122 7.35685 9.39438 7.31764 9.39705C7.29803 9.39838 7.28251 9.3996 7.2713 9.40054L7.25772 9.40172L7.2534 9.40213L7.25187 9.40227C7.25187 9.40227 7.25076 9.40238 7.29997 9.89996L7.25076 9.40238C6.99492 9.42769 6.79997 9.64287 6.79997 9.89996V11.0533C6.79997 11.161 6.69069 11.2288 6.59776 11.1871L2.61422 8.25431C2.60052 8.24422 2.5863 8.23483 2.57164 8.22619C2.47608 8.16988 2.47608 8.03004 2.57164 7.97372C2.5863 7.96508 2.60052 7.9557 2.61422 7.9456L6.59775 5.01281ZM7.79997 10.3857C7.86795 10.3867 7.9426 10.3888 8.02324 10.3924C8.45652 10.4122 9.05712 10.4784 9.7225 10.663C11.0491 11.0312 12.6194 11.8646 13.6629 13.7428C13.7792 13.9522 14.0276 14.0496 14.2552 13.9753C14.4829 13.9009 14.6258 13.6756 14.5961 13.438C14.1323 9.72752 12.7103 7.77605 11.1365 6.77775C9.89051 5.98731 8.6092 5.83584 7.79997 5.80683V5.14668C7.79997 4.25125 6.83056 3.71382 6.07529 4.15892C6.06062 4.16756 6.04641 4.17694 6.0327 4.18703L2.0392 7.12717C1.32023 7.57433 1.32023 8.62558 2.03919 9.07274L6.0327 12.0129C6.04641 12.023 6.06062 12.0324 6.07529 12.041C6.83056 12.4861 7.79997 11.9487 7.79997 11.0533V10.3857Z" fill="currentColor"/>
</svg>
