<svg width="16" height="16" viewBox="0 0 16 16" fill="none" xmlns="http://www.w3.org/2000/svg">
<path d="M6 12.5C6 12.2239 6.22386 12 6.5 12H9.5C9.77614 12 10 12.2239 10 12.5C10 12.7761 9.77614 13 9.5 13H6.5C6.22386 13 6 12.7761 6 12.5Z" fill="currentColor"/>
<path d="M3 8.06156C3 6.76042 4.23471 5.76463 5.53019 5.88585C6.23775 5.95206 7.07092 6.00001 8 6.00001C8.92908 6.00001 9.76225 5.95206 10.4698 5.88585C11.7653 5.76463 13 6.76042 13 8.06156V9.21923C13 9.6781 12.6875 10.075 12.2354 10.1536C11.3904 10.3006 9.8946 10.5 8 10.5C6.1054 10.5 4.60964 10.3006 3.76458 10.1536C3.3125 10.075 3 9.6781 3 9.21923V8.06156ZM7.54195 7.23502C7.46308 7.22159 7.38255 7.24673 7.32532 7.30263L6.40429 8.20223C5.67721 8.15848 5.04611 8.09005 4.53396 8.01983C4.39717 8.00108 4.27107 8.09677 4.25232 8.23356C4.23356 8.37035 4.32925 8.49644 4.46604 8.5152C5.01572 8.59056 5.69797 8.66371 6.48603 8.70781C6.55606 8.71173 6.62451 8.68606 6.67468 8.63705L7.42865 7.90062L8.27598 9.611C8.31213 9.68396 8.38155 9.73475 8.46203 9.74712C8.54251 9.75949 8.62397 9.73188 8.68036 9.67314L9.6124 8.70212C10.3589 8.65759 11.0073 8.5874 11.534 8.5152C11.6707 8.49644 11.7664 8.37035 11.7477 8.23356C11.7289 8.09677 11.6028 8.00108 11.466 8.01983C10.9283 8.09355 10.2594 8.16532 9.48603 8.2086C9.42289 8.21213 9.36343 8.23946 9.31964 8.28509L8.56605 9.07018L7.72402 7.37049C7.6885 7.2988 7.62082 7.24844 7.54195 7.23502Z" fill="currentColor"/>
<path d="M8.5 1.86622C8.7989 1.69331 9 1.37014 9 1C9 0.447715 8.55229 0 8 0C7.44772 0 7 0.447715 7 1C7 1.37014 7.2011 1.69331 7.5 1.86622V3H5.5C3.01472 3 1 5.01472 1 7.5V8C0.447715 8 0 8.44771 0 9V11C0 11.5523 0.447715 12 1 12V13C1 14.1046 1.89543 15 3 15H13C14.1046 15 15 14.1046 15 13V12C15.5523 12 16 11.5523 16 11V9C16 8.44771 15.5523 8 15 8V7.5C15 5.01472 12.9853 3 10.5 3H8.5V1.86622ZM14 7.5V13C14 13.5523 13.5523 14 13 14H3C2.44772 14 2 13.5523 2 13V7.5C2 5.567 3.567 4 5.5 4H10.5C12.433 4 14 5.567 14 7.5Z" fill="currentColor"/>
</svg>
