<svg width="16" height="16" viewBox="0 0 16 16" fill="none" xmlns="http://www.w3.org/2000/svg">
<path d="M11.3333 14.0001V9.33341C11.3333 9.1566 11.2631 8.98703 11.1381 8.86201C11.013 8.73699 10.8435 8.66675 10.6667 8.66675H5.33329C5.15648 8.66675 4.98691 8.73699 4.86189 8.86201C4.73686 8.98703 4.66663 9.1566 4.66663 9.33341V14.0001M4.66663 2V4.66667C4.66663 4.84348 4.73686 5.01305 4.86189 5.13807C4.98691 5.2631 5.15648 5.33333 5.33329 5.33333H9.99996M10.1333 2C10.485 2.00501 10.8205 2.14878 11.0667 2.4L13.6 4.93333C13.8512 5.17951 13.995 5.51497 14 5.86667V12.6667C14 13.0203 13.8595 13.3594 13.6095 13.6095C13.3594 13.8595 13.0203 14 12.6667 14H3.33333C2.97971 14 2.64057 13.8595 2.39052 13.6095C2.14048 13.3594 2 13.0203 2 12.6667V3.33333C2 2.97971 2.14048 2.64057 2.39052 2.39052C2.64057 2.14048 2.97971 2 3.33333 2H10.1333Z" stroke="currentColor" stroke-width="1.33333" stroke-linecap="round" stroke-linejoin="round"/>
</svg>
