<svg width="16" height="16" viewBox="0 0 16 16" fill="none" xmlns="http://www.w3.org/2000/svg">
<path d="M1.33325 2.66667C1.33325 1.19391 4.31802 0 7.99992 0C11.6818 0 14.6665 1.19391 14.6665 2.66667V4C14.6665 5.47276 11.6818 6.66667 7.99992 6.66667C4.31802 6.66667 1.33325 5.47276 1.33325 4V2.66667Z" fill="currentColor"/>
<path d="M1.33325 6.33435V9.33332C1.33325 10.8061 4.31802 12 7.99992 12C11.6818 12 14.6665 10.8061 14.6665 9.33332V6.33435C14.2368 6.65318 13.7354 6.91308 13.2091 7.12358C11.8094 7.68348 9.96707 7.99999 7.99992 7.99999C6.03277 7.99999 4.19045 7.68348 2.79069 7.12358C2.26444 6.91308 1.76295 6.65318 1.33325 6.33435Z" fill="currentColor"/>
<path d="M14.6665 11.6677C14.2368 11.9865 13.7354 12.2464 13.2091 12.4569C11.8094 13.0168 9.96707 13.3333 7.99992 13.3333C6.03277 13.3333 4.19045 13.0168 2.79069 12.4569C2.26444 12.2464 1.76295 11.9865 1.33325 11.6677V13.3333C1.33325 14.8061 4.31802 16 7.99992 16C11.6818 16 14.6665 14.8061 14.6665 13.3333V11.6677Z" fill="currentColor"/>
</svg>
