<svg width="16" height="16" viewBox="0 0 16 16" fill="none" xmlns="http://www.w3.org/2000/svg">
<path d="M9.29097 2.06934C9.29097 1.79102 9.03113 1.50011 8.64058 1.5H7.35933C6.96877 1.50011 6.70893 1.79102 6.70893 2.06934V3.41504L6.38374 3.53711L6.30366 3.56641L6.29097 3.57129C5.69815 3.7748 5.16059 4.05806 4.69136 4.43652L4.67964 4.44629L4.66792 4.45508L4.59761 4.50488L4.34663 4.68457L4.07319 4.53906L3.13276 4.04004C3.03582 3.98899 2.91615 3.95804 2.79683 3.95801C2.53814 3.95801 2.32166 4.08564 2.22358 4.24707L2.22065 4.25195L1.58003 5.28125L1.57905 5.2832C1.42313 5.5314 1.50049 5.87071 1.80854 6.0332L1.8144 6.03613L3.07515 6.7207L2.96479 7.16309C2.90202 7.47931 2.87593 7.75324 2.87593 8.00488C2.87593 8.2557 2.9015 8.52884 2.96382 8.84375L2.9814 8.91309L3.07515 9.28906L1.8144 9.97363C1.53503 10.1262 1.44701 10.4019 1.53218 10.6318L1.57905 10.7266L1.58003 10.7285L2.22065 11.7578C2.33343 11.9312 2.54741 12.0518 2.79683 12.0518C2.88663 12.0517 2.97632 12.0342 3.05659 12.0039L3.13374 11.9697L4.06929 11.4629L4.3437 11.3135L4.59761 11.4951L4.66792 11.5449L4.67964 11.5537L4.69136 11.5635C5.10501 11.8971 5.56813 12.1606 6.06831 12.3496L6.28413 12.4268L6.2939 12.4297L6.30366 12.4336L6.38374 12.4629L6.70893 12.585V13.9307C6.70893 14.209 6.96877 14.4999 7.35933 14.5H8.64058C9.03113 14.4999 9.29097 14.209 9.29097 13.9307V12.585L9.61616 12.4629L9.69624 12.4336L9.70893 12.4287C10.3017 12.2252 10.8393 11.9419 11.3085 11.5635L11.3202 11.5537L11.3319 11.5449L11.4022 11.4951L11.6562 11.3135L11.9306 11.4629L12.8651 11.9697C12.9622 12.0211 13.0833 12.0517 13.203 12.0518C13.4618 12.0518 13.6782 11.9242 13.7763 11.7627L13.7792 11.7578L14.4198 10.7285L14.4208 10.7266C14.5766 10.4784 14.4994 10.139 14.1913 9.97656L14.1854 9.97363L12.9247 9.28906L13.0185 8.91309L13.0351 8.84375C13.0974 8.52876 13.1239 8.25575 13.1239 8.00488C13.1239 7.75319 13.0969 7.47939 13.0341 7.16309L13.0185 7.09668L12.9247 6.7207L14.1845 6.03711L14.2929 5.96484C14.5186 5.78057 14.555 5.49685 14.4208 5.2832L14.4198 5.28125L13.7821 4.25684L13.7353 4.19336C13.6155 4.05219 13.4231 3.95801 13.203 3.95801C13.0834 3.95804 12.9632 3.98777 12.8661 4.03906L12.8671 4.04004L11.9267 4.53906L11.6532 4.68457L11.4022 4.50488L11.3319 4.45508L11.3202 4.44629L11.3085 4.43652C10.8359 4.05533 10.2992 3.76445 9.71577 3.57324L9.706 3.57031L9.69624 3.56641L9.61616 3.53711L9.29097 3.41504V2.06934ZM10.2909 2.7168C10.8091 2.91318 11.2945 3.17848 11.7382 3.50684L12.3983 3.15625C12.6413 3.0278 12.9226 2.95804 13.203 2.95801C13.7009 2.95801 14.1803 3.1707 14.4989 3.54785L14.6259 3.71875L14.6288 3.72363L15.2675 4.75098C15.7545 5.52616 15.4438 6.48969 14.663 6.91504L14.662 6.91602L14.0624 7.24023C14.1035 7.51012 14.1239 7.76221 14.1239 8.00488C14.1239 8.24724 14.1033 8.49908 14.0624 8.76855L14.6562 9.0918C15.4482 9.50906 15.7518 10.4879 15.2675 11.2588L14.6288 12.2861C14.3259 12.7813 13.7631 13.0518 13.203 13.0518C12.9226 13.0517 12.6423 12.982 12.3993 12.8535L12.3944 12.8516L11.7362 12.4941C11.29 12.8227 10.8046 13.0815 10.2909 13.2803V13.9307C10.2909 14.8314 9.51061 15.4999 8.64058 15.5H7.35933C6.48929 15.4999 5.70893 14.8314 5.70893 13.9307V13.2822C5.19131 13.086 4.70591 12.8221 4.26265 12.4941L3.60542 12.8516L3.60054 12.8535C3.35752 12.982 3.07728 13.0517 2.79683 13.0518C2.22785 13.0518 1.68225 12.7748 1.37397 12.291L1.37104 12.2861L0.732368 11.2588C0.245322 10.4836 0.556006 9.52007 1.33686 9.09473L1.93647 8.76855C1.89554 8.49913 1.87593 8.2472 1.87593 8.00488C1.87593 7.76225 1.89542 7.51006 1.93647 7.24023L1.34272 6.91797C0.550734 6.50068 0.248057 5.52181 0.732368 4.75098L1.37104 3.72363C1.67395 3.22856 2.23683 2.95801 2.79683 2.95801C3.07724 2.95804 3.35754 3.0278 3.60054 3.15625L4.26069 3.50586C4.70755 3.17657 5.19444 2.91781 5.70893 2.71875V2.06934C5.70893 1.16862 6.48929 0.500113 7.35933 0.5H8.64058C9.51061 0.500113 10.2909 1.16862 10.2909 2.06934V2.7168Z" fill="currentColor"/>
<path d="M8 6C9.1 6 10 6.9 10 8C10 9.1 9.1 10 8 10C6.9 10 6 9.1 6 8C6 6.9 6.9 6 8 6ZM8 5C6.35 5 5 6.35 5 8C5 9.65 6.35 11 8 11C9.65 11 11 9.65 11 8C11 6.35 9.65 5 8 5Z" fill="currentColor"/>
</svg>
