<svg width="16" height="16" viewBox="0 0 16 16" fill="none" xmlns="http://www.w3.org/2000/svg">
<path d="M7.27046 2.04714C7.66553 1.62573 8.33446 1.62572 8.72954 2.04714L15.0754 8.81608C15.6742 9.45474 15.2213 10.5 14.3459 10.5H11.5V13.5C11.5 14.0523 11.0523 14.5 10.5 14.5H5.5C4.94771 14.5 4.5 14.0523 4.5 13.5V10.5H1.65412C0.778674 10.5 0.325826 9.45474 0.924576 8.81608L7.27046 2.04714ZM14.3459 9.50002L8 2.73108L1.65412 9.50002H4.5C5.05228 9.50002 5.5 9.94774 5.5 10.5V13.5H10.5V10.5C10.5 9.94774 10.9477 9.50002 11.5 9.50002H14.3459Z" fill="currentColor"/>
</svg>
