<svg width="16" height="16" viewBox="0 0 16 16" fill="none" xmlns="http://www.w3.org/2000/svg">
<path d="M8.74998 5.99999V7.00007C8.89039 7.30141 9.08792 7.61725 9.33748 7.94999C9.87449 8.66601 10.597 9.3899 11.3536 10.1464L10.6464 10.8536L10.6309 10.838C9.97864 10.1858 9.30147 9.50861 8.74998 8.82318V12H7.24998V5.99999H6.03374C5.82178 5.99999 5.70599 5.75278 5.84168 5.58994L7.80792 3.23046C7.90787 3.11052 8.09209 3.11052 8.19204 3.23046L10.1583 5.58994C10.294 5.75278 10.1782 5.99999 9.96622 5.99999H8.74998Z" fill="currentColor"/>
<path fill-rule="evenodd" clip-rule="evenodd" d="M9.04941 0.434679C8.46984 -0.144892 7.53017 -0.144894 6.95059 0.434678L0.434679 6.95059C-0.144892 7.53016 -0.144894 8.46983 0.434678 9.04941L6.95059 15.5653C7.53016 16.1449 8.46983 16.1449 9.04941 15.5653L15.5653 9.04941C16.1449 8.46984 16.1449 7.53017 15.5653 6.95059L9.04941 0.434679ZM7.6502 1.13428C7.84339 0.941093 8.15661 0.941093 8.3498 1.13428L14.8657 7.6502C15.0589 7.84339 15.0589 8.15661 14.8657 8.3498L8.3498 14.8657C8.15661 15.0589 7.84339 15.0589 7.6502 14.8657L1.13428 8.3498C0.941093 8.15661 0.941093 7.84339 1.13428 7.6502L7.6502 1.13428Z" fill="currentColor"/>
</svg>
