<svg width="16" height="16" viewBox="0 0 16 16" fill="none" xmlns="http://www.w3.org/2000/svg">
<path d="M3.16028 10.0791C2.22864 10.0791 1.71302 9.58691 1.66614 8.94824H2.31946C2.38392 9.29395 2.71497 9.53125 3.21009 9.53125C3.7345 9.53125 4.03919 9.28516 4.03919 8.91016C4.03919 8.6084 3.83704 8.44433 3.40345 8.33887L2.7472 8.1748C2.13782 8.02831 1.76868 7.66504 1.76868 7.09668C1.76868 6.39062 2.36634 5.91309 3.21302 5.91309C4.06556 5.91309 4.59876 6.3877 4.64856 7H4.00403C3.93958 6.68066 3.65247 6.45801 3.20716 6.45801C2.73548 6.45801 2.43665 6.7041 2.43665 7.05859C2.43665 7.31934 2.63294 7.49512 2.99036 7.58008L3.64368 7.74121C4.31751 7.90527 4.70423 8.22754 4.70423 8.85155C4.70423 9.5869 4.13001 10.0791 3.16028 10.0791Z" fill="currentColor"/>
<path d="M6.58691 6.56934V10H5.92187V6.56934H4.75293V6.00098H7.75879V6.56934H6.58691Z" fill="currentColor"/>
<path fill-rule="evenodd" clip-rule="evenodd" d="M11.0449 7.72949V8.27441C11.0449 9.40527 10.4091 10.0791 9.38379 10.0791C8.3584 10.0791 7.71973 9.40527 7.71973 8.27441V7.72949C7.71973 6.59276 8.3584 5.92188 9.38379 5.92188C10.4091 5.92188 11.0449 6.5957 11.0449 7.72949ZM10.3711 8.27734V7.72363C10.3711 6.89746 9.94922 6.49023 9.38379 6.49023C8.8125 6.49023 8.39356 6.89746 8.39356 7.72363V8.27734C8.39356 9.10645 8.8125 9.51367 9.38379 9.51367C9.94922 9.51367 10.3711 9.10645 10.3711 8.27734Z" fill="currentColor"/>
<path fill-rule="evenodd" clip-rule="evenodd" d="M11.5214 6.00098H13.0565C13.8768 6.00098 14.372 6.55176 14.372 7.29297C14.372 8.04004 13.871 8.58203 13.0507 8.58203H12.1864V10H11.5214V6.00098ZM12.9569 8.03711C13.4198 8.03711 13.6923 7.76465 13.6923 7.29297C13.6923 6.82129 13.4198 6.55176 12.9569 6.55176H12.1835V8.03711H12.9569Z" fill="currentColor"/>
<path fill-rule="evenodd" clip-rule="evenodd" d="M4.8934 0C4.76079 0 4.63361 0.0526784 4.53984 0.146447L0.146447 4.53984C0.0526784 4.63361 0 4.76079 0 4.8934V11.1066C0 11.2392 0.0526784 11.3664 0.146447 11.4602L4.53984 15.8536C4.63361 15.9473 4.76079 16 4.8934 16H11.1066C11.2392 16 11.3664 15.9473 11.4602 15.8536L15.8536 11.4602C15.9473 11.3664 16 11.2392 16 11.1066V4.8934C16 4.76079 15.9473 4.63361 15.8536 4.53984L11.4602 0.146447C11.3664 0.0526784 11.2392 0 11.1066 0H4.8934ZM1 5.1005L5.1005 1H10.8995L15 5.10051V10.8995L10.8995 15H5.10051L1 10.8995V5.1005Z" fill="currentColor"/>
</svg>
