<svg width="16" height="16" viewBox="0 0 16 16" fill="none" xmlns="http://www.w3.org/2000/svg">
<path d="M7.24997 5.99999V7.00007C7.10956 7.30141 6.91202 7.61725 6.66247 7.94999C6.12546 8.66601 5.40295 9.3899 4.64642 10.1464L5.35352 10.8536L5.3691 10.838C6.02131 10.1858 6.69848 9.50861 7.24997 8.82318V12H8.74997V5.99999H9.96621C10.1782 5.99999 10.294 5.75278 10.1583 5.58994L8.19202 3.23046C8.09208 3.11052 7.90786 3.11052 7.80791 3.23046L5.84167 5.58994C5.70598 5.75278 5.82177 5.99999 6.03373 5.99999H7.24997Z" fill="currentColor"/>
<path d="M9.04941 0.434679C8.46984 -0.144892 7.53017 -0.144894 6.95059 0.434678L0.434679 6.95059C-0.144892 7.53016 -0.144894 8.46983 0.434678 9.04941L6.95059 15.5653C7.53016 16.1449 8.46983 16.1449 9.04941 15.5653L15.5653 9.04941C16.1449 8.46984 16.1449 7.53017 15.5653 6.95059L9.04941 0.434679ZM7.6502 1.13428C7.84339 0.941093 8.15661 0.941093 8.3498 1.13428L14.8657 7.6502C15.0589 7.84339 15.0589 8.15661 14.8657 8.3498L8.3498 14.8657C8.15661 15.0589 7.84339 15.0589 7.6502 14.8657L1.13428 8.3498C0.941093 8.15661 0.941093 7.84339 1.13428 7.6502L7.6502 1.13428Z" fill="currentColor"/>
</svg>
