<svg width="16" height="16" viewBox="0 0 16 16" fill="none" xmlns="http://www.w3.org/2000/svg">
<path d="M8.00001 0C7.72387 0 7.50001 0.223858 7.50001 0.5V1.79289L6.85356 1.14645C6.6583 0.951184 6.34172 0.951184 6.14645 1.14645C5.95119 1.34171 5.95119 1.65829 6.14645 1.85355L7.50001 3.20711V4.29289L6.85356 3.64645C6.6583 3.45118 6.34172 3.45118 6.14645 3.64645C5.95119 3.84171 5.95119 4.15829 6.14645 4.35355L7.50001 5.70711V7.134L6.26427 6.42054L5.76883 4.57156C5.69736 4.30482 5.42319 4.14653 5.15646 4.218C4.88973 4.28947 4.73144 4.56364 4.80291 4.83037L5.03952 5.71344L4.0992 5.17054L3.60377 3.32156C3.5323 3.05482 3.25813 2.89653 2.9914 2.968C2.72466 3.03947 2.56637 3.31364 2.63784 3.58038L2.87446 4.46344L1.75478 3.81699C1.51563 3.67892 1.20984 3.76086 1.07177 4C0.9337 4.23915 1.01563 4.54494 1.25478 4.68302L2.37446 5.32946L1.4914 5.56608C1.22466 5.63755 1.06637 5.91172 1.13784 6.17845C1.20931 6.44518 1.48348 6.60348 1.75022 6.532L3.5992 6.03657L4.53952 6.57946L3.65646 6.81608C3.38973 6.88755 3.23144 7.16172 3.30291 7.42845C3.37438 7.69518 3.64855 7.85348 3.91528 7.782L5.76427 7.28657L6.99999 8.00001L5.7643 8.71343L3.91532 8.218C3.64858 8.14653 3.37441 8.30482 3.30294 8.57155C3.23147 8.83829 3.38976 9.11245 3.6565 9.18392L4.53956 9.42054L3.59924 9.96343L1.75025 9.468C1.48352 9.39653 1.20935 9.55482 1.13788 9.82155C1.06641 10.0883 1.2247 10.3625 1.49143 10.4339L2.3745 10.6705L1.25482 11.317C1.01567 11.4551 0.933736 11.7609 1.0718 12C1.20988 12.2391 1.51567 12.3211 1.75482 12.183L2.8745 11.5366L2.63788 12.4196C2.56641 12.6864 2.7247 12.9605 2.99143 13.032C3.25817 13.1035 3.53234 12.9452 3.60381 12.6784L4.09924 10.8295L5.03956 10.2866L4.80294 11.1696C4.73147 11.4364 4.88976 11.7105 5.1565 11.782C5.42323 11.8535 5.6974 11.6952 5.76887 11.4284L6.2643 9.57946L7.50001 8.86603V10.2929L6.14645 11.6464C5.95119 11.8417 5.95119 12.1583 6.14645 12.3536C6.34172 12.5488 6.6583 12.5488 6.85356 12.3536L7.50001 11.7071V12.7929L6.14645 14.1464C5.95119 14.3417 5.95119 14.6583 6.14645 14.8536C6.34172 15.0488 6.6583 15.0488 6.85356 14.8536L7.50001 14.2071V15.5C7.50001 15.7761 7.72387 16 8.00001 16C8.27615 16 8.50001 15.7761 8.50001 15.5V14.2071L9.14646 14.8536C9.34172 15.0488 9.6583 15.0488 9.85356 14.8536C10.0488 14.6583 10.0488 14.3417 9.85356 14.1464L8.50001 12.7929V11.7071L9.14646 12.3536C9.34172 12.5488 9.6583 12.5488 9.85356 12.3536C10.0488 12.1583 10.0488 11.8417 9.85356 11.6464L8.50001 10.2929V8.86605L9.73567 9.57946L10.2311 11.4285C10.3026 11.6952 10.5767 11.8535 10.8435 11.782C11.1102 11.7105 11.2685 11.4364 11.197 11.1696L10.9604 10.2866L11.9007 10.8295L12.3962 12.6785C12.4676 12.9452 12.7418 13.1035 13.0085 13.032C13.2753 12.9605 13.4336 12.6864 13.3621 12.4196L13.1255 11.5366L14.2451 12.183C14.4843 12.3211 14.7901 12.2392 14.9282 12C15.0662 11.7609 14.9843 11.4551 14.7451 11.317L13.6255 10.6705L14.5085 10.4339C14.7753 10.3625 14.9336 10.0883 14.8621 9.82156C14.7906 9.55482 14.5164 9.39653 14.2497 9.468L12.4007 9.96344L11.4604 9.42054L12.3435 9.18393C12.6102 9.11246 12.7685 8.83829 12.697 8.57156C12.6255 8.30482 12.3514 8.14653 12.0846 8.218L10.2357 8.71344L8.99999 8.00001L10.2357 7.28657L12.0847 7.782C12.3514 7.85347 12.6256 7.69518 12.6971 7.42845C12.7685 7.16171 12.6102 6.88755 12.3435 6.81607L11.4604 6.57946L12.4008 6.03657L14.2497 6.532C14.5165 6.60347 14.7906 6.44518 14.8621 6.17845C14.9336 5.91171 14.7753 5.63755 14.5086 5.56607L13.6255 5.32946L14.7452 4.68301C14.9843 4.54494 15.0663 4.23915 14.9282 4C14.7901 3.76085 14.4843 3.67892 14.2452 3.81699L13.1255 4.46343L13.3621 3.58037C13.4336 3.31364 13.2753 3.03947 13.0086 2.968C12.7418 2.89653 12.4677 3.05482 12.3962 3.32155L11.9008 5.17054L10.9604 5.71343L11.1971 4.83037C11.2685 4.56364 11.1102 4.28947 10.8435 4.218C10.5768 4.14653 10.3026 4.30482 10.2311 4.57155L9.73571 6.42054L8.50001 7.13397V5.70711L9.85356 4.35355C10.0488 4.15829 10.0488 3.84171 9.85356 3.64645C9.6583 3.45118 9.34172 3.45118 9.14646 3.64645L8.50001 4.29289V3.20711L9.85356 1.85355C10.0488 1.65829 10.0488 1.34171 9.85356 1.14645C9.6583 0.951184 9.34172 0.951184 9.14646 1.14645L8.50001 1.79289V0.5C8.50001 0.223858 8.27615 0 8.00001 0Z" fill="currentColor"/>
</svg>
