<svg width="16" height="16" viewBox="0 0 16 16" fill="none" xmlns="http://www.w3.org/2000/svg">
<path d="M7.91797 8.41405H7.03906V7.34179H7.87695C8.65625 7.34179 9.22461 6.8203 9.21875 6.10546C9.21875 5.39647 8.65625 4.91015 7.87109 4.91015C7.08008 4.91015 6.55859 5.40819 6.52344 5.96483H5.27539C5.31055 4.82811 6.22461 3.8496 7.90039 3.84374C9.49414 3.83202 10.5078 4.72851 10.5371 5.90624C10.5605 7.04296 9.65234 7.68163 9.05469 7.78124V7.85155C9.75781 7.92187 10.7656 8.49022 10.7891 9.76757C10.8125 11.2266 9.51172 12.1641 7.85938 12.1641C6.1543 12.1641 5.15234 11.1973 5.10547 10.0195H6.33008C6.38867 10.6172 7.00977 11.0801 7.87109 11.0859C8.84375 11.0918 9.4707 10.5234 9.45898 9.73241C9.45312 8.95311 8.83789 8.41405 7.91797 8.41405Z" fill="currentColor"/>
<path d="M0 2C0 0.895431 0.895431 0 2 0H14C15.1046 0 16 0.895431 16 2V14C16 15.1046 15.1046 16 14 16H2C0.895431 16 0 15.1046 0 14V2ZM15 2C15 1.44772 14.5523 1 14 1H2C1.44772 1 1 1.44772 1 2V14C1 14.5523 1.44772 15 2 15H14C14.5523 15 15 14.5523 15 14V2Z" fill="currentColor"/>
</svg>
