<svg width="17" height="16" viewBox="0 0 17 16" fill="none" xmlns="http://www.w3.org/2000/svg">
<path d="M5.35423 5.11885L7.53835 0.792305C7.63645 0.597985 7.81813 0.500551 8.00004 0.500002C8.18298 0.499451 8.36617 0.596887 8.46482 0.792307L10.649 5.11885L15.5475 5.81472C15.8146 5.85267 15.9824 6.0781 16.0001 6.31968C16.0021 6.34769 16.0022 6.37593 16.0001 6.40411C15.9905 6.53408 15.9363 6.66299 15.8297 6.76462L12.3073 10.1213L13.1371 14.8508C13.2149 15.2942 12.7773 15.6413 12.3909 15.4427L8.00159 13.1868L3.61236 15.4427C3.56406 15.4675 3.51495 15.4838 3.46616 15.4925C3.12458 15.5531 2.79808 15.2388 2.86615 14.8508L3.69588 10.1213L0.17355 6.76462C0.0552516 6.65189 0.00147328 6.50559 0.00158709 6.36151C0.00167121 6.25501 0.0311982 6.14972 0.0858764 6.06009C0.163068 5.93355 0.290388 5.83821 0.455759 5.81472L5.35423 5.11885ZM8.00004 12.0265C8.07957 12.0263 8.15914 12.045 8.23242 12.0826L11.9182 13.977L11.224 10.0197C11.1912 9.83316 11.2528 9.64214 11.3867 9.5145L14.2935 6.7444L10.2412 6.16874C10.0737 6.14494 9.92741 6.03795 9.84838 5.88141L8.00159 2.22308L8.00004 2.22614V12.0265Z" fill="currentColor"/>
</svg>
