<svg width="16" height="16" viewBox="0 0 16 16" fill="none" xmlns="http://www.w3.org/2000/svg">
<path d="M4.1889 11.1819C4.54028 11.182 4.82463 11.4672 4.82463 11.8186C4.82463 12.17 4.54028 12.4551 4.1889 12.4552H4.18238C3.83093 12.4552 3.54572 12.17 3.54572 11.8186C3.54572 11.4671 3.83093 11.1819 4.18238 11.1819H4.1889Z" fill="currentColor"/>
<path fill-rule="evenodd" clip-rule="evenodd" d="M13.091 8.63623C14.1451 8.63623 14.9997 9.49123 15 10.5452V13.091C15 14.1453 14.1453 15 13.091 15H2.90905C1.85485 14.9998 1 14.1452 1 13.091V10.5452C1.00033 9.49133 1.85506 8.6364 2.90905 8.63623H13.091ZM3 10C2.6489 10.0002 2.27365 10.1942 2.27332 10.5452V13.091C2.27332 13.4423 2.55775 13.7274 2.90905 13.7276H13.091C13.4424 13.7276 13.7276 13.4424 13.7276 13.091V10.5452C13.7273 10.1941 13.4422 10 13.091 10H3Z" fill="currentColor"/>
<path d="M4.1889 3.54565C4.54028 3.54574 4.82463 3.83092 4.82463 4.18231C4.82463 4.5337 4.54028 4.81888 4.1889 4.81897H4.18238C3.83093 4.81897 3.54572 4.53376 3.54572 4.18231C3.54572 3.83086 3.83093 3.54565 4.18238 3.54565H4.1889Z" fill="currentColor"/>
<path fill-rule="evenodd" clip-rule="evenodd" d="M13.091 1C14.1451 1 14.9997 1.85499 15 2.90905V5.45476C15 6.5091 14.1453 7.36381 13.091 7.36381H2.90905C1.85485 7.36364 1 6.50899 1 5.45476V2.90905C1.00033 1.8551 1.85506 1.00017 2.90905 1H13.091ZM2.90905 2.27332C2.55795 2.27349 2.27365 2.55799 2.27332 2.90905V5.45476C2.27332 5.8061 2.55775 6.09125 2.90905 6.09142H13.091C13.4424 6.09142 13.7276 5.8062 13.7276 5.45476V2.90905C13.7273 2.55789 13.4422 2.27332 13.091 2.27332H2.90905Z" fill="currentColor"/>
</svg>
