<svg width="16" height="16" viewBox="0 0 16 16" fill="none" xmlns="http://www.w3.org/2000/svg">
<path d="M8 6.23607L7.10557 4.44721C6.884 4.00407 6.49875 3.36653 5.95408 2.8518C5.41783 2.34503 4.77649 2 4 2C2.324 2 1 3.32628 1 4.92C1 6.13107 1.55373 6.98577 2.86822 8.29002C3.20476 8.62393 3.58935 8.98486 4.01356 9.38298C5.12195 10.4232 6.50087 11.7173 8 13.4467C9.49914 11.7173 10.878 10.4232 11.9864 9.38298C12.4107 8.98486 12.7952 8.62393 13.1318 8.29002C14.4463 6.98577 15 6.13107 15 4.92C15 3.32628 13.676 2 12 2C11.2235 2 10.5822 2.34503 10.0459 2.8518C9.50125 3.36653 9.116 4.00407 8.89443 4.44721L8 6.23607ZM8.39151 14.5278C8.18771 14.7698 7.81229 14.7698 7.60849 14.5278C6.00693 12.6261 4.55819 11.2664 3.36507 10.1467C1.29947 8.20811 0 6.98855 0 4.92C0 2.75504 1.79086 1 4 1C5.60015 1 6.71852 2.04931 7.40353 3.00786C7.66423 3.37267 7.86217 3.72433 8 4C8.13783 3.72433 8.33577 3.37267 8.59647 3.00787C9.28148 2.04932 10.3998 1 12 1C14.2091 1 16 2.75504 16 4.92C16 6.98855 14.7005 8.20811 12.6349 10.1467C11.4418 11.2664 9.99307 12.6261 8.39151 14.5278Z" fill="currentColor"/>
</svg>
