<svg width="16" height="16" viewBox="0 0 16 16" fill="none" xmlns="http://www.w3.org/2000/svg">
<path d="M7 2.50005C7 2.27149 6.84502 2.07202 6.62354 2.01555C6.40207 1.95908 6.1705 2.05997 6.06105 2.26062L0.0610523 13.2607C-0.02345 13.4156 -0.0200302 13.6036 0.0700507 13.7553C0.160132 13.9071 0.323532 14.0001 0.5 14.0001H6.5C6.77614 14.0001 7 13.7762 7 13.5001V2.50005Z" fill="currentColor"/>
<path d="M9.37646 2.01555C9.59793 1.95908 9.8295 2.05997 9.93895 2.26062L15.9389 13.2607C16.0234 13.4156 16.02 13.6036 15.9299 13.7553C15.8399 13.9071 15.6765 14.0001 15.5 14.0001H9.5C9.22386 14.0001 9 13.7762 9 13.5001V2.50005C9 2.27149 9.15498 2.07202 9.37646 2.01555ZM10 4.46088V13.0001H14.6577L10 4.46088Z" fill="currentColor"/>
</svg>
