<svg width="16" height="16" viewBox="0 0 16 16" fill="none" xmlns="http://www.w3.org/2000/svg">
<path d="M9.45508 1C10.0334 1.0001 10.588 1.22177 10.9971 1.61523C11.4061 2.00896 11.6366 2.54378 11.6367 3.10059V3.7998H13.8184C15.0231 3.79987 15.9998 4.74085 16 5.90039V12.9004C15.9998 14.0599 15.0232 14.9999 13.8184 15H2.18164C0.977012 14.9997 0.000174126 14.0598 0 12.9004V5.90039C0.000191788 4.74096 0.977023 3.80006 2.18164 3.7998H4.36328V3.10059C4.36338 2.54378 4.59385 2.00896 5.00293 1.61523C5.41189 1.22175 5.96667 1.00019 6.54492 1H9.45508ZM11.6367 13.6006H13.8184C14.2198 13.6005 14.5457 13.2868 14.5459 12.9004V5.90039C14.5457 5.51401 14.2198 5.20124 13.8184 5.20117H11.6367V13.6006ZM5.81836 13.6006H10.1826V5.20117H5.81836V13.6006ZM2.18164 5.20117C1.78033 5.20142 1.45527 5.51412 1.45508 5.90039V12.9004C1.45525 13.2867 1.78032 13.6003 2.18164 13.6006H4.36328V5.20117H2.18164ZM6.54492 2.40137C6.35231 2.40156 6.16844 2.47534 6.03223 2.60645C5.89593 2.73763 5.81845 2.91507 5.81836 3.10059V3.7998H10.1826V3.10059C10.1825 2.91544 10.1055 2.73756 9.96973 2.60645C9.83343 2.47526 9.64782 2.40147 9.45508 2.40137H6.54492Z" fill="currentColor"/>
</svg>
