<svg width="16" height="16" viewBox="0 0 16 16" fill="none" xmlns="http://www.w3.org/2000/svg">
<path d="M5 16H3V14.666C2.82345 14.6657 2.6542 14.5955 2.52936 14.4706C2.40452 14.3458 2.33426 14.1766 2.334 14V11.334C2.334 11.1573 2.40414 10.9878 2.52901 10.8627C2.65388 10.7377 2.82327 10.6673 3 10.667H4V9.667C4.02602 8.86072 4.36531 8.09635 4.94581 7.53619C5.52632 6.97604 6.30231 6.66424 7.109 6.667H8.892C9.69852 6.6645 10.4743 6.97642 11.0545 7.53654C11.6348 8.09667 11.974 8.8609 12 9.667V10.667H13C13.1768 10.6673 13.3463 10.7376 13.4713 10.8627C13.5964 10.9877 13.6667 11.1572 13.667 11.334V14C13.6667 14.1767 13.5963 14.3461 13.4713 14.471C13.3462 14.5959 13.1767 14.666 13 14.666V16H11V14.666H5V16ZM3 13.334V13.99H13V13.334H10.5V13.323C10.4997 13.2346 10.4644 13.1499 10.4018 13.0875C10.3392 13.0251 10.2544 12.99 10.166 12.99H5.833C5.74468 12.99 5.65998 13.0251 5.59753 13.0875C5.53508 13.15 5.5 13.2347 5.5 13.323V13.334H3ZM11.834 11.407C11.6857 11.4072 11.5408 11.4514 11.4176 11.5339C11.2944 11.6164 11.1984 11.7336 11.1418 11.8707C11.0852 12.0077 11.0705 12.1585 11.0995 12.3039C11.1286 12.4493 11.2001 12.5829 11.305 12.6877C11.41 12.7925 11.5436 12.8638 11.689 12.8927C11.8345 12.9215 11.9853 12.9066 12.1222 12.8498C12.2592 12.793 12.3763 12.6969 12.4587 12.5736C12.541 12.4503 12.585 12.3053 12.585 12.157C12.5847 11.958 12.5055 11.7672 12.3647 11.6266C12.2239 11.486 12.033 11.407 11.834 11.407ZM4.147 11.407C3.99866 11.407 3.85366 11.451 3.73032 11.5334C3.60699 11.6158 3.51086 11.7329 3.45409 11.87C3.39732 12.007 3.38247 12.1578 3.41141 12.3033C3.44035 12.4488 3.51178 12.5824 3.61667 12.6873C3.72156 12.7922 3.8552 12.8636 4.00068 12.8926C4.14617 12.9215 4.29697 12.9067 4.43401 12.8499C4.57106 12.7931 4.68819 12.697 4.7706 12.5737C4.85301 12.4503 4.897 12.3053 4.897 12.157C4.89673 11.958 4.8175 11.7672 4.67668 11.6266C4.53587 11.486 4.346 11.407 4.147 11.407ZM8 7.667C5 7.667 5 9.124 5 10.667H11V10.656C11.0782 9.94521 10.9479 9.22702 10.625 8.589C10.2 7.96 9.368 7.667 8 7.667ZM1 14.991H0V5.991H3.34L3.334 0H10.334V3.99H16V14.99H15V5H10.333V6H9.333V1H4.333L4.325 7H1V14.99V14.991ZM14 8.991H13V7.991H14V8.991ZM3 8.991H2V7.991H3V8.991ZM14 6.991H13V5.991H14V6.991ZM8.333 5H7.333V4H8.333V5ZM6.333 5H5.333V4H6.333V5ZM8.333 3H7.333V2H8.333V3ZM6.333 3H5.333V1.99L6.333 2V3Z" fill="currentColor"/>
</svg>
