<svg width="16" height="16" viewBox="0 0 16 16" fill="none" xmlns="http://www.w3.org/2000/svg">
<path d="M7.79199 0.312008L6.25912 2.61131C6.14836 2.77745 6.26746 2.99999 6.46713 2.99999H7.5V10.3187C7.34295 10.2009 7.17047 10.1005 6.9848 10.0209L5.90912 9.55991C5.3576 9.32354 5 8.78123 5 8.18119V7.91463C5.5826 7.70871 6 7.15309 6 6.49998C6 5.67156 5.32843 4.99998 4.5 4.99998C3.67157 4.99998 3 5.67156 3 6.49998C3 7.15309 3.4174 7.70871 4 7.91463V8.18119C4 9.18126 4.59599 10.0851 5.5152 10.4791L6.59088 10.9401C7.06445 11.143 7.39504 11.5716 7.47903 12.0685C6.62708 12.2978 6 13.0757 6 14C6 15.1046 6.89543 16 8 16C9.10457 16 10 15.1046 10 14C10 13.0681 9.36261 12.285 8.5 12.063V11.1607C8.5 10.6224 8.78843 10.1253 9.25579 9.85826L10.7403 9.00995C11.4726 8.59154 11.9413 7.83449 11.9948 6.99998H12.75C12.8881 6.99998 13 6.88806 13 6.74999V4.24999C13 4.11191 12.8881 3.99999 12.75 3.99999H10.25C10.1119 3.99999 10 4.11191 10 4.24998V6.74998C10 6.88806 10.1119 6.99998 10.25 6.99998H10.9914C10.9403 7.47508 10.6647 7.90145 10.2442 8.1417L8.75965 8.99002C8.66896 9.04184 8.58232 9.09886 8.5 9.16058V2.99999H9.53287C9.73254 2.99999 9.85164 2.77745 9.74088 2.61131L8.20801 0.312008C8.10906 0.163575 7.89094 0.163575 7.79199 0.312008Z" fill="currentColor"/>
</svg>
