<svg width="16" height="16" viewBox="0 0 16 16" fill="none" xmlns="http://www.w3.org/2000/svg">
<path d="M13.3333 8.66664C13.3333 12 11 13.6667 8.22669 14.6333C8.08146 14.6825 7.92371 14.6802 7.78002 14.6267C5.00002 13.6667 2.66669 12 2.66669 8.66664V3.99997C2.66669 3.82316 2.73692 3.65359 2.86195 3.52857C2.98697 3.40355 3.15654 3.33331 3.33335 3.33331C4.66669 3.33331 6.33335 2.53331 7.49335 1.51997C7.63459 1.39931 7.81426 1.33301 8.00002 1.33301C8.18578 1.33301 8.36545 1.39931 8.50669 1.51997C9.67335 2.53997 11.3333 3.33331 12.6667 3.33331C12.8435 3.33331 13.013 3.40355 13.1381 3.52857C13.2631 3.65359 13.3333 3.82316 13.3333 3.99997V8.66664Z" stroke="currentColor" stroke-width="1.33333" stroke-linecap="round" stroke-linejoin="round"/>
</svg>
