<svg width="16" height="16" viewBox="0 0 16 16" fill="none" xmlns="http://www.w3.org/2000/svg">
<path fill-rule="evenodd" clip-rule="evenodd" d="M10.6464 0.646447C10.8417 0.451184 11.1583 0.451184 11.3536 0.646447L15.3536 4.64645C15.5488 4.84171 15.5488 5.15829 15.3536 5.35355L13.4515 7.25563L12.623 10.5694C12.4947 11.0827 12.1056 11.4903 11.5988 11.6424L1.25427 14.7457L4.35765 4.40116C4.50966 3.89445 4.91735 3.50528 5.43058 3.37697L8.74439 2.54852L10.6464 0.646447ZM8.84664 3.55373L5.67312 4.34711C5.50204 4.38988 5.36614 4.5196 5.31547 4.68851L2.74575 13.2543L11.3115 10.6845C11.4804 10.6339 11.6101 10.498 11.6529 10.3269L12.4463 7.15338L8.84664 3.55373Z" fill="currentColor"/>
<path fill-rule="evenodd" clip-rule="evenodd" d="M2.83197 13.2284L8.00006 9C8.55234 9 9.00006 8.55228 9.00006 8C9.00006 7.44772 8.55234 7 8.00006 7C7.44777 7 7.00006 7.44772 7.00006 8L2.7716 13.168L2.74575 13.2543L2.83197 13.2284Z" fill="currentColor"/>
</svg>
