<svg width="16" height="16" viewBox="0 0 16 16" fill="none" xmlns="http://www.w3.org/2000/svg">
<path d="M10.7062 3.29381C9.83482 3.10146 8.92923 3.00006 7.99996 3.00006C5.2587 3.00006 2.72354 3.88246 0.663013 5.37872C0.421541 5.55406 0.404336 5.90444 0.615351 6.11545C0.793893 6.294 1.07842 6.31197 1.28326 6.16434C3.17293 4.8024 5.49274 4.00006 7.99996 4.00006C8.63034 4.00006 9.24887 4.05078 9.8517 4.14836L10.7062 3.29381Z" fill="currentColor"/>
<path d="M8.00003 6.00006C6.09497 6.00006 4.32084 6.56081 2.83377 7.52625C2.57743 7.69268 2.5549 8.05498 2.77101 8.27109C2.94369 8.44377 3.21769 8.46775 3.42336 8.33609C4.46135 7.6716 5.65331 7.22652 6.9338 7.06628L8.00003 6.00006Z" fill="currentColor"/>
<path d="M10.5962 7.40386L11.3808 6.61926C12.0108 6.85922 12.6086 7.16429 13.1662 7.52624C13.4225 7.69267 13.445 8.05497 13.2289 8.27108C13.0562 8.44376 12.7822 8.46774 12.5766 8.33608C11.9654 7.94482 11.3008 7.62963 10.5962 7.40386Z" fill="currentColor"/>
<path d="M8 10L8.93345 9.06659C9.64843 9.16942 10.3259 9.38862 10.9458 9.70437C11.2308 9.84951 11.2722 10.2278 11.0459 10.4539L11.031 10.469C10.8706 10.6293 10.6234 10.6595 10.4198 10.5595C9.68952 10.2012 8.86826 10 8 10Z" fill="currentColor"/>
<path d="M12.9045 5.09545L13.652 4.34796C14.2421 4.64763 14.8053 4.99276 15.3368 5.37874C15.5783 5.55408 15.5955 5.90446 15.3845 6.11547C15.2059 6.29402 14.9214 6.31199 14.7165 6.16436C14.1491 5.75541 13.5429 5.39692 12.9045 5.09545Z" fill="currentColor"/>
<path d="M9.02045 11.7797C9.25782 11.9208 9.25583 12.2442 9.06057 12.4394L8.35346 13.1465C8.1582 13.3418 7.84162 13.3418 7.64636 13.1465L6.93925 12.4394C6.74399 12.2442 6.742 11.9208 6.97936 11.7797C7.27813 11.6021 7.62711 11.5001 7.99991 11.5001C8.37271 11.5001 8.72169 11.6021 9.02045 11.7797Z" fill="currentColor"/>
<path d="M13.3751 1.87506C13.5822 1.66795 13.918 1.66795 14.1251 1.87506C14.3322 2.08217 14.3322 2.41795 14.1251 2.62506L3.37506 13.3751C3.16795 13.5822 2.83216 13.5822 2.62506 13.3751C2.41795 13.168 2.41795 12.8322 2.62506 12.6251L13.3751 1.87506Z" fill="currentColor"/>
</svg>
