<svg width="16" height="16" viewBox="0 0 16 16" fill="none" xmlns="http://www.w3.org/2000/svg">
<path d="M13.2289 8.27103C13.445 8.05492 13.4225 7.69262 13.1662 7.52619C11.6791 6.56075 9.90504 6 7.99999 6C6.09493 6 4.32085 6.56075 2.83378 7.52619C2.57744 7.69262 2.5549 8.05492 2.77101 8.27103C2.94369 8.44371 3.2177 8.46769 3.42337 8.33603C4.74447 7.49031 6.31497 7 7.99999 7C9.68501 7 11.2555 7.49031 12.5766 8.33603C12.7822 8.46769 13.0563 8.44371 13.2289 8.27103Z" fill="currentColor"/>
<path d="M11.0459 10.4539C11.2721 10.2278 11.2307 9.84946 10.9457 9.70432C10.0614 9.25394 9.06034 9 7.99991 9C6.93947 9 5.93835 9.25394 5.05403 9.70432C4.76906 9.84946 4.72769 10.2278 4.95383 10.4539L4.96886 10.469C5.12924 10.6293 5.37647 10.6595 5.58009 10.5595C6.31031 10.2012 7.13161 10 7.99991 10C8.8682 10 9.6895 10.2012 10.4197 10.5595C10.6233 10.6595 10.8705 10.6293 11.0309 10.469L11.0459 10.4539Z" fill="currentColor"/>
<path d="M9.06057 12.4393C9.25583 12.2441 9.25782 11.9207 9.02045 11.7796C8.72168 11.602 8.37271 11.5 7.99991 11.5C7.62711 11.5 7.27813 11.602 6.97936 11.7796C6.742 11.9207 6.74398 12.2441 6.93925 12.4393L7.64635 13.1464C7.84162 13.3417 8.1582 13.3417 8.35346 13.1464L9.06057 12.4393Z" fill="currentColor"/>
</svg>
