<svg width="16" height="16" viewBox="0 0 16 16" fill="none" xmlns="http://www.w3.org/2000/svg">
<path d="M3.5 2C4.88071 2 6 3.11929 6 4.5C6 4.77614 6.22386 5 6.5 5C6.77614 5 7 4.77614 7 4.5C7 2.567 5.433 1 3.5 1C1.567 1 0 2.567 0 4.5C0 6.433 1.567 8 3.5 8H15.5C15.7761 8 16 7.77614 16 7.5C16 7.22386 15.7761 7 15.5 7H3.5C2.11929 7 1 5.88071 1 4.5C1 3.11929 2.11929 2 3.5 2ZM10.5 3C11.0523 3 11.5 3.44772 11.5 4C11.5 4.27614 11.7239 4.5 12 4.5C12.2761 4.5 12.5 4.27614 12.5 4C12.5 2.89543 11.6046 2 10.5 2C9.39543 2 8.5 2.89543 8.5 4C8.5 5.10457 9.39543 6 10.5 6H15.5C15.7761 6 16 5.77614 16 5.5C16 5.22386 15.7761 5 15.5 5H10.5C9.94772 5 9.5 4.55228 9.5 4C9.5 3.44772 9.94772 3 10.5 3ZM16 9.5C16 9.22386 15.7761 9 15.5 9H5.45833C3.80148 9 2.45833 10.3431 2.45833 12C2.45833 13.6569 3.80148 15 5.45833 15C7.11519 15 8.45833 13.6569 8.45833 12C8.45833 11.7239 8.23448 11.5 7.95833 11.5C7.68219 11.5 7.45833 11.7239 7.45833 12C7.45833 13.1046 6.5629 14 5.45833 14C4.35376 14 3.45833 13.1046 3.45833 12C3.45833 10.8954 4.35376 10 5.45833 10H15.5C15.7761 10 16 9.77614 16 9.5Z" fill="currentColor"/>
</svg>
