<svg width="16" height="16" viewBox="0 0 16 16" fill="none" xmlns="http://www.w3.org/2000/svg">
<path d="M4.16737 4.16737C4.39052 3.94421 4.75233 3.94421 4.97549 4.16737L8 7.19188L11.0245 4.16737C11.2477 3.94421 11.6095 3.94421 11.8326 4.16737C12.0558 4.39052 12.0558 4.75233 11.8326 4.97549L8.80812 8L11.8326 11.0245C12.0558 11.2477 12.0558 11.6095 11.8326 11.8326C11.6095 12.0558 11.2477 12.0558 11.0245 11.8326L8 8.80812L4.97549 11.8326C4.75233 12.0558 4.39052 12.0558 4.16737 11.8326C3.94421 11.6095 3.94421 11.2477 4.16737 11.0245L7.19188 8L4.16737 4.97549C3.94421 4.75233 3.94421 4.39052 4.16737 4.16737Z" fill="currentColor"/>
</svg>
