<svg width="16" height="16" viewBox="0 0 16 16" fill="none" xmlns="http://www.w3.org/2000/svg">
<path d="M7.64652 3.5C7.84178 3.69526 8.15836 3.69526 8.35363 3.5L11.1465 0.853554C11.4615 0.538572 11.2384 0 10.793 0H5.20718C4.76173 0 4.53864 0.53857 4.85363 0.853553L7.64652 3.5Z" fill="currentColor"/>
<path d="M7.50002 5.2C7.50002 5.08955 7.58957 5 7.70002 5H8.30002C8.41048 5 8.50002 5.08955 8.50002 5.2V5.8C8.50002 5.91046 8.41048 6 8.30002 6H7.70002C7.58957 6 7.50002 5.91046 7.50002 5.8V5.2Z" fill="currentColor"/>
<path d="M7.70002 7.5C7.58957 7.5 7.50002 7.58955 7.50002 7.7V8.3C7.50002 8.41046 7.58957 8.5 7.70002 8.5H8.30002C8.41048 8.5 8.50002 8.41046 8.50002 8.3V7.7C8.50002 7.58955 8.41048 7.5 8.30002 7.5H7.70002Z" fill="currentColor"/>
<path d="M7.50002 10.2C7.50002 10.0896 7.58957 10 7.70002 10H8.30002C8.41048 10 8.50002 10.0896 8.50002 10.2V10.8C8.50002 10.9105 8.41048 11 8.30002 11H7.70002C7.58957 11 7.50002 10.9105 7.50002 10.8V10.2Z" fill="currentColor"/>
<path d="M7.70002 12.5C7.58957 12.5 7.50002 12.5896 7.50002 12.7V13.3C7.50002 13.4105 7.58957 13.5 7.70002 13.5H8.30002C8.41048 13.5 8.50002 13.4105 8.50002 13.3V12.7C8.50002 12.5896 8.41048 12.5 8.30002 12.5H7.70002Z" fill="currentColor"/>
<path d="M7.70002 15C7.58957 15 7.50002 15.0896 7.50002 15.2V15.8C7.50002 15.9105 7.58957 16 7.70002 16H8.30002C8.41048 16 8.50002 15.9105 8.50002 15.8V15.2C8.50002 15.0896 8.41048 15 8.30002 15H7.70002Z" fill="currentColor"/>
</svg>
