<svg width="17" height="17" viewBox="0 0 17 17" fill="none" xmlns="http://www.w3.org/2000/svg">
<path d="M5.164 13.2803H15C13.5 12.2803 13 7.37793 13 6.28033C13 6.01634 12.9796 5.75714 12.9401 5.50421L5.164 13.2803Z" fill="currentColor"/>
<path d="M11.4524 2.66354C10.7833 2.02469 9.93719 1.56962 8.99513 1.37937C8.99833 1.34679 8.99997 1.31376 8.99997 1.28034C8.99997 0.728049 8.55225 0.280334 7.99997 0.280334C7.44768 0.280334 6.99997 0.728049 6.99997 1.28034C6.99997 1.31376 7.00161 1.3468 7.00481 1.37938C4.72017 1.84078 2.99999 3.85968 2.99999 6.28034C2.99999 7.17828 2.66534 10.6227 1.72229 12.3936L11.4524 2.66354Z" fill="currentColor"/>
<path d="M10 14.2803C10 15.3849 9.10457 16.2803 8 16.2803C6.89543 16.2803 6 15.3849 6 14.2803H10Z" fill="currentColor"/>
<path d="M0.624812 14.9053C0.417706 15.1124 0.417706 15.4482 0.624812 15.6553C0.831919 15.8624 1.1677 15.8624 1.37481 15.6553L16.1248 0.90533C16.3319 0.698223 16.3319 0.362437 16.1248 0.15533C15.9177 -0.0517768 15.5819 -0.0517766 15.3748 0.15533L0.624812 14.9053Z" fill="currentColor"/>
</svg>
