<svg width="17" height="17" viewBox="0 0 17 17" fill="none" xmlns="http://www.w3.org/2000/svg">
<path d="M5.16406 13.2803H15C14.7015 13.0813 14.4426 12.7277 14.2193 12.2803C13.3208 10.4797 13 7.15949 13 6.28033C13 6.01634 12.9796 5.75714 12.9401 5.50421L12.0024 6.44191C12.0219 7.15003 12.1594 8.59669 12.4589 10.0225C12.62 10.7894 12.8355 11.588 13.1219 12.2803H6.16406L5.16406 13.2803Z" fill="currentColor"/>
<path d="M10.7451 3.37081C10.2128 2.86819 9.54256 2.51011 8.79717 2.35958L7.99997 2.19859L7.20278 2.35959C5.37549 2.72863 3.99999 4.34497 3.99999 6.28034C3.99999 6.90816 3.86563 8.47759 3.54113 10.0225C3.49118 10.2603 3.43601 10.5011 3.37512 10.7408L1.72229 12.3936C1.74202 12.3566 1.76147 12.3188 1.78067 12.2803C2.67919 10.4797 2.99999 7.1595 2.99999 6.28034C2.99999 3.85968 4.72017 1.84078 7.00481 1.37938C7.00161 1.3468 6.99997 1.31376 6.99997 1.28034C6.99997 0.728049 7.44768 0.280334 7.99997 0.280334C8.55225 0.280334 8.99997 0.728049 8.99997 1.28034C8.99997 1.31376 8.99833 1.34679 8.99513 1.37937C9.93719 1.56962 10.7833 2.02469 11.4524 2.66354L10.7451 3.37081Z" fill="currentColor"/>
<path d="M10 14.2803C10 15.3849 9.10457 16.2803 8 16.2803C6.89543 16.2803 6 15.3849 6 14.2803H10Z" fill="currentColor"/>
<path d="M0.624812 14.9053C0.417706 15.1124 0.417706 15.4482 0.624812 15.6553C0.831919 15.8624 1.1677 15.8624 1.37481 15.6553L16.1248 0.90533C16.3319 0.698223 16.3319 0.362437 16.1248 0.15533C15.9177 -0.0517768 15.5819 -0.0517766 15.3748 0.15533L0.624812 14.9053Z" fill="currentColor"/>
</svg>
