<svg width="16" height="17" viewBox="0 0 16 17" fill="none" xmlns="http://www.w3.org/2000/svg">
<path d="M5.19629 11.8555C5.55167 11.8555 5.85747 11.9307 6.11328 12.0811C6.36907 12.2314 6.56543 12.4435 6.70215 12.7168C6.84077 12.9901 6.91011 13.3127 6.91016 13.6836V14.1846C6.91016 14.4832 6.86416 14.752 6.77246 14.9902C6.68071 15.2284 6.54673 15.4288 6.37109 15.5908L6.87793 16.3291H6.08984L5.79688 15.9072C5.7071 15.9404 5.61124 15.9648 5.50977 15.9805C5.41022 15.998 5.30559 16.0068 5.19629 16.0068C4.84473 16.0068 4.54004 15.9326 4.28223 15.7842C4.02637 15.6338 3.8291 15.4219 3.69043 15.1484C3.55378 14.875 3.48535 14.5536 3.48535 14.1846V13.6836C3.4854 13.3127 3.55376 12.9901 3.69043 12.7168C3.82909 12.4416 4.02648 12.2294 4.28223 12.0811C4.53997 11.9308 4.84487 11.8555 5.19629 11.8555ZM1.58789 11.8496C1.89251 11.8496 2.15237 11.9004 2.36719 12.002C2.58388 12.1035 2.75099 12.2404 2.86816 12.4121C2.98723 12.5819 3.05366 12.7707 3.06738 12.9775H2.31738C2.29977 12.882 2.25969 12.7958 2.19727 12.7197C2.13674 12.6437 2.05459 12.583 1.95117 12.5381C1.84768 12.4932 1.72455 12.4707 1.58203 12.4707C1.36534 12.4707 1.19432 12.5216 1.06934 12.623C0.946385 12.7226 0.884862 12.8508 0.884766 13.0068C0.884766 13.1279 0.932737 13.2276 1.02832 13.3057C1.12401 13.3838 1.25883 13.4424 1.43262 13.4814L2.05371 13.625C2.27044 13.6738 2.45902 13.7442 2.61914 13.8359C2.7792 13.9257 2.90431 14.045 2.99414 14.1934C3.08394 14.3417 3.12886 14.5285 3.12891 14.7529C3.12891 15.0009 3.06629 15.2198 2.94141 15.4092C2.81838 15.5966 2.6386 15.7432 2.40234 15.8486C2.16797 15.9541 1.88184 16.0068 1.54395 16.0068C1.29004 16.0068 1.06836 15.9766 0.878906 15.916C0.6895 15.8555 0.530249 15.7715 0.401367 15.6641C0.274503 15.5547 0.177703 15.4296 0.111328 15.2891C0.0450106 15.1485 0.00780695 14.9989 0 14.8408H0.764648C0.778303 14.9169 0.806734 14.9884 0.849609 15.0547C0.892543 15.1191 0.949298 15.1758 1.01953 15.2246C1.08982 15.2734 1.17289 15.3115 1.26855 15.3389C1.36426 15.3662 1.4707 15.3799 1.58789 15.3799C1.75195 15.3799 1.88965 15.3564 2.00098 15.3096C2.11419 15.2627 2.19924 15.1982 2.25586 15.1162C2.31239 15.0323 2.34082 14.9354 2.34082 14.8262C2.34073 14.6877 2.28995 14.579 2.18848 14.501C2.08691 14.421 1.9325 14.3564 1.72559 14.3076L1.10742 14.1641C0.900424 14.1172 0.720684 14.0459 0.568359 13.9502C0.416096 13.8545 0.298799 13.7324 0.216797 13.584C0.134869 13.4356 0.09375 13.2606 0.09375 13.0596C0.0938134 12.8156 0.15729 12.6024 0.28418 12.4209C0.41112 12.2394 0.587015 12.0986 0.811523 11.999C1.0361 11.8995 1.29498 11.8496 1.58789 11.8496ZM14 4.5V14C14 15.1046 13.1046 16 12 16V15C12.5523 15 13 14.5523 13 14V4.5H11C10.1716 4.5 9.5 3.82843 9.5 3V1H4C3.44772 1 3 1.44772 3 2V11H2V2C2 0.89543 2.89543 0 4 0H9.5L14 4.5ZM8.24805 15.2568H9.94434V15.9307H7.45703V11.9316H8.24805V15.2568ZM5.19629 12.5117C5.00697 12.5117 4.84173 12.5577 4.70117 12.6494C4.5626 12.7411 4.45409 12.8742 4.37598 13.0479C4.29984 13.2216 4.26176 13.4318 4.26172 13.6777V14.1992C4.26172 14.4511 4.2989 14.6661 4.37305 14.8438C4.44921 15.0195 4.55568 15.1543 4.69238 15.248C4.8291 15.3418 4.99121 15.3906 5.17871 15.3945C5.22356 15.3945 5.26666 15.3906 5.30762 15.3828C5.35049 15.375 5.39168 15.3633 5.43066 15.3477L4.97949 14.6973H5.71191L5.81738 14.8438L5.92285 14.9844C5.99109 14.8887 6.04301 14.7752 6.07812 14.6445C6.11321 14.5118 6.13086 14.3631 6.13086 14.1992V13.6777C6.13082 13.4318 6.09274 13.2216 6.0166 13.0479C5.94043 12.8741 5.83197 12.7412 5.69141 12.6494C5.55279 12.5577 5.3876 12.5117 5.19629 12.5117Z" fill="currentColor"/>
</svg>
