<svg width="17" height="16" viewBox="0 0 17 16" fill="none" xmlns="http://www.w3.org/2000/svg">
<path d="M8.09779 5.01281C8.19072 4.97119 8.3 5.03893 8.3 5.14668V6.29996C8.3 6.5761 8.52386 6.79996 8.8 6.79996C9.46708 6.79996 10.813 6.80515 12.1009 7.62217C13.084 8.24579 14.0907 9.38182 14.6948 11.4983C13.6743 10.5147 12.5096 9.9824 11.49 9.69942C10.7366 9.49033 10.0591 9.41584 9.56891 9.39345C9.32336 9.38223 9.12346 9.38402 8.98285 9.38882C8.91251 9.39122 8.85688 9.39438 8.81767 9.39705C8.79806 9.39838 8.78254 9.3996 8.77133 9.40054L8.75776 9.40172L8.75344 9.40213L8.7519 9.40227C8.7519 9.40227 8.75079 9.40238 8.8 9.89996L8.75079 9.40238C8.49495 9.42769 8.3 9.64287 8.3 9.89996V11.0533C8.3 11.161 8.19072 11.2288 8.09779 11.1871L4.11426 8.25431C4.10055 8.24422 4.08634 8.23483 4.07167 8.22619C3.97611 8.16988 3.97611 8.03004 4.07167 7.97372C4.08634 7.96508 4.10055 7.9557 4.11426 7.9456L8.09779 5.01281ZM9.3 10.3857C9.36798 10.3867 9.44264 10.3888 9.52327 10.3924C9.95655 10.4122 10.5571 10.4784 11.2225 10.663C12.5491 11.0312 14.1194 11.8646 15.1629 13.7428C15.2792 13.9522 15.5276 14.0496 15.7552 13.9753C15.9829 13.9009 16.1258 13.6756 16.0961 13.438C15.6323 9.72752 14.2103 7.77605 12.6366 6.77775C11.3905 5.98731 10.1092 5.83584 9.3 5.80683V5.14668C9.3 4.25125 8.3306 3.71382 7.57532 4.15892C7.56066 4.16756 7.54644 4.17694 7.53274 4.18703L3.53923 7.12717C2.82026 7.57433 2.82026 8.62558 3.53922 9.07274L7.53274 12.0129C7.54644 12.023 7.56066 12.0324 7.57532 12.041C8.3306 12.4861 9.3 11.9487 9.3 11.0533V10.3857Z" fill="currentColor"/>
<path d="M5.23182 4.29325C5.0681 4.07088 4.75511 4.02333 4.53273 4.18705L0.539227 7.12718C-0.17974 7.57434 -0.179742 8.62559 0.53922 9.07275L4.53273 12.0129C4.75511 12.1766 5.0681 12.1291 5.23182 11.9067C5.39554 11.6843 5.34799 11.3713 5.12561 11.2076L1.11425 8.25432C1.10054 8.24423 1.08633 8.23485 1.07167 8.2262C0.97611 8.16989 0.97611 8.03005 1.07167 7.97373C1.08633 7.96509 1.10054 7.95571 1.11425 7.94562L5.12561 4.99234C5.34799 4.82862 5.39554 4.51563 5.23182 4.29325Z" fill="currentColor"/>
</svg>
