<svg width="16" height="16" viewBox="0 0 16 16" fill="none" xmlns="http://www.w3.org/2000/svg">
<path fill-rule="evenodd" clip-rule="evenodd" d="M8 16C6.41775 16 4.87103 15.5308 3.55544 14.6518C2.23984 13.7727 1.21446 12.5233 0.608968 11.0615C0.00346619 9.59966 -0.15496 7.99112 0.153722 6.43928C0.462403 4.88743 1.22433 3.46197 2.34315 2.34315C3.46197 1.22433 4.88743 0.462403 6.43928 0.153722C7.99112 -0.15496 9.59966 0.00346619 11.0615 0.608968C12.5233 1.21446 13.7727 2.23984 14.6518 3.55544C15.5308 4.87103 16 6.41775 16 8C15.9976 10.121 15.154 12.1544 13.6542 13.6542C12.1544 15.154 10.121 15.9976 8 16ZM5.15511 14.4772V14.2977H6.72602L8.69417 15.047C8.46271 15.0676 8.23034 15.0763 7.99799 15.0731C7.01911 15.0756 6.0506 14.8726 5.15511 14.4772ZM9.89191 14.7551L6.9748 13.6918V12.2413L9.33417 10.9723L11.2762 11.7016L11.2351 13.7229L9.89191 14.7551ZM8.9921 7.89768L8.99711 10.4446L6.64978 11.7086L4.20213 10.3473L4.19009 7.62884L6.19636 6.32677L8.9921 7.89768ZM9.37329 7.38909L6.57956 5.8252L6.42006 3.69154L9.22784 2.23197L11.2843 3.53304V6.40702L9.37329 7.38909ZM13.1962 8.29693L11.9132 6.26357V3.77179L13.1722 3.16991C14.151 4.21043 14.7989 5.4771 15.0129 6.88953L14.8263 7.86357L13.1962 8.29693ZM13.5544 8.8657L14.8986 8.55574L15.034 8.82056C14.9173 9.80767 14.5951 10.7594 14.088 11.6143C13.6551 12.3358 13.0998 12.9764 12.4469 13.5072L11.9062 13.3698V11.3745L13.5544 8.8657ZM8 0.919878C8.32715 0.919625 8.65393 0.941746 8.97806 0.986085V1.64514L6.29768 3.04251L4.2242 3.0395L3.96539 2.18483C5.14804 1.35802 6.557 0.916275 8 0.919878ZM3.41868 2.60815L3.63837 3.27122L2.35636 5.32464L1.26596 5.81116C1.67376 4.56507 2.41891 3.45638 3.41868 2.60815ZM1.04727 6.65279L2.45166 6.02683L3.56313 7.58269L3.57617 10.4527L3.58019 10.4517L2.53592 11.5982L1.95812 11.6925C1.03618 10.1852 0.711287 8.38751 1.04727 6.65279ZM2.34132 12.2553L3.01342 12.147L4.54621 13.9024L4.53918 14.1783C3.68126 13.6965 2.93282 13.0416 2.34132 12.2553Z" fill="currentColor"/>
</svg>
