<svg width="16" height="16" viewBox="0 0 16 16" fill="none" xmlns="http://www.w3.org/2000/svg">
<path d="M13 7C14.1046 7 15 6.10457 15 5C15 3.89543 14.1046 3 13 3C11.8954 3 11 3.89543 11 5C11 6.10457 11.8954 7 13 7Z" fill="currentColor"/>
<path d="M6 13C6 14.1046 6.89543 15 8 15C9.10457 15 10 14.1046 10 13H11C11 14.6569 9.65685 16 8 16C6.34315 16 5 14.6569 5 13H6ZM15 11V12H1V11H15ZM9 0.670898C9.92127 0.866243 10.6427 1.131 11.2305 1.53223C11.5097 1.72293 11.7504 1.9411 11.9668 2.18555C11.6397 2.30567 11.3385 2.47876 11.0762 2.69824C10.9488 2.57218 10.8144 2.45908 10.667 2.3584C10.0953 1.9681 9.29532 1.70529 8 1.50488C6.70468 1.70529 5.90473 1.9681 5.33301 2.3584C4.7838 2.73358 4.39632 3.26267 4 4.1123V10H3V4L3.04492 3.79297C3.49218 2.80923 3.98508 2.06798 4.76953 1.53223C5.35731 1.131 6.07873 0.866243 7 0.670898V0H9V0.670898ZM12 7.8252C12.3131 7.93604 12.6489 8 13 8V10H12V7.8252Z" fill="currentColor"/>
</svg>
