<svg width="16" height="16" viewBox="0 0 16 16" fill="none" xmlns="http://www.w3.org/2000/svg">
<path d="M11 13C11 14.6569 9.65685 16 8 16C6.34315 16 5 14.6569 5 13H6C6 14.1046 6.89543 15 8 15C9.10457 15 10 14.1046 10 13H11ZM9 0.670898C9.92127 0.866243 10.6427 1.131 11.2305 1.53223C12.0149 2.06798 12.5078 2.80923 12.9551 3.79297L13 4V11H15V12H1V11H3V4L3.04492 3.79297C3.49218 2.80923 3.98508 2.06798 4.76953 1.53223C5.35731 1.131 6.07873 0.866243 7 0.670898V0H9V0.670898ZM8 1.50488C6.70468 1.70529 5.90473 1.9681 5.33301 2.3584C4.7838 2.73358 4.39632 3.26267 4 4.1123V11H12V4.1123C11.6037 3.26267 11.2162 2.73358 10.667 2.3584C10.0953 1.9681 9.29532 1.70529 8 1.50488Z" fill="currentColor"/>
</svg>
