<svg width="16" height="16" viewBox="0 0 16 16" fill="none" xmlns="http://www.w3.org/2000/svg">
<path fill-rule="evenodd" clip-rule="evenodd" d="M5.82845 10.1716C5.63319 9.97633 5.3166 9.97633 5.12134 10.1716L1.02515 14.2678V11.5C1.02515 11.2239 0.80129 11 0.525147 11C0.249005 11 0.0251465 11.2239 0.0251468 11.5L0.0251465 15.4749C0.0251465 15.751 0.249005 15.9749 0.525147 15.9749H4.49998C4.77612 15.9749 4.99998 15.751 4.99998 15.4749C4.99998 15.1987 4.77612 14.9749 4.49998 14.9749H1.73225L5.82845 10.8787C6.02371 10.6834 6.02371 10.3668 5.82845 10.1716Z" fill="currentColor"/>
<path fill-rule="evenodd" clip-rule="evenodd" d="M10.1716 5.82845C10.3668 6.02371 10.6834 6.02371 10.8787 5.82845L14.9749 1.73226V4.50003C14.9749 4.77617 15.1987 5.00003 15.4749 5.00003C15.751 5.00003 15.9749 4.77617 15.9749 4.50003V0.525147C15.9749 0.249005 15.751 0.0251465 15.4749 0.0251465L11.5 0.0251493C11.2239 0.0251492 11 0.249007 11 0.52515C11 0.801292 11.2239 1.02515 11.5 1.02515H14.2678L10.1716 5.12134C9.97633 5.31661 9.97633 5.63319 10.1716 5.82845Z" fill="currentColor"/>
</svg>
