<svg width="16" height="16" viewBox="0 0 16 16" fill="none" xmlns="http://www.w3.org/2000/svg">
<path d="M15.5 0C15.7761 0 16 0.223858 16 0.5V3.5C16 3.70221 15.8782 3.88451 15.6914 3.96191C15.5046 4.0393 15.2895 3.99651 15.1465 3.85352L14 2.70703L12.9941 3.71191C13.2304 3.96067 13.434 4.24382 13.5947 4.55762C14.1562 5.65438 14.1795 7.07482 13.3809 8.65039C12.5885 10.2136 10.9862 11.9383 8.27538 13.7295L7.99999 13.9121L7.7246 13.7295C6.66623 13.0302 5.77823 12.3394 5.04003 11.666L4.49999 12.207V14C4.49999 14.1326 4.44727 14.2597 4.35351 14.3535L2.85351 15.8535C2.71051 15.9965 2.49542 16.0393 2.30858 15.9619C2.12178 15.8845 1.99999 15.7022 1.99999 15.5V14H0.499986C0.297778 14 0.115478 13.8782 0.0380718 13.6914C-0.0393187 13.5046 0.00347124 13.2895 0.14647 13.1465L1.64647 11.6465C1.74024 11.5527 1.86738 11.5 1.99999 11.5H3.79296L4.32323 10.9688C3.55285 10.166 2.99443 9.39078 2.61913 8.65039C1.82049 7.07482 1.84376 5.65438 2.40526 4.55762C3.42586 2.56447 6.18123 1.80941 7.99999 3.2334C9.2505 2.25432 10.9442 2.30476 12.2119 3.08008L13.293 2L12.1465 0.853516C12.0035 0.710517 11.9607 0.495431 12.0381 0.308594C12.1155 0.121793 12.2978 0 12.5 0H15.5ZM12.7041 5.01367C11.8872 3.41824 9.61667 2.9587 8.35839 4.25195L7.99999 4.62012L7.64159 4.25195C6.38331 2.9587 4.11283 3.41824 3.29589 5.01367C2.90405 5.77909 2.83246 6.8582 3.51171 8.19824C3.83422 8.83442 4.32627 9.52625 5.03026 10.2617L6.89647 8.39648C7.09174 8.20122 7.40824 8.20122 7.60351 8.39648C7.79877 8.59175 7.79877 8.90825 7.60351 9.10352L5.74901 10.957C6.37047 11.5203 7.11406 12.1067 7.99999 12.708C10.4545 11.042 11.8271 9.50254 12.4883 8.19824C13.1675 6.8582 13.0959 5.77909 12.7041 5.01367Z" fill="currentColor"/>
</svg>
