<svg width="16" height="16" viewBox="0 0 16 16" fill="none" xmlns="http://www.w3.org/2000/svg">
<path d="M14 0C15.1046 0 16 0.895431 16 2V14C16 15.1046 15.1046 16 14 16H2C0.895431 16 0 15.1046 0 14V2C0 0.895431 0.895431 0 2 0H14ZM2 1C1.44772 1 1 1.44772 1 2V14C1 14.5523 1.44772 15 2 15H14C14.5523 15 15 14.5523 15 14V2C15 1.44772 14.5523 1 14 1H2ZM10.4502 5C10.7261 5.00025 10.9502 5.22401 10.9502 5.5V9.47461C10.9502 9.7506 10.7261 9.97436 10.4502 9.97461C10.1741 9.97461 9.95019 9.75075 9.9502 9.47461V6.70703L5.85352 10.8037C5.65831 10.9987 5.34169 10.9987 5.14648 10.8037C4.95122 10.6084 4.95122 10.291 5.14648 10.0957L9.24219 6H6.47461C6.1986 5.99984 5.97461 5.77604 5.97461 5.5C5.97461 5.22396 6.1986 5.00016 6.47461 5H10.4502Z" fill="currentColor"/>
</svg>
