<svg width="16" height="16" viewBox="0 0 16 16" fill="none" xmlns="http://www.w3.org/2000/svg">
<path fill-rule="evenodd" clip-rule="evenodd" d="M8 3C5.23858 3 3 5.23858 3 8C3 10.7614 5.23858 13 8 13C10.7614 13 13 10.7614 13 8C13 7.25457 12.8372 6.54853 12.5457 5.91434C12.4304 5.66343 12.5403 5.36654 12.7912 5.25121C13.0421 5.13588 13.339 5.24579 13.4543 5.49669C13.8048 6.25923 14 7.1075 14 8C14 11.3137 11.3137 14 8 14C4.68629 14 2 11.3137 2 8C2 4.68629 4.68629 2 8 2V3Z" fill="currentColor"/>
<path d="M8 4.46628V0.533803C8 0.321844 8.24721 0.206055 8.41005 0.341748L10.7695 2.30798C10.8895 2.40793 10.8895 2.59215 10.7695 2.6921L8.41005 4.65834C8.24721 4.79403 8 4.67824 8 4.46628Z" fill="currentColor"/>
</svg>
