<svg width="16" height="16" viewBox="0 0 16 16" fill="none" xmlns="http://www.w3.org/2000/svg">
<path d="M8 0C12.4183 0 16 3.58172 16 8C16 12.4183 12.4183 16 8 16C3.58172 16 0 12.4183 0 8C0 3.58172 3.58172 0 8 0ZM8 1C4.13401 1 1 4.13401 1 8C1 11.866 4.13401 15 8 15C11.866 15 15 11.866 15 8C15 4.13401 11.866 1 8 1ZM7.64648 4.14648C7.84175 3.95122 8.15825 3.95122 8.35352 4.14648L11.3535 7.14648C11.5488 7.34175 11.5488 7.65825 11.3535 7.85352C11.1583 8.04878 10.8417 8.04878 10.6465 7.85352L8.5 5.70703V11.5C8.5 11.7761 8.27614 12 8 12C7.72386 12 7.5 11.7761 7.5 11.5V5.70703L5.35352 7.85352C5.15825 8.04878 4.84175 8.04878 4.64648 7.85352C4.45122 7.65825 4.45122 7.34175 4.64648 7.14648L7.64648 4.14648Z" fill="currentColor"/>
</svg>
