<svg width="16" height="16" viewBox="0 0 16 16" fill="none" xmlns="http://www.w3.org/2000/svg">
<path d="M14 0C15.1046 0 16 0.895431 16 2V14C16 15.1046 15.1046 16 14 16H2C0.895431 16 0 15.1046 0 14V2C0 0.895431 0.895431 0 2 0H14ZM2 1C1.44772 1 1 1.44772 1 2V14C1 14.5523 1.44772 15 2 15H14C14.5523 15 15 14.5523 15 14V2C15 1.44772 14.5523 1 14 1H2ZM5.14648 5.14648C5.34175 4.95123 5.65826 4.95122 5.85352 5.14648L9.9502 9.24219V6.47461C9.95033 6.19859 10.1741 5.97461 10.4502 5.97461C10.726 5.97486 10.9501 6.19874 10.9502 6.47461V10.4502C10.95 10.726 10.726 10.9499 10.4502 10.9502H6.47461C6.19875 10.95 5.97485 10.726 5.97461 10.4502C5.97461 10.1742 6.1986 9.95035 6.47461 9.9502H9.24219L5.14648 5.85352C4.95122 5.65825 4.95122 5.34175 5.14648 5.14648Z" fill="currentColor"/>
</svg>
