<svg width="16" height="16" viewBox="0 0 16 16" fill="none" xmlns="http://www.w3.org/2000/svg">
<path d="M11.5337 7H15.4661C15.6781 7 15.7939 7.24721 15.6582 7.41005L13.692 9.76953C13.592 9.88947 13.4078 9.88947 13.3078 9.76953L11.3416 7.41005C11.2059 7.24721 11.3217 7 11.5337 7Z" fill="currentColor"/>
<path d="M0.533681 8.99999H4.46616C4.67812 8.99999 4.79391 8.75278 4.65822 8.58994L2.69198 6.23046C2.59203 6.11052 2.40781 6.11052 2.30786 6.23046L0.341626 8.58994C0.205933 8.75278 0.321722 8.99999 0.533681 8.99999Z" fill="currentColor"/>
<path fill-rule="evenodd" clip-rule="evenodd" d="M7.99997 3C6.44748 3 5.06054 3.70697 4.14266 4.81839C3.96681 5.03131 3.65166 5.06137 3.43874 4.88552C3.22582 4.70968 3.19577 4.39453 3.37161 4.18161C4.47131 2.85003 6.13659 2 7.99997 2C10.9417 2 13.388 4.1165 13.9011 6.90967C13.9066 6.9397 13.9119 6.96981 13.917 7H12.9001C12.4371 4.71778 10.4186 3 7.99997 3ZM3.09989 9C3.5629 11.2822 5.58134 13 7.99997 13C9.55246 13 10.9394 12.293 11.8573 11.1816C12.0332 10.9687 12.3483 10.9386 12.5612 11.1145C12.7741 11.2903 12.8042 11.6055 12.6284 11.8184C11.5287 13.15 9.86335 14 7.99997 14C5.05827 14 2.61195 11.8835 2.09889 9.09033C2.09337 9.0603 2.08808 9.03019 2.08301 9H3.09989Z" fill="currentColor"/>
</svg>
