<svg width="16" height="16" viewBox="0 0 16 16" fill="none" xmlns="http://www.w3.org/2000/svg">
<path d="M8 0C12.4183 0 16 3.58172 16 8C16 12.4183 12.4183 16 8 16C3.58172 16 0 12.4183 0 8C0 3.58172 3.58172 0 8 0ZM8 1C4.13401 1 1 4.13401 1 8C1 11.866 4.13401 15 8 15C11.866 15 15 11.866 15 8C15 4.13401 11.866 1 8 1ZM7.14648 4.64648C7.34175 4.45122 7.65825 4.45122 7.85352 4.64648C8.04878 4.84175 8.04878 5.15825 7.85352 5.35352L5.70703 7.5H11.5C11.7761 7.5 12 7.72386 12 8C12 8.27614 11.7761 8.5 11.5 8.5H5.70703L7.85352 10.6465C8.04878 10.8417 8.04878 11.1583 7.85352 11.3535C7.65825 11.5488 7.34175 11.5488 7.14648 11.3535L4.14648 8.35352C3.95122 8.15825 3.95122 7.84175 4.14648 7.64648L7.14648 4.64648Z" fill="currentColor"/>
</svg>
