<svg width="16" height="16" viewBox="0 0 16 16" fill="none" xmlns="http://www.w3.org/2000/svg">
<path d="M8 0C12.4183 0 16 3.58172 16 8C16 12.4183 12.4183 16 8 16C3.58172 16 0 12.4183 0 8C0 3.58172 3.58172 0 8 0ZM8 1C4.13401 1 1 4.13401 1 8C1 11.866 4.13401 15 8 15C11.866 15 15 11.866 15 8C15 4.13401 11.866 1 8 1ZM9.47461 5C9.75075 5 9.97461 5.22386 9.97461 5.5C9.97461 5.77614 9.75075 6 9.47461 6H6.70703L10.8037 10.0957C10.999 10.291 10.999 10.6084 10.8037 10.8037C10.6086 10.9988 10.292 10.9985 10.0967 10.8037L6 6.70703V9.47461C6 9.75075 5.77614 9.97461 5.5 9.97461C5.22386 9.97461 5 9.75075 5 9.47461V5.5C5 5.22386 5.22386 5 5.5 5H9.47461Z" fill="currentColor"/>
</svg>
