<svg width="16" height="16" viewBox="0 0 16 16" fill="none" xmlns="http://www.w3.org/2000/svg">
<path d="M8 0C12.4183 0 16 3.58172 16 8C16 12.4183 12.4183 16 8 16C3.58172 16 0 12.4183 0 8C0 3.58172 3.58172 0 8 0ZM8 1C4.13401 1 1 4.13401 1 8C1 11.866 4.13401 15 8 15C11.866 15 15 11.866 15 8C15 4.13401 11.866 1 8 1ZM10.0967 5.14648C10.292 4.95145 10.6085 4.9513 10.8037 5.14648C10.9987 5.34169 10.9987 5.65831 10.8037 5.85352L6.70703 9.9502H9.47461C9.75075 9.9502 9.97461 10.1741 9.97461 10.4502C9.97437 10.7261 9.7506 10.9502 9.47461 10.9502H5.5C5.22401 10.9502 5.00024 10.7261 5 10.4502V6.47461C5.00014 6.19859 5.22394 5.97461 5.5 5.97461C5.77606 5.97461 5.99986 6.19859 6 6.47461V9.24219L10.0967 5.14648Z" fill="currentColor"/>
</svg>
