<svg width="16" height="16" viewBox="0 0 16 16" fill="none" xmlns="http://www.w3.org/2000/svg">
<path fill-rule="evenodd" clip-rule="evenodd" d="M0.171593 15.8284C0.366855 16.0237 0.683438 16.0237 0.8787 15.8284L4.97489 11.7322V14.5C4.97489 14.7762 5.19875 15 5.47489 15C5.75104 15 5.97489 14.7762 5.97489 14.5V10.5251C5.97489 10.249 5.75104 10.0251 5.47489 10.0251H1.50006C1.22392 10.0251 1.00006 10.249 1.00006 10.5251C1.00006 10.8013 1.22392 11.0251 1.50006 11.0251H4.26779L0.171593 15.1213C-0.023669 15.3166 -0.0236689 15.6332 0.171593 15.8284Z" fill="currentColor"/>
<path fill-rule="evenodd" clip-rule="evenodd" d="M15.8284 0.171593C15.6331 -0.023669 15.3165 -0.023669 15.1213 0.171593L11.0251 4.26779V1.50001C11.0251 1.22387 10.8012 1.00001 10.5251 1.00001C10.2489 1.00001 10.0251 1.22387 10.0251 1.50001V5.47489C10.0251 5.75104 10.2489 5.97489 10.5251 5.97489H14.4999C14.776 5.97489 14.9999 5.75103 14.9999 5.47489C14.9999 5.19875 14.776 4.97489 14.4999 4.97489H11.7322L15.8284 0.8787C16.0236 0.683438 16.0236 0.366855 15.8284 0.171593Z" fill="currentColor"/>
</svg>
