<svg width="16" height="16" viewBox="0 0 16 16" fill="none" xmlns="http://www.w3.org/2000/svg">
<path d="M8 0C12.4183 0 16 3.58172 16 8C16 12.4183 12.4183 16 8 16C3.58172 16 0 12.4183 0 8C0 3.58172 3.58172 0 8 0ZM8 1C4.13401 1 1 4.13401 1 8C1 11.866 4.13401 15 8 15C11.866 15 15 11.866 15 8C15 4.13401 11.866 1 8 1ZM8 4C8.27614 4 8.5 4.22386 8.5 4.5V10.293L10.6465 8.14648C10.8417 7.95122 11.1583 7.95122 11.3535 8.14648C11.5488 8.34175 11.5488 8.65825 11.3535 8.85352L8.35352 11.8535C8.15825 12.0488 7.84175 12.0488 7.64648 11.8535L4.64648 8.85352C4.45122 8.65825 4.45122 8.34175 4.64648 8.14648C4.84175 7.95122 5.15825 7.95122 5.35352 8.14648L7.5 10.293V4.5C7.5 4.22386 7.72386 4 8 4Z" fill="currentColor"/>
</svg>
