<svg width="16" height="16" viewBox="0 0 16 16" fill="none" xmlns="http://www.w3.org/2000/svg">
<path d="M8 0C12.4183 0 16 3.58172 16 8C16 12.4183 12.4183 16 8 16C3.58172 16 0 12.4183 0 8C0 3.58172 3.58172 0 8 0ZM8 1C4.13401 1 1 4.13401 1 8C1 11.866 4.13401 15 8 15C11.866 15 15 11.866 15 8C15 4.13401 11.866 1 8 1ZM5.14648 5.14648C5.34175 4.95123 5.65826 4.95122 5.85352 5.14648L9.9502 9.24219V6.47461C9.95033 6.19859 10.1741 5.97461 10.4502 5.97461C10.726 5.97486 10.9501 6.19874 10.9502 6.47461V10.4502C10.95 10.726 10.726 10.9499 10.4502 10.9502H6.47461C6.19875 10.95 5.97485 10.726 5.97461 10.4502C5.97461 10.1742 6.1986 9.95035 6.47461 9.9502H9.24219L5.14648 5.85352C4.95122 5.65825 4.95122 5.34175 5.14648 5.14648Z" fill="currentColor"/>
</svg>
