<svg width="16" height="16" viewBox="0 0 16 16" fill="none" xmlns="http://www.w3.org/2000/svg">
<path d="M9.66871 0.864293L8.00003 0L6.33134 0.864293L4.47332 1.1459L3.63134 2.82595L2.2937 4.14589L2.60004 5.99999L2.2937 7.85409L3.63134 9.17402L4.47332 10.8541L6.33134 11.1357L8.00003 12L9.66871 11.1357L11.5267 10.8541L12.3687 9.17402L13.7063 7.85409L13.4 5.99999L13.7063 4.14589L12.3687 2.82595L11.5267 1.1459L9.66871 0.864293ZM10.8648 2.05699L11.5487 3.4217L12.6353 4.49389L12.3864 5.99999L12.6353 7.50609L11.5487 8.57827L10.8648 9.94299L9.35551 10.1718L8.00003 10.8738L6.64454 10.1718L5.13527 9.94299L4.45132 8.57827L3.36475 7.50609L3.61359 5.99999L3.36475 4.4939L4.45132 3.4217L5.13527 2.05699L6.64454 1.82824L8.00003 1.12617L9.35551 1.82824L10.8648 2.05699Z" fill="currentColor"/>
<path d="M4.00002 11.7938V16L8.00002 15L12 16V11.7938L9.9819 12.0997L8.00001 13.1262L6.01811 12.0997L4.00002 11.7938Z" fill="currentColor"/>
</svg>
