<svg width="16" height="16" viewBox="0 0 16 16" fill="none" xmlns="http://www.w3.org/2000/svg">
<path d="M8.00003 0L14.6099 3H15.5C15.7762 3 16 3.22386 16 3.5V5.49999C16 5.77613 15.7761 5.99999 15.5 5.99999H15V13C15.2295 13 15.4295 13.1574 15.4851 13.38L15.9851 15.38C16.0224 15.5294 15.9889 15.6886 15.8941 15.81C15.7994 15.9314 15.654 16 15.5 16H0.500035C0.346068 16 0.200686 15.9314 0.105933 15.81C0.011179 15.6886 -0.0223786 15.5294 0.014964 15.38L0.514963 13.38C0.570609 13.1574 0.7706 13 1.00004 13L0.999999 5.99999H0.5C0.223858 5.99999 0 5.77613 0 5.49999L3.52859e-05 3.5C3.52859e-05 3.22386 0.223893 3 0.500035 3H1.39022L8.00003 0ZM3.77652 3H12.2235L8.00003 0.999999L3.77652 3ZM2 5.99999L2.00004 13H3.00004L3 5.99999H2ZM4 5.99999L4.00004 13H6.50003L6.49999 5.99999H4ZM7.49999 5.99999L7.50003 13H8.50003L8.49999 5.99999H7.49999ZM9.49999 5.99999L9.50003 13H12V5.99999H9.49999ZM13 5.99999V13H14V5.99999H13ZM15 5V4H1.00004V5H15ZM14.6096 14H1.39042L1.14042 15H14.8596L14.6096 14Z" fill="currentColor"/>
</svg>
