<svg width="16" height="16" viewBox="0 0 16 16" fill="none" xmlns="http://www.w3.org/2000/svg">
<path d="M7.75192 0.0658783C7.90564 -0.0219594 8.09433 -0.0219594 8.24805 0.0658783L11.9981 2.20874C12.1539 2.29776 12.25 2.46343 12.25 2.64285V6.6384L15.7481 8.63729C15.9039 8.72631 16 8.89198 16 9.07141V13.3571C16 13.5366 15.9039 13.7022 15.7481 13.7913L11.9981 15.9341C11.8444 16.022 11.6556 16.022 11.5019 15.9341L7.99998 13.933L4.49806 15.9341C4.34434 16.022 4.15564 16.022 4.00192 15.9341L0.25193 13.7913C0.0961428 13.7022 0 13.5366 0 13.3571V9.07141C0 8.89198 0.0961428 8.72631 0.251931 8.63729L3.74999 6.6384V2.64285C3.74999 2.46343 3.84613 2.29776 4.00192 2.20874L7.75192 0.0658783ZM4.24999 7.50444L1.50778 9.07141L4.24999 10.6384L6.99221 9.07141L4.24999 7.50444ZM7.49999 9.933L4.74999 11.5044V14.6384L7.49999 13.067V9.933ZM8.49998 13.067L11.25 14.6384V11.5044L8.49998 9.933V13.067ZM9.00776 9.07141L11.75 10.6384L14.4922 9.07141L11.75 7.50444L9.00776 9.07141ZM11.25 6.6384V3.50444L8.49998 5.07587V8.20982L11.25 6.6384ZM7.49999 8.20982V5.07587L4.74999 3.50444V6.6384L7.49999 8.20982ZM5.25777 2.64285L7.99998 4.20983L10.7422 2.64285L7.99998 1.07588L5.25777 2.64285ZM15 9.933L12.25 11.5044V14.6384L15 13.067V9.933ZM3.74999 14.6384V11.5044L0.999998 9.933V13.067L3.74999 14.6384Z" fill="currentColor"/>
</svg>
