<svg width="16" height="16" viewBox="0 0 16 16" fill="none" xmlns="http://www.w3.org/2000/svg">
<path d="M8 3C8.27614 3 8.5 3.22386 8.5 3.5V5.5C8.5 5.77614 8.27614 6 8 6C7.72386 6 7.5 5.77614 7.5 5.5V3.5C7.5 3.22386 7.72386 3 8 3Z" fill="currentColor"/>
<path d="M16 11C16 11.2761 15.7761 11.5 15.5 11.5H13.5C13.2239 11.5 13 11.2761 13 11C13 10.7239 13.2239 10.5 13.5 10.5H15.5C15.7761 10.5 16 10.7239 16 11Z" fill="currentColor"/>
<path d="M2.5 11.5C2.77614 11.5 3 11.2761 3 11C3 10.7239 2.77614 10.5 2.5 10.5H0.5C0.223858 10.5 0 10.7239 0 11C0 11.2761 0.223858 11.5 0.5 11.5H2.5Z" fill="currentColor"/>
<path d="M13.657 5.34311C13.8522 5.53837 13.8522 5.85495 13.657 6.05021L12.2427 7.46443C12.0475 7.65969 11.7309 7.65969 11.5356 7.46443C11.3404 7.26916 11.3404 6.95258 11.5356 6.75732L12.9498 5.34311C13.1451 5.14784 13.4617 5.14784 13.657 5.34311Z" fill="currentColor"/>
<path d="M3.75731 7.46443C3.95257 7.65969 4.26916 7.65969 4.46442 7.46443C4.65968 7.26916 4.65968 6.95258 4.46442 6.75732L3.0502 5.3431C2.85494 5.14784 2.53836 5.14784 2.3431 5.3431C2.14784 5.53837 2.14784 5.85495 2.3431 6.05021L3.75731 7.46443Z" fill="currentColor"/>
<path d="M8 7C5.79086 7 4 8.79086 4 11C4 11.2761 4.22386 11.5 4.5 11.5H11.5C11.7761 11.5 12 11.2761 12 11C12 8.79086 10.2091 7 8 7ZM8 8C9.4865 8 10.7205 9.08114 10.9585 10.5H5.04148C5.27952 9.08114 6.5135 8 8 8Z" fill="currentColor"/>
</svg>
