<svg width="16" height="16" viewBox="0 0 16 16" fill="none" xmlns="http://www.w3.org/2000/svg">
<path d="M8.5 5.5C8.5 5.77614 8.27614 6 8 6C7.72386 6 7.5 5.77614 7.5 5.5C7.5 5.22386 7.72386 5 8 5C8.27614 5 8.5 5.22386 8.5 5.5Z" fill="currentColor"/>
<path d="M13.5 11.5C13.2239 11.5 13 11.2761 13 11C13 10.7238 13.2239 10.5 13.5 10.5C13.7761 10.5 14 10.7238 14 11C14 11.2761 13.7761 11.5 13.5 11.5Z" fill="currentColor"/>
<path d="M2 11C2 11.2761 2.22386 11.5 2.5 11.5C2.77614 11.5 3 11.2761 3 11C3 10.7238 2.77614 10.5 2.5 10.5C2.22386 10.5 2 10.7238 2 11Z" fill="currentColor"/>
<path d="M12.2427 7.46452C12.0475 7.65978 11.7309 7.65978 11.5356 7.46452C11.3404 7.26925 11.3404 6.95267 11.5356 6.75741C11.7309 6.56215 12.0475 6.56215 12.2427 6.75741C12.438 6.95267 12.438 7.26925 12.2427 7.46452Z" fill="currentColor"/>
<path d="M3.75741 6.75741C3.56215 6.95267 3.56215 7.26925 3.75741 7.46452C3.95267 7.65978 4.26926 7.65978 4.46452 7.46452C4.65978 7.26925 4.65978 6.95267 4.46452 6.75741C4.26926 6.56215 3.95267 6.56215 3.75741 6.75741Z" fill="currentColor"/>
<path d="M8 7C5.79086 7 4 8.79086 4 11C4 11.2761 4.22386 11.5 4.5 11.5H11.5C11.7761 11.5 12 11.2761 12 11C12 8.79086 10.2091 7 8 7ZM8 8C9.4865 8 10.7205 9.08114 10.9585 10.5H5.04148C5.27952 9.08114 6.5135 8 8 8Z" fill="currentColor"/>
</svg>
