<svg width="16" height="16" viewBox="0 0 16 16" fill="none" xmlns="http://www.w3.org/2000/svg">
<path d="M15.8253 0.12029C15.9933 0.264266 16.0468 0.501593 15.9566 0.703697C14.4261 4.13468 11.2137 8.8743 8.86215 11.3447C8.22704 12.012 7.54604 12.4205 7.02336 12.6626C6.81774 12.7578 6.63556 12.8278 6.48873 12.878C6.47098 13.1051 6.42866 13.4159 6.32831 13.7456C6.12774 14.4046 5.66232 15.2248 4.62124 15.4851C3.54908 15.7531 2.3545 15.7535 1.5428 15.6182C1.33736 15.584 1.14573 15.5393 0.980425 15.4834C0.825653 15.4311 0.650622 15.3548 0.514505 15.2357C0.443707 15.1737 0.360063 15.0799 0.311313 14.9481C0.258136 14.8043 0.259399 14.6486 0.314961 14.5051C0.409971 14.2596 0.631365 14.1253 0.776373 14.0528C1.16942 13.8563 1.40097 13.6002 1.64325 13.2275C1.73744 13.0826 1.82725 12.9298 1.92999 12.755C1.96693 12.6921 2.00554 12.6264 2.04662 12.5572C2.19808 12.3021 2.37295 12.0176 2.59312 11.7094C3.12093 10.9705 3.79384 10.7845 4.33877 10.8132C4.46497 10.8198 4.58212 10.8377 4.68701 10.8606C4.74923 10.6888 4.82872 10.4812 4.92503 10.253C5.18613 9.63422 5.58294 8.83431 6.11228 8.18428C8.28745 5.51317 12.2913 1.97796 15.2286 0.0800421C15.4145 -0.0400593 15.6572 -0.0236867 15.8253 0.12029ZM4.70517 11.9123C4.68617 11.904 4.66243 11.8943 4.63461 11.8843C4.54486 11.8518 4.42242 11.819 4.28621 11.8118C4.03947 11.7988 3.71238 11.8629 3.40686 12.2906C3.21037 12.5657 3.05189 12.8229 2.90647 13.0678C2.87153 13.1266 2.83666 13.186 2.80181 13.2453C2.69545 13.4263 2.58923 13.6071 2.48169 13.7725C2.27551 14.0897 2.04449 14.3832 1.72241 14.6343C2.41096 14.7465 3.45767 14.7452 4.3787 14.5149C4.93761 14.3752 5.22221 13.9454 5.37164 13.4544C5.44553 13.2117 5.47834 12.9747 5.49208 12.796C5.4946 12.7633 5.49646 12.7328 5.49782 12.7049L4.70517 11.9123ZM6.1455 11.9384C6.26538 11.8982 6.42221 11.8389 6.60308 11.7552C7.03921 11.5532 7.60821 11.2117 8.13783 10.6553C10.0382 8.65889 12.5501 5.08575 14.19 2.02381C11.599 3.95066 8.62432 6.68316 6.8877 8.81573C6.44558 9.35865 6.09238 10.0587 5.84635 10.6418C5.72479 10.9298 5.63235 11.1822 5.57053 11.3617C5.57038 11.3622 5.57024 11.3626 5.5701 11.363L6.1455 11.9384ZM4.75407 11.9354L4.756 11.9364C4.75634 11.9366 4.75568 11.9362 4.75407 11.9354Z" fill="currentColor"/>
</svg>
