<svg width="16" height="16" viewBox="0 0 16 16" fill="none" xmlns="http://www.w3.org/2000/svg">
<path d="M2 0.999998C2 0.447714 2.44772 0 2.99999 0H13C13.5523 0 14 0.447714 14 0.999998V7.49999C14 7.77613 13.7761 7.99998 13.5 7.99998C13.2239 7.99998 13 7.77613 13 7.49999V0.999998H2.99999V15H5.99999V12.5C5.99999 12.2239 6.22385 12 6.49999 12H7.99998V16H2.99999C2.44771 16 2 15.5523 2 15V0.999998Z" fill="currentColor"/>
<path d="M4.49999 2C4.22385 2 3.99999 2.22386 3.99999 2.5V3.49999C3.99999 3.77613 4.22385 3.99999 4.49999 3.99999H5.49999C5.77613 3.99999 5.99999 3.77613 5.99999 3.49999V2.5C5.99999 2.22386 5.77613 2 5.49999 2H4.49999Z" fill="currentColor"/>
<path d="M7.49999 2C7.22385 2 6.99999 2.22386 6.99999 2.5V3.49999C6.99999 3.77613 7.22385 3.99999 7.49999 3.99999H8.49998C8.77612 3.99999 8.99998 3.77613 8.99998 3.49999V2.5C8.99998 2.22386 8.77612 2 8.49998 2H7.49999Z" fill="currentColor"/>
<path d="M10.5 2C10.2239 2 9.99998 2.22386 9.99998 2.5V3.49999C9.99998 3.77613 10.2239 3.99999 10.5 3.99999H11.5C11.7761 3.99999 12 3.77613 12 3.49999V2.5C12 2.22386 11.7761 2 11.5 2H10.5Z" fill="currentColor"/>
<path d="M4.49999 4.99999C4.22385 4.99999 3.99999 5.22385 3.99999 5.49999V6.49999C3.99999 6.77613 4.22385 6.99999 4.49999 6.99999H5.49999C5.77613 6.99999 5.99999 6.77613 5.99999 6.49999V5.49999C5.99999 5.22385 5.77613 4.99999 5.49999 4.99999H4.49999Z" fill="currentColor"/>
<path d="M7.49999 4.99999C7.22385 4.99999 6.99999 5.22385 6.99999 5.49999V6.49999C6.99999 6.77613 7.22385 6.99999 7.49999 6.99999H8.49998C8.77612 6.99999 8.99998 6.77613 8.99998 6.49999V5.49999C8.99998 5.22385 8.77612 4.99999 8.49998 4.99999H7.49999Z" fill="currentColor"/>
<path d="M10.5 4.99999C10.2239 4.99999 9.99998 5.22385 9.99998 5.49999V6.49999C9.99998 6.77613 10.2239 6.99999 10.5 6.99999H11.5C11.7761 6.99999 12 6.77613 12 6.49999V5.49999C12 5.22385 11.7761 4.99999 11.5 4.99999H10.5Z" fill="currentColor"/>
<path d="M4.49999 7.99998C4.22385 7.99998 3.99999 8.22384 3.99999 8.49998V9.49998C3.99999 9.77612 4.22385 9.99998 4.49999 9.99998H5.49999C5.77613 9.99998 5.99999 9.77612 5.99999 9.49998V8.49998C5.99999 8.22384 5.77613 7.99998 5.49999 7.99998H4.49999Z" fill="currentColor"/>
<path d="M7.49999 7.99998C7.22385 7.99998 6.99999 8.22384 6.99999 8.49998V9.49998C6.99999 9.77612 7.22385 9.99998 7.49999 9.99998H8.49998C8.77612 9.99998 8.99998 9.77612 8.99998 9.49998V8.49998C8.99998 8.22384 8.77612 7.99998 8.49998 7.99998H7.49999Z" fill="currentColor"/>
<path d="M11.8855 9.45952C12.0661 8.8468 12.9339 8.8468 13.1145 9.45952L13.1583 9.60812C13.2737 9.99962 13.7209 10.1849 14.0793 9.98961L14.2154 9.91551C14.7763 9.60995 15.39 10.2237 15.0845 10.7846L15.0104 10.9207C14.8151 11.2791 15.0004 11.7263 15.3919 11.8417L15.5405 11.8855C16.1532 12.0661 16.1532 12.9339 15.5405 13.1145L15.3919 13.1583C15.0004 13.2737 14.8151 13.7209 15.0104 14.0793L15.0845 14.2154C15.39 14.7763 14.7763 15.39 14.2154 15.0845L14.0793 15.0104C13.7209 14.8151 13.2737 15.0004 13.1583 15.3919L13.1145 15.5405C12.9339 16.1532 12.0661 16.1532 11.8855 15.5405L11.8417 15.3919C11.7263 15.0004 11.2791 14.8151 10.9207 15.0104L10.7846 15.0845C10.2237 15.39 9.60995 14.7763 9.91551 14.2154L9.98961 14.0793C10.1849 13.7209 9.99962 13.2737 9.60812 13.1583L9.45952 13.1145C8.8468 12.9339 8.8468 12.0661 9.45952 11.8855L9.60812 11.8417C9.99962 11.7263 10.1849 11.2791 9.98961 10.9207L9.91551 10.7846C9.60995 10.2237 10.2237 9.60995 10.7846 9.91551L10.9207 9.98961C11.2791 10.1849 11.7263 9.99962 11.8417 9.60812L11.8855 9.45952ZM14 12.5C14 11.6716 13.3284 11 12.5 11C11.6716 11 11 11.6716 11 12.5C11 13.3284 11.6716 14 12.5 14C13.3284 14 14 13.3284 14 12.5Z" fill="currentColor"/>
</svg>
