<svg width="16" height="16" viewBox="0 0 16 16" fill="none" xmlns="http://www.w3.org/2000/svg">
<path fill-rule="evenodd" clip-rule="evenodd" d="M7.27043 1.04714C7.6655 0.625726 8.33443 0.625724 8.72951 1.04714L15.0754 7.81608C15.6742 8.45474 15.2213 9.50002 14.3459 9.50002H11.5V10.5C11.5 11.0523 11.0523 11.5 10.5 11.5H5.49997C4.94768 11.5 4.49997 11.0523 4.49997 10.5V9.50002H1.65409C0.778643 9.50002 0.325796 8.45474 0.924546 7.81608L7.27043 1.04714ZM14.3459 8.50002L7.99997 1.73108L1.65409 8.50002H4.49997C5.05225 8.50002 5.49997 8.94774 5.49997 9.50002V10.5H10.5V9.50002C10.5 8.94774 10.9477 8.50002 11.5 8.50002H14.3459Z" fill="currentColor"/>
<path fill-rule="evenodd" clip-rule="evenodd" d="M4.49994 13.5C4.49994 12.9477 4.94766 12.5 5.49994 12.5H10.4999C11.0522 12.5 11.4999 12.9477 11.4999 13.5V14.5C11.4999 15.0523 11.0522 15.5 10.4999 15.5H5.49994C4.94765 15.5 4.49994 15.0523 4.49994 14.5V13.5ZM10.4999 13.5H5.49994V14.5H10.4999V13.5Z" fill="currentColor"/>
</svg>
