<svg width="16" height="16" viewBox="0 0 16 16" fill="none" xmlns="http://www.w3.org/2000/svg">
<path d="M8 15C4.13401 15 1 11.866 1 8C1 4.13401 4.13401 1 8 1C11.866 1 15 4.13401 15 8C15 11.866 11.866 15 8 15ZM8 16C12.4183 16 16 12.4183 16 8C16 3.58172 12.4183 0 8 0C3.58172 0 0 3.58172 0 8C0 12.4183 3.58172 16 8 16Z" fill="currentColor"/>
<path d="M10.9697 4.96967C10.9626 4.97674 10.9559 4.98423 10.9498 4.9921L7.47737 9.41674L5.38385 7.32322C5.09095 7.03033 4.61608 7.03033 4.32319 7.32322C4.03029 7.61612 4.03029 8.09099 4.32319 8.38388L6.96963 11.0303C7.26253 11.3232 7.7374 11.3232 8.03029 11.0303C8.03682 11.0238 8.04297 11.0169 8.04873 11.0097L12.041 6.01947C12.3232 5.72582 12.3196 5.25897 12.0303 4.96967C11.7374 4.67678 11.2626 4.67678 10.9697 4.96967Z" fill="currentColor"/>
</svg>
