<svg width="16" height="16" viewBox="0 0 16 16" fill="none" xmlns="http://www.w3.org/2000/svg">
<path fill-rule="evenodd" clip-rule="evenodd" d="M3.64645 11.8536C3.84171 12.0488 4.15829 12.0488 4.35355 11.8536L8 8.20711L11.6464 11.8536C11.8417 12.0488 12.1583 12.0488 12.3536 11.8536C12.5488 11.6583 12.5488 11.3417 12.3536 11.1464L8.35355 7.14645C8.15829 6.95118 7.84171 6.95118 7.64645 7.14645L3.64645 11.1464C3.45118 11.3417 3.45118 11.6583 3.64645 11.8536Z" fill="currentColor"/>
<path fill-rule="evenodd" clip-rule="evenodd" d="M2.40002 5.20005C2.40002 5.42096 2.57911 5.60005 2.80002 5.60005H13.2C13.4209 5.60005 13.6 5.42096 13.6 5.20005C13.6 4.97914 13.4209 4.80005 13.2 4.80005H2.80002C2.57911 4.80005 2.40002 4.97914 2.40002 5.20005Z" fill="currentColor"/>
</svg>
