<svg width="16" height="16" viewBox="0 0 16 16" fill="none" xmlns="http://www.w3.org/2000/svg">
<path fill-rule="evenodd" clip-rule="evenodd" d="M3.64645 14.8536C3.84171 15.0488 4.15829 15.0488 4.35355 14.8536L8 11.2071L11.6464 14.8536C11.8417 15.0488 12.1583 15.0488 12.3536 14.8536C12.5488 14.6583 12.5488 14.3417 12.3536 14.1464L8.35355 10.1464C8.15829 9.95119 7.84171 9.95119 7.64645 10.1464L3.64645 14.1464C3.45118 14.3417 3.45118 14.6583 3.64645 14.8536Z" fill="currentColor"/>
<path fill-rule="evenodd" clip-rule="evenodd" d="M3.64645 1.14645C3.84171 0.951183 4.15829 0.951183 4.35355 1.14645L8 4.79289L11.6464 1.14645C11.8417 0.951184 12.1583 0.951184 12.3536 1.14645C12.5488 1.34171 12.5488 1.65829 12.3536 1.85355L8.35355 5.85355C8.15829 6.04882 7.84171 6.04882 7.64645 5.85355L3.64645 1.85355C3.45118 1.65829 3.45118 1.34171 3.64645 1.14645Z" fill="currentColor"/>
<path fill-rule="evenodd" clip-rule="evenodd" d="M1 8C1 7.72386 1.22386 7.5 1.5 7.5H14.5C14.7761 7.5 15 7.72386 15 8C15 8.27614 14.7761 8.5 14.5 8.5H1.5C1.22386 8.5 1 8.27614 1 8Z" fill="currentColor"/>
</svg>
