<svg width="16" height="16" viewBox="0 0 16 16" fill="none" xmlns="http://www.w3.org/2000/svg">
<path fill-rule="evenodd" clip-rule="evenodd" d="M11.8536 3.64645C12.0488 3.84171 12.0488 4.15829 11.8536 4.35355L8.20711 8L11.8536 11.6464C12.0488 11.8417 12.0488 12.1583 11.8536 12.3536C11.6583 12.5488 11.3417 12.5488 11.1464 12.3536L7.14645 8.35355C6.95118 8.15829 6.95118 7.84171 7.14645 7.64645L11.1464 3.64645C11.3417 3.45118 11.6583 3.45118 11.8536 3.64645Z" fill="currentColor"/>
<path fill-rule="evenodd" clip-rule="evenodd" d="M4.5 1C4.22386 1 4 1.22386 4 1.5V14.5C4 14.7761 4.22386 15 4.5 15C4.77614 15 5 14.7761 5 14.5V1.5C5 1.22386 4.77614 1 4.5 1Z" fill="currentColor"/>
</svg>
