<svg width="16" height="16" viewBox="0 0 16 16" fill="none" xmlns="http://www.w3.org/2000/svg">
<path d="M13.4053 11.9729C12.9524 14.2688 10.9287 16 8.5 16C6.44002 16 4.67207 14.7546 3.90606 12.9767C3.77271 12.9921 3.63721 13 3.5 13C1.567 13 0 11.433 0 9.50003C0 7.56704 1.567 6.00003 3.5 6.00003H13C14.6569 6.00003 16 7.34318 16 9.00003C16 10.5194 14.8705 11.775 13.4053 11.9729ZM8.5 15C10.5586 15 12.2546 13.4445 12.4756 11.445C12.5037 11.1906 12.7193 10.9985 12.9752 10.9999L13 11H13.0013C14.1053 10.9993 15 10.1042 15 9.00003C15 7.89546 14.1046 7.00003 13 7.00003H3.5C2.11929 7.00003 1 8.11932 1 9.50003C1 10.8807 2.11929 12 3.5 12C3.70933 12 3.91197 11.9744 4.10527 11.9264C4.35911 11.8633 4.61867 12.0065 4.70065 12.2549C5.22714 13.8499 6.72992 15 8.5 15Z" fill="currentColor"/>
<path d="M7.05279 4.72364C7.13748 4.89303 7.31061 5.00003 7.5 5.00003H8.5C8.66072 5.00003 8.81165 4.92277 8.90562 4.79239C8.9996 4.662 9.02517 4.49439 8.97434 4.34192L8.69371 3.50003H9.5C9.6922 3.50003 9.86739 3.38986 9.95065 3.21663C10.0339 3.04339 10.0105 2.83777 9.89043 2.68769L7.89043 0.187685C7.74359 0.00413474 7.48873 -0.0523495 7.27809 0.0519753C7.06745 0.1563 6.95792 0.393259 7.01493 0.6213L7.35961 2.00003H6.5C6.32671 2.00003 6.16578 2.08976 6.07467 2.23717C5.98357 2.38458 5.97529 2.56865 6.05279 2.72364L7.05279 4.72364Z" fill="currentColor"/>
</svg>
