<svg width="16" height="16" viewBox="0 0 16 16" fill="none" xmlns="http://www.w3.org/2000/svg">
<path d="M4.17554 4.96826C4.43409 4.8713 4.56509 4.5831 4.46814 4.32454L2.96815 0.324572C2.87119 0.0660128 2.58299 -0.0649886 2.32443 0.0319707C2.06587 0.12893 1.93487 0.417134 2.03183 0.675692L3.53182 4.67566C3.62878 4.93422 3.91698 5.06522 4.17554 4.96826ZM7.17551 4.96826C7.43407 4.8713 7.56507 4.5831 7.46811 4.32454L5.96812 0.324572C5.87116 0.0660128 5.58297 -0.0649886 5.32441 0.0319707C5.06585 0.12893 4.93485 0.417134 5.03181 0.675692L6.5318 4.67566C6.62876 4.93422 6.91696 5.06522 7.17551 4.96826ZM10.1755 4.96826C10.434 4.8713 10.565 4.5831 10.4681 4.32454L8.9681 0.324572C8.87114 0.0660128 8.58294 -0.0649886 8.32439 0.0319707C8.06583 0.12893 7.93483 0.417134 8.03179 0.675692L9.53178 4.67566C9.62874 4.93422 9.91693 5.06522 10.1755 4.96826ZM13.1755 4.96826C13.434 4.8713 13.565 4.5831 13.4681 4.32454L11.9681 0.324572C11.8711 0.0660128 11.5829 -0.0649886 11.3243 0.0319707C11.0658 0.12893 10.9348 0.417134 11.0317 0.675692L12.5317 4.67566C12.6287 4.93422 12.9169 5.06522 13.1755 4.96826Z" fill="currentColor"/>
<path d="M13.4052 11.9729C12.9523 14.2688 10.9286 16 8.49994 16C6.43997 16 4.67203 14.7546 3.90603 12.9767C3.77268 12.9921 3.63718 13 3.49997 13C1.56699 13 0 11.433 0 9.50006C0 7.56708 1.56699 6.00009 3.49997 6.00009H12.9999C14.6568 6.00009 15.9999 7.34322 15.9999 9.00007C15.9999 10.5194 14.8704 11.775 13.4052 11.9729ZM8.49994 15C10.5585 15 12.2545 13.4445 12.4755 11.445C12.5036 11.1906 12.7192 10.9985 12.9751 10.9999L12.9999 11H13.0012C14.1052 10.9993 14.9999 10.1042 14.9999 9.00007C14.9999 7.89551 14.1045 7.00008 12.9999 7.00008H3.49997C2.11927 7.00008 0.999992 8.11936 0.999992 9.50006C0.999992 10.8807 2.11927 12 3.49997 12C3.7093 12 3.91194 11.9744 4.10524 11.9264C4.35908 11.8633 4.61863 12.0065 4.70061 12.2549C5.2271 13.85 6.72987 15 8.49994 15Z" fill="currentColor"/>
</svg>
