<svg width="16" height="16" viewBox="0 0 16 16" fill="none" xmlns="http://www.w3.org/2000/svg">
<path d="M3.92383 5.92383C3.9123 6.0028 3.90626 6.07978 3.90625 6.1543V6.60254L3.46094 6.65137C2.06377 6.80494 1 7.95283 1 9.31836C1.0001 10.785 2.23066 12 3.78125 12H10L11 13H3.78125C1.7076 13 9.86027e-05 11.3661 0 9.31836C0 7.55529 1.26602 6.09473 2.94238 5.72461C2.97635 5.51912 3.03334 5.31374 3.11133 5.11133L3.92383 5.92383ZM8 2C10.6902 2 12.9236 3.99956 13.166 6.5791C14.7582 6.80435 15.9999 8.13653 16 9.77246C16 10.9163 15.3918 11.91 14.4824 12.4824L13.75 11.75C14.4964 11.377 15 10.6257 15 9.77246C14.9999 8.55688 13.9792 7.5459 12.6875 7.5459H12.1875V7.0459C12.1875 4.82605 10.3273 3 8 3C7.1249 3 6.32188 3.25925 5.66113 3.66113L4.93652 2.93652C5.77798 2.37329 6.83436 2 8 2Z" fill="currentColor"/>
<path d="M13.6465 14.3535L1.64648 2.35353L2.35359 1.64642L14.3536 13.6464L13.6465 14.3535Z" fill="currentColor"/>
</svg>
