<svg width="16" height="16" viewBox="0 0 16 16" fill="none" xmlns="http://www.w3.org/2000/svg">
<path d="M8.5 13C6.72992 13 5.22714 11.8499 4.70065 10.2549C4.61409 9.99264 4.33135 9.85023 4.06912 9.93679C3.8069 10.0233 3.66449 10.3061 3.75104 10.5683C4.40876 12.5609 6.28567 14 8.5 14C10.9287 14 12.9524 12.2688 13.4053 9.97285C14.8705 9.77496 16 8.51939 16 7C16 5.34315 14.6569 4 13 4H4.5C4.22386 4 4 4.22386 4 4.5C4 4.77614 4.22386 5 4.5 5H13C14.1046 5 15 5.89543 15 7C15 8.10414 14.1053 8.99931 13.0013 9H13L12.9752 8.99986C12.7193 8.99849 12.5037 9.19057 12.4756 9.44493C12.2546 11.4444 10.5586 13 8.5 13ZM0 8.5C0 8.77614 0.223858 9 0.5 9H5.5C5.77614 9 6 8.77614 6 8.5C6 8.22386 5.77614 8 5.5 8H0.5C0.223858 8 0 8.22386 0 8.5ZM2 6.5C2 6.77614 2.22386 7 2.5 7H11.5C11.7761 7 12 6.77614 12 6.5C12 6.22386 11.7761 6 11.5 6H2.5C2.22386 6 2 6.22386 2 6.5ZM0 2.5C0 2.77614 0.223858 3 0.5 3H9.5C9.77614 3 10 2.77614 10 2.5C10 2.22386 9.77614 2 9.5 2H0.5C0.223858 2 0 2.22386 0 2.5Z" fill="currentColor"/>
</svg>
