<svg width="16" height="16" viewBox="0 0 16 16" fill="none" xmlns="http://www.w3.org/2000/svg">
<path d="M13.4053 11.4729C12.9524 13.7688 10.9287 15.5 8.5 15.5C6.44002 15.5 4.67207 14.2545 3.90606 12.4766C3.77271 12.4921 3.63721 12.5 3.5 12.5C1.567 12.5 0 10.933 0 9C0 7.067 1.567 5.5 3.5 5.5H13C14.6569 5.5 16 6.84315 16 8.5C16 10.0194 14.8705 11.275 13.4053 11.4729ZM8.5 14.5C10.5586 14.5 12.2546 12.9444 12.4756 10.9449C12.5037 10.6906 12.7193 10.4985 12.9752 10.4999L13 10.5H13.0013C14.1053 10.4993 15 9.60414 15 8.5C15 7.39543 14.1046 6.5 13 6.5H3.5C2.11929 6.5 1 7.61929 1 9C1 10.3807 2.11929 11.5 3.5 11.5C3.70933 11.5 3.91197 11.4744 4.10527 11.4263C4.35911 11.3633 4.61867 11.5065 4.70065 11.7549C5.22714 13.3499 6.72992 14.5 8.5 14.5Z" fill="currentColor"/>
<path d="M3.75 0.75C3.75 0.335786 3.41421 0 3 0C2.58579 0 2.25 0.335786 2.25 0.75C2.25 1.16421 2.58579 1.5 3 1.5C3.41421 1.5 3.75 1.16421 3.75 0.75Z" fill="currentColor"/>
<path d="M4.15812 4.47434C4.4201 4.38702 4.56168 4.10386 4.47435 3.84189L3.97435 2.34189C3.88703 2.07991 3.60387 1.93833 3.3419 2.02566C3.07992 2.11298 2.93834 2.39614 3.02567 2.65811L3.52567 4.15811C3.61299 4.42009 3.89615 4.56167 4.15812 4.47434Z" fill="currentColor"/>
<path d="M7.75 0.75C7.75 0.335786 7.41421 0 7 0C6.58579 0 6.25 0.335786 6.25 0.75C6.25 1.16421 6.58579 1.5 7 1.5C7.41421 1.5 7.75 1.16421 7.75 0.75Z" fill="currentColor"/>
<path d="M8.15812 4.47434C8.4201 4.38702 8.56169 4.10386 8.47436 3.84189L7.97435 2.34189C7.88703 2.07991 7.60387 1.93833 7.3419 2.02566C7.07992 2.11298 6.93834 2.39614 7.02567 2.65811L7.52567 4.15811C7.61299 4.42009 7.89615 4.56167 8.15812 4.47434Z" fill="currentColor"/>
<path d="M11.75 0.75C11.75 0.335786 11.4142 0 11 0C10.5858 0 10.25 0.335786 10.25 0.75C10.25 1.16421 10.5858 1.5 11 1.5C11.4142 1.5 11.75 1.16421 11.75 0.75Z" fill="currentColor"/>
<path d="M12.1581 4.47434C12.4201 4.38702 12.5617 4.10386 12.4743 3.84189L11.9743 2.34189C11.887 2.07991 11.6039 1.93833 11.3419 2.02566C11.0799 2.11298 10.9383 2.39614 11.0257 2.65811L11.5257 4.15811C11.613 4.42009 11.8961 4.56167 12.1581 4.47434Z" fill="currentColor"/>
</svg>
