<svg width="16" height="16" viewBox="0 0 16 16" fill="none" xmlns="http://www.w3.org/2000/svg">
<path d="M15.9999 7.5C15.9999 8.50835 15.4033 9.37641 14.5442 9.77192C14.3698 9.46522 14.1503 9.18745 13.8948 8.94761C14.5319 8.77437 14.9999 8.19122 14.9999 7.5C14.9999 6.67157 14.3283 6 13.4999 6C13.3625 6 13.2302 6.01834 13.105 6.05241C12.9649 6.09049 12.8153 6.06587 12.6949 5.98494C12.5744 5.90401 12.4951 5.77476 12.4775 5.63074C12.2958 4.14831 11.0316 3 9.49994 3C8.60856 3 7.80799 3.38876 7.2585 4.00597C7.17281 4.002 7.08661 4 6.99994 4C6.65222 4 6.31211 4.03225 5.98242 4.0939C6.65969 2.84671 7.98094 2 9.49994 2C11.365 2 12.9314 3.27615 13.3746 5.0031C13.4161 5.00104 13.4579 5 13.4999 5C14.8806 5 15.9999 6.11929 15.9999 7.5Z" fill="currentColor"/>
<path d="M7 5C9.31633 5 11.2239 6.7501 11.4726 9.00015L11.5 9C12.8807 9 14 10.1193 14 11.5C14 12.8807 12.8807 14 11.5 14H3C1.34315 14 0 12.6569 0 11C0 9.42642 1.21152 8.13582 2.75267 8.01005C3.36759 6.25725 5.03642 5 7 5ZM10.5 9.5C10.5 7.567 8.933 6 7 6C5.36885 6 3.99717 7.11628 3.60954 8.62733C3.55053 8.85739 3.33781 9.01418 3.10059 9.00248C3.06728 9.00083 3.03375 9 3 9C1.89543 9 1 9.89543 1 11C1 12.1046 1.89543 13 3 13H11.5C12.3284 13 13 12.3284 13 11.5C13 10.6716 12.3284 10 11.5 10C11.3696 10 11.2438 10.0165 11.1243 10.0473C10.9732 10.0862 10.8127 10.0524 10.6902 9.95596C10.5676 9.85947 10.4972 9.71134 10.4996 9.5554C10.4999 9.53697 10.5 9.5185 10.5 9.5Z" fill="currentColor"/>
</svg>
