<svg width="16" height="16" viewBox="0 0 16 16" fill="none" xmlns="http://www.w3.org/2000/svg">
<path d="M8 13.3333V14.6667M8 1.33331V2.66665M11.3333 13.3333V14.6667M11.3333 1.33331V2.66665M1.33333 7.99998H2.66667M1.33333 11.3333H2.66667M1.33333 4.66665H2.66667M13.3333 7.99998H14.6667M13.3333 11.3333H14.6667M13.3333 4.66665H14.6667M4.66667 13.3333V14.6667M4.66667 1.33331V2.66665M12 2.66665H4C3.26362 2.66665 2.66667 3.2636 2.66667 3.99998V12C2.66667 12.7364 3.26362 13.3333 4 13.3333H12C12.7364 13.3333 13.3333 12.7364 13.3333 12V3.99998C13.3333 3.2636 12.7364 2.66665 12 2.66665ZM10 5.33331H6C5.63181 5.33331 5.33333 5.63179 5.33333 5.99998V9.99998C5.33333 10.3682 5.63181 10.6667 6 10.6667H10C10.3682 10.6667 10.6667 10.3682 10.6667 9.99998V5.99998C10.6667 5.63179 10.3682 5.33331 10 5.33331Z" stroke="currentColor" stroke-width="1.33333" stroke-linecap="round" stroke-linejoin="round"/>
</svg>
