<svg width="16" height="16" viewBox="0 0 16 16" fill="none" xmlns="http://www.w3.org/2000/svg">
<path d="M5.49999 13V14.25C5.49999 14.3881 5.61192 14.5 5.74999 14.5H6.74999C6.88806 14.5 6.99999 14.3881 6.99999 14.25V13H7.49999V14.25C7.49999 14.3881 7.61192 14.5 7.74999 14.5H8.74999C8.88806 14.5 8.99999 14.3881 8.99999 14.25V13H9.08436C11.0762 13 12.5 11.967 12.5 10.1795C12.5 8.67766 11.4933 7.85714 10.314 7.73993V7.65201C11.2848 7.41026 11.9966 6.67766 11.9966 5.46154C11.9966 3.9304 10.8461 3 9.09155 3H8.99999V1.75C8.99999 1.61193 8.88806 1.5 8.74999 1.5H7.74999C7.61192 1.5 7.49999 1.61193 7.49999 1.75V3H6.92712V1.75C6.92712 1.61193 6.81519 1.5 6.67712 1.5H5.74999C5.61192 1.5 5.49999 1.61193 5.49999 1.75V3L3.50162 3.01123C3.36355 3.01123 3.25162 3.12316 3.25162 3.26123V4.25001C3.25162 4.38745 3.36258 4.49912 3.50002 4.5L4.2548 4.49522C4.66713 4.49787 4.99999 4.83287 4.99999 5.24521V10.75C4.99999 11.1642 4.6642 11.5 4.24999 11.5L3.50162 11.5112C3.36355 11.5112 3.25162 11.6232 3.25162 11.7612V12.7612C3.25162 12.8993 3.36355 13.0112 3.50162 13.0112L5.49999 13ZM6.92712 4.48718H8.64572C9.55176 4.48718 10.0839 4.98535 10.0839 5.79853C10.0839 6.67033 9.50862 7.16117 8.20708 7.16117H6.92712V4.48718ZM6.92712 8.53846H8.76797C9.90411 8.53846 10.5225 9.11722 10.5225 10.0623C10.5225 11.0147 9.89692 11.5128 8.36528 11.5128H6.92712V8.53846Z" fill="currentColor"/>
</svg>
