<svg width="16" height="16" viewBox="0 0 16 16" fill="none" xmlns="http://www.w3.org/2000/svg">
<path d="M2.50005 0C2.33373 0 2.17072 0.0163117 2.01269 0.047574L2.20676 1.02856C2.30122 1.00988 2.39923 0.999996 2.50005 0.999996H2.95837V0H2.50005Z" fill="currentColor"/>
<path d="M4.79165 0H3.87499V0.999996H4.79165V0Z" fill="currentColor"/>
<path d="M6.62502 0H5.70835V0.999996H6.62502V0Z" fill="currentColor"/>
<path d="M8.45825 0H7.5416V0.999996H8.45825V0Z" fill="currentColor"/>
<path d="M10.2917 0H9.37496V0.999996H10.2917V0Z" fill="currentColor"/>
<path d="M12.1249 0H11.2082V0.999996H12.1249V0Z" fill="currentColor"/>
<path d="M13.5 0H13.0417V0.999996H13.5C13.6008 0.999996 13.6988 1.00988 13.7933 1.02856L13.9874 0.0475739C13.8293 0.0163117 13.6663 0 13.5 0Z" fill="currentColor"/>
<path d="M15.5786 1.11061C15.3962 0.838195 15.1618 0.60376 14.8894 0.421385L14.3331 1.25235C14.4969 1.36201 14.638 1.50314 14.7476 1.66693L15.5786 1.11061Z" fill="currentColor"/>
<path d="M1.11061 0.421385C0.838195 0.60376 0.60376 0.838195 0.421385 1.11061L1.25235 1.66693C1.36201 1.50314 1.50314 1.36201 1.66693 1.25235L1.11061 0.421385Z" fill="currentColor"/>
<path d="M16 2.50005C16 2.33373 15.9837 2.17072 15.9524 2.01269L14.9714 2.20676C14.9901 2.30122 15 2.39923 15 2.50005V2.95837H16V2.50005Z" fill="currentColor"/>
<path d="M0.0475739 2.01269C0.0163117 2.17072 0 2.33373 0 2.50005V2.95837H0.999996V2.50005C0.999996 2.39923 1.00988 2.30122 1.02856 2.20676L0.0475739 2.01269Z" fill="currentColor"/>
<path d="M0 3.87499V4.79165H0.999996V3.87499H0Z" fill="currentColor"/>
<path d="M15.9999 4.79165V3.87499H14.9999V4.79165H15.9999Z" fill="currentColor"/>
<path d="M0 5.70835V6.62502H0.999996V5.70835H0Z" fill="currentColor"/>
<path d="M15.9999 6.62502V5.70835H14.9999V6.62502H15.9999Z" fill="currentColor"/>
<path d="M0 7.5416V8.45825H0.999996V7.5416H0Z" fill="currentColor"/>
<path d="M14.9999 8.45825H15.9999V7.5416H14.9999V8.45825Z" fill="currentColor"/>
<path d="M0 9.37496V10.2917H0.999996V9.37496H0Z" fill="currentColor"/>
<path d="M15.9999 10.2917V9.37496H14.9999V10.2917H15.9999Z" fill="currentColor"/>
<path d="M0 11.2082V12.1249H0.999996V11.2082H0Z" fill="currentColor"/>
<path d="M15.9999 12.1249V11.2082H14.9999V12.1249H15.9999Z" fill="currentColor"/>
<path d="M0 13.0417V13.5C0 13.6663 0.0163117 13.8293 0.047574 13.9874L1.02856 13.7933C1.00988 13.6988 0.999996 13.6008 0.999996 13.5V13.0417H0Z" fill="currentColor"/>
<path d="M16 13.5V13.0417H15V13.5C15 13.6008 14.9901 13.6988 14.9714 13.7933L15.9524 13.9874C15.9837 13.8293 16 13.6663 16 13.5Z" fill="currentColor"/>
<path d="M0.421385 14.8894C0.60376 15.1618 0.838195 15.3962 1.11061 15.5786L1.66693 14.7476C1.50314 14.638 1.36201 14.4969 1.25235 14.3331L0.421385 14.8894Z" fill="currentColor"/>
<path d="M14.8894 15.5786C15.1618 15.3962 15.3962 15.1618 15.5786 14.8894L14.7476 14.3331C14.638 14.4969 14.4969 14.638 14.3331 14.7476L14.8894 15.5786Z" fill="currentColor"/>
<path d="M2.01269 15.9524C2.17072 15.9837 2.33373 16 2.50005 16H2.95837V15H2.50005C2.39923 15 2.30122 14.9901 2.20676 14.9714L2.01269 15.9524Z" fill="currentColor"/>
<path d="M13.5 16C13.6663 16 13.8293 15.9837 13.9874 15.9524L13.7933 14.9714C13.6988 14.9901 13.6008 15 13.5 15H13.0417V16H13.5Z" fill="currentColor"/>
<path d="M3.87499 15.9999H4.79165V14.9999H3.87499V15.9999Z" fill="currentColor"/>
<path d="M5.70835 15.9999H6.62502V14.9999H5.70835V15.9999Z" fill="currentColor"/>
<path d="M7.5416 15.9999H8.45825V14.9999H7.5416V15.9999Z" fill="currentColor"/>
<path d="M9.37496 15.9999H10.2917V14.9999H9.37496V15.9999Z" fill="currentColor"/>
<path d="M11.2082 15.9999H12.1249V14.9999H11.2082V15.9999Z" fill="currentColor"/>
<path d="M4.49998 7.49997C4.22384 7.49997 3.99998 7.72383 3.99998 7.99997C3.99998 8.27611 4.22384 8.49997 4.49998 8.49997H11.5C11.7761 8.49997 12 8.27611 12 7.99997C12 7.72383 11.7761 7.49997 11.5 7.49997H4.49998Z" fill="currentColor"/>
</svg>
