<svg width="16" height="16" viewBox="0 0 16 16" fill="none" xmlns="http://www.w3.org/2000/svg">
<path d="M14 12.5C14 13.3284 13.3284 14 12.5 14C11.6716 14 11 13.3284 11 12.5C11 11.6716 11.6716 11 12.5 11C13.3284 11 14 11.6716 14 12.5Z" fill="currentColor"/>
<path d="M10 12.5C10 13.3284 9.32843 14 8.5 14C7.67157 14 7 13.3284 7 12.5C7 11.6716 7.67157 11 8.5 11C9.32843 11 10 11.6716 10 12.5Z" fill="currentColor"/>
<path d="M12.5 1C13.2842 1 13.9998 1.59006 14 2.41211V3H16V16H1V3H3V2.41211C3.00021 1.59011 3.71574 1 4.5 1C5.2842 1 5.99979 1.59006 6 2.41211V3H11V2.41211C11.0002 1.59011 11.7157 1 12.5 1ZM2 15H15V6H2V15ZM6 14H3V11H6V14ZM4 13H5V12H4V13ZM6 10H3V7H6V10ZM10 10H7V7H10V10ZM14 10H11V7H14V10ZM4 9H5V8H4V9ZM8 9H9V8H8V9ZM12 9H13V8H12V9ZM2 5H15V4H12V4.5H11V4H4V4.5H3V4H2V5ZM12.5 2C12.18 2 12.0002 2.2265 12 2.41211V3H13V2.41211C12.9998 2.22649 12.82 2 12.5 2ZM4.5 2C4.17996 2 4.00023 2.2265 4 2.41211V3H5V2.41211C4.99977 2.22649 4.82003 2 4.5 2Z" fill="currentColor"/>
</svg>
