<svg width="16" height="16" viewBox="0 0 16 16" fill="none" xmlns="http://www.w3.org/2000/svg">
<path d="M13.15 5.42625C13.1657 5.32125 13.1639 5.19062 13.1636 5.08344C13.1636 4.24 12.486 3.55344 11.653 3.55344H11.2427V2.24656C11.2427 1.6575 11.0159 1.10031 10.604 0.678125C10.1961 0.26 9.65156 0.019375 9.07029 0C9.06536 0 9.06042 0 9.05518 0H4.90116C4.89684 0 4.89252 0 4.88851 0C4.22826 0.0184375 3.60935 0.29 3.14533 0.765C2.67791 1.24344 2.42029 1.87531 2.42029 2.54375V3.55344H2.00995C1.17692 3.55344 0.49939 4.23969 0.49939 5.08344V5.22281C0.49939 6.06625 1.17692 6.75281 2.00995 6.75281H2.41504V7.44688C2.41504 9.8975 4.37111 11.8941 6.78472 11.9194C6.97601 14.1894 8.84198 15.9869 11.1085 16C11.1171 16 11.1254 16 11.1341 16C12.2938 16 13.3857 15.5434 14.2104 14.7125C15.0416 13.8753 15.4994 12.7622 15.4994 11.5781V8.17813C15.4994 6.78063 14.4773 5.62094 13.15 5.42625ZM11.653 4.49094C11.9754 4.49094 12.238 4.75656 12.238 5.08344C12.238 5.18031 12.2441 5.30594 12.2121 5.3975H11.2476V4.49125L11.653 4.49094ZM3.34587 2.54406C3.34587 2.12406 3.50816 1.72625 3.80311 1.42469C4.09714 1.12375 4.48927 0.950938 4.90795 0.937813H9.04715C9.74782 0.964688 10.3171 1.55031 10.3171 2.24719V3.45969C10.2177 3.41406 10.1255 3.3525 10.0437 3.27625C9.70555 2.96125 9.26652 2.77969 8.80743 2.76531C8.34834 2.75125 7.89912 2.90438 7.54246 3.19781L7.3953 3.31875C7.21141 3.47 6.9794 3.55344 6.74245 3.55344H3.34587V2.54406ZM1.42529 5.22281V5.08344C1.42529 4.75687 1.68753 4.49094 2.01025 4.49094H2.41535V5.815H2.01025C1.68784 5.815 1.42529 5.54968 1.42529 5.22281ZM3.34093 7.44688V4.49031H6.74245C7.19136 4.49031 7.63039 4.3325 7.97872 4.04594L8.12589 3.925C8.50384 3.61406 9.05857 3.63156 9.41677 3.96563C9.67408 4.20563 9.98631 4.36875 10.322 4.44344V5.3975H9.51396C8.00001 5.3975 6.76868 6.645 6.76868 8.17813V10.9816C4.87277 10.9475 3.34093 9.375 3.34093 7.44688ZM14.5741 11.5781C14.5741 12.5109 14.2135 13.3878 13.5582 14.0478C12.9078 14.7025 12.0479 15.0625 11.1341 15.0625C11.1273 15.0625 11.1205 15.0625 11.1137 15.0625C9.22795 15.0516 7.69395 13.4691 7.69395 11.5347C7.6921 11.4816 7.69395 8.17813 7.69395 8.17813C7.69395 7.16188 8.51032 6.335 9.51365 6.335H12.7541C13.7575 6.335 14.5738 7.16188 14.5738 8.17813L14.5741 11.5781Z" fill="currentColor"/>
<path d="M12.3382 12.3756C12.1293 12.2266 11.8406 12.2772 11.6934 12.4888C11.565 12.6734 11.3562 12.7834 11.1346 12.7834C10.9131 12.7834 10.7046 12.6734 10.5759 12.4888C10.4287 12.2772 10.1399 12.2266 9.93104 12.3756C9.72217 12.5247 9.67219 12.8172 9.81936 13.0288C10.1208 13.4619 10.6126 13.7206 11.1346 13.7206C11.6567 13.7206 12.1485 13.4619 12.4499 13.0284C12.5971 12.8169 12.5471 12.5247 12.3382 12.3756Z" fill="currentColor"/>
</svg>
