<svg width="16" height="16" viewBox="0 0 16 16" fill="none" xmlns="http://www.w3.org/2000/svg">
<path fill-rule="evenodd" clip-rule="evenodd" d="M7.99994 0C8.18933 0 8.36246 0.107 8.44715 0.276391L8.80895 0.999992H13.4999C14.3283 0.999992 14.9999 1.67156 14.9999 2.49998V10.9999H15.4999C15.776 10.9999 15.9999 11.2238 15.9999 11.4999C15.9999 11.776 15.776 11.9999 15.4999 11.9999H12.6403L13.485 15.3786C13.5519 15.6465 13.3891 15.918 13.1212 15.985C12.8533 16.0519 12.5818 15.8891 12.5148 15.6212L12.1095 13.9999H3.89036L3.48504 15.6212C3.41807 15.8891 3.14661 16.0519 2.87871 15.985C2.61081 15.918 2.44793 15.6465 2.51491 15.3786L3.35958 11.9999H0.499996C0.223856 11.9999 0 11.776 0 11.4999C0 11.2238 0.223856 10.9999 0.499996 10.9999H0.999992V2.49998C0.999992 1.67156 1.67156 0.999992 2.49998 0.999992H7.19093L7.55273 0.276391C7.63742 0.107 7.81055 0 7.99994 0ZM1.99998 10.9999H13.9999V2.49998C13.9999 2.22384 13.776 1.99998 13.4999 1.99998H2.49998C2.22384 1.99998 1.99998 2.22384 1.99998 2.49998V10.9999ZM11.6095 11.9999H4.39036L4.14036 12.9999H11.8595L11.6095 11.9999Z" fill="currentColor"/>
</svg>
