<svg width="16" height="16" viewBox="0 0 16 16" fill="none" xmlns="http://www.w3.org/2000/svg">
<path d="M12 0C13.1046 0 14 0.895431 14 2V3.13281L14.9414 3.63477C15.5929 3.9823 15.9998 4.66106 16 5.39941V13.999C16 15.1036 15.1046 15.999 14 15.999H2C0.895431 15.999 0 15.1036 0 13.999V5.39941C0.000197365 4.66106 0.407127 3.9823 1.05859 3.63477L2 3.13281V2C2 0.895431 2.89543 2.41596e-08 4 0H12ZM1.03516 14.2617C1.1504 14.6867 1.5385 14.999 2 14.999H14C14.4615 14.999 14.8496 14.6867 14.9648 14.2617L8 10.083L1.03516 14.2617ZM1 13.1162L5.77832 10.249L1 7.38281V13.1162ZM10.2217 10.249L15 13.1162V7.38281L10.2217 10.249ZM4 1C3.44772 1 3 1.44772 3 2V7.41602L6.75 9.66602L8 8.91602L9.25 9.66602L13 7.41602V2C13 1.44772 12.5523 1 12 1H4ZM8 2.98145C9.6645 1.3091 13.8251 4.23649 8 8C2.17486 4.23649 6.3355 1.3091 8 2.98145ZM1.5293 4.51758C1.20375 4.69133 1.0002 5.03042 1 5.39941V6.2168L2 6.81641V4.26562L1.5293 4.51758ZM14 6.81641L15 6.2168V5.39941C14.9998 5.03041 14.7962 4.69133 14.4707 4.51758L14 4.26562V6.81641Z" fill="currentColor"/>
</svg>
