<svg width="16" height="16" viewBox="0 0 16 16" fill="none" xmlns="http://www.w3.org/2000/svg">
<path d="M13.3536 0.646461C12.8821 0.175057 12.1179 0.175056 11.6464 0.646461L8.5 3.79291L7.85355 3.14646C7.65829 2.9512 7.34171 2.9512 7.14645 3.14646C6.95118 3.34172 6.95118 3.65831 7.14645 3.85357L8.29289 5.00001L1.14645 12.1465C1.05268 12.2402 1 12.3674 1 12.5V14.2929L0.146447 15.1465C-0.0488156 15.3417 -0.0488156 15.6583 0.146447 15.8536C0.341709 16.0488 0.658291 16.0488 0.853553 15.8536L1.70711 15H3.5C3.63261 15 3.75979 14.9473 3.85355 14.8536L11 7.70712L12.1464 8.85357C12.3417 9.04883 12.6583 9.04883 12.8536 8.85357C13.0488 8.65831 13.0488 8.34172 12.8536 8.14646L12.2071 7.50001L15.3536 4.35357C15.825 3.88216 15.825 3.11787 15.3536 2.64646L13.3536 0.646461ZM2 12.7071L9 5.70712L10.2929 7.00001L3.29289 14H2V12.7071Z" fill="currentColor"/>
</svg>
