<svg width="16" height="16" viewBox="0 0 16 16" fill="none" xmlns="http://www.w3.org/2000/svg">
<path d="M14 4.5V14C14 15.1046 13.1046 16 12 16V15C12.5523 15 13 14.5523 13 14V4.5H11C10.1716 4.5 9.5 3.82843 9.5 3V1H4C3.44772 1 3 1.44772 3 2V11H2V2C2 0.89543 2.89543 0 4 0H9.5L14 4.5ZM1.45605 14.7529H1.49414L2.2002 11.8496H2.88281L3.58887 14.7529H3.62988L4.22461 11.8496H5.08301L4.02832 15.8486H3.29883L2.55762 13.0596H2.52539L1.78418 15.8486H1.05469L0 11.8496H0.855469L1.45605 14.7529ZM8.30273 15.8486H7.46191L7.14844 14.8203H5.8125L5.49902 15.8486H4.69922L6.04102 11.8496H6.9668L8.30273 15.8486ZM9.62793 14.9873H9.66602L10.5537 11.8496H11.4326L10.1055 15.8486H9.15332L7.81445 11.8496H8.73145L9.62793 14.9873ZM5.97656 14.2314H6.99023L6.50098 12.6143H6.46582L5.97656 14.2314Z" fill="currentColor"/>
</svg>
