<svg width="16" height="16" viewBox="0 0 16 16" fill="none" xmlns="http://www.w3.org/2000/svg">
<path d="M1.70791 11.8489C1.94612 11.8489 2.1581 11.8821 2.34361 11.9485C2.53101 12.0149 2.69128 12.1068 2.82405 12.2239C2.95676 12.3409 3.06135 12.4769 3.13751 12.631C3.21361 12.7833 3.26051 12.9476 3.27812 13.1232H2.5018C2.48226 13.0316 2.44998 12.9483 2.40512 12.8742C2.36024 12.8001 2.30348 12.7364 2.23521 12.6838C2.16886 12.6292 2.08962 12.5871 1.99793 12.5578C1.90811 12.5285 1.80844 12.5138 1.69912 12.5138C1.41409 12.5138 1.1923 12.6146 1.03412 12.8156C0.877932 13.0167 0.799812 13.3002 0.799756 13.6652V14.1632C0.799756 14.3974 0.832066 14.6027 0.896429 14.7784C0.962801 14.9541 1.06448 15.0919 1.2011 15.1915C1.33781 15.2891 1.51065 15.338 1.71963 15.338C1.9032 15.338 2.05553 15.3057 2.17663 15.2413C2.29763 15.1749 2.38855 15.0869 2.44907 14.9776C2.5095 14.8683 2.53988 14.747 2.53988 14.6143V14.3595H1.7167V13.7707H3.29277V14.5675C3.29277 14.7607 3.26046 14.9445 3.19609 15.1182C3.13168 15.29 3.03389 15.4425 2.90314 15.5752C2.77232 15.708 2.6072 15.8125 2.40805 15.8886C2.21081 15.9629 1.9784 16 1.71084 16C1.42374 16 1.17278 15.956 0.95795 15.8681C0.745135 15.7783 0.567316 15.6523 0.424779 15.4903C0.282308 15.3282 0.175738 15.1347 0.105463 14.9102C0.0352295 14.6857 0 14.4374 0 14.1661V13.6594C4.85896e-05 13.2982 0.0664508 12.9815 0.199207 12.7101C0.333958 12.4388 0.528388 12.2278 0.782179 12.0774C1.03799 11.9252 1.34668 11.8489 1.70791 11.8489ZM13.9991 4.49973V13.9991C13.9991 15.1037 13.1038 15.999 11.9993 15.999H8.99945V14.9991H11.9993C12.5515 14.9991 12.9992 14.5514 12.9992 13.9991V4.49973H10.9993C10.171 4.49973 9.49942 3.8282 9.49942 2.99982V0.999939H3.99976C3.44751 0.999939 2.99982 1.44763 2.99982 1.99988V10.9993H1.99988V1.99988C1.99988 0.895375 2.89525 0 3.99976 0H9.49942L13.9991 4.49973ZM4.63058 15.9238H3.83961V11.9251H4.63058V15.9238ZM7.88136 12.5783H6.12365V13.6945H7.72902V14.3331H6.12365V15.9238H5.33268V11.9251H7.88136V12.5783Z" fill="currentColor"/>
</svg>
