<svg width="16" height="16" viewBox="0 0 16 16" fill="none" xmlns="http://www.w3.org/2000/svg">
<path d="M14 4.5V14C14 15.1046 13.1046 16 12 16H11V15H12C12.5523 15 13 14.5523 13 14V4.5H11C10.1716 4.5 9.5 3.82843 9.5 3V1H4C3.44772 1 3 1.44772 3 2V11H2V2C2 0.89543 2.89543 0 4 0H9.5L14 4.5ZM0.791016 13.6396H0.829102L2.34082 11.8496H3.21094L1.78418 13.5723L3.27246 15.8486H2.32031L1.20117 14.0996L0.791016 14.5654V15.8486H0V11.8496H0.791016V13.6396ZM6.11328 12.4971H4.32324V13.5225H6.00781V14.1289H4.32324V15.2012H6.11328V15.8486H3.53809V11.8496H6.11328V12.4971ZM7.95215 13.5459H7.98438L8.83984 11.8496H9.69531L8.35645 14.3135V15.8486H7.5625V14.3281L6.22363 11.8496H7.09961L7.95215 13.5459Z" fill="currentColor"/>
</svg>
