<svg width="16" height="16" viewBox="0 0 16 16" fill="none" xmlns="http://www.w3.org/2000/svg">
<path d="M7.49999 5.5C7.49999 5.22386 7.27613 5 6.99999 5C6.72384 5 6.49999 5.22386 6.49999 5.5V6.13397L5.95095 5.81699C5.71181 5.67892 5.40601 5.76085 5.26794 6C5.12987 6.23915 5.21181 6.54494 5.45095 6.68301L5.99999 7L5.45095 7.31699C5.2118 7.45506 5.12986 7.76085 5.26794 8C5.40601 8.23915 5.7118 8.32108 5.95095 8.18301L6.49999 7.86602V8.5C6.49999 8.77614 6.72384 9 6.99999 9C7.27613 9 7.49999 8.77614 7.49999 8.5V7.86602L8.04903 8.18301C8.28818 8.32108 8.59397 8.23915 8.73204 8C8.87011 7.76085 8.78818 7.45506 8.54903 7.31699L7.99999 7L8.54902 6.68301C8.78817 6.54494 8.87011 6.23915 8.73204 6C8.59397 5.76085 8.28817 5.67892 8.04903 5.81699L7.49999 6.13397V5.5Z" fill="currentColor"/>
<path d="M5.5 10C5.22386 10 5 10.2239 5 10.5C5 10.7761 5.22386 11 5.5 11H10.5C10.7761 11 11 10.7761 11 10.5C11 10.2239 10.7761 10 10.5 10H5.5Z" fill="currentColor"/>
<path d="M5.5 12C5.22386 12 5 12.2239 5 12.5C5 12.7761 5.22386 13 5.5 13H10.5C10.7761 13 11 12.7761 11 12.5C11 12.2239 10.7761 12 10.5 12H5.5Z" fill="currentColor"/>
<path d="M14 14V4.5L9.5 0H4C2.89543 0 2 0.89543 2 2V14C2 15.1046 2.89543 16 4 16H12C13.1046 16 14 15.1046 14 14ZM9.5 3C9.5 3.82843 10.1716 4.5 11 4.5H13V14C13 14.5523 12.5523 15 12 15H4C3.44772 15 3 14.5523 3 14V2C3 1.44772 3.44772 1 4 1H9.5V3Z" fill="currentColor"/>
</svg>
