<svg width="16" height="16" viewBox="0 0 16 16" fill="none" xmlns="http://www.w3.org/2000/svg">
<path d="M3.09961 11.8496C3.38859 11.8496 3.63284 11.9092 3.83203 12.0283C4.0331 12.1454 4.18653 12.3048 4.29199 12.5059C4.39741 12.7069 4.45014 12.9328 4.4502 13.1826C4.4502 13.4325 4.39637 13.6583 4.28906 13.8594C4.18362 14.0585 4.02921 14.2168 3.82617 14.334C3.625 14.4492 3.38086 14.5068 3.09375 14.5068H2.29102V15.8486H1.5V11.8496H3.09961ZM6.46191 11.8496C6.75088 11.8496 6.99517 11.9092 7.19434 12.0283C7.39543 12.1455 7.54883 12.3048 7.6543 12.5059C7.75971 12.7069 7.81244 12.9328 7.8125 13.1826C7.8125 13.4325 7.75865 13.6583 7.65137 13.8594C7.54595 14.0585 7.39144 14.2168 7.18848 14.334C6.98735 14.4492 6.74308 14.5068 6.45605 14.5068H5.65332V15.8486H4.8623V11.8496H6.46191ZM10.9111 12.5117H9.77441V15.8486H8.98047V12.5117H7.84668V11.8496H10.9111V12.5117ZM12.7109 13.2881H12.7461L13.5693 11.8496H14.4629L13.1885 13.8564L14.4424 15.8486H13.5342L12.6846 14.4336H12.6494L11.7969 15.8486H10.9355L12.1748 13.833L10.9473 11.8496H11.8789L12.7109 13.2881ZM2.28809 13.8857H2.94727C3.09375 13.8857 3.21875 13.8584 3.32227 13.8037C3.4257 13.7471 3.50491 13.6669 3.55957 13.5635C3.6161 13.4581 3.64453 13.3309 3.64453 13.1826C3.64446 12.9562 3.58294 12.7822 3.45996 12.6611C3.33693 12.5402 3.1659 12.4795 2.94727 12.4795H2.28809V13.8857ZM5.65039 13.8857H6.30957C6.45597 13.8857 6.5811 13.8584 6.68457 13.8037C6.78793 13.7471 6.86724 13.6669 6.92188 13.5635C6.97838 13.4581 7.00684 13.3309 7.00684 13.1826C7.00676 12.9562 6.94524 12.7822 6.82227 12.6611C6.69926 12.5401 6.52817 12.4795 6.30957 12.4795H5.65039V13.8857ZM14 4.5V11H13V4.5H11C10.1716 4.5 9.5 3.82843 9.5 3V1H4C3.44772 1 3 1.44772 3 2V11H2V2C2 0.89543 2.89543 0 4 0H9.5L14 4.5Z" fill="currentColor"/>
</svg>
