<svg width="16" height="16" viewBox="0 0 16 16" fill="none" xmlns="http://www.w3.org/2000/svg">
<path d="M14 4.5V14C14 15.1046 13.1046 16 12 16V15C12.5523 15 13 14.5523 13 14V4.5H11C10.1716 4.5 9.5 3.82843 9.5 3V1H4C3.44772 1 3 1.44772 3 2V11H2V2C2 0.89543 2.89543 0 4 0H9.5L14 4.5ZM1.72852 13.5459H1.76074L2.61621 11.8496H3.47168L2.13281 14.3135V15.8486H1.33887V14.3281L0 11.8496H0.875977L1.72852 13.5459ZM5.65918 14.4453H5.68555L6.8252 11.8496H7.625V15.8486H6.91016V13.1885H6.87207L5.92578 15.3477H5.41016L4.45801 13.1885H4.41992V15.8486H3.71387V11.8496H4.51953L5.65918 14.4453ZM9.12988 15.1748H10.8262V15.8486H8.33887V11.8496H9.12988V15.1748Z" fill="currentColor"/>
</svg>
