<svg width="16" height="16" viewBox="0 0 16 16" fill="none" xmlns="http://www.w3.org/2000/svg">
<path d="M1.79102 13.4756H3.47266V11.8496H4.26367V15.8486H3.47266V14.1348H1.79102V15.8486H1V11.8496H1.79102V13.4756ZM7.65234 12.5117H6.51562V15.8486H5.72168V12.5117H4.58789V11.8496H7.65234V12.5117ZM9.93066 14.4453H9.95703L11.0967 11.8496H11.8965V15.8486H11.1816V13.1885H11.1436L10.1973 15.3477H9.68164L8.72949 13.1885H8.69141V15.8486H7.98535V11.8496H8.79102L9.93066 14.4453ZM13.4004 15.1748H15.0967V15.8486H12.6094V11.8496H13.4004V15.1748ZM14 4.5V11H13V4.5H11C10.1716 4.5 9.5 3.82843 9.5 3V1H4C3.44772 1 3 1.44772 3 2V11H2V2C2 0.89543 2.89543 0 4 0H9.5L14 4.5Z" fill="currentColor"/>
</svg>
