<svg width="16" height="16" viewBox="0 0 16 16" fill="none" xmlns="http://www.w3.org/2000/svg">
<path d="M10.1322 11.8489C10.3508 11.8489 10.5532 11.8812 10.7386 11.9456C10.9259 12.008 11.0892 12.0991 11.2278 12.2181C11.3664 12.337 11.4759 12.4779 11.5559 12.6398C11.6379 12.8018 11.6838 12.9828 11.6936 13.1818V13.2551H10.929C10.9172 13.1127 10.8772 12.9854 10.8089 12.8742C10.7425 12.7631 10.6515 12.6759 10.5365 12.6135C10.4214 12.5492 10.2883 12.5168 10.1381 12.5168C9.95463 12.5168 9.79618 12.5627 9.66347 12.6545C9.53271 12.7462 9.43202 12.8792 9.36173 13.0529C9.29341 13.2266 9.25923 13.4378 9.25921 13.6857V14.1807C9.25921 14.4266 9.2935 14.6359 9.36173 14.8077C9.43001 14.9794 9.52992 15.1104 9.66054 15.2003C9.79325 15.2881 9.95268 15.332 10.1381 15.3321C10.2903 15.3321 10.4242 15.3028 10.5394 15.2442C10.6546 15.1837 10.7454 15.1007 10.8118 14.9952C10.8782 14.8898 10.9173 14.7686 10.929 14.6319H11.6936V14.7081C11.68 14.962 11.6047 15.1866 11.4681 15.3819C11.3313 15.5752 11.1477 15.7265 10.9173 15.8359C10.6868 15.9452 10.4251 16 10.1322 16C9.77301 15.9999 9.46808 15.9277 9.21819 15.7832C8.96843 15.6367 8.7777 15.4276 8.64693 15.1563C8.51819 14.8849 8.45358 14.5594 8.45358 14.1807V13.6828C8.45363 13.3041 8.51906 12.9776 8.64986 12.7043C8.78069 12.431 8.97124 12.22 9.22112 12.0716C9.47296 11.9232 9.77691 11.849 10.1322 11.8489ZM0.790968 13.551H2.47251V11.9251H3.26347V15.9238H2.47251V14.21H0.790968V15.9238H0V11.9251H0.790968V13.551ZM6.54062 12.5724H4.75069V13.5978H6.43516V14.2042H4.75069V15.2764H6.54062V15.9238H3.96558V11.9251H6.54062V12.5724ZM7.91358 15.9238H7.12262V11.9251H7.91358V15.9238ZM13.9991 4.49973V10.9993H12.9992V4.49973H10.9993C10.171 4.49973 9.49942 3.8282 9.49942 2.99982V0.999939H3.99976C3.44751 0.999939 2.99982 1.44763 2.99982 1.99988V10.9993H1.99988V1.99988C1.99988 0.895375 2.89525 0 3.99976 0H9.49942L13.9991 4.49973Z" fill="currentColor"/>
</svg>
