<svg width="16" height="16" viewBox="0 0 16 16" fill="none" xmlns="http://www.w3.org/2000/svg">
<path d="M2.64242 14.6495C2.64242 15.0888 2.52316 15.4239 2.28502 15.6543C2.0487 15.8847 1.7206 16 1.3007 16C1.08587 16 0.896429 15.9687 0.732377 15.9062C0.570338 15.8418 0.434513 15.7529 0.325175 15.6396C0.217859 15.5265 0.136677 15.3965 0.0820262 15.2501C0.0274287 15.1037 0 14.9482 0 14.7843H0.764601C0.768503 14.8857 0.79303 14.9757 0.83784 15.0538C0.882726 15.1299 0.944359 15.1905 1.0224 15.2354C1.10052 15.2784 1.19036 15.2999 1.29191 15.2999C1.48136 15.2999 1.62197 15.2452 1.71377 15.1358C1.80542 15.0265 1.85145 14.871 1.85145 14.67V11.9251H2.64242V14.6495ZM8.22997 11.8489C8.46807 11.8489 8.68024 11.8821 8.86567 11.9485C9.05307 12.0149 9.21336 12.1068 9.34611 12.2239C9.47885 12.341 9.58341 12.4768 9.65957 12.631C9.73569 12.7833 9.78258 12.9476 9.80018 13.1232H9.02386C9.00433 13.0315 8.97206 12.9483 8.92718 12.8742C8.8823 12.8001 8.82557 12.7365 8.75728 12.6838C8.69093 12.6291 8.61167 12.5871 8.51999 12.5578C8.43026 12.5285 8.33039 12.5139 8.22118 12.5138C7.93625 12.5138 7.71435 12.6147 7.55618 12.8156C7.4 13.0167 7.32187 13.3002 7.32182 13.6652V14.1632C7.32182 14.3974 7.3541 14.6027 7.4185 14.7784C7.48489 14.9542 7.58645 15.0919 7.72316 15.1915C7.85986 15.2891 8.03275 15.338 8.24169 15.338C8.4251 15.3379 8.57769 15.3057 8.69869 15.2413C8.81954 15.1749 8.91067 15.0868 8.97113 14.9776C9.0315 14.8684 9.06195 14.747 9.06195 14.6143V14.3595H8.23876V13.7707H9.81483V14.5675C9.81483 14.7606 9.78249 14.9446 9.71816 15.1182C9.65377 15.2899 9.55586 15.4426 9.42521 15.5752C9.29446 15.7079 9.12911 15.8125 8.93012 15.8886C8.73296 15.9628 8.50029 15.9999 8.2329 16C7.9459 16 7.6948 15.956 7.48001 15.8681C7.26714 15.7783 7.08941 15.6523 6.94685 15.4903C6.80428 15.3282 6.69783 15.1348 6.62753 14.9102C6.55727 14.6857 6.52206 14.4375 6.52206 14.1661V13.6594C6.52211 13.2982 6.58852 12.9815 6.72127 12.7101C6.85602 12.4389 7.0505 12.2277 7.30424 12.0774C7.56 11.9253 7.86888 11.8489 8.22997 11.8489ZM13.9991 4.49973V13.9991C13.9991 15.1037 13.1038 15.999 11.9993 15.999H10.9993V14.9991H11.9993C12.5515 14.9991 12.9992 14.5514 12.9992 13.9991V4.49973H10.9993C10.171 4.49973 9.49942 3.8282 9.49942 2.99982V0.999939H3.99976C3.44751 0.999939 2.99982 1.44763 2.99982 1.99988V10.9993H1.99988V1.99988C1.99988 0.895375 2.89525 0 3.99976 0H9.49942L13.9991 4.49973ZM4.9206 11.9251C5.20954 11.9251 5.45382 11.9847 5.65297 12.1038C5.85406 12.2209 6.00745 12.3802 6.11291 12.5812C6.21831 12.7823 6.27105 13.0081 6.2711 13.258C6.2711 13.5078 6.21725 13.7337 6.10998 13.9346C6.00457 14.1338 5.85007 14.2921 5.64712 14.4093C5.446 14.5245 5.20174 14.5821 4.91474 14.5821H4.11205V15.9238H3.32109V11.9251H4.9206ZM4.10913 13.961H4.76826C4.91465 13.961 5.03978 13.9336 5.14324 13.8791C5.24659 13.8225 5.3259 13.7423 5.38053 13.6388C5.43703 13.5335 5.46549 13.4062 5.46549 13.258C5.46542 13.0316 5.4039 12.8575 5.28093 12.7365C5.15794 12.6155 4.98685 12.5549 4.76826 12.5549H4.10913V13.961Z" fill="currentColor"/>
</svg>
