<svg width="16" height="17" viewBox="0 0 16 17" fill="none" xmlns="http://www.w3.org/2000/svg">
<path d="M4.7041 11.8496C5.0087 11.8496 5.2686 11.9004 5.4834 12.002C5.70012 12.1035 5.8672 12.2403 5.98438 12.4121C6.10344 12.5819 6.16987 12.7707 6.18359 12.9775H5.43359C5.41598 12.882 5.3759 12.7958 5.31348 12.7197C5.25294 12.6436 5.17082 12.583 5.06738 12.5381C4.96391 12.4932 4.84074 12.4707 4.69824 12.4707C4.48163 12.4707 4.31052 12.5217 4.18555 12.623C4.0626 12.7226 4.00108 12.8508 4.00098 13.0068C4.00098 13.1279 4.04888 13.2275 4.14453 13.3057C4.24023 13.3838 4.375 13.4424 4.54883 13.4814L5.16992 13.625C5.38667 13.6738 5.57523 13.7442 5.73535 13.8359C5.89543 13.9257 6.02052 14.045 6.11035 14.1934C6.20014 14.3417 6.24506 14.5285 6.24512 14.7529C6.24512 15.0008 6.18246 15.2198 6.05762 15.4092C5.93462 15.5966 5.75473 15.7432 5.51855 15.8486C5.28422 15.9541 4.99796 16.0068 4.66016 16.0068C4.40628 16.0068 4.18456 15.9765 3.99512 15.916C3.80566 15.8555 3.64648 15.7715 3.51758 15.6641C3.39067 15.5547 3.29393 15.4297 3.22754 15.2891C3.16121 15.1485 3.12402 14.9989 3.11621 14.8408H3.88086C3.89452 14.9169 3.92292 14.9883 3.96582 15.0547C4.00878 15.1191 4.06545 15.1758 4.13574 15.2246C4.20605 15.2734 4.28906 15.3115 4.38477 15.3389C4.48045 15.3662 4.58695 15.3799 4.7041 15.3799C4.86808 15.3799 5.0059 15.3564 5.11719 15.3096C5.23032 15.2627 5.31548 15.1982 5.37207 15.1162C5.42855 15.0323 5.45703 14.9354 5.45703 14.8262C5.45693 14.6877 5.40615 14.579 5.30469 14.501C5.20314 14.4209 5.04873 14.3564 4.8418 14.3076L4.22363 14.1641C4.0166 14.1172 3.83691 14.0459 3.68457 13.9502C3.53225 13.8545 3.41503 13.7324 3.33301 13.584C3.25106 13.4356 3.20996 13.2606 3.20996 13.0596C3.21003 12.8156 3.27351 12.6024 3.40039 12.4209C3.52732 12.2394 3.70327 12.0986 3.92773 11.999C4.15227 11.8995 4.41127 11.8496 4.7041 11.8496ZM14 4.5V14C14 15.1046 13.1046 16 12 16H11.5V15H12C12.5523 15 13 14.5523 13 14V4.5H11C10.1716 4.5 9.5 3.82843 9.5 3V1H4C3.44772 1 3 1.44772 3 2V11H2V2C2 0.89543 2.89543 0 4 0H9.5L14 4.5ZM1.59961 11.9316C1.88859 11.9316 2.13284 11.9913 2.33203 12.1104C2.5331 12.2275 2.68653 12.3869 2.79199 12.5879C2.89741 12.789 2.95014 13.0148 2.9502 13.2646C2.9502 13.5145 2.89637 13.7403 2.78906 13.9414C2.68362 14.1406 2.52921 14.2988 2.32617 14.416C2.125 14.5312 1.88086 14.5889 1.59375 14.5889H0.791016V15.9307H0V11.9316H1.59961ZM8.21289 11.9316C8.61896 11.9317 8.95419 12.0098 9.21777 12.166C9.48133 12.3222 9.67775 12.549 9.80664 12.8457C9.93746 13.1425 10.0029 13.5011 10.0029 13.9209C10.0029 14.3426 9.93736 14.7042 9.80664 15.0049C9.67586 15.3055 9.47731 15.5352 9.21191 15.6934C8.94833 15.8515 8.61506 15.9306 8.21289 15.9307H6.75391V11.9316H8.21289ZM7.54492 15.2832H8.10742C8.2928 15.2832 8.4542 15.2558 8.59082 15.2012C8.72732 15.1445 8.83897 15.0604 8.9248 14.9492C9.01252 14.836 9.07818 14.6951 9.12109 14.5273C9.16593 14.3595 9.18848 14.1619 9.18848 13.9355C9.18844 13.6349 9.14938 13.3837 9.07129 13.1826C8.99513 12.9816 8.87684 12.83 8.7168 12.7285C8.55868 12.627 8.35529 12.5762 8.10742 12.5762H7.54492V15.2832ZM0.788086 13.9678H1.44727C1.59375 13.9678 1.71875 13.9404 1.82227 13.8857C1.9257 13.8291 2.00491 13.749 2.05957 13.6455C2.1161 13.5401 2.14453 13.4129 2.14453 13.2646C2.14446 13.0383 2.08294 12.8642 1.95996 12.7432C1.83693 12.6222 1.6659 12.5615 1.44727 12.5615H0.788086V13.9678Z" fill="currentColor"/>
</svg>
