<svg width="16" height="16" viewBox="0 0 16 16" fill="none" xmlns="http://www.w3.org/2000/svg">
<path d="M1.71377 11.8489C2.07108 11.8489 2.37685 11.9222 2.6307 12.0686C2.88644 12.2151 3.08282 12.4251 3.21953 12.6984C3.3562 12.9698 3.42455 13.2943 3.42459 13.6711V14.1837C3.42459 14.5585 3.35614 14.883 3.21953 15.1563C3.08285 15.4278 2.88646 15.6367 2.6307 15.7832C2.3768 15.9277 2.07116 16 1.71377 16C1.35832 16 1.0517 15.9277 0.793897 15.7832C0.538137 15.6367 0.341745 15.4278 0.205065 15.1563C0.068461 14.883 0 14.5585 0 14.1837V13.6711C4.76993e-05 13.2923 0.0684029 12.9669 0.205065 12.6955C0.341769 12.4222 0.538152 12.2131 0.793897 12.0686C1.05166 11.9222 1.3584 11.8489 1.71377 11.8489ZM13.9991 4.49973V13.9991C13.9991 15.1037 13.1038 15.999 11.9993 15.999H10.9993V14.9991H11.9993C12.5515 14.9991 12.9992 14.5514 12.9992 13.9991V4.49973H10.9993C10.171 4.49973 9.49942 3.8282 9.49942 2.99982V0.999939H3.99976C3.44751 0.999939 2.99982 1.44763 2.99982 1.99988V10.9993H1.99988V1.99988C1.99988 0.895375 2.89525 0 3.99976 0H9.49942L13.9991 4.49973ZM6.56112 12.5871H5.42447V15.9238H4.63058V12.5871H3.49686V11.9251H6.56112V12.5871ZM9.43399 12.5783H7.67629V13.6945H9.28166V14.3331H7.67629V15.9238H6.88532V11.9251H9.43399V12.5783ZM1.71377 12.508C1.53612 12.508 1.37878 12.551 1.24211 12.6369C1.10744 12.7228 1.0009 12.8519 0.922796 13.0236C0.844715 13.1934 0.805655 13.4076 0.805615 13.6652V14.1866C0.805615 14.4423 0.844774 14.6564 0.922796 14.8282C1.00088 15 1.10744 15.129 1.24211 15.2149C1.37883 15.2989 1.53604 15.3409 1.71377 15.3409C1.88953 15.3409 2.04578 15.2989 2.18249 15.2149C2.31911 15.129 2.42664 15 2.50473 14.8282C2.58275 14.6564 2.62191 14.4423 2.62191 14.1866V13.6652C2.62187 13.4076 2.58281 13.1934 2.50473 13.0236C2.42662 12.8519 2.31911 12.7228 2.18249 12.6369C2.04582 12.551 1.88945 12.508 1.71377 12.508Z" fill="currentColor"/>
</svg>
