<svg width="16" height="16" viewBox="0 0 16 16" fill="none" xmlns="http://www.w3.org/2000/svg">
<path d="M6.17735 11.8489C6.53466 11.8489 6.84045 11.9222 7.0943 12.0686C7.35006 12.2151 7.54642 12.4251 7.68312 12.6984C7.81978 12.9698 7.88814 13.2943 7.88819 13.6711V14.1837C7.88819 14.5585 7.8197 14.883 7.68312 15.1563C7.54647 15.4277 7.34998 15.6367 7.0943 15.7832C6.84045 15.9277 6.53467 16 6.17735 16C5.82191 16 5.51528 15.9277 5.25749 15.7832C5.00166 15.6367 4.80537 15.4278 4.66867 15.1563C4.53203 14.8829 4.4636 14.5586 4.4636 14.1837V13.6711C4.46364 13.2923 4.53199 12.9669 4.66867 12.6955C4.80537 12.4222 5.00177 12.2131 5.25749 12.0686C5.51522 11.9223 5.82205 11.8489 6.17735 11.8489ZM13.9991 4.49973V13.9991C13.9991 15.1037 13.1038 15.999 11.9993 15.999V14.9991C12.5515 14.9991 12.9992 14.5514 12.9992 13.9991V4.49973H10.9993C10.171 4.49973 9.49942 3.8282 9.49942 2.99982V0.999939H3.99976C3.44751 0.999939 2.99982 1.44763 2.99982 1.99988V10.9993H1.99988V1.99988C1.99988 0.895375 2.89525 0 3.99976 0H9.49942L13.9991 4.49973ZM1.94519 14.5206H1.97156L3.11114 11.9251H3.91089V15.9238H3.19609V13.2638H3.15801L2.21178 15.4229H1.69619L0.744096 13.2638H0.706012V15.9238H0V11.9251H0.805615L1.94519 14.5206ZM9.76795 15.0626H9.80604L10.6936 11.9251H11.5725L10.2455 15.9238H9.29338L7.95459 11.9251H8.87153L9.76795 15.0626ZM6.17735 12.508C5.99977 12.508 5.84234 12.5511 5.7057 12.6369C5.57105 12.7228 5.4645 12.8519 5.38639 13.0236C5.30831 13.1934 5.26925 13.4076 5.26921 13.6652V14.1866C5.26921 14.4423 5.30835 14.6564 5.38639 14.8282C5.46451 15.0001 5.57097 15.129 5.7057 15.2149C5.84241 15.2989 5.99963 15.3409 6.17735 15.3409C6.35305 15.3409 6.50942 15.2989 6.64607 15.2149C6.78264 15.129 6.89027 14.9999 6.96832 14.8282C7.04632 14.6564 7.08551 14.4423 7.08551 14.1866V13.6652C7.08547 13.4076 7.0464 13.1934 6.96832 13.0236C6.89021 12.8519 6.78273 12.7228 6.64607 12.6369C6.50943 12.551 6.35303 12.508 6.17735 12.508Z" fill="currentColor"/>
</svg>
