<svg width="16" height="16" viewBox="0 0 16 16" fill="none" xmlns="http://www.w3.org/2000/svg">
<path d="M14 4.5V14C14 15.1046 13.1046 16 12 16V15C12.5523 15 13 14.5523 13 14V4.5H11C10.1716 4.5 9.5 3.82843 9.5 3V1H4C3.44772 1 3 1.44772 3 2V11H2V2C2 0.89543 2.89543 0 4 0H9.5L14 4.5ZM1.77539 13.2881H1.81055L2.63379 11.8496H3.52734L2.25293 13.8564L3.50684 15.8486H2.59863L1.74902 14.4336H1.71387L0.861328 15.8486H0L1.23926 13.833L0.0117188 11.8496H0.943359L1.77539 13.2881ZM5.7207 14.4453H5.74707L6.88672 11.8496H7.68652V15.8486H6.97168V13.1885H6.93359L5.9873 15.3477H5.47168L4.51953 13.1885H4.48145V15.8486H3.77539V11.8496H4.58105L5.7207 14.4453ZM9.19141 15.1748H10.8877V15.8486H8.40039V11.8496H9.19141V15.1748Z" fill="currentColor"/>
</svg>
