<svg width="16" height="17" viewBox="0 0 16 17" fill="none" xmlns="http://www.w3.org/2000/svg">
<path d="M2.83289 11.8496C3.1375 11.8496 3.39737 11.9004 3.61217 12.002C3.82887 12.1035 3.99598 12.2404 4.11316 12.4121C4.23223 12.5819 4.29865 12.7707 4.31238 12.9775H3.56238C3.54475 12.882 3.50467 12.7958 3.44226 12.7197C3.38173 12.6437 3.29957 12.583 3.19617 12.5381C3.09268 12.4932 2.96954 12.4707 2.82703 12.4707C2.61034 12.4707 2.43931 12.5216 2.31433 12.623C2.19139 12.7226 2.12986 12.8508 2.12976 13.0068C2.12976 13.1278 2.17774 13.2276 2.27332 13.3057C2.369 13.3838 2.50382 13.4424 2.67761 13.4814L3.29871 13.625C3.51543 13.6738 3.70402 13.7442 3.86414 13.8359C4.02419 13.9257 4.1493 14.0451 4.23914 14.1934C4.32893 14.3417 4.37385 14.5285 4.3739 14.7529C4.3739 15.0009 4.31128 15.2198 4.1864 15.4092C4.06338 15.5966 3.88359 15.7432 3.64734 15.8486C3.41296 15.9541 3.12683 16.0068 2.78894 16.0068C2.53503 16.0068 2.31335 15.9766 2.1239 15.916C1.9345 15.8555 1.77524 15.7715 1.64636 15.6641C1.5195 15.5547 1.4227 15.4296 1.35632 15.2891C1.29001 15.1485 1.2528 14.9989 1.245 14.8408H2.00964C2.0233 14.9169 2.05174 14.9884 2.0946 15.0547C2.13754 15.1191 2.1943 15.1758 2.26453 15.2246C2.33481 15.2734 2.41789 15.3115 2.51355 15.3389C2.60925 15.3662 2.7157 15.3799 2.83289 15.3799C2.99695 15.3799 3.13463 15.3564 3.24597 15.3096C3.35917 15.2627 3.44423 15.1982 3.50084 15.1162C3.55736 15.0323 3.58581 14.9354 3.58581 14.8262C3.58572 14.6877 3.53493 14.579 3.43347 14.501C3.3319 14.421 3.17748 14.3564 2.97058 14.3076L2.35242 14.1641C2.14542 14.1172 1.96568 14.0459 1.81335 13.9502C1.6611 13.8545 1.54379 13.7324 1.46179 13.584C1.37987 13.4356 1.33875 13.2606 1.33875 13.0596C1.33881 12.8156 1.40229 12.6024 1.52917 12.4209C1.65611 12.2394 1.83202 12.0986 2.05652 11.999C2.28109 11.8995 2.53998 11.8496 2.83289 11.8496ZM6.40027 11.8555C6.61894 11.8555 6.82122 11.8877 7.00671 11.9521C7.19415 12.0146 7.35733 12.1055 7.49597 12.2246C7.63457 12.3437 7.74403 12.4845 7.8241 12.6465C7.90608 12.8085 7.95199 12.9894 7.96179 13.1885V13.2617H7.19714C7.18539 13.1193 7.14533 12.9921 7.07703 12.8809C7.01063 12.7696 6.91973 12.6826 6.80457 12.6201C6.68938 12.5557 6.55643 12.5235 6.40613 12.5234C6.22267 12.5234 6.06427 12.5695 5.93152 12.6611C5.80076 12.7529 5.70007 12.8859 5.62976 13.0596C5.56144 13.2333 5.52726 13.4445 5.52722 13.6924V14.1875C5.52722 14.4335 5.56146 14.6426 5.62976 14.8145C5.6981 14.9863 5.79775 15.1172 5.92859 15.207C6.0614 15.2949 6.22057 15.3389 6.40613 15.3389C6.55838 15.3388 6.69231 15.3095 6.8075 15.251C6.92257 15.1904 7.01361 15.1073 7.07996 15.002C7.14621 14.8966 7.18544 14.7752 7.19714 14.6387H7.96179V14.7148C7.94813 14.9686 7.87277 15.1934 7.73621 15.3887C7.59955 15.5819 7.41575 15.7334 7.18542 15.8428C6.95501 15.9521 6.69316 16.0068 6.40027 16.0068C6.04088 16.0068 5.73621 15.9346 5.48621 15.79C5.23622 15.6436 5.04577 15.4346 4.91492 15.1631C4.78609 14.8917 4.72156 14.5663 4.72156 14.1875V13.6895C4.7216 13.3107 4.78703 12.9843 4.91785 12.7109C5.0487 12.4377 5.23926 12.2265 5.48914 12.0781C5.74103 11.9298 6.04495 11.8555 6.40027 11.8555ZM9.82703 11.8496C10.1315 11.8497 10.3916 11.9004 10.6063 12.002C10.823 12.1035 10.9901 12.2403 11.1073 12.4121C11.2264 12.5819 11.2928 12.7706 11.3065 12.9775H10.5565C10.5389 12.882 10.4988 12.7958 10.4364 12.7197C10.3759 12.6436 10.2937 12.583 10.1903 12.5381C10.0869 12.4932 9.96358 12.4707 9.82117 12.4707C9.60462 12.4707 9.43342 12.5217 9.30847 12.623C9.18552 12.7226 9.124 12.8508 9.1239 13.0068C9.1239 13.1279 9.17175 13.2275 9.26746 13.3057C9.36316 13.3838 9.49794 13.4424 9.67175 13.4814L10.2928 13.625C10.5095 13.6738 10.6982 13.7442 10.8583 13.8359C11.0183 13.9258 11.1435 14.045 11.2333 14.1934C11.3231 14.3417 11.368 14.5285 11.368 14.7529C11.368 15.0008 11.3053 15.2198 11.1805 15.4092C11.0576 15.5966 10.8776 15.7432 10.6415 15.8486C10.4072 15.9541 10.1208 16.0068 9.78308 16.0068C9.52927 16.0068 9.30744 15.9765 9.11804 15.916C8.92861 15.8555 8.7694 15.7715 8.6405 15.6641C8.51355 15.5547 8.41687 15.4297 8.35046 15.2891C8.28411 15.1485 8.24694 14.999 8.23913 14.8408H9.00378C9.01745 14.917 9.0458 14.9883 9.08875 15.0547C9.13171 15.1191 9.18834 15.1758 9.25867 15.2246C9.32895 15.2734 9.41202 15.3115 9.50769 15.3389C9.60333 15.3662 9.70994 15.3799 9.82703 15.3799C9.99092 15.3798 10.1289 15.3564 10.2401 15.3096C10.3532 15.2627 10.4384 15.1981 10.495 15.1162C10.5514 15.0323 10.58 14.9354 10.58 14.8262C10.5799 14.6877 10.529 14.579 10.4276 14.501C10.3261 14.4209 10.1716 14.3564 9.96472 14.3076L9.34655 14.1641C9.13956 14.1172 8.95982 14.0459 8.8075 13.9502C8.65515 13.8545 8.53795 13.7324 8.45592 13.584C8.37394 13.4356 8.33288 13.2607 8.33288 13.0596C8.33294 12.8156 8.39643 12.6024 8.52332 12.4209C8.65024 12.2395 8.82623 12.0986 9.05066 11.999C9.27516 11.8996 9.53426 11.8496 9.82703 11.8496ZM13.2177 11.8496C13.5221 11.8496 13.7822 11.9005 13.9969 12.002C14.2136 12.1034 14.3808 12.2404 14.4979 12.4121C14.617 12.5819 14.6834 12.7707 14.6971 12.9775H13.9471C13.9295 12.882 13.8894 12.7958 13.827 12.7197C13.7665 12.6438 13.6843 12.5829 13.5809 12.5381C13.4775 12.4933 13.3542 12.4707 13.2118 12.4707C12.9952 12.4708 12.824 12.5215 12.6991 12.623C12.5762 12.7226 12.5146 12.8508 12.5145 13.0068C12.5145 13.1278 12.5627 13.2276 12.6581 13.3057C12.7537 13.3837 12.8888 13.4424 13.0624 13.4814L13.6835 13.625C13.9001 13.6738 14.0888 13.7443 14.2489 13.8359C14.4089 13.9257 14.5341 14.0451 14.6239 14.1934C14.7137 14.3417 14.7586 14.5285 14.7587 14.7529C14.7587 15.0009 14.6961 15.2197 14.5712 15.4092C14.4481 15.5967 14.2684 15.7432 14.0321 15.8486C13.7978 15.954 13.5115 16.0068 13.1737 16.0068C12.92 16.0068 12.698 15.9765 12.5087 15.916C12.3194 15.8555 12.1599 15.7714 12.0311 15.6641C11.9044 15.5548 11.8074 15.4295 11.7411 15.2891C11.6748 15.1486 11.6376 14.9988 11.6298 14.8408H12.3944C12.408 14.9168 12.4366 14.9884 12.4794 15.0547C12.5222 15.119 12.5792 15.1759 12.6493 15.2246C12.7195 15.2734 12.8028 15.3115 12.8983 15.3389C12.9939 15.3662 13.1006 15.3799 13.2177 15.3799C13.3816 15.3799 13.5194 15.3564 13.6307 15.3096C13.744 15.2627 13.829 15.1982 13.8856 15.1162C13.9422 15.0322 13.9706 14.9355 13.9706 14.8262C13.9705 14.6877 13.9197 14.579 13.8182 14.501C13.7167 14.4211 13.5621 14.3564 13.3553 14.3076L12.7372 14.1641C12.5303 14.1172 12.3504 14.0458 12.1981 13.9502C12.046 13.8545 11.9285 13.7323 11.8466 13.584C11.7647 13.4356 11.7235 13.2605 11.7235 13.0596C11.7236 12.8156 11.7871 12.6024 11.9139 12.4209C12.0409 12.2393 12.2168 12.0986 12.4413 11.999C12.6658 11.8995 12.9248 11.8497 13.2177 11.8496ZM13.9999 4.5V11H12.9999V4.5H10.9999C10.1715 4.49993 9.49988 3.82839 9.49988 3V1H3.99988C3.44765 1.00007 2.99988 1.44776 2.99988 2V11H1.99988V2C1.99988 0.895471 2.89536 6.59689e-05 3.99988 0H9.49988L13.9999 4.5Z" fill="currentColor"/>
</svg>
