<svg width="16" height="16" viewBox="0 0 16 16" fill="none" xmlns="http://www.w3.org/2000/svg">
<path d="M8.81001 11.8489C9.04812 11.8489 9.26028 11.8821 9.44571 11.9485C9.6331 12.0149 9.7934 12.1068 9.92615 12.2239C10.0589 12.341 10.1635 12.4768 10.2396 12.631C10.3158 12.7833 10.3627 12.9476 10.3803 13.1232H9.6039C9.58437 13.0315 9.55211 12.9483 9.50723 12.8742C9.46233 12.8001 9.40562 12.7365 9.33732 12.6838C9.27097 12.6291 9.19172 12.5871 9.10003 12.5578C9.0103 12.5285 8.91044 12.5139 8.80122 12.5138C8.51629 12.5138 8.29439 12.6147 8.13622 12.8156C7.98004 13.0167 7.90192 13.3002 7.90186 13.6652V14.1632C7.90186 14.3974 7.93414 14.6027 7.99853 14.7784C8.06494 14.9542 8.16649 15.0919 8.3032 15.1915C8.43991 15.2891 8.61279 15.338 8.82173 15.338C9.00513 15.3379 9.15773 15.3057 9.27873 15.2413C9.39959 15.1749 9.49071 15.0868 9.55118 14.9776C9.61154 14.8684 9.64199 14.747 9.64199 14.6143V14.3595H8.8188V13.7707H10.3949V14.5675C10.3949 14.7606 10.3626 14.9446 10.2982 15.1182C10.2338 15.2899 10.1359 15.4426 10.0053 15.5752C9.8745 15.7079 9.70916 15.8125 9.51016 15.8886C9.313 15.9628 9.08034 15.9999 8.81294 16C8.52593 16 8.27484 15.956 8.06006 15.8681C7.84718 15.7783 7.66945 15.6523 7.52688 15.4903C7.38433 15.3282 7.27788 15.1348 7.20757 14.9102C7.13731 14.6857 7.10211 14.4375 7.10211 14.1661V13.6594C7.10216 13.2982 7.16855 12.9815 7.30131 12.7101C7.43606 12.4389 7.63054 12.2277 7.88429 12.0774C8.14003 11.9253 8.44892 11.8489 8.81001 11.8489ZM13.9991 4.49973V13.9991C13.9991 15.1037 13.1038 15.999 11.9993 15.999V14.9991C12.5515 14.9991 12.9992 14.5514 12.9992 13.9991V4.49973H10.9993C10.171 4.49973 9.49942 3.8282 9.49942 2.99982V0.999939H3.99976C3.44751 0.999939 2.99982 1.44763 2.99982 1.99988V10.9993H1.99988V1.99988C1.99988 0.895375 2.89525 0 3.99976 0H9.49942L13.9991 4.49973ZM1.59951 11.9251C1.88847 11.9251 2.13271 11.9847 2.33189 12.1038C2.53295 12.2209 2.68637 12.3802 2.79182 12.5812C2.89723 12.7823 2.94996 13.0081 2.95002 13.258C2.95002 13.5079 2.89619 13.7337 2.78889 13.9346C2.68346 14.1338 2.52906 14.2921 2.32603 14.4093C2.12487 14.5245 1.88075 14.5821 1.59365 14.5821H0.790968V15.9238H0V11.9251H1.59951ZM5.77602 14.585H5.80824V11.9251H6.55819V15.9238H5.90198L4.14135 13.2492H4.10913V15.9238H3.36209V11.9251H4.02416L5.77602 14.585ZM0.788038 13.961H1.44718C1.59365 13.961 1.71865 13.9337 1.82216 13.8791C1.92558 13.8224 2.00479 13.7423 2.05944 13.6388C2.11597 13.5334 2.1444 13.4063 2.1444 13.258C2.14433 13.0316 2.08281 12.8575 1.95984 12.7365C1.83682 12.6155 1.6658 12.5549 1.44718 12.5549H0.788038V13.961Z" fill="currentColor"/>
</svg>
