<svg width="16" height="16" viewBox="0 0 16 16" fill="none" xmlns="http://www.w3.org/2000/svg">
<path d="M14 4.5V14C14 15.1046 13.1046 16 12 16V15C12.5523 15 13 14.5523 13 14V4.5H11C10.1716 4.5 9.5 3.82843 9.5 3V1H4C3.44772 1 3 1.44772 3 2V11H2V2C2 0.89543 2.89543 0 4 0H9.5L14 4.5ZM1.94531 14.4453H1.97168L3.11133 11.8496H3.91113V15.8486H3.19629V13.1885H3.1582L2.21191 15.3477H1.69629L0.744141 13.1885H0.706055V15.8486H0V11.8496H0.805664L1.94531 14.4453ZM7.08301 14.4688H7.57227V15.1074H7.08301V15.8486H6.3418V15.1074H4.40527V14.46C4.63959 14.0206 4.88875 13.5839 5.15234 13.1504C5.41789 12.7169 5.68172 12.2831 5.94336 11.8496H7.08301V14.4688ZM9.61621 11.8496C9.9051 11.8497 10.1495 11.9092 10.3486 12.0283C10.5497 12.1455 10.7031 12.3048 10.8086 12.5059C10.914 12.7069 10.9667 12.9328 10.9668 13.1826C10.9668 13.4324 10.9129 13.6583 10.8057 13.8594C10.7003 14.0584 10.5457 14.2168 10.3428 14.334C10.1417 14.4492 9.89729 14.5068 9.61035 14.5068H8.80762V15.8486H8.0166V11.8496H9.61621ZM5.69434 13.4316C5.49324 13.7694 5.30267 14.1085 5.12305 14.4482V14.4688H6.3418V12.4473H6.30078C6.09968 12.7655 5.89738 13.0939 5.69434 13.4316ZM8.80469 13.8857H9.46387C9.61018 13.8857 9.73544 13.8583 9.83887 13.8037C9.94215 13.7471 10.0216 13.6668 10.0762 13.5635C10.1326 13.4581 10.1611 13.3308 10.1611 13.1826C10.1611 12.9562 10.0995 12.7822 9.97656 12.6611C9.85359 12.5401 9.68243 12.4796 9.46387 12.4795H8.80469V13.8857Z" fill="currentColor"/>
</svg>
