<svg width="16" height="16" viewBox="0 0 16 16" fill="none" xmlns="http://www.w3.org/2000/svg">
<path d="M14 4.5V14C14 15.1046 13.1046 16 12 16V15C12.5523 15 13 14.5523 13 14V4.5H11C10.1716 4.5 9.5 3.82843 9.5 3V1H4C3.44772 1 3 1.44772 3 2V11H2V2C2 0.89543 2.89543 0 4 0H9.5L14 4.5ZM1.66992 11.8496C2.02724 11.8496 2.3135 11.9366 2.52832 12.1104C2.74307 12.2841 2.85049 12.5256 2.85059 12.834C2.85059 12.994 2.82021 13.1348 2.75977 13.2559C2.70121 13.3749 2.62003 13.4727 2.5166 13.5488C2.41506 13.623 2.29781 13.6768 2.16504 13.71V13.7451C2.32708 13.7607 2.47563 13.8077 2.61035 13.8857C2.74502 13.9619 2.85256 14.0705 2.93262 14.2109C3.01459 14.3495 3.05561 14.5197 3.05566 14.7207C3.05566 14.9589 2.99597 15.1622 2.87695 15.3301C2.75784 15.498 2.59368 15.627 2.38477 15.7168C2.17578 15.8047 1.93555 15.8486 1.66406 15.8486H0V11.8496H1.66992ZM5.49805 14.4453H5.52441L6.66406 11.8496H7.46387V15.8486H6.74902V13.1885H6.71094L5.76465 15.3477H5.24902L4.29688 13.1885H4.25879V15.8486H3.55273V11.8496H4.3584L5.49805 14.4453ZM9.77734 11.8496C10.0662 11.8497 10.3106 11.9092 10.5098 12.0283C10.7108 12.1455 10.8643 12.3048 10.9697 12.5059C11.0751 12.7069 11.1279 12.9328 11.1279 13.1826C11.1279 13.4324 11.0741 13.6583 10.9668 13.8594C10.8614 14.0584 10.7068 14.2168 10.5039 14.334C10.3028 14.4492 10.0584 14.5068 9.77148 14.5068H8.96875V15.8486H8.17773V11.8496H9.77734ZM0.785156 15.2539H1.37402C1.68457 15.2539 1.9082 15.2051 2.04492 15.1074C2.18151 15.0078 2.25 14.8632 2.25 14.6738C2.24994 14.547 2.2226 14.4384 2.16797 14.3486C2.11523 14.257 2.03504 14.1865 1.92773 14.1377C1.82034 14.0889 1.68938 14.0645 1.53516 14.0645H0.785156V15.2539ZM8.96582 13.8857H9.625C9.77132 13.8857 9.89658 13.8583 10 13.8037C10.1033 13.7471 10.1827 13.6668 10.2373 13.5635C10.2938 13.4581 10.3223 13.3308 10.3223 13.1826C10.3222 12.9562 10.2607 12.7822 10.1377 12.6611C10.0147 12.5401 9.84356 12.4796 9.625 12.4795H8.96582V13.8857ZM0.785156 13.5137H1.30664C1.48438 13.5137 1.62891 13.4922 1.74023 13.4492C1.85345 13.4063 1.93654 13.3447 1.98926 13.2646C2.04382 13.1827 2.07129 13.0839 2.07129 12.9688C2.07121 12.8049 2.01945 12.6767 1.91602 12.585C1.81446 12.4913 1.67078 12.4443 1.48535 12.4443H0.785156V13.5137Z" fill="currentColor"/>
</svg>
