<svg width="16" height="16" viewBox="0 0 16 16" fill="none" xmlns="http://www.w3.org/2000/svg">
<path d="M14 4.5V14C14 15.1046 13.1046 16 12 16H10V15H12C12.5523 15 13 14.5523 13 14V4.5H11C10.1716 4.5 9.5 3.82843 9.5 3V1H4C3.44772 1 3 1.44772 3 2V11H2V2C2 0.89543 2.89543 0 4 0H9.5L14 4.5ZM3.06445 12.5117H1.92773V15.8486H1.13379V12.5117H0V11.8496H3.06445V12.5117ZM4.86523 13.2881H4.90039L5.72363 11.8496H6.61719L5.34277 13.8564L6.59668 15.8486H5.68848L4.83887 14.4336H4.80371L3.95117 15.8486H3.08984L4.3291 13.833L3.10156 11.8496H4.0332L4.86523 13.2881ZM9.68359 12.5117H8.54688V15.8486H7.75293V12.5117H6.61914V11.8496H9.68359V12.5117Z" fill="currentColor"/>
</svg>
