<svg width="16" height="16" viewBox="0 0 16 16" fill="none" xmlns="http://www.w3.org/2000/svg">
<path d="M8.96234 11.8489C9.18093 11.8489 9.38333 11.8812 9.56876 11.9456C9.75614 12.0081 9.91937 12.099 10.058 12.2181C10.1966 12.337 10.3061 12.4778 10.3861 12.6398C10.4681 12.8018 10.514 12.9827 10.5238 13.1818V13.2551H9.75917C9.74742 13.1126 9.70736 12.9854 9.63906 12.8742C9.57269 12.763 9.48174 12.6759 9.36662 12.6135C9.25149 12.5491 9.11842 12.5168 8.9682 12.5168C8.78482 12.5168 8.62633 12.5629 8.49362 12.6545C8.36289 12.7462 8.26219 12.8793 8.19188 13.0529C8.12356 13.2266 8.08939 13.4378 8.08935 13.6857V14.1807C8.08935 14.4267 8.12358 14.6359 8.19188 14.8077C8.26024 14.9796 8.35984 15.1104 8.49069 15.2003C8.62348 15.2881 8.7827 15.3321 8.9682 15.3321C9.12037 15.3321 9.25442 15.3028 9.36955 15.2442C9.48455 15.1837 9.57568 15.1005 9.64199 14.9952C9.70822 14.8898 9.74747 14.7684 9.75917 14.6319H10.5238V14.7081C10.5102 14.9618 10.4347 15.1867 10.2982 15.3819C10.1616 15.575 9.97768 15.7266 9.74745 15.8359C9.5171 15.9452 9.25514 15.9999 8.96234 16C8.60304 16 8.2983 15.9277 8.04834 15.7832C7.79835 15.6367 7.60794 15.4278 7.47708 15.1563C7.34824 14.8849 7.28374 14.5596 7.28374 14.1807V13.6828C7.28379 13.3041 7.34921 12.9776 7.48001 12.7043C7.61086 12.4311 7.80142 12.2199 8.05127 12.0716C8.30311 11.9233 8.60711 11.8489 8.96234 11.8489ZM13.9991 4.49973V13.9991C13.9991 15.1037 13.1038 15.999 11.9993 15.999V14.9991C12.5515 14.9991 12.9992 14.5514 12.9992 13.9991V4.49973H10.9993C10.171 4.49973 9.49942 3.8282 9.49942 2.99982V0.999939H3.99976C3.44751 0.999939 2.99982 1.44763 2.99982 1.99988V10.9993H1.99988V1.99988C1.99988 0.895375 2.89525 0 3.99976 0H9.49942L13.9991 4.49973ZM3.6033 15.9238H2.76253L2.44907 14.8956H1.11321L0.799756 15.9238H0L1.34172 11.9251H2.26744L3.6033 15.9238ZM7.23491 15.9238H6.39414L6.08068 14.8956H4.74483L4.43137 15.9238H3.63162L4.97333 11.9251H5.89905L7.23491 15.9238ZM1.27726 14.3067H2.29088L1.80165 12.6896H1.76649L1.27726 14.3067ZM4.90888 14.3067H5.92249L5.43326 12.6896H5.39811L4.90888 14.3067Z" fill="currentColor"/>
</svg>
