<svg width="16" height="17" viewBox="0 0 16 17" fill="none" xmlns="http://www.w3.org/2000/svg">
<path d="M2.64258 14.6562C2.64258 15.0956 2.52331 15.4307 2.28516 15.6611C2.04883 15.8916 1.7207 16.0068 1.30078 16.0068C1.08594 16.0068 0.896484 15.9756 0.732422 15.9131C0.570372 15.8486 0.43454 15.7597 0.325195 15.6465C0.21787 15.5333 0.136686 15.4032 0.0820312 15.2568C0.0274287 15.1105 0 14.955 0 14.791H0.764648C0.76855 14.8925 0.793076 14.9825 0.837891 15.0605C0.88278 15.1367 0.944416 15.1973 1.02246 15.2422C1.10059 15.2852 1.19043 15.3066 1.29199 15.3066C1.48145 15.3066 1.62207 15.252 1.71387 15.1426C1.80554 15.0332 1.85156 14.8778 1.85156 14.6768V11.9316H2.64258V14.6562ZM4.66309 11.8496C4.96769 11.8496 5.22759 11.9004 5.44238 12.002C5.6591 12.1035 5.82618 12.2403 5.94336 12.4121C6.06243 12.5819 6.12885 12.7707 6.14258 12.9775H5.39258C5.37497 12.882 5.33489 12.7958 5.27246 12.7197C5.21193 12.6436 5.12981 12.583 5.02637 12.5381C4.9229 12.4932 4.79972 12.4707 4.65723 12.4707C4.44061 12.4707 4.2695 12.5217 4.14453 12.623C4.02159 12.7226 3.96006 12.8508 3.95996 13.0068C3.95996 13.1279 4.00786 13.2275 4.10352 13.3057C4.19922 13.3838 4.33398 13.4424 4.50781 13.4814L5.12891 13.625C5.34565 13.6738 5.53421 13.7442 5.69434 13.8359C5.85442 13.9257 5.9795 14.045 6.06934 14.1934C6.15913 14.3417 6.20405 14.5285 6.2041 14.7529C6.2041 15.0008 6.14144 15.2198 6.0166 15.4092C5.89361 15.5966 5.71372 15.7432 5.47754 15.8486C5.24321 15.9541 4.95695 16.0068 4.61914 16.0068C4.36526 16.0068 4.14354 15.9765 3.9541 15.916C3.76465 15.8555 3.60547 15.7715 3.47656 15.6641C3.34965 15.5547 3.25292 15.4297 3.18652 15.2891C3.12019 15.1485 3.083 14.9989 3.0752 14.8408H3.83984C3.8535 14.9169 3.8819 14.9883 3.9248 15.0547C3.96776 15.1191 4.02444 15.1758 4.09473 15.2246C4.16504 15.2734 4.24805 15.3115 4.34375 15.3389C4.43943 15.3662 4.54593 15.3799 4.66309 15.3799C4.82706 15.3799 4.96489 15.3564 5.07617 15.3096C5.1893 15.2627 5.27446 15.1982 5.33105 15.1162C5.38753 15.0323 5.41602 14.9354 5.41602 14.8262C5.41592 14.6877 5.36514 14.579 5.26367 14.501C5.16212 14.4209 5.00772 14.3564 4.80078 14.3076L4.18262 14.1641C3.97559 14.1172 3.7959 14.0459 3.64355 13.9502C3.49123 13.8545 3.37402 13.7324 3.29199 13.584C3.21004 13.4356 3.16895 13.2606 3.16895 13.0596C3.16901 12.8156 3.23249 12.6024 3.35938 12.4209C3.48631 12.2394 3.66225 12.0986 3.88672 11.999C4.11126 11.8995 4.37025 11.8496 4.66309 11.8496ZM14 4.5V14C14 15.1046 13.1046 16 12 16H8V15H12C12.5523 15 13 14.5523 13 14V4.5H11C10.1716 4.5 9.5 3.82843 9.5 3V1H4C3.44772 1 3 1.44772 3 2V11H2V2C2 0.89543 2.89543 0 4 0H9.5L14 4.5Z" fill="currentColor"/>
</svg>
