<svg width="16" height="16" viewBox="0 0 16 16" fill="none" xmlns="http://www.w3.org/2000/svg">
<path d="M4 0C2.89543 0 2 0.89543 2 2V14C2 15.1046 2.89543 16 4 16H12C13.1046 16 14 15.1046 14 14V2C14 0.89543 13.1046 0 12 0H4ZM4 1H12C12.5523 1 13 1.44772 13 2V14C13 14.5523 12.5523 15 12 15H4C3.44772 15 3 14.5523 3 14V2C3 1.44772 3.44772 1 4 1Z" fill="currentColor"/>
<path d="M4.60307 12.0867C4.39492 12.0107 4.25502 11.8484 4.16469 11.6677C3.97023 11.2788 4.03479 10.891 4.24538 10.5645C4.4432 10.2579 4.77106 9.99714 5.14156 9.7783C5.55866 9.53195 6.07229 9.31413 6.62411 9.13327C6.83122 8.76155 7.0339 8.36643 7.22353 7.96485C7.39178 7.60856 7.5476 7.25173 7.6858 6.90625C7.4942 6.45881 7.34401 6.01659 7.25638 5.61135C7.16978 5.21088 7.13709 4.81469 7.20953 4.4749C7.28496 4.1211 7.48355 3.80271 7.86079 3.65181C8.05234 3.57519 8.25997 3.53145 8.46215 3.57468C8.68338 3.62199 8.84316 3.76139 8.93893 3.93989C9.02715 4.10432 9.05907 4.29551 9.06587 4.47823C9.07284 4.66545 9.0543 4.87345 9.01863 5.09172C8.93529 5.60161 8.74811 6.22633 8.49839 6.88632C8.64647 7.2041 8.81663 7.52574 9.00129 7.83732C9.15467 8.09613 9.31533 8.34341 9.47821 8.57217C9.97315 8.54085 10.4329 8.5536 10.8131 8.62199C11.1769 8.68746 11.5471 8.81726 11.773 9.08676C11.8939 9.231 11.9659 9.40707 11.9731 9.60539C11.9801 9.79716 11.9259 9.98671 11.8354 10.1677C11.751 10.3366 11.6356 10.4829 11.4809 10.5841C11.3229 10.6875 11.1471 10.7286 10.9713 10.7216C10.64 10.7082 10.3173 10.5258 10.0377 10.305C9.73717 10.0676 9.42668 9.7376 9.12697 9.35521C8.8067 9.39 8.46938 9.44281 8.1273 9.51234C7.78883 9.58113 7.45236 9.66493 7.13013 9.76085C6.79218 10.3441 6.44175 10.8696 6.10906 11.2707C5.81838 11.6211 5.50131 11.9265 5.18301 12.0577C5.01465 12.127 4.80989 12.1622 4.60307 12.0867ZM5.98158 10.1859C5.81603 10.2622 5.66217 10.3419 5.52298 10.4241C5.19504 10.6178 4.98181 10.8065 4.87564 10.9711C4.78225 11.1159 4.77994 11.2212 4.8355 11.3323C4.84627 11.3538 4.85527 11.3677 4.86178 11.3764C4.87006 11.3743 4.88173 11.3706 4.8973 11.3642C5.03409 11.3079 5.25219 11.1289 5.53182 10.7918C5.67695 10.6169 5.82804 10.4126 5.98158 10.1859ZM7.62199 8.85507C7.74064 8.82737 7.85945 8.80144 7.97792 8.77736C8.19565 8.73311 8.41477 8.69459 8.63205 8.66263C8.53723 8.51784 8.44498 8.36969 8.35609 8.2197C8.27548 8.08369 8.19695 7.94501 8.12119 7.8047C8.05032 7.96525 7.97698 8.12574 7.90172 8.28511C7.81154 8.47608 7.71802 8.66668 7.62199 8.85507ZM10.0682 9.30671C10.2177 9.4684 10.3638 9.60682 10.5026 9.71637C10.7431 9.90632 10.9103 9.96847 11.0014 9.97213C11.0368 9.97355 11.0554 9.96621 11.0702 9.95652C11.0882 9.94473 11.1241 9.91333 11.1646 9.83223C11.2167 9.72814 11.2247 9.66437 11.2236 9.63268C11.2227 9.60753 11.2162 9.58998 11.1982 9.56857C11.1464 9.50679 10.9973 9.41719 10.6803 9.36014C10.5023 9.32812 10.2958 9.31057 10.0682 9.30671ZM8.07841 5.79868C8.17027 5.49402 8.23867 5.21409 8.27845 4.97074C8.30917 4.78276 8.32091 4.62748 8.31639 4.50611C8.31244 4.39984 8.29664 4.33859 8.28437 4.30821C8.26023 4.31014 8.21401 4.31829 8.13933 4.34817C8.05234 4.38296 7.98088 4.45384 7.94305 4.63128C7.90223 4.82272 7.91308 5.09974 7.98944 5.45283C8.01348 5.56403 8.04332 5.67964 8.07841 5.79868Z" fill="currentColor"/>
</svg>
