<svg width="16" height="16" viewBox="0 0 16 16" fill="none" xmlns="http://www.w3.org/2000/svg">
<path d="M14 4.5V14C14 15.1046 13.1046 16 12 16H11V15H12C12.5523 15 13 14.5523 13 14V4.5H11C10.1716 4.5 9.5 3.82843 9.5 3V1H4C3.44772 1 3 1.44772 3 2V11H2V2C2 0.89543 2.89543 0 4 0H9.5L14 4.5ZM3.06445 12.5117H1.92773V15.8486H1.13379V12.5117H0V11.8496H3.06445V12.5117ZM4.05957 15.8486H3.26855V11.8496H4.05957V15.8486ZM7.19043 12.5029H5.43262V13.6191H7.03809V14.2578H5.43262V15.8486H4.6416V11.8496H7.19043V12.5029ZM10.0576 12.5029H8.2998V13.6191H9.90527V14.2578H8.2998V15.8486H7.50879V11.8496H10.0576V12.5029Z" fill="currentColor"/>
</svg>
