<svg width="16" height="16" viewBox="0 0 16 16" fill="none" xmlns="http://www.w3.org/2000/svg">
<path d="M14 4.5V14C14 15.1046 13.1046 16 12 16H10V15H12C12.5523 15 13 14.5523 13 14V4.5H11C10.1716 4.5 9.5 3.82843 9.5 3V1H4C3.44772 1 3 1.44772 3 2V11H2V2C2 0.89543 2.89543 0 4 0H9.5L14 4.5ZM6.12793 12.5117H4.99121V15.8486H4.19727V12.5117H1.92773V15.8486H1.13379V12.5117H0V11.8496H6.12793V12.5117ZM9.00098 12.5029H7.24316V13.6191H8.84863V14.2578H7.24316V15.8486H6.45215V11.8496H9.00098V12.5029Z" fill="currentColor"/>
</svg>
