<svg width="16" height="16" viewBox="0 0 16 16" fill="none" xmlns="http://www.w3.org/2000/svg">
<path d="M14 4.5V14C14 15.1046 13.1046 16 12 16H6V15H12C12.5523 15 13 14.5523 13 14V4.5H11C10.1716 4.5 9.5 3.82843 9.5 3V1H4C3.44772 1 3 1.44772 3 2V11H2V2C2 0.89543 2.89543 0 4 0H9.5L14 4.5ZM3.60352 15.8486H2.7627L2.44922 14.8203H1.11328L0.799805 15.8486H0L1.3418 11.8496H2.26758L3.60352 15.8486ZM4.71582 15.8486H3.9248V11.8496H4.71582V15.8486ZM1.27734 14.2314H2.29102L1.80176 12.6143H1.7666L1.27734 14.2314Z" fill="currentColor"/>
</svg>
