<svg width="16" height="16" viewBox="0 0 16 16" fill="none" xmlns="http://www.w3.org/2000/svg">
<path d="M14 4.5V14C14 15.1046 13.1046 16 12 16H11V15H12C12.5523 15 13 14.5523 13 14V4.5H11C10.1716 4.5 9.5 3.82843 9.5 3V1H4C3.44772 1 3 1.44772 3 2V11H2V2C2 0.89543 2.89543 0 4 0H9.5L14 4.5ZM2.5752 12.4971H0.785156V13.5225H2.46973V14.1289H0.785156V15.2012H2.5752V15.8486H0V11.8496H2.5752V12.4971ZM4.55762 13.2881H4.59277L5.41602 11.8496H6.30957L5.03516 13.8564L6.28906 15.8486H5.38086L4.53125 14.4336H4.49609L3.64355 15.8486H2.78223L4.02148 13.833L2.79395 11.8496H3.72559L4.55762 13.2881ZM9.12402 12.4971H7.33398V13.5225H9.01855V14.1289H7.33398V15.2012H9.12402V15.8486H6.54883V11.8496H9.12402V12.4971Z" fill="currentColor"/>
</svg>
