<svg width="16" height="16" viewBox="0 0 16 16" fill="none" xmlns="http://www.w3.org/2000/svg">
<path d="M0.49997 3L0.539526 3.87024C0.286253 4.23949 0.154202 4.69647 0.198257 5.18107L0.834621 12.1811C0.928272 13.2112 1.792 14 2.82641 14H8.99997V13H2.82641C2.3092 13 1.87734 12.6056 1.83051 12.0905L1.19415 5.09054C1.14091 4.50492 1.60201 4 2.19004 4H13.8099C14.398 4 14.8591 4.50492 14.8058 5.09054L14.5413 8H15.5455L15.8017 5.18107C15.9082 4.00984 14.986 3 13.8099 3H9.8284C9.29796 3 8.78926 2.78929 8.41418 2.41421L7.58576 1.58579C7.21068 1.21071 6.70198 1 6.17154 1H2.49997C1.3954 1 0.49997 1.89543 0.49997 3ZM6.17154 2C6.43676 2 6.69111 2.10536 6.87865 2.29289L7.58576 3H2.19004C1.94933 3 1.71924 3.04231 1.50644 3.11964L1.50014 2.98112C1.51021 2.43755 1.95399 2 2.49997 2H6.17154Z" fill="currentColor"/>
<path d="M11 11.5C11 11.2239 11.2239 11 11.5 11H15.5C15.7761 11 16 11.2239 16 11.5C16 11.7761 15.7761 12 15.5 12H11.5C11.2239 12 11 11.7761 11 11.5Z" fill="currentColor"/>
</svg>
