<svg width="16" height="16" viewBox="0 0 16 16" fill="none" xmlns="http://www.w3.org/2000/svg">
<path d="M0.539556 3.87024L0.5 3C0.5 1.89543 1.39543 1 2.5 1H6.17157C6.70201 1 7.21071 1.21071 7.58579 1.58579L8.41421 2.41421C8.78929 2.78929 9.29799 3 9.82843 3H13.8099C14.986 3 15.9082 4.00984 15.8017 5.18107L15.1654 12.1811C15.0717 13.2112 14.208 14 13.1736 14H2.82644C1.79203 14 0.928302 13.2112 0.834651 12.1811L0.198287 5.18107C0.154232 4.69647 0.286283 4.23949 0.539556 3.87024ZM2.19007 4C1.60204 4 1.14094 4.50492 1.19418 5.09054L1.83054 12.0905C1.87737 12.6056 2.30923 13 2.82644 13H13.1736C13.6908 13 14.1226 12.6056 14.1695 12.0905L14.8058 5.09054C14.8591 4.50492 14.398 4 13.8099 4H2.19007ZM6.87868 2.29289C6.69114 2.10536 6.43679 2 6.17157 2H2.5C1.95402 2 1.51024 2.43755 1.50017 2.98112L1.50647 3.11964C1.71927 3.04231 1.94936 3 2.19007 3H7.58579L6.87868 2.29289Z" fill="currentColor"/>
</svg>
