<svg width="16" height="16" viewBox="0 0 16 16" fill="none" xmlns="http://www.w3.org/2000/svg">
<path d="M11.7982 8.27133L8.6164 10.2402C8.34625 10.4073 8 10.2052 8 9.86885V9.1C8 9.1 5.42857 8.8 4 11.5C4.57143 6.7 7.14286 6.7 8 6.7V5.93115C8 5.59483 8.34625 5.39265 8.6164 5.55981L11.7982 7.52867C12.0673 7.69515 12.0673 8.10485 11.7982 8.27133Z" fill="currentColor"/>
<path d="M0.49997 3L0.539526 3.87024C0.286253 4.23949 0.154202 4.69647 0.198257 5.18107L0.834621 12.1811C0.928272 13.2112 1.792 14 2.82641 14H13.1736C14.208 14 15.0717 13.2112 15.1654 12.1811L15.8017 5.18107C15.9082 4.00984 14.986 3 13.8099 3H9.8284C9.29796 3 8.78926 2.78929 8.41418 2.41421L7.58576 1.58579C7.21068 1.21071 6.70198 1 6.17154 1H2.49997C1.3954 1 0.49997 1.89543 0.49997 3ZM1.19415 5.09054C1.14091 4.50492 1.60201 4 2.19004 4H13.8099C14.398 4 14.8591 4.50492 14.8058 5.09054L14.1695 12.0905C14.1226 12.6056 13.6908 13 13.1736 13H2.82641C2.3092 13 1.87734 12.6056 1.83051 12.0905L1.19415 5.09054ZM6.17154 2C6.43676 2 6.69111 2.10536 6.87865 2.29289L7.58576 3H2.19004C1.94933 3 1.71924 3.04231 1.50644 3.11964L1.50014 2.98112C1.51021 2.43755 1.95399 2 2.49997 2H6.17154Z" fill="currentColor"/>
</svg>
