<svg width="16" height="16" viewBox="0 0 16 16" fill="none" xmlns="http://www.w3.org/2000/svg">
<path d="M0.539526 3.87024L0.49997 3C0.49997 1.89543 1.3954 1 2.49997 1H6.17154C6.70198 1 7.21068 1.21071 7.58576 1.58579L8.41418 2.41421C8.78926 2.78929 9.29796 3 9.8284 3H13.8099C14.986 3 15.9082 4.00984 15.8017 5.18107L15.5455 8H14.5413L14.8058 5.09054C14.8591 4.50492 14.398 4 13.8099 4H2.19004C1.60201 4 1.14091 4.50492 1.19415 5.09054L1.83051 12.0905C1.87734 12.6056 2.3092 13 2.82641 13H8.99997V14H2.82641C1.792 14 0.928272 13.2112 0.834621 12.1811L0.198257 5.18107C0.154202 4.69647 0.286253 4.23949 0.539526 3.87024ZM6.87865 2.29289C6.69111 2.10536 6.43676 2 6.17154 2H2.49997C1.95399 2 1.51021 2.43755 1.50014 2.98112L1.50644 3.11964C1.71924 3.04231 1.94933 3 2.19004 3H7.58576L6.87865 2.29289Z" fill="currentColor"/>
<path d="M11.8536 10.1464C11.6583 9.95119 11.3417 9.95119 11.1464 10.1464C10.9512 10.3417 10.9512 10.6583 11.1464 10.8536L12.2929 12L11.1464 13.1464C10.9512 13.3417 10.9512 13.6583 11.1464 13.8536C11.3417 14.0488 11.6583 14.0488 11.8536 13.8536L13 12.7071L14.1464 13.8536C14.3417 14.0488 14.6583 14.0488 14.8536 13.8536C15.0488 13.6583 15.0488 13.3417 14.8536 13.1464L13.7071 12L14.8536 10.8536C15.0488 10.6583 15.0488 10.3417 14.8536 10.1464C14.6583 9.95119 14.3417 9.95119 14.1464 10.1464L13 11.2929L11.8536 10.1464Z" fill="currentColor"/>
</svg>
