<svg width="16" height="16" viewBox="0 0 16 16" fill="none" xmlns="http://www.w3.org/2000/svg">
<path d="M7.29289 1.49998C7.68342 1.10946 8.31658 1.10946 8.70711 1.49998L11 3.79287V2.49998C11 2.22384 11.2239 1.99998 11.5 1.99998H12.5C12.7761 1.99998 13 2.22384 13 2.49998V5.79287L15.3536 8.14643C15.5488 8.34169 15.5488 8.65827 15.3536 8.85353C15.1583 9.0488 14.8417 9.0488 14.6464 8.85353L8 2.20709L3 7.20709V13.5C3 13.7761 3.22386 14 3.5 14H7.5C7.77614 14 8 14.2239 8 14.5C8 14.7761 7.77614 15 7.5 15H3.5C2.67157 15 2 14.3284 2 13.5V8.20709L1.35355 8.85353C1.15829 9.0488 0.841709 9.0488 0.646447 8.85353C0.451184 8.65827 0.451184 8.34169 0.646447 8.14643L7.29289 1.49998Z" fill="currentColor"/>
<path d="M16 12.5C16 14.433 14.433 16 12.5 16C10.567 16 9 14.433 9 12.5C9 10.567 10.567 8.99998 12.5 8.99998C14.433 8.99998 16 10.567 16 12.5ZM12.5 10.5C12.2239 10.5 12 10.7239 12 11V12.5C12 12.7761 12.2239 13 12.5 13C12.7761 13 13 12.7761 13 12.5V11C13 10.7239 12.7761 10.5 12.5 10.5ZM12.5 14.5C12.7761 14.5 13 14.2761 13 14C13 13.7239 12.7761 13.5 12.5 13.5C12.2239 13.5 12 13.7239 12 14C12 14.2761 12.2239 14.5 12.5 14.5Z" fill="currentColor"/>
</svg>
