<svg width="16" height="16" viewBox="0 0 16 16" fill="none" xmlns="http://www.w3.org/2000/svg">
<path d="M7.94891 7.9982L7.95542 7.99506L7.9583 8.00364L7.94891 7.9982Z" fill="currentColor"/>
<path d="M7.97417 7.97055L7.97412 7.93927L7.99215 7.95018L7.97417 7.97055Z" fill="currentColor"/>
<path d="M7.97408 7.98479C7.9872 7.97755 8.00026 7.97021 8.01328 7.96277L8.02388 7.96901L8.02341 8.0097L7.9954 8.02545L7.97375 8.01261L7.97408 7.98479Z" fill="currentColor"/>
<path d="M8.02336 8.04244L8.02332 8.02759L8.01483 8.03723L8.02336 8.04244Z" fill="currentColor"/>
<path d="M7.97333 8.03369L7.97905 8.03485L7.97321 8.03822L7.97333 8.03369Z" fill="currentColor"/>
<path d="M8 0C3.58172 0 0 3.58172 0 8C0 12.4183 3.58172 16 8 16C12.4183 16 16 12.4183 16 8C16 3.58172 12.4183 0 8 0ZM4.96461 1.69057C5.88283 1.24801 6.91245 1 8 1C8.27952 1 8.55522 1.01638 8.82619 1.04824C9.54776 1.81476 10.0027 2.93493 10.0027 4.18268C10.0027 5.83918 9.20088 7.27082 8.03783 7.94862C9.30055 8.1881 10.6928 7.13364 11.4437 5.20659C11.8237 4.23162 11.9808 3.18393 11.9362 2.21071C13.0247 2.95225 13.8933 3.99278 14.4237 5.21415C14.1214 6.22377 13.3783 7.17952 12.2963 7.80421C10.8553 8.63614 9.20635 8.65406 8.03687 7.97659L8.04415 7.99829L8.05566 7.99203L8.0457 8.0028C8.46603 9.22034 10.0775 9.90195 12.1257 9.58819C13.1665 9.42874 14.1583 9.03702 14.9819 8.50675C14.8842 9.8735 14.394 11.1317 13.6235 12.1692C12.5948 12.4172 11.3894 12.2529 10.3023 11.6253C8.86909 10.7978 8.03038 9.38941 8.0234 8.04439L8.01103 8.0416C7.16561 9.01417 7.38073 10.7513 8.67704 12.3688C9.33674 13.192 10.1737 13.8559 11.0464 14.3041C10.1254 14.75 9.09191 15 8 15C7.72526 15 7.45422 14.9842 7.18774 14.9534C6.46034 14.1866 6.00119 13.0618 6.00119 11.8083C6.00119 10.1499 6.80484 8.71689 7.97005 8.04004L7.96773 8.03256C6.70156 7.78332 5.30232 8.83839 4.54878 10.7721C4.16666 11.7526 4.00996 12.8068 4.05713 13.7847C2.9661 13.0397 2.09667 11.994 1.56811 10.7669C1.86993 9.75641 2.61341 8.79964 3.69626 8.17446C5.13445 7.34412 6.77983 7.32469 7.94891 7.9982L7.95449 7.9922C7.53832 6.76981 5.92435 6.08465 3.87185 6.39907C2.83249 6.55829 1.84208 6.94911 1.01915 7.47822C1.12005 6.10894 1.61484 4.84917 2.39065 3.81179L2.3886 3.81454C3.41405 3.57158 4.61326 3.73731 5.69519 4.36197C7.12579 5.18793 7.96405 6.59264 7.97409 7.93541L8.00004 7.94106C8.83704 6.96692 8.61946 5.23509 7.32684 3.62218C6.66894 2.80127 5.83477 2.1387 4.96461 1.69057Z" fill="currentColor"/>
</svg>
