<svg width="16" height="16" viewBox="0 0 16 16" fill="none" xmlns="http://www.w3.org/2000/svg">
<path d="M5.5203 0.358916C5.58288 0.146124 5.77818 0 5.99998 0H9.99997C10.1607 0 10.3116 0.0772603 10.4056 0.207644C10.4996 0.338028 10.5252 0.505638 10.4743 0.658112L8.69368 5.99998H12.5C12.691 5.99998 12.8653 6.10876 12.9492 6.2803C13.0331 6.45185 13.0119 6.6562 12.8947 6.80694L5.89466 15.8069C5.74647 15.9974 5.48332 16.0549 5.26919 15.9435C5.05508 15.832 4.95112 15.5836 5.0221 15.3529L6.823 9.49996H3.49999C3.34241 9.49996 3.19406 9.42568 3.09965 9.29951C3.00525 9.17334 2.97584 9.01006 3.02031 8.85889L5.5203 0.358916ZM6.3741 0.999996L4.16823 8.49997H7.49998C7.65865 8.49997 7.8079 8.57528 7.90216 8.70292C7.99643 8.83055 8.02452 8.99536 7.97786 9.14701L6.78014 13.0396L11.4777 6.99997H7.99997C7.83925 6.99997 7.68833 6.92271 7.59436 6.79233C7.50038 6.66194 7.47481 6.49434 7.52564 6.34187L9.30626 0.999996H6.3741Z" fill="currentColor"/>
</svg>
