<svg width="16" height="16" viewBox="0 0 16 16" fill="none" xmlns="http://www.w3.org/2000/svg">
<path d="M15.3037 13.9998C15.6879 13.9998 16 14.2914 16 14.6502C15.9999 15.009 15.6878 15.2997 15.3037 15.2997H0.696289C0.312156 15.2997 7.91637e-05 15.009 0 14.6502C1.56841e-08 14.2914 0.312107 13.9998 0.696289 13.9998H15.3037Z" fill="currentColor"/>
<path fill-rule="evenodd" clip-rule="evenodd" d="M3.7998 9.49976C4.51769 9.49976 5.09947 10.0817 5.09961 10.7996V11.9997C5.09961 12.7177 4.51777 13.2996 3.7998 13.2996H2.7998C2.08183 13.2996 1.5 12.7177 1.5 11.9997V10.7996C1.50014 10.0817 2.08192 9.49976 2.7998 9.49976H3.7998ZM2.7998 11.9997H3.7998V10.7996H2.7998V11.9997Z" fill="currentColor"/>
<path fill-rule="evenodd" clip-rule="evenodd" d="M8.7998 6.69995C9.51769 6.69995 10.0995 7.2819 10.0996 7.99976V11.9997C10.0996 12.7177 9.51777 13.2996 8.7998 13.2996H7.7998C7.08183 13.2996 6.5 12.7177 6.5 11.9997V7.99976C6.50014 7.2819 7.08192 6.69995 7.7998 6.69995H8.7998ZM7.7998 11.9997H8.7998V7.99976H7.7998V11.9997Z" fill="currentColor"/>
<path fill-rule="evenodd" clip-rule="evenodd" d="M13.7998 4.69995C14.5177 4.69995 15.0995 5.2819 15.0996 5.99976V11.9997C15.0996 12.7177 14.5178 13.2996 13.7998 13.2996H12.7998C12.0818 13.2996 11.5 12.7177 11.5 11.9997V5.99976C11.5001 5.2819 12.0819 4.69995 12.7998 4.69995H13.7998ZM12.7998 11.9997H13.7998V5.99976H12.7998V11.9997Z" fill="currentColor"/>
<path fill-rule="evenodd" clip-rule="evenodd" d="M1.64941 1.17465C2.05164 0.942433 2.54797 0.942433 2.9502 1.17465L7.4502 3.77231L7.59277 3.86801C7.90984 4.11207 8.09961 4.49176 8.09961 4.89828C8.09947 5.36249 7.85217 5.79207 7.4502 6.02426L2.9502 8.62193C2.54806 8.85402 2.05155 8.85402 1.64941 8.62193C1.24755 8.38971 1.00014 7.96008 1 7.49594V2.30063C1 1.8364 1.24753 1.40695 1.64941 1.17465ZM2.2998 7.49594L6.7998 4.89828L2.2998 2.30063V7.49594Z" fill="currentColor"/>
</svg>
