<svg width="16" height="16" viewBox="0 0 16 16" fill="none" xmlns="http://www.w3.org/2000/svg">
<path d="M14 9.99996L11.9427 7.94263C11.6926 7.69267 11.3536 7.55225 11 7.55225C10.6464 7.55225 10.3074 7.69267 10.0573 7.94263L4 14M12.6667 2H3.33333C2.59695 2 2 2.59695 2 3.33333V12.6667C2 13.403 2.59695 14 3.33333 14H12.6667C13.403 14 14 13.403 14 12.6667V3.33333C14 2.59695 13.403 2 12.6667 2ZM5.99996 7.33341C6.73634 7.33341 7.33329 6.73646 7.33329 6.00008C7.33329 5.2637 6.73634 4.66675 5.99996 4.66675C5.26358 4.66675 4.66663 5.2637 4.66663 6.00008C4.66663 6.73646 5.26358 7.33341 5.99996 7.33341Z" stroke="currentColor" stroke-width="1.33333" stroke-linecap="round" stroke-linejoin="round"/>
</svg>
