<svg width="16" height="16" viewBox="0 0 16 16" fill="none" xmlns="http://www.w3.org/2000/svg">
<path d="M6.19243 2.7794C5.73422 2.10298 5.26517 1.532 4.84205 1.13698C4.60891 0.919325 4.36781 0.73428 4.132 0.62168C3.91499 0.518056 3.57261 0.416692 3.25012 0.602877C2.88294 0.814869 2.82294 1.23245 2.82022 1.49763C2.81711 1.80169 2.88421 2.1619 2.99282 2.54157C3.18931 3.22844 3.54853 4.07025 4.02838 4.94345L0.752146 8.21968C0.475087 8.49674 0.483301 8.87588 0.534071 9.13803C0.588844 9.42085 0.721101 9.73062 0.893495 10.0409C1.24172 10.6677 1.81324 11.4021 2.51992 12.1088C3.22659 12.8154 3.96095 13.387 4.58776 13.7352C4.89806 13.9076 5.20784 14.0398 5.49066 14.0946C5.7528 14.1454 6.13195 14.1536 6.409 13.8765L12.0236 8.26196C12.1418 8.51937 12.1162 8.7736 12.0731 9.20091C12.0437 9.49313 12.0061 9.8663 12.0008 10.3767C12.0001 10.3964 11.9999 10.4161 12.0003 10.4358L12.0002 10.5L12.0037 10.4993C12.023 10.7262 12.1194 10.9477 12.293 11.1213C12.6835 11.5118 13.3167 11.5118 13.7072 11.1213C13.8808 10.9478 13.9772 10.7263 13.9965 10.4995L14.0001 10.5C14.0001 10.4809 14 10.4619 13.9997 10.4427C14.0008 10.4038 13.9996 10.3648 13.9962 10.326C13.9408 9.07608 13.2955 7.58809 12.1369 6.83226C12.0775 6.68959 12.0055 6.54407 11.9246 6.39843C11.5763 5.77163 11.0048 5.03727 10.2981 4.33059C9.59142 3.62392 8.85705 3.0524 8.23025 2.70418C7.91995 2.53178 7.61017 2.39953 7.32735 2.34475C7.06521 2.29398 6.68606 2.28577 6.409 2.56283L6.19243 2.7794ZM4.15963 1.86794C4.54141 2.22436 5.00432 2.79004 5.4714 3.50043L4.76681 4.20502C4.38508 3.4776 4.10757 2.80248 3.95426 2.26654C3.87311 1.98286 3.83248 1.75766 3.82256 1.59437C3.91418 1.655 4.02723 1.74434 4.15963 1.86794ZM4.55354 5.8325C5.09398 6.68487 5.66147 7.4 6.16114 7.86575C6.36314 8.05404 6.67953 8.04292 6.86781 7.84092C7.0561 7.63893 7.04498 7.32254 6.84299 7.13425C6.38958 6.71162 5.82598 5.9978 5.27937 5.10667L6.36735 4.01869C6.42058 4.13932 6.48234 4.26166 6.55035 4.38408C6.89858 5.01088 7.4701 5.74524 8.17677 6.45191C8.88344 7.15859 9.61781 7.73011 10.2446 8.07833C10.3671 8.14634 10.4894 8.20811 10.61 8.26133L5.74889 13.1224C5.73301 13.1213 5.71073 13.1187 5.68079 13.1129C5.54395 13.0863 5.33892 13.0085 5.0734 12.861C4.54855 12.5694 3.88719 12.0618 3.22702 11.4017C2.56686 10.7415 2.05924 10.0801 1.76766 9.55529C1.62015 9.28977 1.54234 9.08474 1.51583 8.94789C1.51003 8.91795 1.50735 8.89568 1.50625 8.8798L4.55354 5.8325ZM7.42451 3.89843C7.29257 3.66094 7.21639 3.47184 7.18281 3.33664C7.31801 3.37021 7.50712 3.44639 7.74461 3.57833C8.26946 3.86992 8.93082 4.37754 9.59099 5.0377C10.0416 5.48826 10.4211 5.93939 10.7094 6.34729C10.3771 6.32264 10.0214 6.34988 9.64314 6.43925C9.3952 6.23308 9.13945 6.00038 8.88388 5.74481C8.22372 5.08465 7.71609 4.42328 7.42451 3.89843Z" fill="currentColor"/>
</svg>
