<svg width="16" height="16" viewBox="0 0 16 16" fill="none" xmlns="http://www.w3.org/2000/svg">
<path d="M7.00158 11C7.00158 10.4477 7.4493 9.99999 8.00158 9.99999C8.55386 9.99999 9.00157 10.4477 9.00157 11C9.00157 11.5523 8.55386 12 8.00158 12C7.4493 12 7.00158 11.5523 7.00158 11Z" fill="currentColor"/>
<path d="M7.09954 4.99503C7.04627 4.46227 7.46463 3.99999 8.00004 3.99999C8.53545 3.99999 8.95381 4.46227 8.90054 4.99503L8.54979 8.50247C8.52155 8.78491 8.28388 8.99999 8.00004 8.99999C7.7162 8.99999 7.47853 8.78491 7.45029 8.50247L7.09954 4.99503Z" fill="currentColor"/>
<path d="M10.2729 2.51266L9.35189 1.56943L10.0674 0.870797L10.6892 1.50763L11.5792 1.49703C13.2019 1.47771 14.5223 2.79809 14.503 4.42074L14.4924 5.31076L15.1292 5.93261C16.2903 7.06634 16.2903 8.93364 15.1292 10.0674L14.4924 10.6892L14.503 11.5792C14.5223 13.2019 13.2019 14.5223 11.5792 14.503L10.6892 14.4924L10.0674 15.1292C8.93364 16.2903 7.06634 16.2903 5.93261 15.1292L5.31076 14.4924L4.42074 14.503C2.79809 14.5223 1.47771 13.2019 1.49703 11.5792L1.50763 10.6892L0.870797 10.0674C-0.290266 8.93364 -0.290266 7.06634 0.870797 5.93261L1.50763 5.31076L1.49703 4.42074C1.47771 2.79809 2.79809 1.47771 4.42074 1.49703L5.31076 1.50763L5.93261 0.870797C7.06634 -0.290266 8.93364 -0.290266 10.0674 0.870797L9.35189 1.56943C8.61052 0.810188 7.38946 0.810188 6.64809 1.56943L5.72706 2.51266L4.40883 2.49696C3.34775 2.48432 2.48432 3.34775 2.49696 4.40883L2.51266 5.72706L1.56943 6.64809C0.810188 7.38946 0.810188 8.61052 1.56943 9.35189L2.51266 10.2729L2.49696 11.5912C2.48432 12.6523 3.34775 13.5157 4.40883 13.503L5.72706 13.4873L6.64809 14.4306C7.38946 15.1898 8.61052 15.1898 9.35189 14.4306L10.2729 13.4873L11.5912 13.503C12.6523 13.5157 13.5157 12.6523 13.503 11.5912L13.4873 10.2729L14.4306 9.35189C15.1898 8.61052 15.1898 7.38946 14.4306 6.64809L13.4873 5.72706L13.503 4.40883C13.5157 3.34775 12.6523 2.48432 11.5912 2.49696L10.2729 2.51266Z" fill="currentColor"/>
</svg>
