<svg width="16" height="16" viewBox="0 0 16 16" fill="none" xmlns="http://www.w3.org/2000/svg">
<path d="M8.00001 1.28846L14.5778 6.6329C14.737 6.76229 14.8011 6.97585 14.7393 7.17152L12.3775 14.6506C12.3118 14.8586 12.1188 15 11.9007 15H8.00001V1.28846ZM15.8976 6.82421C15.9594 6.62854 15.8954 6.41498 15.7361 6.28559L8.31531 0.256169C8.13161 0.106912 7.86842 0.106912 7.68471 0.256169L0.263891 6.28559C0.104637 6.41498 0.0406056 6.62854 0.102396 6.82421L2.88966 15.6506C2.95535 15.8586 3.14831 16 3.36645 16H12.6336C12.8517 16 13.0447 15.8586 13.1103 15.6506L15.8976 6.82421Z" fill="currentColor"/>
</svg>
