<svg width="16" height="16" viewBox="0 0 16 16" fill="none" xmlns="http://www.w3.org/2000/svg">
<path d="M8 9.04999C9.38071 9.04999 10.5 7.9307 10.5 6.54999C10.5 5.16928 9.38071 4.04999 8 4.04999C6.61929 4.04999 5.5 5.16928 5.5 6.54999C5.5 7.9307 6.61929 9.04999 8 9.04999Z" fill="currentColor"/>
<path d="M1 1C0.447715 1 0 1.44772 0 2V13C0 13.5523 0.447715 14 1 14H1.5C1.77614 14 2 13.7761 2 13.5C2 13.2239 2.22386 13 2.5 13C2.77614 13 3 13.2239 3 13.5C3 13.7761 3.22386 14 3.5 14H12.5C12.7761 14 13 13.7761 13 13.5C13 13.2239 13.2239 13 13.5 13C13.7761 13 14 13.2239 14 13.5C14 13.7761 14.2239 14 14.5 14H15C15.5523 14 16 13.5523 16 13V3C16 2.44772 15.5523 2 15 2H6.70711L6 1.29289C5.81246 1.10536 5.55811 1 5.29289 1H1ZM1 2H5.29289L6 2.70711C6.18754 2.89464 6.44189 3 6.70711 3H15V13H14.9146C14.7087 12.4174 14.1531 12 13.5 12C13.1227 12 12.778 12.1393 12.5144 12.3692C11.8862 11.2242 10.5552 10 8.00002 10C5.44479 10 4.11379 11.2242 3.48565 12.3693C3.22205 12.1393 2.87729 12 2.5 12C1.84689 12 1.29127 12.4174 1.08535 13H1V2Z" fill="currentColor"/>
</svg>
