<svg width="16" height="16" viewBox="0 0 16 16" fill="none" xmlns="http://www.w3.org/2000/svg">
<path d="M6 9C11 9 12 12 12 13C12 14 11 14 11 14H1C1 14 0 14 0 13C0 12 1 9 6 9ZM13.5 4.91016C14.8871 3.48505 18.3542 5.98003 13.5 9.1875C8.64581 5.98003 12.1129 3.48505 13.5 4.91016ZM6 2C7.65685 2 9 3.34315 9 5C9 6.65685 7.65685 8 6 8C4.34315 8 3 6.65685 3 5C3 3.34315 4.34315 2 6 2ZM15 2.16406C15.5549 1.59402 16.9417 2.59201 15 3.875C13.0583 2.59201 14.4451 1.59402 15 2.16406ZM11.5 1.24609C12.3323 0.391036 14.4125 1.88802 11.5 3.8125C8.58749 1.88802 10.6677 0.391036 11.5 1.24609Z" fill="currentColor"/>
</svg>
