<svg width="16" height="16" viewBox="0 0 16 16" fill="none" xmlns="http://www.w3.org/2000/svg">
<path d="M8 9.04999C9.38071 9.04999 10.5 7.9307 10.5 6.54999C10.5 5.16928 9.38071 4.04999 8 4.04999C6.61929 4.04999 5.5 5.16928 5.5 6.54999C5.5 7.9307 6.61929 9.04999 8 9.04999Z" fill="currentColor"/>
<path d="M2 2C0.895431 2 0 2.89543 0 4V12C0 13.1046 0.895431 14 2 14H14C15.1046 14 16 13.1046 16 12V4C16 2.89543 15.1046 2 14 2H2ZM12.7983 13C12.3448 11.7296 11.0372 10 8 10C4.96281 10 3.65522 11.7296 3.2017 13H2C1.44772 13 1 12.5523 1 12V4C1 3.44772 1.44772 3 2 3H14C14.5523 3 15 3.44772 15 4V12C15 12.5523 14.5523 13 14 13H12.7983Z" fill="currentColor"/>
</svg>
