<svg width="16" height="16" viewBox="0 0 16 16" fill="none" xmlns="http://www.w3.org/2000/svg">
<path d="M10 3C10.5523 3 11 3.44772 11 4V12C11 12.5523 10.5523 13 10 13H6C5.44772 13 5 12.5523 5 12V4C5 3.44772 5.44772 3 6 3H10ZM6 2C4.89543 2 4 2.89543 4 4V12C4 13.1046 4.89543 14 6 14H10C11.1046 14 12 13.1046 12 12V4C12 2.89543 11.1046 2 10 2H6Z" fill="currentColor"/>
<path d="M8 12C8.55228 12 9 11.5523 9 11C9 10.4477 8.55228 10 8 10C7.44772 10 7 10.4477 7 11C7 11.5523 7.44772 12 8 12Z" fill="currentColor"/>
<path d="M1.59871 4.05794C1.84284 4.18699 1.93614 4.48951 1.80709 4.73364C1.29191 5.70824 1 6.81928 1 7.99998C1 9.18068 1.29191 10.2917 1.80709 11.2663C1.93614 11.5105 1.84284 11.813 1.59871 11.942C1.35458 12.0711 1.05205 11.9778 0.923005 11.7337C0.333548 10.6185 0 9.34746 0 7.99998C0 6.65249 0.333548 5.38144 0.923005 4.26632C1.05205 4.02218 1.35458 3.92889 1.59871 4.05794ZM14.4013 4.05794C14.6454 3.92889 14.9479 4.02218 15.077 4.26632C15.6665 5.38144 16 6.6525 16 7.99998C16 9.34747 15.6665 10.6185 15.077 11.7337C14.9479 11.9778 14.6454 12.0711 14.4013 11.942C14.1572 11.813 14.0639 11.5105 14.1929 11.2663C14.7081 10.2917 15 9.18068 15 7.99998C15 6.81928 14.7081 5.70824 14.1929 4.73364C14.0639 4.48951 14.1572 4.18699 14.4013 4.05794ZM3.05683 5.53424C3.31405 5.63469 3.44114 5.92464 3.34068 6.18187C3.12088 6.7447 3 7.35763 3 7.99998C3 8.64233 3.12088 9.25526 3.34068 9.81809C3.44114 10.0753 3.31405 10.3653 3.05683 10.4657C2.7996 10.5662 2.50965 10.4391 2.4092 10.1819C2.14485 9.50497 2 8.76879 2 7.99998C2 7.23117 2.14485 6.49499 2.4092 5.81809C2.50965 5.56087 2.7996 5.43378 3.05683 5.53424ZM12.9432 5.53424C13.2004 5.43378 13.4903 5.56087 13.5908 5.81809C13.8552 6.49499 14 7.23117 14 7.99998C14 8.76879 13.8552 9.50497 13.5908 10.1819C13.4903 10.4391 13.2004 10.5662 12.9432 10.4657C12.6859 10.3653 12.5589 10.0753 12.6593 9.81809C12.8791 9.25526 13 8.64233 13 7.99998C13 7.35763 12.8791 6.7447 12.6593 6.18187C12.5589 5.92464 12.6859 5.63469 12.9432 5.53424Z" fill="currentColor"/>
</svg>
