<svg width="16" height="16" viewBox="0 0 16 16" fill="none" xmlns="http://www.w3.org/2000/svg">
<path d="M9.82841 0.721802C9.96102 0.721802 10.0882 0.77448 10.182 0.868249L15.1317 5.818C15.327 6.01326 15.327 6.32984 15.1317 6.52511C14.6513 7.0055 14.0597 7.11349 13.6291 7.11349C13.4517 7.11349 13.2936 7.09548 13.1684 7.07423L10.0348 10.2078C10.0417 10.2357 10.0488 10.2652 10.056 10.2963C10.1099 10.5298 10.1704 10.8555 10.1947 11.2206C10.2416 11.9232 10.163 12.908 9.47486 13.5962C9.2796 13.7915 8.96302 13.7915 8.76775 13.5962L5.93933 10.7678L2.75735 13.9497C2.56209 14.145 1.5384 14.8521 1.34313 14.6569C1.14787 14.4616 1.85498 13.4379 2.05024 13.2426L5.23222 10.0607L2.40379 7.23221C2.20853 7.03695 2.20853 6.72037 2.40379 6.52511C3.09196 5.83694 4.07682 5.75841 4.77934 5.80524C5.14453 5.82959 5.47021 5.89011 5.70373 5.944C5.73478 5.95116 5.76431 5.95824 5.7922 5.96513L8.92574 2.83159C8.90449 2.70635 8.88647 2.54824 8.88647 2.37085C8.88647 1.94023 8.99447 1.34864 9.47486 0.868249C9.56863 0.77448 9.69581 0.721802 9.82841 0.721802ZM9.94932 2.83182L9.95009 2.83414C10.0086 3.01308 9.96166 3.20988 9.82841 3.34313L6.29288 6.87866C6.15908 7.01246 5.96123 7.05925 5.78169 6.99961L5.77967 6.99895L5.76655 6.9948C5.75408 6.99092 5.73431 6.9849 5.70801 6.97735C5.65536 6.96222 5.57696 6.94102 5.47887 6.91839C5.2815 6.87284 5.01055 6.82288 4.71282 6.80303C4.29105 6.77491 3.87714 6.8108 3.53816 6.95237L9.0476 12.4618C9.18916 12.1228 9.22506 11.7089 9.19694 11.2872C9.17709 10.9894 9.12713 10.7185 9.08158 10.5211C9.05894 10.423 9.03775 10.3446 9.02262 10.292C9.01506 10.2657 9.00905 10.2459 9.00516 10.2334L9.00101 10.2203L9.00052 10.2188C8.94076 10.0392 8.98745 9.84094 9.12131 9.70709L12.6568 6.17155C12.7906 6.03781 12.9883 5.99099 13.1678 6.05053C13.1713 6.05161 13.1787 6.05374 13.1889 6.05653C13.2095 6.06215 13.2425 6.07046 13.2852 6.07901C13.3718 6.09632 13.4928 6.11349 13.6291 6.11349C13.7426 6.11349 13.8588 6.1019 13.972 6.07254L9.92743 2.02793C9.89807 2.14115 9.88647 2.25733 9.88647 2.37085C9.88647 2.50718 9.90365 2.62821 9.92096 2.71474C9.92951 2.75751 9.93782 2.79048 9.94343 2.81106C9.94623 2.82131 9.94825 2.82828 9.94932 2.83182Z" fill="currentColor"/>
</svg>
