<svg width="16" height="16" viewBox="0 0 16 16" fill="none" xmlns="http://www.w3.org/2000/svg">
<path d="M14 2C15.1046 2 16 2.89543 16 4V12C16 13.1046 15.1046 14 14 14H2C0.895431 14 2.41596e-08 13.1046 0 12V4C0 2.89543 0.895431 2 2 2H14ZM2 3C1.44772 3 1 3.44772 1 4V12C1 12.5523 1.44772 13 2 13H14C14.5523 13 15 12.5523 15 12V4C15 3.44772 14.5523 3 14 3H2ZM8 4C8.27614 4 8.5 4.22386 8.5 4.5V11.5C8.5 11.7761 8.27614 12 8 12C7.72386 12 7.5 11.7761 7.5 11.5V4.5C7.5 4.22386 7.72386 4 8 4ZM6 9C6.27614 9 6.5 9.22386 6.5 9.5C6.5 9.77614 6.27614 10 6 10H2.5C2.22386 10 2 9.77614 2 9.5C2 9.22386 2.22386 9 2.5 9H6ZM13.5 5C13.7761 5 14 5.22386 14 5.5V8.5C14 8.77614 13.7761 9 13.5 9H10.5C10.2239 9 10 8.77614 10 8.5V5.5C10 5.22386 10.2239 5 10.5 5H13.5ZM6 7C6.27614 7 6.5 7.22386 6.5 7.5C6.5 7.77614 6.27614 8 6 8H2.5C2.22386 8 2 7.77614 2 7.5C2 7.22386 2.22386 7 2.5 7H6ZM11 8H13V6H11V8ZM6 5C6.27614 5 6.5 5.22386 6.5 5.5C6.5 5.77614 6.27614 6 6 6H2.5C2.22386 6 2 5.77614 2 5.5C2 5.22386 2.22386 5 2.5 5H6Z" fill="currentColor"/>
</svg>
