<svg width="16" height="16" viewBox="0 0 16 16" fill="none" xmlns="http://www.w3.org/2000/svg">
<path fill-rule="evenodd" clip-rule="evenodd" d="M8 1H9V2H11V6H10V3H9V4H3V3H2V15H11V16H1V2H3V1H4V0H8V1ZM5 2H4V3H8V2H7V1H5V2Z" fill="currentColor"/>
<path d="M13.1416 5.48526C13.4257 5.01177 14.0401 4.85854 14.5137 5.14248C14.9872 5.42663 15.1406 6.04097 14.8564 6.51455L11.2861 12.4648C11.2635 12.5078 11.2363 12.5487 11.207 12.5888C11.2027 12.5948 11.1979 12.6005 11.1934 12.6064C11.178 12.6265 11.1616 12.6458 11.1445 12.665C11.139 12.6712 11.1336 12.6775 11.1279 12.6835C11.1208 12.6911 11.1148 12.6996 11.1074 12.707C11.0977 12.7167 11.0862 12.725 11.0762 12.7343C11.0697 12.7403 11.0632 12.7461 11.0566 12.7519C11.0373 12.7688 11.0183 12.7855 10.998 12.8007C10.9933 12.8042 10.9882 12.807 10.9834 12.8105C10.9619 12.826 10.9403 12.8408 10.918 12.8544C10.9102 12.8591 10.9024 12.8636 10.8945 12.8681C10.8766 12.8783 10.8582 12.8874 10.8398 12.8964C10.8279 12.9023 10.8158 12.9077 10.8037 12.913C10.7837 12.9218 10.7636 12.93 10.7432 12.9374C10.7363 12.9399 10.7296 12.9429 10.7227 12.9452C10.6978 12.9537 10.6728 12.9613 10.6475 12.9677C10.6419 12.9691 10.6364 12.9703 10.6309 12.9716C10.6098 12.9766 10.5887 12.9807 10.5674 12.9843C10.5537 12.9866 10.5401 12.9894 10.5264 12.9911C10.5078 12.9935 10.4893 12.9957 10.4707 12.997C10.4551 12.9981 10.4395 12.9986 10.4238 12.9989C10.4082 12.9993 10.3926 12.9993 10.377 12.9989C10.3639 12.9987 10.3509 12.9978 10.3379 12.997C10.3176 12.9957 10.2975 12.9936 10.2773 12.9911C10.2614 12.9892 10.2454 12.987 10.2295 12.9843C10.2161 12.982 10.2028 12.9794 10.1895 12.9765C10.1734 12.973 10.1575 12.969 10.1416 12.9648C10.1229 12.9598 10.1044 12.9543 10.0859 12.9482C10.0738 12.9442 10.0618 12.94 10.0498 12.9355C10.0316 12.9287 10.0139 12.9209 9.9961 12.913C9.98374 12.9075 9.97122 12.9024 9.95899 12.8964C9.94192 12.888 9.92489 12.8795 9.90821 12.87C9.90054 12.8657 9.89238 12.8619 9.88478 12.8573C9.87834 12.8535 9.87254 12.8486 9.86622 12.8447C9.85435 12.8371 9.84268 12.8293 9.83106 12.8212C9.81271 12.8085 9.79461 12.7958 9.77735 12.7822C9.77049 12.7767 9.76359 12.7712 9.75685 12.7655C9.7453 12.7559 9.73369 12.7464 9.72267 12.7363L7.29298 10.3066C6.90265 9.916 6.90252 9.28294 7.29298 8.89248C7.68346 8.50229 8.31659 8.50224 8.70704 8.89248L10.2002 10.3857L13.1416 5.48526Z" fill="currentColor"/>
</svg>
