<svg width="16" height="16" viewBox="0 0 16 16" fill="none" xmlns="http://www.w3.org/2000/svg">
<path d="M2.06054 4.06055C1.88076 7.59468 3.05286 10.2284 4.42577 12.0244C5.19231 13.0272 6.02143 13.7692 6.71288 14.2568C7.05878 14.5008 7.36512 14.6769 7.60546 14.79C7.72581 14.8467 7.82465 14.885 7.8994 14.9082C7.96077 14.9272 7.99239 14.9315 7.99999 14.9326C8.00762 14.9315 8.03925 14.9272 8.10058 14.9082C8.17533 14.885 8.27417 14.8467 8.39452 14.79C8.63486 14.6769 8.94121 14.5008 9.2871 14.2568C9.76885 13.9171 10.3155 13.452 10.8633 12.8633L11.6084 13.6084C11.0117 14.2484 10.4127 14.758 9.87694 15.1357C9.49088 15.408 9.13296 15.6167 8.82909 15.7598C8.54828 15.892 8.24769 16 7.99999 16C7.75229 16 7.45171 15.892 7.17089 15.7598C6.86702 15.6167 6.50911 15.408 6.12304 15.1357C5.35018 14.5907 4.44226 13.7751 3.60644 12.6816C1.97881 10.5524 0.626823 7.36733 1.09179 3.0918L2.06054 4.06055ZM7.99999 0C8.68948 2.29021e-06 9.84298 0.265262 10.9287 0.55957C12.0386 0.860448 13.1566 1.21503 13.8145 1.42969C14.3635 1.60884 14.7787 2.09388 14.8584 2.69238C15.3415 6.31817 14.5264 9.1832 13.3076 11.3076L12.5352 10.5352C13.5761 8.62005 14.2579 6.06825 13.8272 2.83594C13.8034 2.65895 13.6779 2.50373 13.499 2.44531C12.8481 2.23291 11.7481 1.8852 10.6621 1.59082C9.55174 1.28983 8.53084 1.06641 7.99999 1.06641C7.46914 1.06641 6.44824 1.28983 5.33788 1.59082C4.87631 1.71594 4.41247 1.85148 3.98144 1.98145L3.12987 1.12988C3.70839 0.949909 4.39113 0.743944 5.07128 0.55957C6.15701 0.265261 7.3105 0 7.99999 0Z" fill="currentColor"/>
<path fill-rule="evenodd" clip-rule="evenodd" d="M13.6465 14.3535L0.646484 1.35353L1.35359 0.646423L14.3536 13.6464L13.6465 14.3535Z" fill="currentColor"/>
</svg>
