<svg width="16" height="16" viewBox="0 0 16 16" fill="none" xmlns="http://www.w3.org/2000/svg">
<path d="M3.58411 6V4.00049H4.27405C4.87024 4.00049 5.16028 4.35498 5.16028 4.99805C5.16028 5.64111 4.86732 6 4.27405 6H3.58411ZM4.23743 4.28027H3.91663V5.72021H4.23743C4.63294 5.72021 4.81898 5.48145 4.81898 5.00244C4.81898 4.52051 4.63148 4.28027 4.23743 4.28027Z" fill="currentColor"/>
<path d="M6.96588 4.86475V5.13721C6.96588 5.70264 6.64801 6.03955 6.13531 6.03955C5.62262 6.03955 5.30328 5.70264 5.30328 5.13721V4.86475C5.30328 4.29639 5.62262 3.96094 6.13531 3.96094C6.64801 3.96094 6.96588 4.29785 6.96588 4.86475ZM6.62896 5.13867V4.86182C6.62896 4.44873 6.41803 4.24512 6.13531 4.24512C5.84967 4.24512 5.6402 4.44873 5.6402 4.86182V5.13867C5.6402 5.55322 5.84967 5.75684 6.13531 5.75684C6.41803 5.75684 6.62896 5.55322 6.62896 5.13867Z" fill="currentColor"/>
<path d="M7.98731 4.56006V6H7.66797V4.00049H7.96094L8.89404 5.43604H8.90869V4.00049H9.22803V6H8.93652L8.00049 4.56006H7.98731Z" fill="currentColor"/>
<path d="M11.1288 4.86475V5.13721C11.1288 5.70264 10.811 6.03955 10.2983 6.03955C9.78559 6.03955 9.46625 5.70264 9.46625 5.13721V4.86475C9.46625 4.29639 9.78559 3.96094 10.2983 3.96094C10.811 3.96094 11.1288 4.29785 11.1288 4.86475ZM10.7919 5.13867V4.86182C10.7919 4.44873 10.581 4.24512 10.2983 4.24512C10.0126 4.24512 9.80316 4.44873 9.80316 4.86182V5.13867C9.80316 5.55322 10.0126 5.75684 10.2983 5.75684C10.581 5.75684 10.7919 5.55322 10.7919 5.13867Z" fill="currentColor"/>
<path d="M12.0277 4.28467V6H11.6952V4.28467H11.1107V4.00049H12.6137V4.28467H12.0277Z" fill="currentColor"/>
<path d="M4.49566 11.7202H5.41266V12H4.16461V10.0005H5.41266V10.2803H4.49566V10.8501H5.35846V11.1182H4.49566V11.7202Z" fill="currentColor"/>
<path d="M5.98492 10.5601V12H5.66559V10.0005H5.95856L6.89166 11.436H6.90631V10.0005H7.22565V12H6.93414L5.99811 10.5601H5.98492Z" fill="currentColor"/>
<path d="M8.26367 10.2847V12H7.93115V10.2847H7.34668V10.0005H8.84961V10.2847H8.26367Z" fill="currentColor"/>
<path d="M9.30023 11.7202H10.2172V12H8.96918V10.0005H10.2172V10.2803H9.30023V10.8501H10.163V11.1182H9.30023V11.7202Z" fill="currentColor"/>
<path d="M10.4701 10.0005H11.2348C11.6552 10.0005 11.9086 10.2437 11.9086 10.6157C11.9086 10.8999 11.7446 11.1006 11.5409 11.1753L11.9452 12H11.5717L11.2128 11.231H10.7983V12H10.4701V10.0005ZM10.7983 10.2729V10.9673H11.1791C11.4237 10.9673 11.5658 10.8516 11.5658 10.6274C11.5658 10.3989 11.4194 10.2729 11.1879 10.2729H10.7983Z" fill="currentColor"/>
<path d="M3.5 7C3.22386 7 3 7.22386 3 7.5V8.5C3 8.77614 3.22386 9 3.5 9H12.5C12.7761 9 13 8.77614 13 8.5V7.5C13 7.22386 12.7761 7 12.5 7H3.5Z" fill="currentColor"/>
<path d="M8 16C12.4183 16 16 12.4183 16 8C16 3.58172 12.4183 0 8 0C3.58172 0 0 3.58172 0 8C0 12.4183 3.58172 16 8 16ZM8 15C4.13401 15 1 11.866 1 8C1 4.13401 4.13401 1 8 1C11.866 1 15 4.13401 15 8C15 11.866 11.866 15 8 15Z" fill="currentColor"/>
</svg>
