<svg width="16" height="16" viewBox="0 0 16 16" fill="none" xmlns="http://www.w3.org/2000/svg">
<path d="M4.7832 6.00049V8H5.47315C6.06641 8 6.35938 7.64111 6.35938 6.99805C6.35938 6.35498 6.06934 6.00049 5.47315 6.00049H4.7832ZM5.11572 6.28027H5.43652C5.83057 6.28027 6.01807 6.52051 6.01807 7.00244C6.01807 7.48145 5.83203 7.72021 5.43652 7.72021H5.11572V6.28027Z" fill="currentColor"/>
<path d="M7.81934 7.72021H6.90235V7.11816H7.76514V6.8501H6.90235V6.28027H7.81934V6.00049H6.57129V8H7.81934V7.72021Z" fill="currentColor"/>
<path d="M8.39307 7.44629L8.21582 8H7.87598L8.56446 6.00049H8.93506L9.62354 8H9.27198L9.09473 7.44629H8.39307ZM9.02002 7.19141L8.75196 6.34619H8.73731L8.46778 7.19141H9.02002Z" fill="currentColor"/>
<path d="M9.74609 6.00049V8H10.4361C11.0293 8 11.3223 7.64111 11.3223 6.99805C11.3223 6.35498 11.0323 6.00049 10.4361 6.00049H9.74609ZM10.0787 6.28027H10.3995C10.7935 6.28027 10.981 6.52051 10.981 7.00244C10.981 7.48145 10.795 7.72021 10.3995 7.72021H10.0787V6.28027Z" fill="currentColor"/>
<path d="M5.90576 10.7202H6.82276V11H5.57471V9.00049H6.82276V9.28027H5.90576V9.8501H6.76856V10.1182H5.90576V10.7202Z" fill="currentColor"/>
<path d="M7.39501 11V9.56006H7.4082L8.34423 11H8.63573V9.00049H8.3164V10.436H8.30175L7.36864 9.00049H7.07568V11H7.39501Z" fill="currentColor"/>
<path d="M8.95459 11V9.00049H9.64454C10.2407 9.00049 10.5307 9.35498 10.5307 9.99805C10.5307 10.6411 10.2378 11 9.64454 11H8.95459ZM9.60791 9.28027H9.28711V10.7202H9.60791C10.0034 10.7202 10.1894 10.4814 10.1894 10.0024C10.1894 9.52051 10.0019 9.28027 9.60791 9.28027Z" fill="currentColor"/>
<path d="M9.04941 0.434679C8.46984 -0.144892 7.53017 -0.144894 6.95059 0.434678L0.434679 6.95059C-0.144892 7.53016 -0.144894 8.46983 0.434678 9.04941L6.95059 15.5653C7.53016 16.1449 8.46983 16.1449 9.04941 15.5653L15.5653 9.04941C16.1449 8.46984 16.1449 7.53017 15.5653 6.95059L9.04941 0.434679ZM7.6502 1.13428C7.84339 0.941093 8.15661 0.941093 8.3498 1.13428L14.8657 7.6502C15.0589 7.84339 15.0589 8.15661 14.8657 8.3498L8.3498 14.8657C8.15661 15.0589 7.84339 15.0589 7.6502 14.8657L1.13428 8.3498C0.941093 8.15661 0.941093 7.84339 1.13428 7.6502L7.6502 1.13428Z" fill="currentColor"/>
</svg>
