<svg width="16" height="16" viewBox="0 0 16 16" fill="none" xmlns="http://www.w3.org/2000/svg">
<path d="M7.99998 8.5C7.72384 8.5 7.49998 8.27614 7.49998 8C7.49998 7.72386 7.72384 7.5 7.99998 7.5C8.27612 7.5 8.49998 7.72386 8.49998 8C8.49998 8.27614 8.27612 8.5 7.99998 8.5Z" fill="currentColor"/>
<path d="M7.99999 0C7.72385 0 7.49999 0.223858 7.49999 0.5V1.79289L6.85354 1.14645C6.65828 0.951184 6.3417 0.951184 6.14644 1.14645C5.95117 1.34171 5.95117 1.65829 6.14644 1.85355L7.49999 3.20711V4.7169L5.44702 5.94869L4.09924 5.17054L3.6038 3.32156C3.53233 3.05482 3.25816 2.89653 2.99143 2.968C2.72469 3.03947 2.5664 3.31364 2.63787 3.58037L2.87449 4.46344L1.75481 3.81699C1.51567 3.67892 1.20987 3.76086 1.0718 4C0.933727 4.23915 1.01567 4.54495 1.25481 4.68302L2.37449 5.32946L1.49143 5.56608C1.22469 5.63755 1.0664 5.91172 1.13787 6.17845C1.20935 6.44518 1.48351 6.60348 1.75025 6.532L3.59924 6.03657L4.99999 6.8453V9.1547L3.59921 9.96344L1.75022 9.468C1.48349 9.39653 1.20932 9.55482 1.13785 9.82156C1.06638 10.0883 1.22467 10.3625 1.4914 10.4339L2.37446 10.6705L1.25479 11.317C1.01564 11.4551 0.933701 11.7609 1.07177 12C1.20985 12.2392 1.51564 12.3211 1.75479 12.183L2.87446 11.5366L2.63785 12.4196C2.56638 12.6864 2.72467 12.9605 2.9914 13.032C3.25814 13.1035 3.5323 12.9452 3.60378 12.6785L4.09921 10.8295L5.44702 10.0513L7.49999 11.2831V12.7929L6.14644 14.1464C5.95117 14.3417 5.95117 14.6583 6.14644 14.8536C6.3417 15.0488 6.65828 15.0488 6.85354 14.8536L7.49999 14.2071V15.5C7.49999 15.7761 7.72385 16 7.99999 16C8.27613 16 8.49999 15.7761 8.49999 15.5V14.2071L9.14644 14.8536C9.3417 15.0488 9.65828 15.0488 9.85354 14.8536C10.0488 14.6583 10.0488 14.3417 9.85354 14.1464L8.49999 12.7929V11.2831L10.553 10.0513L11.9008 10.8295L12.3962 12.6785C12.4677 12.9452 12.7419 13.1035 13.0086 13.032C13.2753 12.9605 13.4336 12.6864 13.3621 12.4196L13.1255 11.5366L14.2452 12.183C14.4843 12.3211 14.7901 12.2392 14.9282 12C15.0663 11.7609 14.9843 11.4551 14.7452 11.317L13.6255 10.6705L14.5086 10.4339C14.7753 10.3625 14.9336 10.0883 14.8621 9.82156C14.7907 9.55482 14.5165 9.39653 14.2498 9.468L12.4008 9.96344L11 9.1547V6.8453L12.4008 6.03657L14.2497 6.532C14.5165 6.60348 14.7906 6.44518 14.8621 6.17845C14.9336 5.91172 14.7753 5.63755 14.5086 5.56608L13.6255 5.32946L14.7452 4.68302C14.9843 4.54495 15.0663 4.23915 14.9282 4C14.7901 3.76086 14.4843 3.67892 14.2452 3.81699L13.1255 4.46344L13.3621 3.58037C13.4336 3.31364 13.2753 3.03947 13.0086 2.968C12.7418 2.89653 12.4677 3.05482 12.3962 3.32156L11.9008 5.17054L10.553 5.94869L8.49999 4.7169V3.20711L9.85354 1.85355C10.0488 1.65829 10.0488 1.34171 9.85354 1.14645C9.65828 0.951184 9.3417 0.951184 9.14644 1.14645L8.49999 1.79289V0.5C8.49999 0.223858 8.27613 0 7.99999 0ZM9.99999 6.78309V9.2169L7.99999 10.4169L5.99999 9.2169V6.78309L7.99999 5.58309L9.99999 6.78309Z" fill="currentColor"/>
</svg>
