<svg width="16" height="16" viewBox="0 0 16 16" fill="none" xmlns="http://www.w3.org/2000/svg">
<path d="M14.1193 10.1629L15.8348 11.0206C16.0551 11.1308 16.0551 11.4452 15.8348 11.5553L8.26738 15.339C8.09907 15.4231 7.90097 15.4231 7.73267 15.339L0.165294 11.5553C-0.0550163 11.4452 -0.0550167 11.1308 0.165294 11.0206L1.88073 10.1629L7.19797 12.8215C7.70288 13.074 8.29718 13.074 8.80208 12.8215L14.1193 10.1629Z" fill="currentColor"/>
<path d="M7.73261 0.0631133C7.90092 -0.0210377 8.09902 -0.0210378 8.26732 0.0631131L15.8347 3.8468C16.055 3.95696 16.055 4.27135 15.8347 4.38151L8.26732 8.1652C8.09902 8.24935 7.90092 8.24935 7.73261 8.1652L0.165233 4.38151C-0.0550773 4.27135 -0.0550778 3.95696 0.165232 3.8468L7.73261 0.0631133Z" fill="currentColor"/>
<path d="M14.1193 6.57599L15.8348 7.43371C16.0551 7.54387 16.0551 7.85826 15.8348 7.96841L8.26738 11.7521C8.09907 11.8362 7.90097 11.8362 7.73267 11.7521L0.165294 7.96841C-0.0550163 7.85826 -0.0550167 7.54387 0.165294 7.43371L1.88073 6.57599L7.19797 9.23461C7.70288 9.48706 8.29718 9.48706 8.80208 9.23461L14.1193 6.57599Z" fill="currentColor"/>
</svg>
