<svg width="16" height="16" viewBox="0 0 16 16" fill="none" xmlns="http://www.w3.org/2000/svg">
<path d="M8.9516 16L11.7452 12.3522L14.3078 8.95664H15.5351L12.701 12.4698L10.2153 15.9701L8.9516 16ZM3.41856 15.9791C3.12832 16.0106 2.83441 15.9842 2.55537 15.9014C2.27634 15.8186 2.01824 15.6813 1.79738 15.4981C1.57651 15.3149 1.39767 15.0898 1.27214 14.8371C1.14661 14.5843 1.07712 14.3094 1.06806 14.0296C1.07985 13.6316 1.21258 13.2455 1.44997 12.9187C1.68736 12.5919 2.0191 12.3386 2.40452 12.1898C2.49372 12.1389 2.58573 12.0926 2.68013 12.0513C2.19601 11.66 1.88916 11.1041 1.82417 10.5005C1.83156 10.2826 1.88478 10.0685 1.98064 9.87086C2.0765 9.67323 2.21302 9.49618 2.38201 9.35034C2.551 9.2045 2.74899 9.09286 2.9641 9.02213C3.17921 8.95139 3.40702 8.92301 3.63385 8.9387C3.86113 8.92329 4.08931 8.95205 4.3047 9.02326C4.52009 9.09447 4.71825 9.20665 4.88726 9.35307C5.05628 9.49949 5.19268 9.67714 5.28827 9.87533C5.38386 10.0735 5.43667 10.2882 5.44353 10.5064C5.44353 11.3636 4.74254 11.842 3.98747 12.2316L5.47161 13.8771C5.72442 13.3545 5.84248 12.7812 5.81587 12.2057V11.9476H6.72383V12.2356C6.76898 13.0402 6.57226 13.8403 6.157 14.5409L7.5257 15.9292H6.24125L5.54753 15.1857C4.96117 15.6881 4.205 15.9692 3.41856 15.9791ZM3.19911 12.6323C3.12527 12.6652 3.05975 12.6981 2.97966 12.7409C2.33795 13.0768 2.05194 13.4516 2.05194 13.9559C2.05194 14.9416 3.04207 15.0522 3.46744 15.0522H3.55793C4.07653 15.0531 4.57573 14.8633 4.95263 14.522L3.19911 12.6323ZM3.64113 9.66825C3.52104 9.66823 3.40219 9.69163 3.29184 9.73703C3.18148 9.78243 3.08192 9.84888 2.99922 9.93233C2.91651 10.0158 2.8524 10.1145 2.81077 10.2224C2.76915 10.3304 2.75088 10.4453 2.75709 10.5603C2.75709 10.9081 2.93598 11.1951 3.46536 11.7004C4.13619 11.3705 4.52517 11.0765 4.52517 10.5553C4.53065 10.4407 4.51185 10.3263 4.4699 10.219C4.42794 10.1116 4.36371 10.0135 4.28108 9.93061C4.19846 9.8477 4.09914 9.78171 3.98915 9.73661C3.87916 9.69152 3.76077 9.66826 3.64113 9.66825ZM14.2631 15.9472C13.4061 15.9472 12.8299 15.2695 12.8299 14.2618V14.1233C12.8021 13.9218 12.818 13.7171 12.8768 13.5218C12.9355 13.3265 13.0358 13.145 13.1713 12.9887C13.3068 12.8324 13.4745 12.7046 13.6641 12.6134C13.8536 12.5223 14.0607 12.4696 14.2725 12.4589C15.1357 12.4589 15.7161 13.1296 15.7161 14.1293V14.2678C15.7436 14.4705 15.7271 14.6765 15.6677 14.8728C15.6083 15.0692 15.5073 15.2517 15.3709 15.4088C15.2345 15.566 15.0657 15.6945 14.8751 15.7863C14.6845 15.8781 14.4761 15.9311 14.2631 15.9422V15.9472ZM14.2777 13.2323C13.8731 13.2323 13.6318 13.5831 13.6318 14.1711V14.211C13.6318 14.809 13.8773 15.1728 14.2725 15.1728C14.6677 15.1728 14.9131 14.808 14.9131 14.22V14.1801C14.9142 13.5811 14.6771 13.2273 14.2787 13.2273L14.2777 13.2323ZM10.1019 12.4499C9.2449 12.4499 8.66871 11.7722 8.66871 10.7646V10.627C8.64071 10.4253 8.6566 10.2202 8.71539 10.0246C8.77418 9.82906 8.87459 9.64729 9.0103 9.49074C9.14601 9.3342 9.31408 9.20628 9.50391 9.11504C9.69375 9.02381 9.90125 8.97123 10.1133 8.96062C10.9766 8.96062 11.5569 9.63137 11.5569 10.631V10.7646C11.5852 10.9678 11.5693 11.1744 11.5102 11.3715C11.4511 11.5685 11.3501 11.7517 11.2135 11.9096C11.077 12.0674 10.9078 12.1964 10.7167 12.2886C10.5255 12.3807 10.3166 12.4339 10.1029 12.4449L10.1019 12.4499ZM10.1175 9.73901C9.715 9.73901 9.47475 10.0888 9.47475 10.6759V10.7137C9.47475 11.3038 9.71916 11.6705 10.1133 11.6705C10.5075 11.6705 10.7519 11.3068 10.7519 10.7227V10.6828C10.7519 10.0868 10.5148 9.73403 10.1185 9.73403L10.1175 9.73901ZM10.4586 7.75567C10.2318 7.78529 10.0009 7.74686 9.7977 7.64568C9.59452 7.54449 9.42903 7.38551 9.32394 7.19056C9.23865 7.00486 9.19252 6.80484 9.18821 6.60199C9.1839 6.39915 9.22149 6.19749 9.29882 6.00861C9.37615 5.81974 9.4917 5.64739 9.6388 5.50147C9.7859 5.35556 9.96167 5.23896 10.156 5.15838C10.4542 5.01445 10.7853 4.94422 11.1191 4.95407C11.352 4.95414 11.5842 4.9782 11.8117 5.02583L11.8419 0.000688954C12.3019 -0.0082568 12.7592 0.0699918 13.1876 0.230939C13.616 0.391886 14.0069 0.632359 14.338 0.938542C14.6544 1.26519 14.8975 1.65066 15.0521 2.07104C15.2066 2.49142 15.2695 2.93774 15.2366 3.38234C15.0695 4.22972 14.615 5.0005 13.9438 5.57498C13.7213 5.37067 13.8793 5.09858 14.079 4.75474C14.352 4.36338 14.4968 3.90288 14.495 3.43217C14.4115 2.98626 14.2228 2.56454 13.9432 2.19921C13.6636 1.83388 13.3006 1.5346 12.8819 1.32425V5.61585C12.8849 5.92443 12.8124 6.22939 12.6703 6.5063C12.5281 6.78322 12.3203 7.02439 12.0634 7.2105C11.6035 7.55146 11.041 7.74094 10.4597 7.75068L10.4586 7.75567ZM8.00932 1.65414H0.729004V0.657485H8.00932V1.65414Z" fill="currentColor"/>
<path d="M4.88919 7.63403H3.84914V3.64741H0.729004V2.65076H8.00932V3.64741H4.88919V7.63403Z" fill="currentColor"/>
</svg>
