<svg width="16" height="16" viewBox="0 0 16 16" fill="none" xmlns="http://www.w3.org/2000/svg">
<path d="M10.1333 8.99604C10.1333 8.99604 7.73335 11.596 7.73335 13.196C7.72898 13.5156 7.78758 13.8328 7.90582 14.1297C8.02407 14.4266 8.19963 14.6973 8.42249 14.9264C8.87258 15.389 9.48799 15.6538 10.1333 15.6627C10.7787 15.6715 11.4011 15.4236 11.8637 14.9735C12.0928 14.7507 12.2757 14.4849 12.402 14.1913C12.5283 13.8978 12.5956 13.5822 12.6 13.2627V13.196C12.6 11.596 10.1333 8.99604 10.1333 8.99604ZM9.15335 8.09137L9.59935 7.60871L8.06669 3.33337H6.73335L3.40002 12.6667H4.73335L5.68669 10H7.64869C8.10114 9.32732 8.6032 8.68932 9.15069 8.09137H9.15335ZM7.40002 5.20004L8.64002 8.66671H6.16269L7.40002 5.20004Z" fill="currentColor"/>
</svg>
