<svg width="16" height="16" viewBox="0 0 16 16" fill="none" xmlns="http://www.w3.org/2000/svg">
<path d="M9.03336 12.6667H10.3667L7.03336 3.33337H5.70003L2.3667 12.6667H3.70003L4.63336 10H8.03336L9.03336 12.6667ZM5.10003 8.66671L6.3667 5.20004L7.63336 8.66671H5.10003ZM13.6333 11.6667C13.6333 11.8644 13.5747 12.0578 13.4648 12.2222C13.3549 12.3867 13.1987 12.5149 13.016 12.5905C12.8333 12.6662 12.6322 12.686 12.4382 12.6475C12.2443 12.6089 12.0661 12.5136 11.9262 12.3738C11.7864 12.2339 11.6911 12.0557 11.6525 11.8618C11.614 11.6678 11.6338 11.4667 11.7095 11.284C11.7851 11.1013 11.9133 10.9451 12.0778 10.8352C12.2422 10.7253 12.4356 10.6667 12.6333 10.6667C12.8985 10.6667 13.1529 10.772 13.3404 10.9596C13.528 11.1471 13.6333 11.4015 13.6333 11.6667ZM13.6333 9.00004C13.6333 9.19782 13.5747 9.39116 13.4648 9.55561C13.3549 9.72006 13.1987 9.84823 13.016 9.92392C12.8333 9.99961 12.6322 10.0194 12.4382 9.98083C12.2443 9.94224 12.0661 9.847 11.9262 9.70715C11.7864 9.56729 11.6911 9.38911 11.6525 9.19513C11.614 9.00115 11.6338 8.80008 11.7095 8.61736C11.7851 8.43463 11.9133 8.27845 12.0778 8.16857C12.2422 8.05869 12.4356 8.00004 12.6333 8.00004C12.8985 8.00004 13.1529 8.1054 13.3404 8.29293C13.528 8.48047 13.6333 8.73482 13.6333 9.00004ZM13.6333 6.33337C13.6333 6.53115 13.5747 6.72449 13.4648 6.88894C13.3549 7.05339 13.1987 7.18157 13.016 7.25725C12.8333 7.33294 12.6322 7.35274 12.4382 7.31416C12.2443 7.27557 12.0661 7.18033 11.9262 7.04048C11.7864 6.90063 11.6911 6.72244 11.6525 6.52846C11.614 6.33448 11.6338 6.13342 11.7095 5.95069C11.7851 5.76796 11.9133 5.61178 12.0778 5.5019C12.2422 5.39202 12.4356 5.33337 12.6333 5.33337C12.8985 5.33337 13.1529 5.43873 13.3404 5.62627C13.528 5.8138 13.6333 6.06816 13.6333 6.33337Z" fill="currentColor"/>
</svg>
