<svg width="17" height="16" viewBox="0 0 17 16" fill="none" xmlns="http://www.w3.org/2000/svg">
<path d="M8.06467 2.0157C8.04731 2.00605 8.02561 2 8.00154 2V13.9833L14.8585 14C14.8901 14 14.909 13.9925 14.9238 13.9833C14.9415 13.9724 14.962 13.9528 14.9785 13.9231C15.0113 13.864 15.012 13.8005 14.9763 13.7398L8.11939 2.07312C8.09948 2.03926 8.07966 2.02403 8.06467 2.0157ZM7.02158 1.56642C7.46546 0.811193 8.53763 0.811193 8.98151 1.56642L15.8385 13.2331C16.2955 14.0107 15.7468 15 14.8585 15H1.14459C0.256278 15 -0.292407 14.0107 0.164626 13.2331L7.02158 1.56642Z" fill="currentColor"/>
</svg>
