<svg width="16" height="16" viewBox="0 0 16 16" fill="none" xmlns="http://www.w3.org/2000/svg">
<path d="M0.0358942 12.3141C0.138449 12.0577 0.42943 11.933 0.685818 12.0356L2.44301 12.7384C2.80062 12.8815 3.19955 12.8815 3.55717 12.7384L4.57159 12.3327C5.1676 12.0943 5.83249 12.0943 6.42851 12.3327L7.44294 12.7384C7.80054 12.8815 8.19948 12.8815 8.55709 12.7384L9.57151 12.3327C10.1675 12.0943 10.8324 12.0943 11.4284 12.3327L12.4428 12.7384C12.8005 12.8815 13.1994 12.8815 13.557 12.7384L15.3142 12.0356C15.5706 11.933 15.8616 12.0577 15.9642 12.3141C16.0667 12.5705 15.942 12.8615 15.6856 12.964L13.9284 13.6669C13.3324 13.9053 12.6675 13.9053 12.0715 13.6669L11.057 13.2611C10.6994 13.1181 10.3005 13.1181 9.9429 13.2611L8.92847 13.6669C8.33245 13.9053 7.66756 13.9053 7.07155 13.6669L6.05713 13.2611C5.69951 13.1181 5.30058 13.1181 4.94297 13.2611L3.92855 13.6669C3.33253 13.9053 2.66764 13.9053 2.07163 13.6669L0.314433 12.964C0.058045 12.8615 -0.0666611 12.5705 0.0358942 12.3141ZM0.0358942 14.3141C0.138449 14.0577 0.42943 13.933 0.685818 14.0356L2.44301 14.7384C2.80062 14.8815 3.19955 14.8815 3.55717 14.7384L4.57159 14.3327C5.1676 14.0943 5.83249 14.0943 6.42851 14.3327L7.44294 14.7384C7.80054 14.8815 8.19948 14.8815 8.55709 14.7384L9.57151 14.3327C10.1675 14.0943 10.8324 14.0943 11.4284 14.3327L12.4428 14.7384C12.8005 14.8815 13.1994 14.8815 13.557 14.7384L15.3142 14.0356C15.5706 13.933 15.8616 14.0577 15.9642 14.3141C16.0667 14.5705 15.942 14.8615 15.6856 14.964L13.9284 15.6669C13.3324 15.9053 12.6675 15.9053 12.0715 15.6669L11.057 15.2611C10.6994 15.1181 10.3005 15.1181 9.9429 15.2611L8.92847 15.6669C8.33245 15.9053 7.66756 15.9053 7.07155 15.6669L6.05713 15.2611C5.69951 15.1181 5.30058 15.1181 4.94297 15.2611L3.92855 15.6669C3.33253 15.9053 2.66764 15.9053 2.07163 15.6669L0.314433 14.964C0.058045 14.8615 -0.0666611 14.5705 0.0358942 14.3141Z" fill="currentColor"/>
<path d="M2.66249 8.08005C2.20575 9.14318 1.66771 10.1775 0.82009 10.8839C0.607954 11.0607 0.292677 11.032 0.115899 10.8199C-0.0608797 10.6077 -0.0322167 10.2924 0.179919 10.1157C0.832278 9.57208 1.29423 8.73153 1.74371 7.68531C1.88454 7.35753 2.0254 7.00563 2.17108 6.64171C2.47272 5.88812 2.795 5.083 3.18032 4.33375C3.7636 3.19959 4.52955 2.10535 5.70078 1.29907C6.87685 0.48946 8.41788 0 10.4998 0C11.9625 0 13.0115 0.399999 13.679 1.05796C14.3481 1.71753 14.5722 2.57645 14.4976 3.35986C14.4241 4.13132 14.0567 4.87586 13.4782 5.32465C12.9532 5.73199 12.2722 5.87602 11.5743 5.59462C10.9245 6.23683 10.6671 7.27342 10.8641 8.20936C11.0758 9.21505 11.7835 9.99983 12.9998 9.99983H15.4997C15.7759 9.99983 15.9997 10.2236 15.9997 10.4998C15.9997 10.7759 15.7759 10.9998 15.4997 10.9998H12.9998C11.2162 10.9998 10.1738 9.78462 9.88559 8.41537C9.65373 7.31406 9.89075 6.04234 10.6439 5.131L10.4998 5.05895L9.72346 5.44713C9.5827 5.51751 9.41703 5.51751 9.27627 5.44713L8.27628 4.94715C8.0293 4.82366 7.92918 4.52333 8.05268 4.27634C8.17617 4.02936 8.47649 3.92924 8.72348 4.05273L9.49986 4.44091L10.2762 4.05273C10.417 3.98235 10.5827 3.98236 10.7234 4.05274L11.7234 4.55273C11.7349 4.55845 11.7461 4.56461 11.7571 4.57119C12.1966 4.83489 12.567 4.76598 12.8652 4.53458C13.193 4.28025 13.4506 3.80606 13.5021 3.26505C13.5525 2.73597 13.4016 2.18866 12.977 1.77012C12.5507 1.34997 11.7871 0.999985 10.4998 0.999985C8.58189 0.999985 7.24796 1.44801 6.2678 2.12275C5.28282 2.80082 4.61129 3.7378 4.0696 4.7911C3.70478 5.50047 3.41547 6.22432 3.12497 6.95111C2.97467 7.32717 2.82405 7.70401 2.66249 8.08005Z" fill="currentColor"/>
</svg>
