<svg width="16" height="16" viewBox="0 0 16 16" fill="none" xmlns="http://www.w3.org/2000/svg">
<path d="M0.0358941 3.31426C0.138449 3.05788 0.42943 2.93317 0.685817 3.03573L2.44301 3.73861C2.80062 3.88166 3.19955 3.88166 3.55717 3.73861L4.57159 3.33283C5.1676 3.09443 5.83249 3.09443 6.42851 3.33283L7.44294 3.73861C7.80054 3.88166 8.19948 3.88166 8.55709 3.73861L9.57151 3.33283C10.1675 3.09443 10.8324 3.09443 11.4284 3.33283L12.4428 3.73861C12.8005 3.88166 13.1994 3.88166 13.557 3.73861L15.3142 3.03573C15.5706 2.93317 15.8616 3.05788 15.9642 3.31426C16.0667 3.57066 15.942 3.86164 15.6856 3.96419L13.9284 4.66707C13.3324 4.90548 12.6675 4.90548 12.0715 4.66707L11.057 4.2613C10.6994 4.11825 10.3005 4.11825 9.9429 4.2613L8.92847 4.66707C8.33245 4.90548 7.66756 4.90548 7.07155 4.66707L6.05713 4.2613C5.69951 4.11825 5.30058 4.11825 4.94297 4.2613L3.92855 4.66707C3.33253 4.90548 2.66764 4.90548 2.07163 4.66707L0.314433 3.96419C0.058045 3.86164 -0.066661 3.57066 0.0358941 3.31426ZM0.0358941 6.31422C0.138449 6.05783 0.42943 5.93312 0.685817 6.03568L2.44301 6.73856C2.80062 6.88161 3.19955 6.88161 3.55717 6.73856L4.57159 6.33279C5.1676 6.09438 5.83249 6.09438 6.42851 6.33279L7.44294 6.73856C7.80054 6.88161 8.19948 6.88161 8.55709 6.73856L9.57151 6.33279C10.1675 6.09438 10.8324 6.09438 11.4284 6.33279L12.4428 6.73856C12.8005 6.88161 13.1994 6.88161 13.557 6.73856L15.3142 6.03568C15.5706 5.93312 15.8616 6.05783 15.9642 6.31422C16.0667 6.57061 15.942 6.86159 15.6856 6.96415L13.9284 7.66703C13.3324 7.90543 12.6675 7.90543 12.0715 7.66703L11.057 7.26125C10.6994 7.11821 10.3005 7.11821 9.9429 7.26125L8.92847 7.66703C8.33245 7.90543 7.66756 7.90543 7.07155 7.66703L6.05713 7.26125C5.69951 7.11821 5.30058 7.11821 4.94297 7.26125L3.92855 7.66703C3.33253 7.90543 2.66764 7.90543 2.07163 7.66703L0.314433 6.96415C0.058045 6.86159 -0.066661 6.57061 0.0358941 6.31422ZM0.0358941 9.31417C0.138449 9.05779 0.42943 8.93309 0.685817 9.03564L2.44301 9.73852C2.80062 9.88156 3.19955 9.88156 3.55717 9.73852L4.57159 9.33274C5.1676 9.09434 5.83249 9.09434 6.42851 9.33274L7.44294 9.73852C7.80054 9.88156 8.19948 9.88156 8.55709 9.73852L9.57151 9.33274C10.1675 9.09434 10.8324 9.09434 11.4284 9.33274L12.4428 9.73852C12.8005 9.88156 13.1994 9.88156 13.557 9.73852L15.3142 9.03564C15.5706 8.93309 15.8616 9.05779 15.9642 9.31417C16.0667 9.57057 15.942 9.86154 15.6856 9.9641L13.9284 10.667C13.3324 10.9053 12.6675 10.9053 12.0715 10.667L11.057 10.2613C10.6994 10.1182 10.3005 10.1182 9.9429 10.2613L8.92847 10.667C8.33245 10.9053 7.66756 10.9053 7.07155 10.667L6.05713 10.2613C5.69951 10.1182 5.30058 10.1182 4.94297 10.2613L3.92855 10.667C3.33253 10.9053 2.66764 10.9053 2.07163 10.667L0.314433 9.9641C0.058045 9.86154 -0.066661 9.57057 0.0358941 9.31417ZM0.0358941 12.3141C0.138449 12.0577 0.42943 11.933 0.685817 12.0356L2.44301 12.7384C2.80062 12.8815 3.19955 12.8815 3.55717 12.7384L4.57159 12.3327C5.1676 12.0943 5.83249 12.0943 6.42851 12.3327L7.44294 12.7384C7.80054 12.8815 8.19948 12.8815 8.55709 12.7384L9.57151 12.3327C10.1675 12.0943 10.8324 12.0943 11.4284 12.3327L12.4428 12.7384C12.8005 12.8815 13.1994 12.8815 13.557 12.7384L15.3142 12.0356C15.5706 11.933 15.8616 12.0577 15.9642 12.3141C16.0667 12.5705 15.942 12.8615 15.6856 12.964L13.9284 13.6669C13.3324 13.9053 12.6675 13.9053 12.0715 13.6669L11.057 13.2612C10.6994 13.1181 10.3005 13.1181 9.9429 13.2612L8.92847 13.6669C8.33245 13.9053 7.66756 13.9053 7.07155 13.6669L6.05713 13.2612C5.69951 13.1181 5.30058 13.1181 4.94297 13.2612L3.92855 13.6669C3.33253 13.9053 2.66764 13.9053 2.07163 13.6669L0.314433 12.964C0.058045 12.8615 -0.066661 12.5705 0.0358941 12.3141Z" fill="currentColor"/>
</svg>
