<svg width="16" height="16" viewBox="0 0 16 16" fill="none" xmlns="http://www.w3.org/2000/svg">
<path d="M15.3846 6.11539C15.5956 5.90438 15.5784 5.554 15.3369 5.37866C13.2764 3.8824 10.7412 3 7.99995 3C5.2587 3 2.72353 3.8824 0.663013 5.37866C0.421541 5.554 0.404336 5.90438 0.61535 6.11539C0.793893 6.29394 1.07842 6.31191 1.28326 6.16428C3.17292 4.80234 5.49274 4 7.99995 4C10.5072 4 12.827 4.80234 14.7167 6.16428C14.9215 6.31191 15.206 6.29394 15.3846 6.11539Z" fill="currentColor"/>
<path d="M13.2289 8.27103C13.445 8.05492 13.4225 7.69262 13.1662 7.52619C11.6791 6.56075 9.90504 6 7.99998 6C6.09493 6 4.32084 6.56075 2.83378 7.52619C2.57744 7.69262 2.5549 8.05492 2.77101 8.27103C2.94369 8.44371 3.21769 8.46769 3.42336 8.33603C4.74446 7.49031 6.31496 7 7.99998 7C9.685 7 11.2555 7.49031 12.5766 8.33603C12.7822 8.46769 13.0562 8.44371 13.2289 8.27103Z" fill="currentColor"/>
<path d="M11.046 10.4539C11.2722 10.2278 11.2308 9.84946 10.9458 9.70432C10.0615 9.25394 9.06035 9 7.99991 9C6.93948 9 5.93836 9.25394 5.05404 9.70432C4.76906 9.84946 4.72769 10.2278 4.95383 10.4539L4.96887 10.469C5.12925 10.6293 5.37648 10.6595 5.58009 10.5595C6.31032 10.2012 7.13162 10 7.99991 10C8.86821 10 9.68951 10.2012 10.4198 10.5595C10.6234 10.6595 10.8706 10.6293 11.031 10.469L11.046 10.4539Z" fill="currentColor"/>
<path d="M9.06056 12.4393C9.25583 12.2441 9.25783 11.9207 9.02046 11.7796C8.72169 11.602 8.3727 11.5 7.9999 11.5C7.6271 11.5 7.27813 11.602 6.97936 11.7796C6.74199 11.9207 6.74398 12.2441 6.93924 12.4393L7.64635 13.1464C7.84161 13.3417 8.1582 13.3417 8.35346 13.1464L9.06056 12.4393Z" fill="currentColor"/>
</svg>
