<svg width="16" height="16" viewBox="0 0 16 16" fill="none" xmlns="http://www.w3.org/2000/svg">
<path d="M8.00029 0.985477C11.2815 -2.3863 19.412 3.38131 8.48857 10.9191L8.72393 11.3888C8.78539 11.5122 8.73499 11.6621 8.61162 11.7238C8.48827 11.7854 8.3385 11.7356 8.27666 11.6124L8.26787 11.5958C8.27606 11.705 8.2887 11.798 8.30596 11.8849C8.35983 12.156 8.46656 12.3741 8.72393 12.8888C9.01234 13.4659 8.95944 14.0386 8.8001 14.5167C8.64365 14.9861 8.37794 15.3844 8.21221 15.6329L8.2083 15.6388C8.13174 15.7536 7.97649 15.7846 7.86162 15.7081C7.74674 15.6315 7.7157 15.4763 7.79229 15.3615C7.96019 15.1096 8.19165 14.76 8.32549 14.3585C8.45762 13.962 8.48777 13.5349 8.27666 13.1124C8.27202 13.1031 8.26756 13.0933 8.26299 13.0841C8.02302 12.6043 7.88309 12.3258 7.81475 11.9816C7.78808 11.8471 7.77227 11.7026 7.76299 11.5324L7.72393 11.6124C7.66213 11.7358 7.51143 11.7855 7.38799 11.7238C7.26472 11.662 7.21507 11.5122 7.27666 11.3888L7.51104 10.9191C-3.41216 3.38125 4.71926 -2.38673 8.00029 0.985477ZM6.72686 1.26868C5.5597 0.659537 3.92674 1.12668 3.27275 2.40345C3.03571 2.86638 2.9136 3.48453 3.07158 4.25501C3.12708 4.524 3.53813 4.45079 3.59893 4.18274C3.88372 2.92764 4.77604 1.72169 6.58721 1.6554C6.82112 1.64641 6.93438 1.37717 6.72686 1.26868Z" fill="currentColor"/>
</svg>
