<svg width="16" height="16" viewBox="0 0 16 16" fill="none" xmlns="http://www.w3.org/2000/svg">
<path d="M2.67944 7.67626L9.17123 1.17174C10.7333 -0.390351 13.2663 -0.390698 14.8284 1.1714C16.3895 2.73248 16.3905 5.26285 14.8315 6.82519L13.3536 8.35343L8.34763 13.3593L6.82538 14.8313C5.26304 16.3903 2.73266 16.3893 1.17157 14.8282C-0.390523 13.2661 -0.390523 10.7335 1.17157 9.1714L1.17307 9.16991L2.67759 7.67811L2.67944 7.67626ZM8.38909 4.81785C8.19382 4.62259 7.87724 4.62259 7.68198 4.81785C7.48672 5.01311 7.48672 5.32969 7.68198 5.52496C7.87724 5.72022 8.19382 5.72022 8.38909 5.52496C8.58435 5.32969 8.58435 5.01311 8.38909 4.81785ZM6.97487 6.93917C7.17014 6.74391 7.17014 6.42732 6.97487 6.23206C6.77961 6.0368 6.46303 6.0368 6.26777 6.23206C6.0725 6.42732 6.0725 6.74391 6.26777 6.93917C6.46303 7.13443 6.77961 7.13443 6.97487 6.93917ZM5.56066 8.35338C5.75592 8.15812 5.75592 7.84154 5.56066 7.64628C5.3654 7.45101 5.04882 7.45101 4.85355 7.64628C4.65829 7.84154 4.65829 8.15812 4.85355 8.35338C5.04882 8.54865 5.3654 8.54865 5.56066 8.35338ZM8.38909 11.1818C8.58435 10.9865 8.58435 10.6699 8.38909 10.4747C8.19382 10.2794 7.87724 10.2794 7.68198 10.4747C7.48672 10.6699 7.48672 10.9865 7.68198 11.1818C7.87724 11.377 8.19382 11.377 8.38909 11.1818ZM9.8033 9.06049C9.60804 8.86523 9.29146 8.86523 9.09619 9.06049C8.90093 9.25575 8.90093 9.57233 9.09619 9.7676C9.29146 9.96286 9.60804 9.96286 9.8033 9.7676C9.99856 9.57233 9.99856 9.25575 9.8033 9.06049ZM11.2175 8.35338C11.4128 8.15812 11.4128 7.84154 11.2175 7.64628C11.0223 7.45101 10.7057 7.45101 10.5104 7.64628C10.3151 7.84154 10.3151 8.15812 10.5104 8.35338C10.7057 8.54865 11.0223 8.54865 11.2175 8.35338ZM6.97487 9.06049C6.77961 8.86523 6.46303 8.86523 6.26777 9.06049C6.0725 9.25575 6.0725 9.57233 6.26777 9.7676C6.46303 9.96286 6.77961 9.96286 6.97487 9.7676C7.17014 9.57233 7.17014 9.25575 6.97487 9.06049ZM8.38909 8.35338C8.58435 8.15812 8.58435 7.84154 8.38909 7.64628C8.19382 7.45101 7.87724 7.45101 7.68198 7.64628C7.48672 7.84154 7.48672 8.15812 7.68198 8.35338C7.87724 8.54865 8.19382 8.54865 8.38909 8.35338ZM9.8033 6.23206C9.60804 6.0368 9.29146 6.0368 9.09619 6.23206C8.90093 6.42732 8.90093 6.74391 9.09619 6.93917C9.29146 7.13443 9.60804 7.13443 9.8033 6.93917C9.99856 6.74391 9.99856 6.42732 9.8033 6.23206ZM8.64645 3.35338L12.6464 7.35338L13.3536 6.64628L9.35355 2.64628L8.64645 3.35338ZM7.35355 12.6462L3.35355 8.64628L2.64645 9.35338L6.64645 13.3534L7.35355 12.6462Z" fill="currentColor"/>
</svg>
