<svg width="16" height="16" viewBox="0 0 16 16" fill="none" xmlns="http://www.w3.org/2000/svg">
<path d="M12 0C13.1046 0 14 0.895431 14 2V15.5C14 15.6765 13.9066 15.8396 13.7549 15.9297C13.6032 16.0197 13.4156 16.023 13.2607 15.9385L8 13.0693L2.73926 15.9385C2.58439 16.023 2.39684 16.0197 2.24512 15.9297C2.09337 15.8396 2 15.6765 2 15.5V2C2 0.895431 2.89543 0 4 0H12ZM6 6C5.72386 6 5.5 6.22386 5.5 6.5C5.5 6.77614 5.72386 7 6 7H10C10.2761 7 10.5 6.77614 10.5 6.5C10.5 6.22386 10.2761 6 10 6H6Z" fill="currentColor"/>
</svg>
