<svg width="18" height="16" viewBox="0 0 18 16" fill="none" xmlns="http://www.w3.org/2000/svg">
<path fill-rule="evenodd" clip-rule="evenodd" d="M8.76398 6.50004C9.1618 6.50004 9.54333 6.65808 9.82464 6.93938C10.1059 7.22069 10.264 7.60222 10.264 8.00004C10.264 8.39787 10.1059 8.7794 9.82464 9.0607C9.54333 9.34201 9.1618 9.50004 8.76398 9.50004C8.36615 9.50004 7.98462 9.34201 7.70332 9.0607C7.42201 8.7794 7.26398 8.39787 7.26398 8.00004C7.26398 7.60222 7.42201 7.22069 7.70332 6.93938C7.98462 6.65808 8.36615 6.50004 8.76398 6.50004ZM4.96398 3.80004C5.0305 3.86522 5.08334 3.94301 5.11942 4.02887C5.1555 4.11472 5.17408 4.20692 5.17408 4.30004C5.17408 4.39317 5.1555 4.48536 5.11942 4.57122C5.08334 4.65707 5.0305 4.73487 4.96398 4.80004C4.21565 5.69848 3.80585 6.83077 3.80585 8.00004C3.80585 9.16931 4.21565 10.3016 4.96398 11.2C5.05601 11.2574 5.13344 11.3354 5.19017 11.4279C5.24689 11.5203 5.28136 11.6247 5.29084 11.7328C5.30033 11.8408 5.28457 11.9496 5.24483 12.0505C5.20508 12.1514 5.14242 12.2417 5.0618 12.3143C4.98118 12.3868 4.8848 12.4397 4.78026 12.4686C4.67573 12.4975 4.5659 12.5018 4.45944 12.481C4.35299 12.4602 4.25282 12.415 4.16683 12.3489C4.08085 12.2828 4.0114 12.1976 3.96398 12.1C2.97775 10.9422 2.43609 9.47098 2.43609 7.95004C2.43609 6.42911 2.97775 4.95788 3.96398 3.80004C4.02915 3.73352 4.10695 3.68068 4.1928 3.6446C4.27866 3.60852 4.37085 3.58994 4.46398 3.58994C4.55711 3.58994 4.6493 3.60852 4.73515 3.6446C4.82101 3.68068 4.8988 3.73352 4.96398 3.80004ZM12.564 3.80004C12.6292 3.73352 12.7069 3.68068 12.7928 3.6446C12.8787 3.60852 12.9709 3.58994 13.064 3.58994C13.1571 3.58994 13.2493 3.60852 13.3352 3.6446C13.421 3.68068 13.4988 3.73352 13.564 3.80004C14.5502 4.95788 15.0919 6.42911 15.0919 7.95004C15.0919 9.47098 14.5502 10.9422 13.564 12.1C13.5166 12.1976 13.4471 12.2828 13.3611 12.3489C13.2751 12.415 13.175 12.4602 13.0685 12.481C12.9621 12.5018 12.8522 12.4975 12.7477 12.4686C12.6432 12.4397 12.5468 12.3868 12.4662 12.3143C12.3855 12.2417 12.3229 12.1514 12.2831 12.0505C12.2434 11.9496 12.2276 11.8408 12.2371 11.7328C12.2466 11.6247 12.2811 11.5203 12.3378 11.4279C12.3945 11.3354 12.4719 11.2574 12.564 11.2C13.3123 10.3016 13.7221 9.16931 13.7221 8.00004C13.7221 6.83077 13.3123 5.69848 12.564 4.80004C12.4975 4.73487 12.4446 4.65707 12.4085 4.57122C12.3725 4.48536 12.3539 4.39317 12.3539 4.30004C12.3539 4.20692 12.3725 4.11472 12.4085 4.02887C12.4446 3.94301 12.4975 3.86522 12.564 3.80004ZM3.16398 1.90004C3.2305 1.96522 3.28334 2.04301 3.31942 2.12887C3.3555 2.21472 3.37408 2.30692 3.37408 2.40004C3.37408 2.49317 3.3555 2.58536 3.31942 2.67122C3.28334 2.75707 3.2305 2.83487 3.16398 2.90004C1.97702 4.33455 1.32758 6.13814 1.32758 8.00004C1.32758 9.86195 1.97702 11.6655 3.16398 13.1C3.25601 13.1574 3.33344 13.2354 3.39017 13.3279C3.44689 13.4203 3.48136 13.5247 3.49084 13.6328C3.50033 13.7408 3.48457 13.8496 3.44483 13.9505C3.40508 14.0514 3.34242 14.1417 3.2618 14.2143C3.18118 14.2868 3.0848 14.3397 2.98026 14.3686C2.87573 14.3975 2.7659 14.4018 2.65944 14.381C2.55299 14.3602 2.45282 14.315 2.36683 14.2489C2.28085 14.1828 2.2114 14.0976 2.16398 14C0.765417 12.3134 0 10.1911 0 8.00004C0 5.80896 0.765417 3.68671 2.16398 2.00004C2.22915 1.93352 2.30695 1.88068 2.3928 1.8446C2.47866 1.80852 2.57085 1.78994 2.66398 1.78994C2.75711 1.78994 2.8493 1.80852 2.93515 1.8446C3.02101 1.88068 3.0988 1.93352 3.16398 2.00004V1.90004ZM14.364 1.90004C14.4292 1.83352 14.5069 1.78068 14.5928 1.7446C14.6787 1.70852 14.7709 1.68994 14.864 1.68994C14.9571 1.68994 15.0493 1.70852 15.1352 1.7446C15.221 1.78068 15.2988 1.83352 15.364 1.90004C16.7625 3.58671 17.528 5.70896 17.528 7.90004C17.528 10.0911 16.7625 12.2134 15.364 13.9C15.3166 13.9976 15.2471 14.0828 15.1611 14.1489C15.0751 14.215 14.975 14.2602 14.8685 14.281C14.7621 14.3018 14.6522 14.2975 14.5477 14.2686C14.4432 14.2397 14.3468 14.1868 14.2662 14.1143C14.1855 14.0417 14.1229 13.9514 14.0831 13.8505C14.0434 13.7496 14.0276 13.6408 14.0371 13.5328C14.0466 13.4247 14.0811 13.3203 14.1378 13.2279C14.1945 13.1354 14.2719 13.0574 14.364 13C15.5509 11.5655 16.2004 9.76195 16.2004 7.90004C16.2004 6.03814 15.5509 4.23455 14.364 2.80004C14.2975 2.73487 14.2446 2.65707 14.2085 2.57122C14.1725 2.48536 14.1539 2.39317 14.1539 2.30004C14.1539 2.20692 14.1725 2.11472 14.2085 2.02887C14.2446 1.94301 14.2975 1.86522 14.364 1.80004V1.90004Z" fill="currentColor"/>
</svg>
