<svg width="16" height="16" viewBox="0 0 16 16" fill="none" xmlns="http://www.w3.org/2000/svg">
<path fill-rule="evenodd" clip-rule="evenodd" d="M2 3H14C14.2652 3 14.5196 3.10536 14.7071 3.29289C14.8946 3.48043 15 3.73478 15 4V12C15 12.2652 14.8946 12.5196 14.7071 12.7071C14.5196 12.8946 14.2652 13 14 13H8.9C8.68006 11.5136 7.98765 10.1374 6.92514 9.07486C5.86263 8.01235 4.48643 7.31994 3 7.1V4C3 3.73478 3.10536 3.48043 3.29289 3.29289C3.48043 3.10536 3.73478 3 4 3H2ZM1 9.5C1.92826 9.5 2.8185 9.86875 3.47487 10.5251C4.13125 11.1815 4.5 12.0717 4.5 13H3C3 12.4696 2.78929 11.9609 2.41421 11.5858C2.03914 11.2107 1.53043 11 1 11V9.5ZM1 12C1.26522 12 1.51957 12.1054 1.70711 12.2929C1.89464 12.4804 2 12.7348 2 13H1V12Z" fill="currentColor"/>
</svg>
