<svg width="16" height="16" viewBox="0 0 16 16" fill="none" xmlns="http://www.w3.org/2000/svg">
<path fill-rule="evenodd" clip-rule="evenodd" d="M9.94776 0.501312C9.94776 0.22517 9.7239 0 9.44776 0H6.4687C6.19256 0 5.9687 0.22517 5.9687 0.501312C5.9687 0.776009 5.74602 1 5.47132 1C5.19663 1 4.97394 1.22269 4.97394 1.49738V2C4.97394 2.27614 5.1978 2.5 5.47394 2.5H10.4425C10.7187 2.5 10.9425 2.27614 10.9425 2V1.49738C10.9425 1.22269 10.7198 1 10.4451 1C10.1704 1 9.94776 0.776009 9.94776 0.501312Z" fill="currentColor"/>
<path fill-rule="evenodd" clip-rule="evenodd" d="M4.06407 1H3.49487C2.66645 1 1.99487 1.67157 1.99487 2.5V14.5C1.99487 15.3284 2.66645 16 3.49487 16H12.4949C13.3233 16 13.9949 15.3284 13.9949 14.5V2.5C13.9949 1.67157 13.3233 1 12.4949 1H11.8524C11.9074 1.15639 11.9373 1.32468 11.9373 1.5V2C11.9373 2.82843 11.2692 3.5 10.4451 3.5H5.47131C4.64722 3.5 3.97917 2.82843 3.97917 2V1.5C3.97917 1.32468 4.00909 1.15639 4.06407 1ZM7.95822 6.4818C9.6139 4.80907 13.7531 7.73635 7.95822 11.5C2.16337 7.73635 6.30255 4.80907 7.95822 6.4818Z" fill="currentColor"/>
</svg>
