<svg width="16" height="16" viewBox="0 0 16 16" fill="none" xmlns="http://www.w3.org/2000/svg">
<path d="M2.65812 4.97437C2.92009 4.88705 3.06168 4.60389 2.97435 4.34192L2.47435 2.84192C2.38702 2.57995 2.10387 2.43837 1.84189 2.52569C1.57992 2.61301 1.43834 2.89617 1.52567 3.15815L2.02568 4.65815C2.113 4.92012 2.39615 5.0617 2.65812 4.97437ZM12.1581 4.97437C12.4201 4.88705 12.5617 4.60389 12.4744 4.34192L11.9744 2.84192C11.887 2.57995 11.6039 2.43837 11.3419 2.52569C11.0799 2.61301 10.9384 2.89617 11.0257 3.15815L11.5257 4.65815C11.613 4.92012 11.8962 5.0617 12.1581 4.97437ZM4.65812 3.47437C4.92009 3.38705 5.06168 3.10389 4.97435 2.84192L4.47435 1.34192C4.38702 1.07995 4.10386 0.938363 3.84189 1.02569C3.57992 1.11301 3.43834 1.39617 3.52568 1.65815L4.02567 3.15815C4.113 3.42012 4.39615 3.5617 4.65812 3.47437ZM14.1581 3.47437C14.4201 3.38705 14.5617 3.10389 14.4744 2.84192L13.9744 1.34192C13.887 1.07995 13.6039 0.938363 13.3419 1.02569C13.0799 1.11301 12.9384 1.39617 13.0257 1.65815L13.5257 3.15815C13.613 3.42012 13.8962 3.5617 14.1581 3.47437Z" fill="currentColor"/>
<path d="M7.0528 4.72364C7.1375 4.89303 7.31063 5.00003 7.50002 5.00003H8.50002C8.66074 5.00003 8.81166 4.92277 8.90564 4.79239C8.99961 4.662 9.02518 4.49439 8.97436 4.34192L8.69373 3.50003H9.50002C9.69222 3.50003 9.86741 3.38986 9.95067 3.21663C10.0339 3.04339 10.0105 2.83777 9.89045 2.68769L7.89045 0.187685C7.74361 0.00413474 7.48874 -0.0523495 7.27811 0.0519753C7.06747 0.1563 6.95793 0.393259 7.01495 0.6213L7.35963 2.00003H6.50002C6.32673 2.00003 6.16579 2.08976 6.07469 2.23717C5.98359 2.38458 5.97531 2.56865 6.0528 2.72364L7.0528 4.72364Z" fill="currentColor"/>
<path d="M13.4053 11.9729C12.9524 14.2688 10.9287 16 8.5 16C6.44003 16 4.67207 14.7546 3.90607 12.9767C3.77272 12.9921 3.63721 13 3.5 13C1.56701 13 0 11.433 0 9.50004C0 7.56704 1.56701 6.00005 3.5 6.00005H13C14.6569 6.00005 16 7.34318 16 9.00004C16 10.5194 14.8705 11.775 13.4053 11.9729Z" fill="currentColor"/>
</svg>
