<svg width="16" height="16" viewBox="0 0 16 16" fill="none" xmlns="http://www.w3.org/2000/svg">
<path d="M4.15812 3.97448C4.4201 3.88715 4.56168 3.60399 4.47435 3.34202L3.97435 1.84202C3.88703 1.58005 3.60387 1.43847 3.3419 1.52579C3.07992 1.61312 2.93834 1.89628 3.02567 2.15825L3.52567 3.65825C3.61299 3.92022 3.89615 4.0618 4.15812 3.97448ZM10.1581 3.97448C10.4201 3.88715 10.5617 3.60399 10.4743 3.34202L9.97436 1.84202C9.88704 1.58005 9.60388 1.43847 9.34191 1.52579C9.07994 1.61312 8.93834 1.89628 9.02567 2.15825L9.52567 3.65825C9.613 3.92022 9.89616 4.0618 10.1581 3.97448ZM6.65812 2.47448C6.9201 2.38715 7.06168 2.10399 6.97435 1.84202L6.47435 0.342022C6.38703 0.0800504 6.10387 -0.0615299 5.8419 0.025794C5.57993 0.113118 5.43834 0.396278 5.52567 0.65825L6.02567 2.15825C6.113 2.42022 6.39615 2.5618 6.65812 2.47448ZM12.6581 2.47448C12.9201 2.38715 13.0617 2.10399 12.9743 1.84202L12.4743 0.342022C12.387 0.0800504 12.1039 -0.0615299 11.8419 0.025794C11.5799 0.113118 11.4383 0.396278 11.5257 0.65825L12.0257 2.15825C12.113 2.42022 12.3961 2.5618 12.6581 2.47448Z" fill="currentColor"/>
<path d="M13.4053 10.973C12.9524 13.2689 10.9287 15.0001 8.5 15.0001C6.44002 15.0001 4.67207 13.7547 3.90606 11.9768C3.77271 11.9922 3.63721 12.0001 3.5 12.0001C1.567 12.0001 0 10.4331 0 8.50014C0 6.56714 1.567 5.00014 3.5 5.00014H13C14.6569 5.00014 16 6.34328 16 8.00014C16 9.51953 14.8705 10.7751 13.4053 10.973Z" fill="currentColor"/>
</svg>
