<svg width="16" height="16" viewBox="0 0 16 16" fill="none" xmlns="http://www.w3.org/2000/svg">
<path d="M4.17555 4.96826C4.43411 4.8713 4.5651 4.5831 4.46815 4.32454L2.96816 0.324572C2.8712 0.0660128 2.583 -0.0649886 2.32444 0.0319707C2.06587 0.12893 1.93487 0.417134 2.03183 0.675692L3.53182 4.67566C3.62878 4.93422 3.91699 5.06522 4.17555 4.96826ZM7.17552 4.96826C7.43408 4.8713 7.56508 4.5831 7.46812 4.32454L5.96813 0.324572C5.87117 0.0660128 5.58297 -0.0649886 5.32441 0.0319707C5.06585 0.12893 4.93485 0.417134 5.03181 0.675692L6.5318 4.67566C6.62876 4.93422 6.91697 5.06522 7.17552 4.96826ZM10.1755 4.96826C10.434 4.8713 10.5651 4.5831 10.4681 4.32454L8.96811 0.324572C8.87115 0.0660128 8.58294 -0.0649886 8.32439 0.0319707C8.06583 0.12893 7.93483 0.417134 8.03179 0.675692L9.53178 4.67566C9.62874 4.93422 9.91694 5.06522 10.1755 4.96826ZM13.1755 4.96826C13.434 4.8713 13.5651 4.5831 13.4681 4.32454L11.9681 0.324572C11.8711 0.0660128 11.5829 -0.0649886 11.3244 0.0319707C11.0658 0.12893 10.9348 0.417134 11.0318 0.675692L12.5318 4.67566C12.6287 4.93422 12.9169 5.06522 13.1755 4.96826Z" fill="currentColor"/>
<path d="M13.4052 11.9729C12.9523 14.2688 10.9286 16 8.49993 16C6.43998 16 4.67203 14.7546 3.90604 12.9767C3.77269 12.9921 3.63718 13 3.49997 13C1.56699 13 0 11.433 0 9.50008C0 7.56709 1.56699 6.00011 3.49997 6.00011H12.9999C14.6568 6.00011 15.9999 7.34324 15.9999 9.00008C15.9999 10.5194 14.8704 11.775 13.4052 11.9729Z" fill="currentColor"/>
</svg>
