<svg width="16" height="16" viewBox="0 0 16 16" fill="none" xmlns="http://www.w3.org/2000/svg">
<path d="M8.50002 14C10.9287 14 12.9524 12.2688 13.4053 9.97285C14.8705 9.77497 16 8.51939 16 7C16 5.34315 14.6569 4 13 4H3.50002C1.73678 4 0.278076 5.30385 0.0354614 7H5.50002C5.77616 7 6.00002 7.22386 6.00002 7.5C6.00002 7.77614 5.77616 8 5.50002 8H0.0354614C0.278076 9.69615 1.73678 11 3.50002 11C3.63723 11 3.77273 10.9921 3.90608 10.9766C4.67209 12.7545 6.44004 14 8.50002 14ZM2.50002 6C2.22388 6 2.00002 5.77614 2.00002 5.5C2.00002 5.22386 2.22388 5 2.50002 5H11.5C11.7761 5 12 5.22386 12 5.5C12 5.77614 11.7761 6 11.5 6H2.50002Z" fill="currentColor"/>
<path d="M0 2.5C0 2.77614 0.223858 3 0.5 3H9.5C9.77614 3 10 2.77614 10 2.5C10 2.22386 9.77614 2 9.5 2H0.5C0.223858 2 0 2.22386 0 2.5Z" fill="currentColor"/>
</svg>
