<svg width="16" height="16" viewBox="0 0 16 16" fill="none" xmlns="http://www.w3.org/2000/svg">
<path d="M4 4.5C4 4.77614 4.22386 5 4.5 5H13.5C13.7761 5 14 4.77614 14 4.5C14 4.22386 13.7761 4 13.5 4H4.5C4.22386 4 4 4.22386 4 4.5ZM1 2.5C1 2.77614 1.22386 3 1.5 3H10.5C10.7761 3 11 2.77614 11 2.5C11 2.22386 10.7761 2 10.5 2H1.5C1.22386 2 1 2.22386 1 2.5ZM3 0.5C3 0.776142 3.22386 1 3.5 1H12.5C12.7761 1 13 0.776142 13 0.5C13 0.223857 12.7761 0 12.5 0H3.5C3.22386 0 3 0.223857 3 0.5Z" fill="currentColor"/>
<path d="M13.4053 11.9729C12.9524 14.2688 10.9287 16 8.5 16C6.44002 16 4.67207 14.7545 3.90606 12.9766C3.77271 12.9921 3.63721 13 3.5 13C1.567 13 0 11.433 0 9.5C0 7.567 1.567 6 3.5 6H13C14.6569 6 16 7.34315 16 9C16 10.5194 14.8705 11.775 13.4053 11.9729Z" fill="currentColor"/>
</svg>
