<svg width="16" height="16" viewBox="0 0 16 16" fill="none" xmlns="http://www.w3.org/2000/svg">
<path d="M8.5 13C10.9287 13 12.9524 11.2688 13.4053 8.97285C14.8705 8.77497 16 7.51939 16 6C16 4.34315 14.6569 3 13 3H11.5C11.7761 3 12 3.22386 12 3.5C12 3.77614 11.7761 4 11.5 4H1.05051C0.757566 4.28706 0.514865 4.6252 0.336816 5H9.5C9.77614 5 10 5.22386 10 5.5C10 5.77614 9.77614 6 9.5 6H0.0354443C0.0120859 6.1633 0 6.33024 0 6.5C0 6.66976 0.0120859 6.8367 0.0354443 7H7.5C7.77614 7 8 7.22386 8 7.5C8 7.77614 7.77614 8 7.5 8H0.336816C0.898548 9.18247 2.1038 10 3.5 10C3.63721 10 3.77271 9.99208 3.90606 9.97665C4.67207 11.7545 6.44002 13 8.5 13Z" fill="currentColor"/>
</svg>
