<svg width="16" height="16" viewBox="0 0 16 16" fill="none" xmlns="http://www.w3.org/2000/svg">
<path d="M11 13.0001H3.78125C1.7076 13.0001 9.86027e-05 11.3662 0 9.31842C0 7.55535 1.26602 6.09479 2.94238 5.72467C2.97635 5.51918 3.03334 5.3138 3.11133 5.11139L11 13.0001ZM8 2.00006C10.6902 2.00006 12.9236 3.99962 13.166 6.57916C14.7582 6.80441 15.9999 8.13659 16 9.77252C16 10.9164 15.3918 11.9101 14.4824 12.4825L4.93652 2.93658C5.77798 2.37335 6.83436 2.00006 8 2.00006Z" fill="currentColor"/>
<path fill-rule="evenodd" clip-rule="evenodd" d="M13.6465 14.3536L1.64648 2.35359L2.35359 1.64648L14.3536 13.6465L13.6465 14.3536Z" fill="currentColor"/>
</svg>
