<svg width="16" height="16" viewBox="0 0 16 16" fill="none" xmlns="http://www.w3.org/2000/svg">
<path d="M7.06004 1.34999C7.13011 1.15694 7.25792 0.990141 7.4261 0.872268C7.59428 0.754395 7.79467 0.691162 8.00004 0.691162C8.20542 0.691162 8.40581 0.754395 8.57399 0.872268C8.74217 0.990141 8.86998 1.15694 8.94004 1.34999L12.96 13.67C13.0132 13.822 13.0289 13.9846 13.0057 14.144C12.9825 14.3034 12.9212 14.4548 12.8269 14.5854C12.7327 14.716 12.6083 14.8219 12.4643 14.894C12.3203 14.9662 12.1611 15.0026 12 15H4.00004C3.83985 15.001 3.68178 14.9634 3.53912 14.8905C3.39646 14.8177 3.2734 14.7116 3.18029 14.5812C3.08717 14.4509 3.02674 14.3001 3.00408 14.1415C2.98141 13.9829 2.99718 13.8212 3.05004 13.67L7.06004 1.34999Z" fill="currentColor"/>
</svg>
