<svg width="16" height="16" viewBox="0 0 16 16" fill="none" xmlns="http://www.w3.org/2000/svg">
<path d="M8 0C12.4183 0 16 3.58172 16 8C16 8.28299 15.9847 8.56249 15.9561 8.83789C15.3804 8.48568 14.65 8.38581 14 8.64844C12.9684 8.2316 11.7339 8.72745 11.2373 9.69727C10.8944 10.3671 10.9256 11.1623 11.3135 11.9277C11.6712 12.6335 12.3311 13.3222 13.3027 13.9873C11.8909 15.2386 10.0349 16 8 16C3.58172 16 0 12.4183 0 8C0 3.58172 3.58172 0 8 0ZM14 9.82812C15.1097 8.68804 17.8833 10.684 14 13.25C10.1167 10.684 12.8903 8.68804 14 9.82812ZM9.39062 9.06543C9.06795 9.02022 8.65749 9.0876 8.28711 9.17285C7.8973 9.26259 7.47463 9.39137 7.09473 9.51562C6.83238 9.60151 6.68865 9.88409 6.77441 10.1465C6.86039 10.4087 7.14298 10.5515 7.40527 10.4658C7.7752 10.3448 8.16518 10.2272 8.51172 10.1475C8.68854 10.1068 8.83838 10.0794 8.95996 10.0645C8.85168 10.2138 8.69042 10.4051 8.45996 10.6426C8.27258 10.8359 8.2714 11.1438 8.45801 11.3379C8.68848 11.5777 8.85047 11.7701 8.95898 11.9209C8.83799 11.9053 8.68898 11.8789 8.51367 11.8379C8.16663 11.7566 7.77614 11.6369 7.40527 11.5156C7.14287 11.4299 6.86024 11.5735 6.77441 11.8359C6.68912 12.0982 6.83253 12.3801 7.09473 12.4658C7.4737 12.5898 7.89584 12.7203 8.28516 12.8115C8.65482 12.8981 9.06513 12.9673 9.3877 12.9238C9.54708 12.9023 9.78252 12.8406 9.9502 12.6396C10.1389 12.4131 10.1375 12.1419 10.082 11.9346C10.029 11.7367 9.91472 11.5367 9.77344 11.3398C9.69593 11.2319 9.60298 11.116 9.49609 10.9922C9.60237 10.87 9.69522 10.7562 9.77246 10.6494C9.91405 10.4537 10.0286 10.2537 10.082 10.0557C10.1379 9.84773 10.1389 9.57674 9.95117 9.35059C9.78455 9.15016 9.55013 9.08781 9.39062 9.06543ZM6 5C5.44772 5 5 5.67157 5 6.5C5 7.32843 5.44772 8 6 8C6.55228 8 7 7.32843 7 6.5C7 5.67157 6.55228 5 6 5ZM10.25 5.75C9.52058 5.75001 8.89427 6.1625 8.56348 6.75684C8.42922 6.99808 8.51567 7.30219 8.75684 7.43652C8.99804 7.57076 9.30217 7.48426 9.43652 7.24316C9.60476 6.94086 9.91121 6.75001 10.25 6.75C10.5888 6.75 10.8952 6.94085 11.0635 7.24316C11.1978 7.48428 11.5019 7.57076 11.7432 7.43652C11.9844 7.30221 12.0708 6.99809 11.9365 6.75684C11.6057 6.16251 10.9794 5.75 10.25 5.75Z" fill="currentColor"/>
</svg>
