<svg width="16" height="16" viewBox="0 0 16 16" fill="none" xmlns="http://www.w3.org/2000/svg">
<path d="M0.0495605 3.55544C0.251705 2.66484 1.0482 2 1.99998 2H14C14.9518 2 15.7483 2.66484 15.9504 3.55544L7.99998 8.41403L0.0495605 3.55544Z" fill="currentColor"/>
<path d="M0 4.69708V11.8006L5.80319 8.24348L0 4.69708Z" fill="currentColor"/>
<path d="M6.76142 8.82904L0.191895 12.8559C0.512628 13.5323 1.2017 14 2.00002 14H8.25608C8.09025 13.5308 8.00002 13.026 8.00002 12.5C8.00002 11.1169 8.62398 9.87956 9.60577 9.05409L9.23862 8.82904L8.00002 9.58596L6.76142 8.82904Z" fill="currentColor"/>
<path d="M16 4.69708V9.67133C15.175 8.65183 13.9136 8 12.5 8C11.7954 8 11.1286 8.16195 10.5348 8.45065L10.1968 8.24348L16 4.69708Z" fill="currentColor"/>
<path d="M12.5 16C14.433 16 16 14.433 16 12.5C16 10.567 14.433 9 12.5 9C10.567 9 9 10.567 9 12.5C9 14.433 10.567 16 12.5 16ZM13 11V12.5C13 12.7761 12.7761 13 12.5 13C12.2239 13 12 12.7761 12 12.5V11C12 10.7239 12.2239 10.5 12.5 10.5C12.7761 10.5 13 10.7239 13 11ZM13 14C13 14.2761 12.7761 14.5 12.5 14.5C12.2239 14.5 12 14.2761 12 14C12 13.7239 12.2239 13.5 12.5 13.5C12.7761 13.5 13 13.7239 13 14Z" fill="currentColor"/>
</svg>
