<svg width="16" height="16" viewBox="0 0 16 16" fill="none" xmlns="http://www.w3.org/2000/svg">
<path d="M1.99998 2C1.0482 2 0.251705 2.66484 0.0495605 3.55544L7.99998 8.41403L15.9504 3.55544C15.7483 2.66484 14.9518 2 14 2H1.99998Z" fill="currentColor"/>
<path d="M0 11.8006V4.69708L5.80319 8.24348L0 11.8006Z" fill="currentColor"/>
<path d="M6.76142 8.82904L0.191895 12.8559C0.512628 13.5323 1.2017 14 2.00002 14H8.25608C8.09025 13.5308 8.00002 13.026 8.00002 12.5C8.00002 11.1169 8.62398 9.87956 9.60577 9.05409L9.23862 8.82904L8.00002 9.58596L6.76142 8.82904Z" fill="currentColor"/>
<path d="M16 9.67133V4.69708L10.1968 8.24348L10.5348 8.45065C11.1286 8.16195 11.7954 8 12.5 8C13.9136 8 15.175 8.65183 16 9.67133Z" fill="currentColor"/>
<path d="M15.8339 12.2442C15.8339 13.4116 15.2567 14.2686 14.2467 14.2686C13.7439 14.2686 13.2455 14.0412 13.1274 13.6215H13.0837C12.9656 14.0369 12.5415 14.2642 12.0693 14.2642C11.2998 14.2642 10.8101 13.722 10.8101 12.8301V12.3011C10.8101 11.4572 11.2911 10.9019 12.0693 10.9019C12.6552 10.9019 12.9394 11.2342 13.0225 11.5315H13.0531V10.9631H13.9582V13.1537C13.9582 13.4247 14.1374 13.5734 14.3691 13.5734C14.6839 13.5734 15.0075 13.158 15.0075 12.183V12.065C15.0075 10.7883 14.0587 9.73891 12.524 9.73891H12.4847C10.9019 9.73891 9.84385 10.8057 9.84385 12.4628V12.6202C9.84385 14.4872 11.0812 15.2742 12.4147 15.2742H12.4585C12.9656 15.2742 13.3941 15.2042 13.639 15.0949V15.8251C13.4204 15.9257 12.9963 16 12.4016 16H12.3579C10.4385 16 9 14.8195 9 12.6465V12.4322C9 10.3598 10.421 9 12.4847 9H12.5197C14.6402 9 15.8339 10.4297 15.8339 12.0344V12.2442ZM11.7939 12.4541V12.6814C11.7939 13.2673 12.0212 13.4816 12.3754 13.4816C12.6858 13.4816 12.9394 13.3111 12.9394 12.7383V12.371C12.9394 11.8551 12.664 11.6627 12.3666 11.6627C12.0212 11.6627 11.7939 11.9076 11.7939 12.4541Z" fill="currentColor"/>
</svg>
