<svg width="16" height="16" viewBox="0 0 16 16" fill="none" xmlns="http://www.w3.org/2000/svg">
<path d="M0.0495605 3.55544C0.251705 2.66484 1.0482 2 1.99998 2H14C14.9518 2 15.7483 2.66484 15.9504 3.55544L7.99998 8.41403L0.0495605 3.55544Z" fill="currentColor"/>
<path d="M0 4.69708V11.8006L5.80319 8.24348L0 4.69708Z" fill="currentColor"/>
<path d="M6.76142 8.82904L0.191895 12.8559C0.512628 13.5323 1.2017 14 2.00002 14H8.25608C8.09025 13.5308 8.00002 13.026 8.00002 12.5C8.00002 11.1169 8.62398 9.87956 9.60577 9.05409L9.23862 8.82904L8.00002 9.58596L6.76142 8.82904Z" fill="currentColor"/>
<path d="M16 4.69708V9.67133C15.175 8.65183 13.9136 8 12.5 8C11.7954 8 11.1286 8.16195 10.5348 8.45065L10.1968 8.24348L16 4.69708Z" fill="currentColor"/>
<path d="M16 12.5C16 14.433 14.433 16 12.5 16C10.567 16 9 14.433 9 12.5C9 10.567 10.567 9 12.5 9C14.433 9 16 10.567 16 12.5ZM14.0072 10.8213C13.7705 10.6792 13.4633 10.756 13.3213 10.9928L12.1507 12.9436L11.6036 12.3964C11.4083 12.2012 11.0917 12.2012 10.8964 12.3964C10.7012 12.5917 10.7012 12.9083 10.8964 13.1036L11.67 13.8771C12.0151 14.2222 12.5924 14.1511 12.8435 13.7327L14.1787 11.5072C14.3208 11.2705 14.244 10.9633 14.0072 10.8213Z" fill="currentColor"/>
</svg>
