<svg width="17" height="16" viewBox="0 0 17 16" fill="none" xmlns="http://www.w3.org/2000/svg">
<path fill-rule="evenodd" clip-rule="evenodd" d="M3.60416 5.19994H5.70416C6.09424 5.22365 6.46215 5.38929 6.73848 5.66562C7.01481 5.94196 7.18046 6.30987 7.20416 6.69994H9.20416C9.22787 6.30987 9.39351 5.94196 9.66985 5.66562C9.94618 5.38929 10.3141 5.22365 10.7042 5.19994H12.8042C13.1833 5.14135 13.5706 5.16738 13.9385 5.27615C14.3064 5.38492 14.6456 5.57375 14.9319 5.82909C15.2182 6.08443 15.4444 6.39995 15.5944 6.75303C15.7443 7.10611 15.8143 7.488 15.7993 7.87132C15.7842 8.25463 15.6846 8.62987 15.5074 8.97012C15.3303 9.31038 15.08 9.60722 14.7746 9.83935C14.4692 10.0715 14.1162 10.2332 13.741 10.3128C13.3657 10.3924 12.9775 10.388 12.6042 10.2999C12.5246 11.016 12.1638 11.6712 11.6012 12.1213C11.0386 12.5713 10.3202 12.7795 9.60416 12.6999C9.24959 12.6605 8.90626 12.5517 8.59376 12.3796C8.28125 12.2075 8.0057 11.9756 7.78284 11.697C7.33276 11.1344 7.1246 10.416 7.20416 9.69994C7.28373 10.416 7.07557 11.1344 6.62549 11.697C6.1754 12.2596 5.52025 12.6204 4.80416 12.6999C4.08808 12.7795 3.36972 12.5713 2.80711 12.1213C2.2445 11.6712 1.88373 11.016 1.80416 10.2999C1.12786 10.0612 0.574081 9.56367 0.264646 8.91667C-0.0447885 8.26967 -0.08453 7.52624 0.154165 6.84994C0.39286 6.17364 0.890438 5.61986 1.53744 5.31042C2.18444 5.00099 2.92786 4.96125 3.60416 5.19994ZM3.70416 6.69994C3.27982 6.69994 2.87285 6.86851 2.57279 7.16857C2.27274 7.46863 2.10416 7.8756 2.10416 8.29994C2.10416 8.72429 2.27274 9.13125 2.57279 9.43131C2.87285 9.73137 3.27982 9.89994 3.70416 9.89994C4.12851 9.89994 4.53548 9.73137 4.83554 9.43131C5.13559 9.13125 5.30416 8.72429 5.30416 8.29994C5.30416 7.8756 5.13559 7.46863 4.83554 7.16857C4.53548 6.86851 4.12851 6.69994 3.70416 6.69994ZM12.7042 6.69994C12.2798 6.69994 11.8729 6.86851 11.5728 7.16857C11.2727 7.46863 11.1042 7.8756 11.1042 8.29994C11.1042 8.72429 11.2727 9.13125 11.5728 9.43131C11.8729 9.73137 12.2798 9.89994 12.7042 9.89994C13.1285 9.89994 13.5355 9.73137 13.8355 9.43131C14.1356 9.13125 14.3042 8.72429 14.3042 8.29994C14.3042 7.8756 14.1356 7.46863 13.8355 7.16857C13.5355 6.86851 13.1285 6.69994 12.7042 6.69994Z" fill="currentColor"/>
</svg>
