<svg width="16" height="16" viewBox="0 0 16 16" fill="none" xmlns="http://www.w3.org/2000/svg">
<path fill-rule="evenodd" clip-rule="evenodd" d="M3 15H2V1.29371H3C3.28363 1.6238 3.64283 1.89252 4.04839 2.06111C4.45395 2.22969 4.89443 2.3022 5.334 2.27273C6.13049 2.2247 6.90414 1.99324 7.592 1.5972C8.34263 1.23402 9.16328 1.03049 10 1C10.8185 1.00753 11.6215 1.21949 12.333 1.6158L13 2.04657V3.02559V8.9007V9.88364L12.333 9.45287C11.6219 9.05505 10.8189 8.84141 10 8.83217C9.27609 8.90422 8.57339 9.11337 7.931 9.44797C7.11984 9.83442 6.23289 10.0445 5.331 10.0638C4.49281 10.132 3.65947 9.88564 3 9.37455V14.9951V15Z" fill="currentColor"/>
</svg>
