<svg width="16" height="16" viewBox="0 0 16 16" fill="none" xmlns="http://www.w3.org/2000/svg">
<path d="M8.49995 4.46572V1.75C8.49995 0.783502 7.71645 0 6.74995 0C5.78345 0 4.99995 0.783501 4.99995 1.75V7.0901L3.80091 7.32991C3.03795 7.4825 2.51833 8.19312 2.60425 8.96642L2.94927 12.0716C2.99341 12.4688 3.13215 12.8497 3.35385 13.1822L4.78706 15.3321C5.06526 15.7493 5.5336 16 6.03513 16H12.4196C12.9579 16 13.4549 15.7116 13.7219 15.2442L15.1172 12.8025C15.3609 12.3761 15.5121 11.9031 15.561 11.4143L15.8325 8.69901C15.9502 7.52164 15.0257 6.5 13.8424 6.5H13.2609C13.207 6.42702 13.1411 6.34155 13.0662 6.25214C12.8746 6.02336 12.5558 5.68385 12.1856 5.53576C11.8221 5.39037 11.3401 5.40403 11.0281 5.42828C10.9825 5.43183 10.9381 5.43584 10.8955 5.44012C10.7921 5.18252 10.6094 4.94975 10.3363 4.79793C10.1414 4.6896 9.87807 4.56572 9.59801 4.50971C9.28882 4.44787 8.85902 4.45166 8.54747 4.46377C8.53147 4.46439 8.51562 4.46504 8.49995 4.46572Z" fill="currentColor"/>
</svg>
