<svg width="16" height="16" viewBox="0 0 16 16" fill="none" xmlns="http://www.w3.org/2000/svg">
<path d="M7.29288 1.50005C7.68341 1.10952 8.31656 1.10952 8.70709 1.50005L11 3.79293V2.50005C11 2.2239 11.2239 2.00005 11.5 2.00005H12.5C12.7761 2.00005 13 2.2239 13 2.50005V5.79293L15.3536 8.14648C15.5488 8.34174 15.5488 8.65832 15.3536 8.85358C15.1583 9.04884 14.8417 9.04884 14.6464 8.85358L7.99999 2.20715L1.35355 8.85358C1.15829 9.04884 0.841708 9.04884 0.646446 8.85358C0.451183 8.65832 0.451183 8.34174 0.646446 8.14648L7.29288 1.50005Z" fill="currentColor"/>
<path d="M11.0696 9.04684C10.5087 8.7556 9.80224 8.84262 9.32815 9.30793L9.30793 9.32815C8.84261 9.80224 8.75558 10.5087 9.04683 11.0697C8.43989 11.2618 7.99998 11.8296 7.99998 12.5C7.99998 13.1705 8.43989 13.7382 9.04683 13.9303C8.87459 14.2621 8.83465 14.6447 8.92698 15H3.49999C2.67156 15 2 14.3285 2 13.5V9.29292L7.99998 3.29293L12.7237 8.01655C12.6507 8.00564 12.576 8.00003 12.5 8.00003C11.8295 8.00003 11.2617 8.4399 11.0696 9.04684Z" fill="currentColor"/>
<path d="M13.1583 9.60816L13.1145 9.45957C12.9339 8.84684 12.0661 8.84684 11.8855 9.45957L11.8417 9.60816C11.7263 9.99967 11.2791 10.1849 10.9207 9.98966L10.7846 9.91556C10.2237 9.61 9.60995 10.2237 9.91551 10.7847L9.98961 10.9207C10.1849 11.2791 9.99962 11.7263 9.60812 11.8417L9.45952 11.8855C8.8468 12.0661 8.8468 12.934 9.45952 13.1146L9.60812 13.1584C9.99962 13.2738 10.1849 13.721 9.98961 14.0794L9.91551 14.2154C9.60995 14.7764 10.2237 15.3901 10.7846 15.0845L10.9207 15.0104C11.2791 14.8152 11.7263 15.0004 11.8417 15.3919L11.8855 15.5405C12.0661 16.1532 12.9339 16.1532 13.1145 15.5405L13.1583 15.3919C13.2737 15.0004 13.7209 14.8152 14.0793 15.0104L14.2154 15.0845C14.7763 15.3901 15.39 14.7764 15.0845 14.2154L15.0104 14.0794C14.8151 13.721 15.0004 13.2738 15.3919 13.1584L15.5405 13.1146C16.1532 12.934 16.1532 12.0661 15.5405 11.8855L15.3919 11.8417C15.0004 11.7263 14.8151 11.2791 15.0104 10.9207L15.0845 10.7847C15.39 10.2237 14.7763 9.61 14.2154 9.91556L14.0793 9.98966C13.7209 10.1849 13.2737 9.99967 13.1583 9.60816ZM12.5 14C11.6716 14 11 13.3285 11 12.5C11 11.6716 11.6716 11 12.5 11C13.3284 11 14 11.6716 14 12.5C14 13.3285 13.3284 14 12.5 14Z" fill="currentColor"/>
</svg>
