<svg width="16" height="16" viewBox="0 0 16 16" fill="none" xmlns="http://www.w3.org/2000/svg">
<path d="M8.70711 1.50004C8.31658 1.10952 7.68342 1.10952 7.29289 1.50004L0.646447 8.14649C0.451184 8.34175 0.451184 8.65833 0.646447 8.85359C0.841709 9.04886 1.15829 9.04886 1.35355 8.85359L8 2.20715L14.6464 8.85359C14.8417 9.04886 15.1583 9.04886 15.3536 8.85359C15.5488 8.65833 15.5488 8.34175 15.3536 8.14649L13 5.79293V2.50004C13 2.2239 12.7761 2.00004 12.5 2.00004H11.5C11.2239 2.00004 11 2.2239 11 2.50004V3.79293L8.70711 1.50004Z" fill="currentColor"/>
<path d="M8 3.29293L12.712 8.00495C12.6418 8.00169 12.5711 8.00004 12.5 8.00004C10.0147 8.00004 8 10.0147 8 12.5C8 13.4251 8.27914 14.285 8.75777 15H3.5C2.67157 15 2 14.3284 2 13.5V9.29293L8 3.29293Z" fill="currentColor"/>
</svg>
