<svg width="17" height="16" viewBox="0 0 17 16" fill="none" xmlns="http://www.w3.org/2000/svg">
<path d="M0.00152588 3C0.00152588 1.89543 0.896957 1 2.00152 1H14.0015C15.1061 1 16.0015 1.89543 16.0015 3V13C16.0015 14.1046 15.1061 15 14.0015 15H2.00152C0.896957 15 0.00152588 14.1046 0.00152588 13V3ZM1.00152 12V13C1.00152 13.5523 1.44924 14 2.00152 14H14.0015C14.5538 14 15.0015 13.5523 15.0015 13V9.5L11.2251 7.55279C11.0327 7.45654 10.8002 7.49427 10.648 7.64645L6.93781 11.3566L4.27887 9.58397C4.08056 9.45177 3.8165 9.47791 3.64797 9.64645L1.00152 12ZM6.00152 5.5C6.00152 4.67157 5.32996 4 4.50152 4C3.67309 4 3.00152 4.67157 3.00152 5.5C3.00152 6.32843 3.67309 7 4.50152 7C5.32996 7 6.00152 6.32843 6.00152 5.5Z" fill="currentColor"/>
</svg>
