<svg width="16" height="16" viewBox="0 0 16 16" fill="none" xmlns="http://www.w3.org/2000/svg">
<path fill-rule="evenodd" clip-rule="evenodd" d="M2 3H14C14.2652 3 14.5196 3.10536 14.7071 3.29289C14.8946 3.48043 15 3.73478 15 4V12C15 12.2652 14.8946 12.5196 14.7071 12.7071C14.5196 12.8946 14.2652 13 14 13H2C1.73478 13 1.48043 12.8946 1.29289 12.7071C1.10536 12.5196 1 12.2652 1 12V4C1 3.73478 1.10536 3.48043 1.29289 3.29289C1.48043 3.10536 1.73478 3 2 3ZM5 5.5C4.68174 5.5 4.37652 5.62643 4.15147 5.85147C3.92643 6.07652 3.8 6.38174 3.8 6.7C3.8 7.01826 3.92643 7.32348 4.15147 7.54853C4.37652 7.77357 4.68174 7.9 5 7.9C5.31826 7.9 5.62348 7.77357 5.84853 7.54853C6.07357 7.32348 6.2 7.01826 6.2 6.7C6.2 6.38174 6.07357 6.07652 5.84853 5.85147C5.62348 5.62643 5.31826 5.5 5 5.5ZM2.5 11.5H13.5L9.5 7L7 10L5.5 8.5L2.5 11.5Z" fill="currentColor"/>
</svg>
