<svg width="16" height="16" viewBox="0 0 16 16" fill="none" xmlns="http://www.w3.org/2000/svg">
<path d="M7.00001 1.5H9.00001V5.6C9.3813 5.82013 9.67929 6.15993 9.84777 6.56668C10.0163 6.97344 10.0458 7.42442 9.93186 7.84969C9.81791 8.27496 9.56682 8.65074 9.21754 8.91876C8.86825 9.18678 8.44028 9.33205 8.00001 9.33205C7.55974 9.33205 7.13178 9.18678 6.78249 8.91876C6.4332 8.65074 6.18211 8.27496 6.06816 7.84969C5.95421 7.42442 5.98377 6.97344 6.15225 6.56668C6.32074 6.15993 6.61873 5.82013 7.00001 5.6V1.5ZM5.50001 9H10.5L12 13.5C12.0485 13.6536 12.0592 13.8166 12.0312 13.9751C12.0031 14.1337 11.9372 14.2832 11.839 14.4108C11.7409 14.5384 11.6133 14.6405 11.4672 14.7082C11.3211 14.776 11.1609 14.8075 11 14.8H5.00001C4.83916 14.8075 4.67888 14.776 4.5328 14.7082C4.38672 14.6405 4.25917 14.5384 4.16099 14.4108C4.06281 14.2832 3.9969 14.1337 3.96888 13.9751C3.94085 13.8166 3.95153 13.6536 4.00001 13.5L5.50001 9Z" fill="currentColor"/>
</svg>
