<svg width="16" height="16" viewBox="0 0 16 16" fill="none" xmlns="http://www.w3.org/2000/svg">
<path fill-rule="evenodd" clip-rule="evenodd" d="M8 1.5C6.27609 1.5 4.62279 2.18482 3.40381 3.40381C2.18482 4.62279 1.5 6.27609 1.5 8C1.5 9.72391 2.18482 11.3772 3.40381 12.5962C4.62279 13.8152 6.27609 14.5 8 14.5C9.72391 14.5 11.3772 13.8152 12.5962 12.5962C13.8152 11.3772 14.5 9.72391 14.5 8C14.5 6.27609 13.8152 4.62279 12.5962 3.40381C11.3772 2.18482 9.72391 1.5 8 1.5ZM3.4 4.4L5.4 6.4C5.66304 5.94304 6.04188 5.56347 6.49833 5.29955C6.95479 5.03563 7.47274 4.89666 8 4.89666C8.52726 4.89666 9.04521 5.03563 9.50167 5.29955C9.95812 5.56347 10.337 5.94304 10.6 6.4L12.6 4.4C12.0368 3.72754 11.3331 3.18673 10.5383 2.81565C9.74358 2.44458 8.87712 2.25227 8 2.25227C7.12288 2.25227 6.25642 2.44458 5.46166 2.81565C4.66689 3.18673 3.96315 3.72754 3.4 4.4ZM8 5.5C7.33696 5.5 6.70107 5.76339 6.23223 6.23223C5.76339 6.70107 5.5 7.33696 5.5 8C5.5 8.66304 5.76339 9.29893 6.23223 9.76777C6.70107 10.2366 7.33696 10.5 8 10.5C8.66304 10.5 9.29893 10.2366 9.76777 9.76777C10.2366 9.29893 10.5 8.66304 10.5 8C10.5 7.33696 10.2366 6.70107 9.76777 6.23223C9.29893 5.76339 8.66304 5.5 8 5.5ZM12.6 12.6L10.6 10.6C10.337 11.057 9.95812 11.4365 9.50167 11.7004C9.04521 11.9644 8.52726 12.1033 8 12.1033C7.47274 12.1033 6.95479 11.9644 6.49833 11.7004C6.04188 11.4365 5.66304 11.057 5.4 10.6L3.4 12.6C3.96315 13.2725 4.66689 13.8133 5.46166 14.1843C6.25642 14.5554 7.12288 14.7477 8 14.7477C8.87712 14.7477 9.74358 14.5554 10.5383 14.1843C11.3331 13.8133 12.0368 13.2725 12.6 12.6Z" fill="currentColor"/>
</svg>
