<svg width="16" height="16" viewBox="0 0 16 16" fill="none" xmlns="http://www.w3.org/2000/svg">
<path d="M11.5 1.19998C11.7499 1.0361 12.0487 0.963312 12.3459 0.993882C12.6432 1.02445 12.9209 1.15651 13.1322 1.36782C13.3435 1.57914 13.4756 1.8568 13.5061 2.15408C13.5367 2.45135 13.4639 2.75008 13.3 2.99998L11.7 4.59998L9.90003 2.79998L11.5 1.19998ZM9.20003 3.49998L11 5.29998L3.30003 13C3.05013 13.1639 2.7514 13.2366 2.45413 13.2061C2.15685 13.1755 1.87919 13.0434 1.66787 12.8321C1.45656 12.6208 1.3245 12.3432 1.29393 12.0459C1.26336 11.7486 1.33614 11.4499 1.50003 11.2L9.20003 3.49998ZM4.00003 0.99998L4.50003 2.29998L5.80003 2.79998L4.50003 3.29998L4.00003 4.59998L3.50003 3.29998L2.20003 2.79998L3.50003 2.29998L4.00003 0.99998ZM13.5 7.99998L13.95 9.19998L15.15 9.64998L13.95 10.1L13.5 11.3L13.05 10.1L11.85 9.64998L13.05 9.19998L13.5 7.99998Z" fill="currentColor"/>
</svg>
