<svg width="16" height="16" viewBox="0 0 16 16" fill="none" xmlns="http://www.w3.org/2000/svg">
<path fill-rule="evenodd" clip-rule="evenodd" d="M4.5 4H11.5C12.4283 4 13.3185 4.36875 13.9749 5.02513C14.6313 5.6815 15 6.57174 15 7.5V12C15 12.2652 14.8946 12.5196 14.7071 12.7071C14.5196 12.8946 14.2652 13 14 13H8V7.5C8 6.57174 7.63125 5.6815 6.97487 5.02513C6.3185 4.36875 5.42826 4 4.5 4ZM1 7.5C1 6.57174 1.36875 5.6815 2.02513 5.02513C2.6815 4.36875 3.57174 4 4.5 4C5.42826 4 6.3185 4.36875 6.97487 5.02513C7.63125 5.6815 8 6.57174 8 7.5V13H2.5C2.36739 13 2.24021 12.9473 2.14645 12.8536C2.05268 12.7598 2 12.6326 2 12.5V10H1V7.5ZM4.5 6.5C4.36739 6.5 4.24021 6.55268 4.14645 6.64645C4.05268 6.74021 4 6.86739 4 7C4 7.13261 4.05268 7.25979 4.14645 7.35355C4.24021 7.44732 4.36739 7.5 4.5 7.5H5.5C5.63261 7.5 5.75979 7.44732 5.85355 7.35355C5.94732 7.25979 6 7.13261 6 7C6 6.86739 5.94732 6.74021 5.85355 6.64645C5.75979 6.55268 5.63261 6.5 5.5 6.5H4.5Z" fill="currentColor"/>
</svg>
