<svg width="16" height="16" viewBox="0 0 16 16" fill="none" xmlns="http://www.w3.org/2000/svg">
<path d="M6.99999 0C6.17156 0 5.49999 0.671573 5.49999 1.5V12.5C5.49999 13.2962 6.12036 13.9475 6.90411 13.997C6.5535 14.3021 6.03219 14.6749 5.27638 15.0528C5.06897 15.1565 4.96009 15.3892 5.01336 15.6149C5.06664 15.8406 5.2681 16 5.49999 16H10.5C10.7319 16 10.9333 15.8406 10.9866 15.6149C11.0399 15.3892 10.931 15.1565 10.7236 15.0528C9.96779 14.6749 9.44647 14.3021 9.09587 13.997C9.87962 13.9475 10.5 13.2962 10.5 12.5V1.5C10.5 0.671573 9.82841 0 8.99999 0H6.99999ZM8 3C7.72386 3 7.5 2.77614 7.5 2.5C7.5 2.22386 7.72386 2 8 2C8.27614 2 8.5 2.22386 8.5 2.5C8.5 2.77614 8.27614 3 8 3ZM8 5C7.72386 5 7.5 4.77614 7.5 4.5C7.5 4.22386 7.72386 4 8 4C8.27614 4 8.5 4.22386 8.5 4.5C8.5 4.77614 8.27614 5 8 5ZM8.5 6.5C8.5 6.77614 8.27614 7 8 7C7.72386 7 7.5 6.77614 7.5 6.5C7.5 6.22386 7.72386 6 8 6C8.27614 6 8.5 6.22386 8.5 6.5ZM8 9C7.72386 9 7.5 8.77614 7.5 8.5C7.5 8.22386 7.72386 8 8 8C8.27614 8 8.5 8.22386 8.5 8.5C8.5 8.77614 8.27614 9 8 9Z" fill="currentColor"/>
</svg>
