<svg width="16" height="16" viewBox="0 0 16 16" fill="none" xmlns="http://www.w3.org/2000/svg">
<path fill-rule="evenodd" clip-rule="evenodd" d="M2 2.5H12C12.2652 2.5 12.5196 2.60536 12.7071 2.79289C12.8946 2.98043 13 3.23478 13 3.5V14H3C2.60218 14 2.22064 13.842 1.93934 13.5607C1.65804 13.2794 1.5 12.8978 1.5 12.5V3C1.5 2.86739 1.55268 2.74021 1.64645 2.64645C1.74021 2.55268 1.86739 2.5 2 2.5ZM14 6H14.5C14.6326 6 14.7598 6.05268 14.8536 6.14645C14.9473 6.24021 15 6.36739 15 6.5V12.5C14.9991 12.8095 14.9026 13.1111 14.7235 13.3635C14.5445 13.616 14.2918 13.8068 14 13.91V6ZM3.5 5.5V7.5H6.5V5.5H3.5ZM8 5.5V7.5H11V5.5H8ZM3.5 9V10.2H11V9H3.5ZM3.5 11.3V12.5H11V11.3H3.5Z" fill="currentColor"/>
</svg>
