<svg width="16" height="16" viewBox="0 0 16 16" fill="none" xmlns="http://www.w3.org/2000/svg">
<path fill-rule="evenodd" clip-rule="evenodd" d="M3 1.5H13C13.3978 1.5 13.7794 1.65804 14.0607 1.93934C14.342 2.22064 14.5 2.60218 14.5 3V13C14.5 13.3978 14.342 13.7794 14.0607 14.0607C13.7794 14.342 13.3978 14.5 13 14.5H3C2.60218 14.5 2.22064 14.342 1.93934 14.0607C1.65804 13.7794 1.5 13.3978 1.5 13V3C1.5 2.60218 1.65804 2.22064 1.93934 1.93934C2.22064 1.65804 2.60218 1.5 3 1.5ZM6 5V7.5H7V5H6ZM9 5V7.5H10V5H9ZM5.5 10C5.5 10.663 5.76339 11.2989 6.23223 11.7678C6.70107 12.2366 7.33696 12.5 8 12.5C8.66304 12.5 9.29893 12.2366 9.76777 11.7678C10.2366 11.2989 10.5 10.663 10.5 10H5.5Z" fill="currentColor"/>
</svg>
