<svg width="16" height="16" viewBox="0 0 16 16" fill="none" xmlns="http://www.w3.org/2000/svg">
<path d="M13.4983 0.794552L13.6465 0.6464C14.1179 0.174995 14.8822 0.174995 15.3536 0.6464C15.825 1.1178 15.825 1.8821 15.3536 2.3535L15.2054 2.50166C15.7315 3.09065 15.7119 3.99518 15.1465 4.56061L4.85356 14.8536C4.78948 14.9176 4.70919 14.9631 4.62128 14.9851L0.621278 15.9851C0.450891 16.0277 0.270647 15.9777 0.146457 15.8536C0.022267 15.7294 -0.0276575 15.5491 0.0149394 15.3787L1.01494 11.3787C1.03692 11.2908 1.08238 11.2105 1.14646 11.1464L10.7877 1.50513C10.5926 1.36754 10.321 1.38603 10.1465 1.56061L6.85356 4.8535C6.6583 5.04877 6.34172 5.04877 6.14646 4.8535C5.95119 4.65824 5.95119 4.34166 6.14646 4.1464L9.43935 0.853506C10.0053 0.287533 10.9111 0.26839 11.5 0.796077C12.0678 0.287372 12.9299 0.286864 13.4983 0.794552Z" fill="currentColor"/>
</svg>
