<svg width="16" height="16" viewBox="0 0 16 16" fill="none" xmlns="http://www.w3.org/2000/svg">
<path d="M9.04941 0.43468C8.46984 -0.144893 7.53017 -0.144893 6.95059 0.434679L0.434679 6.95059C-0.144892 7.53016 -0.144894 8.46983 0.434678 9.04941L6.95059 15.5654C7.53016 16.1449 8.46983 16.1449 9.04941 15.5654L15.5653 9.04941C16.1449 8.46984 16.1449 7.53017 15.5653 6.95059L9.04941 0.43468ZM5.49634 6.03268C5.3599 6.03268 5.24752 5.92234 5.25511 5.78612C5.34964 4.09058 6.73831 3.49997 8.00539 3.49997C9.40188 3.49997 10.6778 4.22995 10.6778 5.74069C10.6778 6.81979 10.043 7.33395 9.43361 7.79733C8.69729 8.35593 8.42434 8.5654 8.42434 9.28268V9.38815C8.42434 9.52622 8.31241 9.63815 8.17434 9.63815H7.36332C7.22658 9.63815 7.11521 9.5283 7.11334 9.39158L7.11037 9.17477C7.07229 8.24802 7.60549 7.67673 8.27834 7.18796C8.86867 6.74362 9.24318 6.45163 9.24318 5.81686C9.24318 4.99167 8.61477 4.6489 7.92922 4.6489C7.1265 4.6489 6.67618 5.12715 6.58723 5.78328C6.56868 5.9201 6.45889 6.03268 6.32082 6.03268H5.49634ZM7.82131 12.4756C7.23732 12.4756 6.81203 12.082 6.81203 11.5488C6.81203 10.9966 7.23732 10.6094 7.82131 10.6094C8.43068 10.6094 8.84963 10.9966 8.84963 11.5488C8.84963 12.082 8.43068 12.4756 7.82131 12.4756Z" fill="currentColor"/>
</svg>
