<svg width="16" height="16" viewBox="0 0 16 16" fill="none" xmlns="http://www.w3.org/2000/svg">
<path d="M8.00042 0C8.68992 0.000103367 9.84271 0.265341 10.9281 0.55957C12.0382 0.860485 13.157 1.21501 13.8149 1.42969C14.3638 1.6089 14.7791 2.09397 14.8588 2.69238C15.4553 7.16942 14.0718 10.4866 12.394 12.6816C11.5582 13.775 10.6502 14.5907 9.87738 15.1357C9.49123 15.408 9.13247 15.6167 8.82855 15.7598C8.548 15.8918 8.24793 15.9999 8.00042 16C7.7528 16 7.45206 15.8919 7.17132 15.7598C6.86751 15.6167 6.50946 15.4079 6.12347 15.1357C5.35062 14.5907 4.44172 13.7751 3.60589 12.6816C1.92807 10.4866 0.544557 7.16936 1.14105 2.69238C1.22078 2.09402 1.63616 1.60894 2.18499 1.42969C2.84288 1.21501 3.96162 0.860485 5.07171 0.55957C6.15742 0.265267 7.31094 0 8.00042 0ZM8.00042 4.5C7.72428 4.5 7.50042 4.72386 7.50042 5V6.5H6.00042C5.72428 6.5 5.50042 6.72386 5.50042 7C5.50042 7.27614 5.72428 7.5 6.00042 7.5H7.50042V9C7.50042 9.27614 7.72428 9.5 8.00042 9.5C8.27638 9.49978 8.50042 9.27601 8.50042 9V7.5H10.0004C10.2764 7.49978 10.5004 7.27601 10.5004 7C10.5004 6.72399 10.2764 6.50022 10.0004 6.5H8.50042V5C8.50042 4.72399 8.27638 4.50022 8.00042 4.5Z" fill="currentColor"/>
</svg>
