<svg width="16" height="16" viewBox="0 0 16 16" fill="none" xmlns="http://www.w3.org/2000/svg">
<path d="M8.00006 0C8.68956 1.34127e-05 9.84308 0.265268 10.9288 0.55957C12.0387 0.860451 13.1567 1.21503 13.8145 1.42969C14.3635 1.60884 14.7787 2.09388 14.8585 2.69238C15.455 7.16956 14.0715 10.4866 12.3936 12.6816C11.5578 13.7751 10.6499 14.5907 9.87702 15.1357C9.49095 15.408 9.13303 15.6167 8.82917 15.7598C8.54837 15.892 8.24776 16 8.00006 16C7.75236 16 7.45178 15.892 7.17096 15.7598C6.8671 15.6167 6.50918 15.408 6.12311 15.1357C5.35026 14.5907 4.44136 13.7751 3.60553 12.6816C1.92776 10.4866 0.545161 7.16928 1.14167 2.69238C1.22142 2.09388 1.63659 1.60884 2.18561 1.42969C2.84346 1.21502 3.96145 0.860443 5.07135 0.55957C6.15708 0.265261 7.31057 0 8.00006 0ZM8.00202 10C7.44973 10 7.00202 10.4477 7.00202 11C7.00202 11.5523 7.44973 12 8.00202 12C8.55411 11.9998 9.00202 11.5521 9.00202 11C9.00202 10.4479 8.55411 10.0002 8.00202 10ZM8.00006 4C7.46465 4 7.0464 4.46236 7.09967 4.99512L7.45026 8.50293C7.47871 8.78515 7.71637 9 8.00006 9C8.28376 9 8.52142 8.78515 8.54987 8.50293L8.90045 4.99512C8.95373 4.46237 8.53547 4 8.00006 4Z" fill="currentColor"/>
</svg>
