<svg width="16" height="16" viewBox="0 0 16 16" fill="none" xmlns="http://www.w3.org/2000/svg">
<path d="M9.0494 0.434679C8.46983 -0.144892 7.53016 -0.144894 6.95058 0.434678L4.22296 3.16231L7.99999 6.93934L11.777 3.16231L9.0494 0.434679Z" fill="currentColor"/>
<path d="M12.3242 7.85938V6.99805H12.791C13.0703 6.99805 13.2578 7.15234 13.2578 7.4375C13.2578 7.71875 13.0762 7.85938 12.7832 7.85938H12.3242Z" fill="currentColor"/>
<path d="M12.8377 4.22302L9.06067 8.00005L12.8377 11.7771L15.5653 9.04946C16.1449 8.46989 16.1449 7.53022 15.5653 6.95064L12.8377 4.22302ZM12.8672 6.58403C13.459 6.58403 13.8027 6.91802 13.8027 7.42778C13.8027 7.81841 13.5605 8.08208 13.3184 8.17583L13.8535 9.25005H13.2637L12.7969 8.25591H12.3242V9.25005H11.8027V6.58403H12.8672Z" fill="currentColor"/>
<path d="M11.777 12.8377L7.99999 9.06067L4.22296 12.8377L6.95058 15.5653C7.53015 16.1449 8.46982 16.1449 9.0494 15.5653L11.777 12.8377Z" fill="currentColor"/>
<path d="M2.82422 6.99805V7.85938H3.2832C3.57617 7.85938 3.75781 7.71875 3.75781 7.4375C3.75781 7.15234 3.57031 6.99805 3.29102 6.99805H2.82422Z" fill="currentColor"/>
<path d="M3.16231 11.7771L6.93934 8.00005L3.16231 4.22302L0.434679 6.95064C-0.144892 7.53021 -0.144894 8.46988 0.434678 9.04946L3.16231 11.7771ZM2.30273 6.58403H3.36719C3.95898 6.58403 4.30273 6.91802 4.30273 7.42778C4.30273 7.81841 4.06055 8.08208 3.81836 8.17583L4.35352 9.25005H3.76367L3.29688 8.25591H2.82422V9.25005H2.30273V6.58403Z" fill="currentColor"/>
</svg>
