<svg width="16" height="16" viewBox="0 0 16 16" fill="none" xmlns="http://www.w3.org/2000/svg">
<path d="M13.9994 13.2923C15.2445 11.882 16 10.0292 16 8C16 3.58172 12.4183 0 8 0C5.97079 0 4.11804 0.755509 2.70769 2.00058L6.80498 6.09788C7.02563 6.03415 7.25883 6 7.5 6H9V4.53376C9 4.3218 9.24721 4.20601 9.41005 4.3417L11.7695 6.30794C11.8895 6.40789 11.8895 6.59211 11.7695 6.69206L9.41005 8.65829C9.40168 8.66526 9.3931 8.67157 9.38434 8.67723L13.9994 13.2923Z" fill="currentColor"/>
<path d="M13.2923 13.9994C11.882 15.2445 10.0292 16 8 16C3.58172 16 0 12.4183 0 7.99995C0 5.97074 0.755509 4.11799 2.00058 2.70764L5.88472 6.59178C5.34353 7.05036 5 7.73504 5 8.49995V11H6V8.49995C6 8.01105 6.23389 7.57679 6.59588 7.30294L13.2923 13.9994Z" fill="currentColor"/>
<path d="M7.70711 7L9 8.29289V7H7.70711Z" fill="currentColor"/>
</svg>
