<svg width="16" height="16" viewBox="0 0 16 16" fill="none" xmlns="http://www.w3.org/2000/svg">
<path fill-rule="evenodd" clip-rule="evenodd" d="M5.5 1H10.5L9.8 3.6C10.5938 4.02842 11.2568 4.66359 11.719 5.4382C12.1811 6.21281 12.4251 7.098 12.4251 8C12.4251 8.902 12.1811 9.78719 11.719 10.5618C11.2568 11.3364 10.5938 11.9716 9.8 12.4L10.5 15H5.5L6.2 12.4C5.40624 11.9716 4.74316 11.3364 4.28101 10.5618C3.81887 9.78719 3.57487 8.902 3.57487 8C3.57487 7.098 3.81887 6.21281 4.28101 5.4382C4.74316 4.66359 5.40624 4.02842 6.2 3.6L5.5 1ZM8 4.6C7.85413 4.6 7.71423 4.65795 7.61109 4.76109C7.50794 4.86424 7.45 5.00413 7.45 5.15V8C7.45 8.2 7.55 8.38 7.72 8.48L9.42 9.58L10.02 8.65L8.55 7.69V5.15C8.55 5.00413 8.49205 4.86424 8.38891 4.76109C8.28576 4.65795 8.14587 4.6 8 4.6Z" fill="currentColor"/>
</svg>
