<svg width="16" height="16" viewBox="0 0 16 16" fill="none" xmlns="http://www.w3.org/2000/svg">
<path d="M6.70457 8.13869C6.76381 8.04982 6.76006 7.93314 6.69523 7.84826C6.6304 7.76339 6.51882 7.72907 6.4175 7.76284L4.9175 8.26284L5.07561 8.73718L5.88437 8.46759L5.28854 9.36133C5.2293 9.4502 5.23305 9.56688 5.29788 9.65176C5.3627 9.73663 5.47429 9.77095 5.57561 9.73718L6.38437 9.46759L5.78854 10.3613C5.7293 10.4502 5.73305 10.5669 5.79788 10.6517C5.8627 10.7366 5.97429 10.7709 6.07561 10.7372L7.57561 10.2372L7.4175 9.76284L6.60874 10.0324L7.20457 9.13869C7.26381 9.04982 7.26006 8.93314 7.19523 8.84826C7.1304 8.76339 7.01882 8.72907 6.9175 8.76284L6.10874 9.03243L6.70457 8.13869Z" fill="currentColor"/>
<path d="M8 16C12.4183 16 16 12.4183 16 8C16 3.58172 12.4183 0 8 0C3.58172 0 0 3.58172 0 8C0 12.4183 3.58172 16 8 16ZM1.79797 11.2488L3.78623 9.59193C3.59901 9.09702 3.49654 8.56048 3.49654 8C3.49654 5.51472 5.51126 3.5 7.99654 3.5C9.31446 3.5 10.5001 4.06655 11.3231 4.96939L7.49654 6.5L8.49654 9L9.82978 12.1109C9.26984 12.361 8.64943 12.5 7.99654 12.5C7.43606 12.5 6.89952 12.3975 6.40462 12.2103L4.74678 14.1997C3.48964 13.5387 2.45814 12.5065 1.79797 11.2488ZM12.4965 8C12.4965 9.42835 11.8311 10.7013 10.7932 11.5256L9.49654 8.5L12.4556 7.39036C12.4826 7.58972 12.4965 7.79323 12.4965 8Z" fill="currentColor"/>
</svg>
