<svg width="16" height="16" viewBox="0 0 16 16" fill="none" xmlns="http://www.w3.org/2000/svg">
<path d="M9.04934 0.434676C8.46978 -0.144891 7.53012 -0.144892 6.95054 0.434675L4.04617 3.33904L7.99994 7.2928L11.9537 3.33904L9.04934 0.434676Z" fill="currentColor"/>
<path d="M12.6608 4.04623L8.70706 7.99999L12.6608 11.9538L15.5652 9.04943C16.1448 8.46986 16.1448 7.5302 15.5652 6.95062L12.6608 4.04623Z" fill="currentColor"/>
<path d="M11.9537 12.6608L7.99994 8.70709L4.04614 12.6608L6.95054 15.5653C7.53011 16.1448 8.46977 16.1448 9.04934 15.5653L11.9537 12.6608Z" fill="currentColor"/>
<path d="M3.33904 11.9537L7.29283 7.99988L3.33907 4.04611L0.434676 6.95051C-0.144891 7.53008 -0.144893 8.46974 0.434675 9.04931L3.33904 11.9537Z" fill="currentColor"/>
</svg>
