<svg xmlns="http://www.w3.org/2000/svg" viewBox="0 0 16 16" width="16" height="16" fill="currentColor"><g transform="translate(3.338,3.333) scale(0.667,0.667)"><path d="M13.9821 8.98212V2.52679C13.9017 1.30804 12.6428 1.84379 12.6428 1.84379C9.70978 3.23661 8.28004 2.46317 6.7834 2.00004C5.87942 1.72207 4.92405 1.65347 3.98964 1.79942L3.98018 1.80342C3.94243 1.41817 3.79302 1.05233 3.55029 0.750793C3.30756 0.44926 2.98207 0.225159 2.61378 0.106C2.5572 0.0824795 2.49856 0.064294 2.43861 0.0516801C2.41414 0.0461801 2.38979 0.0413599 2.36501 0.0367799C2.30557 0.0186262 2.24451 0.00630813 2.18269 0H1.81728C1.75545 0.00631465 1.69439 0.0186395 1.63496 0.0367999C1.61024 0.0413799 1.58589 0.0462 1.56148 0.05164C1.5015 0.0642754 1.44284 0.082481 1.38625 0.10602C1.03645 0.216809 0.724178 0.422347 0.484095 0.699827C0.244012 0.977307 0.0855014 1.31588 0.026151 1.67797C-0.0331994 2.04007 0.00893149 2.41153 0.147869 2.75113C0.286806 3.09074 0.517117 3.38521 0.813246 3.60187V12.9959C0.813229 13.1277 0.839186 13.2583 0.889636 13.3801C0.940086 13.502 1.01404 13.6127 1.10728 13.7059C1.20051 13.7991 1.3112 13.8731 1.43302 13.9236C1.55485 13.974 1.68542 14 1.81728 14H2.18269C2.31455 14 2.44512 13.974 2.56694 13.9236C2.68876 13.8731 2.79945 13.7992 2.89269 13.7059C2.98593 13.6127 3.05989 13.502 3.11035 13.3802C3.16081 13.2583 3.18678 13.1278 3.18678 12.9959V10.5223C6.82899 9.42407 8.38387 11.1652 10.2857 11.0982C11.4546 11.0956 12.5931 10.7254 13.5401 10.0402C13.6931 9.91209 13.8131 9.74913 13.8901 9.56501C13.967 9.38088 13.9985 9.18098 13.9821 8.98212Z"/></g></svg>
