<svg xmlns="http://www.w3.org/2000/svg" viewBox="0 0 24 24" width="16" height="16" fill="currentColor"><g transform="translate(4.999,3.502)"><path d="M8.09375 12.7471H5.90625C5.54297 12.7471 5.25 12.3916 5.25 11.9502V6.37207H2.85156C2.36719 6.37207 2.12109 5.65723 2.46484 5.23926L6.625 0.18457C6.83203 -0.0615234 7.16797 -0.0615234 7.37109 0.18457L11.5352 5.23926C11.8789 5.65723 11.6328 6.37207 11.1484 6.37207H8.75V11.9502C8.75 12.3916 8.45703 12.7471 8.09375 12.7471ZM14 12.4814V16.2002C14 16.6416 13.707 16.9971 13.3438 16.9971H0.65625C0.292969 16.9971 0 16.6416 0 16.2002V12.4814C0 12.04 0.292969 11.6846 0.65625 11.6846H4.375V11.9502C4.375 12.9775 5.0625 13.8096 5.90625 13.8096H8.09375C8.9375 13.8096 9.625 12.9775 9.625 11.9502V11.6846H13.3438C13.707 11.6846 14 12.04 14 12.4814ZM10.6094 15.4033C10.6094 15.0361 10.3633 14.7393 10.0625 14.7393C9.76172 14.7393 9.51562 15.0361 9.51562 15.4033C9.51562 15.7705 9.76172 16.0674 10.0625 16.0674C10.3633 16.0674 10.6094 15.7705 10.6094 15.4033ZM12.3594 15.4033C12.3594 15.0361 12.1133 14.7393 11.8125 14.7393C11.5117 14.7393 11.2656 15.0361 11.2656 15.4033C11.2656 15.7705 11.5117 16.0674 11.8125 16.0674C12.1133 16.0674 12.3594 15.7705 12.3594 15.4033Z"/></g></svg>
