<svg xmlns="http://www.w3.org/2000/svg" viewBox="0 0 24 24" width="16" height="16" fill="currentColor"><g transform="translate(4.999,4.999) scale(1,1)"><path d="M0 2H2V0C0.9 0 0 0.9 0 2ZM0 6H2V4H0V6ZM4 14H6V12H4V14ZM0 6H2V4H0V6ZM10 0H8V2H10V0ZM12 0V2H14C14 0.9 13.1 0 12 0ZM2 14V12H0C0 13.1 0.9 14 2 14ZM0 10H2V8H0V10ZM6 0H4V2H6V0ZM8 14H10V12H8V14ZM12 6H14V4H12V6ZM12 14C13.1 14 14 13.1 14 12H12V14ZM12 6H14V4H12V6ZM12 10H14V8H12V10ZM8 14H10V12H8V14ZM8 2H10V0H8V2ZM4 10H10V4H4V10ZM6 6H8V8H6V6Z"/></g></svg>
