<svg xmlns="http://www.w3.org/2000/svg" viewBox="0 0 24 24" width="16" height="16" fill="currentColor"><g transform="translate(1.999,2.899) scale(1,1)"><path d="M12.4 8.1L14 9.7V8.1H12.4ZM15 4.1H11V6H15C16.7 6 18.1 7.4 18.1 9.1C18.1 10.4 17.3 11.5 16.2 11.9L17.6 13.3C19 12.5 20 10.9 20 9.1C20 6.3 17.8 4.1 15 4.1ZM0 1.4L3.1 4.5C1.3 5.2 0 7 0 9.1C0 11.9 2.2 14.1 5 14.1H9V12.2H5C3.3 12.2 1.9 10.8 1.9 9.1C1.9 7.5 3.1 6.2 4.7 6L6.7 8.1H6V10.1H8.7L11 12.4V14.1H12.7L16.7 18.1L18.1 16.7L1.4 0L0 1.4Z"/></g></svg>
