<svg xmlns="http://www.w3.org/2000/svg" viewBox="0 0 24 24" width="16" height="16" fill="currentColor"><g transform="translate(3.002,2.748) scale(1,1)"><path d="M15.8751 10.1581C15.9604 9.5564 15.9604 8.94572 15.8751 8.34406L17.8271 6.81806C17.9125 6.74819 17.9706 6.65035 17.9909 6.54183C18.0112 6.43332 17.9925 6.32112 17.9381 6.22506L16.0871 3.02506C16.046 2.95373 15.9866 2.8947 15.9151 2.85408C15.8435 2.81346 15.7623 2.79273 15.6801 2.79406C15.6264 2.79331 15.5731 2.80281 15.5231 2.82206L13.2231 3.74706C12.745 3.37609 12.2193 3.07103 11.6601 2.84006L11.3081 0.388061C11.2927 0.279325 11.2383 0.179917 11.1549 0.108484C11.0715 0.0370502 10.9649 -0.00150107 10.8551 6.0988e-05H7.15506C7.04509 -0.0017469 6.93825 0.0366931 6.85464 0.108149C6.77103 0.179605 6.71641 0.279152 6.70106 0.388061L6.34506 2.83906C5.78683 3.07485 5.2612 3.38135 4.78106 3.75106L2.48106 2.82606C2.42767 2.80756 2.37156 2.7981 2.31506 2.79806C2.23388 2.79757 2.15403 2.8187 2.08373 2.8593C2.01342 2.8999 1.95521 2.9585 1.91506 3.02906L0.0640593 6.22906C0.00737313 6.32452 -0.012624 6.43735 0.00780281 6.54648C0.0282297 6.65561 0.0876835 6.75357 0.175059 6.82206L2.12706 8.34806C2.08652 8.64742 2.06448 8.94899 2.06106 9.25106C2.06365 9.55443 2.08502 9.85734 2.12506 10.1581L0.173059 11.6841C0.0875868 11.7539 0.0295673 11.8518 0.00925525 11.9603C-0.0110568 12.0688 0.00764636 12.181 0.0620592 12.2771L1.91306 15.4771C1.95411 15.5484 2.0135 15.6074 2.08507 15.648C2.15664 15.6887 2.23778 15.7094 2.32006 15.7081C2.3737 15.7088 2.42699 15.6993 2.47706 15.6801L4.77706 14.7551C5.25529 15.1263 5.78136 15.4313 6.34106 15.6621L6.69806 18.1151C6.71341 18.224 6.76803 18.3235 6.85164 18.395C6.93525 18.4664 7.04209 18.5049 7.15206 18.5031H10.8521C10.9619 18.5046 11.0685 18.4661 11.1519 18.3946C11.2353 18.3232 11.2897 18.2238 11.3051 18.1151L11.6571 15.6631C12.2146 15.4286 12.7399 15.1238 13.2201 14.7561L15.5201 15.6811C15.5738 15.6996 15.6302 15.709 15.6871 15.7091C15.7682 15.7096 15.8481 15.6884 15.9184 15.6478C15.9887 15.6072 16.0469 15.5486 16.0871 15.4781L17.9381 12.2781C17.9925 12.182 18.0112 12.0698 17.9909 11.9613C17.9706 11.8528 17.9125 11.7549 17.8271 11.6851L15.8751 10.1581ZM15.7851 12.1871L14.9311 13.6631L12.8141 12.8111L12.1411 13.3191C11.7828 13.5929 11.3918 13.821 10.9771 13.9981L10.1821 14.3211L9.85206 16.5901H8.15206L7.83206 14.3211L7.03906 13.9991C6.63055 13.8272 6.24521 13.6048 5.89206 13.3371L5.19806 12.8111L3.06506 13.6711L2.21106 12.1961L4.01706 10.7851L3.91706 9.93806C3.88906 9.64606 3.87106 9.43806 3.87106 9.25106C3.87106 9.06406 3.88906 8.85106 3.91606 8.57906L4.02206 7.72506L2.21506 6.31506L3.06906 4.84006L5.18606 5.69106L5.85906 5.18306C6.21734 4.90924 6.60835 4.68115 7.02306 4.50406L7.82306 4.18106L8.15406 1.91206H9.85406L10.1751 4.18106L10.9671 4.50306C11.3759 4.67452 11.7615 4.89658 12.1151 5.16406L12.7991 5.69006L14.9321 4.83106L15.7851 6.30406L13.9851 7.72506L14.0851 8.57206C14.1158 8.79709 14.1312 9.02395 14.1311 9.25106C14.1311 9.44406 14.1131 9.65106 14.0861 9.92306L13.9801 10.7761L15.7851 12.1871ZM8.99806 11.7951C8.49499 11.7947 8.00333 11.6451 7.58523 11.3653C7.16714 11.0856 6.84138 10.6881 6.64914 10.2232C6.45689 9.75833 6.4068 9.24688 6.50519 8.75353C6.60357 8.26017 6.84602 7.80706 7.20189 7.45148C7.55775 7.09589 8.01105 6.8538 8.50448 6.7558C8.99792 6.6578 9.50933 6.7083 9.97407 6.9009C10.4388 7.09351 10.836 7.41958 11.1155 7.8379C11.3949 8.25621 11.5441 8.74799 11.5441 9.25106C11.5419 9.92547 11.273 10.5716 10.7959 11.0483C10.3188 11.525 9.67247 11.7935 8.99806 11.7951V11.7951Z"/></g></svg>
