<svg xmlns="http://www.w3.org/2000/svg" viewBox="0 0 16 16" width="16" height="16" fill="currentColor"><g transform="translate(0.667,3.11) scale(0.667,0.667)"><path d="M11.0001 2C12.1267 2.00167 13.2181 2.39342 14.0886 3.10865C14.9591 3.82389 15.5551 4.81848 15.7753 5.92342L16.0715 7.4261L17.5994 7.53188C18.2661 7.57599 18.8893 7.87793 19.3371 8.37373C19.7849 8.86953 20.0221 9.52021 19.9983 10.1879C19.9746 10.8555 19.6918 11.4877 19.2099 11.9504C18.728 12.4132 18.0848 12.67 17.4167 12.6667H5.50006C4.60534 12.6672 3.74441 12.3249 3.09437 11.7101C2.44434 11.0953 2.05462 10.2548 2.00538 9.36141C1.95614 8.46804 2.25113 7.58977 2.82967 6.90725C3.4082 6.22474 4.22629 5.78988 5.11566 5.69212L6.18248 5.57871L6.67806 4.6272C7.08796 3.8348 7.70805 3.1705 8.47039 2.7071C9.23274 2.2437 10.1079 1.99906 11.0001 2V2ZM11.0001 2.0779e-07C9.74236 0.000260899 8.50886 0.345721 7.43398 0.998734C6.35909 1.65175 5.48406 2.58726 4.90423 3.70333C3.50561 3.8552 2.21843 4.53747 1.30764 5.6097C0.396851 6.68192 -0.0682379 8.06251 0.00810779 9.46728C0.0844535 10.872 0.696424 12.1941 1.71805 13.1613C2.73968 14.1285 4.09322 14.6673 5.50006 14.6667H17.4167C18.6033 14.6701 19.7447 14.2119 20.5996 13.389C21.4544 12.566 21.9557 11.4429 21.9974 10.257C22.039 9.07112 21.6179 7.91554 20.8229 7.03462C20.0279 6.1537 18.9215 5.61651 17.7376 5.53666C17.4297 3.97622 16.5896 2.57108 15.3607 1.56127C14.1319 0.551453 12.5906 -0.000390939 11.0001 2.0779e-07V2.0779e-07ZM11.9998 7.2469H13.9139L10.9998 4.33333L8.08624 7.2469H9.99982V10.2469H10.0001V11.3333H12.0001V9.33333H11.9998V7.2469Z"/></g></svg>
