<svg xmlns="http://www.w3.org/2000/svg" viewBox="0 0 16 16" width="16" height="16" fill="currentColor"><g transform="translate(8.001,8) rotate(-180) scale(-1,1) translate(-4.5,-7)"><path fill-rule="evenodd" clip-rule="evenodd" d="M4.5 0C4.77614 0 5 0.223858 5 0.5V12.2929L8.14645 9.14645C8.34171 8.95118 8.65829 8.95118 8.85355 9.14645C9.04882 9.34171 9.04882 9.65829 8.85355 9.85355L4.85355 13.8536C4.65829 14.0488 4.34171 14.0488 4.14645 13.8536L0.146447 9.85355C-0.0488155 9.65829 -0.0488155 9.34171 0.146447 9.14645C0.341709 8.95118 0.658292 8.95118 0.853554 9.14645L4 12.2929V0.5C4 0.223858 4.22386 0 4.5 0Z"/></g></svg>
