<svg xmlns="http://www.w3.org/2000/svg" viewBox="0 0 24 24" width="16" height="16" fill="currentColor"><g transform="translate(3.768,3.768) scale(1,1)"><path d="M5.20713 3.70714C5.5038 3.70714 5.79381 3.79511 6.04049 3.95994C6.28716 4.12476 6.47942 4.35903 6.59295 4.63312C6.70648 4.9072 6.73619 5.20881 6.67831 5.49978C6.62043 5.79075 6.47757 6.05802 6.26779 6.2678C6.05801 6.47758 5.79074 6.62044 5.49977 6.67832C5.2088 6.7362 4.9072 6.70649 4.63311 6.59296C4.35902 6.47943 4.12475 6.28717 3.95993 6.0405C3.79511 5.79382 3.70713 5.50381 3.70713 5.20714C3.70713 4.80932 3.86517 4.42779 4.14647 4.14648C4.42778 3.86518 4.80931 3.70714 5.20713 3.70714V3.70714ZM8.99579 0.580011L12.7684 4.35266L13.1041 4.6883L15.8745 7.45868C16.2507 7.83572 16.4627 8.34607 16.4645 8.87868C16.4657 9.14004 16.4146 9.399 16.314 9.64024C16.2135 9.88149 16.0656 10.1001 15.8791 10.2832L15.8795 10.2837L10.2837 15.8795L10.2832 15.8791C10.1001 16.0656 9.8815 16.2135 9.64025 16.314C9.39901 16.4145 9.14005 16.4657 8.87869 16.4645C8.61706 16.4653 8.35783 16.4146 8.11587 16.315C7.87391 16.2155 7.65398 16.0692 7.46869 15.8845L4.68828 13.1041L4.35264 12.7685L0.590003 9.00582C0.402645 8.8199 0.254027 8.59867 0.152753 8.35493C0.0514786 8.11118 -0.000439894 7.84977 2.80743e-06 7.58582V5.59583V2.00001C0.00153043 1.47005 0.212735 0.962228 0.587477 0.587485C0.962219 0.212743 1.47004 0.00153896 2 1.13366e-05H5.59582H7.58577C7.84741 -0.000872287 8.10664 0.0499073 8.34861 0.149438C8.59057 0.248968 8.81051 0.39529 8.99579 0.580011V0.580011ZM11.6941 6.09825L11.3585 5.76261L7.59582 2.00001H1.99999V7.59584L6.09823 11.6941L8.87763 14.4735L14.4654 8.86966L14.4644 8.86866L11.6941 6.09825Z"/></g></svg>
