<svg xmlns="http://www.w3.org/2000/svg" viewBox="0 0 24 24" width="16" height="16" fill="currentColor"><g transform="translate(4.301,4.999) scale(1,1)"><path d="M6.01774 0L6.95591 1.3226C5.75814 2.16565 4.71291 3.20679 3.86517 4.40125C3.23361 5.30533 2.88613 6.37725 2.86717 7.47991V7.81724C3.10776 7.78542 3.32798 7.75742 3.52783 7.73324C3.71533 7.70972 3.90406 7.6974 4.09302 7.69633C4.48472 7.68486 4.87461 7.75371 5.23869 7.89864C5.60276 8.04357 5.9333 8.26151 6.20995 8.53903C6.48585 8.81184 6.70296 9.13827 6.84789 9.49819C6.99282 9.8581 7.06251 10.2439 7.05265 10.6318C7.07475 11.0793 7.00744 11.5267 6.85466 11.9478C6.70188 12.369 6.4667 12.7555 6.16285 13.0848C5.8547 13.3923 5.48603 13.6324 5.08021 13.79C4.67438 13.9475 4.24025 14.019 3.80533 14C3.28285 14.0112 2.76481 13.9019 2.29132 13.6807C1.81783 13.4596 1.4016 13.1324 1.07486 12.7245C0.335044 11.7989 -0.045184 10.6369 0.00428477 9.453C0.00148945 7.63414 0.528288 5.85381 1.52037 4.32933C2.69362 2.58203 4.22705 1.10589 6.01774 0V0ZM14.4102 0L15.3471 1.3226C14.1493 2.16565 13.1041 3.20679 12.2563 4.40125C11.6248 5.30533 11.2773 6.37725 11.2583 7.47991V7.81724C11.4824 7.78542 11.6949 7.75742 11.8961 7.73324C12.0916 7.70914 12.2884 7.69682 12.4855 7.69633C12.8746 7.68098 13.2627 7.74686 13.625 7.88976C13.9872 8.03266 14.3158 8.24946 14.5897 8.52633C14.8577 8.8057 15.0672 9.13593 15.2055 9.49755C15.3439 9.85916 15.4085 10.2448 15.3954 10.6318C15.4409 11.5315 15.1299 12.4129 14.5298 13.0848C14.2274 13.3933 13.8632 13.6343 13.4611 13.792C13.0589 13.9497 12.628 14.0206 12.1965 14C11.6708 14.0093 11.1498 13.8994 10.6727 13.6785C10.1956 13.4576 9.7748 13.1314 9.44186 12.7245C8.68799 11.8052 8.29835 10.6409 8.34707 9.453C8.35315 7.65265 8.884 5.89312 9.87462 4.3898C11.064 2.62645 12.6089 1.1312 14.4102 0V0Z"/></g></svg>
