<svg xmlns="http://www.w3.org/2000/svg" viewBox="0 0 24 24" width="16" height="16" fill="currentColor"><g transform="translate(2.501,4.999)"><path d="M14 8H8V14H6V8H0V6H6V0H8V6H14V8ZM19 12.5C19 12.7967 18.912 13.0867 18.7472 13.3334C18.5824 13.58 18.3481 13.7723 18.074 13.8858C17.7999 13.9993 17.4983 14.0291 17.2074 13.9712C16.9164 13.9133 16.6491 13.7704 16.4393 13.5607C16.2296 13.3509 16.0867 13.0836 16.0288 12.7926C15.9709 12.5017 16.0007 12.2001 16.1142 11.926C16.2277 11.6519 16.42 11.4176 16.6666 11.2528C16.9133 11.088 17.2033 11 17.5 11C17.8978 11 18.2794 11.158 18.5607 11.4393C18.842 11.7206 19 12.1022 19 12.5ZM19 8.5C19 8.79667 18.912 9.08668 18.7472 9.33335C18.5824 9.58003 18.3481 9.77229 18.074 9.88582C17.7999 9.99935 17.4983 10.0291 17.2074 9.97118C16.9164 9.9133 16.6491 9.77044 16.4393 9.56066C16.2296 9.35088 16.0867 9.08361 16.0288 8.79264C15.9709 8.50166 16.0007 8.20006 16.1142 7.92597C16.2277 7.65189 16.42 7.41762 16.6666 7.2528C16.9133 7.08797 17.2033 7 17.5 7C17.8978 7 18.2794 7.15804 18.5607 7.43934C18.842 7.72064 19 8.10218 19 8.5ZM19 4.5C19 4.79667 18.912 5.08668 18.7472 5.33335C18.5824 5.58003 18.3481 5.77229 18.074 5.88582C17.7999 5.99935 17.4983 6.02906 17.2074 5.97118C16.9164 5.9133 16.6491 5.77044 16.4393 5.56066C16.2296 5.35088 16.0867 5.08361 16.0288 4.79264C15.9709 4.50166 16.0007 4.20006 16.1142 3.92597C16.2277 3.65189 16.42 3.41762 16.6666 3.2528C16.9133 3.08797 17.2033 3 17.5 3C17.8978 3 18.2794 3.15804 18.5607 3.43934C18.842 3.72064 19 4.10218 19 4.5Z"/></g></svg>
