<svg xmlns="http://www.w3.org/2000/svg" viewBox="0 0 24 24" width="16" height="16" fill="currentColor"><g transform="translate(5.414,4.994)"><path d="M10.3604 11.9946C11.1809 11.275 11.8498 10.3991 12.3279 9.41811C12.748 8.44805 12.9538 7.39878 12.9313 6.34193C12.9661 5.49932 12.8255 4.65868 12.5184 3.87324C12.2114 3.0878 11.7446 2.37469 11.1476 1.77905C10.5506 1.18342 9.83639 0.718247 9.05025 0.413C8.26412 0.107752 7.42315 -0.0309195 6.58063 0.00576623C5.73407 -0.0284314 4.8896 0.113132 4.10047 0.421533C3.31135 0.729933 2.59467 1.19848 1.99563 1.79764C1.40323 2.422 0.942487 3.15915 0.640815 3.96522C0.339143 4.7713 0.202708 5.62982 0.23963 6.48971C0.224713 7.51487 0.437138 8.53059 0.86163 9.46386C1.33609 10.4289 1.99875 11.2894 2.81063 11.9946H0V14.0058H5.54114V13.9625H5.53967V11.8468C4.61397 11.3175 3.85122 10.5444 3.33447 9.61164C2.80959 8.64265 2.54359 7.55463 2.5622 6.45277C2.50376 5.26744 2.8973 4.1041 3.66333 3.19768C4.03022 2.79234 4.48169 2.47256 4.9858 2.26095C5.48991 2.04933 6.03435 1.95105 6.58063 1.97306C7.12504 1.953 7.66733 2.05123 8.17013 2.26097C8.67292 2.4707 9.12426 2.78696 9.49304 3.18795C10.2581 4.05587 10.6579 5.18601 10.6088 6.34195C10.6346 7.47056 10.3753 8.58745 9.85492 9.58927C9.33614 10.5325 8.56658 11.3138 7.63135 11.8469V13.9625H7.62988V14.0058H13.171V11.9946H10.3604Z"/></g></svg>
