<svg xmlns="http://www.w3.org/2000/svg" viewBox="0 0 24 24" width="16" height="16" fill="currentColor"><g transform="translate(4.901,4.999)"><path d="M7.5 0C3.4 0 0 3.4 0 7.5C0 11.6 3.4 15 7.5 15H11.3V13.5H7.5C4.2 13.5 1.5 10.8 1.5 7.5C1.5 4.2 4.2 1.5 7.5 1.5C10.8 1.5 13.5 4.2 13.5 7.5V8.6C13.5 9.2 13 9.8 12.4 9.8C11.8 9.8 11.3 9.2 11.3 8.6V7.5C11.3 5.4 9.6 3.7 7.5 3.7C5.4 3.7 3.8 5.4 3.8 7.5C3.8 9.6 5.5 11.3 7.6 11.3C8.6 11.3 9.6 10.9 10.3 10.2C10.8 10.9 11.6 11.3 12.5 11.3C14 11.3 15.1 10.1 15.1 8.6V7.5C15 3.4 11.7 0 7.5 0ZM7.5 9.7C6.3 9.7 5.2 8.7 5.2 7.5C5.2 6.3 6.2 5.2 7.5 5.2C8.8 5.2 9.8 6.2 9.8 7.5C9.8 8.8 8.7 9.7 7.5 9.7Z"/></g></svg>
