<svg xmlns="http://www.w3.org/2000/svg" viewBox="0 0 16 16" width="16" height="16" fill="currentColor"><g transform="translate(0,1)"><g><path d="M7.93842 1.0157C7.95578 1.00605 7.97748 1 8.00154 1C8.02561 1 8.04731 1.00605 8.06467 1.0157C8.07966 1.02403 8.09948 1.03926 8.11939 1.07312L14.9763 12.7398C15.012 12.8005 15.0113 12.864 14.9785 12.9231C14.962 12.9528 14.9415 12.9724 14.9238 12.9833C14.909 12.9925 14.8901 13 14.8585 13H1.14459C1.11303 13 1.09404 12.9925 1.07932 12.9833C1.06163 12.9724 1.04106 12.9528 1.02461 12.9231C0.991803 12.864 0.991085 12.8005 1.02675 12.7398L7.8837 1.07312C7.9036 1.03926 7.92343 1.02403 7.93842 1.0157ZM8.98151 0.566422C8.53763 -0.188807 7.46546 -0.188807 7.02158 0.566422L0.164626 12.2331C-0.292407 13.0107 0.256279 14 1.14459 14H14.8585C15.7468 14 16.2955 13.0107 15.8385 12.2331L8.98151 0.566422Z"/><path d="M7.00154 11C7.00154 10.4477 7.44926 10 8.00154 10C8.55383 10 9.00154 10.4477 9.00154 11C9.00154 11.5523 8.55383 12 8.00154 12C7.44926 12 7.00154 11.5523 7.00154 11Z"/><path d="M7.0995 4.99504C7.04623 4.46228 7.46459 4 8 4C8.53541 4 8.95377 4.46228 8.9005 4.99504L8.54975 8.50248C8.52151 8.78492 8.28384 9 8 9C7.71616 9 7.47849 8.78492 7.45025 8.50248L7.0995 4.99504Z"/></g></g></svg>
