<svg xmlns="http://www.w3.org/2000/svg" viewBox="0 0 24 24" width="16" height="16" fill="currentColor"><g transform="translate(4.999,3)"><path d="M2 0C0.9 0 0 0.9 0 2V16C0 17.1 0.9 18 2 18H12C13.1 18 14 17.1 14 16V4.6L9.4 0H2ZM12 16H2V2H8V6H12V16ZM11.3 10.5C11.1 9.9 10.2 9.7 8.7 9.7C8.6 9.7 8.6 9.7 8.5 9.7C8.2 9.4 7.7 8.8 7.5 8.5C7.3 8.3 7.2 8.2 7.1 7.9C7.3 7.2 7.3 6.9 7.4 6.4C7.5 5.5 7.4 4.8 7.2 4.6C6.8 4.4 6.5 4.4 6.3 4.4C6.2 4.4 6 4.6 5.6 5.1C5.4 5.8 5.5 6.9 6.2 7.9C6 8.7 5.5 9.5 5.2 10.3C4.4 10.5 3.7 11 3.3 11.4C2.6 12.1 2.4 12.5 2.6 13C2.6 13.3 2.8 13.6 3.3 13.6C3.6 13.5 3.6 13.4 4 13.3C4.6 13 5.2 11.6 5.7 10.9C6.5 10.7 7.4 10.6 7.7 10.6C7.8 10.6 8 10.6 8.3 10.6C9.1 11.4 9.5 11.7 10.1 11.8C10.2 11.8 10.3 11.8 10.4 11.8C10.7 11.8 11.2 11.7 11.4 11.2C11.4 11.1 11.4 10.9 11.3 10.5ZM3.3 12.7C3.2 12.8 3.1 12.8 3.1 12.8C3.1 12.7 3.1 12.5 3.7 12C3.9 11.8 4.3 11.7 4.6 11.3C4 12 3.6 12.5 3.3 12.7ZM6.3 6C6.3 5.9 6.4 5.8 6.4 5.8C6.4 5.8 6.6 6 6.5 7C6.5 7.1 6.5 7.3 6.4 7.7C6.3 7.1 6 6.5 6.3 6ZM5.9 10.1C6.1 9.5 6.5 9.1 6.6 8.6C6.7 8.7 6.7 8.7 6.8 8.8C6.9 9 7.1 9.5 7.5 9.7C7.2 9.8 6.6 10 5.9 10.1ZM10.2 11.1C10.1 11.1 10.1 11.1 10 11.1C9.8 11.1 9.3 10.9 9 10.4C10.1 10.4 10.6 10.6 10.6 11C10.5 11.1 10.4 11.1 10.2 11.1Z"/></g></svg>
