<svg xmlns="http://www.w3.org/2000/svg" viewBox="0 0 16 16" width="16" height="16" fill="currentColor"><g transform="translate(1.638,2.654) scale(0.667,0.667)"><path d="M14.443 0.01875C14.143 0.01875 13.943 0.21875 13.643 0.31875L0.842968 9.01875C-0.0570319 9.61875 -0.257032 10.9188 0.342968 11.8188L2.54297 15.1188C2.94297 15.8188 3.74297 16.1187 4.54297 15.9187C4.84297 15.9187 5.04297 15.7188 5.34297 15.6188L18.243 7.01875C19.143 6.41875 19.343 5.11875 18.743 4.21875L16.543 0.91875C16.043 0.21875 15.243 -0.08125 14.443 0.01875ZM14.443 5.91875L15.643 5.01875L13.643 2.11875L14.543 1.61875C14.643 1.61875 14.643 1.51875 14.743 1.51875C14.943 1.51875 15.143 1.51875 15.243 1.71875L17.443 5.01875C17.643 5.21875 17.543 5.51875 17.343 5.71875L4.54297 14.4187C4.44297 14.4187 4.44297 14.5188 4.34297 14.5188C4.14297 14.5188 3.94297 14.5187 3.84297 14.3187L1.64297 11.0188C1.44297 10.8188 1.54297 10.5188 1.74297 10.3188L2.54297 9.71875L4.54297 12.6188L5.74297 11.8188L3.74297 8.91875L5.04297 8.01875L6.14297 9.71875L7.34297 8.91875L6.24297 7.21875L7.44297 6.41875L9.44297 9.31875L10.643 8.51875L8.64297 5.61875L9.84297 4.81875L10.943 6.51875L12.143 5.71875L11.043 4.01875L12.443 3.01875L14.443 5.91875Z"/></g></svg>
