<svg xmlns="http://www.w3.org/2000/svg" viewBox="0 0 24 24" width="16" height="16" fill="currentColor"><g transform="translate(3,4.994)"><path d="M0 7.20769H18V8.70769H13.6342C13.8711 9.20491 13.9906 9.74988 13.9836 10.3006C13.9977 10.8231 13.8855 11.3413 13.6567 11.8112C13.428 12.2812 13.0893 12.689 12.6694 13.0003C11.6579 13.712 10.4378 14.0655 9.20251 14.0047C8.29996 14.0108 7.4062 13.8272 6.57916 13.4657C5.82387 13.1524 5.16917 12.6376 4.68652 11.9776C4.24212 11.3474 4.00762 10.5932 4.01636 9.82213V9.70875H4.30359V9.70765H4.64508V9.70875H6.02V9.82209C6.00433 10.1735 6.07382 10.5234 6.22253 10.8422C6.37125 11.1609 6.59479 11.439 6.87413 11.6528C7.55154 12.1351 8.372 12.3744 9.20249 12.332C9.93562 12.38 10.6645 12.1883 11.2792 11.7858C11.507 11.6173 11.6901 11.3955 11.8124 11.1399C11.9346 10.8842 11.9923 10.6024 11.9804 10.3193C11.9964 10.0457 11.9459 9.77238 11.8332 9.5226C11.7205 9.27281 11.5491 9.05401 11.3335 8.8849C11.2451 8.82087 11.1533 8.7617 11.0585 8.70765H0V7.20769ZM13.3447 2.06456C12.9232 1.40957 12.3271 0.885341 11.6236 0.550949C10.8394 0.177358 9.97928 -0.00958962 9.11072 0.00474919C7.8996 -0.0472287 6.70883 0.32879 5.74719 1.06688C5.33435 1.38573 5.00134 1.79623 4.77448 2.26595C4.54762 2.73567 4.43313 3.25171 4.44006 3.7733C4.43656 4.26759 4.54659 4.75609 4.76166 5.20116H7.35834C7.27496 5.14751 7.17297 5.09539 7.10565 5.04052C6.90219 4.89043 6.73702 4.69444 6.62358 4.46848C6.51014 4.24253 6.45164 3.99299 6.45282 3.74016C6.43773 3.45155 6.49242 3.16355 6.61226 2.90057C6.73209 2.63758 6.91354 2.40734 7.14124 2.22936C7.71733 1.82983 8.41088 1.63529 9.11072 1.67693C9.87165 1.62855 10.6231 1.86715 11.2167 2.34563C11.465 2.57942 11.6594 2.86443 11.7865 3.18088C11.9136 3.49733 11.9703 3.83764 11.9527 4.17821V4.29162H13.9559V4.17821C13.9592 3.42961 13.7471 2.69585 13.3447 2.06456V2.06456Z"/></g></svg>
