<svg xmlns="http://www.w3.org/2000/svg" viewBox="0 0 24 24" width="16" height="16" fill="currentColor"><g transform="translate(6.65,4.999) scale(1,1)"><path d="M8.6 6.8C9.08963 6.50184 9.50283 6.09342 9.80666 5.60729C10.1105 5.12116 10.2966 4.57077 10.35 4C10.3593 3.48388 10.2668 2.971 10.0778 2.49063C9.88882 2.01027 9.60706 1.57184 9.24861 1.20039C8.89016 0.828938 8.46205 0.531742 7.98872 0.325776C7.51539 0.119811 7.00612 0.00911107 6.49 0H0V14H7C7.49115 13.9948 7.97646 13.8929 8.42822 13.7001C8.87998 13.5073 9.28934 13.2274 9.63293 12.8764C9.97651 12.5253 10.2476 12.1101 10.4307 11.6543C10.6138 11.1985 10.7053 10.7112 10.7 10.22V10.1C10.7003 9.40711 10.5029 8.72852 10.1309 8.14395C9.75893 7.55939 9.22782 7.09315 8.6 6.8V6.8ZM2 2H6.2C6.62617 1.98681 7.04618 2.10428 7.40368 2.33665C7.76117 2.56902 8.03904 2.90517 8.2 3.3C8.36287 3.82779 8.3102 4.39859 8.05348 4.88765C7.79677 5.37672 7.3569 5.74428 6.83 5.91C6.62538 5.96996 6.41322 6.00027 6.2 6H2V2ZM6.6 12H2V8H6.6C7.02617 7.98681 7.44618 8.10428 7.80368 8.33665C8.16117 8.56902 8.43904 8.90517 8.6 9.3C8.76287 9.82779 8.7102 10.3986 8.45349 10.8877C8.19677 11.3767 7.7569 11.7443 7.23 11.91C7.02538 11.97 6.81322 12.0003 6.6 12V12Z"/></g></svg>
