<svg xmlns="http://www.w3.org/2000/svg" viewBox="0 0 24 24" width="16" height="16" fill="currentColor"><g transform="translate(2.794,4.498)"><path d="M7.12362 7.74239L14.8715 2.35222L16.051 3.64813L9.95695 10.8556L7.12362 7.74239ZM4.79351 8.15357L9.32884 13.1368C9.42273 13.2298 9.53529 13.3019 9.65908 13.3482C9.78287 13.3944 9.91507 13.4139 10.0469 13.4053C10.1788 13.3967 10.3074 13.3603 10.4241 13.2983C10.5409 13.2364 10.6431 13.1503 10.7241 13.0459L18.1755 4.23297C18.324 4.06986 18.408 3.85831 18.4119 3.63779C18.4159 3.41727 18.3394 3.20286 18.1968 3.03457L15.6839 0.273413C15.5297 0.115689 15.3234 0.0194451 15.1035 0.00264146C14.8836 -0.0141622 14.6651 0.0496229 14.4888 0.182093L5.0151 6.77292C4.90354 6.84379 4.80829 6.93752 4.73563 7.04792C4.66298 7.15833 4.61459 7.28289 4.59364 7.41339C4.5727 7.54388 4.57968 7.67734 4.61414 7.80493C4.64859 7.93253 4.70973 8.05136 4.79351 8.15357V8.15357ZM0 14.0293L5.61736 15.0016L7.09649 13.6554L4.0676 10.3274L0 14.0293Z"/></g></svg>
