<svg xmlns="http://www.w3.org/2000/svg" viewBox="0 0 24 24" width="16" height="16" fill="currentColor"><g transform="translate(9.559,4.999)"><path d="M2.2 4H4.2L2 14H0L2.2 4ZM3.88 0C3.68222 0 3.48888 0.0586491 3.32443 0.16853C3.15998 0.278412 3.03181 0.434591 2.95612 0.617317C2.88043 0.800043 2.86063 1.00111 2.89921 1.19509C2.9378 1.38907 3.03304 1.56725 3.17289 1.70711C3.31275 1.84696 3.49093 1.9422 3.68491 1.98079C3.87889 2.01937 4.07996 1.99957 4.26268 1.92388C4.44541 1.84819 4.60159 1.72002 4.71147 1.55557C4.82135 1.39112 4.88 1.19778 4.88 1C4.88 0.734784 4.77464 0.48043 4.58711 0.292893C4.39957 0.105357 4.14522 0 3.88 0Z"/></g></svg>
