<svg xmlns="http://www.w3.org/2000/svg" viewBox="0 0 24 24" width="16" height="16" fill="currentColor"><g transform="translate(4.001,7.001) scale(1,1)"><path d="M6.4 5L10 8.6L8.6 10L5 6.4L1.4 10L0 8.6L3.6 5L0 1.4L1.4 0L5 3.6L8.6 0L10 1.4L6.4 5ZM14.3123 12.674L15.3805 11.5275C15.5765 11.3261 15.7514 11.1201 15.9173 10.9187C16.077 10.7245 16.2215 10.5182 16.3493 10.3017C16.469 10.1015 16.567 9.88921 16.6418 9.6683C16.7128 9.45338 16.7488 9.22844 16.7484 9.00209C16.7514 8.72072 16.6994 8.44147 16.5953 8.18003C16.4968 7.93428 16.3427 7.71469 16.1451 7.53843C15.9353 7.35488 15.6899 7.21652 15.4242 7.13197C14.7861 6.94192 14.1044 6.95754 13.4757 7.17662C13.1887 7.28507 12.9283 7.45382 12.712 7.67149C12.5032 7.88007 12.3413 8.13081 12.2372 8.40697C12.1371 8.67345 12.0844 8.95535 12.0813 9.23997L12.0777 9.47697H13.617L13.6234 9.25005C13.625 9.12338 13.643 8.99747 13.6772 8.87547C13.7105 8.76839 13.7637 8.66854 13.8339 8.5811C13.905 8.50073 13.9935 8.43775 14.0928 8.397C14.3174 8.30801 14.5665 8.30283 14.7946 8.38242C14.8768 8.4185 14.9501 8.47199 15.0096 8.53921C15.0704 8.61095 15.1171 8.6935 15.1473 8.78254C15.1829 8.89078 15.2014 9.00395 15.202 9.11792C15.2008 9.20751 15.1901 9.29673 15.17 9.38404C15.1409 9.48832 15.0993 9.58869 15.046 9.68297C14.9687 9.81918 14.8806 9.949 14.7827 10.0712C14.6483 10.2458 14.505 10.4135 14.3534 10.5734L12.197 12.9265V14H17V12.674H14.3123Z"/></g></svg>
