<svg xmlns="http://www.w3.org/2000/svg" viewBox="0 0 24 24" width="16" height="16" fill="currentColor"><g transform="translate(2.138,4.999) scale(1,1)"><path d="M7.762 8.313C7.77058 8.2061 7.79345 8.10083 7.83 8H4.139L5.999 2.8L7.84 7.948C7.9146 7.67728 8.07543 7.43826 8.29812 7.26719C8.5208 7.09611 8.7932 7.00231 9.074 7H9.5L7 0H5L0 14H2L3.43 10H7.762V8.313ZM10.413 15.04C9.94618 14.475 9.71199 13.7535 9.758 13.022V10.312C9.7576 10.1396 9.79127 9.96881 9.85707 9.80945C9.92286 9.65009 10.0195 9.5053 10.1414 9.38339C10.2633 9.26148 10.4081 9.16486 10.5675 9.09906C10.7268 9.03327 10.8976 8.9996 11.07 9H14.183C14.9661 9.09082 15.6832 9.48238 16.183 10.092C16.183 10.092 17.911 11.91 19.147 13.02C19.2948 13.1258 19.4202 13.2598 19.5162 13.4141C19.6121 13.5685 19.6767 13.7402 19.7063 13.9196C19.7358 14.0989 19.7297 14.2823 19.6883 14.4593C19.6469 14.6363 19.571 14.8034 19.465 14.951C19.409 15.0288 19.3453 15.1008 19.275 15.166L15.928 18.476C15.7191 18.753 15.4089 18.9357 15.0654 18.9841C14.7219 19.0325 14.3732 18.9425 14.096 18.734V18.734C13.9982 18.661 13.9113 18.5745 13.838 18.477L12.128 16.749L10.413 15.04ZM12.893 11.08C12.6883 11.0811 12.4924 11.1632 12.3483 11.3085C12.2041 11.4538 12.1235 11.6503 12.124 11.855C12.1245 12.0597 12.2062 12.2558 12.3511 12.4003C12.496 12.5448 12.6923 12.626 12.897 12.626C13.1017 12.626 13.298 12.5448 13.4429 12.4003C13.5878 12.2558 13.6695 12.0597 13.67 11.855C13.6705 11.6503 13.5899 11.4538 13.4457 11.3085C13.3016 11.1632 13.1057 11.0811 12.901 11.08H12.893Z"/></g></svg>
