<svg xmlns="http://www.w3.org/2000/svg" viewBox="0 0 24 24" width="16" height="16" fill="currentColor"><g transform="translate(3.55,4.999) scale(1,1)"><path d="M10 14H12L7 0H5L0 14H2L3.4 10H8.5L10 14ZM4.1 8L6 2.8L7.9 8H4.1ZM16.9 12.5C16.9 12.7967 16.812 13.0867 16.6472 13.3334C16.4824 13.58 16.2481 13.7723 15.974 13.8858C15.6999 13.9993 15.3983 14.0291 15.1074 13.9712C14.8164 13.9133 14.5491 13.7704 14.3393 13.5607C14.1296 13.3509 13.9867 13.0836 13.9288 12.7926C13.8709 12.5017 13.9006 12.2001 14.0142 11.926C14.1277 11.6519 14.32 11.4176 14.5666 11.2528C14.8133 11.088 15.1033 11 15.4 11C15.7978 11 16.1794 11.158 16.4607 11.4393C16.742 11.7206 16.9 12.1022 16.9 12.5V12.5ZM16.9 8.5C16.9 8.79667 16.812 9.08668 16.6472 9.33335C16.4824 9.58003 16.2481 9.77229 15.974 9.88582C15.6999 9.99935 15.3983 10.0291 15.1074 9.97118C14.8164 9.9133 14.5491 9.77044 14.3393 9.56066C14.1296 9.35088 13.9867 9.08361 13.9288 8.79264C13.8709 8.50166 13.9006 8.20006 14.0142 7.92597C14.1277 7.65189 14.32 7.41762 14.5666 7.2528C14.8133 7.08797 15.1033 7 15.4 7C15.7978 7 16.1794 7.15804 16.4607 7.43934C16.742 7.72064 16.9 8.10218 16.9 8.5V8.5ZM16.9 4.5C16.9 4.79667 16.812 5.08668 16.6472 5.33335C16.4824 5.58003 16.2481 5.77229 15.974 5.88582C15.6999 5.99935 15.3983 6.02906 15.1074 5.97118C14.8164 5.9133 14.5491 5.77044 14.3393 5.56066C14.1296 5.35088 13.9867 5.08361 13.9288 4.79264C13.8709 4.50166 13.9006 4.20006 14.0142 3.92597C14.1277 3.65189 14.32 3.41762 14.5666 3.2528C14.8133 3.08797 15.1033 3 15.4 3C15.7978 3 16.1794 3.15804 16.4607 3.43934C16.742 3.72064 16.9 4.10218 16.9 4.5V4.5Z"/></g></svg>
