<svg xmlns="http://www.w3.org/2000/svg" viewBox="0 0 24 24" width="16" height="16" fill="currentColor"><g transform="translate(5.1,4.999)"><path d="M10.1 8.494C10.1 8.494 6.5 12.394 6.5 14.794C6.49343 15.2733 6.58134 15.7492 6.75871 16.1946C6.93607 16.64 7.19941 17.046 7.53371 17.3896C8.20884 18.0835 9.13196 18.4807 10.1 18.494C11.068 18.5073 12.0017 18.1354 12.6956 17.4603C13.0392 17.126 13.3135 16.7273 13.503 16.287C13.6925 15.8467 13.7934 15.3733 13.8 14.894V14.794C13.8 12.394 10.1 8.494 10.1 8.494ZM8.63 7.137L9.299 6.413L7 0H5L0 14H2L3.43 10H6.373C7.05168 8.99091 7.80478 8.03392 8.626 7.137H8.63ZM6 2.8L7.86 8H4.144L6 2.8Z"/></g></svg>
