<svg xmlns="http://www.w3.org/2000/svg" viewBox="0 0 16 16" width="16" height="16" fill="currentColor"><g transform="translate(0.501,1.206)"><path d="M8.20711 0.292893C7.81658 -0.0976301 7.18342 -0.0976322 6.79289 0.292893L0.146447 6.93934C-0.0488155 7.1346 -0.0488155 7.45118 0.146447 7.64645C0.341709 7.84171 0.658291 7.84171 0.853553 7.64645L1.5 7V12.2929C1.5 13.1213 2.17157 13.7929 3 13.7929H12C12.8284 13.7929 13.5 13.1213 13.5 12.2929V7L14.1464 7.64645C14.3417 7.84171 14.6583 7.84171 14.8536 7.64645C15.0488 7.45118 15.0488 7.1346 14.8536 6.93934L12.5 4.58579V1.29289C12.5 1.01675 12.2761 0.792893 12 0.792893H11C10.7239 0.792893 10.5 1.01675 10.5 1.29289V2.58579L8.20711 0.292893ZM12.5 6V12.2929C12.5 12.569 12.2761 12.7929 12 12.7929H3C2.72386 12.7929 2.5 12.569 2.5 12.2929V6L7.5 1L12.5 6Z"/></g></svg>
