<svg xmlns="http://www.w3.org/2000/svg" viewBox="0 0 16 16" width="16" height="16" fill="currentColor"><g transform="translate(6.501,3.501) scale(1,1)"><g><path d="M2.4307 3.08789L0.139687 3.375L0.0576563 3.75586L0.508828 3.83789C0.801797 3.9082 0.860391 4.01367 0.795937 4.30664L0.0576563 7.77539C-0.135703 8.67188 0.163125 9.09375 0.86625 9.09375C1.41117 9.09375 2.04398 8.8418 2.33109 8.49609L2.41898 8.08008C2.21977 8.25586 1.9268 8.32617 1.73344 8.32617C1.45805 8.32617 1.35844 8.13281 1.42875 7.79297L2.4307 3.08789Z"/><path d="M2.5 1C2.5 1.55228 2.05228 2 1.5 2C0.947715 2 0.5 1.55228 0.5 1C0.5 0.447715 0.947715 0 1.5 0C2.05228 0 2.5 0.447715 2.5 1Z"/></g></g></svg>
