<svg xmlns="http://www.w3.org/2000/svg" viewBox="0 0 16 16" width="16" height="16" fill="currentColor"><g transform="translate(1.328,3.333) scale(0.667,0.667)"><path d="M2.00701 4C2.00701 2.9 2.90701 2 4.00701 2V6C2.90701 6 2.00701 5.1 2.00701 4ZM14.707 15.5L17.907 17.4L17.007 13.8L20.007 10.9H16.307L14.907 7.4L13.307 11H9.50701L12.407 13.9L11.507 17.5L14.707 15.5ZM8.00701 12.4V14H9.60701L8.00701 12.4ZM4.10701 0C2.20701 0 0.507014 1.3 0.107014 3.2C-0.392986 5.3 0.907014 7.4 3.00701 7.9H3.20701C3.50701 8 3.80701 8 4.00701 8V14H6.00701V2H8.00701V9H10.007V2H12.007V0H4.10701Z"/></g></svg>
