<svg xmlns="http://www.w3.org/2000/svg" viewBox="0 0 24 24" width="16" height="16" fill="currentColor"><g transform="translate(3.53,4.999)"><path d="M4.15235 0.000538024C3.2126 -0.0146638 2.29603 0.292681 1.55542 0.871341C0.814807 1.45 0.294896 2.26502 0.0823478 3.18054C-0.131775 4.21952 0.0755858 5.30101 0.658818 6.18711C1.24205 7.07321 2.15338 7.69134 3.19235 7.90554V7.90554L3.21935 7.91054C3.48856 7.97047 3.76354 8.00065 4.03935 8.00054V14.0005H6.03935V2.00054H8.03935V14.0005H10.0393V2.00054H12.0393V0.000538024H4.15235ZM2.00235 4.00054C2.00235 3.4701 2.21306 2.9614 2.58813 2.58632C2.96321 2.21125 3.47191 2.00054 4.00235 2.00054V6.00054C3.47191 6.00054 2.96321 5.78982 2.58813 5.41475C2.21306 5.03968 2.00235 4.53097 2.00235 4.00054ZM16.9423 12.4915C16.9423 12.7882 16.8544 13.0782 16.6896 13.3249C16.5247 13.5716 16.2905 13.7638 16.0164 13.8774C15.7423 13.9909 15.4407 14.0206 15.1497 13.9627C14.8587 13.9048 14.5915 13.762 14.3817 13.5522C14.1719 13.3424 14.029 13.0751 13.9712 12.7842C13.9133 12.4932 13.943 12.1916 14.0565 11.9175C14.1701 11.6434 14.3623 11.4092 14.609 11.2443C14.8557 11.0795 15.1457 10.9915 15.4423 10.9915C15.8402 10.9915 16.2217 11.1496 16.503 11.4309C16.7843 11.7122 16.9423 12.0937 16.9423 12.4915ZM16.9423 8.49154C16.9423 8.78821 16.8544 9.07822 16.6896 9.32489C16.5247 9.57157 16.2905 9.76383 16.0164 9.87736C15.7423 9.99089 15.4407 10.0206 15.1497 9.96272C14.8587 9.90484 14.5915 9.76198 14.3817 9.5522C14.1719 9.34242 14.029 9.07514 13.9712 8.78417C13.9133 8.4932 13.943 8.1916 14.0565 7.91751C14.1701 7.64342 14.3623 7.40916 14.609 7.24433C14.8557 7.07951 15.1457 6.99154 15.4423 6.99154C15.8402 6.99154 16.2217 7.14957 16.503 7.43088C16.7843 7.71218 16.9423 8.09371 16.9423 8.49154ZM16.9423 4.49154C16.9423 4.78821 16.8544 5.07822 16.6896 5.32489C16.5247 5.57157 16.2905 5.76383 16.0164 5.87736C15.7423 5.99089 15.4407 6.02059 15.1497 5.96272C14.8587 5.90484 14.5915 5.76198 14.3817 5.5522C14.1719 5.34242 14.029 5.07514 13.9712 4.78417C13.9133 4.4932 13.943 4.1916 14.0565 3.91751C14.1701 3.64342 14.3623 3.40916 14.609 3.24433C14.8557 3.07951 15.1457 2.99154 15.4423 2.99154C15.8402 2.99154 16.2217 3.14957 16.503 3.43088C16.7843 3.71218 16.9423 4.09371 16.9423 4.49154Z"/></g></svg>
