<svg xmlns="http://www.w3.org/2000/svg" viewBox="0 0 24 24" width="16" height="16" fill="currentColor"><g transform="translate(5.995,4.999) scale(1,1)"><path d="M4.15495 0.000538024C3.21521 -0.0146638 2.29864 0.292681 1.55802 0.871341C0.817412 1.45 0.297501 2.26502 0.0849528 3.18054C-0.0370815 3.76318 -0.0275318 4.36572 0.112905 4.9442C0.253343 5.52269 0.521126 6.06253 0.896726 6.52437C1.27233 6.9862 1.74627 7.35838 2.284 7.61376C2.82172 7.86914 3.40967 8.00127 4.00495 8.00054V14.0005H6.00495V2.00054H8.00495V14.0005H10.005V2.00054H12.005V0.000538024H4.15495ZM2.00495 4.00054C2.00495 3.4701 2.21567 2.9614 2.59074 2.58632C2.96581 2.21125 3.47452 2.00054 4.00495 2.00054V6.00054C3.47452 6.00054 2.96581 5.78982 2.59074 5.41475C2.21567 5.03968 2.00495 4.53097 2.00495 4.00054Z"/></g></svg>
