<svg xmlns="http://www.w3.org/2000/svg" viewBox="0 0 16 16" width="16" height="16" fill="currentColor"><g transform="translate(1.715,1.947) scale(0.667,0.667)"><path d="M18.1653 12.5393C17.8622 12.1088 17.4652 11.7529 17.0044 11.4982C16.5436 11.2436 16.0309 11.097 15.5052 11.0694C14.9794 11.0418 14.4542 11.1339 13.9693 11.3389C13.4843 11.5439 13.0523 11.8563 12.7057 12.2526L6.99255 9.58857C7.03884 9.25217 7.0359 8.91082 6.98382 8.57526L12.7056 5.90717C13.2709 6.55007 14.049 6.96758 14.8973 7.08311C15.7455 7.19865 16.607 7.00445 17.3236 6.53616C18.0403 6.06786 18.564 5.35687 18.7988 4.53361C19.0336 3.71036 18.9637 2.83005 18.6019 2.05418C18.2401 1.27831 17.6106 0.658917 16.8291 0.309622C16.0475 -0.0396725 15.1662 -0.0954412 14.3468 0.152547C13.5274 0.400535 12.8249 0.93565 12.3682 1.65972C11.9115 2.3838 11.7311 3.24827 11.8603 4.09455L6.13611 6.76386C5.66372 6.22997 5.03989 5.85265 4.3477 5.68213C3.65551 5.51162 2.9278 5.55601 2.26147 5.80939C1.59514 6.06277 1.0218 6.51312 0.617799 7.10048C0.213798 7.68783 -0.00169633 8.38432 1.00561e-05 9.0972C0.00171644 9.81008 0.220542 10.5055 0.62735 11.0909C1.03416 11.6764 1.60965 12.124 2.27718 12.3741C2.94472 12.6243 3.67264 12.6652 4.364 12.4914C5.05537 12.3176 5.67738 11.9373 6.14721 11.4011L11.8604 14.0653C11.7771 14.6316 11.834 15.2098 12.0263 15.7491C12.2186 16.2883 12.5402 16.7721 12.9631 17.158C13.386 17.5439 13.8971 17.8201 14.4517 17.9623C15.0062 18.1046 15.5872 18.1086 16.1436 17.9739C16.7 17.8392 17.2148 17.57 17.6429 17.1899C18.0711 16.8099 18.3993 16.3305 18.5989 15.7939C18.7985 15.2574 18.8634 14.68 18.7878 14.1126C18.7122 13.5451 18.4985 13.0048 18.1653 12.5393ZM15.4339 2.09052C15.7297 2.11357 16.012 2.22381 16.2451 2.40729C16.4782 2.59078 16.6516 2.83926 16.7435 3.12133C16.8354 3.4034 16.8416 3.70638 16.7613 3.99197C16.681 4.27755 16.5178 4.5329 16.2923 4.72574C16.0669 4.91857 15.7894 5.04023 15.4948 5.07532C15.2002 5.11041 14.9018 5.05736 14.6374 4.92288C14.373 4.7884 14.1544 4.57853 14.0092 4.31981C13.8641 4.06108 13.7989 3.76513 13.822 3.46936C13.8529 3.07276 14.0401 2.70469 14.3424 2.4461C14.6447 2.18752 15.0373 2.05962 15.4339 2.09052V2.09052ZM3.41882 10.5753C3.12307 10.5523 2.8408 10.442 2.6077 10.2585C2.3746 10.0751 2.20115 9.82657 2.10927 9.54451C2.01739 9.26245 2.01122 8.95947 2.09154 8.6739C2.17185 8.38833 2.33504 8.13299 2.56047 7.94016C2.7859 7.74734 3.06345 7.62569 3.35802 7.59061C3.65259 7.55552 3.95094 7.60858 4.21536 7.74306C4.47978 7.87754 4.69838 8.08741 4.84352 8.34613C4.98866 8.60484 5.05382 8.90079 5.03076 9.19654C5.01546 9.39292 4.96163 9.58436 4.87234 9.75993C4.78305 9.9355 4.66005 10.0918 4.51037 10.2198C4.36069 10.3478 4.18725 10.4451 3.99996 10.5061C3.81267 10.5671 3.6152 10.5906 3.41882 10.5753V10.5753ZM15.2009 16.0693C14.9052 16.0463 14.6229 15.936 14.3898 15.7526C14.1567 15.5691 13.9832 15.3206 13.8913 15.0385C13.7994 14.7565 13.7932 14.4535 13.8735 14.1679C13.9538 13.8823 14.117 13.627 14.3425 13.4341C14.5679 13.2413 14.8455 13.1196 15.14 13.0845C15.4346 13.0494 15.733 13.1025 15.9974 13.237C16.2618 13.3714 16.4804 13.5813 16.6256 13.84C16.7707 14.0988 16.8359 14.3947 16.8129 14.6905C16.7976 14.8869 16.7437 15.0783 16.6544 15.2539C16.5652 15.4294 16.4422 15.5857 16.2925 15.7137C16.1428 15.8418 15.9694 15.9391 15.7821 16.0001C15.5948 16.0611 15.3973 16.0846 15.2009 16.0693V16.0693Z"/></g></svg>
