<svg xmlns="http://www.w3.org/2000/svg" viewBox="0 0 24 24" width="16" height="16" fill="currentColor"><g transform="translate(2.95,3.499) scale(1,1)"><path d="M13.65 8.9L4.65 0L3.25 1.4L5.65 3.8L0.45 9C-0.15 9.6 -0.15 10.5 0.45 11.1L5.95 16.6C6.25 16.9 6.65 17 7.05 17C7.45 17 7.85 16.9 8.15 16.6L13.65 11.1C14.25 10.5 14.25 9.5 13.65 8.9ZM2.25 10L7.05 5.2L11.85 10H2.25ZM16.05 11.5C16.05 11.5 14.05 13.7 14.05 15C14.05 16.1 14.95 17 16.05 17C17.15 17 18.05 16.1 18.05 15C18.05 13.7 16.05 11.5 16.05 11.5Z"/></g></svg>
