<svg xmlns="http://www.w3.org/2000/svg" viewBox="0 0 24 24" width="16" height="16" fill="currentColor"><g transform="translate(1.999,4.999)"><path d="M18 0H2C0.9 0 0 0.9 0 2V12C0 13.1 0.9 14 2 14H18C19.1 14 20 13.1 20 12V2C20 0.9 19.1 0 18 0ZM7.5 1.5H12.5V4H7.5V1.5ZM6 12.5H2C1.7 12.5 1.5 12.3 1.5 12.1V12V10H6V12.5ZM6 8.5H1.5V5.5H6V8.5ZM6 4H1.5V2C1.5 1.7 1.7 1.5 1.9 1.5H6V4ZM12.5 12.5H7.5V10H12.5V12.5ZM18.5 12C18.5 12.3 18.3 12.5 18.1 12.5H14V10H18.5V12ZM18.5 8.5H14V5.5H18.5V8.5ZM18.5 4H14V1.5H18C18.3 1.5 18.5 1.7 18.5 1.9V4Z"/></g></svg>
