<svg xmlns="http://www.w3.org/2000/svg" viewBox="0 0 16 16" width="16" height="16" fill="currentColor"><g transform="translate(1.333,3.333) scale(0.667,0.667)"><path d="M18.0171 14.8975L18.9171 18.4975L15.7171 16.5975L12.4171 18.4975L13.2171 14.8975L10.3171 11.9975H14.1171L15.8171 8.49752L17.2171 11.9975H21.0171L18.0171 14.8975ZM18 0H2C1.47005 0.00155911 0.962244 0.212773 0.587509 0.587509C0.212773 0.962244 0.00155911 1.47005 0 2V12C0.00155911 12.53 0.212773 13.0378 0.587509 13.4125C0.962244 13.7872 1.47005 13.9984 2 14H9.49115L8.90289 13.4117L7.99115 12.5H7.5V9.9975H12.8651L14 7.66089V5.5H18.5V8.5H17.9722L18.5712 9.9975H20V2C19.9984 1.47005 19.7872 0.962244 19.4125 0.587509C19.0378 0.212773 18.53 0.00155911 18 0ZM1.5 2C1.49597 1.93329 1.50615 1.86648 1.52985 1.804C1.55356 1.74151 1.59025 1.68476 1.6375 1.6375C1.68476 1.59025 1.74151 1.55356 1.804 1.52985C1.86648 1.50615 1.93329 1.49597 2 1.5H6V4H1.5V2ZM1.5 5.5H6V8.5H1.5V5.5ZM2 12.5C1.93329 12.504 1.86648 12.4939 1.804 12.4701C1.74151 12.4464 1.68476 12.4098 1.6375 12.3625C1.59025 12.3152 1.55356 12.2585 1.52985 12.196C1.50615 12.1335 1.49597 12.0667 1.5 12V10H6V12.5H2ZM12.5 8.5H7.5V5.5H12.5V8.5ZM12.5 4H7.5V1.5H12.5V4ZM18.5 4H14V1.5H18C18.0667 1.49597 18.1335 1.50615 18.196 1.52985C18.2585 1.55356 18.3152 1.59025 18.3625 1.6375C18.4098 1.68476 18.4464 1.74151 18.4701 1.804C18.4939 1.86648 18.504 1.93329 18.5 2V4Z"/></g></svg>
