<svg xmlns="http://www.w3.org/2000/svg" viewBox="0 0 24 24" width="16" height="16" fill="currentColor"><g transform="translate(1.999,4.999)"><path d="M18 14.9L18.9 18.5L15.7 16.6L12.4 18.5L13.2 14.9L10.3 12H14.1L15.8 8.5L17.2 12H21L18 14.9ZM18 0H2C0.9 0 0 0.9 0 2V12C0 13.1 0.9 14 2 14H9.5L8.9 13.4L8 12.5H7.5V10H12.9L14 7.7V5.5H18.5V8.5H18L18.6 10H20V2C20 0.9 19.1 0 18 0ZM1.5 2C1.5 1.7 1.7 1.5 1.9 1.5C1.9 1.5 1.9 1.5 2 1.5H6V4H1.5V2ZM1.5 5.5H6V8.5H1.5V5.5ZM2 12.5C1.7 12.5 1.5 12.3 1.5 12.1C1.5 12.1 1.5 12.1 1.5 12V10H6V12.5H2ZM12.5 4H7.5V1.5H12.5V4ZM18.5 4H14V1.5H18C18.3 1.5 18.5 1.7 18.5 1.9C18.5 1.9 18.5 1.9 18.5 2V4Z"/></g></svg>
