<svg width="24" height="24" viewBox="0 0 24 24" fill="none" xmlns="http://www.w3.org/2000/svg">
<path d="M18.877 12.907C18.9623 12.3053 18.9623 11.6947 18.877 11.093L20.829 9.567C20.9145 9.49713 20.9725 9.39929 20.9928 9.29077C21.0131 9.18226 20.9944 9.07006 20.94 8.974L19.089 5.774C19.048 5.70267 18.9886 5.64364 18.917 5.60301C18.8454 5.56239 18.7643 5.54167 18.682 5.543C18.6284 5.54225 18.5751 5.55175 18.525 5.571L16.225 6.496C15.747 6.12503 15.2213 5.81997 14.662 5.589L14.31 3.137C14.2947 3.02826 14.2402 2.92886 14.1568 2.85742C14.0734 2.78599 13.9668 2.74744 13.857 2.749H10.157C10.047 2.74719 9.94019 2.78563 9.85658 2.85709C9.77297 2.92854 9.71835 3.02809 9.703 3.137L9.347 5.588C8.78877 5.82379 8.26314 6.13029 7.783 6.5L5.483 5.575C5.42961 5.5565 5.37351 5.54704 5.317 5.547C5.23582 5.5465 5.15597 5.56764 5.08567 5.60824C5.01536 5.64884 4.95715 5.70744 4.917 5.778L3.066 8.978C3.00931 9.07346 2.98932 9.18629 3.00974 9.29542C3.03017 9.40455 3.08962 9.50251 3.177 9.571L5.129 11.097C5.08846 11.3964 5.06642 11.6979 5.063 12C5.06559 12.3034 5.08696 12.6063 5.127 12.907L3.175 14.433C3.08953 14.5029 3.03151 14.6007 3.0112 14.7092C2.99088 14.8177 3.00959 14.9299 3.064 15.026L4.915 18.226C4.95605 18.2973 5.01544 18.3564 5.08701 18.397C5.15858 18.4376 5.23972 18.4583 5.322 18.457C5.37564 18.4578 5.42893 18.4483 5.479 18.429L7.779 17.504C8.25723 17.8752 8.7833 18.1803 9.343 18.411L9.7 20.864C9.71535 20.9729 9.76997 21.0725 9.85358 21.1439C9.93719 21.2154 10.044 21.2538 10.154 21.252H13.854C13.9638 21.2536 14.0704 21.215 14.1538 21.1436C14.2372 21.0721 14.2917 20.9727 14.307 20.864L14.659 18.412C15.2165 18.1775 15.7418 17.8727 16.222 17.505L18.522 18.43C18.5757 18.4485 18.6322 18.458 18.689 18.458C18.7702 18.4585 18.85 18.4374 18.9203 18.3968C18.9906 18.3562 19.0489 18.2976 19.089 18.227L20.94 15.027C20.9944 14.9309 21.0131 14.8187 20.9928 14.7102C20.9725 14.6017 20.9145 14.5039 20.829 14.434L18.877 12.907ZM18.787 14.936L17.933 16.412L15.816 15.56L15.143 16.068C14.7847 16.3418 14.3937 16.5699 13.979 16.747L13.184 17.07L12.854 19.339H11.154L10.834 17.07L10.041 16.748C9.63249 16.5762 9.24715 16.3538 8.894 16.086L8.2 15.56L6.067 16.42L5.213 14.945L7.019 13.534L6.919 12.687C6.891 12.395 6.873 12.187 6.873 12C6.873 11.813 6.891 11.6 6.918 11.328L7.024 10.474L5.217 9.064L6.071 7.589L8.188 8.44L8.861 7.932C9.21928 7.65818 9.61029 7.43009 10.025 7.253L10.825 6.93L11.156 4.661H12.856L13.177 6.93L13.969 7.252C14.3778 7.42346 14.7635 7.64552 15.117 7.913L15.801 8.439L17.934 7.58L18.787 9.053L16.987 10.474L17.087 11.321C17.1177 11.546 17.1331 11.7729 17.133 12C17.133 12.193 17.115 12.4 17.088 12.672L16.982 13.525L18.787 14.936ZM12 14.544C11.4969 14.5436 11.0053 14.3941 10.5872 14.1143C10.1691 13.8345 9.84332 13.4371 9.65108 12.9722C9.45883 12.5073 9.40874 11.9958 9.50713 11.5025C9.60551 11.0091 9.84796 10.556 10.2038 10.2004C10.5597 9.84483 11.013 9.60274 11.5064 9.50474C11.9999 9.40674 12.5113 9.45723 12.976 9.64984C13.4407 9.84245 13.8379 10.1685 14.1174 10.5868C14.3968 11.0052 14.546 11.4969 14.546 12C14.5439 12.6744 14.2749 13.3206 13.7978 13.7973C13.3208 14.2739 12.6744 14.5424 12 14.544Z" fill="currentColor"/>
</svg>
