<svg width="24" height="24" viewBox="0 0 24 24" fill="none" xmlns="http://www.w3.org/2000/svg">
<path d="M12 6.66667C13.1267 6.66834 14.218 7.06008 15.0885 7.77532C15.959 8.49056 16.555 9.48515 16.7752 10.5901L17.0714 12.0928L18.5994 12.1986C19.266 12.2427 19.8893 12.5446 20.3371 13.0404C20.7849 13.5362 21.022 14.1869 20.9983 14.8545C20.9745 15.5222 20.6917 16.1544 20.2098 16.6171C19.7279 17.0798 19.0848 17.3367 18.4167 17.3333H6.50001C5.60529 17.3339 4.74436 16.9916 4.09432 16.3768C3.44428 15.762 3.05456 14.9214 3.00532 14.0281C2.95609 13.1347 3.25108 12.2564 3.82961 11.5739C4.40815 10.8914 5.22624 10.4565 6.11561 10.3588L7.18243 10.2454L7.67801 9.29387C8.0879 8.50147 8.70799 7.83717 9.47034 7.37377C10.2327 6.91037 11.1079 6.66573 12 6.66667ZM12 4.66667C10.7423 4.66693 9.50881 5.01239 8.43392 5.6654C7.35904 6.31842 6.484 7.25393 5.90418 8.37C4.50556 8.52187 3.21838 9.20414 2.30759 10.2764C1.3968 11.3486 0.931705 12.7292 1.00805 14.1339C1.0844 15.5387 1.69637 16.8608 2.718 17.828C3.73963 18.7952 5.09317 19.3339 6.50001 19.3333H18.4167C19.6033 19.3368 20.7447 18.8786 21.5995 18.0556C22.4544 17.2327 22.9556 16.1095 22.9973 14.9237C23.039 13.7378 22.6178 12.5822 21.8228 11.7013C21.0278 10.8204 19.9214 10.2832 18.7375 10.2033C18.4296 8.64289 17.5895 7.23775 16.3607 6.22794C15.1318 5.21812 13.5905 4.66628 12 4.66667ZM12.9998 11.9136H14.9138L11.9998 9L9.08619 11.9136H10.9998V14.9136L11 16H13V14L12.9998 11.9136Z" fill="currentColor"/>
</svg>
