<svg width="24" height="24" viewBox="0 0 24 24" fill="none" xmlns="http://www.w3.org/2000/svg">
<path d="M13.0938 16.2485H10.9062C10.543 16.2485 10.25 15.8931 10.25 15.4517V9.87354H7.85156C7.36719 9.87354 7.12109 9.15869 7.46484 8.74072L11.625 3.68604C11.832 3.43994 12.168 3.43994 12.3711 3.68604L16.5352 8.74072C16.8789 9.15869 16.6328 9.87354 16.1484 9.87354H13.75V15.4517C13.75 15.8931 13.457 16.2485 13.0938 16.2485ZM19 15.9829V19.7017C19 20.1431 18.707 20.4985 18.3438 20.4985H5.65625C5.29297 20.4985 5 20.1431 5 19.7017V15.9829C5 15.5415 5.29297 15.186 5.65625 15.186H9.375V15.4517C9.375 16.479 10.0625 17.311 10.9062 17.311H13.0938C13.9375 17.311 14.625 16.479 14.625 15.4517V15.186H18.3438C18.707 15.186 19 15.5415 19 15.9829ZM15.6094 18.9048C15.6094 18.5376 15.3633 18.2407 15.0625 18.2407C14.7617 18.2407 14.5156 18.5376 14.5156 18.9048C14.5156 19.272 14.7617 19.5688 15.0625 19.5688C15.3633 19.5688 15.6094 19.272 15.6094 18.9048ZM17.3594 18.9048C17.3594 18.5376 17.1133 18.2407 16.8125 18.2407C16.5117 18.2407 16.2656 18.5376 16.2656 18.9048C16.2656 19.272 16.5117 19.5688 16.8125 19.5688C17.1133 19.5688 17.3594 19.272 17.3594 18.9048Z" fill="currentColor"/>
</svg>
