<svg width="24" height="24" viewBox="0 0 24 24" fill="none" xmlns="http://www.w3.org/2000/svg">
<path d="M16.5 13H10.5V19H8.5V13H2.5V11H8.5V5H10.5V11H16.5V13ZM21.5 17.5C21.5 17.7967 21.412 18.0867 21.2472 18.3334C21.0824 18.58 20.8481 18.7723 20.574 18.8858C20.2999 18.9993 19.9983 19.0291 19.7074 18.9712C19.4164 18.9133 19.1491 18.7704 18.9393 18.5607C18.7296 18.3509 18.5867 18.0836 18.5288 17.7926C18.4709 17.5017 18.5007 17.2001 18.6142 16.926C18.7277 16.6519 18.92 16.4176 19.1666 16.2528C19.4133 16.088 19.7033 16 20 16C20.3978 16 20.7794 16.158 21.0607 16.4393C21.342 16.7206 21.5 17.1022 21.5 17.5ZM21.5 13.5C21.5 13.7967 21.412 14.0867 21.2472 14.3334C21.0824 14.58 20.8481 14.7723 20.574 14.8858C20.2999 14.9994 19.9983 15.0291 19.7074 14.9712C19.4164 14.9133 19.1491 14.7704 18.9393 14.5607C18.7296 14.3509 18.5867 14.0836 18.5288 13.7926C18.4709 13.5017 18.5007 13.2001 18.6142 12.926C18.7277 12.6519 18.92 12.4176 19.1666 12.2528C19.4133 12.088 19.7033 12 20 12C20.3978 12 20.7794 12.158 21.0607 12.4393C21.342 12.7206 21.5 13.1022 21.5 13.5ZM21.5 9.5C21.5 9.79667 21.412 10.0867 21.2472 10.3334C21.0824 10.58 20.8481 10.7723 20.574 10.8858C20.2999 10.9994 19.9983 11.0291 19.7074 10.9712C19.4164 10.9133 19.1491 10.7704 18.9393 10.5607C18.7296 10.3509 18.5867 10.0836 18.5288 9.79264C18.4709 9.50166 18.5007 9.20006 18.6142 8.92597C18.7277 8.65189 18.92 8.41762 19.1666 8.2528C19.4133 8.08797 19.7033 8 20 8C20.3978 8 20.7794 8.15804 21.0607 8.43934C21.342 8.72064 21.5 9.10218 21.5 9.5Z" fill="currentColor"/>
</svg>
