<svg width="24" height="24" viewBox="0 0 24 24" fill="none" xmlns="http://www.w3.org/2000/svg">
<path d="M15 9H14V4H8V9H3V21H2V8H7V3H15V9Z" fill="currentColor"/>
<path fill-rule="evenodd" clip-rule="evenodd" d="M19.6 10C20.05 10 20.43 10.26 20.57 10.66L22 14.77V18.91L21.99 20.28C21.99 20.66 21.68 21 21.3 21H20.69C20.31 21 20 20.62 20 20.24V19H12V20.24C12 20.62 11.7 21 11.32 21H10.7C10.32 21 10.01 20.66 10.01 20.28L10 14.77L11.43 10.66C11.58 10.26 11.95 10 12.41 10H19.6ZM19.6 11H12.41L11.38 14H20.63L19.6 11ZM11 16C11 16.55 11.45 17 12 17C12.55 17 13 16.55 13 16C13 15.45 12.55 15 12 15C11.45 15 11 15.45 11 16ZM19 16C19 16.55 19.45 17 20 17C20.55 17 21 16.55 21 16C21 15.45 20.55 15 20 15C19.45 15 19 15.45 19 16Z" fill="currentColor"/>
<path d="M7 11H5V13H7V11Z" fill="currentColor"/>
<path d="M10 5H12V7H10V5Z" fill="currentColor"/>
<path d="M7 15H5V17H7V15Z" fill="currentColor"/>
<path d="M5 19H7V21H5V19Z" fill="currentColor"/>
</svg>
