<svg width="24" height="24" viewBox="0 0 24 24" fill="none" xmlns="http://www.w3.org/2000/svg">
<path d="M10.9999 2H2.99988V4H10.9999V2Z" fill="currentColor"/>
<path d="M5.99988 11H7.99988V7H10.9999V5H2.99988V7H5.99988V11Z" fill="currentColor"/>
<path d="M12.4034 20.1819L20.1815 12.4038L21.5957 13.818L13.8176 21.5961L12.4034 20.1819Z" fill="currentColor"/>
<path d="M14.4999 16C15.3283 16 15.9999 15.3284 15.9999 14.5C15.9999 13.6716 15.3283 13 14.4999 13C13.6714 13 12.9999 13.6716 12.9999 14.5C12.9999 15.3284 13.6714 16 14.4999 16Z" fill="currentColor"/>
<path d="M20.9999 19.5C20.9999 20.3284 20.3283 21 19.4999 21C18.6714 21 17.9999 20.3284 17.9999 19.5C17.9999 18.6716 18.6714 18 19.4999 18C20.3283 18 20.9999 18.6716 20.9999 19.5Z" fill="currentColor"/>
<path d="M15.4999 11C16.8799 11 17.9999 9.88 17.9999 8.5V4H20.9999V2H16.9999V6.51C16.5799 6.19 16.0699 6 15.4999 6C14.1199 6 12.9999 7.12 12.9999 8.5C12.9999 9.88 14.1199 11 15.4999 11Z" fill="currentColor"/>
<path fill-rule="evenodd" clip-rule="evenodd" d="M8.32986 17.37L9.73986 15.96L11.1499 17.39L9.73986 18.8L11.1499 20.21L9.73986 21.62L8.32986 20.21L7.26986 21.27C6.77986 21.76 6.13986 22 5.49986 22C4.85986 22 4.21986 21.76 3.71986 21.26C2.73986 20.28 2.73986 18.7 3.71986 17.72L4.77986 16.66L4.42986 16.31C3.44986 15.33 3.44986 13.75 4.42986 12.77C4.91986 12.28 5.55986 12.04 6.19986 12.04C6.83986 12.04 7.47986 12.28 7.96986 12.77C8.94986 13.75 8.94986 15.33 7.96986 16.31L7.61986 16.66L8.32986 17.37ZM6.19986 14.05C6.10986 14.05 5.96986 14.08 5.84986 14.2C5.65986 14.39 5.65986 14.71 5.84986 14.9L6.19986 15.26L6.54986 14.91C6.73986 14.71 6.73986 14.4 6.54986 14.2C6.42986 14.08 6.28986 14.05 6.19986 14.05ZM5.49986 20C5.58986 20 5.72986 19.97 5.84986 19.85L6.91986 18.79L6.20986 18.08L5.14986 19.14C4.95986 19.34 4.95986 19.66 5.14986 19.85C5.26986 19.97 5.40986 20 5.49986 20Z" fill="currentColor"/>
</svg>
