<svg width="24" height="24" viewBox="0 0 24 24" fill="none" xmlns="http://www.w3.org/2000/svg">
<path d="M9.9175 12.2408L17.6654 6.85065L18.8449 8.14656L12.7508 15.354L9.9175 12.2408ZM7.58739 12.652L12.1227 17.6353C12.2166 17.7283 12.3292 17.8003 12.453 17.8466C12.5768 17.8929 12.709 17.9124 12.8408 17.9038C12.9727 17.8952 13.1013 17.8587 13.218 17.7967C13.3348 17.7348 13.437 17.6488 13.518 17.5444L20.9694 8.7314C21.1179 8.56829 21.2019 8.35673 21.2058 8.13622C21.2098 7.9157 21.1333 7.70129 20.9907 7.533L18.4778 4.77184C18.3236 4.61412 18.1173 4.51787 17.8974 4.50107C17.6775 4.48426 17.459 4.54805 17.2827 4.68052L7.80898 11.2713C7.69742 11.3422 7.60217 11.4359 7.52951 11.5464C7.45686 11.6568 7.40847 11.7813 7.38752 11.9118C7.36658 12.0423 7.37356 12.1758 7.40802 12.3034C7.44247 12.431 7.50361 12.5498 7.58739 12.652ZM2.79388 18.5277L8.41124 19.5L9.89037 18.1538L6.86148 14.8258L2.79388 18.5277Z" fill="currentColor"/>
</svg>
