<svg width="24" height="24" viewBox="0 0 24 24" fill="none" xmlns="http://www.w3.org/2000/svg">
<path d="M3 12.2029H21V13.7029H16.6342C16.8711 14.2002 16.9906 14.7451 16.9836 15.2958C16.9977 15.8183 16.8855 16.3365 16.6567 16.8065C16.428 17.2764 16.0893 17.6843 15.6694 17.9955C14.6579 18.7072 13.4378 19.0607 12.2025 19C11.3 19.0061 10.4062 18.8225 9.57916 18.461C8.82387 18.1477 8.16917 17.6329 7.68652 16.9728C7.24212 16.3427 7.00762 15.5884 7.01636 14.8174V14.704H7.30359V14.7029H7.64508V14.704H9.02V14.8173C9.00433 15.1687 9.07382 15.5187 9.22253 15.8374C9.37125 16.1562 9.59479 16.4343 9.87413 16.648C10.5515 17.1303 11.372 17.3697 12.2025 17.3273C12.9356 17.3752 13.6645 17.1835 14.2792 16.7811C14.507 16.6126 14.6901 16.3908 14.8124 16.1351C14.9346 15.8794 14.9923 15.5977 14.9804 15.3145C14.9964 15.041 14.9459 14.7676 14.8332 14.5178C14.7205 14.2681 14.5491 14.0493 14.3335 13.8801C14.2451 13.8161 14.1533 13.7569 14.0585 13.7029H3V12.2029ZM16.3447 7.05981C15.9232 6.40482 15.3271 5.88059 14.6236 5.5462C13.8394 5.17261 12.9793 4.98566 12.1107 5C10.8996 4.94802 9.70883 5.32404 8.74719 6.06213C8.33435 6.38098 8.00134 6.79148 7.77448 7.2612C7.54762 7.73092 7.43313 8.24696 7.44006 8.76855C7.43656 9.26284 7.54659 9.75134 7.76166 10.1964H10.3583C10.275 10.1428 10.173 10.0906 10.1056 10.0358C9.90219 9.88568 9.73702 9.68969 9.62358 9.46373C9.51014 9.23778 9.45164 8.98824 9.45282 8.73541C9.43773 8.4468 9.49242 8.1588 9.61226 7.89582C9.73209 7.63283 9.91354 7.40259 10.1412 7.22461C10.7173 6.82508 11.4109 6.63054 12.1107 6.67218C12.8717 6.6238 13.6231 6.8624 14.2167 7.34088C14.465 7.57467 14.6594 7.85968 14.7865 8.17613C14.9136 8.49258 14.9703 8.8329 14.9527 9.17346V9.28687H16.9559V9.17346C16.9592 8.42486 16.7471 7.6911 16.3447 7.05981Z" fill="currentColor"/>
</svg>
