<svg width="24" height="24" viewBox="0 0 24 24" fill="none" xmlns="http://www.w3.org/2000/svg">
<path d="M13.55 19H15.55L10.55 5H8.55005L3.55005 19H5.55005L6.95005 15H12.05L13.55 19ZM7.65005 13L9.55005 7.8L11.45 13H7.65005ZM20.4501 17.5C20.4501 17.7967 20.3621 18.0867 20.1973 18.3334C20.0324 18.58 19.7981 18.7723 19.524 18.8858C19.2499 18.9993 18.9483 19.0291 18.6574 18.9712C18.3664 18.9133 18.0991 18.7704 17.8893 18.5607C17.6796 18.3509 17.5367 18.0836 17.4788 17.7926C17.4209 17.5017 17.4506 17.2001 17.5642 16.926C17.6777 16.6519 17.87 16.4176 18.1166 16.2528C18.3633 16.088 18.6533 16 18.95 16C19.3478 16 19.7295 16.158 20.0107 16.4393C20.292 16.7206 20.4501 17.1022 20.4501 17.5ZM20.4501 13.5C20.4501 13.7967 20.3621 14.0867 20.1973 14.3334C20.0324 14.58 19.7981 14.7723 19.524 14.8858C19.2499 14.9994 18.9483 15.0291 18.6574 14.9712C18.3664 14.9133 18.0991 14.7704 17.8893 14.5607C17.6796 14.3509 17.5367 14.0836 17.4788 13.7926C17.4209 13.5017 17.4506 13.2001 17.5642 12.926C17.6777 12.6519 17.87 12.4176 18.1166 12.2528C18.3633 12.088 18.6533 12 18.95 12C19.3478 12 19.7295 12.158 20.0107 12.4393C20.292 12.7206 20.4501 13.1022 20.4501 13.5ZM20.4501 9.5C20.4501 9.79667 20.3621 10.0867 20.1973 10.3334C20.0324 10.58 19.7981 10.7723 19.524 10.8858C19.2499 10.9994 18.9483 11.0291 18.6574 10.9712C18.3664 10.9133 18.0991 10.7704 17.8893 10.5607C17.6796 10.3509 17.5367 10.0836 17.4788 9.79264C17.4209 9.50166 17.4506 9.20006 17.5642 8.92597C17.6777 8.65189 17.87 8.41762 18.1166 8.2528C18.3633 8.08797 18.6533 8 18.95 8C19.3478 8 19.7295 8.15804 20.0107 8.43934C20.292 8.72064 20.4501 9.10218 20.4501 9.5Z" fill="currentColor"/>
</svg>
