<svg width="24" height="24" viewBox="0 0 24 24" fill="none" xmlns="http://www.w3.org/2000/svg">
<path d="M13.775 10.9L11.1 8.225C11.2333 8.14167 11.375 8.08333 11.525 8.05C11.675 8.01667 11.8333 8 12 8C12.55 8 13.021 8.19567 13.413 8.587C13.805 8.97833 14.0007 9.44933 14 10C14 10.1667 13.9833 10.325 13.95 10.475C13.9167 10.625 13.8583 10.7667 13.775 10.9ZM11.25 21.35C8.81665 19.2 6.99998 17.2083 5.79998 15.375C4.59998 13.5417 3.99998 11.8167 3.99998 10.2C3.99998 9.66667 4.04165 9.15833 4.12498 8.675C4.20831 8.19167 4.32498 7.73333 4.47498 7.3L1.37498 4.2C1.19165 4.01667 1.09998 3.78333 1.09998 3.5C1.09998 3.21667 1.19165 2.975 1.37498 2.775C1.57498 2.59167 1.81665 2.5 2.09998 2.5C2.38331 2.5 2.62498 2.59167 2.82498 2.775L21.2 21.175C21.3833 21.3583 21.475 21.5917 21.475 21.875C21.475 22.1583 21.3833 22.3917 21.2 22.575C21 22.775 20.7583 22.875 20.475 22.875C20.1917 22.875 19.9583 22.775 19.775 22.575L15.675 18.5C15.2417 18.9667 14.7833 19.4377 14.3 19.913C13.8167 20.3883 13.3 20.8673 12.75 21.35C12.65 21.4333 12.5333 21.5 12.4 21.55C12.2667 21.6 12.1333 21.625 12 21.625C11.8667 21.625 11.7333 21.6 11.6 21.55C11.4667 21.5 11.35 21.4333 11.25 21.35ZM18.2 15.325C18.8 14.3917 19.25 13.5043 19.55 12.663C19.85 11.8217 20 11.0007 20 10.2C20 7.7 19.1957 5.70833 17.587 4.225C15.9783 2.74167 14.116 2 12 2C11.0167 2 10.079 2.16267 9.18698 2.488C8.29498 2.81333 7.49131 3.284 6.77598 3.9L8.19998 5.325C8.71665 4.89167 9.29597 4.56233 9.93797 4.337C10.58 4.11167 11.2673 3.99933 12 4C13.6833 4 15.1043 4.57933 16.263 5.738C17.4217 6.89667 18.0007 8.384 18 10.2C18 10.7333 17.9 11.3043 17.7 11.913C17.5 12.5217 17.1833 13.1757 16.75 13.875L18.2 15.325ZM12 19.35C12.4333 18.9667 12.8377 18.5877 13.213 18.213C13.5883 17.8383 13.9423 17.4673 14.275 17.1L6.09998 8.925C6.06665 9.14167 6.04165 9.35433 6.02498 9.563C6.00831 9.77167 5.99998 9.984 5.99998 10.2C5.99998 11.3833 6.49165 12.7377 7.47498 14.263C8.45831 15.7883 9.96665 17.484 12 19.35Z" fill="currentColor"/>
</svg>
