<svg width="24" height="24" viewBox="0 0 24 24" fill="none" xmlns="http://www.w3.org/2000/svg">
<path d="M15.38 14.1299C15.59 13.7799 16.06 13.6699 16.41 13.8899C16.76 14.1099 16.87 14.5699 16.65 14.9199C15.63 16.5299 13.9 17.4999 12 17.4999C10.1 17.4999 8.37003 16.5399 7.35003 14.9099C7.13003 14.5599 7.24003 14.0999 7.59003 13.8799C7.94003 13.6599 8.40003 13.7699 8.62003 14.1199C9.36003 15.2999 10.62 15.9999 12 15.9999C13.38 15.9999 14.64 15.2999 15.38 14.1299Z" fill="currentColor"/>
<path d="M8.5 11C9.32843 11 10 10.3284 10 9.5C10 8.67157 9.32843 8 8.5 8C7.67157 8 7 8.67157 7 9.5C7 10.3284 7.67157 11 8.5 11Z" fill="currentColor"/>
<path d="M15.5 11C16.3284 11 17 10.3284 17 9.5C17 8.67157 16.3284 8 15.5 8C14.6716 8 14 8.67157 14 9.5C14 10.3284 14.6716 11 15.5 11Z" fill="currentColor"/>
<path fill-rule="evenodd" clip-rule="evenodd" d="M2 12C2 6.48 6.47 2 11.99 2C17.52 2 22 6.48 22 12C22 17.52 17.52 22 11.99 22C6.47 22 2 17.52 2 12ZM4 12C4 16.42 7.58 20 12 20C16.42 20 20 16.42 20 12C20 7.58 16.42 4 12 4C7.58 4 4 7.58 4 12Z" fill="currentColor"/>
</svg>
