<svg width="24" height="24" viewBox="0 0 24 24" fill="none" xmlns="http://www.w3.org/2000/svg">
<path d="M15.5 10.4092L9 10.4082V12.0747L15.5 12.0757V10.4092Z" fill="currentColor"/>
<path d="M9 13.3325L15.5 13.3335V15L9 14.999V13.3325Z" fill="currentColor"/>
<path d="M13.5 16.3335L9 16.3325V17.999L13.5 18V16.3335Z" fill="currentColor"/>
<path fill-rule="evenodd" clip-rule="evenodd" d="M14.3501 4.22705H17.8335C18.75 4.22705 19.5 5.00439 19.5 5.95459V19.7729C19.5 20.7227 18.75 21.5 17.8335 21.5H6.1665C5.25 21.5 4.5 20.7227 4.5 19.7729V5.95459C4.5 5.00439 5.25 4.22705 6.1665 4.22705H9.6499C10 3.22559 10.9165 2.5 12 2.5C13.0835 2.5 14 3.22559 14.3501 4.22705ZM12.8335 5.09082C12.8335 4.61572 12.4585 4.22705 12 4.22705C11.5415 4.22705 11.1665 4.61572 11.1665 5.09082C11.1665 5.56592 11.5415 5.95459 12 5.95459C12.2783 5.95459 12.5264 5.81104 12.6777 5.5918C12.7251 5.52344 12.7632 5.44775 12.7896 5.36719C12.8057 5.31738 12.8179 5.26562 12.8252 5.21191C12.8306 5.17236 12.8335 5.13184 12.8335 5.09082ZM6.1665 5.95459V19.7729H17.8335V5.95459H16.1665V8.54541H7.8335V5.95459H6.1665Z" fill="currentColor"/>
</svg>
