<svg width="24" height="24" viewBox="0 0 24 24" fill="none" xmlns="http://www.w3.org/2000/svg">
<path d="M3 16.2347C3 15.7904 3.14871 15.4299 3.44612 15.1531C3.75 14.8762 4.12823 14.7378 4.58082 14.7378C5.03987 14.7378 5.4181 14.8762 5.71552 15.1531C6.0194 15.4299 6.17134 15.7904 6.17134 16.2347C6.17134 16.6725 6.02263 17.0298 5.72522 17.3066C5.4278 17.577 5.04634 17.7122 4.58082 17.7122C4.12177 17.7122 3.74353 17.577 3.44612 17.3066C3.14871 17.0298 3 16.6725 3 16.2347ZM3 8.32547C3 7.88124 3.14871 7.5207 3.44612 7.24386C3.75 6.96702 4.12823 6.82861 4.58082 6.82861C5.03987 6.82861 5.4181 6.96702 5.71552 7.24386C6.0194 7.5207 6.17134 7.88124 6.17134 8.32547C6.17134 8.76326 6.02263 9.12057 5.72522 9.39741C5.4278 9.66781 5.04634 9.80301 4.58082 9.80301C4.12177 9.80301 3.74353 9.66781 3.44612 9.39741C3.14871 9.12057 3 8.76326 3 8.32547Z" fill="currentColor"/>
<path d="M13.9203 12.7098H8.46008V10.4597H13.9203V12.7098Z" fill="currentColor"/>
<path d="M21 12.1111C21 13.5661 20.7899 14.9664 20.3696 16.3119C19.9494 17.6575 19.3448 18.8453 18.556 19.8754C17.7672 20.9055 16.9235 21.6137 16.0248 22L15.4817 20.5225C16.3998 19.8336 17.1239 18.7713 17.6541 17.3356C18.1843 15.8999 18.4591 14.2485 18.4784 12.3815V11.8696C18.4784 9.94463 18.2134 8.24819 17.6832 6.7803C17.1595 5.31241 16.4256 4.21149 15.4817 3.47755L16.0248 2C16.9041 2.37985 17.7317 3.06873 18.5075 4.06663C19.2899 5.06454 19.8944 6.22662 20.3211 7.55287C20.7543 8.87912 20.9806 10.2537 21 11.6765V12.1111Z" fill="currentColor"/>
</svg>
