<svg width="24" height="24" viewBox="0 0 24 24" fill="none" xmlns="http://www.w3.org/2000/svg">
<path d="M7.68201 5C6.74226 4.9848 5.82569 5.29214 5.08508 5.8708C4.34447 6.44946 3.82456 7.26448 3.61201 8.18C3.39789 9.21898 3.60525 10.3005 4.18848 11.1866C4.77171 12.0727 5.68304 12.6908 6.72201 12.905L6.74901 12.91C7.01822 12.9699 7.29321 13.0001 7.56901 13V19H9.56901V7H11.569V19H13.569V7H15.569V5H7.68201ZM5.53201 9C5.53201 8.46957 5.74272 7.96086 6.1178 7.58579C6.49287 7.21071 7.00158 7 7.53201 7V11C7.00158 11 6.49287 10.7893 6.1178 10.4142C5.74272 10.0391 5.53201 9.53043 5.53201 9ZM20.472 17.491C20.472 17.7877 20.384 18.0777 20.2192 18.3244C20.0544 18.571 19.8201 18.7633 19.546 18.8768C19.2719 18.9904 18.9703 19.0201 18.6794 18.9622C18.3884 18.9043 18.1211 18.7614 17.9113 18.5517C17.7016 18.3419 17.5587 18.0746 17.5008 17.7836C17.4429 17.4927 17.4726 17.1911 17.5862 16.917C17.6997 16.6429 17.892 16.4086 18.1386 16.2438C18.3853 16.079 18.6753 15.991 18.972 15.991C19.3698 15.991 19.7514 16.149 20.0327 16.4303C20.314 16.7116 20.472 17.0932 20.472 17.491ZM20.472 13.491C20.472 13.7877 20.384 14.0777 20.2192 14.3244C20.0544 14.571 19.8201 14.7633 19.546 14.8768C19.2719 14.9904 18.9703 15.0201 18.6794 14.9622C18.3884 14.9043 18.1211 14.7614 17.9113 14.5517C17.7016 14.3419 17.5587 14.0746 17.5008 13.7836C17.4429 13.4927 17.4726 13.1911 17.5862 12.917C17.6997 12.6429 17.892 12.4086 18.1386 12.2438C18.3853 12.079 18.6753 11.991 18.972 11.991C19.3698 11.991 19.7514 12.149 20.0327 12.4303C20.314 12.7116 20.472 13.0932 20.472 13.491ZM20.472 9.491C20.472 9.78767 20.384 10.0777 20.2192 10.3244C20.0544 10.571 19.8201 10.7633 19.546 10.8768C19.2719 10.9904 18.9703 11.0201 18.6794 10.9622C18.3884 10.9043 18.1211 10.7614 17.9113 10.5517C17.7016 10.3419 17.5587 10.0746 17.5008 9.78364C17.4429 9.49266 17.4726 9.19106 17.5862 8.91698C17.6997 8.64289 17.892 8.40862 18.1386 8.2438C18.3853 8.07897 18.6753 7.991 18.972 7.991C19.3698 7.991 19.7514 8.14904 20.0327 8.43034C20.314 8.71164 20.472 9.09318 20.472 9.491Z" fill="currentColor"/>
</svg>
