<svg width="24" height="24" viewBox="0 0 24 24" fill="none" xmlns="http://www.w3.org/2000/svg">
<path d="M10.1499 5C9.21019 4.9848 8.29362 5.29214 7.55301 5.8708C6.8124 6.44946 6.29249 7.26448 6.07994 8.18C5.95791 8.76264 5.96747 9.36518 6.1079 9.94366C6.24834 10.5221 6.51611 11.062 6.89171 11.5238C7.26731 11.9857 7.74127 12.3578 8.27899 12.6132C8.81672 12.8686 9.40465 13.0007 9.99994 13V19H11.9999V7H13.9999V19H15.9999V7H17.9999V5H10.1499ZM7.99994 9C7.99994 8.46957 8.21065 7.96086 8.58573 7.58579C8.9608 7.21071 9.46951 7 9.99994 7V11C9.46951 11 8.9608 10.7893 8.58573 10.4142C8.21065 10.0391 7.99994 9.53043 7.99994 9Z" fill="currentColor"/>
</svg>
