<svg width="24" height="24" viewBox="0 0 24 24" fill="none" xmlns="http://www.w3.org/2000/svg">
<path d="M5.86998 22.48H0.47998V16.98H2.47998V20.48H5.86998V22.48Z" fill="currentColor"/>
<path d="M2.47998 8.57007H0.47998V14.3901H2.47998V8.57007Z" fill="currentColor"/>
<path d="M2.47998 5.97998H0.47998V0.47998H5.97998V2.47998H2.47998V5.97998Z" fill="currentColor"/>
<path d="M14.3899 0.47998H8.56995V2.47998H14.3899V0.47998Z" fill="currentColor"/>
<path d="M22.48 5.97998H20.48V2.47998H16.98V0.47998H22.48V5.97998Z" fill="currentColor"/>
<path d="M22.48 8.1001H20.48V12.6001H22.48V8.1001Z" fill="currentColor"/>
<path d="M12.98 17.94C12.98 19.45 14.18 20.67 15.65 20.67C17.12 20.67 18.32 19.44 18.32 17.94C18.32 16.44 17.12 15.21 15.65 15.21C14.18 15.21 12.98 16.44 12.98 17.94ZM15.65 17.03C16.14 17.03 16.54 17.44 16.54 17.94C16.54 18.44 16.14 18.85 15.65 18.85C15.16 18.85 14.76 18.44 14.76 17.94C14.76 17.44 15.16 17.03 15.65 17.03Z" fill="currentColor"/>
<path d="M7.72998 17L7.47998 17.26V18.61L7.72998 18.87C10.26 21.57 12.87 22.94 15.48 22.94C18.09 22.94 20.7 21.57 23.23 18.87L23.48 18.61V17.26L23.23 17C18.16 11.6 12.79 11.6 7.72998 17ZM9.31998 17.94C13.48 13.71 17.48 13.71 21.64 17.94C17.48 22.17 13.48 22.17 9.31998 17.94Z" fill="currentColor"/>
</svg>
