<svg width="24" height="24" viewBox="0 0 24 24" fill="none" xmlns="http://www.w3.org/2000/svg">
<path d="M20.7389 15.4593C20.4357 15.0289 20.0387 14.6729 19.5779 14.4183C19.1171 14.1637 18.6045 14.017 18.0787 13.9894C17.5529 13.9618 17.0278 14.054 16.5428 14.2589C16.0579 14.4639 15.6258 14.7764 15.2792 15.1727L9.5661 12.5086C9.61239 12.1722 9.60945 11.8309 9.55737 11.4953L15.2791 8.82721C15.8444 9.47011 16.6226 9.88762 17.4708 10.0032C18.3191 10.1187 19.1805 9.92449 19.8972 9.45619C20.6138 8.9879 21.1376 8.27691 21.3724 7.45365C21.6071 6.6304 21.5372 5.75009 21.1754 4.97422C20.8136 4.19835 20.1842 3.57895 19.4026 3.22966C18.621 2.88036 17.7397 2.82459 16.9203 3.07258C16.101 3.32057 15.3985 3.85569 14.9417 4.57976C14.485 5.30383 14.3047 6.16831 14.4338 7.01459L8.70966 9.6839C8.23726 9.15001 7.61344 8.77268 6.92125 8.60217C6.22906 8.43166 5.50135 8.47605 4.83502 8.72943C4.16868 8.98281 3.59535 9.43316 3.19134 10.0205C2.78734 10.6079 2.57185 11.3044 2.57356 12.0172C2.57526 12.7301 2.79409 13.4256 3.2009 14.011C3.6077 14.5964 4.18319 15.044 4.85073 15.2942C5.51827 15.5444 6.24618 15.5853 6.93755 15.4115C7.62891 15.2376 8.25093 14.8573 8.72076 14.3212L14.434 16.9853C14.3506 17.5517 14.4076 18.1299 14.5998 18.6691C14.7921 19.2083 15.1138 19.6921 15.5367 20.078C15.9595 20.4639 16.4707 20.7401 17.0252 20.8824C17.5797 21.0246 18.1607 21.0286 18.7171 20.8939C19.2735 20.7593 19.7884 20.4901 20.2165 20.11C20.6446 19.7299 20.9729 19.2505 21.1725 18.714C21.3721 18.1774 21.4369 17.6001 21.3613 17.0326C21.2857 16.4651 21.072 15.9249 20.7389 15.4593ZM18.0075 5.01056C18.3032 5.03361 18.5855 5.14385 18.8186 5.32733C19.0517 5.51081 19.2252 5.7593 19.3171 6.04137C19.409 6.32344 19.4151 6.62642 19.3348 6.912C19.2545 7.19758 19.0913 7.45294 18.8659 7.64577C18.6405 7.83861 18.3629 7.96026 18.0683 7.99535C17.7738 8.03045 17.4754 7.9774 17.211 7.84292C16.9465 7.70844 16.7279 7.49857 16.5828 7.23984C16.4376 6.98112 16.3725 6.68516 16.3955 6.3894C16.4264 5.9928 16.6136 5.62472 16.9159 5.36614C17.2182 5.10756 17.6108 4.97965 18.0075 5.01056ZM5.99237 13.4954C5.69662 13.4723 5.41435 13.3621 5.18125 13.1786C4.94815 12.9951 4.77469 12.7466 4.68282 12.4645C4.59094 12.1825 4.58477 11.8795 4.66508 11.5939C4.74539 11.3084 4.90858 11.053 5.13402 10.8602C5.35945 10.6674 5.637 10.5457 5.93157 10.5106C6.22613 10.4756 6.52449 10.5286 6.78891 10.6631C7.05332 10.7976 7.27192 11.0074 7.41706 11.2662C7.5622 11.5249 7.62737 11.8208 7.60431 12.1166C7.58901 12.313 7.53518 12.5044 7.44589 12.68C7.3566 12.8555 7.2336 13.0118 7.08392 13.1398C6.93423 13.2679 6.76079 13.3652 6.5735 13.4262C6.38622 13.4872 6.18875 13.5107 5.99237 13.4954ZM17.7745 18.9894C17.4787 18.9663 17.1964 18.8561 16.9633 18.6726C16.7302 18.4891 16.5567 18.2406 16.4649 17.9586C16.373 17.6765 16.3668 17.3735 16.4471 17.0879C16.5274 16.8023 16.6906 16.547 16.916 16.3542C17.1415 16.1613 17.419 16.0397 17.7136 16.0046C18.0082 15.9695 18.3065 16.0225 18.5709 16.157C18.8354 16.2915 19.054 16.5013 19.1991 16.7601C19.3443 17.0188 19.4095 17.3147 19.3864 17.6105C19.3711 17.8069 19.3173 17.9983 19.228 18.1739C19.1387 18.3495 19.0157 18.5057 18.866 18.6338C18.7163 18.7618 18.5429 18.8591 18.3556 18.9201C18.1683 18.9811 17.9709 19.0047 17.7745 18.9894Z" fill="currentColor"/>
</svg>
