<svg width="24" height="24" viewBox="0 0 24 24" fill="none" xmlns="http://www.w3.org/2000/svg">
<path d="M20 19.9L20.9 23.5L17.7 21.6L14.4 23.5L15.2 19.9L12.3 17H16.1L17.8 13.5L19.2 17H23L20 19.9ZM20 5H4C2.9 5 2 5.9 2 7V17C2 18.1 2.9 19 4 19H11.5L10.9 18.4L10 17.5H9.5V15H14.9L16 12.7V10.5H20.5V13.5H20L20.6 15H22V7C22 5.9 21.1 5 20 5ZM3.5 7C3.5 6.7 3.7 6.5 3.9 6.5C3.9 6.5 3.9 6.5 4 6.5H8V9H3.5V7ZM3.5 10.5H8V13.5H3.5V10.5ZM4 17.5C3.7 17.5 3.5 17.3 3.5 17.1C3.5 17.1 3.5 17.1 3.5 17V15H8V17.5H4ZM14.5 9H9.5V6.5H14.5V9ZM20.5 9H16V6.5H20C20.3 6.5 20.5 6.7 20.5 6.9C20.5 6.9 20.5 6.9 20.5 7V9Z" fill="currentColor"/>
</svg>
