<svg width="24" height="24" viewBox="0 0 24 24" fill="none" xmlns="http://www.w3.org/2000/svg">
<path d="M20.0171 19.8975L20.9171 23.4975L17.7171 21.5975L14.4171 23.4975L15.2171 19.8975L12.3171 16.9975H16.1171L17.8171 13.4975L19.2171 16.9975H23.0171L20.0171 19.8975ZM20 5H4C3.47005 5.00156 2.96224 5.21277 2.58751 5.58751C2.21277 5.96224 2.00156 6.47005 2 7V17C2.00156 17.53 2.21277 18.0378 2.58751 18.4125C2.96224 18.7872 3.47005 18.9984 4 19H11.4911L10.9029 18.4117L9.99115 17.5H9.5V14.9975H14.8651L16 12.6609V10.5H20.5V13.5H19.9722L20.5712 14.9975H22V7C21.9984 6.47005 21.7872 5.96224 21.4125 5.58751C21.0378 5.21277 20.53 5.00156 20 5ZM3.5 7C3.49597 6.93329 3.50615 6.86648 3.52985 6.804C3.55356 6.74151 3.59025 6.68476 3.6375 6.6375C3.68476 6.59025 3.74151 6.55356 3.804 6.52985C3.86648 6.50615 3.93329 6.49597 4 6.5H8V9H3.5V7ZM3.5 10.5H8V13.5H3.5V10.5ZM4 17.5C3.93329 17.504 3.86648 17.4939 3.804 17.4701C3.74151 17.4464 3.68476 17.4098 3.6375 17.3625C3.59025 17.3152 3.55356 17.2585 3.52985 17.196C3.50615 17.1335 3.49597 17.0667 3.5 17V15H8V17.5H4ZM14.5 13.5H9.5V10.5H14.5V13.5ZM14.5 9H9.5V6.5H14.5V9ZM20.5 9H16V6.5H20C20.0667 6.49597 20.1335 6.50615 20.196 6.52985C20.2585 6.55356 20.3152 6.59025 20.3625 6.6375C20.4098 6.68476 20.4464 6.74151 20.4701 6.804C20.4939 6.86648 20.504 6.93329 20.5 7V9Z" fill="currentColor"/>
</svg>
