<svg width="24" height="24" viewBox="0 0 24 24" fill="none" xmlns="http://www.w3.org/2000/svg">
<path d="M18.9889 13.9821V7.52679C18.9085 6.30804 17.6496 6.84379 17.6496 6.84379C14.7166 8.23661 13.2869 7.46317 11.7902 7.00004C10.8863 6.72207 9.9309 6.65347 8.99648 6.79942L8.98702 6.80342C8.94928 6.41817 8.79987 6.05233 8.55714 5.75079C8.31441 5.44926 7.98892 5.22516 7.62062 5.106C7.56405 5.08248 7.50541 5.06429 7.44545 5.05168C7.42098 5.04618 7.39663 5.04136 7.37185 5.03678C7.31242 5.01863 7.25136 5.00631 7.18953 5H6.82412C6.7623 5.00631 6.70124 5.01864 6.6418 5.0368C6.61708 5.04138 6.59273 5.0462 6.56832 5.05164C6.50835 5.06428 6.44968 5.08248 6.39309 5.10602C6.04329 5.21681 5.73102 5.42235 5.49094 5.69983C5.25086 5.97731 5.09235 6.31588 5.033 6.67797C4.97365 7.04007 5.01578 7.41153 5.15472 7.75113C5.29365 8.09074 5.52396 8.38521 5.82009 8.60187V17.9959C5.82008 18.1277 5.84603 18.2583 5.89648 18.3801C5.94693 18.502 6.02089 18.6127 6.11412 18.7059C6.20736 18.7991 6.31805 18.8731 6.43987 18.9236C6.56169 18.974 6.69226 19 6.82412 19H7.18953C7.32139 19 7.45196 18.974 7.57379 18.9236C7.69561 18.8731 7.8063 18.7992 7.89954 18.7059C7.99278 18.6127 8.06674 18.502 8.1172 18.3802C8.16766 18.2583 8.19363 18.1278 8.19362 17.9959V15.5223C11.8358 14.4241 13.3907 16.1652 15.2925 16.0982C16.4614 16.0956 17.6 15.7254 18.547 15.0402C18.7 14.9121 18.82 14.7491 18.8969 14.565C18.9738 14.3809 19.0054 14.181 18.9889 13.9821Z" fill="currentColor"/>
</svg>
