<svg width="24" height="24" viewBox="0 0 24 24" fill="none" xmlns="http://www.w3.org/2000/svg">
<path d="M8.97496 7.47489C9.27163 7.47489 9.56164 7.56286 9.80831 7.72769C10.055 7.89251 10.2473 8.12678 10.3608 8.40086C10.4744 8.67495 10.5041 8.97655 10.4462 9.26753C10.3883 9.5585 10.2454 9.82577 10.0357 10.0355C9.82583 10.2453 9.55857 10.3882 9.26759 10.4461C8.97662 10.5039 8.67501 10.4742 8.40093 10.3607C8.12685 10.2472 7.89258 10.0549 7.72776 9.80825C7.56293 9.56157 7.47495 9.27156 7.47495 8.97489C7.47495 8.57706 7.63299 8.19553 7.91429 7.91423C8.19559 7.63293 8.57714 7.47489 8.97496 7.47489ZM12.7637 4.34776L16.5363 8.12041L16.8719 8.45605L19.6423 11.2264C20.0185 11.6035 20.2306 12.1138 20.2323 12.6464C20.2336 12.9078 20.1824 13.1667 20.0819 13.408C19.9813 13.6492 19.8334 13.8679 19.6469 14.051L14.0515 19.6472C13.8684 19.8337 13.6494 19.9812 13.4081 20.0817C13.1669 20.1823 12.9079 20.2335 12.6466 20.2322C12.3849 20.2331 12.1257 20.1823 11.8837 20.0828C11.6418 19.9832 11.4218 19.8369 11.2366 19.6522L8.4561 16.8718L8.12046 16.5362L4.35782 12.7736C4.17046 12.5877 4.02185 12.3664 3.92058 12.1227C3.81931 11.8789 3.76739 11.6175 3.76783 11.3536V9.36358V5.76776C3.76936 5.2378 3.98055 4.72998 4.35529 4.35523C4.73004 3.98049 5.23786 3.76929 5.76782 3.76776H9.36365H11.3536C11.6153 3.76688 11.8745 3.81766 12.1165 3.91719C12.3584 4.01672 12.5784 4.16304 12.7637 4.34776ZM15.462 9.866L15.1263 9.53036L11.3637 5.76776H5.76781V11.3636L9.86606 15.4619L12.6455 18.2413L18.2333 12.6374L18.2323 12.6364L15.462 9.866Z" fill="currentColor"/>
</svg>
