<svg width="24" height="24" viewBox="0 0 24 24" fill="none" xmlns="http://www.w3.org/2000/svg">
<path d="M11.991 3C10.2114 3.00178 8.47218 3.53113 6.99332 4.52115C5.51446 5.51116 4.36231 6.91739 3.6825 8.56208C3.0027 10.2068 2.82575 12.0161 3.17403 13.7613C3.52231 15.5066 4.38019 17.1094 5.63922 18.3671C6.89825 19.6249 8.50191 20.4812 10.2475 20.8277C11.9931 21.1743 13.8022 20.9955 15.4462 20.3141C17.0902 19.6326 18.4953 18.479 19.4838 16.9992C20.4724 15.5193 21 13.7796 21 12C21.0006 10.8172 20.7679 9.64586 20.3152 8.55308C19.8626 7.4603 19.1989 6.46751 18.3621 5.63155C17.5253 4.79559 16.5318 4.13287 15.4386 3.68131C14.3454 3.22975 13.1738 2.99823 11.991 3ZM12 19C10.6155 19 9.26215 18.5895 8.11101 17.8203C6.95986 17.0511 6.06266 15.9579 5.53284 14.6788C5.00303 13.3997 4.86441 11.9922 5.1345 10.6344C5.4046 9.2765 6.07128 8.02922 7.05025 7.05025C8.02922 6.07128 9.2765 5.4046 10.6344 5.1345C11.9922 4.86441 13.3997 5.00303 14.6788 5.53284C15.9579 6.06266 17.0511 6.95986 17.8203 8.11101C18.5895 9.26215 19 10.6155 19 12C19.0003 12.9193 18.8194 13.8297 18.4677 14.6791C18.116 15.5285 17.6004 16.3002 16.9503 16.9503C16.3002 17.6004 15.5285 18.116 14.6791 18.4677C13.8297 18.8194 12.9193 19.0003 12 19ZM15.105 13.8H16.608C16.2464 14.728 15.6131 15.5252 14.7909 16.0872C13.9687 16.6493 12.9959 16.95 12 16.95C11.0041 16.95 10.0313 16.6493 9.20911 16.0872C8.38691 15.5252 7.75357 14.728 7.392 13.8H8.895C9.20819 14.3469 9.66026 14.8014 10.2055 15.1175C10.7507 15.4335 11.3698 15.6 12 15.6C12.6302 15.6 13.2493 15.4335 13.7945 15.1175C14.3397 14.8014 14.7918 14.3469 15.105 13.8ZM7.5 9.75C7.5 9.483 7.57918 9.22199 7.72752 8.99998C7.87586 8.77797 8.0867 8.60494 8.33338 8.50276C8.58006 8.40058 8.8515 8.37385 9.11337 8.42594C9.37525 8.47803 9.61579 8.6066 9.80459 8.79541C9.99339 8.98421 10.122 9.22475 10.1741 9.48663C10.2261 9.7485 10.1994 10.0199 10.0972 10.2666C9.99506 10.5133 9.82203 10.7241 9.60002 10.8725C9.37801 11.0208 9.117 11.1 8.85 11.1C8.49196 11.1 8.14858 10.9578 7.89541 10.7046C7.64223 10.4514 7.5 10.108 7.5 9.75ZM13.8 9.75C13.8 9.483 13.8792 9.22199 14.0275 8.99998C14.1759 8.77797 14.3867 8.60494 14.6334 8.50276C14.8801 8.40058 15.1515 8.37385 15.4134 8.42594C15.6752 8.47803 15.9158 8.6066 16.1046 8.79541C16.2934 8.98421 16.422 9.22475 16.4741 9.48663C16.5261 9.7485 16.4994 10.0199 16.3972 10.2666C16.2951 10.5133 16.122 10.7241 15.9 10.8725C15.678 11.0208 15.417 11.1 15.15 11.1C14.792 11.1 14.4486 10.9578 14.1954 10.7046C13.9422 10.4514 13.8 10.108 13.8 9.75Z" fill="currentColor"/>
</svg>
