<svg width="24" height="24" viewBox="0 0 24 24" fill="none" xmlns="http://www.w3.org/2000/svg">
<path d="M12.4 5C8.30002 5 4.90002 8.4 4.90002 12.5C4.90002 16.6 8.30002 20 12.4 20H16.2V18.5H12.4C9.10002 18.5 6.40002 15.8 6.40002 12.5C6.40002 9.2 9.10002 6.5 12.4 6.5C15.7 6.5 18.4 9.2 18.4 12.5V13.6C18.4 14.2 17.9 14.8 17.3 14.8C16.7 14.8 16.2 14.2 16.2 13.6V12.5C16.2 10.4 14.5 8.7 12.4 8.7C10.3 8.7 8.70002 10.4 8.70002 12.5C8.70002 14.6 10.4 16.3 12.5 16.3C13.5 16.3 14.5 15.9 15.2 15.2C15.7 15.9 16.5 16.3 17.4 16.3C18.9 16.3 20 15.1 20 13.6V12.5C19.9 8.4 16.6 5 12.4 5ZM12.4 14.7C11.2 14.7 10.1 13.7 10.1 12.5C10.1 11.3 11.1 10.2 12.4 10.2C13.7 10.2 14.7 11.2 14.7 12.5C14.7 13.8 13.6 14.7 12.4 14.7Z" fill="currentColor"/>
</svg>
