<svg width="24" height="24" viewBox="0 0 24 24" fill="none" xmlns="http://www.w3.org/2000/svg">
<path d="M7 3C5.9 3 5 3.9 5 5V19C5 20.1 5.9 21 7 21H17C18.1 21 19 20.1 19 19V7.6L14.4 3H7ZM17 19H7V5H13V9H17V19ZM16.3 13.5C16.1 12.9 15.2 12.7 13.7 12.7C13.6 12.7 13.6 12.7 13.5 12.7C13.2 12.4 12.7 11.8 12.5 11.5C12.3 11.3 12.2 11.2 12.1 10.9C12.3 10.2 12.3 9.9 12.4 9.4C12.5 8.5 12.4 7.8 12.2 7.6C11.8 7.4 11.5 7.4 11.3 7.4C11.2 7.4 11 7.6 10.6 8.1C10.4 8.8 10.5 9.9 11.2 10.9C11 11.7 10.5 12.5 10.2 13.3C9.4 13.5 8.7 14 8.3 14.4C7.6 15.1 7.4 15.5 7.6 16C7.6 16.3 7.8 16.6 8.3 16.6C8.6 16.5 8.6 16.4 9 16.3C9.6 16 10.2 14.6 10.7 13.9C11.5 13.7 12.4 13.6 12.7 13.6C12.8 13.6 13 13.6 13.3 13.6C14.1 14.4 14.5 14.7 15.1 14.8C15.2 14.8 15.3 14.8 15.4 14.8C15.7 14.8 16.2 14.7 16.4 14.2C16.4 14.1 16.4 13.9 16.3 13.5ZM8.3 15.7C8.2 15.8 8.1 15.8 8.1 15.8C8.1 15.7 8.1 15.5 8.7 15C8.9 14.8 9.3 14.7 9.6 14.3C9 15 8.6 15.5 8.3 15.7ZM11.3 9C11.3 8.9 11.4 8.8 11.4 8.8C11.4 8.8 11.6 9 11.5 10C11.5 10.1 11.5 10.3 11.4 10.7C11.3 10.1 11 9.5 11.3 9ZM10.9 13.1C11.1 12.5 11.5 12.1 11.6 11.6C11.7 11.7 11.7 11.7 11.8 11.8C11.9 12 12.1 12.5 12.5 12.7C12.2 12.8 11.6 13 10.9 13.1ZM15.2 14.1C15.1 14.1 15.1 14.1 15 14.1C14.8 14.1 14.3 13.9 14 13.4C15.1 13.4 15.6 13.6 15.6 14C15.5 14.1 15.4 14.1 15.2 14.1Z" fill="currentColor"/>
</svg>
