<svg width="24" height="24" viewBox="0 0 24 24" fill="none" xmlns="http://www.w3.org/2000/svg">
<path d="M10.4 12L14 15.6L12.6 17L9 13.4L5.4 17L4 15.6L7.6 12L4 8.40001L5.4 7.00001L9 10.6L12.6 7.00001L14 8.40001L10.4 12ZM19.3123 8.67401L20.3805 7.52751C20.5765 7.3261 20.7514 7.12012 20.9173 6.91871C21.077 6.72453 21.2214 6.51825 21.3493 6.30171C21.469 6.10154 21.567 5.88922 21.6418 5.66831C21.7128 5.45339 21.7488 5.22845 21.7484 5.0021C21.7514 4.72073 21.6994 4.44148 21.5953 4.18004C21.4968 3.93429 21.3427 3.7147 21.1451 3.53844C20.9353 3.35489 20.6899 3.21653 20.4242 3.13198C19.7861 2.94193 19.1044 2.95755 18.4757 3.17663C18.1887 3.28508 17.9282 3.45383 17.712 3.6715C17.5032 3.88008 17.3413 4.13082 17.2372 4.40698C17.1371 4.67346 17.0844 4.95536 17.0813 5.23998L17.0777 5.47698H18.617L18.6234 5.25001C18.625 5.12334 18.643 4.99743 18.6772 4.87543C18.7105 4.76835 18.7637 4.6685 18.8339 4.58106C18.905 4.50069 18.9935 4.43771 19.0928 4.39696C19.3173 4.30797 19.5665 4.30279 19.7946 4.38238C19.8768 4.41846 19.9501 4.47195 20.0096 4.53917C20.0704 4.61091 20.1171 4.69346 20.1473 4.7825C20.1829 4.89074 20.2014 5.00391 20.202 5.11788C20.2008 5.20747 20.1901 5.29669 20.17 5.384C20.1409 5.48828 20.0993 5.58865 20.046 5.68293C19.9687 5.81914 19.8807 5.94896 19.7827 6.07116C19.6483 6.24581 19.505 6.41342 19.3534 6.57333L17.1971 8.92643V10H22V8.67401H19.3123Z" fill="currentColor"/>
</svg>
