<svg width="24" height="24" viewBox="0 0 24 24" fill="none" xmlns="http://www.w3.org/2000/svg">
<path d="M9.9 13.313C9.90858 13.2061 9.93145 13.1008 9.968 13H6.277L8.137 7.8L9.978 12.948C10.0526 12.6773 10.2134 12.4383 10.4361 12.2672C10.6588 12.0961 10.9312 12.0023 11.212 12H11.638L9.138 5H7.138L2.138 19H4.138L5.568 15H9.9V13.313ZM12.551 20.04C12.0842 19.475 11.85 18.7535 11.896 18.022V15.312C11.8956 15.1396 11.9293 14.9688 11.9951 14.8095C12.0609 14.6501 12.1575 14.5053 12.2794 14.3834C12.4013 14.2615 12.5461 14.1649 12.7055 14.0991C12.8648 14.0333 13.0356 13.9996 13.208 14H16.321C17.1041 14.0908 17.8212 14.4824 18.321 15.092C18.321 15.092 20.049 16.91 21.285 18.02C21.4328 18.1258 21.5582 18.2598 21.6542 18.4141C21.7501 18.5685 21.8147 18.7402 21.8443 18.9196C21.8738 19.0989 21.8677 19.2823 21.8263 19.4593C21.7849 19.6363 21.709 19.8034 21.603 19.951C21.547 20.0288 21.4833 20.1008 21.413 20.166L18.066 23.476C17.8571 23.753 17.5469 23.9357 17.2034 23.9841C16.8599 24.0325 16.5112 23.9425 16.234 23.734C16.1362 23.661 16.0493 23.5745 15.976 23.477L14.266 21.749L12.551 20.04ZM15.031 16.08C14.8263 16.0811 14.6304 16.1632 14.4863 16.3085C14.3421 16.4538 14.2615 16.6503 14.262 16.855C14.2625 17.0597 14.3442 17.2558 14.4891 17.4003C14.634 17.5448 14.8303 17.626 15.035 17.626C15.2397 17.626 15.436 17.5448 15.5809 17.4003C15.7258 17.2558 15.8075 17.0597 15.808 16.855C15.8085 16.6503 15.7279 16.4538 15.5837 16.3085C15.4396 16.1632 15.2437 16.0811 15.039 16.08H15.031Z" fill="currentColor"/>
</svg>
