<svg width="24" height="24" viewBox="0 0 24 24" fill="none" xmlns="http://www.w3.org/2000/svg">
<path d="M5.86998 22.48H0.47998V16.98H2.47998V20.48H5.86998V22.48Z" fill="currentColor"/>
<path d="M2.47998 8.57001H0.47998V14.39H2.47998V8.57001Z" fill="currentColor"/>
<path d="M2.47998 5.98H0.47998V0.479996H5.97998V2.48H2.47998V5.98Z" fill="currentColor"/>
<path d="M14.3899 0.479996H8.56995V2.48H14.3899V0.479996Z" fill="currentColor"/>
<path d="M22.48 5.98H20.48V2.48H16.98V0.479996H22.48V5.98Z" fill="currentColor"/>
<path d="M22.48 8.10001H20.48V12.6H22.48V8.10001Z" fill="currentColor"/>
<path d="M13.22 15.98C13.16 16.05 13.11 16.12 13.06 16.2C12.79 16.65 12.64 17.19 12.64 17.76C12.64 19.34 13.83 20.64 15.29 20.64C15.91 20.64 16.48 20.41 16.93 20.02L15.66 18.63C15.55 18.7 15.42 18.73 15.29 18.73C14.8 18.73 14.41 18.3 14.41 17.77C14.41 17.63 14.44 17.49 14.5 17.37L13.23 15.99L13.22 15.98Z" fill="currentColor"/>
<path d="M9.01004 17.77C10.16 16.54 11.28 15.64 12.4 15.09L11.09 13.67C9.85004 14.37 8.63004 15.41 7.42004 16.78L7.17004 17.06V18.48L7.42004 18.76C9.94004 21.61 12.53 23.05 15.12 23.05C16.36 23.05 17.59 22.72 18.81 22.07L17.47 20.61C14.65 21.81 11.87 20.86 9.00004 17.77H9.01004Z" fill="currentColor"/>
<path d="M22.8301 16.77C20.2501 13.86 17.5801 12.44 14.9301 12.5C14.7601 12.51 14.6001 12.52 14.4301 12.54L8.55006 5.98L7.06006 7.32L7.48006 7.78L20.3901 22.21L20.9601 22.84L22.4501 21.5L21.3501 20.27C21.3501 20.27 21.3701 20.25 21.3801 20.24C21.5001 20.13 21.6201 20.02 21.7401 19.9C22.1101 19.55 22.4701 19.16 22.8301 18.75L23.0801 18.47V17.05L22.8301 16.77ZM20.4701 18.53C20.3501 18.66 20.2301 18.76 20.1201 18.87H20.1101L16.2001 14.52C16.4701 14.57 16.7201 14.63 16.9901 14.74C18.4101 15.2 19.8101 16.22 21.2501 17.76C20.9901 18.04 20.7301 18.3 20.4701 18.53Z" fill="currentColor"/>
</svg>
