<svg width="24" height="24" viewBox="0 0 24 24" fill="none" xmlns="http://www.w3.org/2000/svg">
<path d="M18.2 15.325L13.775 10.9C13.8583 10.7667 13.9167 10.625 13.95 10.475C13.9833 10.325 14 10.1667 14 10C14 9.45 13.8043 8.979 13.413 8.587C13.0217 8.195 12.5507 7.99933 12 8C11.8333 8 11.675 8.01667 11.525 8.05C11.375 8.08333 11.2333 8.14167 11.1 8.225L6.77498 3.9C7.49165 3.28333 8.29597 2.81267 9.18797 2.488C10.08 2.16333 11.0173 2.00067 12 2C14.1167 2 15.9793 2.74167 17.588 4.225C19.1967 5.70833 20.0007 7.7 20 10.2C20 11 19.85 11.821 19.55 12.663C19.25 13.505 18.8 14.3923 18.2 15.325ZM11.25 21.35C8.81665 19.2 6.99998 17.2083 5.79998 15.375C4.59998 13.5417 3.99998 11.8167 3.99998 10.2C3.99998 9.66667 4.04165 9.15833 4.12498 8.675C4.20831 8.19167 4.32498 7.73333 4.47498 7.3L1.37498 4.2C1.19165 4.01667 1.09998 3.78333 1.09998 3.5C1.09998 3.21667 1.19165 2.975 1.37498 2.775C1.57498 2.59167 1.81665 2.5 2.09998 2.5C2.38331 2.5 2.62498 2.59167 2.82498 2.775L21.2 21.175C21.3833 21.3583 21.475 21.5917 21.475 21.875C21.475 22.1583 21.3833 22.3917 21.2 22.575C21 22.775 20.7583 22.875 20.475 22.875C20.1917 22.875 19.9583 22.775 19.775 22.575L15.675 18.5C15.2417 18.9667 14.7833 19.4377 14.3 19.913C13.8167 20.3883 13.3 20.8673 12.75 21.35C12.65 21.4333 12.5333 21.5 12.4 21.55C12.2667 21.6 12.1333 21.625 12 21.625C11.8667 21.625 11.7333 21.6 11.6 21.55C11.4667 21.5 11.35 21.4333 11.25 21.35Z" fill="currentColor"/>
</svg>
