<svg width="24" height="24" viewBox="0 0 24 24" fill="none" xmlns="http://www.w3.org/2000/svg">
<path d="M13.775 10.9L11.1 8.225C11.2333 8.14167 11.375 8.08333 11.525 8.05C11.675 8.01667 11.8333 8 12 8C12.55 8 13.021 8.19567 13.413 8.587C13.805 8.97833 14.0007 9.44933 14 10C14 10.1667 13.9833 10.325 13.95 10.475C13.9167 10.625 13.8583 10.7667 13.775 10.9ZM20.475 23.3L15.675 18.5C15.1583 19.0667 14.5957 19.6417 13.987 20.225C13.3783 20.8083 12.716 21.4 12 22C9.31672 19.7167 7.31272 17.6 5.98805 15.65C4.66338 13.7 4.00072 11.8833 4.00005 10.2C4.00005 9.66667 4.04172 9.15833 4.12505 8.675C4.20838 8.19167 4.32505 7.73333 4.47505 7.3L0.675049 3.5L2.10005 2.075L21.9 21.875L20.475 23.3ZM18.2001 15.325C18.8001 14.3917 19.25 13.504 19.55 12.662C19.85 11.82 20 10.9993 20 10.2C20 7.7 19.196 5.70833 17.588 4.225C15.98 2.74167 14.1173 2 12 2C11.0167 2 10.079 2.16267 9.18705 2.488C8.29505 2.81333 7.49138 3.284 6.77605 3.9L8.20005 5.325C8.71672 4.89167 9.29605 4.56233 9.93805 4.337C10.58 4.11167 11.2673 3.99933 12 4C13.6833 4 15.1043 4.57933 16.263 5.738C17.4217 6.89667 18.0007 8.384 18 10.2C18 10.7333 17.9001 11.3043 17.7001 11.913C17.5 12.5217 17.1833 13.1757 16.75 13.875L18.2001 15.325ZM12 19.35C12.4333 18.9667 12.8377 18.5877 13.213 18.213C13.5883 17.8383 13.9423 17.4673 14.275 17.1L6.10005 8.925C6.06672 9.14167 6.04172 9.35433 6.02505 9.563C6.00838 9.77167 6.00005 9.984 6.00005 10.2C6.00005 11.3833 6.49172 12.7377 7.47505 14.263C8.45838 15.7883 9.96672 17.484 12 19.35Z" fill="currentColor"/>
</svg>
