<svg width="24" height="24" viewBox="0 0 24 24" fill="none" xmlns="http://www.w3.org/2000/svg">
<path d="M20.475 23.3L15.675 18.5C15.1583 19.0667 14.5957 19.6417 13.987 20.225C13.3783 20.8083 12.716 21.4 12 22C9.31672 19.7167 7.31272 17.6 5.98805 15.65C4.66338 13.7 4.00072 11.8833 4.00005 10.2C4.00005 9.66667 4.04172 9.15833 4.12505 8.675C4.20838 8.19167 4.32505 7.73333 4.47505 7.3L0.675049 3.5L2.10005 2.075L21.9 21.875L20.475 23.3ZM18.2001 15.325L13.775 10.9C13.8583 10.7667 13.9167 10.625 13.95 10.475C13.9833 10.325 14 10.1667 14 10C14 9.45 13.8043 8.979 13.413 8.587C13.0217 8.195 12.5507 7.99933 12 8C11.8333 8 11.675 8.01667 11.525 8.05C11.375 8.08333 11.2333 8.14167 11.1 8.225L6.77505 3.9C7.49172 3.28333 8.29605 2.81267 9.18805 2.488C10.08 2.16333 11.0173 2.00067 12 2C14.1167 2 15.9793 2.74167 17.588 4.225C19.1967 5.70833 20.0007 7.7 20 10.2C20 11 19.85 11.821 19.55 12.663C19.25 13.505 18.8001 14.3923 18.2001 15.325Z" fill="currentColor"/>
</svg>
