<svg width="24" height="24" viewBox="0 0 24 24" fill="none" xmlns="http://www.w3.org/2000/svg">
<path fill-rule="evenodd" clip-rule="evenodd" d="M17 4.49095H7C6.17157 4.49095 5.5 5.15848 5.5 5.98191V15.5138C5.5 16.3373 6.17157 17.0048 7 17.0048H8.5C9.60457 17.0048 10.5 17.8948 10.5 18.9927V19.0638L13.0273 17.3504C13.3595 17.1252 13.7522 17.0048 14.1543 17.0048H17C17.8284 17.0048 18.5 16.3373 18.5 15.5138V5.98191C18.5 5.15848 17.8284 4.49095 17 4.49095ZM7 3C5.34315 3 4 4.33504 4 5.98191V15.5138C4 17.1607 5.34315 18.4957 7 18.4957H8.5C8.77614 18.4957 9 18.7182 9 18.9927V20.0043C9 20.803 9.89967 21.2755 10.5635 20.8255L13.8725 18.5821C13.9556 18.5258 14.0538 18.4957 14.1543 18.4957H17C18.6569 18.4957 20 17.1607 20 15.5138V5.98191C20 4.33505 18.6569 3 17 3H7Z" fill="currentColor"/>
<path fill-rule="evenodd" clip-rule="evenodd" d="M8 7.47281C8 7.19834 8.22386 6.97583 8.5 6.97583C8.80196 6.97583 9.3617 7.12949 9.85355 7.61838C10.3151 8.07713 10.7782 8.90259 10.9472 9.23849C11.0569 9.45651 10.9913 9.7214 10.7924 9.86393C10.5934 10.0065 10.3198 9.98453 10.1464 9.81217C10.0912 9.75728 9.97515 9.66009 9.83619 9.57978C9.69011 9.49537 9.57243 9.46075 9.5 9.46075C9.42757 9.46075 9.30989 9.49537 9.16381 9.57978C9.02485 9.66009 8.90879 9.75728 8.85355 9.81217C8.65829 10.0062 8.34171 10.0062 8.14645 9.81217C7.95118 9.61809 7.95118 9.30342 8.14645 9.10933C8.25788 8.99857 8.44182 8.84726 8.66119 8.72049C8.82777 8.62423 9.04777 8.5228 9.29308 8.4836C9.24348 8.42361 9.19431 8.36879 9.14645 8.32122C8.99609 8.17177 8.84357 8.0823 8.71943 8.03065C8.65709 8.00471 8.60311 7.98882 8.56185 7.97971C8.52458 7.97148 8.50372 7.97008 8.50023 7.96984C8.22409 7.96984 8 7.74729 8 7.47281Z" fill="currentColor"/>
<path d="M15.5 8.71537C15.5 9.40156 14.9404 9.95783 14.25 9.95783C13.5596 9.95783 13 9.40156 13 8.71537C13 8.02917 13.5596 7.4729 14.25 7.4729C14.9404 7.4729 15.5 8.02917 15.5 8.71537Z" fill="currentColor"/>
<path d="M9.4875 12.6973C9.43565 12.6587 9.39851 12.6278 9.37613 12.6083L9.35149 12.5861C9.15603 12.3945 8.84087 12.3949 8.64645 12.5882C8.45118 12.7823 8.45118 13.0969 8.64645 13.291L8.71762 13.3563C8.75774 13.3912 8.81435 13.438 8.8875 13.4925C9.03373 13.6015 9.24664 13.7421 9.52639 13.8811C10.0875 14.16 10.9136 14.4306 12 14.4306C13.0864 14.4306 13.9125 14.16 14.4736 13.8811C14.7534 13.7421 14.9663 13.6015 15.1125 13.4925C15.1856 13.438 15.2423 13.3912 15.2824 13.3563C15.3024 13.3389 15.3184 13.3244 15.3303 13.3133L15.3536 13.291C15.5488 13.0969 15.5488 12.7823 15.3536 12.5882C15.1591 12.3949 14.8444 12.3941 14.649 12.5857L14.6239 12.6083C14.6015 12.6278 14.5644 12.6587 14.5125 12.6973C14.4087 12.7747 14.2466 12.8826 14.0264 12.9921C13.5875 13.2102 12.9136 13.4366 12 13.4366C11.0864 13.4366 10.4125 13.2102 9.97361 12.9921C9.75336 12.8826 9.59127 12.7747 9.4875 12.6973Z" fill="currentColor"/>
</svg>
