<svg width="24" height="24" viewBox="0 0 24 24" fill="none" xmlns="http://www.w3.org/2000/svg">
<path d="M6.475 3.5C4.826 3.5 3.5 4.826 3.5 6.475V17.525C3.5 19.174 4.826 20.5 6.475 20.5H15.4L20.5 15.4V6.475C20.5 4.826 19.174 3.5 17.525 3.5H6.475ZM6.6875 5.2H17.3125C17.707 5.2 18.0854 5.35672 18.3643 5.63568C18.6433 5.91464 18.8 6.29299 18.8 6.6875V14.55H17.525C15.876 14.55 14.55 15.876 14.55 17.525V18.8H6.6875C6.29299 18.8 5.91464 18.6433 5.63568 18.3643C5.35672 18.0854 5.2 17.707 5.2 17.3125V6.6875C5.2 6.29299 5.35672 5.91464 5.63568 5.63568C5.91464 5.35672 6.29299 5.2 6.6875 5.2ZM14.074 7.5545C13.938 7.5545 13.802 7.5715 13.6745 7.6055C12.8755 7.8265 12.425 8.6425 12.629 9.45C12.6715 9.5775 12.731 9.705 12.8075 9.824L15.553 9.076C15.553 8.9315 15.536 8.787 15.502 8.6425C15.3235 8.005 14.737 7.5545 14.074 7.5545ZM8.7445 9.025C8.6 9.025 8.4725 9.025 8.345 9.0675C7.5545 9.2885 7.087 10.1045 7.2995 10.895C7.325 11.031 7.4015 11.15 7.478 11.286L10.2235 10.538C10.2235 10.3935 10.2065 10.249 10.1725 10.113C9.994 9.45 9.4075 9.025 8.7445 9.025ZM16.012 11.371L8.2515 13.5045C9.3735 14.805 11.15 15.349 12.8075 14.8985C14.465 14.4395 15.706 13.0625 16.012 11.371Z" fill="currentColor"/>
</svg>
