<svg width="24" height="24" viewBox="0 0 24 24" fill="none" xmlns="http://www.w3.org/2000/svg">
<path d="M4.00006 9C4.00006 7.9 4.90006 7 6.00006 7V11C4.90006 11 4.00006 10.1 4.00006 9ZM16.7001 20.5L19.9001 22.4L19.0001 18.8L22.0001 15.9H18.3001L16.9001 12.4L15.3001 16H11.5001L14.4001 18.9L13.5001 22.5L16.7001 20.5ZM10.0001 17.4V19H11.6001L10.0001 17.4ZM6.10006 5C4.20006 5 2.50006 6.3 2.10006 8.2C1.60006 10.3 2.90006 12.4 5.00006 12.9H5.20006C5.50006 13 5.80006 13 6.00006 13V19H8.00006V7H10.0001V14H12.0001V7H14.0001V5H6.10006Z" fill="currentColor"/>
</svg>
