<svg width="24" height="24" viewBox="0 0 24 24" fill="none" xmlns="http://www.w3.org/2000/svg">
<path fill-rule="evenodd" clip-rule="evenodd" d="M20 4H17V20H20V4ZM20 2H16H4C2.89543 2 2 2.89543 2 4V20C2 21.1046 2.89543 22 4 22H16H20C21.1046 22 22 21.1046 22 20V4C22 2.89543 21.1046 2 20 2ZM4 20H15V4H4V20ZM12.0709 11C12.6232 11 13.0709 11.4477 13.0709 12C13.0709 12.5523 12.6232 13 12.0709 13H8.41407L8.82828 13.4142C9.21881 13.8047 9.21881 14.4379 8.82828 14.8284C8.43776 15.219 7.80459 15.219 7.41407 14.8284L5.29275 12.7071C4.90222 12.3166 4.90222 11.6834 5.29275 11.2929L7.41407 9.17157C7.80459 8.78105 8.43776 8.78105 8.82828 9.17157C9.21881 9.5621 9.21881 10.1953 8.82828 10.5858L8.41407 11H12.0709Z" fill="currentColor"/>
</svg>
