<svg width="24" height="24" viewBox="0 0 24 24" fill="none" xmlns="http://www.w3.org/2000/svg">
<path d="M4.99976 12C4.99976 11.4477 5.44746 11 5.99976 11H9.65659L9.24238 10.5858C8.85185 10.1953 8.85185 9.56208 9.24238 9.17155C9.6329 8.78103 10.2661 8.78103 10.6566 9.17155L12.7779 11.2929C13.1684 11.6834 13.1684 12.3166 12.7779 12.7071L10.6566 14.8284C10.2661 15.219 9.6329 15.219 9.24238 14.8284C8.85185 14.4379 8.85185 13.8047 9.24238 13.4142L9.65659 13H5.99976C5.44746 13 4.99976 12.5523 4.99976 12Z" fill="currentColor"/>
<path fill-rule="evenodd" clip-rule="evenodd" d="M20 2C21.1046 2 22 2.89543 22 4V20C22 21.1046 21.1046 22 20 22H4C2.89543 22 2 21.1046 2 20V4C2 2.89543 2.89543 2 4 2H20ZM4 20H15V4H4V20Z" fill="currentColor"/>
</svg>
