<svg width="17" height="17" viewBox="0 0 17 17" fill="none" xmlns="http://www.w3.org/2000/svg">
<path d="M3 0C3.27614 0 3.5 0.223858 3.5 0.5V13.5H16.5C16.7761 13.5 17 13.7239 17 14C17 14.2761 16.7761 14.5 16.5 14.5H14.5V16.5C14.5 16.7761 14.2761 17 14 17C13.7239 17 13.5 16.7761 13.5 16.5V14.5H3C2.72386 14.5 2.5 14.2761 2.5 14V3.5H0.5C0.223858 3.5 0 3.27614 0 3C0 2.72386 0.223858 2.5 0.5 2.5H2.5V0.5C2.5 0.223858 2.72386 0 3 0ZM5.5 3C5.5 2.72386 5.72386 2.5 6 2.5H14C14.2761 2.5 14.5 2.72386 14.5 3V11C14.5 11.2761 14.2761 11.5 14 11.5C13.7239 11.5 13.5 11.2761 13.5 11V3.5H6C5.72386 3.5 5.5 3.27614 5.5 3Z" fill="currentColor"/>
</svg>
