<svg width="17" height="16" viewBox="0 0 17 16" fill="none" xmlns="http://www.w3.org/2000/svg">
<path d="M8.02128 11.9003L3.4531 8.61889C2.98227 8.34142 2.98227 7.65858 3.4531 7.38111L8.02128 4.09969C8.49404 3.82109 9.09998 4.15806 9.09998 4.71858V6C10.6 6 15.1 6 16.1 14C13.6 9.5 9.09998 10 9.09998 10V11.2814C9.09998 11.8419 8.49404 12.1789 8.02128 11.9003Z" fill="currentColor"/>
<path d="M5.23182 4.29331C5.39554 4.51569 5.34799 4.82868 5.12561 4.9924L1.11425 7.94568C1.10055 7.95577 1.08633 7.96515 1.07167 7.97379C0.97611 8.03011 0.97611 8.16995 1.07167 8.22626C1.08633 8.23491 1.10055 8.24429 1.11425 8.25438L5.12561 11.2076C5.34799 11.3713 5.39554 11.6843 5.23182 11.9067C5.0681 12.1291 4.75511 12.1766 4.53273 12.0129L0.53922 9.07281C-0.179742 8.62565 -0.17974 7.5744 0.539226 7.12724L4.53273 4.18711C4.75511 4.02339 5.0681 4.07094 5.23182 4.29331Z" fill="currentColor"/>
</svg>
