<svg width="16" height="16" viewBox="0 0 16 16" fill="none" xmlns="http://www.w3.org/2000/svg">
<path d="M8 16C6.41775 16 4.87103 15.5308 3.55544 14.6518C2.23984 13.7727 1.21446 12.5233 0.608967 11.0615C0.00346625 9.59966 -0.15496 7.99112 0.153721 6.43928C0.462402 4.88743 1.22433 3.46197 2.34315 2.34315C3.46197 1.22433 4.88743 0.462402 6.43928 0.153721C7.99112 -0.15496 9.59966 0.00346625 11.0615 0.608967C12.5233 1.21446 13.7727 2.23984 14.6518 3.55544C15.5308 4.87103 16 6.41775 16 8C15.9976 10.121 15.154 12.1544 13.6542 13.6542C12.1544 15.154 10.121 15.9976 8 16ZM5.16213 14.3027H6.73103L9.34621 15.2938L9.38733 15.2888C9.62623 15.258 9.8633 15.2144 10.0976 15.1584L10.6402 15.029L10.1166 14.8384C10.4961 14.7214 10.8652 14.5731 11.2201 14.395V14.4752L11.511 14.2405C11.5822 14.2004 11.6544 14.1582 11.7246 14.1151L11.9082 14.1673V13.9997C12.1297 13.8552 12.3431 13.6985 12.5472 13.5303L11.9092 13.3688V11.3725L13.5654 8.88677L13.5544 8.86972L14.8976 8.55874L15.0982 8.9299C15.1152 8.80451 15.1293 8.66909 15.1413 8.50257L15.5697 8.40226L15.345 7.98194L15.3971 7.71411L15.1574 7.77831C15.1483 7.47959 15.1205 7.18174 15.0741 6.88652H15.0149L14.8263 7.86658L13.1962 8.29994L11.9072 6.26458V3.76978L13.5564 2.98533C12.3379 1.71035 10.7247 0.883974 8.97805 0.640003V1.64313L6.29467 3.0395H4.2242L3.79686 1.62909L3.59624 1.85279L3.55812 1.89492L3.54809 1.90596C3.44777 2.0163 3.40564 2.06846 3.35649 2.12765L3.34646 2.13969L3.28828 2.21091L3.63737 3.26922L2.35636 5.32464L0.751351 6.04088L0.733294 6.11912C0.702197 6.25053 0.675113 6.38896 0.650034 6.54244L0.601884 6.85241L2.45567 6.02583L3.56313 7.58269L3.57617 10.4537L2.48777 11.5431L2.53693 11.5992L1.37429 11.7848L1.92201 12.3215L3.01643 12.146L4.54922 13.8984L4.51411 15.1082L4.90533 14.9176L5.13806 14.9808L5.15812 14.3037L5.16213 14.3027ZM9.89091 14.7571L6.97279 13.6928V12.2382L9.32915 10.9723L11.2752 11.7026L11.2351 13.7209L9.88589 14.6809L9.89392 14.7551L9.89091 14.7571ZM6.65078 11.7086L4.20012 10.3473L4.18708 7.62984L6.19335 6.32577L8.99511 7.89768V10.4446L6.65179 11.7086H6.65078ZM9.37028 7.39511L6.58157 5.8252L6.42006 3.69154L9.22884 2.23097L11.2893 3.52903V6.40903L9.37429 7.3911L9.37028 7.39511Z" fill="currentColor"/>
</svg>
