<svg width="17" height="16" viewBox="0 0 17 16" fill="none" xmlns="http://www.w3.org/2000/svg">
<path d="M8.05293 16C7.38992 15.9932 6.7363 15.8429 6.1373 15.5596C5.5383 15.2762 5.00823 14.8665 4.58376 14.3588H4.07308C3.14663 14.3041 2.2629 13.9517 1.55429 13.3544C0.845684 12.757 0.350348 11.9469 0.142497 11.0454C-0.0287539 10.2145 0.0293687 9.35294 0.310671 8.5524C0.591974 7.75187 1.08591 7.0424 1.73986 6.49959C1.13486 5.79008 0.704566 4.94948 0.483282 4.04484C0.342898 3.51581 0.342256 2.95957 0.481419 2.43022C0.620581 1.90087 0.894811 1.41642 1.27744 1.02398C1.5617 0.71072 1.90695 0.458389 2.29217 0.282349C2.67739 0.106309 3.09452 0.0102436 3.51818 0H3.56944C4.74054 0.0819036 5.84336 0.579588 6.67772 1.40272L6.75815 1.47486C7.24853 1.35184 7.75233 1.28992 8.258 1.2905C8.65112 1.28965 9.04338 1.32724 9.42914 1.40272C10.2623 0.579054 11.3647 0.0812322 12.5354 0H12.5887C13.0124 0.00983545 13.4297 0.105718 13.815 0.281784C14.2002 0.45785 14.5454 0.710399 14.8294 1.02398C15.213 1.41727 15.4877 1.90297 15.6267 2.43365C15.7657 2.96433 15.7643 3.52188 15.6226 4.05185C15.401 4.95738 14.9688 5.79827 14.361 6.50661C15.0121 7.04961 15.5037 7.75814 15.7835 8.55706C16.0633 9.35597 16.1209 10.2155 15.9503 11.0444C15.7408 11.9469 15.2436 12.7574 14.5332 13.3547C13.8228 13.952 12.9375 14.304 12.0097 14.3578H11.5C11.0818 14.8672 10.5561 15.2785 9.96033 15.5623C9.36453 15.8462 8.71327 15.9956 8.05293 16ZM8.05293 13.6955C8.23684 13.8588 8.47513 13.9481 8.72143 13.946C8.9862 13.952 9.24262 13.8535 9.43499 13.6721C9.62736 13.4907 9.74014 13.241 9.74881 12.9771L9.0793 12.9451C9.07801 12.9904 9.0677 13.0351 9.04895 13.0764C9.03021 13.1178 9.00341 13.155 8.97012 13.186C8.93683 13.2169 8.8977 13.2409 8.85501 13.2567C8.81232 13.2725 8.76691 13.2796 8.72143 13.2777C8.67852 13.2804 8.63554 13.2741 8.59522 13.2592C8.55489 13.2444 8.5181 13.2213 8.4872 13.1916C8.42777 13.1247 8.39488 13.0384 8.39472 12.9491V12.2137C8.67202 12.0842 8.91693 11.8949 9.11167 11.6593C9.30642 11.4238 9.44611 11.1481 9.52062 10.852C9.5213 10.7797 9.50743 10.7081 9.47981 10.6412C9.45219 10.5744 9.41139 10.5138 9.35983 10.4629C9.30827 10.4121 9.247 10.3721 9.17964 10.3453C9.11229 10.3185 9.04022 10.3055 8.96772 10.307H7.12205C7.04955 10.3055 6.97748 10.3185 6.91013 10.3453C6.84277 10.3721 6.7815 10.4121 6.72994 10.4629C6.67838 10.5138 6.63758 10.5744 6.60996 10.6412C6.58234 10.7081 6.56847 10.7797 6.56916 10.852C6.64353 11.1502 6.78425 11.4278 6.98089 11.6644C7.17753 11.9009 7.42504 12.0904 7.70511 12.2187V12.9501C7.70485 13.0394 7.67198 13.1256 7.61262 13.1926C7.58172 13.2223 7.54493 13.2454 7.50461 13.2602C7.46428 13.2751 7.4213 13.2814 7.37839 13.2787C7.33298 13.2803 7.28768 13.273 7.24511 13.2571C7.20254 13.2413 7.16351 13.2172 7.13028 13.1863C7.09704 13.1554 7.07024 13.1183 7.0514 13.0771C7.03257 13.0359 7.02208 12.9914 7.02052 12.9461L6.35101 12.9761C6.36097 13.2397 6.47407 13.4889 6.66609 13.6704C6.85812 13.8518 7.11381 13.9511 7.37839 13.947C7.62515 13.95 7.86404 13.8606 8.0479 13.6965L8.05293 13.6955ZM11.0577 7.30014C10.6877 7.30014 10.3872 7.75002 10.3872 8.30209C10.3872 8.85416 10.6887 9.30403 11.0577 9.30403C11.4266 9.30403 11.7282 8.85416 11.7282 8.30209C11.7282 7.75002 11.4246 7.30014 11.0577 7.30014ZM5.02607 7.30014C4.65614 7.30014 4.35556 7.75002 4.35556 8.30209C4.35556 8.85416 4.65714 9.30403 5.02607 9.30403C5.39501 9.30403 5.69659 8.85416 5.69659 8.30209C5.69659 7.75002 5.39199 7.30014 5.02607 7.30014Z" fill="currentColor"/>
</svg>
