<svg width="16" height="16" viewBox="0 0 16 16" fill="none" xmlns="http://www.w3.org/2000/svg">
<path d="M6.89647 8.39648C7.09174 8.20122 7.40824 8.20122 7.60351 8.39648C7.79877 8.59175 7.79877 8.90825 7.60351 9.10352L4.49999 12.207V14C4.49999 14.1326 4.44727 14.2597 4.35351 14.3535L2.85351 15.8535C2.71051 15.9965 2.49542 16.0393 2.30858 15.9619C2.12178 15.8845 1.99999 15.7022 1.99999 15.5V14H0.499986C0.297778 14 0.115478 13.8782 0.0380718 13.6914C-0.0393187 13.5046 0.00347124 13.2895 0.14647 13.1465L1.64647 11.6465C1.74024 11.5527 1.86738 11.5 1.99999 11.5H3.79296L6.89647 8.39648ZM15.5 0C15.7761 0 16 0.223858 16 0.5V3.5C16 3.70221 15.8782 3.88451 15.6914 3.96191C15.5046 4.0393 15.2895 3.99651 15.1465 3.85352L14 2.70703L12.9941 3.71191C13.2304 3.96067 13.434 4.24385 13.5947 4.55762C14.1562 5.65432 14.1794 7.07494 13.3809 8.65039C12.5885 10.2136 10.986 11.9384 8.27538 13.7295L7.99999 13.9121L7.7246 13.7295C7.00664 13.2551 6.36676 12.7846 5.79882 12.3213L8.31054 9.81055C8.89619 9.22477 8.89624 8.2752 8.31054 7.68945C7.72479 7.10376 6.77522 7.1038 6.18944 7.68945L3.65819 10.2197C3.22015 9.68148 2.87636 9.15782 2.61913 8.65039C1.8205 7.07476 1.84464 5.65438 2.40624 4.55762C3.42682 2.56478 6.18128 1.80897 7.99999 3.23242C9.25039 2.25381 10.9433 2.30575 12.2109 3.08105L13.293 2L12.1465 0.853516C12.0035 0.710517 11.9607 0.495431 12.0381 0.308594C12.1155 0.121793 12.2978 0 12.5 0H15.5Z" fill="currentColor"/>
</svg>
