<svg width="16" height="16" viewBox="0 0 16 16" fill="none" xmlns="http://www.w3.org/2000/svg">
<path d="M8.00004 0L9.66873 0.864295L11.5267 1.1459L12.3687 2.82596L13.7063 4.1459L13.4 6L13.7063 7.8541L12.3687 9.17404L11.5267 10.8541L9.66873 11.1357L8.00004 12L6.33135 11.1357L4.47333 10.8541L3.63135 9.17404L2.2937 7.8541L2.60004 6L2.2937 4.1459L3.63135 2.82596L4.47333 1.1459L6.33135 0.864295L8.00004 0Z" fill="currentColor"/>
<path d="M4 11.7938V16L8 15L12 16V11.7938L9.98189 12.0997L7.99999 13.1262L6.01809 12.0997L4 11.7938Z" fill="currentColor"/>
</svg>
