<svg width="16" height="16" viewBox="0 0 16 16" fill="none" xmlns="http://www.w3.org/2000/svg">
<path d="M8 0C9.933 0 11.5 1.567 11.5 3.5V4H15V14C15 15.1046 14.1046 16 13 16H3C1.89543 16 1 15.1046 1 14V4H4.5V3.5C4.5 1.567 6.067 0 8 0ZM9.85352 8.14648C9.65825 7.95122 9.34175 7.95122 9.14648 8.14648L8 9.29297L6.85352 8.14648C6.65825 7.95122 6.34175 7.95122 6.14648 8.14648C5.95122 8.34175 5.95122 8.65825 6.14648 8.85352L7.29297 10L6.14648 11.1465C5.95122 11.3417 5.95122 11.6583 6.14648 11.8535C6.34175 12.0488 6.65825 12.0488 6.85352 11.8535L8 10.707L9.14648 11.8535C9.34175 12.0488 9.65825 12.0488 9.85352 11.8535C10.0488 11.6583 10.0488 11.3417 9.85352 11.1465L8.70703 10L9.85352 8.85352C10.0488 8.65825 10.0488 8.34175 9.85352 8.14648ZM8 1C6.61929 1 5.5 2.11929 5.5 3.5V4H10.5V3.5C10.5 2.11929 9.38071 1 8 1Z" fill="currentColor"/>
</svg>
