<svg width="16" height="16" viewBox="0 0 16 16" fill="none" xmlns="http://www.w3.org/2000/svg">
<path d="M8 0C9.933 0 11.5 1.567 11.5 3.5V4H15V14C15 15.1046 14.1046 16 13 16H3C1.89543 16 1 15.1046 1 14V4H4.5V3.5C4.5 1.567 6.067 0 8 0ZM10.8535 8.14648C10.6583 7.95122 10.3417 7.95122 10.1465 8.14648L7.5 10.793L6.35352 9.64648C6.15825 9.45122 5.84175 9.45122 5.64648 9.64648C5.45122 9.84175 5.45122 10.1583 5.64648 10.3535L7.14648 11.8535C7.24025 11.9473 7.36739 12 7.5 12C7.63261 12 7.75975 11.9473 7.85352 11.8535L10.8535 8.85352C11.0488 8.65825 11.0488 8.34175 10.8535 8.14648ZM8 1C6.61929 1 5.5 2.11929 5.5 3.5V4H10.5V3.5C10.5 2.11929 9.38071 1 8 1Z" fill="currentColor"/>
</svg>
