<svg width="16" height="16" viewBox="0 0 16 16" fill="none" xmlns="http://www.w3.org/2000/svg">
<path d="M5.75725 1.07133C5.99404 1.2134 6.07082 1.52053 5.92875 1.75732L3.3831 6.00007H12.6169L10.0713 1.75732C9.92918 1.52053 10.006 1.2134 10.2428 1.07133C10.4795 0.929253 10.7867 1.00604 10.9287 1.24283L13.7831 6.00007H15.5C15.7761 6.00007 16 6.22393 16 6.50007V7.50007C16 7.77622 15.7761 8.00007 15.5 8.00007H0.5C0.223858 8.00007 0 7.77622 0 7.50007V6.50007C0 6.22393 0.223858 6.00007 0.5 6.00007H2.2169L5.07125 1.24283C5.21333 1.00604 5.52046 0.929253 5.75725 1.07133Z" fill="currentColor"/>
<path d="M2.46782 15.4262L0.942627 9H15.0575L13.5323 15.4262C13.4509 15.7628 13.1497 16 12.8033 16H3.19682C2.85049 16 2.5492 15.7628 2.46782 15.4262Z" fill="currentColor"/>
</svg>
