<svg width="16" height="16" viewBox="0 0 16 16" fill="none" xmlns="http://www.w3.org/2000/svg">
<path d="M1 5.5C1 5.10218 1.15804 4.72064 1.43934 4.43934C1.72064 4.15804 2.10218 4 2.5 4H11.5C11.8978 4 12.2794 4.15804 12.5607 4.43934C12.842 4.72064 13 5.10218 13 5.5V10.5C13 10.8978 12.842 11.2794 12.5607 11.5607C12.2794 11.842 11.8978 12 11.5 12H2.5C2.10218 12 1.72064 11.842 1.43934 11.5607C1.15804 11.2794 1 10.8978 1 10.5V5.5ZM14 6.5C14.2652 6.5 14.5196 6.60536 14.7071 6.79289C14.8946 6.98043 15 7.23478 15 7.5V8.5C15 8.76522 14.8946 9.01957 14.7071 9.20711C14.5196 9.39464 14.2652 9.5 14 9.5V6.5Z" fill="currentColor"/>
</svg>
