<svg width="16" height="16" viewBox="0 0 16 16" fill="none" xmlns="http://www.w3.org/2000/svg">
<path d="M12 0C13.1046 0 14 0.895431 14 2V15.5C14 15.6765 13.9066 15.8396 13.7549 15.9297C13.6032 16.0197 13.4156 16.023 13.2607 15.9385L8 13.0693L2.73926 15.9385C2.58439 16.023 2.39684 16.0197 2.24512 15.9297C2.09337 15.8396 2 15.6765 2 15.5V2C2 0.895431 2.89543 0 4 0H12ZM9.85352 5.14648C9.65825 4.95122 9.34175 4.95122 9.14648 5.14648L8 6.29297L6.85352 5.14648C6.65825 4.95122 6.34175 4.95122 6.14648 5.14648C5.95122 5.34175 5.95122 5.65825 6.14648 5.85352L7.29297 7L6.14648 8.14648C5.95122 8.34175 5.95122 8.65825 6.14648 8.85352C6.34175 9.04878 6.65825 9.04878 6.85352 8.85352L8 7.70703L9.14648 8.85352C9.34175 9.04878 9.65825 9.04878 9.85352 8.85352C10.0488 8.65825 10.0488 8.34175 9.85352 8.14648L8.70703 7L9.85352 5.85352C10.0488 5.65825 10.0488 5.34175 9.85352 5.14648Z" fill="currentColor"/>
</svg>
