<svg width="16" height="16" viewBox="0 0 16 16" fill="none" xmlns="http://www.w3.org/2000/svg">
<path d="M8 1.78312C7.01509 0.936527 5.58683 0.809035 4.28732 0.94011C2.77322 1.09283 1.24459 1.61241 0.293099 2.0449C0.114601 2.12604 0 2.30401 0 2.50008V13.5001C0 13.6701 0.0863761 13.8285 0.229307 13.9205C0.372238 14.0126 0.55214 14.0257 0.706901 13.9553C1.58875 13.5545 3.01012 13.0741 4.38768 12.9351C5.79565 12.7931 6.97747 13.0224 7.60957 13.8125C7.70445 13.9311 7.84811 14.0001 8 14.0001C8.15189 14.0001 8.29555 13.9311 8.39043 13.8125C9.02253 13.0224 10.2043 12.7931 11.6123 12.9351C12.9899 13.0741 14.4113 13.5545 15.2931 13.9553C15.4479 14.0257 15.6278 14.0126 15.7707 13.9205C15.9136 13.8285 16 13.6701 16 13.5001V2.50008C16 2.30401 15.8854 2.12604 15.7069 2.0449C14.7554 1.61241 13.2268 1.09283 11.7127 0.94011C10.4132 0.809035 8.98491 0.936527 8 1.78312Z" fill="currentColor"/>
</svg>
