<svg width="16" height="16" viewBox="0 0 16 16" fill="none" xmlns="http://www.w3.org/2000/svg">
<path d="M12 0C13.1046 0 14 0.895431 14 2V15.5C14 15.6765 13.9066 15.8396 13.7549 15.9297C13.6032 16.0197 13.4156 16.023 13.2607 15.9385L8 13.0693L2.73926 15.9385C2.58439 16.023 2.39684 16.0197 2.24512 15.9297C2.09337 15.8396 2 15.6765 2 15.5V2C2 0.895431 2.89543 0 4 0H12ZM10.8535 5.14648C10.6583 4.95122 10.3417 4.95122 10.1465 5.14648L7.5 7.79297L6.35352 6.64648C6.15825 6.45122 5.84175 6.45122 5.64648 6.64648C5.45122 6.84175 5.45122 7.15825 5.64648 7.35352L7.14648 8.85352C7.24025 8.94728 7.36739 9 7.5 9C7.63261 9 7.75975 8.94728 7.85352 8.85352L10.8535 5.85352C11.0488 5.65825 11.0488 5.34175 10.8535 5.14648Z" fill="currentColor"/>
</svg>
