<svg width="16" height="16" viewBox="0 0 16 16" fill="none" xmlns="http://www.w3.org/2000/svg">
<path fill-rule="evenodd" clip-rule="evenodd" d="M1.5 3H14.5C14.6326 3 14.7598 3.05268 14.8536 3.14645C14.9473 3.24021 15 3.36739 15 3.5V12.5C15 12.6326 14.9473 12.7598 14.8536 12.8536C14.7598 12.9473 14.6326 13 14.5 13H1.5C1.36739 13 1.24021 12.9473 1.14645 12.8536C1.05268 12.7598 1 12.6326 1 12.5V3.5C1 3.36739 1.05268 3.24021 1.14645 3.14645C1.24021 3.05268 1.36739 3 1.5 3ZM2 4.5V6.5H5.5V4.5H2ZM6.5 4.5V6.5H10V4.5H6.5ZM11 4.5V6.5H14V4.5H11ZM2 7.5V9.5H4V7.5H2ZM5 7.5V9.5H9V7.5H5ZM10 7.5V9.5H14V7.5H10ZM2 10.5V12H5.5V10.5H2ZM6.5 10.5V12H10V10.5H6.5ZM11 10.5V12H14V10.5H11Z" fill="currentColor"/>
</svg>
