<svg width="16" height="16" viewBox="0 0 16 16" fill="none" xmlns="http://www.w3.org/2000/svg">
<path d="M12 8C12 10.2091 10.2091 12 8 12C5.79086 12 4 10.2091 4 8C4 5.79086 5.79086 4 8 4C10.2091 4 12 5.79086 12 8Z" fill="currentColor"/>
<path d="M8.5 2.5C8.5 2.77614 8.27614 3 8 3C7.72386 3 7.5 2.77614 7.5 2.5C7.5 2.22386 7.72386 2 8 2C8.27614 2 8.5 2.22386 8.5 2.5Z" fill="currentColor"/>
<path d="M8.5 13.5C8.5 13.7761 8.27614 14 8 14C7.72386 14 7.5 13.7761 7.5 13.5C7.5 13.2239 7.72386 13 8 13C8.27614 13 8.5 13.2239 8.5 13.5Z" fill="currentColor"/>
<path d="M13.5 8.5C13.2239 8.5 13 8.27614 13 8C13 7.72386 13.2239 7.5 13.5 7.5C13.7761 7.5 14 7.72386 14 8C14 8.27614 13.7761 8.5 13.5 8.5Z" fill="currentColor"/>
<path d="M2.5 8.5C2.22386 8.5 2 8.27614 2 8C2 7.72386 2.22386 7.5 2.5 7.5C2.77614 7.5 3 7.72386 3 8C3 8.27614 2.77614 8.5 2.5 8.5Z" fill="currentColor"/>
<path d="M12.2427 4.46452C12.0475 4.65978 11.7309 4.65978 11.5356 4.46452C11.3404 4.26926 11.3404 3.95267 11.5356 3.75741C11.7309 3.56215 12.0475 3.56215 12.2427 3.75741C12.438 3.95267 12.438 4.26926 12.2427 4.46452Z" fill="currentColor"/>
<path d="M4.46451 12.2427C4.26925 12.438 3.95267 12.438 3.75741 12.2427C3.56214 12.0475 3.56214 11.7309 3.75741 11.5356C3.95267 11.3404 4.26925 11.3404 4.46451 11.5356C4.65977 11.7309 4.65977 12.0475 4.46451 12.2427Z" fill="currentColor"/>
<path d="M11.5356 12.2426C11.3404 12.0473 11.3404 11.7307 11.5356 11.5355C11.7309 11.3402 12.0475 11.3402 12.2427 11.5355C12.438 11.7307 12.438 12.0473 12.2427 12.2426C12.0475 12.4379 11.7309 12.4379 11.5356 12.2426Z" fill="currentColor"/>
<path d="M3.75741 4.46439C3.56215 4.26912 3.56214 3.95254 3.75741 3.75728C3.95267 3.56202 4.26925 3.56202 4.46451 3.75728C4.65978 3.95254 4.65978 4.26912 4.46451 4.46439C4.26925 4.65965 3.95267 4.65965 3.75741 4.46439Z" fill="currentColor"/>
</svg>
