<svg width="16" height="16" viewBox="0 0 16 16" fill="none" xmlns="http://www.w3.org/2000/svg">
<path d="M12 8C12 10.2091 10.2091 12 8 12C5.79086 12 4 10.2091 4 8C4 5.79086 5.79086 4 8 4C10.2091 4 12 5.79086 12 8Z" fill="currentColor"/>
<path d="M8 0C8.27614 0 8.5 0.223858 8.5 0.5V2.5C8.5 2.77614 8.27614 3 8 3C7.72386 3 7.5 2.77614 7.5 2.5V0.5C7.5 0.223858 7.72386 0 8 0Z" fill="currentColor"/>
<path d="M8 13C8.27614 13 8.5 13.2239 8.5 13.5V15.5C8.5 15.7761 8.27614 16 8 16C7.72386 16 7.5 15.7761 7.5 15.5V13.5C7.5 13.2239 7.72386 13 8 13Z" fill="currentColor"/>
<path d="M16 8C16 8.27614 15.7761 8.5 15.5 8.5H13.5C13.2239 8.5 13 8.27614 13 8C13 7.72386 13.2239 7.5 13.5 7.5H15.5C15.7761 7.5 16 7.72386 16 8Z" fill="currentColor"/>
<path d="M3 8C3 8.27614 2.77614 8.5 2.5 8.5H0.5C0.223858 8.5 -1.20706e-08 8.27614 0 8C1.20706e-08 7.72386 0.223858 7.5 0.5 7.5H2.5C2.77614 7.5 3 7.72386 3 8Z" fill="currentColor"/>
<path d="M13.657 2.34322C13.8522 2.53848 13.8522 2.85506 13.657 3.05032L12.2427 4.46454C12.0475 4.6598 11.7309 4.6598 11.5356 4.46454C11.3404 4.26928 11.3404 3.95269 11.5356 3.75743L12.9498 2.34322C13.1451 2.14796 13.4617 2.14796 13.657 2.34322Z" fill="currentColor"/>
<path d="M4.46442 11.5356C4.65969 11.7308 4.65969 12.0474 4.46442 12.2427L3.05021 13.6569C2.85495 13.8521 2.53837 13.8521 2.3431 13.6569C2.14784 13.4616 2.14784 13.145 2.3431 12.9498L3.75732 11.5356C3.95258 11.3403 4.26916 11.3403 4.46442 11.5356Z" fill="currentColor"/>
<path d="M13.657 13.6569C13.4617 13.8522 13.1451 13.8522 12.9498 13.6569L11.5356 12.2427C11.3404 12.0474 11.3404 11.7308 11.5356 11.5356C11.7309 11.3403 12.0475 11.3403 12.2427 11.5356L13.657 12.9498C13.8522 13.1451 13.8522 13.4616 13.657 13.6569Z" fill="currentColor"/>
<path d="M4.46443 4.46454C4.26916 4.6598 3.95258 4.6598 3.75732 4.46454L2.34311 3.05033C2.14784 2.85506 2.14784 2.53848 2.34311 2.34322C2.53837 2.14796 2.85495 2.14796 3.05021 2.34322L4.46443 3.75743C4.65969 3.9527 4.65969 4.26928 4.46443 4.46454Z" fill="currentColor"/>
</svg>
