<svg width="16" height="16" viewBox="0 0 16 16" fill="none" xmlns="http://www.w3.org/2000/svg">
<path d="M15.8253 0.12029C15.9934 0.264266 16.0468 0.501593 15.9566 0.703697C14.4261 4.13468 11.2137 8.8743 8.86214 11.3447C8.22703 12.012 7.54604 12.4205 7.02335 12.6626C6.81773 12.7578 6.63556 12.8278 6.48872 12.878C6.47097 13.1051 6.42866 13.4159 6.32831 13.7456C6.12773 14.4046 5.66232 15.2248 4.62123 15.4851C3.54907 15.7531 2.35449 15.7535 1.54279 15.6182C1.33735 15.584 1.14573 15.5393 0.980425 15.4834C0.825653 15.4311 0.650621 15.3548 0.514504 15.2357C0.443707 15.1737 0.360063 15.0799 0.311313 14.9481C0.258135 14.8043 0.259399 14.6486 0.314961 14.5051C0.40997 14.2596 0.631365 14.1253 0.776372 14.0528C1.16942 13.8563 1.40097 13.6002 1.64325 13.2275C1.73743 13.0826 1.82725 12.9298 1.92998 12.755C1.96692 12.6921 2.00553 12.6264 2.04662 12.5572C2.19808 12.3021 2.37294 12.0176 2.59312 11.7094C3.12092 10.9705 3.79383 10.7845 4.33876 10.8132C4.46497 10.8198 4.58212 10.8377 4.687 10.8606C4.74922 10.6888 4.82871 10.4812 4.92502 10.253C5.18613 9.63422 5.58293 8.83431 6.11228 8.18428C8.28745 5.51317 12.2913 1.97796 15.2287 0.0800421C15.4145 -0.0400593 15.6572 -0.0236867 15.8253 0.12029Z" fill="currentColor"/>
</svg>
