<svg width="16" height="16" viewBox="0 0 16 16" fill="none" xmlns="http://www.w3.org/2000/svg">
<path d="M16 14C16 15.1046 15.1046 16 14 16H2C0.895431 16 0 15.1046 0 14V3H16V14ZM3 8C2.44772 8 2 8.44772 2 9C2 9.55228 2.44772 10 3 10C3.55228 10 4 9.55228 4 9C4 8.44772 3.55228 8 3 8ZM6 8C5.44772 8 5 8.44772 5 9C5 9.55228 5.44772 10 6 10C6.55228 10 7 9.55228 7 9C7 8.44772 6.55228 8 6 8ZM10 5C9.44772 5 9 5.44772 9 6C9 6.55228 9.44772 7 10 7C10.5523 7 11 6.55228 11 6C11 5.44772 10.5523 5 10 5ZM13 5C12.4477 5 12 5.44772 12 6C12 6.55228 12.4477 7 13 7C13.5523 7 14 6.55228 14 6C14 5.44772 13.5523 5 13 5ZM14 0C15.1046 0 16 0.895431 16 2H0C0 0.895431 0.895431 0 2 0H14Z" fill="currentColor"/>
</svg>
