<svg width="16" height="16" viewBox="0 0 16 16" fill="none" xmlns="http://www.w3.org/2000/svg">
<path d="M7.27043 1.04714C7.6655 0.625726 8.33443 0.625724 8.72951 1.04714L15.0754 7.81608C15.6742 8.45474 15.2213 9.50002 14.3459 9.50002H11.5V10.5C11.5 11.0523 11.0523 11.5 10.5 11.5H5.49997C4.94768 11.5 4.49997 11.0523 4.49997 10.5V9.50002H1.65409C0.778643 9.50002 0.325796 8.45474 0.924546 7.81608L7.27043 1.04714Z" fill="currentColor"/>
<path d="M4.49997 13.5C4.49997 12.9477 4.94769 12.5 5.49997 12.5H10.5C11.0523 12.5 11.5 12.9477 11.5 13.5V14.5C11.5 15.0523 11.0523 15.5 10.5 15.5H5.49997C4.94769 15.5 4.49997 15.0523 4.49997 14.5V13.5Z" fill="currentColor"/>
</svg>
