<svg width="16" height="16" viewBox="0 0 16 16" fill="none" xmlns="http://www.w3.org/2000/svg">
<path d="M11.473 4.99985C11.2244 7.2499 9.31682 9 7.00049 9C5.03691 9 3.36808 7.74275 2.75316 5.98995C1.212 5.86418 0.000488281 4.57358 0.000488281 3C0.000488281 1.34315 1.34363 0 3.00049 0H11.5005C12.8812 0 14.0005 1.11929 14.0005 2.5C14.0005 3.88071 12.8812 5 11.5005 5C11.4913 5 11.4822 4.99995 11.473 4.99985Z" fill="currentColor"/>
<path d="M11.2857 14.2223C11.4034 14.3986 11.3972 14.63 11.2701 14.7996C11.1431 14.9693 10.9229 15.0404 10.7206 14.9772C8.8551 14.3935 7.50046 12.6521 7.50046 10.593C7.50046 10.383 7.51456 10.1762 7.54186 9.97371C7.90487 9.93825 8.25752 9.86752 8.59634 9.76497C8.53364 10.0308 8.50046 10.308 8.50046 10.593C8.50046 11.7188 9.01842 12.7243 9.82946 13.3832C9.73412 13.0146 9.6834 12.6282 9.6834 12.2302C9.6834 9.73923 11.6664 7.7114 14.1399 7.63918C13.559 7.23595 12.8537 6.99998 12.0935 6.99998C12.0279 6.99998 11.9626 7.00174 11.8979 7.00522C12.0604 6.68816 12.193 6.35325 12.292 6.0042C13.8046 6.06857 15.1275 6.86475 15.9158 8.04559C16.0335 8.22187 16.0273 8.45321 15.9002 8.62288C15.7732 8.79256 15.553 8.8637 15.3507 8.80041C15.0121 8.69447 14.6514 8.63719 14.2764 8.63719C12.292 8.63719 10.6834 10.2458 10.6834 12.2302C10.6834 12.968 10.9052 13.6524 11.2857 14.2223Z" fill="currentColor"/>
</svg>
