<svg width="16" height="16" viewBox="0 0 16 16" fill="none" xmlns="http://www.w3.org/2000/svg">
<path d="M2.37497 2.5C2.51304 2.5 2.62497 2.38807 2.62497 2.25V1.68078L3.12595 1.96706C3.24583 2.03556 3.39854 1.99391 3.46704 1.87403C3.53554 1.75415 3.4939 1.60144 3.37402 1.53294L2.87887 1.25L3.37401 0.96706C3.49389 0.898558 3.53554 0.745845 3.46704 0.625965C3.39853 0.506086 3.24582 0.464437 3.12594 0.53294L2.62497 0.81921V0.25C2.62497 0.111929 2.51304 0 2.37497 0C2.2369 0 2.12497 0.111929 2.12497 0.25V0.819195L1.62402 0.53294C1.50414 0.464437 1.35143 0.506086 1.28293 0.625965C1.21443 0.745845 1.25607 0.898558 1.37595 0.96706L1.87109 1.25L1.37595 1.53294C1.25607 1.60144 1.21442 1.75415 1.28292 1.87403C1.35142 1.99391 1.50414 2.03556 1.62402 1.96706L2.12497 1.6808V2.25C2.12497 2.38807 2.2369 2.5 2.37497 2.5Z" fill="currentColor"/>
<path d="M4.2236 4.94722C4.47059 4.82373 4.5707 4.52339 4.44721 4.2764L3.94721 3.2764C3.82371 3.02941 3.52337 2.9293 3.27638 3.05279C3.0294 3.17629 2.92928 3.47663 3.05278 3.72361L3.55278 4.72361C3.67627 4.9706 3.97661 5.07072 4.2236 4.94722Z" fill="currentColor"/>
<path d="M6.37497 2.5C6.51304 2.5 6.62497 2.38807 6.62497 2.25V1.68078L7.12595 1.96706C7.24583 2.03556 7.39854 1.99391 7.46704 1.87403C7.53555 1.75415 7.4939 1.60144 7.37402 1.53294L6.87887 1.25L7.37401 0.96706C7.49389 0.898558 7.53554 0.745845 7.46704 0.625965C7.39853 0.506086 7.24582 0.464437 7.12594 0.53294L6.62497 0.81921V0.25C6.62497 0.111929 6.51304 0 6.37497 0C6.2369 0 6.12497 0.111929 6.12497 0.25V0.819195L5.62402 0.53294C5.50414 0.464437 5.35143 0.506086 5.28293 0.625965C5.21443 0.745845 5.25607 0.898558 5.37595 0.96706L5.87109 1.25L5.37595 1.53294C5.25607 1.60144 5.21442 1.75415 5.28292 1.87403C5.35142 1.99391 5.50414 2.03556 5.62402 1.96706L6.12497 1.6808V2.25C6.12497 2.38807 6.2369 2.5 6.37497 2.5Z" fill="currentColor"/>
<path d="M8.2236 4.94722C8.47059 4.82373 8.5707 4.52339 8.44721 4.2764L7.94721 3.2764C7.82371 3.02941 7.52337 2.9293 7.27638 3.05279C7.0294 3.17629 6.92928 3.47663 7.05278 3.72361L7.55278 4.72361C7.67627 4.9706 7.97661 5.07072 8.2236 4.94722Z" fill="currentColor"/>
<path d="M10.375 2.5C10.513 2.5 10.625 2.38807 10.625 2.25V1.68078L11.1259 1.96706C11.2458 2.03556 11.3985 1.99391 11.467 1.87403C11.5355 1.75415 11.4939 1.60144 11.374 1.53294L10.8789 1.25L11.374 0.96706C11.4939 0.898558 11.5355 0.745845 11.467 0.625965C11.3985 0.506086 11.2458 0.464437 11.1259 0.53294L10.625 0.81921V0.25C10.625 0.111929 10.513 0 10.375 0C10.2369 0 10.125 0.111929 10.125 0.25V0.819195L9.62402 0.53294C9.50414 0.464437 9.35143 0.506086 9.28293 0.625965C9.21442 0.745845 9.25607 0.898558 9.37595 0.96706L9.87109 1.25L9.37595 1.53294C9.25607 1.60144 9.21442 1.75415 9.28292 1.87403C9.35142 1.99391 9.50414 2.03556 9.62402 1.96706L10.125 1.6808V2.25C10.125 2.38807 10.2369 2.5 10.375 2.5Z" fill="currentColor"/>
<path d="M12.2236 4.94722C12.4706 4.82373 12.5707 4.52339 12.4472 4.2764L11.9472 3.2764C11.8237 3.02941 11.5234 2.9293 11.2764 3.05279C11.0294 3.17629 10.9293 3.47663 11.0528 3.72361L11.5528 4.72361C11.6763 4.9706 11.9766 5.07072 12.2236 4.94722Z" fill="currentColor"/>
<path d="M13.4053 11.9729C12.9524 14.2688 10.9287 16 8.5 16C6.44002 16 4.67207 14.7546 3.90606 12.9767C3.77271 12.9921 3.63721 13 3.5 13C1.567 13 0 11.433 0 9.49998C0 7.56699 1.567 5.99998 3.5 5.99998H13C14.6569 5.99998 16 7.34313 16 8.99998C16 10.5194 14.8705 11.775 13.4053 11.9729Z" fill="currentColor"/>
</svg>
