<svg width="16" height="16" viewBox="0 0 16 16" fill="none" xmlns="http://www.w3.org/2000/svg">
<path d="M11.4726 9.00015C11.2239 6.7501 9.31633 5 7 5C5.03642 5 3.36759 6.25725 2.75267 8.01005C1.21152 8.13582 0 9.42642 0 11C0 12.6569 1.34315 14 3 14H11.5C12.8807 14 14 12.8807 14 11.5C14 10.1193 12.8807 9 11.5 9C11.4908 9 11.4817 9.00005 11.4726 9.00015Z" fill="currentColor"/>
<path d="M14.5442 9.77192C14.0724 8.9425 13.2714 8.32473 12.319 8.09636C11.6982 5.7384 9.55266 4 6.99994 4C6.65222 4 6.31211 4.03225 5.98242 4.0939C6.65969 2.84671 7.98094 2 9.49994 2C11.365 2 12.9314 3.27615 13.3746 5.0031C13.4161 5.00104 13.4579 5 13.4999 5C14.8806 5 15.9999 6.11929 15.9999 7.5C15.9999 8.50835 15.4033 9.37641 14.5442 9.77192Z" fill="currentColor"/>
</svg>
