<svg width="16" height="16" viewBox="0 0 16 16" fill="none" xmlns="http://www.w3.org/2000/svg">
<path d="M11.4726 4.99985C11.2239 7.2499 9.31633 9 7 9C5.03642 9 3.36759 7.74275 2.75267 5.98995C1.21152 5.86418 0 4.57358 0 3C0 1.34315 1.34315 0 3 0H11.5C12.8807 0 14 1.11929 14 2.5C14 3.88071 12.8807 5 11.5 5C11.4908 5 11.4817 4.99995 11.4726 4.99985Z" fill="currentColor"/>
<path d="M10.5 14.5C10.5 14.7761 10.2761 15 9.99999 15C9.72385 15 9.49999 14.7761 9.49999 14.5V13.5C9.49999 13.2239 9.72385 13 9.99999 13C10.2761 13 10.5 13.2239 10.5 13.5V14.5ZM14.2426 12.5355C14.4379 12.7308 14.4379 13.0474 14.2426 13.2427C14.0474 13.4379 13.7308 13.4379 13.5355 13.2427L12.8284 12.5355C12.6332 12.3403 12.6332 12.0237 12.8284 11.8284C13.0237 11.6332 13.3403 11.6332 13.5355 11.8284L14.2426 12.5355ZM6.46447 13.2427C6.2692 13.4379 5.95262 13.4379 5.75736 13.2427C5.5621 13.0474 5.5621 12.7308 5.75736 12.5355L6.46447 11.8284C6.65973 11.6332 6.97631 11.6332 7.17157 11.8284C7.36683 12.0237 7.36683 12.3403 7.17157 12.5355L6.46447 13.2427ZM8.19821 9.86914C8.52162 10.5384 9.2069 11 10 11C11.1046 11 12 10.1046 12 9.00001C12 8.48975 11.8089 8.02413 11.4944 7.67078C11.693 7.38973 11.8659 7.08921 12.0097 6.77266C12.6178 7.32169 13 8.11622 13 9.00001C13 10.6569 11.6569 12 10 12C8.69281 12 7.5809 11.164 7.16979 9.99743C7.52194 9.98675 7.86575 9.94299 8.19821 9.86914ZM12.6825 5.7952C13.2825 5.57986 13.8066 5.2053 14.2039 4.72246C14.2173 4.73331 14.2302 4.74494 14.2426 4.75737C14.4379 4.95263 14.4379 5.26922 14.2426 5.46448L13.5355 6.17159C13.3403 6.36685 13.0237 6.36685 12.8284 6.17158C12.725 6.06815 12.6763 5.93066 12.6825 5.7952ZM14.5 9.50001C14.2239 9.50001 14 9.27615 14 9.00001C14 8.72387 14.2239 8.50001 14.5 8.50001H15.5C15.7761 8.50001 16 8.72387 16 9.00001C16 9.27615 15.7761 9.50001 15.5 9.50001H14.5Z" fill="currentColor"/>
</svg>
