<svg width="16" height="16" viewBox="0 0 16 16" fill="none" xmlns="http://www.w3.org/2000/svg">
<path d="M3 2.5C3 2.77614 3.22386 3 3.5 3H12.5C12.7761 3 13 2.77614 13 2.5C13 2.22386 12.7761 2 12.5 2H3.5C3.22386 2 3 2.22386 3 2.5ZM3 0.5C3 0.776142 3.22386 1 3.5 1H12.5C12.7761 1 13 0.776142 13 0.5C13 0.223858 12.7761 0 12.5 0H3.5C3.22386 0 3 0.223858 3 0.5Z" fill="currentColor"/>
<path d="M13.4053 9.97285C12.9524 12.2688 10.9287 14 8.5 14C6.44002 14 4.67207 12.7545 3.90606 10.9766C3.77271 10.9921 3.63721 11 3.5 11C1.567 11 0 9.433 0 7.5C0 5.567 1.567 4 3.5 4H13C14.6569 4 16 5.34315 16 7C16 8.51939 14.8705 9.77497 13.4053 9.97285Z" fill="currentColor"/>
</svg>
