<svg width="16" height="16" viewBox="0 0 16 16" fill="none" xmlns="http://www.w3.org/2000/svg">
<path d="M4.15812 3.97448C4.42009 3.88715 4.56167 3.60399 4.47435 3.34202L3.97435 1.84202C3.88702 1.58005 3.60386 1.43847 3.34189 1.52579C3.07992 1.61312 2.93834 1.89628 3.02568 2.15825L3.52567 3.65825C3.61299 3.92022 3.89615 4.0618 4.15812 3.97448ZM7.15812 3.97448C7.42009 3.88715 7.56167 3.60399 7.47435 3.34202L6.47435 0.342022C6.38702 0.0800504 6.10387 -0.0615299 5.8419 0.025794C5.57993 0.113118 5.43834 0.396278 5.52567 0.65825L6.52567 3.65825C6.613 3.92022 6.89615 4.0618 7.15812 3.97448ZM10.1581 3.97448C10.4201 3.88715 10.5617 3.60399 10.4744 3.34202L9.97435 1.84202C9.88702 1.58005 9.60388 1.43847 9.3419 1.52579C9.07993 1.61312 8.93834 1.89628 9.02566 2.15825L9.52566 3.65825C9.61299 3.92022 9.89615 4.0618 10.1581 3.97448ZM13.1581 3.97448C13.4201 3.88715 13.5617 3.60399 13.4744 3.34202L12.4744 0.342022C12.387 0.0800504 12.1039 -0.0615299 11.8419 0.025794C11.5799 0.113118 11.4384 0.396278 11.5257 0.65825L12.5257 3.65825C12.613 3.92022 12.8962 4.0618 13.1581 3.97448Z" fill="currentColor"/>
<path d="M13.4053 10.973C12.9524 13.2689 10.9287 15.0001 8.5 15.0001C6.44003 15.0001 4.67207 13.7547 3.90607 11.9768C3.77272 11.9922 3.63721 12.0001 3.5 12.0001C1.56701 12.0001 0 10.4331 0 8.50015C0 6.56715 1.56701 5.00015 3.5 5.00015H13C14.6569 5.00015 16 6.3433 16 8.00015C16 9.51954 14.8705 10.7751 13.4053 10.973Z" fill="currentColor"/>
</svg>
