<svg width="16" height="16" viewBox="0 0 16 16" fill="none" xmlns="http://www.w3.org/2000/svg">
<path fill-rule="evenodd" clip-rule="evenodd" d="M4.49998 4H11.5C12.027 4.00111 12.547 4.12122 13.0211 4.35137C13.4952 4.58152 13.9112 4.91576 14.2381 5.32917C14.565 5.74257 14.7943 6.22446 14.9089 6.73887C15.0235 7.25328 15.0204 7.78693 14.9 8.3L14.1 11.6C14.0412 11.9306 13.891 12.2382 13.6665 12.488C13.442 12.7377 13.1522 12.9197 12.8297 13.0134C12.5072 13.107 12.1649 13.1085 11.8416 13.0178C11.5182 12.9271 11.2267 12.7477 11 12.5L9.49998 11H6.49998L4.99998 12.5C4.77325 12.7477 4.48174 12.9271 4.1584 13.0178C3.83507 13.1085 3.4928 13.107 3.1703 13.0134C2.84779 12.9197 2.55791 12.7377 2.33343 12.488C2.10894 12.2382 1.9588 11.9306 1.89998 11.6L1.09998 8.3C0.979518 7.78693 0.976477 7.25328 1.09108 6.73887C1.20569 6.22446 1.43499 5.74257 1.76187 5.32917C2.08875 4.91576 2.50477 4.58152 2.97888 4.35137C3.45299 4.12122 3.97296 4.00111 4.49998 4ZM3.99998 6V7H2.99998V8H3.99998V9H4.99998V8H5.99998V7H4.99998V6H3.99998ZM10.4 6.4C10.2143 6.4 10.0363 6.47375 9.90501 6.60503C9.77373 6.7363 9.69998 6.91435 9.69998 7.1C9.69998 7.28565 9.77373 7.4637 9.90501 7.59497C10.0363 7.72625 10.2143 7.8 10.4 7.8C10.5856 7.8 10.7637 7.72625 10.895 7.59497C11.0262 7.4637 11.1 7.28565 11.1 7.1C11.1 6.91435 11.0262 6.7363 10.895 6.60503C10.7637 6.47375 10.5856 6.4 10.4 6.4ZM11.9 7.9C11.7143 7.9 11.5363 7.97375 11.405 8.10503C11.2737 8.2363 11.2 8.41435 11.2 8.6C11.2 8.78565 11.2737 8.9637 11.405 9.09497C11.5363 9.22625 11.7143 9.3 11.9 9.3C12.0856 9.3 12.2637 9.22625 12.395 9.09497C12.5262 8.9637 12.6 8.78565 12.6 8.6C12.6 8.41435 12.5262 8.2363 12.395 8.10503C12.2637 7.97375 12.0856 7.9 11.9 7.9Z" fill="currentColor"/>
</svg>
