<svg width="16" height="16" viewBox="0 0 16 16" fill="none" xmlns="http://www.w3.org/2000/svg">
<path fill-rule="evenodd" clip-rule="evenodd" d="M0.500004 5.99994C0.348345 5.99994 0.204881 6.06877 0.109984 6.18708C0.0150858 6.30538 -0.0209887 6.46036 0.0119109 6.6084L1.66388 14.0423C1.91807 15.1861 2.9326 15.9999 4.10435 15.9999H9.89566C11.0674 15.9999 12.0819 15.1861 12.3361 14.0423L12.4671 13.4527C12.6403 13.4837 12.8184 13.4999 13 13.4999C14.6569 13.4999 16 12.1568 16 10.4999C16 9.10847 15.0529 7.93852 13.7679 7.5992L13.9881 6.6084C14.021 6.46036 13.9849 6.30538 13.89 6.18708C13.7951 6.06877 13.6517 5.99994 13.5 5.99994H0.500004ZM13 12.4999C12.8924 12.4999 12.787 12.4915 12.6844 12.4752L13.5507 8.57664C14.3873 8.81571 15 9.58643 15 10.4999C15 11.6045 14.1046 12.4999 13 12.4999Z" fill="currentColor"/>
<path d="M4.40006 0.799865L4.39675 0.804343L4.38349 0.822502C4.37162 0.838887 4.35416 0.86333 4.33297 0.89393C4.29027 0.955616 4.2341 1.03994 4.17875 1.1322C4.12246 1.22601 4.07232 1.31926 4.0377 1.40004C4.01233 1.45923 4.00398 1.49202 4.00126 1.50268C4.00062 1.5052 4.00013 1.50659 4.00013 1.50659C4.00183 1.55147 4.02108 1.62867 4.09204 1.75482C4.16668 1.88752 4.27043 2.02719 4.4 2.19995L4.40915 2.21215C4.52777 2.37028 4.66953 2.55925 4.77954 2.75482C4.89245 2.95555 5 3.21037 5 3.49995C5 3.68765 4.93524 3.86826 4.88145 3.99379C4.82232 4.13176 4.74746 4.26767 4.67875 4.3822C4.6091 4.49828 4.54027 4.60145 4.48922 4.67518C4.46353 4.71229 4.44193 4.74253 4.42646 4.76391L4.40798 4.78921L4.40259 4.79649L4.40093 4.79871L4.40016 4.79973C4.23448 5.02065 3.92091 5.06564 3.7 4.89995C3.47917 4.73433 3.43435 4.42111 3.59981 4.20021L3.60325 4.19556L3.61651 4.1774C3.62838 4.16102 3.64584 4.13657 3.66703 4.10597C3.70973 4.04429 3.7659 3.95996 3.82125 3.8677C3.87754 3.7739 3.92768 3.68064 3.9623 3.59987C3.98767 3.54068 3.99602 3.50789 3.99874 3.49723C3.99938 3.4947 3.99987 3.49331 3.99987 3.49331C3.99817 3.44843 3.97892 3.37123 3.90796 3.24508C3.83332 3.11238 3.72957 2.97272 3.6 2.79995L3.59085 2.78775C3.47222 2.62962 3.33047 2.44065 3.22046 2.24508C3.10755 2.04435 3 1.78953 3 1.49995C3 1.31226 3.06476 1.13164 3.11855 1.00612C3.17768 0.868141 3.25254 0.732228 3.32125 0.617702C3.3909 0.501626 3.45973 0.398452 3.51078 0.32472C3.53647 0.287612 3.55807 0.257368 3.57354 0.235992L3.59907 0.201195L3.59984 0.200169C3.76552 -0.020745 4.07909 -0.0657351 4.3 0.09995C4.52082 0.265567 4.56551 0.578966 4.40006 0.799865Z" fill="currentColor"/>
<path d="M7.40006 0.799865L7.39675 0.804343L7.38349 0.822502C7.37162 0.838887 7.35416 0.86333 7.33297 0.89393C7.29027 0.955616 7.2341 1.03994 7.17875 1.1322C7.12246 1.22601 7.07232 1.31926 7.0377 1.40004C7.01233 1.45923 7.00398 1.49202 7.00126 1.50268C7.00062 1.5052 7.00013 1.50659 7.00013 1.50659C7.00183 1.55147 7.02108 1.62867 7.09204 1.75482C7.16668 1.88752 7.27043 2.02719 7.4 2.19995L7.40915 2.21215C7.52777 2.37028 7.66953 2.55925 7.77954 2.75482C7.89245 2.95555 8 3.21037 8 3.49995C8 3.68765 7.93524 3.86826 7.88145 3.99379C7.82232 4.13176 7.74746 4.26767 7.67875 4.3822C7.6091 4.49828 7.54027 4.60145 7.48922 4.67518C7.46353 4.71229 7.44193 4.74253 7.42646 4.76391L7.40798 4.78921L7.40259 4.79649L7.40093 4.79871L7.40016 4.79973C7.23448 5.02065 6.92091 5.06564 6.7 4.89995C6.47917 4.73433 6.43435 4.42111 6.5998 4.20021L6.60325 4.19556L6.61651 4.1774C6.62838 4.16102 6.64584 4.13657 6.66703 4.10597C6.70973 4.04429 6.7659 3.95996 6.82125 3.8677C6.87754 3.7739 6.92768 3.68064 6.9623 3.59987C6.98767 3.54068 6.99602 3.50789 6.99874 3.49723C6.99938 3.4947 6.99987 3.49331 6.99987 3.49331C6.99817 3.44843 6.97892 3.37123 6.90796 3.24508C6.83332 3.11238 6.72957 2.97272 6.6 2.79995L6.59085 2.78775C6.47222 2.62962 6.33047 2.44065 6.22046 2.24508C6.10755 2.04435 6 1.78953 6 1.49995C6 1.31226 6.06476 1.13164 6.11855 1.00612C6.17768 0.868141 6.25254 0.732228 6.32125 0.617702C6.3909 0.501626 6.45973 0.398452 6.51078 0.32472C6.53647 0.287612 6.55807 0.257368 6.57354 0.235992L6.59907 0.201195L6.59984 0.200169C6.76552 -0.020745 7.07909 -0.0657351 7.3 0.09995C7.52082 0.265567 7.56551 0.578966 7.40006 0.799865Z" fill="currentColor"/>
<path d="M10.4001 0.799865L10.3967 0.804343L10.3835 0.822502C10.3716 0.838887 10.3542 0.86333 10.333 0.89393C10.2903 0.955616 10.2341 1.03994 10.1787 1.1322C10.1225 1.22601 10.0723 1.31926 10.0377 1.40004C10.0123 1.45923 10.004 1.49202 10.0013 1.50268C10.0006 1.5052 10.0001 1.50659 10.0001 1.50659C10.0018 1.55147 10.0211 1.62867 10.092 1.75482C10.1667 1.88752 10.2704 2.02719 10.4 2.19995L10.4092 2.21215C10.5278 2.37028 10.6695 2.55925 10.7795 2.75482C10.8924 2.95555 11 3.21037 11 3.49995C11 3.68765 10.9352 3.86826 10.8814 3.99379C10.8223 4.13176 10.7475 4.26767 10.6787 4.3822C10.6091 4.49828 10.5403 4.60145 10.4892 4.67518C10.4635 4.71229 10.4419 4.74253 10.4265 4.76391L10.408 4.78921L10.4026 4.79649L10.4009 4.79871L10.4002 4.79973C10.2345 5.02065 9.92091 5.06564 9.7 4.89995C9.47917 4.73433 9.43435 4.42111 9.5998 4.20021L9.60325 4.19556L9.61651 4.1774C9.62838 4.16102 9.64584 4.13657 9.66703 4.10597C9.70973 4.04429 9.7659 3.95996 9.82125 3.8677C9.87754 3.7739 9.92768 3.68064 9.9623 3.59987C9.98767 3.54068 9.99602 3.50789 9.99874 3.49723C9.99938 3.4947 9.99987 3.49331 9.99987 3.49331C9.99817 3.44843 9.97892 3.37123 9.90796 3.24508C9.83332 3.11238 9.72957 2.97272 9.6 2.79995L9.59085 2.78775C9.47222 2.62962 9.33047 2.44065 9.22046 2.24508C9.10755 2.04435 9 1.78953 9 1.49995C9 1.31226 9.06476 1.13164 9.11855 1.00612C9.17768 0.868141 9.25254 0.732228 9.32125 0.617702C9.3909 0.501626 9.45973 0.398452 9.51078 0.32472C9.53647 0.287612 9.55807 0.257368 9.57354 0.235992L9.59907 0.201195L9.59984 0.200169C9.76552 -0.020745 10.0791 -0.0657351 10.3 0.09995C10.5208 0.265567 10.5655 0.578966 10.4001 0.799865Z" fill="currentColor"/>
</svg>
