<svg width="16" height="16" viewBox="0 0 16 16" fill="none" xmlns="http://www.w3.org/2000/svg">
<path d="M7.99998 0.999998C6.42663 0.999998 4.97801 1.28886 3.904 1.77705C2.87512 2.24472 2 2.99299 2 3.99999C2 5.00699 2.87512 5.75527 3.904 6.22294C4.97801 6.71113 6.42663 6.99999 7.99998 6.99999C9.57334 6.99999 11.022 6.71113 12.096 6.22294C13.1249 5.75527 14 5.00699 14 3.99999C14 2.99299 13.1249 2.24472 12.096 1.77705C11.022 1.28886 9.57334 0.999998 7.99998 0.999998Z" fill="currentColor"/>
<path d="M2 6.99999V6.161C2.45727 6.59276 3.00422 6.91241 3.4902 7.13331C4.72164 7.69306 6.31751 7.99999 7.99998 7.99999C9.68246 7.99999 11.2783 7.69306 12.5098 7.13331C12.9958 6.91241 13.5427 6.59276 14 6.161V6.99999C14 7.4239 13.8449 7.80197 13.5886 8.13255C13.24 8.04595 12.8754 7.99999 12.5 7.99999C10.95 7.99999 9.58298 8.78366 8.77364 9.97642C8.51997 9.99199 8.2617 9.99998 7.99998 9.99998C6.42663 9.99998 4.97801 9.71112 3.904 9.22293C2.87512 8.75526 2 8.00699 2 6.99999Z" fill="currentColor"/>
<path d="M8.25689 10.9976C8.1715 10.9992 8.08585 11 7.99998 11C6.31751 11 4.72164 10.6931 3.4902 10.1333C3.00422 9.9124 2.45727 9.59275 2 9.16099V9.99998C2 11.007 2.87512 11.7553 3.904 12.223C4.97801 12.7111 6.42663 13 7.99998 13C8.00914 13 8.01829 13 8.02744 13C8.0093 12.8358 7.99998 12.669 7.99998 12.5C7.99998 11.9732 8.09052 11.4675 8.25689 10.9976Z" fill="currentColor"/>
<path d="M8.25521 13.9976C8.17038 13.9992 8.08529 14 7.99998 14C6.31751 14 4.72164 13.6931 3.4902 13.1333C3.00422 12.9124 2.45727 12.5928 2 12.161V13C2 14.007 2.87512 14.7553 3.904 15.223C4.97801 15.7111 6.42663 16 7.99998 16C8.53621 16 9.05796 15.9665 9.55532 15.9029C8.97065 15.3965 8.51782 14.742 8.25521 13.9976Z" fill="currentColor"/>
<path d="M11.8855 9.45952C12.0661 8.8468 12.9339 8.8468 13.1145 9.45952L13.1583 9.60812C13.2737 9.99962 13.7209 10.1849 14.0793 9.98961L14.2154 9.91551C14.7763 9.60995 15.39 10.2237 15.0845 10.7846L15.0104 10.9207C14.8151 11.2791 15.0004 11.7263 15.3919 11.8417L15.5405 11.8855C16.1532 12.0661 16.1532 12.9339 15.5405 13.1145L15.3919 13.1583C15.0004 13.2737 14.8151 13.7209 15.0104 14.0793L15.0845 14.2154C15.39 14.7763 14.7763 15.39 14.2154 15.0845L14.0793 15.0104C13.7209 14.8151 13.2737 15.0004 13.1583 15.3919L13.1145 15.5405C12.9339 16.1532 12.0661 16.1532 11.8855 15.5405L11.8417 15.3919C11.7263 15.0004 11.2791 14.8151 10.9207 15.0104L10.7846 15.0845C10.2237 15.39 9.60995 14.7763 9.91551 14.2154L9.98961 14.0793C10.1849 13.7209 9.99962 13.2737 9.60812 13.1583L9.45952 13.1145C8.8468 12.9339 8.8468 12.0661 9.45952 11.8855L9.60812 11.8417C9.99962 11.7263 10.1849 11.2791 9.98961 10.9207L9.91551 10.7846C9.60995 10.2237 10.2237 9.60995 10.7846 9.91551L10.9207 9.98961C11.2791 10.1849 11.7263 9.99962 11.8417 9.60812L11.8855 9.45952ZM14 12.5C14 11.6716 13.3284 11 12.5 11C11.6716 11 11 11.6716 11 12.5C11 13.3284 11.6716 14 12.5 14C13.3284 14 14 13.3284 14 12.5Z" fill="currentColor"/>
</svg>
