<svg width="16" height="16" viewBox="0 0 16 16" fill="none" xmlns="http://www.w3.org/2000/svg">
<path d="M2 12.1611C2.45725 12.5929 3.00428 12.9129 3.49023 13.1338C4.72165 13.6935 6.31761 14 8 14C8.08522 14 8.17014 13.9947 8.25488 13.9932C8.51688 14.738 8.96925 15.3924 9.55371 15.8994C9.0567 15.9629 8.53581 16 8 16C6.42671 16 4.9783 15.7108 3.9043 15.2227C2.87542 14.755 2 14.007 2 13V12.1611ZM2 9.16113C2.45725 9.59286 3.00428 9.9129 3.49023 10.1338C4.72165 10.6935 6.31761 11 8 11C8.08653 11 8.17275 10.9948 8.25879 10.9932C8.0914 11.4643 8 11.9715 8 12.5C8 12.6687 8.01024 12.8351 8.02832 12.999C8.01888 12.999 8.00945 13 8 13C6.42671 13 4.9783 12.7108 3.9043 12.2227C2.87542 11.755 2 11.007 2 10V9.16113ZM14 7C14 7.42426 13.8427 7.80106 13.5859 8.13184C13.2382 8.04566 12.8744 8 12.5 8C10.9516 8 9.58603 8.78206 8.77637 9.97266C8.52176 9.98835 8.26273 10 8 10C6.42671 10 4.9783 9.71081 3.9043 9.22266C2.87542 8.75498 2 8.007 2 7V6.16113C2.45725 6.59286 3.00428 6.9129 3.49023 7.13379C4.72165 7.69348 6.31761 8 8 8C9.68239 8 11.2783 7.69348 12.5098 7.13379C12.9957 6.9129 13.5427 6.59286 14 6.16113V7ZM8 1C9.57329 1 11.0217 1.28919 12.0957 1.77734C13.1246 2.24502 14 2.993 14 4C14 5.007 13.1246 5.75498 12.0957 6.22266C11.0217 6.71081 9.57329 7 8 7C6.42671 7 4.9783 6.71081 3.9043 6.22266C2.87542 5.75498 2 5.007 2 4C2 2.993 2.87542 2.24502 3.9043 1.77734C4.9783 1.28919 6.42671 1 8 1Z" fill="currentColor"/>
</svg>
