<svg width="16" height="16" viewBox="0 0 16 16" fill="none" xmlns="http://www.w3.org/2000/svg">
<path d="M4.49995 1.5C4.13225 1.5 3.76815 1.58794 3.42844 1.75881C3.08873 1.92968 2.78006 2.18012 2.52005 2.49584C2.26005 2.81156 2.0538 3.18637 1.91309 3.59888C1.77238 4.01138 1.69995 4.45351 1.69995 4.9C1.69995 5.34649 1.77238 5.78862 1.91309 6.20112C2.0538 6.61363 2.26005 6.98844 2.52005 7.30416C2.78006 7.61988 3.08873 7.87032 3.42844 8.04119C3.76815 8.21206 4.13225 8.3 4.49995 8.3C5.24256 8.3 5.95475 7.94179 6.47985 7.30416C7.00495 6.66654 7.29995 5.80174 7.29995 4.9C7.29995 3.99826 7.00495 3.13346 6.47985 2.49584C5.95475 1.85821 5.24256 1.5 4.49995 1.5ZM3.49995 8.3H5.49995L5.09995 13.9C5.09995 14.0591 5.03674 14.2117 4.92422 14.3243C4.81169 14.4368 4.65908 14.5 4.49995 14.5C4.34082 14.5 4.18821 14.4368 4.07569 14.3243C3.96317 14.2117 3.89995 14.0591 3.89995 13.9L3.49995 8.3ZM11.5 1.5C11.1322 1.5 10.7682 1.58794 10.4284 1.75881C10.0887 1.92968 9.78006 2.18012 9.52005 2.49584C9.26005 2.81156 9.0538 3.18637 8.91309 3.59888C8.77238 4.01138 8.69995 4.45351 8.69995 4.9C8.69995 5.34649 8.77238 5.78862 8.91309 6.20112C9.0538 6.61363 9.26005 6.98844 9.52005 7.30416C9.78006 7.61988 10.0887 7.87032 10.4284 8.04119C10.7682 8.21206 11.1322 8.3 11.5 8.3C12.2426 8.3 12.9547 7.94179 13.4799 7.30416C14.005 6.66654 14.3 5.80174 14.3 4.9C14.3 3.99826 14.005 3.13346 13.4799 2.49584C12.9547 1.85821 12.2426 1.5 11.5 1.5ZM10.5 8.3H12.5L12.1 13.9C12.1 14.0591 12.0367 14.2117 11.9242 14.3243C11.8117 14.4368 11.6591 14.5 11.5 14.5C11.3408 14.5 11.1882 14.4368 11.0757 14.3243C10.9632 14.2117 10.9 14.0591 10.9 13.9L10.5 8.3Z" fill="currentColor"/>
</svg>
