<svg width="16" height="16" viewBox="0 0 16 16" fill="none" xmlns="http://www.w3.org/2000/svg">
<path d="M8.44715 0.276391C8.36246 0.107 8.18933 0 7.99994 0C7.81055 0 7.63742 0.107 7.55273 0.276391L7.19093 0.999992H2.49998C1.67156 0.999992 0.999992 1.67156 0.999992 2.49998V9.99992H14.9999V2.49998C14.9999 1.67156 14.3283 0.999992 13.4999 0.999992H8.80895L8.44715 0.276391Z" fill="currentColor"/>
<path fill-rule="evenodd" clip-rule="evenodd" d="M0.499996 10.9999C0.223856 10.9999 0 11.2238 0 11.4999C0 11.776 0.223856 11.9999 0.499996 11.9999H3.35958L2.51491 15.3786C2.44793 15.6465 2.61081 15.918 2.87871 15.985C3.14661 16.0519 3.41807 15.8891 3.48504 15.6212L3.89036 13.9999H12.1095L12.5148 15.6212C12.5818 15.8891 12.8533 16.0519 13.1212 15.985C13.3891 15.918 13.5519 15.6465 13.485 15.3786L12.6403 11.9999H15.4999C15.776 11.9999 15.9999 11.776 15.9999 11.4999C15.9999 11.2238 15.776 10.9999 15.4999 10.9999H0.499996ZM4.14036 12.9999L4.39036 11.9999H11.6095L11.8595 12.9999H4.14036Z" fill="currentColor"/>
</svg>
