<svg width="16" height="16" viewBox="0 0 16 16" fill="none" xmlns="http://www.w3.org/2000/svg">
<path fill-rule="evenodd" clip-rule="evenodd" d="M8 1.5C10.4 1.5 11.4 3.4 11.8 4.9C13.6 5.1 15 6.4 15 8.4C15 10.4 13.1 12 11.1 12C10.7 13.3 9.6 14.5 8 14.5C6.4 14.5 5.3 13.3 4.9 12C2.9 12 1 10.4 1 8.4C1 6.4 2.4 5.1 4.2 4.9C4.6 3.4 5.6 1.5 8 1.5ZM8 5.8C7.36348 5.8 6.75303 6.05286 6.30294 6.50294C5.85286 6.95303 5.6 7.56348 5.6 8.2C5.6 8.83652 5.85286 9.44697 6.30294 9.89706C6.75303 10.3471 7.36348 10.6 8 10.6C8.63652 10.6 9.24697 10.3471 9.69706 9.89706C10.1471 9.44697 10.4 8.83652 10.4 8.2C10.4 7.56348 10.1471 6.95303 9.69706 6.50294C9.24697 6.05286 8.63652 5.8 8 5.8Z" fill="currentColor"/>
</svg>
