<svg width="16" height="16" viewBox="0 0 16 16" fill="none" xmlns="http://www.w3.org/2000/svg">
<path d="M8.94118 0.435246C8.35294 0.12152 7.64706 0.12152 7.05882 0.435246L1.05882 3.63525C0.407097 3.98284 0 4.66133 0 5.39995V5.71345L6.70853 9.64545L8 8.92797L9.29147 9.64545L16 5.71345V5.39995C16 4.66133 15.5929 3.98284 14.9412 3.63525L8.94118 0.435246Z" fill="currentColor"/>
<path d="M15.9999 6.87256L10.3066 10.2094L15.9999 13.3724V6.87256Z" fill="currentColor"/>
<path d="M15.9411 14.4837L7.99995 10.072L0.0588379 14.4837C0.27514 15.3546 1.06217 16 1.99995 16H14C14.9378 16 15.7248 15.3546 15.9411 14.4837Z" fill="currentColor"/>
<path d="M0 13.3724L5.69326 10.2094L0 6.87256V13.3724Z" fill="currentColor"/>
</svg>
