<svg width="16" height="16" viewBox="0 0 16 16" fill="none" xmlns="http://www.w3.org/2000/svg">
<path d="M15.9414 14.4834C15.7251 15.3542 14.9377 15.999 14 15.999H2C1.06227 15.999 0.274943 15.3542 0.0585938 14.4834L8 10.0713L15.9414 14.4834ZM5.69336 10.209L0 13.3721V6.87207L5.69336 10.209ZM16 13.3721L10.3066 10.209L16 6.87207V13.3721ZM11.5 0C12.3284 0 13 0.671573 13 1.5V7.5L9.5 9.5L8 8.75L6.5 9.5L3 7.5V1.5C3 0.671573 3.67157 6.4426e-08 4.5 0H11.5ZM2 6.88477L0 5.71289V5.39941C0.00019719 4.66106 0.407127 3.9823 1.05859 3.63477L2 3.13281V6.88477ZM14.9414 3.63477C15.5929 3.9823 15.9998 4.66106 16 5.39941V5.71289L14 6.88477V3.13281L14.9414 3.63477Z" fill="currentColor"/>
</svg>
