<svg width="16" height="16" viewBox="0 0 16 16" fill="none" xmlns="http://www.w3.org/2000/svg">
<path d="M8.94115 0.435243C8.35291 0.121519 7.64703 0.121519 7.05879 0.435243L1.05882 3.63524C0.407095 3.98281 0 4.66131 0 5.39993V5.71343L4.22158 8.18778C4.24613 8.13044 4.27269 8.07386 4.30125 8.01809C4.9673 6.71733 6.66379 6.10088 7.99998 6.76814C9.33616 6.10088 11.0327 6.71733 11.6988 8.01809C11.7273 8.07386 11.7539 8.13043 11.7784 8.18777L15.9999 5.71343V5.39993C15.9999 4.66131 15.5928 3.98281 14.9411 3.63524L8.94115 0.435243Z" fill="currentColor"/>
<path d="M0 6.87253L4.0007 9.21742C3.98805 9.75879 4.12382 10.3335 4.41641 10.9108L4.41961 10.9171L0 13.3723V6.87253Z" fill="currentColor"/>
<path d="M0.0588377 14.4836L4.9591 11.7613C5.52198 12.4916 6.34202 13.228 7.44865 13.9592L7.99993 14.3235L8.55122 13.9592C9.65784 13.228 10.4779 12.4916 11.0407 11.7613L15.941 14.4836C15.7247 15.3544 14.9377 15.9999 13.9999 15.9999H1.99994C1.06217 15.9999 0.275139 15.3544 0.0588377 14.4836Z" fill="currentColor"/>
<path d="M16 13.3723L11.5804 10.9171L11.5836 10.9108C11.8762 10.3335 12.012 9.75877 11.9993 9.2174L16 6.87253V13.3723Z" fill="currentColor"/>
<path d="M7.99997 7.99272C9.66435 6.28198 13.8253 9.27578 7.99997 13.125C2.17464 9.27578 6.33559 6.28198 7.99997 7.99272Z" fill="currentColor"/>
</svg>
