<svg width="16" height="16" viewBox="0 0 16 16" fill="none" xmlns="http://www.w3.org/2000/svg">
<path d="M0.0495605 3.55544C0.251705 2.66484 1.0482 2 1.99998 2H14C14.9518 2 15.7483 2.66484 15.9504 3.55544L7.99998 8.41403L0.0495605 3.55544Z" fill="currentColor"/>
<path d="M0 4.69708V11.8006L5.80319 8.24348L0 4.69708Z" fill="currentColor"/>
<path d="M6.76142 8.82904L0.191895 12.8559C0.512628 13.5323 1.2017 14 2.00002 14H8.25608C8.09025 13.5308 8.00002 13.026 8.00002 12.5C8.00002 11.1169 8.62398 9.87956 9.60577 9.05409L9.23862 8.82904L8.00002 9.58596L6.76142 8.82904Z" fill="currentColor"/>
<path d="M16 4.69708V9.67133C15.175 8.65183 13.9136 8 12.5 8C11.7954 8 11.1286 8.16195 10.5348 8.45065L10.1968 8.24348L16 4.69708Z" fill="currentColor"/>
<path d="M14.9749 10.0251C13.608 8.6583 11.392 8.6583 10.0251 10.0251C8.6583 11.392 8.6583 13.608 10.0251 14.9749C11.392 16.3417 13.608 16.3417 14.9749 14.9749C16.3417 13.608 16.3417 11.392 14.9749 10.0251ZM10.7322 10.7322C11.5875 9.87701 12.9082 9.77095 13.8789 10.414L10.414 13.8789C9.77095 12.9082 9.87701 11.5875 10.7322 10.7322ZM11.1211 14.586L14.586 11.1211C15.2291 12.0918 15.123 13.4125 14.2678 14.2678C13.4125 15.123 12.0918 15.2291 11.1211 14.586Z" fill="currentColor"/>
</svg>
