<svg width="16" height="16" viewBox="0 0 16 16" fill="none" xmlns="http://www.w3.org/2000/svg">
<path d="M8.08581 2.20713C8.86686 1.42608 10.1332 1.42608 10.9142 2.20713L14.7929 6.08581C15.5739 6.86685 15.5739 8.13318 14.7929 8.91423L9.29291 14.4142C8.91784 14.7893 8.40913 15 7.8787 15H5.12134C4.59091 15 4.0822 14.7893 3.70713 14.4142L1.20713 11.9142C0.426074 11.1332 0.426076 9.86685 1.20713 9.0858L8.08581 2.20713ZM8.74604 13.5469L3.45314 8.25399L1.91423 9.7929C1.52371 10.1834 1.52371 10.8166 1.91423 11.2071L4.41423 13.7071C4.60177 13.8946 4.85612 14 5.12134 14H7.8787C8.14392 14 8.39827 13.8946 8.58581 13.7071L8.74604 13.5469Z" fill="currentColor"/>
</svg>
