<svg width="16" height="16" viewBox="0 0 16 16" fill="none" xmlns="http://www.w3.org/2000/svg">
<path d="M9.04941 0.43468C8.46984 -0.144893 7.53017 -0.144893 6.95059 0.434679L0.434679 6.95059C-0.144892 7.53016 -0.144894 8.46983 0.434678 9.04941L6.95059 15.5654C7.53016 16.1449 8.46983 16.1449 9.04941 15.5654L15.5653 9.04941C16.1449 8.46984 16.1449 7.53017 15.5653 6.95059L9.04941 0.43468ZM8 3.99997C8.53541 3.99997 8.95377 4.46225 8.9005 4.99501L8.54975 8.50245C8.52151 8.78489 8.28384 8.99997 8 8.99997C7.71616 8.99997 7.47849 8.78489 7.45025 8.50245L7.0995 4.99501C7.04623 4.46226 7.46459 3.99997 8 3.99997ZM8.00154 9.99997C8.55383 9.99997 9.00154 10.4477 9.00154 11C9.00154 11.5523 8.55383 12 8.00154 12C7.44926 12 7.00154 11.5523 7.00154 11C7.00154 10.4477 7.44926 9.99997 8.00154 9.99997Z" fill="currentColor"/>
</svg>
