<svg width="16" height="16" viewBox="0 0 16 16" fill="none" xmlns="http://www.w3.org/2000/svg">
<path d="M10.7904 12.9117L9.17617 11.2975C8.80858 11.4286 8.41263 11.5 8 11.5C6.067 11.5 4.5 9.93303 4.5 8.00003C4.5 7.5874 4.5714 7.19145 4.70253 6.82386L2.64112 4.76245C0.938717 6.27905 0 8.00003 0 8.00003C0 8.00003 3 13.5 8 13.5C9.01539 13.5 9.9483 13.2732 10.7904 12.9117Z" fill="currentColor"/>
<path d="M5.20967 3.0884C6.05172 2.72688 6.98462 2.50006 8 2.50006C13 2.50006 16 8.00006 16 8.00006C16 8.00006 15.0613 9.72103 13.3589 11.2377L11.2975 9.1762C11.4286 8.80862 11.5 8.41268 11.5 8.00006C11.5 6.06706 9.933 4.50006 8 4.50006C7.58738 4.50006 7.19144 4.57146 6.82386 4.70258L5.20967 3.0884Z" fill="currentColor"/>
<path d="M5.52485 7.64624C5.50847 7.76184 5.5 7.87997 5.5 8.00009C5.5 9.3808 6.61929 10.5001 8 10.5001C8.12012 10.5001 8.23825 10.4916 8.35385 10.4753L5.52485 7.64624Z" fill="currentColor"/>
<path d="M10.4752 8.35388L7.64618 5.5249C7.76176 5.50853 7.87989 5.50006 8 5.50006C9.38071 5.50006 10.5 6.61935 10.5 8.00006C10.5 8.12017 10.4915 8.23829 10.4752 8.35388Z" fill="currentColor"/>
<path d="M13.6464 14.3536L1.64645 2.35358L2.35355 1.64648L14.3536 13.6464L13.6464 14.3536Z" fill="currentColor"/>
</svg>
