<svg width="16" height="16" viewBox="0 0 16 16" fill="none" xmlns="http://www.w3.org/2000/svg">
<path fill-rule="evenodd" clip-rule="evenodd" d="M8 7C8.26522 7 8.51957 7.10536 8.70711 7.29289C8.89464 7.48043 9 7.73478 9 8C9 8.26522 8.89464 8.51957 8.70711 8.70711C8.51957 8.89464 8.26522 9 8 9C7.73478 9 7.48043 8.89464 7.29289 8.70711C7.10536 8.51957 7 8.26522 7 8C7 7.73478 7.10536 7.48043 7.29289 7.29289C7.48043 7.10536 7.73478 7 8 7ZM9.8 5.3C10.6 3.5 9.8 1.5 8 1.5C6.2 1.5 5.4 3.5 6.2 5.3C5.6 5.5 5.2 5.8 5 6.3C3.2 5.7 1 6.5 1 8.5C1 10.5 3.2 9.8 5 9.2C5.2 9.7 5.6 10 6.2 10.2C5.4 12 6.2 14 8 14C9.8 14 10.6 12 9.8 10.2C10.4 10 10.8 9.7 11 9.2C12.8 9.8 15 9 15 7C15 5 12.8 5.2 11 5.8C10.8 5.3 10.4 5 9.8 4.8V5.3Z" fill="currentColor"/>
</svg>
