<svg width="16" height="16" viewBox="0 0 16 16" fill="none" xmlns="http://www.w3.org/2000/svg">
<path d="M5.52299 10.4241C5.66218 10.3419 5.81604 10.2623 5.98159 10.1859C5.82806 10.4126 5.67696 10.6169 5.53184 10.7919C5.2522 11.129 5.0341 11.3079 4.89732 11.3643C4.88174 11.3707 4.87008 11.3743 4.86179 11.3764C4.85528 11.3678 4.84628 11.3539 4.83552 11.3323C4.77996 11.2212 4.78227 11.1159 4.87565 10.9711C4.98182 10.8065 5.19505 10.6178 5.52299 10.4241Z" fill="currentColor"/>
<path d="M7.97789 8.77747C7.85941 8.80155 7.7406 8.82748 7.62195 8.85518C7.71798 8.66679 7.8115 8.47619 7.90168 8.28522C7.97694 8.12585 8.05028 7.96536 8.12115 7.80481C8.19691 7.94512 8.27544 8.0838 8.35605 8.21981C8.44494 8.3698 8.53719 8.51795 8.63201 8.66274C8.41473 8.69469 8.19561 8.73322 7.97789 8.77747Z" fill="currentColor"/>
<path d="M10.5026 9.71642C10.3639 9.60687 10.2177 9.46845 10.0682 9.30676C10.2959 9.31062 10.5023 9.32817 10.6803 9.36019C10.9973 9.41724 11.1464 9.50684 11.1982 9.56862C11.2162 9.59003 11.2227 9.60758 11.2236 9.63273C11.2247 9.66442 11.2167 9.72819 11.1646 9.83228C11.1241 9.91338 11.0882 9.94478 11.0702 9.95657C11.0554 9.96626 11.0369 9.9736 11.0014 9.97218C10.9103 9.96852 10.7431 9.90637 10.5026 9.71642Z" fill="currentColor"/>
<path d="M8.27847 4.97076C8.2387 5.21411 8.17028 5.49404 8.07843 5.7987C8.04333 5.67965 8.0135 5.56405 7.98946 5.45285C7.91311 5.09976 7.90226 4.82274 7.94307 4.6313C7.9809 4.45386 8.05236 4.38298 8.13935 4.34819C8.21404 4.31831 8.26025 4.31016 8.28439 4.30823C8.29666 4.33861 8.31246 4.39986 8.31641 4.50613C8.32093 4.6275 8.3092 4.78278 8.27847 4.97076Z" fill="currentColor"/>
<path fill-rule="evenodd" clip-rule="evenodd" d="M4 0H12C13.1046 0 14 0.89543 14 2V14C14 15.1046 13.1046 16 12 16H4C2.89543 16 2 15.1046 2 14V2C2 0.89543 2.89543 0 4 0ZM4.16469 11.6678C4.25502 11.8484 4.39492 12.0107 4.60308 12.0867C4.8099 12.1622 5.01465 12.1271 5.18301 12.0577C5.50132 11.9266 5.81838 11.6211 6.10906 11.2707C6.44175 10.8697 6.79218 10.3441 7.13014 9.76091C7.45236 9.66499 7.78883 9.58119 8.12731 9.5124C8.46939 9.44287 8.8067 9.39006 9.12697 9.35527C9.42668 9.73765 9.73718 10.0677 10.0377 10.305C10.3173 10.5258 10.64 10.7083 10.9713 10.7216C11.1471 10.7286 11.3229 10.6875 11.4809 10.5842C11.6356 10.4829 11.751 10.3366 11.8355 10.1677C11.9259 9.98677 11.9801 9.79722 11.9731 9.60545C11.9659 9.40713 11.8939 9.23106 11.773 9.08682C11.5471 8.81731 11.177 8.68752 10.8131 8.62205C10.4329 8.55366 9.97315 8.54091 9.47821 8.57223C9.31534 8.34347 9.15468 8.09619 9.00129 7.83738C8.81663 7.5258 8.64647 7.20416 8.49839 6.88638C8.74812 6.22639 8.93529 5.60167 9.01863 5.09178C9.05431 4.87351 9.07284 4.66551 9.06587 4.47828C9.05908 4.29557 9.02715 4.10438 8.93893 3.93994C8.84316 3.76145 8.68338 3.62205 8.46215 3.57474C8.25998 3.53151 8.05235 3.57525 7.86079 3.65187C7.48355 3.80277 7.28496 4.12116 7.20953 4.47496C7.13709 4.81475 7.16979 5.21094 7.25638 5.61141C7.34401 6.01665 7.49421 6.45887 7.68581 6.90631C7.54761 7.25179 7.39178 7.60862 7.22354 7.96491C7.03391 8.36649 6.83122 8.76161 6.62412 9.13333C6.0723 9.31419 5.55866 9.53201 5.14157 9.77836C4.77107 9.99719 4.4432 10.2579 4.24538 10.5646C4.03479 10.8911 3.97023 11.2789 4.16469 11.6678Z" fill="currentColor"/>
</svg>
