<svg width="16" height="16" viewBox="0 0 16 16" fill="none" xmlns="http://www.w3.org/2000/svg">
<path d="M5.52299 12.4241C5.66218 12.3419 5.81604 12.2623 5.98159 12.1859C5.82806 12.4126 5.67696 12.6169 5.53184 12.7919C5.2522 13.129 5.0341 13.3079 4.89732 13.3643C4.88174 13.3707 4.87008 13.3743 4.86179 13.3764C4.85528 13.3678 4.84628 13.3539 4.83552 13.3323C4.77996 13.2212 4.78227 13.1159 4.87565 12.9711C4.98182 12.8065 5.19505 12.6178 5.52299 12.4241Z" fill="currentColor"/>
<path d="M7.97795 10.7774C7.85947 10.8015 7.74066 10.8274 7.62201 10.8551C7.71804 10.6667 7.81156 10.4761 7.90174 10.2852C7.977 10.1258 8.05034 9.96536 8.12121 9.80481C8.19697 9.94512 8.2755 10.0837 8.35611 10.2198C8.445 10.3698 8.53725 10.5179 8.63207 10.6627C8.41479 10.6946 8.19567 10.7332 7.97795 10.7774Z" fill="currentColor"/>
<path d="M10.5026 11.7164C10.3639 11.6069 10.2177 11.4685 10.0682 11.3068C10.2959 11.3106 10.5023 11.3282 10.6803 11.3602C10.9973 11.4172 11.1464 11.5069 11.1982 11.5686C11.2162 11.59 11.2227 11.6076 11.2236 11.6327C11.2247 11.6644 11.2167 11.7282 11.1646 11.8323C11.1241 11.9134 11.0882 11.9448 11.0702 11.9566C11.0554 11.9663 11.0369 11.9736 11.0014 11.9722C10.9103 11.9685 10.7431 11.9064 10.5026 11.7164Z" fill="currentColor"/>
<path d="M8.27847 6.97076C8.2387 7.21411 8.17028 7.49404 8.07843 7.7987C8.04333 7.67965 8.0135 7.56405 7.98946 7.45285C7.91311 7.09976 7.90226 6.82274 7.94307 6.6313C7.9809 6.45386 8.05236 6.38298 8.13935 6.34819C8.21404 6.31831 8.26025 6.31016 8.28439 6.30823C8.29666 6.33861 8.31246 6.39986 8.31641 6.50613C8.32093 6.6275 8.3092 6.78278 8.27847 6.97076Z" fill="currentColor"/>
<path fill-rule="evenodd" clip-rule="evenodd" d="M4 0H9.29289C9.55811 0 9.81246 0.105357 10 0.292893L13.7071 4C13.8946 4.18754 14 4.44189 14 4.70711V14C14 15.1046 13.1046 16 12 16H4C2.89543 16 2 15.1046 2 14V2C2 0.895431 2.89543 0 4 0ZM9.5 1.5V3.5C9.5 4.05228 9.94772 4.5 10.5 4.5H12.5L9.5 1.5ZM4.16469 13.6678C4.25502 13.8484 4.39492 14.0107 4.60308 14.0867C4.8099 14.1622 5.01465 14.1271 5.18301 14.0577C5.50132 13.9266 5.81838 13.6211 6.10906 13.2707C6.44175 12.8697 6.79218 12.3441 7.13014 11.7609C7.45236 11.665 7.78883 11.5812 8.12731 11.5124C8.46939 11.4429 8.8067 11.3901 9.12697 11.3553C9.42668 11.7377 9.73718 12.0677 10.0377 12.305C10.3173 12.5258 10.64 12.7083 10.9713 12.7216C11.1471 12.7286 11.3229 12.6875 11.4809 12.5842C11.6356 12.4829 11.751 12.3366 11.8355 12.1677C11.9259 11.9868 11.9801 11.7972 11.9731 11.6054C11.9659 11.4071 11.8939 11.2311 11.773 11.0868C11.5471 10.8173 11.177 10.6875 10.8131 10.6221C10.4329 10.5537 9.97315 10.5409 9.47821 10.5722C9.31534 10.3435 9.15468 10.0962 9.00129 9.83738C8.81663 9.5258 8.64647 9.20416 8.49839 8.88638C8.74812 8.22639 8.93529 7.60167 9.01863 7.09178C9.05431 6.87351 9.07284 6.66551 9.06587 6.47828C9.05908 6.29557 9.02715 6.10438 8.93893 5.93994C8.84316 5.76145 8.68338 5.62205 8.46215 5.57474C8.25998 5.53151 8.05235 5.57525 7.86079 5.65187C7.48355 5.80276 7.28496 6.12116 7.20953 6.47496C7.13709 6.81475 7.16979 7.21094 7.25638 7.61141C7.34401 8.01665 7.49421 8.45887 7.68581 8.90631C7.54761 9.25179 7.39178 9.60862 7.22354 9.96491C7.03391 10.3665 6.83122 10.7616 6.62412 11.1333C6.0723 11.3142 5.55866 11.532 5.14157 11.7784C4.77107 11.9972 4.4432 12.2579 4.24538 12.5646C4.03479 12.8911 3.97023 13.2789 4.16469 13.6678Z" fill="currentColor"/>
</svg>
