<svg width="16" height="16" viewBox="0 0 16 16" fill="none" xmlns="http://www.w3.org/2000/svg">
<path d="M13.827 1H3.53285C3.22182 1.00025 2.92359 1.12392 2.70366 1.34386C2.48372 1.56379 2.36005 1.86202 2.3598 2.17305V2.91518H11.9118C12.2228 2.91544 12.521 3.03911 12.741 3.25904C12.9609 3.47898 13.0846 3.7772 13.0848 4.08823V13.6402H13.827C14.138 13.64 14.4362 13.5163 14.6561 13.2964C14.8761 13.0764 14.9997 12.7782 15 12.4672V2.17305C14.9997 1.86202 14.8761 1.56379 14.6561 1.34386C14.4362 1.12392 14.138 1.00025 13.827 1Z" fill="currentColor"/>
<path d="M11.7164 3.4707H1.81395C1.36442 3.4707 1 3.83512 1 4.28465V14.1871C1 14.6366 1.36442 15.0011 1.81395 15.0011H11.7164C12.166 15.0011 12.5304 14.6366 12.5304 14.1871V4.28465C12.5304 3.83512 12.166 3.4707 11.7164 3.4707Z" fill="currentColor"/>
</svg>
