<svg width="16" height="16" viewBox="0 0 16 16" fill="none" xmlns="http://www.w3.org/2000/svg">
<path fill-rule="evenodd" clip-rule="evenodd" d="M2 2H14C14.2652 2 14.5196 2.10536 14.7071 2.29289C14.8946 2.48043 15 2.73478 15 3V13C15 13.2652 14.8946 13.5196 14.7071 13.7071C14.5196 13.8946 14.2652 14 14 14H2C1.73478 14 1.48043 13.8946 1.29289 13.7071C1.10536 13.5196 1 13.2652 1 13V3C1 2.73478 1.10536 2.48043 1.29289 2.29289C1.48043 2.10536 1.73478 2 2 2ZM2 4V5.5H3.5V4H2ZM12.5 4V5.5H14V4H12.5ZM5 4V7H11V4H5ZM2 7.25V8.75H3.5V7.25H2ZM12.5 7.25V8.75H14V7.25H12.5ZM5 9V12H11V9H5ZM2 10.5V12H3.5V10.5H2ZM12.5 10.5V12H14V10.5H12.5Z" fill="currentColor"/>
</svg>
