<svg width="16" height="16" viewBox="0 0 16 16" fill="none" xmlns="http://www.w3.org/2000/svg">
<path fill-rule="evenodd" clip-rule="evenodd" d="M7.99999 1.5C8.31335 1.50123 8.62203 1.57608 8.90115 1.71851C9.18027 1.86093 9.42202 2.06695 9.6069 2.31995C9.79179 2.57295 9.91464 2.86586 9.96555 3.17505C10.0165 3.48425 9.994 3.80108 9.89999 4.1C10.1535 3.90986 10.4486 3.78268 10.7609 3.72895C11.0732 3.67523 11.3938 3.69648 11.6963 3.79097C11.9988 3.88546 12.2745 4.05048 12.5007 4.27243C12.7269 4.49438 12.8971 4.7669 12.9974 5.06754C13.0976 5.36819 13.1249 5.68834 13.0771 6.00162C13.0293 6.3149 12.9078 6.61233 12.7225 6.86942C12.5372 7.12651 12.2934 7.33588 12.0114 7.48029C11.7293 7.62469 11.4169 7.7 11.1 7.7C11.3625 7.82711 11.594 8.0101 11.7783 8.23614C11.9627 8.46218 12.0953 8.72579 12.167 9.00851C12.2387 9.29122 12.2477 9.5862 12.1933 9.87275C12.139 10.1593 12.0226 10.4305 11.8524 10.6673C11.6821 10.9042 11.4622 11.1009 11.2079 11.2438C10.9536 11.3866 10.6712 11.4721 10.3803 11.4943C10.0895 11.5164 9.79738 11.4747 9.52439 11.3721C9.25139 11.2694 9.00415 11.1083 8.79999 10.9C9.22112 11.0838 9.56611 11.407 9.77697 11.8152C9.98782 12.2235 10.0517 12.6919 9.95781 13.1416C9.86393 13.5914 9.61804 13.9952 9.26149 14.285C8.90494 14.5748 8.45947 14.733 7.99999 14.733C7.54051 14.733 7.09505 14.5748 6.73849 14.285C6.38194 13.9952 6.13606 13.5914 6.04218 13.1416C5.94831 12.6919 6.01216 12.2235 6.22302 11.8152C6.43388 11.407 6.77887 11.0838 7.19999 10.9C6.99584 11.1083 6.7486 11.2694 6.4756 11.3721C6.2026 11.4747 5.91046 11.5164 5.61964 11.4943C5.32882 11.4721 5.04637 11.3866 4.79209 11.2438C4.53781 11.1009 4.31784 10.9042 4.14762 10.6673C3.97739 10.4305 3.86103 10.1593 3.80668 9.87275C3.75233 9.5862 3.76131 9.29122 3.833 9.00851C3.90468 8.72579 4.03733 8.46218 4.22165 8.23614C4.40596 8.0101 4.63749 7.82711 4.89999 7.7C4.58309 7.7 4.27072 7.62469 3.98863 7.48029C3.70654 7.33588 3.46281 7.12651 3.27751 6.86942C3.09221 6.61233 2.97066 6.3149 2.92287 6.00162C2.87508 5.68834 2.90241 5.36819 3.00263 5.06754C3.10284 4.7669 3.27306 4.49438 3.49926 4.27243C3.72546 4.05048 4.00117 3.88546 4.30366 3.79097C4.60615 3.69648 4.92676 3.67523 5.23908 3.72895C5.55139 3.78268 5.84647 3.90986 6.09999 4.1C6.00598 3.80108 5.98353 3.48425 6.03444 3.17505C6.08535 2.86586 6.2082 2.57295 6.39309 2.31995C6.57797 2.06695 6.81972 1.86093 7.09884 1.71851C7.37796 1.57608 7.68664 1.50123 7.99999 1.5ZM7.99999 6C7.46956 6 6.96085 6.21071 6.58578 6.58579C6.21071 6.96086 5.99999 7.46957 5.99999 8C5.99999 8.53043 6.21071 9.03914 6.58578 9.41421C6.96085 9.78929 7.46956 10 7.99999 10C8.53043 10 9.03913 9.78929 9.41421 9.41421C9.78928 9.03914 9.99999 8.53043 9.99999 8C9.99999 7.46957 9.78928 6.96086 9.41421 6.58579C9.03913 6.21071 8.53043 6 7.99999 6Z" fill="currentColor"/>
</svg>
