<svg width="16" height="16" viewBox="0 0 16 16" fill="none" xmlns="http://www.w3.org/2000/svg">
<path d="M9.82844 3H13.8099C14.986 3 15.9082 4.00984 15.8017 5.18107L15.1654 12.1811C15.0717 13.2112 14.208 14 13.1736 14H2.82644C1.79203 14 0.928301 13.2112 0.83465 12.1811L0.198287 5.18107C0.154231 4.69646 0.286285 4.23948 0.539563 3.87023L0.500007 3C0.500007 1.89543 1.39544 1 2.50001 1H6.17158C6.70202 1 7.21072 1.21071 7.5858 1.58579L8.41422 2.41421C8.7893 2.78929 9.298 3 9.82844 3ZM1.50648 3.11964C1.71928 3.04231 1.94936 3 2.19008 3H7.5858L6.87869 2.29289C6.69115 2.10536 6.4368 2 6.17158 2H2.50001C1.95403 2 1.51025 2.43755 1.50018 2.98112L1.50648 3.11964Z" fill="currentColor"/>
</svg>
