<svg width="16" height="16" viewBox="0 0 16 16" fill="none" xmlns="http://www.w3.org/2000/svg">
<path d="M13.8099 3H9.8284C9.29797 3 8.78926 2.78929 8.41419 2.41421L7.58576 1.58579C7.21069 1.21071 6.70198 1 6.17155 1H2.49998C1.39541 1 0.499978 1.89543 0.499978 3L0.539534 3.87023C0.286256 4.23948 0.154202 4.69646 0.198257 5.18107L0.834621 12.1811C0.928272 13.2112 1.792 14 2.82641 14H13.1736C14.208 14 15.0717 13.2112 15.1654 12.1811L15.8017 5.18107C15.9082 4.00984 14.986 3 13.8099 3ZM2.19004 3C1.94933 3 1.71925 3.04231 1.50645 3.11964L1.50015 2.98112C1.51021 2.43755 1.954 2 2.49998 2H6.17155C6.43677 2 6.69112 2.10536 6.87866 2.29289L7.58576 3H2.19004ZM11.7982 8.27133L8.61637 10.2402C8.34622 10.4073 7.99997 10.2052 7.99997 9.86885V9.1C7.99997 9.1 5.42854 8.8 3.99997 11.5C4.5714 6.7 7.14283 6.7 7.99997 6.7V5.93115C7.99997 5.59483 8.34622 5.39265 8.61637 5.55981L11.7982 7.52867C12.0673 7.69515 12.0673 8.10485 11.7982 8.27133Z" fill="currentColor"/>
</svg>
