<svg width="16" height="16" viewBox="0 0 16 16" fill="none" xmlns="http://www.w3.org/2000/svg">
<path d="M3.30656 16L1.27553 15.995L0 3.65029H5.85761L6.67423 0.358507C6.69826 0.2561 6.75623 0.164887 6.83868 0.0997706C6.92112 0.0346544 7.02316 -0.000515939 7.12813 5.72052e-06C7.1718 0.000661413 7.21521 0.00673283 7.25739 0.0180814L7.3145 0.0371613L10.5499 1.14179L10.2423 2.04558L7.4668 1.09359L6.83355 3.65029H8.32951L8.03794 6.65688C6.73307 6.72703 5.4606 7.09012 4.31455 7.71933C3.92191 7.92441 3.59053 8.23012 3.35414 8.60532C3.11776 8.98053 2.98483 9.41182 2.96889 9.85528C2.96677 10.0896 3.0121 10.3219 3.10215 10.5381L3.03502 10.6315L3.029 10.6416L3.02199 10.6516C2.93741 10.7958 2.86372 10.9462 2.80155 11.1015H1.18234L2.67029 11.4941C2.58886 11.8022 2.55207 12.1205 2.56108 12.4391C2.56084 12.754 2.62269 13.0659 2.74305 13.3568C2.86342 13.6476 3.03994 13.9118 3.26247 14.1342C3.09492 14.4618 2.99571 14.8203 2.97089 15.1876C2.9707 15.3385 3.00076 15.4879 3.05928 15.6269C3.1178 15.766 3.20359 15.8918 3.31157 15.997L3.30656 16ZM8.13613 15.9648C5.53096 15.9648 3.6843 15.9106 3.66026 15.2067C3.71316 14.9006 3.83179 14.6097 4.00795 14.3541H15.3675C15.5187 14.6169 15.6183 14.9063 15.661 15.2067C15.661 15.9628 12.9978 15.9628 10.1792 15.9628H8.14014L8.13613 15.9648ZM4.03199 13.6722C3.8288 13.5593 3.65773 13.3963 3.53498 13.1986C3.41224 13.0009 3.34189 12.7751 3.3306 12.5425C3.32188 12.2568 3.38023 11.973 3.50094 11.714L9.14212 13.2013L15.8133 11.6126C15.9614 11.8626 16.024 12.1542 15.9917 12.4431C16.0014 12.6848 15.9486 12.925 15.8385 13.1403C15.7285 13.3556 15.5649 13.5389 15.3635 13.6722H4.03199ZM9.16818 12.5044L3.46186 10.9981H15.4857L9.16818 12.5044ZM14.9897 10.3293H4.30854C4.17198 10.3288 4.03843 10.289 3.92383 10.2146C3.80923 10.1402 3.71842 10.0342 3.66226 9.9095C3.66226 8.38813 6.13917 7.32669 9.6842 7.32669C11.121 7.2901 12.5521 7.5199 13.9056 8.00453C15.0518 8.47148 15.658 9.13024 15.658 9.91252C15.66 10.0913 15.3374 10.3282 14.9937 10.3282L14.9897 10.3293Z" fill="currentColor"/>
</svg>
