<svg width="16" height="16" viewBox="0 0 16 16" fill="none" xmlns="http://www.w3.org/2000/svg">
<path fill-rule="evenodd" clip-rule="evenodd" d="M8 1.5C6.27609 1.5 4.62279 2.18482 3.40381 3.40381C2.18482 4.62279 1.5 6.27609 1.5 8C1.5 9.72391 2.18482 11.3772 3.40381 12.5962C4.62279 13.8152 6.27609 14.5 8 14.5C9.72391 14.5 11.3772 13.8152 12.5962 12.5962C13.8152 11.3772 14.5 9.72391 14.5 8C14.5 6.27609 13.8152 4.62279 12.5962 3.40381C11.3772 2.18482 9.72391 1.5 8 1.5ZM8 2.8C8.7 2.8 9.6 3.8 10 5.5H6C6.4 3.8 7.3 2.8 8 2.8ZM5.7 6.8H10.3C10.4 7.2 10.4 7.6 10.4 8C10.4 8.4 10.4 8.8 10.3 9.2H5.7C5.62651 8.80437 5.59301 8.40234 5.6 8C5.6 7.6 5.6 7.2 5.7 6.8ZM4.4 6.8C4.26183 7.59403 4.26183 8.40597 4.4 9.2H3C2.81286 8.41094 2.81286 7.58906 3 6.8H4.4ZM11.6 6.8H13C13.1871 7.58906 13.1871 8.41094 13 9.2H11.6C11.7382 8.40597 11.7382 7.59403 11.6 6.8ZM6 10.5H10C9.6 12.2 8.7 13.2 8 13.2C7.3 13.2 6.4 12.2 6 10.5Z" fill="currentColor"/>
</svg>
