<svg width="16" height="16" viewBox="0 0 16 16" fill="none" xmlns="http://www.w3.org/2000/svg">
<path d="M8 1C6.89543 1 6 1.89543 6 3V5H5V3C5 1.34315 6.34315 0 8 0C9.65685 0 11 1.34315 11 3V5H10V3C10 1.89543 9.10457 1 8 1Z" fill="currentColor"/>
<path d="M5 5H3.36122C2.61873 5 1.98796 5.54321 1.87782 6.27749L0.850071 13.1291C0.623345 14.6407 1.79399 16 3.32241 16H12.6777C14.2061 16 15.3767 14.6407 15.15 13.1291L14.1223 6.27749C14.0121 5.54321 13.3814 5 12.6389 5H11V6.5C11 6.77614 10.7761 7 10.5 7C10.2239 7 10 6.77614 10 6.5V5H6L6 6.5C6 6.77614 5.77614 7 5.5 7C5.22386 7 5 6.77614 5 6.5L5 5Z" fill="currentColor"/>
</svg>
