<svg width="16" height="16" viewBox="0 0 16 16" fill="none" xmlns="http://www.w3.org/2000/svg">
<path d="M0 10C0 8.89543 0.895431 8 2 8H14C15.1046 8 16 8.89543 16 10V11C16 12.1046 15.1046 13 14 13H2C0.895431 13 0 12.1046 0 11V10ZM2.5 11C2.77614 11 3 10.7761 3 10.5C3 10.2239 2.77614 10 2.5 10C2.22386 10 2 10.2239 2 10.5C2 10.7761 2.22386 11 2.5 11ZM4.5 11C4.77614 11 5 10.7761 5 10.5C5 10.2239 4.77614 10 4.5 10C4.22386 10 4 10.2239 4 10.5C4 10.7761 4.22386 11 4.5 11Z" fill="currentColor"/>
<path d="M0.910034 7.20417C1.2479 7.07235 1.61553 7 2.00006 7H14.0001C14.3846 7 14.7522 7.07234 15.0901 7.20414L13.2233 3.78172C12.9604 3.29983 12.4554 3 11.9064 3H4.09367C3.54475 3 3.03967 3.29983 2.77682 3.78172L0.910034 7.20417Z" fill="currentColor"/>
</svg>
