<svg width="16" height="16" viewBox="0 0 16 16" fill="none" xmlns="http://www.w3.org/2000/svg">
<path d="M12.5 16C14.433 16 16 14.433 16 12.5C16 10.567 14.433 9.00004 12.5 9.00004C10.567 9.00004 9 10.567 9 12.5C9 14.433 10.567 16 12.5 16ZM12.8536 10.1464L14.3536 11.6464C14.5488 11.8417 14.5488 12.1583 14.3536 12.3536C14.1583 12.5488 13.8417 12.5488 13.6464 12.3536L13 11.7071V14.5C13 14.7761 12.7761 15 12.5 15C12.2239 15 12 14.7761 12 14.5V11.7071L11.3536 12.3536C11.1583 12.5488 10.8417 12.5488 10.6464 12.3536C10.4512 12.1583 10.4512 11.8417 10.6464 11.6464L12.1464 10.1464C12.2402 10.0527 12.3674 10 12.5 10C12.6326 10 12.7598 10.0527 12.8536 10.1464Z" fill="currentColor"/>
<path d="M8.70711 1.50004C8.31658 1.10952 7.68342 1.10952 7.29289 1.50004L0.646447 8.14649C0.451184 8.34175 0.451184 8.65833 0.646447 8.85359C0.841709 9.04886 1.15829 9.04886 1.35355 8.85359L8 2.20715L14.6464 8.85359C14.8417 9.04886 15.1583 9.04886 15.3536 8.85359C15.5488 8.65833 15.5488 8.34175 15.3536 8.14649L13 5.79293V2.50004C13 2.2239 12.7761 2.00004 12.5 2.00004H11.5C11.2239 2.00004 11 2.2239 11 2.50004V3.79293L8.70711 1.50004Z" fill="currentColor"/>
<path d="M8 3.29293L12.712 8.00495C12.6418 8.00169 12.5711 8.00004 12.5 8.00004C10.0147 8.00004 8 10.0147 8 12.5C8 13.4251 8.27914 14.285 8.75777 15H3.5C2.67157 15 2 14.3284 2 13.5V9.29293L8 3.29293Z" fill="currentColor"/>
</svg>
