<svg width="16" height="16" viewBox="0 0 16 16" fill="none" xmlns="http://www.w3.org/2000/svg">
<path fill-rule="evenodd" clip-rule="evenodd" d="M5 2H14C14.2652 2 14.5196 2.10536 14.7071 2.29289C14.8946 2.48043 15 2.73478 15 3V10C15 10.2652 14.8946 10.5196 14.7071 10.7071C14.5196 10.8946 14.2652 11 14 11H5C4.73478 11 4.48043 10.8946 4.29289 10.7071C4.10536 10.5196 4 10.2652 4 10V3C4 2.73478 4.10536 2.48043 4.29289 2.29289C4.48043 2.10536 4.73478 2 5 2ZM6.5 4C6.23478 4 5.98043 4.10536 5.79289 4.29289C5.60536 4.48043 5.5 4.73478 5.5 5C5.5 5.26522 5.60536 5.51957 5.79289 5.70711C5.98043 5.89464 6.23478 6 6.5 6C6.76522 6 7.01957 5.89464 7.20711 5.70711C7.39464 5.51957 7.5 5.26522 7.5 5C7.5 4.73478 7.39464 4.48043 7.20711 4.29289C7.01957 4.10536 6.76522 4 6.5 4ZM5 9.5H13L10.5 6L8.5 8.5L7 7L5 9.5ZM2 5V13C2 13.2652 2.10536 13.5196 2.29289 13.7071C2.48043 13.8946 2.73478 14 3 14H12V12.5H3.5V5H2Z" fill="currentColor"/>
</svg>
