<svg width="16" height="16" viewBox="0 0 16 16" fill="none" xmlns="http://www.w3.org/2000/svg">
<path d="M5.52028 0.358914C5.58286 0.146124 5.77816 0 5.99996 0H9.99993C10.1606 0 10.3115 0.07726 10.4055 0.207643C10.4995 0.338026 10.5251 0.505636 10.4742 0.658109L8.69365 5.99995H12.4999C12.6909 5.99995 12.8652 6.10873 12.9491 6.28027C13.033 6.45182 13.0118 6.65618 12.8946 6.80692L5.89464 15.8069C5.74645 15.9974 5.4833 16.0549 5.26917 15.9435C5.05506 15.832 4.9511 15.5836 5.02208 15.3529L6.82297 9.49993H3.49998C3.3424 9.49993 3.19405 9.42565 3.09964 9.29948C3.00524 9.17331 2.97583 9.01002 3.0203 8.85885L5.52028 0.358914Z" fill="currentColor"/>
</svg>
