<svg width="16" height="16" viewBox="0 0 16 16" fill="none" xmlns="http://www.w3.org/2000/svg">
<path d="M15.4023 0.00966124C15.5491 -0.0195762 15.7016 0.0182886 15.8174 0.113177C15.9331 0.208145 16 0.35019 16 0.499896V14.4999C16 14.7382 15.8314 14.9434 15.5977 14.9901L10.5977 15.9901C10.5332 16.003 10.4668 16.003 10.4023 15.9901L5.5 15.0097L0.597656 15.9901C0.450884 16.0194 0.298363 15.9815 0.182617 15.8866C0.0669027 15.7916 0 15.6496 0 15.4999V1.4999C2.01941e-06 1.26156 0.168633 1.05641 0.402344 1.00967L5.40234 0.00966124C5.46683 -0.00318469 5.53317 -0.00318469 5.59766 0.00966124L10.5 0.99013L15.4023 0.00966124ZM10.5977 1.99013C10.5332 2.00297 10.4668 2.00297 10.4023 1.99013L10 1.90908V14.8895L10.5 14.9901L11 14.8895V1.90908L10.5977 1.99013ZM5 1.10928V14.0897L5.40234 14.0097L5.5 13.9999C5.53271 13.9999 5.56542 14.0032 5.59766 14.0097L6 14.0897V1.10928L5.5 1.00967L5 1.10928Z" fill="currentColor"/>
</svg>
