<svg width="16" height="16" viewBox="0 0 16 16" fill="none" xmlns="http://www.w3.org/2000/svg">
<path d="M12 1.5L5.99999 3V10.1C5.50692 9.88481 4.9576 9.83442 4.43361 9.9563C3.90962 10.0782 3.43893 10.3658 3.09145 10.7765C2.74397 11.1872 2.53824 11.6991 2.50483 12.236C2.47141 12.773 2.6121 13.3063 2.90598 13.757C3.19985 14.2076 3.63125 14.5514 4.13609 14.7373C4.64092 14.9232 5.19226 14.9413 5.7082 14.7889C6.22414 14.6365 6.67715 14.3217 6.99995 13.8914C7.32275 13.461 7.49811 12.938 7.49999 12.4V5.3L10.5 4.5V8.1C10.0069 7.88481 9.4576 7.83442 8.93361 7.9563C8.40962 8.07818 7.93893 8.36584 7.59145 8.77654C7.24397 9.18725 7.03824 9.69908 7.00483 10.236C6.97141 10.773 7.1121 11.3063 7.40598 11.757C7.69985 12.2076 8.13125 12.5514 8.63609 12.7373C9.14092 12.9232 9.69226 12.9413 10.2082 12.7889C10.7241 12.6365 11.1772 12.3217 11.5 11.8914C11.8228 11.461 11.9981 10.938 12 10.4V1.5Z" fill="currentColor"/>
</svg>
