<svg width="16" height="16" viewBox="0 0 16 16" fill="none" xmlns="http://www.w3.org/2000/svg">
<path d="M4.58027 1C4.22142 1 3.89007 1.19229 3.71203 1.50387L0.283487 7.50389C0.107816 7.81132 0.107815 8.18872 0.283486 8.49615L3.71199 14.4961C3.89003 14.8077 4.22137 15 4.58023 15H11.4197C11.7785 15 12.1099 14.8077 12.2879 14.4961L15.7165 8.49615C15.8921 8.18872 15.8921 7.81132 15.7165 7.50389L12.2879 1.50387C12.1099 1.19229 11.7785 1 11.4197 1H4.58027ZM9.59807 10.6962C8.16319 11.5246 6.32842 11.033 5.49999 9.5981C4.67156 8.16322 5.16319 6.32845 6.59807 5.50002C8.03294 4.67159 9.86771 5.16322 10.6962 6.5981C11.5246 8.03297 11.033 9.86775 9.59807 10.6962Z" fill="currentColor"/>
</svg>
