<svg width="16" height="17" viewBox="0 0 16 17" fill="none" xmlns="http://www.w3.org/2000/svg">
<path d="M8.00348 16.0023C7.47756 15.9948 6.95286 15.9494 6.43348 15.8663C6.22111 15.8368 6.02625 15.7324 5.88398 15.572C5.74172 15.4116 5.6614 15.2057 5.65748 14.9913V13.0383L5.55748 12.1683C5.4156 11.0253 4.85475 9.97559 3.98348 9.2223C3.43993 8.73528 3.01031 8.13454 2.72514 7.46275C2.43997 6.79095 2.30625 6.0646 2.33348 5.3353C2.38077 3.87709 3.00404 2.49706 4.06679 1.49748C5.12953 0.4979 6.54512 -0.0397505 8.00348 0.00229257C9.46116 -0.0386731 10.8757 0.499458 11.9376 1.49893C12.9994 2.4984 13.6222 3.87781 13.6695 5.3353C13.6972 6.06429 13.5641 6.79045 13.2796 7.46222C12.9952 8.134 12.5663 8.73491 12.0235 9.2223C11.1511 9.97488 10.5898 11.0249 10.4485 12.1683L10.3485 13.0373V14.9903C10.3445 15.2047 10.2642 15.4106 10.122 15.571C9.97971 15.7314 9.78485 15.8358 9.57248 15.8653C9.05346 15.9486 8.5291 15.9944 8.00348 16.0023ZM6.66048 13.0023V14.8893C7.10077 14.9568 7.54511 14.9946 7.99048 15.0023C8.44425 14.9967 8.89706 14.959 9.34548 14.8893V13.0023H6.66048ZM6.83348 8.3153L7.67148 9.0883V11.3353H8.33348V9.0883L9.17148 8.3153C9.31261 8.35068 9.46145 8.33895 9.59529 8.28189C9.72914 8.22482 9.84065 8.12556 9.91283 7.99922C9.98502 7.87289 10.0139 7.72642 9.99511 7.58214C9.97631 7.43785 9.91084 7.30368 9.8087 7.20006C9.70655 7.09644 9.57332 7.02907 9.42932 7.00821C9.28532 6.98735 9.13845 7.01415 9.0111 7.08453C8.88375 7.1549 8.7829 7.26499 8.72393 7.398C8.66497 7.53102 8.65111 7.67967 8.68448 7.8213L8.00048 8.4533L7.31548 7.8213C7.34704 7.68667 7.33591 7.54555 7.28364 7.41754C7.23137 7.28952 7.14055 7.18095 7.02378 7.10688C6.90701 7.03282 6.77008 6.99694 6.63199 7.00422C6.49391 7.0115 6.36151 7.06158 6.25318 7.14751C6.14484 7.23345 6.06594 7.35097 6.02742 7.48377C5.9889 7.61658 5.99267 7.75808 6.03822 7.88864C6.08376 8.0192 6.16881 8.13235 6.28157 8.21239C6.39433 8.29243 6.5292 8.33538 6.66748 8.3353C6.72178 8.33544 6.77587 8.32872 6.82848 8.3153H6.83348Z" fill="currentColor"/>
</svg>
