<svg width="16" height="16" viewBox="0 0 16 16" fill="none" xmlns="http://www.w3.org/2000/svg">
<path d="M8.26976 8.07421C9.16288 8.07421 9.68857 7.5293 9.68857 6.58594C9.68857 5.64258 9.16288 5.10352 8.26976 5.10352H6.77747V8.07421H8.26976Z" fill="currentColor"/>
<path d="M2 0C0.895431 0 0 0.895431 0 2V14C0 15.1046 0.895431 16 2 16H14C15.1046 16 16 15.1046 16 14V2C16 0.895431 15.1046 0 14 0H2ZM5.5 4.00195H8.46197C10.0447 4.00195 11 5.10352 11 6.58594C11 8.08008 10.0334 9.16406 8.45067 9.16406H6.78314V12H5.5V4.00195Z" fill="currentColor"/>
</svg>
