<svg width="16" height="16" viewBox="0 0 16 16" fill="none" xmlns="http://www.w3.org/2000/svg">
<path fill-rule="evenodd" clip-rule="evenodd" d="M7 1.30005L2.3 6.00005L7 10.7L11.7 6.00005L7 1.30005ZM3.8 6.00005L7 2.80005L10.2 6.00005H3.8ZM13 9.00005C12.3 10 11.5 11.1 11.5 12C11.5 12.3979 11.658 12.7794 11.9393 13.0607C12.2206 13.342 12.6022 13.5 13 13.5C13.3978 13.5 13.7794 13.342 14.0607 13.0607C14.342 12.7794 14.5 12.3979 14.5 12C14.5 11.1 13.7 10 13 9.00005ZM1.5 11.5H12.5V14H1.5V11.5Z" fill="currentColor"/>
</svg>
