<svg width="16" height="16" viewBox="0 0 16 16" fill="none" xmlns="http://www.w3.org/2000/svg">
<path d="M12.8536 0.146447C12.6583 -0.0488156 12.3417 -0.0488156 12.1465 0.146447L10.5 1.7929L14.2071 5.50001L15.8536 3.85355C16.0488 3.65829 16.0488 3.34171 15.8536 3.14645L12.8536 0.146447Z" fill="currentColor"/>
<path d="M13.5 6.2071L9.7929 2.5L3.29291 8.99999H3.5C3.77614 8.99999 4 9.22385 4 9.49999V9.99999H4.5C4.77614 9.99999 5 10.2239 5 10.5V11H5.5C5.77614 11 6 11.2239 6 11.5V12H6.5C6.77614 12 7 12.2239 7 12.5V12.7071L13.5 6.2071Z" fill="currentColor"/>
<path d="M6.03166 13.6755C6.01119 13.6209 6 13.5617 6 13.5V13H5.5C5.22386 13 5 12.7761 5 12.5V12H4.5C4.22386 12 4 11.7761 4 11.5V11H3.5C3.22386 11 3 10.7761 3 10.5V9.99997H2.5C2.43827 9.99997 2.37915 9.98878 2.32455 9.96832L2.14646 10.1464C2.09858 10.1943 2.06092 10.2514 2.03578 10.3143L0.0357762 15.3143C-0.0385071 15.5 0.00502989 15.7121 0.146461 15.8536C0.287892 15.995 0.500001 16.0385 0.68571 15.9642L5.68571 13.9642C5.74858 13.9391 5.80569 13.9014 5.85357 13.8536L6.03166 13.6755Z" fill="currentColor"/>
</svg>
