<svg width="16" height="16" viewBox="0 0 16 16" fill="none" xmlns="http://www.w3.org/2000/svg">
<path d="M4 4C4 2.89543 4.89543 2 6 2H10C11.1046 2 12 2.89543 12 4V12C12 13.1046 11.1046 14 10 14H6C4.89543 14 4 13.1046 4 12V4ZM9 11C9 10.4477 8.55229 10 8 10C7.44772 10 7 10.4477 7 11C7 11.5523 7.44772 12 8 12C8.55229 12 9 11.5523 9 11Z" fill="currentColor"/>
<path d="M1.80709 4.73364C1.93614 4.48951 1.84284 4.18699 1.59871 4.05794C1.35458 3.92889 1.05205 4.02218 0.923005 4.26632C0.333548 5.38144 0 6.65249 0 7.99998C0 9.34746 0.333548 10.6185 0.923005 11.7337C1.05205 11.9778 1.35458 12.0711 1.59871 11.942C1.84284 11.813 1.93614 11.5105 1.80709 11.2663C1.29191 10.2917 1 9.18068 1 7.99998C1 6.81928 1.29191 5.70824 1.80709 4.73364Z" fill="currentColor"/>
<path d="M15.077 4.26632C14.9479 4.02218 14.6454 3.92889 14.4013 4.05794C14.1572 4.18699 14.0639 4.48951 14.1929 4.73364C14.7081 5.70824 15 6.81928 15 7.99998C15 9.18068 14.7081 10.2917 14.1929 11.2663C14.0639 11.5105 14.1572 11.813 14.4013 11.942C14.6454 12.0711 14.9479 11.9778 15.077 11.7337C15.6665 10.6185 16 9.34747 16 7.99998C16 6.6525 15.6665 5.38144 15.077 4.26632Z" fill="currentColor"/>
<path d="M3.34068 6.1819C3.44114 5.92467 3.31405 5.63472 3.05683 5.53427C2.7996 5.43381 2.50965 5.5609 2.4092 5.81812C2.14485 6.49502 2 7.2312 2 8.00001C2 8.76882 2.14485 9.505 2.4092 10.1819C2.50965 10.4391 2.7996 10.5662 3.05683 10.4657C3.31405 10.3653 3.44114 10.0753 3.34068 9.81812C3.12088 9.25529 3 8.64236 3 8.00001C3 7.35766 3.12088 6.74473 3.34068 6.1819Z" fill="currentColor"/>
<path d="M13.5908 5.81812C13.4903 5.5609 13.2004 5.43381 12.9432 5.53427C12.6859 5.63472 12.5589 5.92467 12.6593 6.1819C12.8791 6.74473 13 7.35766 13 8.00001C13 8.64236 12.8791 9.25529 12.6593 9.81812C12.5589 10.0753 12.6859 10.3653 12.9432 10.4657C13.2004 10.5662 13.4903 10.4391 13.5908 10.1819C13.8552 9.505 14 8.76882 14 8.00001C14 7.2312 13.8552 6.49502 13.5908 5.81812Z" fill="currentColor"/>
</svg>
