<svg width="16" height="16" viewBox="0 0 16 16" fill="none" xmlns="http://www.w3.org/2000/svg">
<path d="M9.82842 0.721802C9.96103 0.721802 10.0882 0.77448 10.182 0.868249L15.1317 5.818C15.327 6.01326 15.327 6.32984 15.1317 6.52511C14.6513 7.0055 14.0597 7.11349 13.6291 7.11349C13.4517 7.11349 13.2936 7.09548 13.1684 7.07423L10.0348 10.2078C10.0417 10.2357 10.0488 10.2652 10.056 10.2963C10.1099 10.5298 10.1704 10.8555 10.1947 11.2206C10.2416 11.9232 10.163 12.908 9.47487 13.5962C9.27961 13.7915 8.96303 13.7915 8.76776 13.5962L5.93934 10.7678L2.75736 13.9497C2.5621 14.145 1.53841 14.8521 1.34314 14.6569C1.14788 14.4616 1.85499 13.4379 2.05025 13.2426L5.23223 10.0607L2.4038 7.23221C2.20854 7.03695 2.20854 6.72037 2.4038 6.52511C3.09197 5.83694 4.07683 5.75841 4.77935 5.80524C5.14454 5.82959 5.47022 5.89011 5.70374 5.944C5.73479 5.95116 5.76432 5.95824 5.79221 5.96513L8.92575 2.83159C8.9045 2.70635 8.88648 2.54824 8.88648 2.37085C8.88648 1.94023 8.99448 1.34864 9.47487 0.868249C9.56864 0.77448 9.69582 0.721802 9.82842 0.721802Z" fill="currentColor"/>
</svg>
