<svg width="16" height="16" viewBox="0 0 16 16" fill="none" xmlns="http://www.w3.org/2000/svg">
<path fill-rule="evenodd" clip-rule="evenodd" d="M8.00002 6.5C8.39785 6.5 8.77938 6.65804 9.06068 6.93934C9.34199 7.22064 9.50002 7.60218 9.50002 8C9.50002 8.39782 9.34199 8.77936 9.06068 9.06066C8.77938 9.34196 8.39785 9.5 8.00002 9.5C7.6022 9.5 7.22067 9.34196 6.93936 9.06066C6.65806 8.77936 6.50002 8.39782 6.50002 8C6.50002 7.60218 6.65806 7.22064 6.93936 6.93934C7.22067 6.65804 7.6022 6.5 8.00002 6.5ZM8.00002 1.5C9.13854 1.5051 10.2557 1.80916 11.2398 2.38173C12.2239 2.95431 13.0403 3.77532 13.6073 4.76259C14.1744 5.74986 14.4722 6.86875 14.4709 8.00727C14.4696 9.1458 14.1693 10.264 13.6 11.25L10.2 9.25C10.1019 8.63985 9.78129 8.08767 9.30002 7.7L11 4.3C9.7198 3.72126 8.66558 2.73732 8.00002 1.5ZM2.40002 11.25L5.80002 9.25C6.00002 9.9 6.40002 10.45 6.90002 10.8V14.8C5.92851 14.5916 5.0177 14.1632 4.2376 13.5478C3.4575 12.9324 2.82887 12.1463 2.40002 11.25Z" fill="currentColor"/>
</svg>
