<svg width="16" height="16" viewBox="0 0 16 16" fill="none" xmlns="http://www.w3.org/2000/svg">
<path fill-rule="evenodd" clip-rule="evenodd" d="M1.6 4.40001L4.4 1.60001C4.53035 1.46697 4.68594 1.36128 4.85765 1.28913C5.02936 1.21697 5.21374 1.17981 5.4 1.17981C5.58625 1.17981 5.77064 1.21697 5.94235 1.28913C6.11406 1.36128 6.26965 1.46697 6.4 1.60001L14.4 9.60001C14.533 9.73036 14.6387 9.88595 14.7109 10.0577C14.783 10.2294 14.8202 10.4138 14.8202 10.6C14.8202 10.7863 14.783 10.9707 14.7109 11.1424C14.6387 11.3141 14.533 11.4697 14.4 11.6L11.6 14.4C11.4696 14.5331 11.3141 14.6387 11.1423 14.7109C10.9706 14.7831 10.7863 14.8202 10.6 14.8202C10.4137 14.8202 10.2294 14.7831 10.0576 14.7109C9.88594 14.6387 9.73035 14.5331 9.6 14.4L1.6 6.40001C1.46696 6.26966 1.36127 6.11407 1.28911 5.94236C1.21696 5.77065 1.17979 5.58627 1.17979 5.40001C1.17979 5.21376 1.21696 5.02938 1.28911 4.85766C1.36127 4.68595 1.46696 4.53037 1.6 4.40001ZM4 4.60001L3.1 5.50001L4.1 6.50001L4.7 5.90001L5.4 6.60001L4.8 7.20001L5.8 8.20001L6.7 7.30001L7.4 8.00001L6.5 8.90001L7.5 9.90001L8.1 9.30001L8.8 10L8.2 10.6L9.2 11.6L10.1 10.7L4 4.60001Z" fill="currentColor"/>
</svg>
