<svg width="16" height="16" viewBox="0 0 16 16" fill="none" xmlns="http://www.w3.org/2000/svg">
<path d="M6.56297 8.00001H5.0354C5.12022 7.40706 5.35365 6.86205 5.69677 6.40393L6.77687 7.48403C6.68282 7.64318 6.6102 7.8165 6.56297 8.00001Z" fill="currentColor"/>
<path d="M7.48403 6.7769L6.40393 5.6968C6.86205 5.35369 7.40706 5.12025 8.00002 5.03543V6.563C7.81651 6.61023 7.64319 6.68285 7.48403 6.7769Z" fill="currentColor"/>
<path d="M9 6.563V5.03543C9.59295 5.12025 10.138 5.35369 10.5961 5.6968L9.51598 6.7769C9.35683 6.68285 9.18351 6.61023 9 6.563Z" fill="currentColor"/>
<path d="M10.2231 7.484L11.3032 6.4039C11.6463 6.86203 11.8797 7.40704 11.9646 7.99999H10.437C10.3898 7.81648 10.3171 7.64316 10.2231 7.484Z" fill="currentColor"/>
<path d="M10.437 9H11.9646C11.8797 9.59295 11.6463 10.138 11.3032 10.5961L10.2231 9.51599C10.3171 9.35683 10.3898 9.18351 10.437 9Z" fill="currentColor"/>
<path d="M9.51598 10.2231L10.5961 11.3032C10.138 11.6463 9.59295 11.8797 9 11.9646V10.437C9.18351 10.3898 9.35683 10.3171 9.51598 10.2231Z" fill="currentColor"/>
<path d="M8.00002 10.437V11.9646C7.40706 11.8797 6.86205 11.6463 6.40393 11.3032L7.48403 10.2231C7.64319 10.3171 7.81651 10.3898 8.00002 10.437Z" fill="currentColor"/>
<path d="M6.77687 9.51598L5.69677 10.5961C5.35366 10.138 5.12022 9.59295 5.0354 9H6.56297C6.6102 9.18351 6.68282 9.35683 6.77687 9.51598Z" fill="currentColor"/>
<path d="M7.5 8.5C7.5 7.94772 7.94772 7.5 8.5 7.5C9.05228 7.5 9.5 7.94772 9.5 8.5C9.5 9.05228 9.05228 9.5 8.5 9.5C7.94772 9.5 7.5 9.05228 7.5 8.5Z" fill="currentColor"/>
<path d="M2.5 1C1.67157 1 1 1.67157 1 2.5V3H0.5C0.223858 3 0 3.22386 0 3.5C0 3.77614 0.223858 4 0.5 4H1V8H0.5C0.223858 8 0 8.22386 0 8.5C0 8.77614 0.223858 9 0.5 9H1V13H0.5C0.223858 13 0 13.2239 0 13.5C0 13.7761 0.223858 14 0.5 14H1V14.5C1 15.3284 1.67157 16 2.5 16H14.5C15.3284 16 16 15.3284 16 14.5V2.5C16 1.67157 15.3284 1 14.5 1H2.5ZM8.5 4C10.9853 4 13 6.01472 13 8.5C13 10.9853 10.9853 13 8.5 13C6.01472 13 4 10.9853 4 8.5C4 6.01472 6.01472 4 8.5 4Z" fill="currentColor"/>
</svg>
