<svg width="16" height="16" viewBox="0 0 16 16" fill="none" xmlns="http://www.w3.org/2000/svg">
<path fill-rule="evenodd" clip-rule="evenodd" d="M9 7.99996L14 4.49996C14.2122 4.34083 14.3524 4.10393 14.39 3.84138C14.4275 3.57883 14.3591 3.31213 14.2 3.09996C14.0409 2.88778 13.804 2.74751 13.5414 2.71001C13.2789 2.6725 13.0122 2.74083 12.8 2.89996L7.8 6.49996L6.6 5.59996C6.73071 5.09657 6.67886 4.56314 6.45365 4.09435C6.22843 3.62556 5.84442 3.25172 5.36976 3.03916C4.89509 2.8266 4.36047 2.78908 3.86077 2.93325C3.36107 3.07742 2.9286 3.39396 2.64011 3.82669C2.35162 4.25943 2.22576 4.78038 2.28488 5.29709C2.34399 5.8138 2.58425 6.29286 2.96302 6.64926C3.34179 7.00566 3.83457 7.21635 4.35393 7.24394C4.87328 7.27152 5.38561 7.11422 5.8 6.79996L7 7.59996L5.8 8.49996C5.38561 8.18569 4.87328 8.02839 4.35393 8.05597C3.83457 8.08356 3.34179 8.29425 2.96302 8.65065C2.58425 9.00705 2.34399 9.48611 2.28488 10.0028C2.22576 10.5195 2.35162 11.0405 2.64011 11.4732C2.9286 11.906 3.36107 12.2225 3.86077 12.3667C4.36047 12.5108 4.89509 12.4733 5.36976 12.2608C5.84442 12.0482 6.22843 11.6743 6.45365 11.2056C6.67886 10.7368 6.73071 10.2033 6.6 9.69995L7.8 8.59996L12.8 12.2C13.0122 12.3591 13.2789 12.4274 13.5414 12.3899C13.804 12.3524 14.0409 12.2121 14.2 12C14.3591 11.7878 14.4275 11.5211 14.39 11.2585C14.3524 10.996 14.2122 10.7591 14 10.6L9 7.99996ZM4 3.39996C4.11819 3.39996 4.23523 3.42323 4.34442 3.46846C4.45361 3.51369 4.55283 3.57999 4.6364 3.66356C4.71997 3.74713 4.78627 3.84635 4.83149 3.95554C4.87672 4.06473 4.9 4.18177 4.9 4.29996C4.9 4.41815 4.87672 4.53518 4.83149 4.64437C4.78627 4.75356 4.71997 4.85278 4.6364 4.93635C4.55283 5.01992 4.45361 5.08622 4.34442 5.13145C4.23523 5.17668 4.11819 5.19995 4 5.19995C3.76131 5.19995 3.53239 5.10513 3.36361 4.93635C3.19482 4.76757 3.1 4.53865 3.1 4.29996C3.1 4.06126 3.19482 3.83234 3.36361 3.66356C3.53239 3.49478 3.76131 3.39996 4 3.39996ZM4 10.8C4.2387 10.8 4.46762 10.8948 4.6364 11.0636C4.80518 11.2323 4.9 11.4613 4.9 11.7C4.9 11.9387 4.80518 12.1676 4.6364 12.3364C4.46762 12.5051 4.2387 12.6 4 12.6C3.76131 12.6 3.53239 12.5051 3.36361 12.3364C3.19482 12.1676 3.1 11.9387 3.1 11.7C3.1 11.4613 3.19482 11.2323 3.36361 11.0636C3.53239 10.8948 3.76131 10.8 4 10.8Z" fill="currentColor"/>
</svg>
