<svg width="16" height="16" viewBox="0 0 16 16" fill="none" xmlns="http://www.w3.org/2000/svg">
<path d="M11.6084 13.6084C11.0117 14.2484 10.4127 14.758 9.87694 15.1357C9.49088 15.408 9.13296 15.6167 8.82909 15.7598C8.54828 15.892 8.24769 16 7.99999 16C7.75229 16 7.45171 15.892 7.17089 15.7598C6.86702 15.6167 6.50911 15.408 6.12304 15.1357C5.35018 14.5907 4.44226 13.7751 3.60644 12.6816C1.97881 10.5524 0.626823 7.36733 1.09179 3.0918L11.6084 13.6084ZM7.99999 0C8.68948 2.42301e-06 9.84298 0.265262 10.9287 0.55957C12.0386 0.860448 13.1566 1.21503 13.8145 1.42969C14.3635 1.60884 14.7787 2.09388 14.8584 2.69238C15.3415 6.31817 14.5264 9.1832 13.3076 11.3076L3.12987 1.12988C3.70839 0.949909 4.39113 0.743944 5.07128 0.55957C6.15701 0.265261 7.3105 0 7.99999 0Z" fill="currentColor"/>
<path fill-rule="evenodd" clip-rule="evenodd" d="M13.6465 14.3535L0.646484 1.35353L1.35359 0.646423L14.3536 13.6464L13.6465 14.3535Z" fill="currentColor"/>
</svg>
