<svg width="16" height="16" viewBox="0 0 16 16" fill="none" xmlns="http://www.w3.org/2000/svg">
<path d="M8.00042 0C8.68992 0.000103367 9.84271 0.265341 10.9281 0.55957C12.0382 0.860485 13.157 1.21501 13.8149 1.42969C14.3638 1.6089 14.7791 2.09397 14.8588 2.69238C15.4553 7.16942 14.0718 10.4866 12.394 12.6816C11.5582 13.775 10.6502 14.5907 9.87738 15.1357C9.49123 15.408 9.13247 15.6167 8.82855 15.7598C8.548 15.8918 8.24793 15.9999 8.00042 16C7.7528 16 7.45206 15.8919 7.17132 15.7598C6.86751 15.6167 6.50946 15.4079 6.12347 15.1357C5.35062 14.5907 4.44172 13.7751 3.60589 12.6816C1.92807 10.4866 0.544557 7.16936 1.14105 2.69238C1.22078 2.09402 1.63616 1.60894 2.18499 1.42969C2.84288 1.21501 3.96162 0.860485 5.07171 0.55957C6.15742 0.265267 7.31094 0 8.00042 0ZM10.8539 5.14648C10.6587 4.95129 10.3422 4.95142 10.1469 5.14648L7.50042 7.79297L6.35394 6.64648C6.15875 6.45129 5.84219 6.45142 5.64691 6.64648C5.45165 6.84175 5.45165 7.15825 5.64691 7.35352L7.14691 8.85352C7.24066 8.94716 7.36791 9 7.50042 9C7.63289 8.99989 7.76027 8.94719 7.85394 8.85352L10.8539 5.85352C11.0489 5.6583 11.0489 5.3417 10.8539 5.14648Z" fill="currentColor"/>
</svg>
