<svg width="16" height="16" viewBox="0 0 16 16" fill="none" xmlns="http://www.w3.org/2000/svg">
<path fill-rule="evenodd" clip-rule="evenodd" d="M1.99999 1.5H14L15.2 4.8C15.2601 5.09395 15.2532 5.39765 15.18 5.6886C15.1067 5.97955 14.969 6.25029 14.7769 6.48078C14.5849 6.71126 14.3434 6.89558 14.0704 7.02008C13.7974 7.14458 13.5 7.20607 13.2 7.2C12.8895 7.2 12.5833 7.12771 12.3056 6.98885C12.0279 6.85 11.7863 6.64839 11.6 6.4C11.4137 6.64839 11.1721 6.85 10.8944 6.98885C10.6167 7.12771 10.3105 7.2 9.99999 7.2C9.62503 7.2714 9.23748 7.23401 8.88309 7.09226C8.52869 6.9505 8.22227 6.71029 7.99999 6.4C7.81369 6.64839 7.57213 6.85 7.29442 6.98885C7.01671 7.12771 6.71048 7.2 6.39999 7.2C5.96903 7.36368 5.49477 7.37345 5.05743 7.22767C4.6201 7.08189 4.24655 6.78951 3.99999 6.4C3.81369 6.64839 3.57213 6.85 3.29442 6.98885C3.01671 7.12771 2.71048 7.2 2.39999 7.2C2.10003 7.20607 1.80254 7.14458 1.52957 7.02008C1.25659 6.89558 1.01513 6.71126 0.823055 6.48078C0.630983 6.25029 0.493228 5.97955 0.419994 5.6886C0.34676 5.39765 0.339923 5.09395 0.399989 4.8L1.99999 1.5ZM2.49999 8.2C3.09999 8.5 3.69999 8.6 3.99999 8.6V14H11V8.6C11.3 8.6 11.9 8.5 12.5 8.2V14H13V15.4H1.99999V14H2.49999V8.2Z" fill="currentColor"/>
</svg>
