<svg width="16" height="16" viewBox="0 0 16 16" fill="none" xmlns="http://www.w3.org/2000/svg">
<path d="M13.2923 13.9994C11.882 15.2445 10.0292 16 8 16C3.58172 16 0 12.4183 0 7.99995C0 5.97074 0.755509 4.11799 2.00058 2.70764L5.5 6.20706V12H6.78314V9.16401H8.45067C8.45276 9.16401 8.45486 9.16401 8.45695 9.16401L13.2923 13.9994Z" fill="currentColor"/>
<path d="M13.9994 13.2923L9.62987 8.92282C10.4998 8.52331 11 7.66074 11 6.58594C11 5.10352 10.0447 4.00195 8.46192 4.00195H5.49995V4.79289L2.70764 2.00058C4.11799 0.755509 5.97074 0 7.99995 0C12.4183 0 16 3.58172 16 8C16 10.0292 15.2445 11.882 13.9994 13.2923Z" fill="currentColor"/>
<path d="M6.77747 7.48462V8.07424H7.36708L6.77747 7.48462Z" fill="currentColor"/>
<path d="M8.72636 8.01929L6.77747 6.07039V5.10352H8.26976C9.16287 5.10352 9.68857 5.64258 9.68857 6.58594C9.68857 7.35492 9.33926 7.85915 8.72636 8.01929Z" fill="currentColor"/>
</svg>
