<svg width="16" height="16" viewBox="0 0 16 16" fill="none" xmlns="http://www.w3.org/2000/svg">
<path d="M0 8C0 6.41775 0.469192 4.87103 1.34824 3.55544C2.22729 2.23984 3.47672 1.21446 4.93853 0.608968C6.40034 0.00346619 8.00887 -0.15496 9.56072 0.153722C11.1126 0.462404 12.538 1.22433 13.6569 2.34315C14.7757 3.46197 15.5376 4.88743 15.8463 6.43928C16.155 7.99113 15.9965 9.59966 15.391 11.0615C14.7855 12.5233 13.7602 13.7727 12.4446 14.6518C11.129 15.5308 9.58225 16 8 16C5.87908 15.9974 3.84579 15.1536 2.34607 13.6539C0.846351 12.1542 0.00264619 10.1209 0 8ZM2.69 8.842C2.69341 9.48414 2.83255 10.1183 3.0983 10.7029C3.36405 11.2875 3.7504 11.8092 4.232 12.234C5.26194 13.1509 6.59715 13.6502 7.976 13.634C9.32013 13.7011 10.6363 13.2343 11.6377 12.3352C12.6391 11.4361 13.2445 10.1776 13.322 8.834C13.322 8.712 13.222 8.655 13.022 8.655C12.6088 8.68989 12.1993 8.75981 11.798 8.864C10.5557 9.16855 9.28379 9.33621 8.005 9.364C6.72654 9.33628 5.45495 9.16861 4.213 8.864C3.81174 8.7592 3.40224 8.68895 2.989 8.654C2.786 8.663 2.69 8.72 2.69 8.843V8.842ZM9.75 5.666C9.73551 5.83588 9.76852 6.00644 9.84533 6.15865C9.92214 6.31086 10.0397 6.43874 10.185 6.528C10.33 6.61747 10.4971 6.66485 10.6675 6.66485C10.8379 6.66485 11.005 6.61747 11.15 6.528C11.2953 6.43886 11.4129 6.31098 11.4896 6.15871C11.5662 6.00645 11.5989 5.83582 11.584 5.666C11.5951 5.53891 11.5797 5.4109 11.5387 5.2901C11.4977 5.16929 11.432 5.05834 11.3458 4.96428C11.2596 4.87022 11.1548 4.79512 11.038 4.74374C10.9213 4.69236 10.7951 4.66583 10.6675 4.66583C10.5399 4.66583 10.4137 4.69236 10.297 4.74374C10.1802 4.79512 10.0754 4.87022 9.98921 4.96428C9.90302 5.05834 9.83734 5.16929 9.79633 5.2901C9.75532 5.4109 9.73988 5.53891 9.751 5.666H9.75ZM4.667 4.974C4.58085 5.06635 4.51394 5.17491 4.47016 5.29338C4.42638 5.41184 4.40661 5.53782 4.412 5.664C4.40225 5.91888 4.49392 6.16724 4.66692 6.35468C4.83992 6.54211 5.08015 6.65334 5.335 6.664C5.58985 6.6536 5.83015 6.54242 6.00304 6.35489C6.17594 6.16737 6.26729 5.91886 6.257 5.664C6.26223 5.53777 6.24251 5.41176 6.19899 5.29316C6.15547 5.17456 6.08898 5.06571 6.00335 4.97283C5.91771 4.87995 5.8146 4.80486 5.69992 4.75187C5.58524 4.69888 5.46123 4.66902 5.335 4.664C5.20869 4.66894 5.08461 4.69889 4.96995 4.7521C4.85529 4.80531 4.75232 4.88073 4.667 4.974ZM4 9.715C4 9.276 5.571 10.215 8 10.215C10.429 10.215 12 9.275 12 9.715C12 11.628 9.226 11.715 8 11.715C6.908 11.715 4 11.629 4 9.715Z" fill="currentColor"/>
</svg>
