<svg width="16" height="16" viewBox="0 0 16 16" fill="none" xmlns="http://www.w3.org/2000/svg">
<path fill-rule="evenodd" clip-rule="evenodd" d="M7.99998 3.5C7.05381 3.50091 6.11925 3.70837 5.26156 4.1079C4.40388 4.50742 3.64376 5.08938 3.0343 5.81311C2.42484 6.53685 1.98073 7.38492 1.73299 8.29808C1.48525 9.21124 1.43986 10.1675 1.59998 11.1C1.62419 11.2678 1.70851 11.4212 1.83725 11.5315C1.966 11.6419 2.13042 11.7017 2.29998 11.7H13.7C13.8695 11.7017 14.034 11.6419 14.1627 11.5315C14.2915 11.4212 14.3758 11.2678 14.4 11.1C14.5601 10.1675 14.5147 9.21124 14.267 8.29808C14.0192 7.38492 13.5751 6.53685 12.9657 5.81311C12.3562 5.08938 11.5961 4.50742 10.7384 4.1079C9.88071 3.70837 8.94615 3.50091 7.99998 3.5ZM10.8 6.7L8.79998 8.8C8.86202 9.02865 8.84859 9.27122 8.76167 9.49161C8.67475 9.71201 8.519 9.89846 8.31759 10.0232C8.11618 10.148 7.87988 10.2044 7.64384 10.184C7.4078 10.1636 7.18464 10.0676 7.00757 9.91021C6.83049 9.75282 6.70897 9.54245 6.66108 9.31043C6.61319 9.0784 6.64148 8.83712 6.74176 8.62247C6.84204 8.40782 7.00894 8.23129 7.21763 8.11913C7.42631 8.00697 7.66563 7.96519 7.89998 8L9.99998 6C10.1119 5.94653 10.2377 5.92908 10.36 5.95006C10.4823 5.97104 10.5951 6.02942 10.6828 6.11716C10.7706 6.20489 10.8289 6.31767 10.8499 6.43996C10.8709 6.56225 10.8535 6.68804 10.8 6.8V6.7Z" fill="currentColor"/>
</svg>
