<svg width="16" height="16" viewBox="0 0 16 16" fill="none" xmlns="http://www.w3.org/2000/svg">
<path fill-rule="evenodd" clip-rule="evenodd" d="M7.59997 1.09998C7.72159 1.02976 7.85955 0.992798 7.99997 0.992798C8.1404 0.992798 8.27836 1.02976 8.39997 1.09998L13.9 4.09998C13.9962 4.15105 14.0767 4.22737 14.1329 4.32074C14.1891 4.41412 14.2187 4.52102 14.2187 4.62998C14.2187 4.73894 14.1891 4.84584 14.1329 4.93921C14.0767 5.03258 13.9962 5.1089 13.9 5.15998L8.39997 8.15998C8.27836 8.23019 8.1404 8.26716 7.99997 8.26716C7.85955 8.26716 7.72159 8.23019 7.59997 8.15998L2.09997 5.15998C2.00373 5.1089 1.9232 5.03258 1.86705 4.93921C1.81089 4.84584 1.78122 4.73894 1.78122 4.62998C1.78122 4.52102 1.81089 4.41412 1.86705 4.32074C1.9232 4.22737 2.00373 4.15105 2.09997 4.09998L7.59997 1.09998ZM2.09997 7.69998L7.59997 10.7C7.72159 10.7702 7.85955 10.8072 7.99997 10.8072C8.1404 10.8072 8.27836 10.7702 8.39997 10.7L13.9 7.69998L14.3 8.59998C14.3612 8.74348 14.3641 8.90518 14.3081 9.05079C14.2521 9.19641 14.1416 9.31448 14 9.37998L8.39997 12.38C8.27836 12.4502 8.1404 12.4872 7.99997 12.4872C7.85955 12.4872 7.72159 12.4502 7.59997 12.38L1.99997 9.37998C1.85837 9.31448 1.74785 9.19641 1.69185 9.05079C1.63584 8.90518 1.63876 8.74348 1.69997 8.59998L2.09997 7.69998Z" fill="currentColor"/>
</svg>
