<svg width="16" height="16" viewBox="0 0 16 16" fill="none" xmlns="http://www.w3.org/2000/svg">
<path fill-rule="evenodd" clip-rule="evenodd" d="M1.5 2.5H14.5C14.7652 2.5 15.0196 2.60536 15.2071 2.79289C15.3946 2.98043 15.5 3.23478 15.5 3.5V12.5C15.5 12.7652 15.3946 13.0196 15.2071 13.2071C15.0196 13.3946 14.7652 13.5 14.5 13.5H1.5C1.23478 13.5 0.98043 13.3946 0.792893 13.2071C0.605357 13.0196 0.5 12.7652 0.5 12.5V3.5C0.5 3.23478 0.605357 2.98043 0.792893 2.79289C0.98043 2.60536 1.23478 2.5 1.5 2.5ZM2 5.5H14V4H2V5.5ZM2 8.75H5.5V7H2V8.75ZM7 8.75H14V7H7V8.75ZM2 12H5.5V10.25H2V12ZM7 12H14V10.25H7V12Z" fill="currentColor"/>
</svg>
