<svg width="16" height="16" viewBox="0 0 16 16" fill="none" xmlns="http://www.w3.org/2000/svg">
<path fill-rule="evenodd" clip-rule="evenodd" d="M8 1.5C7.46957 1.5 6.96086 1.71071 6.58579 2.08579C6.21071 2.46086 6 2.96957 6 3.5V8.6C5.54714 9.00505 5.22794 9.53806 5.08464 10.1285C4.94134 10.7189 4.98069 11.339 5.19748 11.9065C5.41428 12.4741 5.7983 12.9625 6.29874 13.307C6.79917 13.6516 7.39243 13.8361 8 13.8361C8.60758 13.8361 9.20083 13.6516 9.70126 13.307C10.2017 12.9625 10.5857 12.4741 10.8025 11.9065C11.0193 11.339 11.0587 10.7189 10.9154 10.1285C10.7721 9.53806 10.4529 9.00505 10 8.6V3.5C10 2.96957 9.78929 2.46086 9.41421 2.08579C9.03914 1.71071 8.53043 1.5 8 1.5ZM7.2 3.5C7.2 3.28783 7.28429 3.08434 7.43432 2.93431C7.58434 2.78429 7.78783 2.7 8 2.7C8.21217 2.7 8.41566 2.78429 8.56569 2.93431C8.71572 3.08434 8.8 3.28783 8.8 3.5V9.2C9.07509 9.37344 9.28637 9.63159 9.40199 9.93554C9.51761 10.2395 9.53132 10.5728 9.44106 10.8852C9.35079 11.1976 9.16143 11.4723 8.90152 11.6677C8.6416 11.8632 8.3252 11.9689 8 11.9689C7.6748 11.9689 7.3584 11.8632 7.09849 11.6677C6.83857 11.4723 6.64921 11.1976 6.55894 10.8852C6.46868 10.5728 6.48239 10.2395 6.59801 9.93554C6.71364 9.63159 6.92491 9.37344 7.2 9.2V3.5Z" fill="currentColor"/>
</svg>
