<svg width="16" height="16" viewBox="0 0 16 16" fill="none" xmlns="http://www.w3.org/2000/svg">
<path fill-rule="evenodd" clip-rule="evenodd" d="M1 4C1 3.73478 1.10536 3.48043 1.29289 3.29289C1.48043 3.10536 1.73478 3 2 3H9C9.26522 3 9.51957 3.10536 9.70711 3.29289C9.89464 3.48043 10 3.73478 10 4V5H12.2C12.3552 5 12.5084 5.03614 12.6472 5.10557C12.7861 5.175 12.9069 5.2758 13 5.4L14.8 7.8C14.9298 7.9731 15 8.18363 15 8.4V11C15 11.2652 14.8946 11.5196 14.7071 11.7071C14.5196 11.8946 14.2652 12 14 12H13.4C13.4 12.4774 13.2104 12.9352 12.8728 13.2728C12.5352 13.6104 12.0774 13.8 11.6 13.8C11.1226 13.8 10.6648 13.6104 10.3272 13.2728C9.98964 12.9352 9.8 12.4774 9.8 12H6.6C6.6 12.4774 6.41036 12.9352 6.07279 13.2728C5.73523 13.6104 5.27739 13.8 4.8 13.8C4.32261 13.8 3.86477 13.6104 3.52721 13.2728C3.18964 12.9352 3 12.4774 3 12H2C1.73478 12 1.48043 11.8946 1.29289 11.7071C1.10536 11.5196 1 11.2652 1 11V4ZM10 6V8.5H13.7L12 6H10ZM4.3 11.2C4.19494 11.2 4.09091 11.2207 3.99385 11.2609C3.89679 11.3011 3.8086 11.36 3.73431 11.4343C3.66003 11.5086 3.6011 11.5968 3.5609 11.6939C3.52069 11.7909 3.5 11.8949 3.5 12C3.5 12.1051 3.52069 12.2091 3.5609 12.3061C3.6011 12.4032 3.66003 12.4914 3.73431 12.5657C3.8086 12.64 3.89679 12.6989 3.99385 12.7391C4.09091 12.7793 4.19494 12.8 4.3 12.8C4.51217 12.8 4.71566 12.7157 4.86569 12.5657C5.01571 12.4157 5.1 12.2122 5.1 12C5.1 11.7878 5.01571 11.5843 4.86569 11.4343C4.71566 11.2843 4.51217 11.2 4.3 11.2ZM12.7 11.2C12.5949 11.2 12.4909 11.2207 12.3939 11.2609C12.2968 11.3011 12.2086 11.36 12.1343 11.4343C12.06 11.5086 12.0011 11.5968 11.9609 11.6939C11.9207 11.7909 11.9 11.8949 11.9 12C11.9 12.1051 11.9207 12.2091 11.9609 12.3061C12.0011 12.4032 12.06 12.4914 12.1343 12.5657C12.2086 12.64 12.2968 12.6989 12.3939 12.7391C12.4909 12.7793 12.5949 12.8 12.7 12.8C12.9122 12.8 13.1157 12.7157 13.2657 12.5657C13.4157 12.4157 13.5 12.2122 13.5 12C13.5 11.7878 13.4157 11.5843 13.2657 11.4343C13.1157 11.2843 12.9122 11.2 12.7 11.2Z" fill="currentColor"/>
</svg>
