<svg width="16" height="16" viewBox="0 0 16 16" fill="none" xmlns="http://www.w3.org/2000/svg">
<path fill-rule="evenodd" clip-rule="evenodd" d="M8 4.5C8.92826 4.5 9.8185 4.86875 10.4749 5.52513C11.1313 6.1815 11.5 7.07174 11.5 8C11.5 8.92826 11.1313 9.8185 10.4749 10.4749C9.8185 11.1313 8.92826 11.5 8 11.5C7.07174 11.5 6.1815 11.1313 5.52513 10.4749C4.86875 9.8185 4.5 8.92826 4.5 8C4.5 7.07174 4.86875 6.1815 5.52513 5.52513C6.1815 4.86875 7.07174 4.5 8 4.5ZM7.3 1H8.7V2.6H7.3V1ZM7.3 13.4H8.7V15H7.3V13.4ZM1 7.3H2.6V8.7H1V7.3ZM13.4 7.3H15V8.7H13.4V7.3ZM2.8 2.8L3.9 3.9L2.9 4.9L1.8 3.8L2.8 2.8ZM11.1 11.1L12.2 12.2L11.2 13.2L10.1 12.1L11.1 11.1ZM13.2 2.8L12.1 3.9L13.1 4.9L14.2 3.8L13.2 2.8ZM4.9 11.1L3.8 12.2L4.8 13.2L5.9 12.1L4.9 11.1Z" fill="currentColor"/>
</svg>
