<svg width="16" height="16" viewBox="0 0 16 16" fill="none" xmlns="http://www.w3.org/2000/svg">
<path fill-rule="evenodd" clip-rule="evenodd" d="M4 4C4.60305 3.99962 5.19393 4.16966 5.70454 4.49051C6.21515 4.81136 6.62471 5.26996 6.88601 5.81346C7.14731 6.35696 7.24971 6.96323 7.18141 7.5624C7.11312 8.16157 6.87691 8.72925 6.5 9.2H9.5C9.19451 8.55875 9.11105 7.83409 9.26278 7.14019C9.4145 6.44629 9.79278 5.82258 10.338 5.36735C10.8832 4.91211 11.5645 4.65122 12.2743 4.62578C12.9841 4.60033 13.6823 4.81178 14.2587 5.22681C14.8351 5.64184 15.2571 6.23686 15.4581 6.91812C15.6591 7.59938 15.6278 8.32816 15.369 8.98963C15.1102 9.6511 14.6387 10.2077 14.0287 10.5717C13.4187 10.9356 12.705 11.0863 12 11H4C3.07174 11 2.1815 10.6313 1.52513 9.97487C0.868749 9.3185 0.5 8.42826 0.5 7.5C0.5 6.57174 0.868749 5.6815 1.52513 5.02513C2.1815 4.36875 3.07174 4 4 4ZM4 5.6C3.78989 5.6 3.58183 5.64139 3.38771 5.72179C3.19359 5.8022 3.0172 5.92006 2.86863 6.06863C2.72006 6.2172 2.6022 6.39359 2.52179 6.58771C2.44139 6.78183 2.4 6.98989 2.4 7.2C2.4 7.41012 2.44139 7.61817 2.52179 7.81229C2.6022 8.00642 2.72006 8.1828 2.86863 8.33137C3.0172 8.47995 3.19359 8.5978 3.38771 8.67821C3.58183 8.75862 3.78989 8.8 4 8.8C4.42435 8.8 4.83131 8.63143 5.13137 8.33137C5.43143 8.03131 5.6 7.62435 5.6 7.2C5.6 6.77565 5.43143 6.36869 5.13137 6.06863C4.83131 5.76857 4.42435 5.6 4 5.6ZM12 5.6C11.7899 5.6 11.5818 5.64139 11.3877 5.72179C11.1936 5.8022 11.0172 5.92006 10.8686 6.06863C10.7201 6.2172 10.6022 6.39359 10.5218 6.58771C10.4414 6.78183 10.4 6.98989 10.4 7.2C10.4 7.41012 10.4414 7.61817 10.5218 7.81229C10.6022 8.00642 10.7201 8.1828 10.8686 8.33137C11.0172 8.47995 11.1936 8.5978 11.3877 8.67821C11.5818 8.75862 11.7899 8.8 12 8.8C12.4243 8.8 12.8313 8.63143 13.1314 8.33137C13.4314 8.03131 13.6 7.62435 13.6 7.2C13.6 6.77565 13.4314 6.36869 13.1314 6.06863C12.8313 5.76857 12.4243 5.6 12 5.6Z" fill="currentColor"/>
</svg>
