<svg width="16" height="16" viewBox="0 0 16 16" fill="none" xmlns="http://www.w3.org/2000/svg">
<path d="M11.5355 14.0104C13.0737 12.4722 14.0251 10.3472 14.0251 8.00003C14.0251 5.65282 13.0737 3.52782 11.5355 1.98962L10.8284 2.69673C12.1857 4.05396 13.0251 5.92896 13.0251 8.00003C13.0251 10.0711 12.1857 11.9461 10.8284 13.3033L11.5355 14.0104Z" fill="currentColor"/>
<path d="M10.1213 12.5962C11.2976 11.4199 12.0251 9.79493 12.0251 8C12.0251 6.20508 11.2976 4.58008 10.1213 3.40381L9.41418 4.11091C10.4095 5.10622 11.0251 6.48122 11.0251 8C11.0251 9.51878 10.4095 10.8938 9.41418 11.8891L10.1213 12.5962Z" fill="currentColor"/>
<path d="M8.70711 11.182C9.52145 10.3676 10.0251 9.24261 10.0251 7.99997C10.0251 6.75733 9.52145 5.63233 8.70711 4.81799L8 5.5251C8.63338 6.15847 9.02513 7.03347 9.02513 7.99997C9.02513 8.96647 8.63338 9.84147 8 10.4749L8.70711 11.182Z" fill="currentColor"/>
<path d="M6.71659 3.54935C6.88983 3.63261 7 3.8078 7 4V12C7 12.1922 6.88983 12.3674 6.71659 12.4507C6.54336 12.5339 6.33774 12.5105 6.18765 12.3904L3.82461 10.5H1.5C1.22386 10.5 1 10.2761 1 10V6C1 5.72386 1.22386 5.5 1.5 5.5H3.82461L6.18765 3.60957C6.33774 3.4895 6.54336 3.46609 6.71659 3.54935Z" fill="currentColor"/>
</svg>
