<svg width="16" height="16" viewBox="0 0 16 16" fill="none" xmlns="http://www.w3.org/2000/svg">
<path d="M1 5.49995C2.3 5.49995 2.8 4.19995 4.2 4.19995C5.6 4.19995 6.2 5.49995 7.5 5.49995C8.8 5.49995 9.3 4.19995 10.7 4.19995C12.1 4.19995 12.7 5.49995 14 5.49995V7.09995C12.7 7.09995 12.2 5.79995 10.7 5.79995C9.2 5.79995 8.9 7.09995 7.5 7.09995C6.1 7.09995 5.5 5.79995 4.2 5.79995C2.9 5.79995 2.4 7.09995 1 7.09995V5.49995ZM1 9.49995C2.3 9.49995 2.8 8.19995 4.2 8.19995C5.6 8.19995 6.2 9.49995 7.5 9.49995C8.8 9.49995 9.3 8.19995 10.7 8.19995C12.1 8.19995 12.7 9.49995 14 9.49995V11C12.7 11 12.2 9.69995 10.7 9.69995C9.2 9.69995 8.9 11 7.5 11C6.1 11 5.5 9.69995 4.2 9.69995C2.9 9.69995 2.3 11 1 11V9.49995Z" fill="currentColor"/>
</svg>
