<svg width="16" height="16" viewBox="0 0 16 16" fill="none" xmlns="http://www.w3.org/2000/svg">
<path d="M8 1.5C6.27609 1.5 4.62279 2.18482 3.40381 3.40381C2.18482 4.62279 1.5 6.27609 1.5 8C1.5 9.72391 2.18482 11.3772 3.40381 12.5962C4.62279 13.8152 6.27609 14.5 8 14.5C9.72391 14.5 11.3772 13.8152 12.5962 12.5962C13.8152 11.3772 14.5 9.72391 14.5 8C14.5 6.27609 13.8152 4.62279 12.5962 3.40381C11.3772 2.18482 9.72391 1.5 8 1.5ZM8 3C8.86195 3 9.6886 3.34241 10.2981 3.9519C10.9076 4.5614 11.25 5.38805 11.25 6.25C11.25 7.11195 10.9076 7.9386 10.2981 8.5481C9.6886 9.15759 8.86195 9.5 8 9.5C7.13805 9.5 6.3114 9.84241 5.7019 10.4519C5.09241 11.0614 4.75 11.888 4.75 12.75C4.75 13.612 5.09241 14.4386 5.7019 15.0481C6.3114 15.6576 7.13805 16 8 16C6.27609 16 4.62279 15.3152 3.40381 14.0962C2.18482 12.8772 1.5 11.2239 1.5 9.5C1.5 7.77609 2.18482 6.12279 3.40381 4.90381C4.62279 3.68482 6.27609 3 8 3Z" fill="currentColor"/>
</svg>
